<?xml version='1.0' encoding='UTF-8' standalone='no'?>
<svg height="297mm" xmlns:cc="http://creativecommons.org/ns#" xmlns:xlink="http://www.w3.org/1999/xlink" width="420mm" baseProfile="tiny" xmlns:freecad="http://www.freecadweb.org/wiki/index.php?title=Svg_Namespace" xmlns:svg="http://www.w3.org/2000/svg" xmlns:rdf="http://www.w3.org/1999/02/22-rdf-syntax-ns#" xmlns:inkscape="http://www.inkscape.org/namespaces/inkscape" xmlns:sodipodi="http://sodipodi.sourceforge.net/DTD/sodipodi-0.dtd" viewBox="0 0 4200 2970" xmlns="http://www.w3.org/2000/svg" xmlns:dc="http://purl.org/dc/elements/1.1/" version="1.2">
 <title>FreeCAD SVG Export</title>
 <desc>Drawing page: Page003 exported from FreeCAD document: QCK</desc>
 <defs/>
 <g id="Page003" inkscape:groupmode="layer" inkscape:label="TechDraw">
  <g fill="none" fill-rule="evenodd" stroke-linejoin="bevel" stroke="black" stroke-linecap="square" id="DrawingContent" stroke-width="1">
   <g fill="#ffffff" font-weight="400" font-style="normal" fill-opacity="1" stroke="none" font-family="MS Shell Dlg 2" font-size="29.1042" transform="matrix(1,0,0,1,1992.24,813.431)">
    <path fill-rule="evenodd" d="M1954.28,-740.563 L1954.28,740.563 C1954.28,759.892 1938.61,775.562 1919.28,775.563 L-1919.28,775.562 C-1938.61,775.562 -1954.28,759.892 -1954.28,740.562 L-1954.28,-740.563 C-1954.28,-759.892 -1938.61,-775.563 -1919.28,-775.563 L1919.28,-775.563 C1938.61,-775.563 1954.28,-759.892 1954.28,-740.563 " vector-effect="non-scaling-stroke"/>
   </g>
   <g fill="#ffffff" font-weight="400" font-style="normal" fill-opacity="1" stroke="none" font-family="MS Shell Dlg 2" font-size="29.1042" transform="matrix(1,0,0,1,1992.24,813.431)">
    <path fill-rule="evenodd" d="M1527.82,245.912 L1527.82,-325.599 L-1329.69,-325.599 L-1329.69,626.923 L1146.82,626.923 L1146.82,436.412 L1337.32,436.412 L1337.32,245.912 L1527.82,245.912" vector-effect="non-scaling-stroke"/>
   </g>
   <g fill="#ffffff" font-weight="400" font-style="normal" fill-opacity="1" stroke="none" font-family="MS Shell Dlg 2" font-size="29.1042" transform="matrix(1,0,0,1,1992.24,813.431)">
    <path fill-rule="evenodd" d="M-1631.46,-135.099 L-1805.95,-135.099 L-1805.95,626.923 L-1424.93,626.923 L-1424.93,-325.599 L-1615.45,-325.599 L-1615.45,-151.112 C-1615.45,-142.268 -1622.62,-135.099 -1631.46,-135.099 " vector-effect="non-scaling-stroke"/>
   </g>
   <g fill="#ffffff" font-weight="400" font-style="normal" fill-opacity="1" stroke="none" font-family="MS Shell Dlg 2" font-size="29.1042" transform="matrix(1,0,0,1,1992.24,813.431)">
    <path fill-rule="evenodd" d="M1813.57,436.412 L1813.57,-325.599 L1623.05,-325.599 L1623.05,436.412 L1813.57,436.412" vector-effect="non-scaling-stroke"/>
   </g>
   <g fill="#ffffff" font-weight="400" font-style="normal" fill-opacity="1" stroke="none" font-family="MS Shell Dlg 2" font-size="29.1042" transform="matrix(1,0,0,1,1992.24,813.431)">
    <path fill-rule="evenodd" d="M1765.95,674.542 L1765.95,484.024 L1575.45,484.024 L1575.45,293.524 L1384.92,293.524 L1384.92,484.024 L1194.42,484.024 L1194.42,674.542 L1765.95,674.542" vector-effect="non-scaling-stroke"/>
   </g>
   <g fill="#ffffff" font-weight="400" font-style="normal" fill-opacity="1" stroke="none" font-family="MS Shell Dlg 2" font-size="29.1042" transform="matrix(1,0,0,1,1992.24,813.431)">
    <path fill-rule="evenodd" d="M480.074,-373.208 L480.074,-563.728 L-281.945,-563.728 L-281.945,-373.208 L480.074,-373.208" vector-effect="non-scaling-stroke"/>
   </g>
   <g fill="#ffffff" font-weight="400" font-style="normal" fill-opacity="1" stroke="none" font-family="MS Shell Dlg 2" font-size="29.1042" transform="matrix(1,0,0,1,1992.24,813.431)">
    <path fill-rule="evenodd" d="M1289.7,-373.208 L1289.7,-563.728 L527.683,-563.728 L527.683,-373.208 L1289.7,-373.208" vector-effect="non-scaling-stroke"/>
   </g>
   <g fill="#ffffff" font-weight="400" font-style="normal" fill-opacity="1" stroke="none" font-family="MS Shell Dlg 2" font-size="29.1042" transform="matrix(1,0,0,1,1992.24,813.431)">
    <path fill-rule="evenodd" d="M-329.546,-373.208 L-329.546,-563.728 L-1091.55,-563.728 L-1091.57,-373.208 L-329.546,-373.208" vector-effect="non-scaling-stroke"/>
   </g>
   <g fill="#ffffff" font-weight="400" font-style="normal" fill-opacity="1" stroke="none" font-family="MS Shell Dlg 2" font-size="29.1042" transform="matrix(1,0,0,1,1992.24,813.431)">
    <path fill-rule="evenodd" d="M-1447.57,-603.04 L-1447.57,-446.44 C-1447.57,-443.679 -1449.81,-441.44 -1452.57,-441.44 L-1754.07,-441.44 C-1756.83,-441.44 -1759.07,-443.679 -1759.07,-446.44 L-1759.07,-603.04 C-1759.07,-605.802 -1756.83,-608.04 -1754.07,-608.04 L-1452.57,-608.04 C-1449.81,-608.04 -1447.57,-605.802 -1447.57,-603.04 " vector-effect="non-scaling-stroke"/>
   </g>
   <g fill="#ffffff" font-weight="400" font-style="normal" fill-opacity="1" stroke="none" font-family="MS Shell Dlg 2" font-size="29.1042" transform="matrix(1,0,0,1,1992.24,813.431)">
    <path fill-rule="evenodd" d="M1813.57,-373.208 L1813.57,-563.728 L1623.05,-563.728 L1623.05,-373.208 L1813.57,-373.208" vector-effect="non-scaling-stroke"/>
   </g>
   <g fill="#ffffff" font-weight="400" font-style="normal" fill-opacity="1" stroke="none" font-family="MS Shell Dlg 2" font-size="29.1042" transform="matrix(1,0,0,1,1992.24,813.431)">
    <path fill-rule="evenodd" d="M1527.82,-373.208 L1527.82,-563.728 L1337.3,-563.728 L1337.3,-373.208 L1527.82,-373.208" vector-effect="non-scaling-stroke"/>
   </g>
   <g fill="#ffffff" font-weight="400" font-style="normal" fill-opacity="1" stroke="none" font-family="MS Shell Dlg 2" font-size="29.1042" transform="matrix(1,0,0,1,1992.24,813.431)">
    <path fill-rule="evenodd" d="M-1139.18,-373.208 L-1139.18,-563.728 L-1329.69,-563.728 L-1329.69,-373.208 L-1139.18,-373.208" vector-effect="non-scaling-stroke"/>
   </g>
   <g fill="#ffffff" font-weight="400" font-style="normal" fill-opacity="1" stroke="none" font-family="MS Shell Dlg 2" font-size="29.1042" transform="matrix(1,0,0,1,1992.24,813.431)">
    <path fill-rule="evenodd" d="M-1668.41,-230.077 C-1668.41,-207.985 -1686.32,-190.077 -1708.41,-190.077 C-1730.5,-190.077 -1748.41,-207.985 -1748.41,-230.077 C-1748.41,-252.168 -1730.5,-270.077 -1708.41,-270.077 C-1686.32,-270.077 -1668.41,-252.168 -1668.41,-230.077 " vector-effect="non-scaling-stroke"/>
   </g>
   <g fill="#ffffff" font-weight="400" font-style="normal" fill-opacity="1" stroke="none" font-family="MS Shell Dlg 2" font-size="29.1042" transform="matrix(1,0,0,1,1992.24,813.431)">
    <path fill-rule="evenodd" d="M-1903.28,-740.563 C-1903.28,-731.726 -1910.44,-724.563 -1919.28,-724.563 C-1928.12,-724.563 -1935.28,-731.726 -1935.28,-740.563 C-1935.28,-749.399 -1928.12,-756.563 -1919.28,-756.563 C-1910.44,-756.563 -1903.28,-749.399 -1903.28,-740.563 " vector-effect="non-scaling-stroke"/>
   </g>
   <g fill="#ffffff" font-weight="400" font-style="normal" fill-opacity="1" stroke="none" font-family="MS Shell Dlg 2" font-size="29.1042" transform="matrix(1,0,0,1,1992.24,813.431)">
    <path fill-rule="evenodd" d="M-1903.28,740.563 C-1903.28,749.399 -1910.44,756.563 -1919.28,756.563 C-1928.12,756.563 -1935.28,749.399 -1935.28,740.563 C-1935.28,731.726 -1928.12,724.563 -1919.28,724.563 C-1910.44,724.563 -1903.28,731.726 -1903.28,740.563 " vector-effect="non-scaling-stroke"/>
   </g>
   <g fill="#ffffff" font-weight="400" font-style="normal" fill-opacity="1" stroke="none" font-family="MS Shell Dlg 2" font-size="29.1042" transform="matrix(1,0,0,1,1992.24,813.431)">
    <path fill-rule="evenodd" d="M-1135.57,740.562 C-1135.57,749.399 -1142.73,756.562 -1151.57,756.562 C-1160.41,756.562 -1167.57,749.399 -1167.57,740.562 C-1167.57,731.726 -1160.41,724.562 -1151.57,724.562 C-1142.73,724.562 -1135.57,731.726 -1135.57,740.562 " vector-effect="non-scaling-stroke"/>
   </g>
   <g fill="#ffffff" font-weight="400" font-style="normal" fill-opacity="1" stroke="none" font-family="MS Shell Dlg 2" font-size="29.1042" transform="matrix(1,0,0,1,1992.24,813.431)">
    <path fill-rule="evenodd" d="M1167.57,-740.563 C1167.57,-731.726 1160.4,-724.563 1151.57,-724.563 C1142.73,-724.563 1135.57,-731.726 1135.57,-740.563 C1135.57,-749.399 1142.73,-756.563 1151.57,-756.563 C1160.4,-756.563 1167.57,-749.399 1167.57,-740.563 " vector-effect="non-scaling-stroke"/>
   </g>
   <g fill="#ffffff" font-weight="400" font-style="normal" fill-opacity="1" stroke="none" font-family="MS Shell Dlg 2" font-size="29.1042" transform="matrix(1,0,0,1,1992.24,813.431)">
    <path fill-rule="evenodd" d="M399.855,-740.563 C399.855,-731.726 392.692,-724.563 383.855,-724.563 C375.018,-724.563 367.855,-731.726 367.855,-740.563 C367.855,-749.399 375.018,-756.563 383.855,-756.563 C392.692,-756.563 399.855,-749.399 399.855,-740.563 " vector-effect="non-scaling-stroke"/>
   </g>
   <g fill="#ffffff" font-weight="400" font-style="normal" fill-opacity="1" stroke="none" font-family="MS Shell Dlg 2" font-size="29.1042" transform="matrix(1,0,0,1,1992.24,813.431)">
    <path fill-rule="evenodd" d="M399.855,740.562 C399.855,749.399 392.692,756.562 383.855,756.562 C375.018,756.562 367.855,749.399 367.855,740.562 C367.855,731.726 375.018,724.562 383.855,724.562 C392.692,724.562 399.855,731.726 399.855,740.562 " vector-effect="non-scaling-stroke"/>
   </g>
   <g fill="#ffffff" font-weight="400" font-style="normal" fill-opacity="1" stroke="none" font-family="MS Shell Dlg 2" font-size="29.1042" transform="matrix(1,0,0,1,1992.24,813.431)">
    <path fill-rule="evenodd" d="M-367.857,-740.563 C-367.857,-731.726 -375.02,-724.563 -383.857,-724.563 C-392.694,-724.563 -399.857,-731.726 -399.857,-740.563 C-399.857,-749.399 -392.694,-756.563 -383.857,-756.563 C-375.02,-756.563 -367.857,-749.399 -367.857,-740.563 " vector-effect="non-scaling-stroke"/>
   </g>
   <g fill="#ffffff" font-weight="400" font-style="normal" fill-opacity="1" stroke="none" font-family="MS Shell Dlg 2" font-size="29.1042" transform="matrix(1,0,0,1,1992.24,813.431)">
    <path fill-rule="evenodd" d="M1935.28,740.562 C1935.28,749.399 1928.12,756.562 1919.28,756.562 C1910.44,756.562 1903.28,749.399 1903.28,740.562 C1903.28,731.726 1910.44,724.562 1919.28,724.562 C1928.12,724.562 1935.28,731.726 1935.28,740.562 " vector-effect="non-scaling-stroke"/>
   </g>
   <g fill="#ffffff" font-weight="400" font-style="normal" fill-opacity="1" stroke="none" font-family="MS Shell Dlg 2" font-size="29.1042" transform="matrix(1,0,0,1,1992.24,813.431)">
    <path fill-rule="evenodd" d="M-367.857,740.562 C-367.857,749.399 -375.02,756.562 -383.857,756.562 C-392.694,756.562 -399.857,749.399 -399.857,740.562 C-399.857,731.726 -392.694,724.562 -383.857,724.562 C-375.02,724.562 -367.857,731.726 -367.857,740.562 " vector-effect="non-scaling-stroke"/>
   </g>
   <g fill="#ffffff" font-weight="400" font-style="normal" fill-opacity="1" stroke="none" font-family="MS Shell Dlg 2" font-size="29.1042" transform="matrix(1,0,0,1,1992.24,813.431)">
    <path fill-rule="evenodd" d="M1935.28,-740.563 C1935.28,-731.726 1928.12,-724.563 1919.28,-724.563 C1910.44,-724.563 1903.28,-731.726 1903.28,-740.563 C1903.28,-749.399 1910.44,-756.563 1919.28,-756.563 C1928.12,-756.563 1935.28,-749.399 1935.28,-740.563 " vector-effect="non-scaling-stroke"/>
   </g>
   <g fill="#ffffff" font-weight="400" font-style="normal" fill-opacity="1" stroke="none" font-family="MS Shell Dlg 2" font-size="29.1042" transform="matrix(1,0,0,1,1992.24,813.431)">
    <path fill-rule="evenodd" d="M1167.57,740.562 C1167.57,749.399 1160.4,756.562 1151.57,756.562 C1142.73,756.562 1135.57,749.399 1135.57,740.562 C1135.57,731.726 1142.73,724.562 1151.57,724.562 C1160.4,724.562 1167.57,731.726 1167.57,740.562 " vector-effect="non-scaling-stroke"/>
   </g>
   <g fill="#ffffff" font-weight="400" font-style="normal" fill-opacity="1" stroke="none" font-family="MS Shell Dlg 2" font-size="29.1042" transform="matrix(1,0,0,1,1992.24,813.431)">
    <path fill-rule="evenodd" d="M-1135.57,-740.563 C-1135.57,-731.726 -1142.73,-724.563 -1151.57,-724.563 C-1160.41,-724.563 -1167.57,-731.726 -1167.57,-740.563 C-1167.57,-749.399 -1160.41,-756.563 -1151.57,-756.563 C-1142.73,-756.563 -1135.57,-749.399 -1135.57,-740.563 " vector-effect="non-scaling-stroke"/>
   </g>
   <g fill="none" font-weight="400" font-style="normal" stroke-linejoin="bevel" stroke="#000000" font-family="MS Shell Dlg 2" font-size="29.1042" stroke-opacity="1" transform="matrix(1,0,0,1,1992.24,813.431)" stroke-linecap="round" stroke-width="7">
    <path fill-rule="evenodd" d="M-1954.28,740.562 L-1954.28,-740.563" vector-effect="none"/>
   </g>
   <g fill="none" font-weight="400" font-style="normal" stroke-linejoin="bevel" stroke="#000000" font-family="MS Shell Dlg 2" font-size="29.1042" stroke-opacity="1" transform="matrix(1,0,0,1,1992.24,813.431)" stroke-linecap="round" stroke-width="7">
    <path fill-rule="evenodd" d="M-1954.28,740.562 C-1954.28,759.892 -1938.61,775.562 -1919.28,775.562 " vector-effect="none"/>
   </g>
   <g fill="none" font-weight="400" font-style="normal" stroke-linejoin="bevel" stroke="#000000" font-family="MS Shell Dlg 2" font-size="29.1042" stroke-opacity="1" transform="matrix(1,0,0,1,1992.24,813.431)" stroke-linecap="round" stroke-width="7">
    <path fill-rule="evenodd" d="M-1919.28,-775.563 C-1938.61,-775.563 -1954.28,-759.892 -1954.28,-740.563 " vector-effect="none"/>
   </g>
   <g fill="none" font-weight="400" font-style="normal" stroke-linejoin="bevel" stroke="#000000" font-family="MS Shell Dlg 2" font-size="29.1042" stroke-opacity="1" transform="matrix(1,0,0,1,1992.24,813.431)" stroke-linecap="round" stroke-width="7">
    <path fill-rule="evenodd" d="M1919.28,775.563 L-1919.28,775.563" vector-effect="none"/>
   </g>
   <g fill="none" font-weight="400" font-style="normal" stroke-linejoin="bevel" stroke="#000000" font-family="MS Shell Dlg 2" font-size="29.1042" stroke-opacity="1" transform="matrix(1,0,0,1,1992.24,813.431)" stroke-linecap="round" stroke-width="7">
    <path fill-rule="evenodd" d="M-1919.28,-775.563 L1919.28,-775.563" vector-effect="none"/>
   </g>
   <g fill="none" font-weight="400" font-style="normal" stroke-linejoin="bevel" stroke="#000000" font-family="MS Shell Dlg 2" font-size="29.1042" stroke-opacity="1" transform="matrix(1,0,0,1,1992.24,813.431)" stroke-linecap="round" stroke-width="7">
    <path fill-rule="evenodd" d="M1919.28,775.563 C1938.61,775.562 1954.28,759.892 1954.28,740.563 " vector-effect="none"/>
   </g>
   <g fill="none" font-weight="400" font-style="normal" stroke-linejoin="bevel" stroke="#000000" font-family="MS Shell Dlg 2" font-size="29.1042" stroke-opacity="1" transform="matrix(1,0,0,1,1992.24,813.431)" stroke-linecap="round" stroke-width="7">
    <path fill-rule="evenodd" d="M1954.28,-740.563 C1954.28,-759.892 1938.61,-775.563 1919.28,-775.563 " vector-effect="none"/>
   </g>
   <g fill="none" font-weight="400" font-style="normal" stroke-linejoin="bevel" stroke="#000000" font-family="MS Shell Dlg 2" font-size="29.1042" stroke-opacity="1" transform="matrix(1,0,0,1,1992.24,813.431)" stroke-linecap="round" stroke-width="7">
    <path fill-rule="evenodd" d="M1954.28,-740.563 L1954.28,740.563" vector-effect="none"/>
   </g>
   <g fill="none" font-weight="400" font-style="normal" stroke-linejoin="bevel" stroke="#000000" font-family="MS Shell Dlg 2" font-size="29.1042" stroke-opacity="1" transform="matrix(1,0,0,1,1992.24,813.431)" stroke-linecap="round" stroke-width="7">
    <path fill-rule="evenodd" d="M-1903.28,740.563 C-1903.28,749.399 -1910.44,756.563 -1919.28,756.563 C-1928.12,756.563 -1935.28,749.399 -1935.28,740.563 C-1935.28,731.726 -1928.12,724.563 -1919.28,724.563 C-1910.44,724.563 -1903.28,731.726 -1903.28,740.563 " vector-effect="none"/>
   </g>
   <g fill="none" font-weight="400" font-style="normal" stroke-linejoin="bevel" stroke="#000000" font-family="MS Shell Dlg 2" font-size="29.1042" stroke-opacity="1" transform="matrix(1,0,0,1,1992.24,813.431)" stroke-linecap="round" stroke-width="7">
    <path fill-rule="evenodd" d="M-1135.57,740.562 C-1135.57,749.399 -1142.73,756.562 -1151.57,756.562 C-1160.41,756.562 -1167.57,749.399 -1167.57,740.562 C-1167.57,731.726 -1160.41,724.562 -1151.57,724.562 C-1142.73,724.562 -1135.57,731.726 -1135.57,740.562 " vector-effect="none"/>
   </g>
   <g fill="none" font-weight="400" font-style="normal" stroke-linejoin="bevel" stroke="#000000" font-family="MS Shell Dlg 2" font-size="29.1042" stroke-opacity="1" transform="matrix(1,0,0,1,1992.24,813.431)" stroke-linecap="round" stroke-width="7">
    <path fill-rule="evenodd" d="M-367.857,740.562 C-367.857,749.399 -375.02,756.562 -383.857,756.562 C-392.694,756.562 -399.857,749.399 -399.857,740.562 C-399.857,731.726 -392.694,724.562 -383.857,724.562 C-375.02,724.562 -367.857,731.726 -367.857,740.562 " vector-effect="none"/>
   </g>
   <g fill="none" font-weight="400" font-style="normal" stroke-linejoin="bevel" stroke="#000000" font-family="MS Shell Dlg 2" font-size="29.1042" stroke-opacity="1" transform="matrix(1,0,0,1,1992.24,813.431)" stroke-linecap="round" stroke-width="7">
    <path fill-rule="evenodd" d="M-1631.46,-135.099 L-1805.95,-135.099" vector-effect="none"/>
   </g>
   <g fill="none" font-weight="400" font-style="normal" stroke-linejoin="bevel" stroke="#000000" font-family="MS Shell Dlg 2" font-size="29.1042" stroke-opacity="1" transform="matrix(1,0,0,1,1992.24,813.431)" stroke-linecap="round" stroke-width="7">
    <path fill-rule="evenodd" d="M-1805.95,-135.099 L-1805.95,626.923" vector-effect="none"/>
   </g>
   <g fill="none" font-weight="400" font-style="normal" stroke-linejoin="bevel" stroke="#000000" font-family="MS Shell Dlg 2" font-size="29.1042" stroke-opacity="1" transform="matrix(1,0,0,1,1992.24,813.431)" stroke-linecap="round" stroke-width="7">
    <path fill-rule="evenodd" d="M-1805.95,626.923 L-1424.93,626.923" vector-effect="none"/>
   </g>
   <g fill="none" font-weight="400" font-style="normal" stroke-linejoin="bevel" stroke="#000000" font-family="MS Shell Dlg 2" font-size="29.1042" stroke-opacity="1" transform="matrix(1,0,0,1,1992.24,813.431)" stroke-linecap="round" stroke-width="7">
    <path fill-rule="evenodd" d="M-1424.93,626.923 L-1424.93,-325.599" vector-effect="none"/>
   </g>
   <g fill="none" font-weight="400" font-style="normal" stroke-linejoin="bevel" stroke="#000000" font-family="MS Shell Dlg 2" font-size="29.1042" stroke-opacity="1" transform="matrix(1,0,0,1,1992.24,813.431)" stroke-linecap="round" stroke-width="7">
    <path fill-rule="evenodd" d="M-1424.93,-325.599 L-1615.45,-325.599" vector-effect="none"/>
   </g>
   <g fill="none" font-weight="400" font-style="normal" stroke-linejoin="bevel" stroke="#000000" font-family="MS Shell Dlg 2" font-size="29.1042" stroke-opacity="1" transform="matrix(1,0,0,1,1992.24,813.431)" stroke-linecap="round" stroke-width="7">
    <path fill-rule="evenodd" d="M-1615.45,-325.599 L-1615.45,-151.112" vector-effect="none"/>
   </g>
   <g fill="none" font-weight="400" font-style="normal" stroke-linejoin="bevel" stroke="#000000" font-family="MS Shell Dlg 2" font-size="29.1042" stroke-opacity="1" transform="matrix(1,0,0,1,1992.24,813.431)" stroke-linecap="round" stroke-width="7">
    <path fill-rule="evenodd" d="M-1631.46,-135.099 C-1622.62,-135.099 -1615.45,-142.268 -1615.45,-151.112 " vector-effect="none"/>
   </g>
   <g fill="none" font-weight="400" font-style="normal" stroke-linejoin="bevel" stroke="#000000" font-family="MS Shell Dlg 2" font-size="29.1042" stroke-opacity="1" transform="matrix(1,0,0,1,1992.24,813.431)" stroke-linecap="round" stroke-width="7">
    <path fill-rule="evenodd" d="M399.855,740.562 C399.855,749.399 392.692,756.562 383.855,756.562 C375.018,756.562 367.855,749.399 367.855,740.562 C367.855,731.726 375.018,724.562 383.855,724.562 C392.692,724.562 399.855,731.726 399.855,740.562 " vector-effect="none"/>
   </g>
   <g fill="none" font-weight="400" font-style="normal" stroke-linejoin="bevel" stroke="#000000" font-family="MS Shell Dlg 2" font-size="29.1042" stroke-opacity="1" transform="matrix(1,0,0,1,1992.24,813.431)" stroke-linecap="round" stroke-width="7">
    <path fill-rule="evenodd" d="M1167.57,740.562 C1167.57,749.399 1160.4,756.562 1151.57,756.562 C1142.73,756.562 1135.57,749.399 1135.57,740.562 C1135.57,731.726 1142.73,724.562 1151.57,724.562 C1160.4,724.562 1167.57,731.726 1167.57,740.562 " vector-effect="none"/>
   </g>
   <g fill="none" font-weight="400" font-style="normal" stroke-linejoin="bevel" stroke="#000000" font-family="MS Shell Dlg 2" font-size="29.1042" stroke-opacity="1" transform="matrix(1,0,0,1,1992.24,813.431)" stroke-linecap="round" stroke-width="7">
    <path fill-rule="evenodd" d="M1935.28,740.562 C1935.28,749.399 1928.12,756.562 1919.28,756.562 C1910.44,756.562 1903.28,749.399 1903.28,740.562 C1903.28,731.726 1910.44,724.562 1919.28,724.562 C1928.12,724.562 1935.28,731.726 1935.28,740.562 " vector-effect="none"/>
   </g>
   <g fill="none" font-weight="400" font-style="normal" stroke-linejoin="bevel" stroke="#000000" font-family="MS Shell Dlg 2" font-size="29.1042" stroke-opacity="1" transform="matrix(1,0,0,1,1992.24,813.431)" stroke-linecap="round" stroke-width="7">
    <path fill-rule="evenodd" d="M1384.92,293.524 L1384.92,484.024" vector-effect="none"/>
   </g>
   <g fill="none" font-weight="400" font-style="normal" stroke-linejoin="bevel" stroke="#000000" font-family="MS Shell Dlg 2" font-size="29.1042" stroke-opacity="1" transform="matrix(1,0,0,1,1992.24,813.431)" stroke-linecap="round" stroke-width="7">
    <path fill-rule="evenodd" d="M1384.92,484.024 L1194.42,484.024" vector-effect="none"/>
   </g>
   <g fill="none" font-weight="400" font-style="normal" stroke-linejoin="bevel" stroke="#000000" font-family="MS Shell Dlg 2" font-size="29.1042" stroke-opacity="1" transform="matrix(1,0,0,1,1992.24,813.431)" stroke-linecap="round" stroke-width="7">
    <path fill-rule="evenodd" d="M1194.42,484.024 L1194.42,674.542" vector-effect="none"/>
   </g>
   <g fill="none" font-weight="400" font-style="normal" stroke-linejoin="bevel" stroke="#000000" font-family="MS Shell Dlg 2" font-size="29.1042" stroke-opacity="1" transform="matrix(1,0,0,1,1992.24,813.431)" stroke-linecap="round" stroke-width="7">
    <path fill-rule="evenodd" d="M1194.42,674.542 L1765.95,674.542" vector-effect="none"/>
   </g>
   <g fill="none" font-weight="400" font-style="normal" stroke-linejoin="bevel" stroke="#000000" font-family="MS Shell Dlg 2" font-size="29.1042" stroke-opacity="1" transform="matrix(1,0,0,1,1992.24,813.431)" stroke-linecap="round" stroke-width="7">
    <path fill-rule="evenodd" d="M1765.95,674.542 L1765.95,484.024" vector-effect="none"/>
   </g>
   <g fill="none" font-weight="400" font-style="normal" stroke-linejoin="bevel" stroke="#000000" font-family="MS Shell Dlg 2" font-size="29.1042" stroke-opacity="1" transform="matrix(1,0,0,1,1992.24,813.431)" stroke-linecap="round" stroke-width="7">
    <path fill-rule="evenodd" d="M1765.95,484.024 L1575.45,484.024" vector-effect="none"/>
   </g>
   <g fill="none" font-weight="400" font-style="normal" stroke-linejoin="bevel" stroke="#000000" font-family="MS Shell Dlg 2" font-size="29.1042" stroke-opacity="1" transform="matrix(1,0,0,1,1992.24,813.431)" stroke-linecap="round" stroke-width="7">
    <path fill-rule="evenodd" d="M1575.45,484.024 L1575.45,293.524" vector-effect="none"/>
   </g>
   <g fill="none" font-weight="400" font-style="normal" stroke-linejoin="bevel" stroke="#000000" font-family="MS Shell Dlg 2" font-size="29.1042" stroke-opacity="1" transform="matrix(1,0,0,1,1992.24,813.431)" stroke-linecap="round" stroke-width="7">
    <path fill-rule="evenodd" d="M1575.45,293.524 L1384.92,293.524" vector-effect="none"/>
   </g>
   <g fill="none" font-weight="400" font-style="normal" stroke-linejoin="bevel" stroke="#000000" font-family="MS Shell Dlg 2" font-size="29.1042" stroke-opacity="1" transform="matrix(1,0,0,1,1992.24,813.431)" stroke-linecap="round" stroke-width="7">
    <path fill-rule="evenodd" d="M-1329.69,-325.599 L-1329.69,626.923" vector-effect="none"/>
   </g>
   <g fill="none" font-weight="400" font-style="normal" stroke-linejoin="bevel" stroke="#000000" font-family="MS Shell Dlg 2" font-size="29.1042" stroke-opacity="1" transform="matrix(1,0,0,1,1992.24,813.431)" stroke-linecap="round" stroke-width="7">
    <path fill-rule="evenodd" d="M-1329.69,626.923 L1146.82,626.923" vector-effect="none"/>
   </g>
   <g fill="none" font-weight="400" font-style="normal" stroke-linejoin="bevel" stroke="#000000" font-family="MS Shell Dlg 2" font-size="29.1042" stroke-opacity="1" transform="matrix(1,0,0,1,1992.24,813.431)" stroke-linecap="round" stroke-width="7">
    <path fill-rule="evenodd" d="M1146.82,626.923 L1146.82,436.412" vector-effect="none"/>
   </g>
   <g fill="none" font-weight="400" font-style="normal" stroke-linejoin="bevel" stroke="#000000" font-family="MS Shell Dlg 2" font-size="29.1042" stroke-opacity="1" transform="matrix(1,0,0,1,1992.24,813.431)" stroke-linecap="round" stroke-width="7">
    <path fill-rule="evenodd" d="M1146.82,436.412 L1337.32,436.412" vector-effect="none"/>
   </g>
   <g fill="none" font-weight="400" font-style="normal" stroke-linejoin="bevel" stroke="#000000" font-family="MS Shell Dlg 2" font-size="29.1042" stroke-opacity="1" transform="matrix(1,0,0,1,1992.24,813.431)" stroke-linecap="round" stroke-width="7">
    <path fill-rule="evenodd" d="M1337.32,436.412 L1337.32,245.912" vector-effect="none"/>
   </g>
   <g fill="none" font-weight="400" font-style="normal" stroke-linejoin="bevel" stroke="#000000" font-family="MS Shell Dlg 2" font-size="29.1042" stroke-opacity="1" transform="matrix(1,0,0,1,1992.24,813.431)" stroke-linecap="round" stroke-width="7">
    <path fill-rule="evenodd" d="M1337.32,245.912 L1527.82,245.912" vector-effect="none"/>
   </g>
   <g fill="none" font-weight="400" font-style="normal" stroke-linejoin="bevel" stroke="#000000" font-family="MS Shell Dlg 2" font-size="29.1042" stroke-opacity="1" transform="matrix(1,0,0,1,1992.24,813.431)" stroke-linecap="round" stroke-width="7">
    <path fill-rule="evenodd" d="M1527.82,245.912 L1527.82,-325.599" vector-effect="none"/>
   </g>
   <g fill="none" font-weight="400" font-style="normal" stroke-linejoin="bevel" stroke="#000000" font-family="MS Shell Dlg 2" font-size="29.1042" stroke-opacity="1" transform="matrix(1,0,0,1,1992.24,813.431)" stroke-linecap="round" stroke-width="7">
    <path fill-rule="evenodd" d="M1527.82,-325.599 L-1329.69,-325.599" vector-effect="none"/>
   </g>
   <g fill="none" font-weight="400" font-style="normal" stroke-linejoin="bevel" stroke="#000000" font-family="MS Shell Dlg 2" font-size="29.1042" stroke-opacity="1" transform="matrix(1,0,0,1,1992.24,813.431)" stroke-linecap="round" stroke-width="7">
    <path fill-rule="evenodd" d="M1623.05,-325.599 L1623.05,436.412" vector-effect="none"/>
   </g>
   <g fill="none" font-weight="400" font-style="normal" stroke-linejoin="bevel" stroke="#000000" font-family="MS Shell Dlg 2" font-size="29.1042" stroke-opacity="1" transform="matrix(1,0,0,1,1992.24,813.431)" stroke-linecap="round" stroke-width="7">
    <path fill-rule="evenodd" d="M1623.05,436.412 L1813.57,436.412" vector-effect="none"/>
   </g>
   <g fill="none" font-weight="400" font-style="normal" stroke-linejoin="bevel" stroke="#000000" font-family="MS Shell Dlg 2" font-size="29.1042" stroke-opacity="1" transform="matrix(1,0,0,1,1992.24,813.431)" stroke-linecap="round" stroke-width="7">
    <path fill-rule="evenodd" d="M1813.57,436.412 L1813.57,-325.599" vector-effect="none"/>
   </g>
   <g fill="none" font-weight="400" font-style="normal" stroke-linejoin="bevel" stroke="#000000" font-family="MS Shell Dlg 2" font-size="29.1042" stroke-opacity="1" transform="matrix(1,0,0,1,1992.24,813.431)" stroke-linecap="round" stroke-width="7">
    <path fill-rule="evenodd" d="M1813.57,-325.599 L1623.05,-325.599" vector-effect="none"/>
   </g>
   <g fill="none" font-weight="400" font-style="normal" stroke-linejoin="bevel" stroke="#000000" font-family="MS Shell Dlg 2" font-size="29.1042" stroke-opacity="1" transform="matrix(1,0,0,1,1992.24,813.431)" stroke-linecap="round" stroke-width="7">
    <path fill-rule="evenodd" d="M-1668.41,-230.077 C-1668.41,-207.985 -1686.32,-190.077 -1708.41,-190.077 C-1730.5,-190.077 -1748.41,-207.985 -1748.41,-230.077 C-1748.41,-252.168 -1730.5,-270.077 -1708.41,-270.077 C-1686.32,-270.077 -1668.41,-252.168 -1668.41,-230.077 " vector-effect="none"/>
   </g>
   <g fill="none" font-weight="400" font-style="normal" stroke-linejoin="bevel" stroke="#000000" font-family="MS Shell Dlg 2" font-size="29.1042" stroke-opacity="1" transform="matrix(1,0,0,1,1992.24,813.431)" stroke-linecap="round" stroke-width="7">
    <path fill-rule="evenodd" d="M-1759.07,-446.44 C-1759.07,-443.679 -1756.83,-441.44 -1754.07,-441.44 " vector-effect="none"/>
   </g>
   <g fill="none" font-weight="400" font-style="normal" stroke-linejoin="bevel" stroke="#000000" font-family="MS Shell Dlg 2" font-size="29.1042" stroke-opacity="1" transform="matrix(1,0,0,1,1992.24,813.431)" stroke-linecap="round" stroke-width="7">
    <path fill-rule="evenodd" d="M-1452.57,-441.44 L-1754.07,-441.44" vector-effect="none"/>
   </g>
   <g fill="none" font-weight="400" font-style="normal" stroke-linejoin="bevel" stroke="#000000" font-family="MS Shell Dlg 2" font-size="29.1042" stroke-opacity="1" transform="matrix(1,0,0,1,1992.24,813.431)" stroke-linecap="round" stroke-width="7">
    <path fill-rule="evenodd" d="M-1452.57,-441.44 C-1449.81,-441.44 -1447.57,-443.679 -1447.57,-446.44 " vector-effect="none"/>
   </g>
   <g fill="none" font-weight="400" font-style="normal" stroke-linejoin="bevel" stroke="#000000" font-family="MS Shell Dlg 2" font-size="29.1042" stroke-opacity="1" transform="matrix(1,0,0,1,1992.24,813.431)" stroke-linecap="round" stroke-width="7">
    <path fill-rule="evenodd" d="M-1447.57,-603.04 L-1447.57,-446.44" vector-effect="none"/>
   </g>
   <g fill="none" font-weight="400" font-style="normal" stroke-linejoin="bevel" stroke="#000000" font-family="MS Shell Dlg 2" font-size="29.1042" stroke-opacity="1" transform="matrix(1,0,0,1,1992.24,813.431)" stroke-linecap="round" stroke-width="7">
    <path fill-rule="evenodd" d="M-1447.57,-603.04 C-1447.57,-605.802 -1449.81,-608.04 -1452.57,-608.04 " vector-effect="none"/>
   </g>
   <g fill="none" font-weight="400" font-style="normal" stroke-linejoin="bevel" stroke="#000000" font-family="MS Shell Dlg 2" font-size="29.1042" stroke-opacity="1" transform="matrix(1,0,0,1,1992.24,813.431)" stroke-linecap="round" stroke-width="7">
    <path fill-rule="evenodd" d="M-1754.07,-608.04 L-1452.57,-608.04" vector-effect="none"/>
   </g>
   <g fill="none" font-weight="400" font-style="normal" stroke-linejoin="bevel" stroke="#000000" font-family="MS Shell Dlg 2" font-size="29.1042" stroke-opacity="1" transform="matrix(1,0,0,1,1992.24,813.431)" stroke-linecap="round" stroke-width="7">
    <path fill-rule="evenodd" d="M-1754.07,-608.04 C-1756.83,-608.04 -1759.07,-605.802 -1759.07,-603.04 " vector-effect="none"/>
   </g>
   <g fill="none" font-weight="400" font-style="normal" stroke-linejoin="bevel" stroke="#000000" font-family="MS Shell Dlg 2" font-size="29.1042" stroke-opacity="1" transform="matrix(1,0,0,1,1992.24,813.431)" stroke-linecap="round" stroke-width="7">
    <path fill-rule="evenodd" d="M-1759.07,-446.44 L-1759.07,-603.04" vector-effect="none"/>
   </g>
   <g fill="none" font-weight="400" font-style="normal" stroke-linejoin="bevel" stroke="#000000" font-family="MS Shell Dlg 2" font-size="29.1042" stroke-opacity="1" transform="matrix(1,0,0,1,1992.24,813.431)" stroke-linecap="round" stroke-width="7">
    <path fill-rule="evenodd" d="M-1329.69,-563.728 L-1329.69,-373.208" vector-effect="none"/>
   </g>
   <g fill="none" font-weight="400" font-style="normal" stroke-linejoin="bevel" stroke="#000000" font-family="MS Shell Dlg 2" font-size="29.1042" stroke-opacity="1" transform="matrix(1,0,0,1,1992.24,813.431)" stroke-linecap="round" stroke-width="7">
    <path fill-rule="evenodd" d="M-1329.69,-373.208 L-1139.18,-373.208" vector-effect="none"/>
   </g>
   <g fill="none" font-weight="400" font-style="normal" stroke-linejoin="bevel" stroke="#000000" font-family="MS Shell Dlg 2" font-size="29.1042" stroke-opacity="1" transform="matrix(1,0,0,1,1992.24,813.431)" stroke-linecap="round" stroke-width="7">
    <path fill-rule="evenodd" d="M-1139.18,-373.208 L-1139.18,-563.728" vector-effect="none"/>
   </g>
   <g fill="none" font-weight="400" font-style="normal" stroke-linejoin="bevel" stroke="#000000" font-family="MS Shell Dlg 2" font-size="29.1042" stroke-opacity="1" transform="matrix(1,0,0,1,1992.24,813.431)" stroke-linecap="round" stroke-width="7">
    <path fill-rule="evenodd" d="M-1139.18,-563.728 L-1329.69,-563.728" vector-effect="none"/>
   </g>
   <g fill="none" font-weight="400" font-style="normal" stroke-linejoin="bevel" stroke="#000000" font-family="MS Shell Dlg 2" font-size="29.1042" stroke-opacity="1" transform="matrix(1,0,0,1,1992.24,813.431)" stroke-linecap="round" stroke-width="7">
    <path fill-rule="evenodd" d="M-1903.28,-740.563 C-1903.28,-731.726 -1910.44,-724.563 -1919.28,-724.563 C-1928.12,-724.563 -1935.28,-731.726 -1935.28,-740.563 C-1935.28,-749.399 -1928.12,-756.563 -1919.28,-756.563 C-1910.44,-756.563 -1903.28,-749.399 -1903.28,-740.563 " vector-effect="none"/>
   </g>
   <g fill="none" font-weight="400" font-style="normal" stroke-linejoin="bevel" stroke="#000000" font-family="MS Shell Dlg 2" font-size="29.1042" stroke-opacity="1" transform="matrix(1,0,0,1,1992.24,813.431)" stroke-linecap="round" stroke-width="7">
    <path fill-rule="evenodd" d="M-1135.57,-740.563 C-1135.57,-731.726 -1142.73,-724.563 -1151.57,-724.563 C-1160.41,-724.563 -1167.57,-731.726 -1167.57,-740.563 C-1167.57,-749.399 -1160.41,-756.563 -1151.57,-756.563 C-1142.73,-756.563 -1135.57,-749.399 -1135.57,-740.563 " vector-effect="none"/>
   </g>
   <g fill="none" font-weight="400" font-style="normal" stroke-linejoin="bevel" stroke="#000000" font-family="MS Shell Dlg 2" font-size="29.1042" stroke-opacity="1" transform="matrix(1,0,0,1,1992.24,813.431)" stroke-linecap="round" stroke-width="7">
    <path fill-rule="evenodd" d="M-1091.55,-563.728 L-1091.57,-373.208" vector-effect="none"/>
   </g>
   <g fill="none" font-weight="400" font-style="normal" stroke-linejoin="bevel" stroke="#000000" font-family="MS Shell Dlg 2" font-size="29.1042" stroke-opacity="1" transform="matrix(1,0,0,1,1992.24,813.431)" stroke-linecap="round" stroke-width="7">
    <path fill-rule="evenodd" d="M-1091.57,-373.208 L-329.546,-373.208" vector-effect="none"/>
   </g>
   <g fill="none" font-weight="400" font-style="normal" stroke-linejoin="bevel" stroke="#000000" font-family="MS Shell Dlg 2" font-size="29.1042" stroke-opacity="1" transform="matrix(1,0,0,1,1992.24,813.431)" stroke-linecap="round" stroke-width="7">
    <path fill-rule="evenodd" d="M-329.546,-373.208 L-329.546,-563.728" vector-effect="none"/>
   </g>
   <g fill="none" font-weight="400" font-style="normal" stroke-linejoin="bevel" stroke="#000000" font-family="MS Shell Dlg 2" font-size="29.1042" stroke-opacity="1" transform="matrix(1,0,0,1,1992.24,813.431)" stroke-linecap="round" stroke-width="7">
    <path fill-rule="evenodd" d="M-329.546,-563.728 L-1091.55,-563.728" vector-effect="none"/>
   </g>
   <g fill="none" font-weight="400" font-style="normal" stroke-linejoin="bevel" stroke="#000000" font-family="MS Shell Dlg 2" font-size="29.1042" stroke-opacity="1" transform="matrix(1,0,0,1,1992.24,813.431)" stroke-linecap="round" stroke-width="7">
    <path fill-rule="evenodd" d="M-367.857,-740.563 C-367.857,-731.726 -375.02,-724.563 -383.857,-724.563 C-392.694,-724.563 -399.857,-731.726 -399.857,-740.563 C-399.857,-749.399 -392.694,-756.563 -383.857,-756.563 C-375.02,-756.563 -367.857,-749.399 -367.857,-740.563 " vector-effect="none"/>
   </g>
   <g fill="none" font-weight="400" font-style="normal" stroke-linejoin="bevel" stroke="#000000" font-family="MS Shell Dlg 2" font-size="29.1042" stroke-opacity="1" transform="matrix(1,0,0,1,1992.24,813.431)" stroke-linecap="round" stroke-width="7">
    <path fill-rule="evenodd" d="M-281.945,-563.728 L-281.945,-373.208" vector-effect="none"/>
   </g>
   <g fill="none" font-weight="400" font-style="normal" stroke-linejoin="bevel" stroke="#000000" font-family="MS Shell Dlg 2" font-size="29.1042" stroke-opacity="1" transform="matrix(1,0,0,1,1992.24,813.431)" stroke-linecap="round" stroke-width="7">
    <path fill-rule="evenodd" d="M-281.945,-373.208 L480.074,-373.208" vector-effect="none"/>
   </g>
   <g fill="none" font-weight="400" font-style="normal" stroke-linejoin="bevel" stroke="#000000" font-family="MS Shell Dlg 2" font-size="29.1042" stroke-opacity="1" transform="matrix(1,0,0,1,1992.24,813.431)" stroke-linecap="round" stroke-width="7">
    <path fill-rule="evenodd" d="M480.074,-373.208 L480.074,-563.728" vector-effect="none"/>
   </g>
   <g fill="none" font-weight="400" font-style="normal" stroke-linejoin="bevel" stroke="#000000" font-family="MS Shell Dlg 2" font-size="29.1042" stroke-opacity="1" transform="matrix(1,0,0,1,1992.24,813.431)" stroke-linecap="round" stroke-width="7">
    <path fill-rule="evenodd" d="M480.074,-563.728 L-281.945,-563.728" vector-effect="none"/>
   </g>
   <g fill="none" font-weight="400" font-style="normal" stroke-linejoin="bevel" stroke="#000000" font-family="MS Shell Dlg 2" font-size="29.1042" stroke-opacity="1" transform="matrix(1,0,0,1,1992.24,813.431)" stroke-linecap="round" stroke-width="7">
    <path fill-rule="evenodd" d="M527.683,-563.728 L527.683,-373.208" vector-effect="none"/>
   </g>
   <g fill="none" font-weight="400" font-style="normal" stroke-linejoin="bevel" stroke="#000000" font-family="MS Shell Dlg 2" font-size="29.1042" stroke-opacity="1" transform="matrix(1,0,0,1,1992.24,813.431)" stroke-linecap="round" stroke-width="7">
    <path fill-rule="evenodd" d="M527.683,-373.208 L1289.7,-373.208" vector-effect="none"/>
   </g>
   <g fill="none" font-weight="400" font-style="normal" stroke-linejoin="bevel" stroke="#000000" font-family="MS Shell Dlg 2" font-size="29.1042" stroke-opacity="1" transform="matrix(1,0,0,1,1992.24,813.431)" stroke-linecap="round" stroke-width="7">
    <path fill-rule="evenodd" d="M1289.7,-373.208 L1289.7,-563.728" vector-effect="none"/>
   </g>
   <g fill="none" font-weight="400" font-style="normal" stroke-linejoin="bevel" stroke="#000000" font-family="MS Shell Dlg 2" font-size="29.1042" stroke-opacity="1" transform="matrix(1,0,0,1,1992.24,813.431)" stroke-linecap="round" stroke-width="7">
    <path fill-rule="evenodd" d="M1289.7,-563.728 L527.683,-563.728" vector-effect="none"/>
   </g>
   <g fill="none" font-weight="400" font-style="normal" stroke-linejoin="bevel" stroke="#000000" font-family="MS Shell Dlg 2" font-size="29.1042" stroke-opacity="1" transform="matrix(1,0,0,1,1992.24,813.431)" stroke-linecap="round" stroke-width="7">
    <path fill-rule="evenodd" d="M399.855,-740.563 C399.855,-731.726 392.692,-724.563 383.855,-724.563 C375.018,-724.563 367.855,-731.726 367.855,-740.563 C367.855,-749.399 375.018,-756.563 383.855,-756.563 C392.692,-756.563 399.855,-749.399 399.855,-740.563 " vector-effect="none"/>
   </g>
   <g fill="none" font-weight="400" font-style="normal" stroke-linejoin="bevel" stroke="#000000" font-family="MS Shell Dlg 2" font-size="29.1042" stroke-opacity="1" transform="matrix(1,0,0,1,1992.24,813.431)" stroke-linecap="round" stroke-width="7">
    <path fill-rule="evenodd" d="M1337.3,-563.728 L1337.3,-373.208" vector-effect="none"/>
   </g>
   <g fill="none" font-weight="400" font-style="normal" stroke-linejoin="bevel" stroke="#000000" font-family="MS Shell Dlg 2" font-size="29.1042" stroke-opacity="1" transform="matrix(1,0,0,1,1992.24,813.431)" stroke-linecap="round" stroke-width="7">
    <path fill-rule="evenodd" d="M1337.3,-373.208 L1527.82,-373.208" vector-effect="none"/>
   </g>
   <g fill="none" font-weight="400" font-style="normal" stroke-linejoin="bevel" stroke="#000000" font-family="MS Shell Dlg 2" font-size="29.1042" stroke-opacity="1" transform="matrix(1,0,0,1,1992.24,813.431)" stroke-linecap="round" stroke-width="7">
    <path fill-rule="evenodd" d="M1527.82,-373.208 L1527.82,-563.728" vector-effect="none"/>
   </g>
   <g fill="none" font-weight="400" font-style="normal" stroke-linejoin="bevel" stroke="#000000" font-family="MS Shell Dlg 2" font-size="29.1042" stroke-opacity="1" transform="matrix(1,0,0,1,1992.24,813.431)" stroke-linecap="round" stroke-width="7">
    <path fill-rule="evenodd" d="M1527.82,-563.728 L1337.3,-563.728" vector-effect="none"/>
   </g>
   <g fill="none" font-weight="400" font-style="normal" stroke-linejoin="bevel" stroke="#000000" font-family="MS Shell Dlg 2" font-size="29.1042" stroke-opacity="1" transform="matrix(1,0,0,1,1992.24,813.431)" stroke-linecap="round" stroke-width="7">
    <path fill-rule="evenodd" d="M1623.05,-563.728 L1623.05,-373.208" vector-effect="none"/>
   </g>
   <g fill="none" font-weight="400" font-style="normal" stroke-linejoin="bevel" stroke="#000000" font-family="MS Shell Dlg 2" font-size="29.1042" stroke-opacity="1" transform="matrix(1,0,0,1,1992.24,813.431)" stroke-linecap="round" stroke-width="7">
    <path fill-rule="evenodd" d="M1623.05,-373.208 L1813.57,-373.208" vector-effect="none"/>
   </g>
   <g fill="none" font-weight="400" font-style="normal" stroke-linejoin="bevel" stroke="#000000" font-family="MS Shell Dlg 2" font-size="29.1042" stroke-opacity="1" transform="matrix(1,0,0,1,1992.24,813.431)" stroke-linecap="round" stroke-width="7">
    <path fill-rule="evenodd" d="M1813.57,-373.208 L1813.57,-563.728" vector-effect="none"/>
   </g>
   <g fill="none" font-weight="400" font-style="normal" stroke-linejoin="bevel" stroke="#000000" font-family="MS Shell Dlg 2" font-size="29.1042" stroke-opacity="1" transform="matrix(1,0,0,1,1992.24,813.431)" stroke-linecap="round" stroke-width="7">
    <path fill-rule="evenodd" d="M1813.57,-563.728 L1623.05,-563.728" vector-effect="none"/>
   </g>
   <g fill="none" font-weight="400" font-style="normal" stroke-linejoin="bevel" stroke="#000000" font-family="MS Shell Dlg 2" font-size="29.1042" stroke-opacity="1" transform="matrix(1,0,0,1,1992.24,813.431)" stroke-linecap="round" stroke-width="7">
    <path fill-rule="evenodd" d="M1167.57,-740.563 C1167.57,-731.726 1160.4,-724.563 1151.57,-724.563 C1142.73,-724.563 1135.57,-731.726 1135.57,-740.563 C1135.57,-749.399 1142.73,-756.563 1151.57,-756.563 C1160.4,-756.563 1167.57,-749.399 1167.57,-740.563 " vector-effect="none"/>
   </g>
   <g fill="none" font-weight="400" font-style="normal" stroke-linejoin="bevel" stroke="#000000" font-family="MS Shell Dlg 2" font-size="29.1042" stroke-opacity="1" transform="matrix(1,0,0,1,1992.24,813.431)" stroke-linecap="round" stroke-width="7">
    <path fill-rule="evenodd" d="M1935.28,-740.563 C1935.28,-731.726 1928.12,-724.563 1919.28,-724.563 C1910.44,-724.563 1903.28,-731.726 1903.28,-740.563 C1903.28,-749.399 1910.44,-756.563 1919.28,-756.563 C1928.12,-756.563 1935.28,-749.399 1935.28,-740.563 " vector-effect="none"/>
   </g>
  </g>
 </g>
</svg>
