M48
; DRILL file {KiCad (6.0.11)} date Thu Feb 23 23:31:38 2023
; FORMAT={-:-/ absolute / metric / decimal}
; #@! TF.CreationDate,2023-02-23T23:31:38+07:00
; #@! TF.GenerationSoftware,Kicad,Pcbnew,(6.0.11)
; #@! TF.FileFunction,Plated,1,2,PTH
FMAT,2
METRIC
; #@! TA.AperFunction,Plated,PTH,ViaDrill
T1C0.400
; #@! TA.AperFunction,Plated,PTH,ComponentDrill
T2C0.600
; #@! TA.AperFunction,Plated,PTH,ComponentDrill
T3C1.000
; #@! TA.AperFunction,Plated,PTH,ComponentDrill
T4C1.500
; #@! TA.AperFunction,Plated,PTH,ComponentDrill
T5C3.000
; #@! TA.AperFunction,Plated,PTH,ComponentDrill
T6C3.048
; #@! TA.AperFunction,Plated,PTH,ComponentDrill
T7C3.200
%
G90
G05
T1
X46.34Y-77.88
X49.768Y-159.622
X59.89Y-73.84
X68.818Y-159.562
X104.958Y-159.598
X128.807Y-159.562
X140.26Y-159.355
X157.344Y-168.564
X159.29Y-159.355
X161.705Y-77.875
X169.51Y-166.3
X170.61Y-167.024
X172.04Y-167.749
X172.952Y-101.688
X173.23Y-168.474
X173.677Y-139.787
X176.58Y-163.013
X176.867Y-120.737
X177.578Y-163.054
X178.356Y-159.355
X178.578Y-163.054
X179.99Y-163.39
X182.82Y-173.61
X183.15Y-167.88
X183.17Y-170.78
X183.721Y-169.874
X184.13Y-166.28
X184.818Y-169.946
X185.814Y-170.028
X186.253Y-171.005
X188.9Y-167.33
X194.94Y-174.52
X197.43Y-159.355
X197.47Y-171.08
X198.451Y-168.721
X225.68Y-170.66
X235.53Y-164.67
X250.03Y-174.51
X254.56Y-163.79
X255.99Y-176.02
X261.62Y-174.48
X273.6Y-165.75
X290.128Y-162.548
X309.178Y-162.548
X315.78Y-57.99
X317.342Y-44.472
X317.441Y-59.721
X318.741Y-44.419
X318.96Y-58.47
X319.64Y-57.503
X320.45Y-59.14
X325.98Y-60.039
X328.393Y-162.383
X352.187Y-167.164
X368.856Y-165.225
X392.668Y-161.002
T3
X39.978Y-91.162
X39.978Y-93.662
X39.978Y-96.162
X54.134Y-51.461
X54.478Y-91.162
X54.478Y-96.162
X56.674Y-51.461
X59.214Y-51.461
X61.754Y-51.461
X85.006Y-51.594
X87.546Y-51.594
X90.086Y-51.594
X92.626Y-51.594
X95.166Y-51.594
X111.204Y-51.594
X113.744Y-51.594
X116.284Y-51.594
T5
X43.418Y-110.172
X43.418Y-129.222
X43.418Y-148.272
X43.418Y-167.322
X49.768Y-107.632
X49.768Y-126.682
X49.768Y-145.732
X49.768Y-164.782
X62.468Y-91.123
X62.468Y-110.172
X62.468Y-129.222
X62.468Y-148.272
X62.468Y-167.322
X68.818Y-88.582
X68.818Y-107.632
X68.818Y-126.682
X68.818Y-145.732
X68.818Y-164.782
X91.043Y-67.31
X91.043Y-91.123
X93.424Y-167.322
X95.806Y-110.172
X97.393Y-64.77
X97.393Y-88.582
X98.187Y-129.222
X99.774Y-164.782
X102.156Y-107.632
X102.949Y-148.272
X104.537Y-126.682
X109.299Y-145.732
X110.093Y-91.123
X114.856Y-67.31
X116.443Y-88.582
X117.237Y-167.322
X119.618Y-110.172
X121.206Y-64.77
X123.587Y-164.782
X124.381Y-129.222
X125.968Y-107.632
X129.143Y-91.123
X130.731Y-126.682
X133.906Y-67.31
X133.906Y-148.272
X135.493Y-88.582
X138.668Y-110.172
X140.256Y-64.77
X140.256Y-145.732
X141.049Y-167.322
X143.431Y-129.222
X145.018Y-107.632
X147.399Y-164.782
X148.193Y-91.123
X149.781Y-126.682
X152.956Y-67.31
X152.956Y-148.272
X154.543Y-88.582
X157.718Y-110.172
X159.306Y-64.77
X159.306Y-145.732
X162.481Y-129.222
X164.068Y-107.632
X167.243Y-91.123
X168.831Y-126.682
X172.006Y-67.31
X172.006Y-148.272
X173.593Y-88.582
X176.768Y-110.172
X178.356Y-64.77
X178.356Y-145.732
X181.531Y-129.222
X183.118Y-107.632
X186.293Y-91.123
X187.881Y-126.682
X191.056Y-148.272
X192.643Y-88.582
X195.818Y-67.31
X195.818Y-110.172
X197.406Y-145.732
X200.581Y-129.222
X202.168Y-64.77
X202.168Y-107.632
X205.343Y-91.123
X206.931Y-126.682
X210.106Y-148.272
X211.693Y-88.582
X212.487Y-167.322
X214.868Y-67.31
X214.868Y-110.172
X216.456Y-145.732
X218.837Y-164.782
X219.631Y-129.222
X221.218Y-64.77
X221.218Y-107.632
X224.393Y-91.123
X225.981Y-126.682
X229.156Y-148.272
X230.743Y-88.582
X233.918Y-67.31
X233.918Y-110.172
X235.506Y-145.732
X238.681Y-129.222
X240.268Y-64.77
X240.268Y-107.632
X243.443Y-91.123
X245.031Y-126.682
X248.206Y-148.272
X249.793Y-88.582
X252.968Y-67.31
X252.968Y-110.172
X254.556Y-145.732
X257.731Y-129.222
X259.318Y-64.77
X259.318Y-107.632
X262.493Y-91.123
X264.081Y-126.682
X267.256Y-148.272
X268.843Y-88.582
X272.018Y-110.172
X273.606Y-145.732
X276.781Y-67.31
X276.781Y-129.222
X278.368Y-107.632
X281.543Y-91.123
X281.543Y-167.322
X283.131Y-64.77
X283.131Y-126.682
X286.306Y-148.272
X287.893Y-88.582
X287.893Y-164.782
X291.068Y-110.172
X292.656Y-145.732
X295.831Y-67.31
X295.831Y-129.222
X297.418Y-107.632
X300.593Y-91.123
X300.593Y-167.322
X302.181Y-64.77
X302.181Y-126.682
X305.356Y-148.272
X306.943Y-88.582
X306.943Y-164.782
X310.118Y-110.172
X311.706Y-145.732
X314.881Y-67.31
X314.881Y-129.222
X316.468Y-107.632
X319.643Y-91.123
X319.643Y-167.322
X321.231Y-64.77
X321.231Y-126.682
X325.993Y-88.582
X325.993Y-164.782
X329.168Y-110.172
X331.549Y-148.272
X333.931Y-67.31
X335.518Y-107.632
X337.899Y-145.732
X340.281Y-64.77
X343.456Y-172.085
X345.837Y-129.222
X348.218Y-91.123
X349.806Y-169.545
X352.187Y-126.682
X352.981Y-110.172
X354.568Y-88.582
X357.743Y-67.31
X359.331Y-107.632
X362.506Y-153.035
X362.506Y-172.085
X364.093Y-64.77
X368.856Y-150.495
X368.856Y-169.545
X381.556Y-172.085
X386.318Y-67.31
X386.318Y-91.123
X386.318Y-110.172
X386.318Y-129.222
X386.318Y-148.272
X387.906Y-169.545
X392.668Y-64.77
X392.668Y-88.582
X392.668Y-107.632
X392.668Y-126.682
X392.668Y-145.732
T6
X94.853Y-143.827
X118.666Y-143.827
X166.291Y-162.877
X266.303Y-162.877
X337.741Y-124.777
X340.122Y-86.677
X361.553Y-124.777
X363.934Y-86.677
T7
X42.744Y-51.961
X42.744Y-80.561
X73.244Y-51.961
X73.244Y-80.561
T2
X314.371Y-42.306G85X314.371Y-42.906
G05
X314.371Y-46.236G85X314.371Y-47.336
G05
X323.011Y-42.306G85X323.011Y-42.906
G05
X323.011Y-46.236G85X323.011Y-47.336
G05
T4
X46.828Y-88.062G85X48.128Y-88.062
G05
X46.828Y-99.262G85X48.128Y-99.262
G05
T0
M30
