G04 #@! TF.GenerationSoftware,KiCad,Pcbnew,(6.0.11)*
G04 #@! TF.CreationDate,2023-02-23T23:31:12+07:00*
G04 #@! TF.ProjectId,QCK,51434b2e-6b69-4636-9164-5f7063625858,rev?*
G04 #@! TF.SameCoordinates,Original*
G04 #@! TF.FileFunction,Legend,Top*
G04 #@! TF.FilePolarity,Positive*
%FSLAX46Y46*%
G04 Gerber Fmt 4.6, Leading zero omitted, Abs format (unit mm)*
G04 Created by KiCad (PCBNEW (6.0.11)) date 2023-02-23 23:31:12*
%MOMM*%
%LPD*%
G01*
G04 APERTURE LIST*
%ADD10C,0.500000*%
%ADD11C,1.000000*%
%ADD12C,0.150000*%
%ADD13C,0.120000*%
%ADD14O,1.700000X1.700000*%
%ADD15R,1.700000X1.700000*%
%ADD16C,4.800000*%
%ADD17R,2.000000X2.000000*%
%ADD18C,2.000000*%
%ADD19R,3.200000X2.000000*%
%ADD20C,3.987800*%
%ADD21C,1.750000*%
%ADD22C,3.300000*%
%ADD23C,4.000000*%
%ADD24C,0.650000*%
%ADD25O,1.000000X2.100000*%
%ADD26O,1.000000X1.600000*%
G04 APERTURE END LIST*
D10*
X37151904Y-184538095D02*
X36675714Y-184300000D01*
X36199523Y-183823809D01*
X35485238Y-183109523D01*
X35009047Y-182871428D01*
X34532857Y-182871428D01*
X34770952Y-184061904D02*
X34294761Y-183823809D01*
X33818571Y-183347619D01*
X33580476Y-182395238D01*
X33580476Y-180728571D01*
X33818571Y-179776190D01*
X34294761Y-179300000D01*
X34770952Y-179061904D01*
X35723333Y-179061904D01*
X36199523Y-179300000D01*
X36675714Y-179776190D01*
X36913809Y-180728571D01*
X36913809Y-182395238D01*
X36675714Y-183347619D01*
X36199523Y-183823809D01*
X35723333Y-184061904D01*
X34770952Y-184061904D01*
X41913809Y-183585714D02*
X41675714Y-183823809D01*
X40961428Y-184061904D01*
X40485238Y-184061904D01*
X39770952Y-183823809D01*
X39294761Y-183347619D01*
X39056666Y-182871428D01*
X38818571Y-181919047D01*
X38818571Y-181204761D01*
X39056666Y-180252380D01*
X39294761Y-179776190D01*
X39770952Y-179300000D01*
X40485238Y-179061904D01*
X40961428Y-179061904D01*
X41675714Y-179300000D01*
X41913809Y-179538095D01*
X44056666Y-184061904D02*
X44056666Y-179061904D01*
X46913809Y-184061904D02*
X44770952Y-181204761D01*
X46913809Y-179061904D02*
X44056666Y-181919047D01*
X48580476Y-179061904D02*
X51913809Y-179061904D01*
X49770952Y-184061904D01*
X56199523Y-179061904D02*
X53818571Y-179061904D01*
X53580476Y-181442857D01*
X53818571Y-181204761D01*
X54294761Y-180966666D01*
X55485238Y-180966666D01*
X55961428Y-181204761D01*
X56199523Y-181442857D01*
X56437619Y-181919047D01*
X56437619Y-183109523D01*
X56199523Y-183585714D01*
X55961428Y-183823809D01*
X55485238Y-184061904D01*
X54294761Y-184061904D01*
X53818571Y-183823809D01*
X53580476Y-183585714D01*
X58580476Y-182157142D02*
X62390000Y-182157142D01*
X64294761Y-179061904D02*
X67628095Y-184061904D01*
X67628095Y-179061904D02*
X64294761Y-184061904D01*
X68818571Y-179061904D02*
X71675714Y-179061904D01*
X70247142Y-184061904D02*
X70247142Y-179061904D01*
D11*
X316042708Y-57935416D02*
X316042708Y-50935416D01*
X318709375Y-50935416D01*
X319376041Y-51268750D01*
X319709375Y-51602083D01*
X320042708Y-52268750D01*
X320042708Y-53268750D01*
X319709375Y-53935416D01*
X319376041Y-54268750D01*
X318709375Y-54602083D01*
X316042708Y-54602083D01*
X324042708Y-57935416D02*
X323376041Y-57602083D01*
X323042708Y-57268750D01*
X322709375Y-56602083D01*
X322709375Y-54602083D01*
X323042708Y-53935416D01*
X323376041Y-53602083D01*
X324042708Y-53268750D01*
X325042708Y-53268750D01*
X325709375Y-53602083D01*
X326042708Y-53935416D01*
X326376041Y-54602083D01*
X326376041Y-56602083D01*
X326042708Y-57268750D01*
X325709375Y-57602083D01*
X325042708Y-57935416D01*
X324042708Y-57935416D01*
X329376041Y-57935416D02*
X329376041Y-53268750D01*
X329376041Y-54602083D02*
X329709375Y-53935416D01*
X330042708Y-53602083D01*
X330709375Y-53268750D01*
X331376041Y-53268750D01*
X333709375Y-57935416D02*
X333709375Y-53268750D01*
X333709375Y-50935416D02*
X333376041Y-51268750D01*
X333709375Y-51602083D01*
X334042708Y-51268750D01*
X333709375Y-50935416D01*
X333709375Y-51602083D01*
X337042708Y-53268750D02*
X337042708Y-57935416D01*
X337042708Y-53935416D02*
X337376041Y-53602083D01*
X338042708Y-53268750D01*
X339042708Y-53268750D01*
X339709375Y-53602083D01*
X340042708Y-54268750D01*
X340042708Y-57935416D01*
X346376041Y-53268750D02*
X346376041Y-58935416D01*
X346042708Y-59602083D01*
X345709375Y-59935416D01*
X345042708Y-60268750D01*
X344042708Y-60268750D01*
X343376041Y-59935416D01*
X346376041Y-57602083D02*
X345709375Y-57935416D01*
X344376041Y-57935416D01*
X343709375Y-57602083D01*
X343376041Y-57268750D01*
X343042708Y-56602083D01*
X343042708Y-54602083D01*
X343376041Y-53935416D01*
X343709375Y-53602083D01*
X344376041Y-53268750D01*
X345709375Y-53268750D01*
X346376041Y-53602083D01*
X349709375Y-57268750D02*
X350042708Y-57602083D01*
X349709375Y-57935416D01*
X349376041Y-57602083D01*
X349709375Y-57268750D01*
X349709375Y-57935416D01*
X355709375Y-57602083D02*
X355042708Y-57935416D01*
X353709375Y-57935416D01*
X353042708Y-57602083D01*
X352709375Y-56935416D01*
X352709375Y-54268750D01*
X353042708Y-53602083D01*
X353709375Y-53268750D01*
X355042708Y-53268750D01*
X355709375Y-53602083D01*
X356042708Y-54268750D01*
X356042708Y-54935416D01*
X352709375Y-55602083D01*
X358376041Y-57935416D02*
X362042708Y-53268750D01*
X358376041Y-53268750D02*
X362042708Y-57935416D01*
X367376041Y-57602083D02*
X366709375Y-57935416D01*
X365376041Y-57935416D01*
X364709375Y-57602083D01*
X364376041Y-56935416D01*
X364376041Y-54268750D01*
X364709375Y-53602083D01*
X365376041Y-53268750D01*
X366709375Y-53268750D01*
X367376041Y-53602083D01*
X367709375Y-54268750D01*
X367709375Y-54935416D01*
X364376041Y-55602083D01*
D12*
X57258095Y-79262380D02*
X57258095Y-80071904D01*
X57305714Y-80167142D01*
X57353333Y-80214761D01*
X57448571Y-80262380D01*
X57639047Y-80262380D01*
X57734285Y-80214761D01*
X57781904Y-80167142D01*
X57829523Y-80071904D01*
X57829523Y-79262380D01*
X58210476Y-79262380D02*
X58829523Y-79262380D01*
X58496190Y-79643333D01*
X58639047Y-79643333D01*
X58734285Y-79690952D01*
X58781904Y-79738571D01*
X58829523Y-79833809D01*
X58829523Y-80071904D01*
X58781904Y-80167142D01*
X58734285Y-80214761D01*
X58639047Y-80262380D01*
X58353333Y-80262380D01*
X58258095Y-80214761D01*
X58210476Y-80167142D01*
X96948005Y-51927083D02*
X97662291Y-51927083D01*
X97805148Y-51974702D01*
X97900386Y-52069940D01*
X97948005Y-52212797D01*
X97948005Y-52308035D01*
X97948005Y-50927083D02*
X97948005Y-51498511D01*
X97948005Y-51212797D02*
X96948005Y-51212797D01*
X97090863Y-51308035D01*
X97186101Y-51403273D01*
X97233720Y-51498511D01*
X118066755Y-51927083D02*
X118781041Y-51927083D01*
X118923898Y-51974702D01*
X119019136Y-52069940D01*
X119066755Y-52212797D01*
X119066755Y-52308035D01*
X118066755Y-51546130D02*
X118066755Y-50927083D01*
X118447708Y-51260416D01*
X118447708Y-51117559D01*
X118495327Y-51022321D01*
X118542946Y-50974702D01*
X118638184Y-50927083D01*
X118876279Y-50927083D01*
X118971517Y-50974702D01*
X119019136Y-51022321D01*
X119066755Y-51117559D01*
X119066755Y-51403273D01*
X119019136Y-51498511D01*
X118971517Y-51546130D01*
X41444791Y-86867261D02*
X41587648Y-86914880D01*
X41825744Y-86914880D01*
X41920982Y-86867261D01*
X41968601Y-86819642D01*
X42016220Y-86724404D01*
X42016220Y-86629166D01*
X41968601Y-86533928D01*
X41920982Y-86486309D01*
X41825744Y-86438690D01*
X41635267Y-86391071D01*
X41540029Y-86343452D01*
X41492410Y-86295833D01*
X41444791Y-86200595D01*
X41444791Y-86105357D01*
X41492410Y-86010119D01*
X41540029Y-85962500D01*
X41635267Y-85914880D01*
X41873363Y-85914880D01*
X42016220Y-85962500D01*
X42349553Y-85914880D02*
X42587648Y-86914880D01*
X42778125Y-86200595D01*
X42968601Y-86914880D01*
X43206696Y-85914880D01*
X44111458Y-86914880D02*
X43540029Y-86914880D01*
X43825744Y-86914880D02*
X43825744Y-85914880D01*
X43730505Y-86057738D01*
X43635267Y-86152976D01*
X43540029Y-86200595D01*
D13*
X40743750Y-55061250D02*
X75243750Y-55061250D01*
X75243750Y-55061250D02*
X75243750Y-78061250D01*
X75243750Y-78061250D02*
X40743750Y-78061250D01*
X40743750Y-78061250D02*
X40743750Y-55061250D01*
X75743750Y-83061250D02*
X40243750Y-83061250D01*
X40243750Y-83061250D02*
X40243750Y-49461250D01*
X40243750Y-49461250D02*
X75743750Y-49461250D01*
X75743750Y-49461250D02*
X75743750Y-83061250D01*
X43283750Y-57031250D02*
X72703750Y-57031250D01*
X72703750Y-57031250D02*
X72703750Y-71731250D01*
X72703750Y-71731250D02*
X43283750Y-71731250D01*
X43283750Y-71731250D02*
X43283750Y-57031250D01*
G36*
X368829891Y-63955083D02*
G01*
X368873518Y-63266018D01*
X368945878Y-62688708D01*
X369059456Y-62166355D01*
X369226738Y-61642163D01*
X369460211Y-61059335D01*
X369473005Y-61029585D01*
X370091254Y-59757675D01*
X370802865Y-58600642D01*
X371614611Y-57553529D01*
X372533265Y-56611377D01*
X373565600Y-55769230D01*
X374718389Y-55022130D01*
X375998404Y-54365120D01*
X377412420Y-53793242D01*
X378967207Y-53301540D01*
X380571375Y-52906218D01*
X381370073Y-52731826D01*
X382029590Y-52585250D01*
X382576527Y-52459810D01*
X383037483Y-52348826D01*
X383439060Y-52245619D01*
X383807860Y-52143510D01*
X384170482Y-52035817D01*
X384553528Y-51915863D01*
X384691440Y-51871647D01*
X385157605Y-51725303D01*
X385516698Y-51626055D01*
X385821321Y-51564618D01*
X386124075Y-51531706D01*
X386477558Y-51518034D01*
X386709708Y-51515371D01*
X387138697Y-51516525D01*
X387446129Y-51531713D01*
X387679648Y-51568279D01*
X387886896Y-51633566D01*
X388106708Y-51730720D01*
X388357334Y-51872064D01*
X388693272Y-52091975D01*
X389070168Y-52360114D01*
X389435536Y-52639661D01*
X389847819Y-52955010D01*
X390299785Y-53279848D01*
X390731550Y-53572136D01*
X391029659Y-53758712D01*
X391760619Y-54190457D01*
X393553163Y-54212645D01*
X394574911Y-54242058D01*
X395473154Y-54308779D01*
X396291252Y-54421301D01*
X397072566Y-54588117D01*
X397860454Y-54817721D01*
X398698276Y-55118605D01*
X399198041Y-55318362D01*
X399584902Y-55476573D01*
X399940172Y-55620262D01*
X400218992Y-55731376D01*
X400354945Y-55783966D01*
X400498566Y-55852567D01*
X400608955Y-55954758D01*
X400699374Y-56119463D01*
X400783084Y-56375607D01*
X400873349Y-56752115D01*
X400937606Y-57054750D01*
X401133792Y-57878864D01*
X401379122Y-58671032D01*
X401691446Y-59481096D01*
X402088615Y-60358900D01*
X402211118Y-60610750D01*
X402528047Y-61279385D01*
X402752741Y-61811742D01*
X402887016Y-62212349D01*
X402924565Y-62388750D01*
X402990601Y-62734856D01*
X403081361Y-63079924D01*
X403126166Y-63213556D01*
X403213825Y-63511317D01*
X403280006Y-63856924D01*
X403321000Y-64206812D01*
X403333101Y-64517417D01*
X403312598Y-64745174D01*
X403264810Y-64842372D01*
X403216085Y-64906482D01*
X403199485Y-65039990D01*
X403215022Y-65274780D01*
X403262711Y-65642732D01*
X403265145Y-65659686D01*
X403319266Y-66123784D01*
X403360532Y-66642531D01*
X403380655Y-67109844D01*
X403381129Y-67144136D01*
X403369711Y-67592659D01*
X403308253Y-67921030D01*
X403172911Y-68176390D01*
X402939843Y-68405883D01*
X402631575Y-68626124D01*
X402323656Y-68853232D01*
X402010094Y-69119517D01*
X401890149Y-69234115D01*
X401673748Y-69431136D01*
X401428843Y-69604034D01*
X401127128Y-69766663D01*
X400740296Y-69932875D01*
X400240041Y-70116522D01*
X399748375Y-70282270D01*
X399360596Y-70407530D01*
X399049564Y-70497913D01*
X398771809Y-70560185D01*
X398483862Y-70601113D01*
X398142254Y-70627463D01*
X397703516Y-70646002D01*
X397339504Y-70657250D01*
X395946634Y-70698003D01*
X395236508Y-71170504D01*
X394794310Y-71450049D01*
X394350097Y-71696869D01*
X393879507Y-71920129D01*
X393358174Y-72128990D01*
X392761737Y-72332619D01*
X392065831Y-72540177D01*
X391246094Y-72760829D01*
X390522114Y-72943704D01*
X389946126Y-73083104D01*
X389471797Y-73188496D01*
X389037630Y-73271190D01*
X388582127Y-73342499D01*
X388043791Y-73413731D01*
X387810375Y-73442444D01*
X387321369Y-73489181D01*
X386698285Y-73529305D01*
X385976274Y-73562145D01*
X385190488Y-73587028D01*
X384376078Y-73603283D01*
X383568195Y-73610238D01*
X382801990Y-73607221D01*
X382112614Y-73593560D01*
X381535219Y-73568584D01*
X381460375Y-73563815D01*
X379755008Y-73423354D01*
X378206908Y-73240381D01*
X376808997Y-73013196D01*
X375554201Y-72740104D01*
X374435444Y-72419405D01*
X373445652Y-72049403D01*
X372577747Y-71628400D01*
X372040683Y-71303591D01*
X371657832Y-71016312D01*
X371232722Y-70642772D01*
X370803328Y-70221657D01*
X370407626Y-69791652D01*
X370083591Y-69391444D01*
X369909537Y-69132576D01*
X369542561Y-68381511D01*
X369242831Y-67507104D01*
X369017651Y-66544382D01*
X368874324Y-65528372D01*
X368870972Y-65464373D01*
X369338353Y-65464373D01*
X369418573Y-66451296D01*
X369572049Y-67399159D01*
X369737866Y-68068527D01*
X370042369Y-68807887D01*
X370513894Y-69528514D01*
X371150968Y-70228508D01*
X371916889Y-70879288D01*
X372616766Y-71347366D01*
X373420609Y-71763013D01*
X374336909Y-72128430D01*
X375374159Y-72445816D01*
X376540849Y-72717370D01*
X377845472Y-72945290D01*
X379296519Y-73131778D01*
X380902481Y-73279031D01*
X381291685Y-73307374D01*
X381807530Y-73333332D01*
X382440552Y-73349413D01*
X383158883Y-73356179D01*
X383930657Y-73354195D01*
X384724005Y-73344023D01*
X385507061Y-73326228D01*
X386247955Y-73301372D01*
X386914822Y-73270020D01*
X387475792Y-73232735D01*
X387895041Y-73190599D01*
X388372412Y-73126267D01*
X388776982Y-73065388D01*
X389151263Y-72999498D01*
X389537767Y-72920136D01*
X389979005Y-72818839D01*
X390517489Y-72687144D01*
X390878286Y-72596729D01*
X391797863Y-72357255D01*
X392555048Y-72142467D01*
X393154690Y-71950519D01*
X393601639Y-71779565D01*
X393900744Y-71627758D01*
X394056854Y-71493255D01*
X394076921Y-71379279D01*
X393989617Y-71091687D01*
X393893244Y-70668432D01*
X393794255Y-70142474D01*
X393699101Y-69546769D01*
X393651148Y-69204416D01*
X393529905Y-67995340D01*
X393469079Y-66681718D01*
X393468284Y-65623660D01*
X396415150Y-65623660D01*
X396427144Y-66198750D01*
X396453291Y-66671598D01*
X396493566Y-67166285D01*
X396544270Y-67656307D01*
X396601703Y-68115161D01*
X396662164Y-68516343D01*
X396721954Y-68833351D01*
X396777372Y-69039682D01*
X396824720Y-69108832D01*
X396832726Y-69104043D01*
X396905187Y-69000093D01*
X397032684Y-68791527D01*
X397188562Y-68522053D01*
X397199728Y-68502251D01*
X397376944Y-68151217D01*
X397563389Y-67724631D01*
X397721215Y-67309601D01*
X397733128Y-67274584D01*
X397814986Y-67022813D01*
X397875012Y-66804220D01*
X397916501Y-66585756D01*
X397942749Y-66334375D01*
X397957050Y-66017027D01*
X397962700Y-65600667D01*
X397962712Y-65578065D01*
X401401099Y-65578065D01*
X401418361Y-65771420D01*
X401455646Y-65995019D01*
X401502122Y-66185935D01*
X401546959Y-66281243D01*
X401553339Y-66283416D01*
X401582741Y-66208216D01*
X401588654Y-66018278D01*
X401582612Y-65910620D01*
X401575187Y-65672183D01*
X401616576Y-65546393D01*
X401727617Y-65478891D01*
X401751335Y-65470512D01*
X401927712Y-65424693D01*
X402013208Y-65419975D01*
X402069023Y-65367498D01*
X402076708Y-65308613D01*
X402058740Y-65233991D01*
X401976575Y-65231404D01*
X401787826Y-65301220D01*
X401763557Y-65311320D01*
X401556850Y-65402432D01*
X401428543Y-65467854D01*
X401414690Y-65477878D01*
X401401099Y-65578065D01*
X397962712Y-65578065D01*
X397962993Y-65052245D01*
X397962814Y-64971083D01*
X397953101Y-64198921D01*
X397926709Y-63565201D01*
X397881750Y-63039680D01*
X397816336Y-62592114D01*
X397813203Y-62575059D01*
X397727488Y-62173281D01*
X397617089Y-61742734D01*
X397493979Y-61321756D01*
X397370131Y-60948682D01*
X397257520Y-60661848D01*
X397168118Y-60499591D01*
X397163280Y-60494146D01*
X397109650Y-60498005D01*
X397048044Y-60624448D01*
X396975736Y-60883897D01*
X396890001Y-61286776D01*
X396788116Y-61843508D01*
X396745469Y-62092416D01*
X396558330Y-63368602D01*
X396449186Y-64533268D01*
X396415150Y-65623660D01*
X393468284Y-65623660D01*
X393468053Y-65316953D01*
X393526204Y-63954449D01*
X393642915Y-62647607D01*
X393735369Y-61948323D01*
X393865512Y-61287319D01*
X394063739Y-60539442D01*
X394311102Y-59763075D01*
X394588653Y-59016602D01*
X394871132Y-58372788D01*
X396573375Y-58372788D01*
X396582773Y-58608549D01*
X396621498Y-58712032D01*
X396705347Y-58719753D01*
X396721541Y-58715283D01*
X396890136Y-58669254D01*
X397146062Y-58603711D01*
X397273314Y-58572164D01*
X397550367Y-58489858D01*
X397695727Y-58417017D01*
X397700323Y-58364883D01*
X397555088Y-58344698D01*
X397454129Y-58348020D01*
X397212692Y-58333434D01*
X397107519Y-58246961D01*
X397105320Y-58240083D01*
X397093614Y-58162783D01*
X397146042Y-58223150D01*
X397274217Y-58286574D01*
X397485224Y-58292962D01*
X397721176Y-58253708D01*
X397924186Y-58180210D01*
X398036369Y-58083862D01*
X398043434Y-58046487D01*
X398069211Y-57948786D01*
X398110378Y-57951786D01*
X398152512Y-58060895D01*
X398137079Y-58163700D01*
X398115714Y-58231943D01*
X398118916Y-58271259D01*
X398170787Y-58275643D01*
X398295427Y-58239091D01*
X398516939Y-58155597D01*
X398859423Y-58019159D01*
X399092208Y-57925741D01*
X399182692Y-57868246D01*
X399161001Y-57787995D01*
X399014243Y-57652169D01*
X398971028Y-57617268D01*
X398509985Y-57353753D01*
X397982722Y-57236240D01*
X397416388Y-57269461D01*
X397228741Y-57313422D01*
X397016462Y-57410488D01*
X396827514Y-57558016D01*
X396699754Y-57716564D01*
X396671042Y-57846691D01*
X396688906Y-57875836D01*
X396738475Y-57864926D01*
X396742708Y-57830861D01*
X396811760Y-57745252D01*
X396880075Y-57732083D01*
X396969918Y-57754352D01*
X396922128Y-57846775D01*
X396912041Y-57859083D01*
X396767893Y-57966674D01*
X396690008Y-57986083D01*
X396610984Y-58049490D01*
X396576183Y-58252218D01*
X396573375Y-58372788D01*
X394871132Y-58372788D01*
X394877444Y-58358403D01*
X394943721Y-58225139D01*
X395330616Y-57468188D01*
X394961793Y-57092402D01*
X397390410Y-57092402D01*
X397450607Y-57115453D01*
X397641008Y-57096487D01*
X397649754Y-57095167D01*
X398066985Y-57092869D01*
X398506131Y-57189415D01*
X398901280Y-57364633D01*
X399146614Y-57553258D01*
X399359940Y-57729303D01*
X399508872Y-57756473D01*
X399580968Y-57639149D01*
X399568261Y-57404759D01*
X399440368Y-57007048D01*
X399232683Y-56675736D01*
X399124283Y-56567916D01*
X398910283Y-56474651D01*
X398617170Y-56494678D01*
X398227426Y-56630331D01*
X398055041Y-56710384D01*
X397686226Y-56895944D01*
X397466816Y-57021258D01*
X397390410Y-57092402D01*
X394961793Y-57092402D01*
X394830162Y-56958286D01*
X394267039Y-56420836D01*
X393610125Y-55853497D01*
X392901279Y-55288516D01*
X392182362Y-54758143D01*
X391495235Y-54294625D01*
X390943041Y-53963731D01*
X390649917Y-53785522D01*
X390271127Y-53532114D01*
X389852354Y-53235177D01*
X389439284Y-52926379D01*
X389376708Y-52877935D01*
X388868217Y-52489623D01*
X388456219Y-52198554D01*
X388109299Y-51991007D01*
X387796042Y-51853259D01*
X387485033Y-51771590D01*
X387144857Y-51732278D01*
X386744098Y-51721600D01*
X386729309Y-51721577D01*
X386315850Y-51728953D01*
X385974542Y-51759298D01*
X385640269Y-51823521D01*
X385247914Y-51932531D01*
X384993643Y-52012358D01*
X383562906Y-52433956D01*
X381974267Y-52830802D01*
X380867708Y-53073382D01*
X379116927Y-53498649D01*
X377507763Y-54014605D01*
X376040543Y-54621066D01*
X374715594Y-55317850D01*
X373533242Y-56104774D01*
X372493815Y-56981655D01*
X371597638Y-57948309D01*
X371176576Y-58503035D01*
X370886176Y-58929319D01*
X370655041Y-59310694D01*
X370460093Y-59694465D01*
X370278253Y-60127941D01*
X370086444Y-60658427D01*
X369998745Y-60917396D01*
X369718249Y-61851991D01*
X369522186Y-62746595D01*
X369397333Y-63673098D01*
X369338896Y-64505416D01*
X369338353Y-65464373D01*
X368870972Y-65464373D01*
X368820155Y-64494101D01*
X368829891Y-63955083D01*
G37*
G36*
X398417520Y-57436265D02*
G01*
X398367599Y-57500018D01*
X398308260Y-57605391D01*
X398387820Y-57657616D01*
X398452266Y-57671683D01*
X398574082Y-57699130D01*
X398538827Y-57713103D01*
X398419871Y-57720553D01*
X398233862Y-57702326D01*
X398142333Y-57651664D01*
X398169216Y-57558116D01*
X398285503Y-57468469D01*
X398415049Y-57406036D01*
X398417520Y-57436265D01*
G37*
G36*
X375967462Y-67387503D02*
G01*
X375955686Y-67426416D01*
X375859850Y-67914669D01*
X375914812Y-68328939D01*
X376119755Y-68666615D01*
X376416136Y-68894216D01*
X376829392Y-69039781D01*
X377343519Y-69080958D01*
X377926380Y-69018155D01*
X378499230Y-68867707D01*
X379123943Y-68657998D01*
X379953492Y-68988098D01*
X380755383Y-69261289D01*
X381490603Y-69418970D01*
X382140689Y-69458030D01*
X382508545Y-69418394D01*
X383026550Y-69266966D01*
X383395201Y-69037313D01*
X383616407Y-68727320D01*
X383692081Y-68334871D01*
X383678181Y-68123318D01*
X383657037Y-67916464D01*
X383672316Y-67859821D01*
X383719391Y-67923261D01*
X383763575Y-68097579D01*
X383775626Y-68362353D01*
X383767053Y-68510999D01*
X383717317Y-68807277D01*
X383618022Y-69004313D01*
X383482076Y-69136672D01*
X383095880Y-69353471D01*
X382593808Y-69492035D01*
X382012575Y-69547549D01*
X381388893Y-69515197D01*
X381037041Y-69457374D01*
X380647884Y-69364237D01*
X380198177Y-69237948D01*
X379786792Y-69106355D01*
X379129210Y-68877789D01*
X378474459Y-69038201D01*
X377943383Y-69137624D01*
X377413474Y-69182514D01*
X376928490Y-69172847D01*
X376532185Y-69108603D01*
X376346162Y-69039283D01*
X376046459Y-68798667D01*
X375843040Y-68463599D01*
X375750073Y-68081939D01*
X375781727Y-67701548D01*
X375881223Y-67468750D01*
X375960917Y-67353194D01*
X375967462Y-67387503D01*
G37*
G36*
X395432960Y-52784061D02*
G01*
X395485244Y-52580638D01*
X395586988Y-52422938D01*
X395744321Y-52266694D01*
X396137681Y-52005457D01*
X396562377Y-51910018D01*
X397010784Y-51981384D01*
X397224143Y-52071119D01*
X397611565Y-52321798D01*
X397853818Y-52625972D01*
X397973648Y-53015276D01*
X397987407Y-53132609D01*
X397957034Y-53585891D01*
X397792420Y-53953582D01*
X397512327Y-54222645D01*
X397135516Y-54380042D01*
X396680750Y-54412734D01*
X396256416Y-54335500D01*
X396030829Y-54226794D01*
X395777898Y-54043638D01*
X395675812Y-53950210D01*
X395511196Y-53776568D01*
X395422914Y-53633598D01*
X395391752Y-53460667D01*
X395398495Y-53197143D01*
X395401661Y-53145891D01*
X395541868Y-53145891D01*
X395619887Y-53480497D01*
X395817186Y-53775873D01*
X396118576Y-54006041D01*
X396508869Y-54145017D01*
X396804872Y-54174155D01*
X397103260Y-54138886D01*
X397350249Y-54004201D01*
X397439872Y-53929028D01*
X397602090Y-53765697D01*
X397684633Y-53607031D01*
X397713695Y-53385006D01*
X397716375Y-53210989D01*
X397704258Y-52919954D01*
X397650030Y-52725110D01*
X397526872Y-52554006D01*
X397439580Y-52463211D01*
X397274084Y-52312075D01*
X397121020Y-52228939D01*
X396920049Y-52193741D01*
X396610835Y-52186417D01*
X396607135Y-52186416D01*
X396299571Y-52192856D01*
X396103818Y-52225359D01*
X395962469Y-52303698D01*
X395818118Y-52447649D01*
X395804429Y-52462919D01*
X395598319Y-52798038D01*
X395541868Y-53145891D01*
X395401661Y-53145891D01*
X395404805Y-53095009D01*
X395432960Y-52784061D01*
G37*
G36*
X390586273Y-50086249D02*
G01*
X390863815Y-49637142D01*
X391258081Y-49254886D01*
X391581672Y-49051872D01*
X391917168Y-48938304D01*
X392346298Y-48874580D01*
X392799852Y-48864113D01*
X393208620Y-48910315D01*
X393393049Y-48962549D01*
X393821803Y-49210452D01*
X394164084Y-49573778D01*
X394413062Y-50020107D01*
X394561906Y-50517018D01*
X394603783Y-51032091D01*
X394531864Y-51532906D01*
X394339317Y-51987043D01*
X394094975Y-52293858D01*
X393659316Y-52623123D01*
X393156698Y-52822145D01*
X392557753Y-52901654D01*
X392424708Y-52904157D01*
X392000024Y-52887343D01*
X391678380Y-52826662D01*
X391431647Y-52728712D01*
X390986563Y-52424516D01*
X390664569Y-52031166D01*
X390464604Y-51574665D01*
X390385607Y-51081011D01*
X390400906Y-50892233D01*
X390630082Y-50892233D01*
X390675081Y-51451465D01*
X390846284Y-51900951D01*
X391150913Y-52251433D01*
X391596188Y-52513651D01*
X391763973Y-52578719D01*
X392334148Y-52690707D01*
X392928951Y-52636721D01*
X393399598Y-52482225D01*
X393807386Y-52224550D01*
X394104312Y-51868164D01*
X394290385Y-51442342D01*
X394365616Y-50976361D01*
X394330017Y-50499496D01*
X394183598Y-50041023D01*
X393926370Y-49630218D01*
X393558344Y-49296358D01*
X393398375Y-49200451D01*
X393139415Y-49120637D01*
X392779740Y-49080029D01*
X392383564Y-49079464D01*
X392015103Y-49119782D01*
X391790083Y-49179442D01*
X391312132Y-49447449D01*
X390952591Y-49830500D01*
X390721879Y-50313210D01*
X390630418Y-50880195D01*
X390630082Y-50892233D01*
X390400906Y-50892233D01*
X390426517Y-50576205D01*
X390586273Y-50086249D01*
G37*
G36*
X387322431Y-62584913D02*
G01*
X387716850Y-62799325D01*
X388028116Y-63118709D01*
X388095310Y-63226405D01*
X388267107Y-63690584D01*
X388287396Y-64157988D01*
X388168507Y-64598429D01*
X387922773Y-64981722D01*
X387562524Y-65277678D01*
X387193912Y-65433024D01*
X386962807Y-65491832D01*
X386795661Y-65506439D01*
X386604484Y-65477753D01*
X386444251Y-65440762D01*
X386017411Y-65256736D01*
X385672419Y-64944608D01*
X385432272Y-64535053D01*
X385319968Y-64058746D01*
X385314567Y-63933916D01*
X385331355Y-63677659D01*
X385386977Y-63584659D01*
X385484075Y-63652753D01*
X385547059Y-63743416D01*
X385710960Y-63877707D01*
X385857711Y-63912750D01*
X386110602Y-63845948D01*
X386272302Y-63676328D01*
X386332083Y-63450064D01*
X386279219Y-63213333D01*
X386102982Y-63012309D01*
X386071633Y-62991924D01*
X385814558Y-62835587D01*
X386050466Y-62680935D01*
X386448219Y-62514776D01*
X386885881Y-62486416D01*
X387322431Y-62584913D01*
G37*
G36*
X374320501Y-62297327D02*
G01*
X374676477Y-62515563D01*
X374948818Y-62850880D01*
X375117610Y-63280035D01*
X375164803Y-63694714D01*
X375115144Y-64156002D01*
X374949294Y-64535136D01*
X374654140Y-64879295D01*
X374331858Y-65080288D01*
X373940203Y-65171837D01*
X373541877Y-65147422D01*
X373238273Y-65026508D01*
X372886490Y-64710520D01*
X372647519Y-64295880D01*
X372533654Y-63820209D01*
X372557190Y-63321128D01*
X372612059Y-63110383D01*
X372715471Y-62797040D01*
X372874512Y-63058562D01*
X373071126Y-63263887D01*
X373298561Y-63317641D01*
X373522922Y-63214647D01*
X373573252Y-63165249D01*
X373700389Y-62923046D01*
X373663814Y-62679345D01*
X373501774Y-62488594D01*
X373380532Y-62362321D01*
X373402452Y-62278995D01*
X373575595Y-62233174D01*
X373900806Y-62219416D01*
X374320501Y-62297327D01*
G37*
X96495625Y-50263750D02*
X96495625Y-51593750D01*
X93895625Y-52923750D02*
X83675625Y-52923750D01*
X93895625Y-50263750D02*
X83675625Y-50263750D01*
X83675625Y-50263750D02*
X83675625Y-52923750D01*
X95165625Y-50263750D02*
X96495625Y-50263750D01*
X93895625Y-50263750D02*
X93895625Y-52923750D01*
G36*
X241940560Y-171378013D02*
G01*
X241935924Y-171393333D01*
X241898193Y-171585558D01*
X241919832Y-171748657D01*
X242000518Y-171881600D01*
X242117204Y-171971207D01*
X242279903Y-172028516D01*
X242482315Y-172044727D01*
X242711788Y-172020002D01*
X242937320Y-171960770D01*
X243183269Y-171878208D01*
X243509864Y-172008168D01*
X243825569Y-172115724D01*
X244115025Y-172177803D01*
X244370965Y-172193181D01*
X244515790Y-172177576D01*
X244719729Y-172117959D01*
X244864867Y-172027544D01*
X244951956Y-171905500D01*
X244981749Y-171750992D01*
X244976277Y-171667704D01*
X244967952Y-171586265D01*
X244973968Y-171563965D01*
X244992501Y-171588941D01*
X245009896Y-171657570D01*
X245014641Y-171761812D01*
X245011266Y-171820334D01*
X244991685Y-171936979D01*
X244952592Y-172014552D01*
X244899070Y-172066662D01*
X244747024Y-172152016D01*
X244549358Y-172206569D01*
X244320526Y-172228425D01*
X244074982Y-172215688D01*
X243936458Y-172192923D01*
X243783246Y-172156254D01*
X243606196Y-172106534D01*
X243444234Y-172054726D01*
X243185343Y-171964739D01*
X242927567Y-172027894D01*
X242718482Y-172067037D01*
X242509857Y-172084710D01*
X242318918Y-172080904D01*
X242162892Y-172055611D01*
X242089655Y-172028320D01*
X241971662Y-171933589D01*
X241891575Y-171801672D01*
X241854974Y-171651413D01*
X241867436Y-171501653D01*
X241906608Y-171410000D01*
X241937984Y-171364505D01*
X241940560Y-171378013D01*
G37*
G36*
X241292151Y-169374006D02*
G01*
X241432299Y-169459926D01*
X241539520Y-169591941D01*
X241605973Y-169760899D01*
X241624553Y-169924159D01*
X241605002Y-170105768D01*
X241539707Y-170255033D01*
X241423505Y-170390529D01*
X241296622Y-170469660D01*
X241142427Y-170505703D01*
X240985606Y-170496091D01*
X240866077Y-170448487D01*
X240727580Y-170324082D01*
X240633496Y-170160838D01*
X240588668Y-169973566D01*
X240597934Y-169777078D01*
X240619536Y-169694107D01*
X240660249Y-169570744D01*
X240722864Y-169673705D01*
X240800271Y-169754542D01*
X240889812Y-169775705D01*
X240978143Y-169735156D01*
X240997958Y-169715708D01*
X241048012Y-169620352D01*
X241033613Y-169524407D01*
X240969817Y-169449309D01*
X240922084Y-169399595D01*
X240930714Y-169366789D01*
X240998881Y-169348749D01*
X241126916Y-169343333D01*
X241292151Y-169374006D01*
G37*
G36*
X247695998Y-164566495D02*
G01*
X247805266Y-164389682D01*
X247960489Y-164239187D01*
X248087887Y-164159260D01*
X248219972Y-164114549D01*
X248388921Y-164089460D01*
X248567486Y-164085339D01*
X248728418Y-164103529D01*
X248801028Y-164124094D01*
X248969828Y-164221693D01*
X249104585Y-164364735D01*
X249202608Y-164540455D01*
X249261208Y-164736089D01*
X249277695Y-164938874D01*
X249249380Y-165136045D01*
X249173574Y-165314839D01*
X249077377Y-165435633D01*
X248905858Y-165565265D01*
X248707976Y-165643620D01*
X248472171Y-165674923D01*
X248419791Y-165675908D01*
X248252593Y-165669288D01*
X248125961Y-165645398D01*
X248028822Y-165606835D01*
X247853592Y-165487073D01*
X247726823Y-165332211D01*
X247648097Y-165152486D01*
X247616995Y-164958134D01*
X247623018Y-164883812D01*
X247713245Y-164883812D01*
X247730962Y-165103982D01*
X247798365Y-165280945D01*
X247918297Y-165418930D01*
X248093602Y-165522166D01*
X248159659Y-165547783D01*
X248384138Y-165591873D01*
X248618312Y-165570618D01*
X248803606Y-165509793D01*
X248964153Y-165408346D01*
X249081053Y-165268037D01*
X249154310Y-165100390D01*
X249183928Y-164916933D01*
X249169913Y-164729191D01*
X249112268Y-164548690D01*
X249010997Y-164386956D01*
X248866105Y-164255515D01*
X248803125Y-164217756D01*
X248701172Y-164186333D01*
X248559567Y-164170346D01*
X248403593Y-164170123D01*
X248258529Y-164185996D01*
X248169939Y-164209485D01*
X247981769Y-164314999D01*
X247840218Y-164465807D01*
X247749386Y-164655850D01*
X247713378Y-164879072D01*
X247713245Y-164883812D01*
X247623018Y-164883812D01*
X247633102Y-164759392D01*
X247695998Y-164566495D01*
G37*
G36*
X239130493Y-170026666D02*
G01*
X239147669Y-169755381D01*
X239176157Y-169528093D01*
X239220873Y-169322443D01*
X239286732Y-169116068D01*
X239378651Y-168886608D01*
X239383688Y-168874895D01*
X239627093Y-168374143D01*
X239907255Y-167918619D01*
X240226840Y-167506369D01*
X240588515Y-167135443D01*
X240994946Y-166803889D01*
X241448800Y-166509756D01*
X241952743Y-166251090D01*
X242509441Y-166025942D01*
X243121563Y-165832358D01*
X243753125Y-165676719D01*
X244067573Y-165608061D01*
X244327225Y-165550354D01*
X244542554Y-165500968D01*
X244724033Y-165457274D01*
X244882135Y-165416641D01*
X245027331Y-165376440D01*
X245170096Y-165334042D01*
X245320901Y-165286816D01*
X245375198Y-165269408D01*
X245558727Y-165211792D01*
X245700102Y-165172718D01*
X245820033Y-165148531D01*
X245939227Y-165135573D01*
X246078394Y-165130190D01*
X246169791Y-165129142D01*
X246338685Y-165129596D01*
X246459721Y-165135576D01*
X246551657Y-165149972D01*
X246633251Y-165175675D01*
X246719791Y-165213925D01*
X246818463Y-165269572D01*
X246950722Y-165356151D01*
X247099106Y-165461718D01*
X247242952Y-165571776D01*
X247405268Y-165695929D01*
X247583207Y-165823818D01*
X247753193Y-165938892D01*
X247870559Y-166012347D01*
X248158339Y-166182325D01*
X248864065Y-166191061D01*
X249266328Y-166202641D01*
X249619967Y-166228909D01*
X249942053Y-166273209D01*
X250249657Y-166338884D01*
X250559849Y-166429280D01*
X250889700Y-166547738D01*
X251086458Y-166626382D01*
X251238765Y-166688670D01*
X251378635Y-166745241D01*
X251488407Y-166788986D01*
X251541932Y-166809691D01*
X251598475Y-166836699D01*
X251641936Y-166876932D01*
X251677534Y-166941776D01*
X251710491Y-167042621D01*
X251746028Y-167190852D01*
X251771326Y-167310000D01*
X251848564Y-167634454D01*
X251945151Y-167946331D01*
X252068113Y-168265254D01*
X252224479Y-168610846D01*
X252272708Y-168710000D01*
X252397484Y-168973242D01*
X252485946Y-169182831D01*
X252538810Y-169340551D01*
X252553593Y-169410000D01*
X252579592Y-169546262D01*
X252615324Y-169682116D01*
X252632964Y-169734727D01*
X252667475Y-169851955D01*
X252693531Y-169988021D01*
X252709670Y-170125772D01*
X252714434Y-170248058D01*
X252706362Y-170337726D01*
X252687548Y-170375992D01*
X252668365Y-170401233D01*
X252661829Y-170453795D01*
X252667947Y-170546232D01*
X252686721Y-170691095D01*
X252687680Y-170697770D01*
X252708987Y-170880485D01*
X252725234Y-171084717D01*
X252733156Y-171268698D01*
X252733343Y-171282199D01*
X252728847Y-171458783D01*
X252704651Y-171588063D01*
X252651367Y-171688598D01*
X252559608Y-171778950D01*
X252438243Y-171865659D01*
X252317015Y-171955071D01*
X252193565Y-172059908D01*
X252146343Y-172105025D01*
X252061146Y-172182593D01*
X251964726Y-172250663D01*
X251845941Y-172314690D01*
X251693645Y-172380128D01*
X251496694Y-172452430D01*
X251303125Y-172517685D01*
X251150456Y-172567000D01*
X251028002Y-172602584D01*
X250918650Y-172627100D01*
X250805285Y-172643213D01*
X250670794Y-172653587D01*
X250498062Y-172660886D01*
X250354750Y-172665315D01*
X249806376Y-172681359D01*
X249526799Y-172867383D01*
X249352705Y-172977440D01*
X249177819Y-173074614D01*
X248992547Y-173162511D01*
X248787298Y-173244740D01*
X248552480Y-173324909D01*
X248278501Y-173406624D01*
X247955770Y-173493495D01*
X247670739Y-173565494D01*
X247443972Y-173620375D01*
X247257228Y-173661868D01*
X247086296Y-173694425D01*
X246906964Y-173722499D01*
X246695021Y-173750543D01*
X246603125Y-173761848D01*
X246410602Y-173780248D01*
X246165294Y-173796045D01*
X245881038Y-173808974D01*
X245571673Y-173818770D01*
X245251039Y-173825170D01*
X244932975Y-173827908D01*
X244631319Y-173826721D01*
X244359912Y-173821342D01*
X244132591Y-173811509D01*
X244103125Y-173809632D01*
X243431721Y-173754332D01*
X242822232Y-173682295D01*
X242271874Y-173592853D01*
X241777859Y-173485336D01*
X241337404Y-173359077D01*
X240947722Y-173213406D01*
X240606027Y-173047657D01*
X240394584Y-172919780D01*
X240243856Y-172806678D01*
X240076490Y-172659615D01*
X239907437Y-172493821D01*
X239751649Y-172324528D01*
X239624076Y-172166966D01*
X239555551Y-172065049D01*
X239411072Y-171769354D01*
X239293068Y-171425100D01*
X239204414Y-171046075D01*
X239147987Y-170646071D01*
X239146667Y-170620875D01*
X239330675Y-170620875D01*
X239362258Y-171009427D01*
X239422681Y-171382602D01*
X239487964Y-171646132D01*
X239607847Y-171937219D01*
X239793486Y-172220930D01*
X240044303Y-172496519D01*
X240345847Y-172752731D01*
X240621389Y-172937014D01*
X240937862Y-173100655D01*
X241298611Y-173244520D01*
X241706977Y-173369475D01*
X242166304Y-173476385D01*
X242679935Y-173566118D01*
X243251213Y-173639538D01*
X243883482Y-173697512D01*
X244036711Y-173708671D01*
X244239800Y-173718890D01*
X244489021Y-173725221D01*
X244771829Y-173727885D01*
X245075677Y-173727104D01*
X245388019Y-173723099D01*
X245696308Y-173716093D01*
X245987999Y-173706308D01*
X246250545Y-173693964D01*
X246471399Y-173679285D01*
X246636458Y-173662696D01*
X246824399Y-173637369D01*
X246983678Y-173613400D01*
X247131033Y-173587460D01*
X247283200Y-173556215D01*
X247456916Y-173516334D01*
X247668917Y-173464485D01*
X247810964Y-173428889D01*
X248173002Y-173334608D01*
X248471106Y-173250046D01*
X248707186Y-173174476D01*
X248883150Y-173107171D01*
X249000908Y-173047405D01*
X249062369Y-172994450D01*
X249070269Y-172949578D01*
X249035897Y-172836353D01*
X248997955Y-172669717D01*
X248958983Y-172462647D01*
X248921521Y-172228117D01*
X248902642Y-172093333D01*
X248854908Y-171617319D01*
X248830961Y-171100145D01*
X248830648Y-170683586D01*
X249990832Y-170683586D01*
X249995553Y-170910000D01*
X250005847Y-171096160D01*
X250021704Y-171290919D01*
X250041666Y-171483841D01*
X250064277Y-171664492D01*
X250088081Y-171822438D01*
X250111620Y-171947244D01*
X250133439Y-172028477D01*
X250152079Y-172055701D01*
X250155231Y-172053816D01*
X250183759Y-172012891D01*
X250233955Y-171930778D01*
X250295324Y-171824686D01*
X250299720Y-171816890D01*
X250369491Y-171678688D01*
X250442894Y-171510740D01*
X250505030Y-171347343D01*
X250509720Y-171333557D01*
X250541948Y-171234434D01*
X250565580Y-171148374D01*
X250581915Y-171062364D01*
X250592248Y-170963395D01*
X250597879Y-170838455D01*
X250600103Y-170674534D01*
X250600108Y-170665636D01*
X251953804Y-170665636D01*
X251960600Y-170741760D01*
X251975279Y-170829791D01*
X251993576Y-170904954D01*
X252011229Y-170942477D01*
X252013740Y-170943333D01*
X252025316Y-170913727D01*
X252027644Y-170838948D01*
X252025265Y-170796563D01*
X252022342Y-170702690D01*
X252038637Y-170653166D01*
X252082354Y-170626591D01*
X252091692Y-170623292D01*
X252161131Y-170605253D01*
X252194791Y-170603395D01*
X252216766Y-170582735D01*
X252219791Y-170559552D01*
X252212717Y-170530173D01*
X252180369Y-170529155D01*
X252106058Y-170556641D01*
X252096503Y-170560618D01*
X252015123Y-170596489D01*
X251964608Y-170622246D01*
X251959154Y-170626192D01*
X251953804Y-170665636D01*
X250600108Y-170665636D01*
X250600219Y-170458620D01*
X250600148Y-170426666D01*
X250596324Y-170122665D01*
X250585933Y-169873169D01*
X250568233Y-169666271D01*
X250542479Y-169490064D01*
X250541246Y-169483350D01*
X250507500Y-169325169D01*
X250464036Y-169155663D01*
X250415567Y-168989923D01*
X250366808Y-168843044D01*
X250322473Y-168730117D01*
X250287276Y-168666236D01*
X250285371Y-168664093D01*
X250264257Y-168665612D01*
X250240002Y-168715392D01*
X250211534Y-168817538D01*
X250177781Y-168976152D01*
X250137668Y-169195338D01*
X250120878Y-169293333D01*
X250047201Y-169795768D01*
X250004231Y-170254298D01*
X249990832Y-170683586D01*
X248830648Y-170683586D01*
X248830557Y-170562836D01*
X248853451Y-170026416D01*
X248899400Y-169511912D01*
X248935800Y-169236603D01*
X248987037Y-168976365D01*
X249065079Y-168681926D01*
X249162466Y-168376270D01*
X249271738Y-168082382D01*
X249382950Y-167828912D01*
X250053125Y-167828912D01*
X250056825Y-167921732D01*
X250072071Y-167962473D01*
X250105082Y-167965513D01*
X250111458Y-167963753D01*
X250177834Y-167945631D01*
X250278592Y-167919827D01*
X250328691Y-167907407D01*
X250437767Y-167875003D01*
X250494995Y-167846325D01*
X250496805Y-167825800D01*
X250439626Y-167817853D01*
X250399878Y-167819161D01*
X250304824Y-167813419D01*
X250263418Y-167779374D01*
X250262552Y-167776666D01*
X250257943Y-167746233D01*
X250278584Y-167770000D01*
X250329047Y-167794970D01*
X250412120Y-167797485D01*
X250505015Y-167782031D01*
X250584940Y-167753094D01*
X250629107Y-167715162D01*
X250631888Y-167700447D01*
X250642036Y-167661982D01*
X250658244Y-167663163D01*
X250674832Y-167706120D01*
X250668756Y-167746594D01*
X250660345Y-167773462D01*
X250661605Y-167788940D01*
X250682027Y-167790666D01*
X250731098Y-167776276D01*
X250818307Y-167743404D01*
X250953144Y-167689688D01*
X251044791Y-167652910D01*
X251080415Y-167630274D01*
X251071875Y-167598679D01*
X251014096Y-167545204D01*
X250997083Y-167531464D01*
X250815570Y-167427718D01*
X250607986Y-167381452D01*
X250385020Y-167394532D01*
X250311143Y-167411839D01*
X250227568Y-167450054D01*
X250153179Y-167508136D01*
X250102880Y-167570556D01*
X250091576Y-167621787D01*
X250098609Y-167633262D01*
X250118125Y-167628966D01*
X250119791Y-167615555D01*
X250146977Y-167581851D01*
X250173873Y-167576666D01*
X250209244Y-167585433D01*
X250190429Y-167621821D01*
X250186458Y-167626666D01*
X250129707Y-167669025D01*
X250099043Y-167676666D01*
X250067931Y-167701630D01*
X250054230Y-167781444D01*
X250053125Y-167828912D01*
X249382950Y-167828912D01*
X249385435Y-167823249D01*
X249411529Y-167770783D01*
X249563849Y-167472771D01*
X249418643Y-167324823D01*
X250374792Y-167324823D01*
X250398492Y-167333898D01*
X250473453Y-167326432D01*
X250476896Y-167325912D01*
X250641160Y-167325007D01*
X250814052Y-167363017D01*
X250969623Y-167432001D01*
X251066211Y-167506263D01*
X251150198Y-167575572D01*
X251208832Y-167586269D01*
X251237217Y-167540078D01*
X251232214Y-167447799D01*
X251181862Y-167291219D01*
X251100096Y-167160781D01*
X251057419Y-167118333D01*
X250973167Y-167081614D01*
X250857768Y-167089499D01*
X250704326Y-167142906D01*
X250636458Y-167174422D01*
X250491255Y-167247478D01*
X250404873Y-167296814D01*
X250374792Y-167324823D01*
X249418643Y-167324823D01*
X249366820Y-167272022D01*
X249145118Y-167060427D01*
X248886491Y-166837065D01*
X248607418Y-166614632D01*
X248324379Y-166405824D01*
X248053857Y-166223336D01*
X247836458Y-166093063D01*
X247721055Y-166022902D01*
X247571925Y-165923135D01*
X247407054Y-165806231D01*
X247244428Y-165684657D01*
X247219791Y-165665584D01*
X247019598Y-165512705D01*
X246857394Y-165398111D01*
X246720811Y-165316400D01*
X246597482Y-165262169D01*
X246475037Y-165230016D01*
X246341110Y-165214538D01*
X246183330Y-165210334D01*
X246177508Y-165210325D01*
X246014729Y-165213229D01*
X245880356Y-165225176D01*
X245748752Y-165250461D01*
X245594282Y-165293378D01*
X245494175Y-165324806D01*
X244930893Y-165490789D01*
X244305444Y-165647028D01*
X243869791Y-165742532D01*
X243180507Y-165909960D01*
X242546978Y-166113092D01*
X241969333Y-166351856D01*
X241447699Y-166626181D01*
X240982206Y-166935994D01*
X240572983Y-167281222D01*
X240220157Y-167661795D01*
X240054385Y-167880191D01*
X239940054Y-168048019D01*
X239849056Y-168198167D01*
X239772305Y-168349258D01*
X239700715Y-168519917D01*
X239625199Y-168728770D01*
X239590672Y-168830726D01*
X239480241Y-169198677D01*
X239403050Y-169550883D01*
X239353896Y-169915648D01*
X239330889Y-170243333D01*
X239330675Y-170620875D01*
X239146667Y-170620875D01*
X239126660Y-170238878D01*
X239130493Y-170026666D01*
G37*
G36*
X250779166Y-167460202D02*
G01*
X250759512Y-167485302D01*
X250736150Y-167526787D01*
X250767473Y-167547348D01*
X250792845Y-167552887D01*
X250840805Y-167563692D01*
X250826925Y-167569194D01*
X250780092Y-167572127D01*
X250706860Y-167564951D01*
X250670825Y-167545005D01*
X250681409Y-167508175D01*
X250727191Y-167472881D01*
X250778193Y-167448301D01*
X250779166Y-167460202D01*
G37*
G36*
X249604142Y-165628626D02*
G01*
X249624727Y-165548538D01*
X249664783Y-165486452D01*
X249726725Y-165424938D01*
X249881592Y-165322089D01*
X250048795Y-165284515D01*
X250225333Y-165312612D01*
X250309332Y-165347940D01*
X250461861Y-165446633D01*
X250557236Y-165566386D01*
X250604413Y-165719656D01*
X250609830Y-165765850D01*
X250597872Y-165944307D01*
X250533064Y-166089067D01*
X250422791Y-166194998D01*
X250274440Y-166256965D01*
X250095398Y-166269836D01*
X249928338Y-166239429D01*
X249839524Y-166196631D01*
X249739945Y-166124523D01*
X249699754Y-166087740D01*
X249634944Y-166019377D01*
X249600187Y-165963089D01*
X249587919Y-165895006D01*
X249590574Y-165791257D01*
X249591821Y-165771079D01*
X249647020Y-165771079D01*
X249677736Y-165902813D01*
X249755412Y-166019103D01*
X249874070Y-166109720D01*
X250027728Y-166164436D01*
X250144265Y-166175907D01*
X250261741Y-166162022D01*
X250358980Y-166108996D01*
X250394265Y-166079400D01*
X250458131Y-166015097D01*
X250490628Y-165952630D01*
X250502070Y-165865219D01*
X250503125Y-165796708D01*
X250498354Y-165682127D01*
X250477005Y-165605417D01*
X250428517Y-165538053D01*
X250394150Y-165502307D01*
X250328994Y-165442805D01*
X250268733Y-165410074D01*
X250189611Y-165396216D01*
X250067873Y-165393333D01*
X250066416Y-165393333D01*
X249945328Y-165395868D01*
X249868260Y-165408665D01*
X249812610Y-165439507D01*
X249755779Y-165496181D01*
X249750390Y-165502192D01*
X249669244Y-165634129D01*
X249647020Y-165771079D01*
X249591821Y-165771079D01*
X249593058Y-165751047D01*
X249604142Y-165628626D01*
G37*
G36*
X246411021Y-169487229D02*
G01*
X246566304Y-169571643D01*
X246688849Y-169697385D01*
X246715304Y-169739785D01*
X246782940Y-169922533D01*
X246790928Y-170106550D01*
X246744122Y-170279952D01*
X246647376Y-170430855D01*
X246505546Y-170547373D01*
X246360423Y-170608533D01*
X246269437Y-170631685D01*
X246203631Y-170637436D01*
X246128365Y-170626143D01*
X246065281Y-170611579D01*
X245897233Y-170539128D01*
X245761410Y-170416243D01*
X245666864Y-170255001D01*
X245622649Y-170067479D01*
X245620523Y-170018333D01*
X245627133Y-169917444D01*
X245649031Y-169880830D01*
X245687258Y-169907639D01*
X245712055Y-169943333D01*
X245776583Y-169996203D01*
X245834359Y-170010000D01*
X245933923Y-169983700D01*
X245997584Y-169916920D01*
X246021120Y-169827840D01*
X246000307Y-169734639D01*
X245930923Y-169655495D01*
X245918581Y-169647470D01*
X245817370Y-169585920D01*
X245910247Y-169525033D01*
X246066843Y-169459616D01*
X246239151Y-169448451D01*
X246411021Y-169487229D01*
G37*
X115014375Y-50263750D02*
X109874375Y-50263750D01*
X116284375Y-50263750D02*
X117614375Y-50263750D01*
X109874375Y-50263750D02*
X109874375Y-52923750D01*
X115014375Y-50263750D02*
X115014375Y-52923750D01*
X117614375Y-50263750D02*
X117614375Y-51593750D01*
X115014375Y-52923750D02*
X109874375Y-52923750D01*
X45478125Y-87762500D02*
X41378125Y-87762500D01*
X53578125Y-87762500D02*
X53578125Y-90162500D01*
X46978125Y-93662500D02*
X47978125Y-93662500D01*
X40278125Y-89562500D02*
X39978125Y-89862500D01*
X53578125Y-92362500D02*
X53578125Y-94962500D01*
X47478125Y-93162500D02*
X47478125Y-94162500D01*
X39978125Y-89862500D02*
X39678125Y-89562500D01*
X53578125Y-97162500D02*
X53578125Y-99562500D01*
X39678125Y-89562500D02*
X40278125Y-89562500D01*
X41378125Y-87762500D02*
X41378125Y-99562500D01*
X45478125Y-99562500D02*
X41378125Y-99562500D01*
X49478125Y-87762500D02*
X53578125Y-87762500D01*
X53578125Y-99562500D02*
X49478125Y-99562500D01*
X50478125Y-93662500D02*
G75*
G03*
X50478125Y-93662500I-3000000J0D01*
G01*
%LPC*%
D14*
X54133750Y-51461250D03*
X56673750Y-51461250D03*
X59213750Y-51461250D03*
D15*
X61753750Y-51461250D03*
D16*
X42743750Y-51961250D03*
X73243750Y-51961250D03*
X42743750Y-80561250D03*
X73243750Y-80561250D03*
D15*
X95165625Y-51593750D03*
D14*
X92625625Y-51593750D03*
X90085625Y-51593750D03*
X87545625Y-51593750D03*
X85005625Y-51593750D03*
D15*
X116284375Y-51593750D03*
D14*
X113744375Y-51593750D03*
X111204375Y-51593750D03*
D17*
X39978125Y-91162500D03*
D18*
X39978125Y-96162500D03*
X39978125Y-93662500D03*
D19*
X47478125Y-88062500D03*
X47478125Y-99262500D03*
D18*
X54478125Y-96162500D03*
X54478125Y-91162500D03*
D20*
X304403125Y-93662500D03*
D21*
X299323125Y-93662500D03*
X309483125Y-93662500D03*
D22*
X300593125Y-91122500D03*
X306943125Y-88582500D03*
D21*
X342820625Y-69850000D03*
X332660625Y-69850000D03*
D20*
X337740625Y-69850000D03*
D22*
X333930625Y-67310000D03*
X340280625Y-64770000D03*
D21*
X280273125Y-93662500D03*
D20*
X285353125Y-93662500D03*
D21*
X290433125Y-93662500D03*
D22*
X281543125Y-91122500D03*
X287893125Y-88582500D03*
D21*
X127873125Y-93662500D03*
D20*
X132953125Y-93662500D03*
D21*
X138033125Y-93662500D03*
D22*
X129143125Y-91122500D03*
X135493125Y-88582500D03*
D21*
X142795625Y-150812500D03*
X132635625Y-150812500D03*
D20*
X137715625Y-150812500D03*
D22*
X133905625Y-148272500D03*
X140255625Y-145732500D03*
D18*
X61190625Y-66675000D03*
X70190625Y-66675000D03*
D21*
X280273125Y-169862500D03*
D20*
X285353125Y-169862500D03*
D21*
X290433125Y-169862500D03*
D22*
X281543125Y-167322500D03*
X287893125Y-164782500D03*
D20*
X97234375Y-169862500D03*
D21*
X102314375Y-169862500D03*
X92154375Y-169862500D03*
D22*
X93424375Y-167322500D03*
X99774375Y-164782500D03*
D20*
X171053125Y-93662500D03*
D21*
X176133125Y-93662500D03*
X165973125Y-93662500D03*
D22*
X167243125Y-91122500D03*
X173593125Y-88582500D03*
D21*
X194548125Y-112712500D03*
X204708125Y-112712500D03*
D20*
X199628125Y-112712500D03*
D22*
X195818125Y-110172500D03*
X202168125Y-107632500D03*
D21*
X357108125Y-93662500D03*
D20*
X352028125Y-93662500D03*
D21*
X346948125Y-93662500D03*
D22*
X348218125Y-91122500D03*
X354568125Y-88582500D03*
D21*
X42148125Y-131762500D03*
D20*
X47228125Y-131762500D03*
D21*
X52308125Y-131762500D03*
D22*
X43418125Y-129222500D03*
X49768125Y-126682500D03*
D20*
X66278125Y-93662500D03*
D21*
X61198125Y-93662500D03*
X71358125Y-93662500D03*
D20*
X66278125Y-93662500D03*
D22*
X62468125Y-91122500D03*
X68818125Y-88582500D03*
D21*
X107076875Y-131762500D03*
X96916875Y-131762500D03*
D20*
X101996875Y-131762500D03*
D22*
X98186875Y-129222500D03*
X104536875Y-126682500D03*
D21*
X385048125Y-131762500D03*
X395208125Y-131762500D03*
D20*
X390128125Y-131762500D03*
D22*
X386318125Y-129222500D03*
X392668125Y-126682500D03*
D23*
X166290625Y-162877500D03*
D20*
X266303125Y-178117500D03*
D23*
X266303125Y-162877500D03*
D20*
X166290625Y-178117500D03*
X304403125Y-169862500D03*
D21*
X309483125Y-169862500D03*
X299323125Y-169862500D03*
D22*
X300593125Y-167322500D03*
X306943125Y-164782500D03*
D20*
X118665625Y-69850000D03*
D21*
X123745625Y-69850000D03*
X113585625Y-69850000D03*
D22*
X114855625Y-67310000D03*
X121205625Y-64770000D03*
D21*
X313610625Y-69850000D03*
D20*
X318690625Y-69850000D03*
D21*
X323770625Y-69850000D03*
D22*
X314880625Y-67310000D03*
X321230625Y-64770000D03*
D20*
X121046875Y-169862500D03*
D21*
X126126875Y-169862500D03*
X115966875Y-169862500D03*
D22*
X117236875Y-167322500D03*
X123586875Y-164782500D03*
D21*
X361235625Y-155575000D03*
X371395625Y-155575000D03*
D20*
X366315625Y-155575000D03*
D22*
X362505625Y-153035000D03*
X368855625Y-150495000D03*
D20*
X194865625Y-150812500D03*
D21*
X199945625Y-150812500D03*
X189785625Y-150812500D03*
D22*
X191055625Y-148272500D03*
X197405625Y-145732500D03*
D21*
X71358125Y-169862500D03*
D20*
X66278125Y-169862500D03*
D21*
X61198125Y-169862500D03*
D22*
X62468125Y-167322500D03*
X68818125Y-164782500D03*
D20*
X218678125Y-112712500D03*
D21*
X213598125Y-112712500D03*
X223758125Y-112712500D03*
D22*
X214868125Y-110172500D03*
X221218125Y-107632500D03*
D21*
X294560625Y-131762500D03*
X304720625Y-131762500D03*
D20*
X299640625Y-131762500D03*
D22*
X295830625Y-129222500D03*
X302180625Y-126682500D03*
D21*
X180260625Y-131762500D03*
X190420625Y-131762500D03*
D20*
X185340625Y-131762500D03*
D22*
X181530625Y-129222500D03*
X187880625Y-126682500D03*
D20*
X242490625Y-131762500D03*
D21*
X237410625Y-131762500D03*
X247570625Y-131762500D03*
D22*
X238680625Y-129222500D03*
X245030625Y-126682500D03*
D21*
X256460625Y-131762500D03*
D20*
X261540625Y-131762500D03*
D21*
X266620625Y-131762500D03*
D22*
X257730625Y-129222500D03*
X264080625Y-126682500D03*
D21*
X52308125Y-169862500D03*
X42148125Y-169862500D03*
D20*
X47228125Y-169862500D03*
D22*
X43418125Y-167322500D03*
X49768125Y-164782500D03*
D20*
X66278125Y-112712500D03*
D21*
X71358125Y-112712500D03*
X61198125Y-112712500D03*
D22*
X62468125Y-110172500D03*
X68818125Y-107632500D03*
D21*
X213598125Y-69850000D03*
D20*
X218678125Y-69850000D03*
D21*
X223758125Y-69850000D03*
D22*
X214868125Y-67310000D03*
X221218125Y-64770000D03*
D21*
X285670625Y-131762500D03*
D20*
X280590625Y-131762500D03*
D21*
X275510625Y-131762500D03*
D22*
X276780625Y-129222500D03*
X283130625Y-126682500D03*
D20*
X335359375Y-150812500D03*
D21*
X330279375Y-150812500D03*
X340439375Y-150812500D03*
D22*
X331549375Y-148272500D03*
X337899375Y-145732500D03*
D20*
X94853125Y-93662500D03*
D21*
X99933125Y-93662500D03*
X89773125Y-93662500D03*
D22*
X91043125Y-91122500D03*
X97393125Y-88582500D03*
D20*
X390128125Y-69850000D03*
D21*
X385048125Y-69850000D03*
X395208125Y-69850000D03*
D22*
X386318125Y-67310000D03*
X392668125Y-64770000D03*
D20*
X199628125Y-69850000D03*
D21*
X194548125Y-69850000D03*
X204708125Y-69850000D03*
D22*
X195818125Y-67310000D03*
X202168125Y-64770000D03*
D21*
X356473125Y-69850000D03*
D20*
X361553125Y-69850000D03*
D21*
X366633125Y-69850000D03*
D22*
X357743125Y-67310000D03*
X364093125Y-64770000D03*
D21*
X123110625Y-131762500D03*
X133270625Y-131762500D03*
D20*
X128190625Y-131762500D03*
D22*
X124380625Y-129222500D03*
X130730625Y-126682500D03*
D20*
X294878125Y-112712500D03*
D21*
X299958125Y-112712500D03*
X289798125Y-112712500D03*
D22*
X291068125Y-110172500D03*
X297418125Y-107632500D03*
D20*
X237728125Y-69850000D03*
D21*
X242808125Y-69850000D03*
X232648125Y-69850000D03*
D22*
X233918125Y-67310000D03*
X240268125Y-64770000D03*
D21*
X261858125Y-112712500D03*
X251698125Y-112712500D03*
D20*
X256778125Y-112712500D03*
D22*
X252968125Y-110172500D03*
X259318125Y-107632500D03*
D21*
X344566875Y-131762500D03*
X354726875Y-131762500D03*
D20*
X349646875Y-131762500D03*
D22*
X345836875Y-129222500D03*
X352186875Y-126682500D03*
D20*
X390128125Y-93662500D03*
D21*
X385048125Y-93662500D03*
X395208125Y-93662500D03*
D22*
X386318125Y-91122500D03*
X392668125Y-88582500D03*
D20*
X361553125Y-140017500D03*
X337740625Y-140017500D03*
D23*
X361553125Y-124777500D03*
X337740625Y-124777500D03*
D21*
X342185625Y-174625000D03*
D20*
X347265625Y-174625000D03*
D21*
X352345625Y-174625000D03*
D22*
X343455625Y-172085000D03*
X349805625Y-169545000D03*
D21*
X328533125Y-169862500D03*
D20*
X323453125Y-169862500D03*
D21*
X318373125Y-169862500D03*
D22*
X319643125Y-167322500D03*
X325993125Y-164782500D03*
D20*
X142478125Y-112712500D03*
D21*
X147558125Y-112712500D03*
X137398125Y-112712500D03*
D22*
X138668125Y-110172500D03*
X145018125Y-107632500D03*
D21*
X251698125Y-69850000D03*
D20*
X256778125Y-69850000D03*
D21*
X261858125Y-69850000D03*
D22*
X252968125Y-67310000D03*
X259318125Y-64770000D03*
D21*
X118348125Y-112712500D03*
X128508125Y-112712500D03*
D20*
X123428125Y-112712500D03*
D22*
X119618125Y-110172500D03*
X125968125Y-107632500D03*
D21*
X94535625Y-112712500D03*
X104695625Y-112712500D03*
D20*
X99615625Y-112712500D03*
D22*
X95805625Y-110172500D03*
X102155625Y-107632500D03*
D21*
X211216875Y-169862500D03*
D20*
X216296875Y-169862500D03*
D21*
X221376875Y-169862500D03*
D22*
X212486875Y-167322500D03*
X218836875Y-164782500D03*
D21*
X218360625Y-131762500D03*
X228520625Y-131762500D03*
D20*
X223440625Y-131762500D03*
D22*
X219630625Y-129222500D03*
X225980625Y-126682500D03*
D21*
X208835625Y-150812500D03*
X218995625Y-150812500D03*
D20*
X213915625Y-150812500D03*
D22*
X210105625Y-148272500D03*
X216455625Y-145732500D03*
D21*
X265985625Y-150812500D03*
D20*
X271065625Y-150812500D03*
D21*
X276145625Y-150812500D03*
D22*
X267255625Y-148272500D03*
X273605625Y-145732500D03*
D21*
X157083125Y-93662500D03*
X146923125Y-93662500D03*
D20*
X152003125Y-93662500D03*
D22*
X148193125Y-91122500D03*
X154543125Y-88582500D03*
D21*
X180895625Y-150812500D03*
X170735625Y-150812500D03*
D20*
X175815625Y-150812500D03*
D22*
X172005625Y-148272500D03*
X178355625Y-145732500D03*
D20*
X340121875Y-101917500D03*
D23*
X363934375Y-86677500D03*
D20*
X363934375Y-101917500D03*
D23*
X340121875Y-86677500D03*
D21*
X327898125Y-112712500D03*
X338058125Y-112712500D03*
D20*
X332978125Y-112712500D03*
D22*
X329168125Y-110172500D03*
X335518125Y-107632500D03*
D20*
X290115625Y-150812500D03*
D21*
X285035625Y-150812500D03*
X295195625Y-150812500D03*
D22*
X286305625Y-148272500D03*
X292655625Y-145732500D03*
D21*
X351710625Y-112712500D03*
X361870625Y-112712500D03*
D20*
X356790625Y-112712500D03*
D22*
X352980625Y-110172500D03*
X359330625Y-107632500D03*
D21*
X308848125Y-112712500D03*
D20*
X313928125Y-112712500D03*
D21*
X319008125Y-112712500D03*
D22*
X310118125Y-110172500D03*
X316468125Y-107632500D03*
D20*
X161528125Y-112712500D03*
D21*
X156448125Y-112712500D03*
X166608125Y-112712500D03*
D22*
X157718125Y-110172500D03*
X164068125Y-107632500D03*
D21*
X252333125Y-93662500D03*
D20*
X247253125Y-93662500D03*
D21*
X242173125Y-93662500D03*
D22*
X243443125Y-91122500D03*
X249793125Y-88582500D03*
D21*
X42148125Y-150812500D03*
D20*
X47228125Y-150812500D03*
D21*
X52308125Y-150812500D03*
D22*
X43418125Y-148272500D03*
X49768125Y-145732500D03*
D20*
X166290625Y-131762500D03*
D21*
X171370625Y-131762500D03*
X161210625Y-131762500D03*
D22*
X162480625Y-129222500D03*
X168830625Y-126682500D03*
D20*
X390128125Y-150812500D03*
D21*
X385048125Y-150812500D03*
X395208125Y-150812500D03*
D22*
X386318125Y-148272500D03*
X392668125Y-145732500D03*
D20*
X266303125Y-93662500D03*
D21*
X261223125Y-93662500D03*
X271383125Y-93662500D03*
D22*
X262493125Y-91122500D03*
X268843125Y-88582500D03*
D21*
X328533125Y-93662500D03*
D20*
X323453125Y-93662500D03*
D21*
X318373125Y-93662500D03*
D22*
X319643125Y-91122500D03*
X325993125Y-88582500D03*
D20*
X309165625Y-150812500D03*
D21*
X314245625Y-150812500D03*
X304085625Y-150812500D03*
D22*
X305355625Y-148272500D03*
X311705625Y-145732500D03*
D24*
X315800625Y-46256250D03*
X321580625Y-46256250D03*
D25*
X314370625Y-46786250D03*
D26*
X314370625Y-42606250D03*
D25*
X323010625Y-46786250D03*
D26*
X323010625Y-42606250D03*
D21*
X99933125Y-69850000D03*
X89773125Y-69850000D03*
D20*
X94853125Y-69850000D03*
D22*
X91043125Y-67310000D03*
X97393125Y-64770000D03*
D21*
X275510625Y-69850000D03*
D20*
X280590625Y-69850000D03*
D21*
X285670625Y-69850000D03*
D22*
X276780625Y-67310000D03*
X283130625Y-64770000D03*
D20*
X94853125Y-159067500D03*
D23*
X94853125Y-143827500D03*
D20*
X118665625Y-159067500D03*
D23*
X118665625Y-143827500D03*
D21*
X232648125Y-112712500D03*
X242808125Y-112712500D03*
D20*
X237728125Y-112712500D03*
D22*
X233918125Y-110172500D03*
X240268125Y-107632500D03*
D21*
X161845625Y-150812500D03*
D20*
X156765625Y-150812500D03*
D21*
X151685625Y-150812500D03*
D22*
X152955625Y-148272500D03*
X159305625Y-145732500D03*
D20*
X175815625Y-69850000D03*
D21*
X170735625Y-69850000D03*
X180895625Y-69850000D03*
D22*
X172005625Y-67310000D03*
X178355625Y-64770000D03*
D18*
X54315625Y-66675000D03*
X45315625Y-66675000D03*
D21*
X209470625Y-131762500D03*
X199310625Y-131762500D03*
D20*
X204390625Y-131762500D03*
D22*
X200580625Y-129222500D03*
X206930625Y-126682500D03*
D21*
X361235625Y-174625000D03*
X371395625Y-174625000D03*
D20*
X366315625Y-174625000D03*
D22*
X362505625Y-172085000D03*
X368855625Y-169545000D03*
D20*
X144859375Y-169862500D03*
D21*
X149939375Y-169862500D03*
X139779375Y-169862500D03*
D22*
X141049375Y-167322500D03*
X147399375Y-164782500D03*
D21*
X380285625Y-174625000D03*
X390445625Y-174625000D03*
D20*
X385365625Y-174625000D03*
D22*
X381555625Y-172085000D03*
X387905625Y-169545000D03*
D21*
X101679375Y-150812500D03*
D20*
X106759375Y-150812500D03*
D21*
X111839375Y-150812500D03*
D22*
X102949375Y-148272500D03*
X109299375Y-145732500D03*
D21*
X151685625Y-69850000D03*
X161845625Y-69850000D03*
D20*
X156765625Y-69850000D03*
D22*
X152955625Y-67310000D03*
X159305625Y-64770000D03*
D21*
X71358125Y-131762500D03*
X61198125Y-131762500D03*
D20*
X66278125Y-131762500D03*
D22*
X62468125Y-129222500D03*
X68818125Y-126682500D03*
D20*
X209153125Y-93662500D03*
D21*
X204073125Y-93662500D03*
X214233125Y-93662500D03*
D22*
X205343125Y-91122500D03*
X211693125Y-88582500D03*
D21*
X294560625Y-69850000D03*
D20*
X299640625Y-69850000D03*
D21*
X304720625Y-69850000D03*
D22*
X295830625Y-67310000D03*
X302180625Y-64770000D03*
D21*
X152320625Y-131762500D03*
D20*
X147240625Y-131762500D03*
D21*
X142160625Y-131762500D03*
D22*
X143430625Y-129222500D03*
X149780625Y-126682500D03*
D21*
X108823125Y-93662500D03*
X118983125Y-93662500D03*
D20*
X113903125Y-93662500D03*
D22*
X110093125Y-91122500D03*
X116443125Y-88582500D03*
D21*
X227885625Y-150812500D03*
X238045625Y-150812500D03*
D20*
X232965625Y-150812500D03*
D22*
X229155625Y-148272500D03*
X235505625Y-145732500D03*
D21*
X132635625Y-69850000D03*
X142795625Y-69850000D03*
D20*
X137715625Y-69850000D03*
D22*
X133905625Y-67310000D03*
X140255625Y-64770000D03*
D21*
X246935625Y-150812500D03*
D20*
X252015625Y-150812500D03*
D21*
X257095625Y-150812500D03*
D22*
X248205625Y-148272500D03*
X254555625Y-145732500D03*
D21*
X185023125Y-93662500D03*
D20*
X190103125Y-93662500D03*
D21*
X195183125Y-93662500D03*
D22*
X186293125Y-91122500D03*
X192643125Y-88582500D03*
D20*
X180578125Y-112712500D03*
D21*
X175498125Y-112712500D03*
X185658125Y-112712500D03*
D22*
X176768125Y-110172500D03*
X183118125Y-107632500D03*
D20*
X47228125Y-112712500D03*
D21*
X42148125Y-112712500D03*
X52308125Y-112712500D03*
D22*
X43418125Y-110172500D03*
X49768125Y-107632500D03*
D21*
X323770625Y-131762500D03*
X313610625Y-131762500D03*
D20*
X318690625Y-131762500D03*
D22*
X314880625Y-129222500D03*
X321230625Y-126682500D03*
D21*
X61198125Y-150812500D03*
D20*
X66278125Y-150812500D03*
D21*
X71358125Y-150812500D03*
D22*
X62468125Y-148272500D03*
X68818125Y-145732500D03*
D21*
X385048125Y-112712500D03*
X395208125Y-112712500D03*
D20*
X390128125Y-112712500D03*
D22*
X386318125Y-110172500D03*
X392668125Y-107632500D03*
D21*
X270748125Y-112712500D03*
X280908125Y-112712500D03*
D20*
X275828125Y-112712500D03*
D22*
X272018125Y-110172500D03*
X278368125Y-107632500D03*
D21*
X233283125Y-93662500D03*
X223123125Y-93662500D03*
D20*
X228203125Y-93662500D03*
D22*
X224393125Y-91122500D03*
X230743125Y-88582500D03*
M02*
