M48
; DRILL file {KiCad (6.0.11)} date Thu Feb 23 23:31:38 2023
; FORMAT={-:-/ absolute / metric / decimal}
; #@! TF.CreationDate,2023-02-23T23:31:38+07:00
; #@! TF.GenerationSoftware,Kicad,Pcbnew,(6.0.11)
; #@! TF.FileFunction,NonPlated,1,2,NPTH
FMAT,2
METRIC
; #@! TA.AperFunction,NonPlated,NPTH,ComponentDrill
T1C0.650
; #@! TA.AperFunction,NonPlated,NPTH,ComponentDrill
T2C1.750
; #@! TA.AperFunction,NonPlated,NPTH,ComponentDrill
T3C2.000
; #@! TA.AperFunction,NonPlated,NPTH,ComponentDrill
T4C3.988
%
G90
G05
T1
X315.801Y-46.256
X321.581Y-46.256
T2
X42.148Y-112.712
X42.148Y-131.762
X42.148Y-150.812
X42.148Y-169.862
X52.308Y-112.712
X52.308Y-131.762
X52.308Y-150.812
X52.308Y-169.862
X61.198Y-93.662
X61.198Y-112.712
X61.198Y-131.762
X61.198Y-150.812
X61.198Y-169.862
X71.358Y-93.662
X71.358Y-112.712
X71.358Y-131.762
X71.358Y-150.812
X71.358Y-169.862
X89.773Y-69.85
X89.773Y-93.662
X92.154Y-169.862
X94.536Y-112.712
X96.917Y-131.762
X99.933Y-69.85
X99.933Y-93.662
X101.679Y-150.812
X102.314Y-169.862
X104.696Y-112.712
X107.077Y-131.762
X108.823Y-93.662
X111.839Y-150.812
X113.586Y-69.85
X115.967Y-169.862
X118.348Y-112.712
X118.983Y-93.662
X123.111Y-131.762
X123.746Y-69.85
X126.127Y-169.862
X127.873Y-93.662
X128.508Y-112.712
X132.636Y-69.85
X132.636Y-150.812
X133.271Y-131.762
X137.398Y-112.712
X138.033Y-93.662
X139.779Y-169.862
X142.161Y-131.762
X142.796Y-69.85
X142.796Y-150.812
X146.923Y-93.662
X147.558Y-112.712
X149.939Y-169.862
X151.686Y-69.85
X151.686Y-150.812
X152.321Y-131.762
X156.448Y-112.712
X157.083Y-93.662
X161.211Y-131.762
X161.846Y-69.85
X161.846Y-150.812
X165.973Y-93.662
X166.608Y-112.712
X170.736Y-69.85
X170.736Y-150.812
X171.371Y-131.762
X175.498Y-112.712
X176.133Y-93.662
X180.261Y-131.762
X180.896Y-69.85
X180.896Y-150.812
X185.023Y-93.662
X185.658Y-112.712
X189.786Y-150.812
X190.421Y-131.762
X194.548Y-69.85
X194.548Y-112.712
X195.183Y-93.662
X199.311Y-131.762
X199.946Y-150.812
X204.073Y-93.662
X204.708Y-69.85
X204.708Y-112.712
X208.836Y-150.812
X209.471Y-131.762
X211.217Y-169.862
X213.598Y-69.85
X213.598Y-112.712
X214.233Y-93.662
X218.361Y-131.762
X218.996Y-150.812
X221.377Y-169.862
X223.123Y-93.662
X223.758Y-69.85
X223.758Y-112.712
X227.886Y-150.812
X228.521Y-131.762
X232.648Y-69.85
X232.648Y-112.712
X233.283Y-93.662
X237.411Y-131.762
X238.046Y-150.812
X242.173Y-93.662
X242.808Y-69.85
X242.808Y-112.712
X246.936Y-150.812
X247.571Y-131.762
X251.698Y-69.85
X251.698Y-112.712
X252.333Y-93.662
X256.461Y-131.762
X257.096Y-150.812
X261.223Y-93.662
X261.858Y-69.85
X261.858Y-112.712
X265.986Y-150.812
X266.621Y-131.762
X270.748Y-112.712
X271.383Y-93.662
X275.511Y-69.85
X275.511Y-131.762
X276.146Y-150.812
X280.273Y-93.662
X280.273Y-169.862
X280.908Y-112.712
X285.036Y-150.812
X285.671Y-69.85
X285.671Y-131.762
X289.798Y-112.712
X290.433Y-93.662
X290.433Y-169.862
X294.561Y-69.85
X294.561Y-131.762
X295.196Y-150.812
X299.323Y-93.662
X299.323Y-169.862
X299.958Y-112.712
X304.086Y-150.812
X304.721Y-69.85
X304.721Y-131.762
X308.848Y-112.712
X309.483Y-93.662
X309.483Y-169.862
X313.611Y-69.85
X313.611Y-131.762
X314.246Y-150.812
X318.373Y-93.662
X318.373Y-169.862
X319.008Y-112.712
X323.771Y-69.85
X323.771Y-131.762
X327.898Y-112.712
X328.533Y-93.662
X328.533Y-169.862
X330.279Y-150.812
X332.661Y-69.85
X338.058Y-112.712
X340.439Y-150.812
X342.186Y-174.625
X342.821Y-69.85
X344.567Y-131.762
X346.948Y-93.662
X351.711Y-112.712
X352.346Y-174.625
X354.727Y-131.762
X356.473Y-69.85
X357.108Y-93.662
X361.236Y-155.575
X361.236Y-174.625
X361.871Y-112.712
X366.633Y-69.85
X371.396Y-155.575
X371.396Y-174.625
X380.286Y-174.625
X385.048Y-69.85
X385.048Y-93.662
X385.048Y-112.712
X385.048Y-131.762
X385.048Y-150.812
X390.446Y-174.625
X395.208Y-69.85
X395.208Y-93.662
X395.208Y-112.712
X395.208Y-131.762
X395.208Y-150.812
T3
X45.316Y-66.675
X54.316Y-66.675
X61.191Y-66.675
X70.191Y-66.675
T4
X47.228Y-112.712
X47.228Y-131.762
X47.228Y-150.812
X47.228Y-169.862
X66.278Y-93.662
X66.278Y-93.662
X66.278Y-112.712
X66.278Y-131.762
X66.278Y-150.812
X66.278Y-169.862
X94.853Y-69.85
X94.853Y-93.662
X94.853Y-159.067
X97.234Y-169.862
X99.616Y-112.712
X101.997Y-131.762
X106.759Y-150.812
X113.903Y-93.662
X118.666Y-69.85
X118.666Y-159.067
X121.047Y-169.862
X123.428Y-112.712
X128.191Y-131.762
X132.953Y-93.662
X137.716Y-69.85
X137.716Y-150.812
X142.478Y-112.712
X144.859Y-169.862
X147.241Y-131.762
X152.003Y-93.662
X156.766Y-69.85
X156.766Y-150.812
X161.528Y-112.712
X166.291Y-131.762
X166.291Y-178.117
X171.053Y-93.662
X175.816Y-69.85
X175.816Y-150.812
X180.578Y-112.712
X185.341Y-131.762
X190.103Y-93.662
X194.866Y-150.812
X199.628Y-69.85
X199.628Y-112.712
X204.391Y-131.762
X209.153Y-93.662
X213.916Y-150.812
X216.297Y-169.862
X218.678Y-69.85
X218.678Y-112.712
X223.441Y-131.762
X228.203Y-93.662
X232.966Y-150.812
X237.728Y-69.85
X237.728Y-112.712
X242.491Y-131.762
X247.253Y-93.662
X252.016Y-150.812
X256.778Y-69.85
X256.778Y-112.712
X261.541Y-131.762
X266.303Y-93.662
X266.303Y-178.117
X271.066Y-150.812
X275.828Y-112.712
X280.591Y-69.85
X280.591Y-131.762
X285.353Y-93.662
X285.353Y-169.862
X290.116Y-150.812
X294.878Y-112.712
X299.641Y-69.85
X299.641Y-131.762
X304.403Y-93.662
X304.403Y-169.862
X309.166Y-150.812
X313.928Y-112.712
X318.691Y-69.85
X318.691Y-131.762
X323.453Y-93.662
X323.453Y-169.862
X332.978Y-112.712
X335.359Y-150.812
X337.741Y-69.85
X337.741Y-140.017
X340.122Y-101.917
X347.266Y-174.625
X349.647Y-131.762
X352.028Y-93.662
X356.791Y-112.712
X361.553Y-69.85
X361.553Y-140.017
X363.934Y-101.917
X366.316Y-155.575
X366.316Y-174.625
X385.366Y-174.625
X390.128Y-69.85
X390.128Y-93.662
X390.128Y-112.712
X390.128Y-131.762
X390.128Y-150.812
T0
M30
