G04 #@! TF.GenerationSoftware,KiCad,Pcbnew,(6.0.11)*
G04 #@! TF.CreationDate,2023-02-23T23:31:12+07:00*
G04 #@! TF.ProjectId,QCK,51434b2e-6b69-4636-9164-5f7063625858,rev?*
G04 #@! TF.SameCoordinates,Original*
G04 #@! TF.FileFunction,Paste,Bot*
G04 #@! TF.FilePolarity,Positive*
%FSLAX46Y46*%
G04 Gerber Fmt 4.6, Leading zero omitted, Abs format (unit mm)*
G04 Created by KiCad (PCBNEW (6.0.11)) date 2023-02-23 23:31:12*
%MOMM*%
%LPD*%
G01*
G04 APERTURE LIST*
G04 Aperture macros list*
%AMRoundRect*
0 Rectangle with rounded corners*
0 $1 Rounding radius*
0 $2 $3 $4 $5 $6 $7 $8 $9 X,Y pos of 4 corners*
0 Add a 4 corners polygon primitive as box body*
4,1,4,$2,$3,$4,$5,$6,$7,$8,$9,$2,$3,0*
0 Add four circle primitives for the rounded corners*
1,1,$1+$1,$2,$3*
1,1,$1+$1,$4,$5*
1,1,$1+$1,$6,$7*
1,1,$1+$1,$8,$9*
0 Add four rect primitives between the rounded corners*
20,1,$1+$1,$2,$3,$4,$5,0*
20,1,$1+$1,$4,$5,$6,$7,0*
20,1,$1+$1,$6,$7,$8,$9,0*
20,1,$1+$1,$8,$9,$2,$3,0*%
G04 Aperture macros list end*
%ADD10RoundRect,0.250000X0.450000X-0.325000X0.450000X0.325000X-0.450000X0.325000X-0.450000X-0.325000X0*%
%ADD11RoundRect,0.250000X1.025000X1.000000X-1.025000X1.000000X-1.025000X-1.000000X1.025000X-1.000000X0*%
%ADD12R,1.500000X2.000000*%
%ADD13R,2.000000X1.500000*%
%ADD14R,2.000000X3.800000*%
%ADD15RoundRect,0.075000X-0.700000X-0.075000X0.700000X-0.075000X0.700000X0.075000X-0.700000X0.075000X0*%
%ADD16RoundRect,0.075000X-0.075000X-0.700000X0.075000X-0.700000X0.075000X0.700000X-0.075000X0.700000X0*%
%ADD17RoundRect,0.250000X-0.450000X0.350000X-0.450000X-0.350000X0.450000X-0.350000X0.450000X0.350000X0*%
%ADD18RoundRect,0.250000X0.475000X-0.337500X0.475000X0.337500X-0.475000X0.337500X-0.475000X-0.337500X0*%
%ADD19RoundRect,0.250000X-0.350000X-0.450000X0.350000X-0.450000X0.350000X0.450000X-0.350000X0.450000X0*%
%ADD20R,0.600000X1.450000*%
%ADD21R,0.300000X1.450000*%
G04 APERTURE END LIST*
D10*
X366315625Y-182650000D03*
X366315625Y-180600000D03*
X199628125Y-120881250D03*
X199628125Y-118831250D03*
D11*
X297043125Y-91122500D03*
X310493125Y-88582500D03*
D10*
X390128125Y-158837500D03*
X390128125Y-156787500D03*
D11*
X330380625Y-67310000D03*
X343830625Y-64770000D03*
D10*
X121046875Y-177887500D03*
X121046875Y-175837500D03*
D11*
X277993125Y-91122500D03*
X291443125Y-88582500D03*
D10*
X137715625Y-158837500D03*
X137715625Y-156787500D03*
D11*
X125593125Y-91122500D03*
X139043125Y-88582500D03*
X130355625Y-148272500D03*
X143805625Y-145732500D03*
D10*
X356790625Y-120737500D03*
X356790625Y-118687500D03*
D12*
X63190625Y-73825000D03*
X63190625Y-59525000D03*
X68190625Y-73825000D03*
X68190625Y-59525000D03*
D11*
X277993125Y-167322500D03*
X291443125Y-164782500D03*
X89874375Y-167322500D03*
X103324375Y-164782500D03*
X163693125Y-91122500D03*
X177143125Y-88582500D03*
D10*
X366315625Y-163600000D03*
X366315625Y-161550000D03*
X47228125Y-158837500D03*
X47228125Y-156787500D03*
X318690625Y-139787500D03*
X318690625Y-137737500D03*
D11*
X192268125Y-110172500D03*
X205718125Y-107632500D03*
D10*
X218678125Y-120737500D03*
X218678125Y-118687500D03*
D11*
X344668125Y-91122500D03*
X358118125Y-88582500D03*
X39868125Y-129222500D03*
X53318125Y-126682500D03*
X58918125Y-91122500D03*
X72368125Y-88582500D03*
X94636875Y-129222500D03*
X108086875Y-126682500D03*
D10*
X275828125Y-120737500D03*
X275828125Y-118687500D03*
X252015625Y-158837500D03*
X252015625Y-156787500D03*
D11*
X382768125Y-129222500D03*
X396218125Y-126682500D03*
D10*
X66278125Y-120737500D03*
X66278125Y-118687500D03*
X349646875Y-139787500D03*
X349646875Y-137737500D03*
X242490625Y-139787500D03*
X242490625Y-137737500D03*
X204390625Y-139787500D03*
X204390625Y-137737500D03*
D11*
X297043125Y-167322500D03*
X310493125Y-164782500D03*
D10*
X123428125Y-120737500D03*
X123428125Y-118687500D03*
D11*
X111305625Y-67310000D03*
X124755625Y-64770000D03*
X311330625Y-67310000D03*
X324780625Y-64770000D03*
X113686875Y-167322500D03*
X127136875Y-164782500D03*
D10*
X309165625Y-158837500D03*
X309165625Y-156787500D03*
D11*
X358955625Y-153035000D03*
X372405625Y-150495000D03*
D10*
X94853125Y-77875000D03*
X94853125Y-75825000D03*
D11*
X187505625Y-148272500D03*
X200955625Y-145732500D03*
X58918125Y-167322500D03*
X72368125Y-164782500D03*
D10*
X285353125Y-101687500D03*
X285353125Y-99637500D03*
D11*
X211318125Y-110172500D03*
X224768125Y-107632500D03*
D10*
X285353125Y-177887500D03*
X285353125Y-175837500D03*
X218678125Y-77875000D03*
X218678125Y-75825000D03*
X390128125Y-77875000D03*
X390128125Y-75825000D03*
D11*
X292280625Y-129222500D03*
X305730625Y-126682500D03*
D10*
X337740625Y-77875000D03*
X337740625Y-75825000D03*
X106759375Y-158837500D03*
X106759375Y-156787500D03*
X237728125Y-120737500D03*
X237728125Y-118687500D03*
D11*
X177980625Y-129222500D03*
X191430625Y-126682500D03*
D13*
X236115625Y-168356250D03*
D14*
X229815625Y-170656250D03*
D13*
X236115625Y-170656250D03*
X236115625Y-172956250D03*
D11*
X235130625Y-129222500D03*
X248580625Y-126682500D03*
X254180625Y-129222500D03*
X267630625Y-126682500D03*
X39868125Y-167322500D03*
X53318125Y-164782500D03*
D10*
X147240625Y-139787500D03*
X147240625Y-137737500D03*
D11*
X58918125Y-110172500D03*
X72368125Y-107632500D03*
X211318125Y-67310000D03*
X224768125Y-64770000D03*
X273230625Y-129222500D03*
X286680625Y-126682500D03*
X327999375Y-148272500D03*
X341449375Y-145732500D03*
D15*
X181253125Y-173612500D03*
X181253125Y-173112500D03*
X181253125Y-172612500D03*
X181253125Y-172112500D03*
X181253125Y-171612500D03*
X181253125Y-171112500D03*
X181253125Y-170612500D03*
X181253125Y-170112500D03*
X181253125Y-169612500D03*
X181253125Y-169112500D03*
X181253125Y-168612500D03*
X181253125Y-168112500D03*
X181253125Y-167612500D03*
X181253125Y-167112500D03*
X181253125Y-166612500D03*
X181253125Y-166112500D03*
D16*
X183178125Y-164187500D03*
X183678125Y-164187500D03*
X184178125Y-164187500D03*
X184678125Y-164187500D03*
X185178125Y-164187500D03*
X185678125Y-164187500D03*
X186178125Y-164187500D03*
X186678125Y-164187500D03*
X187178125Y-164187500D03*
X187678125Y-164187500D03*
X188178125Y-164187500D03*
X188678125Y-164187500D03*
X189178125Y-164187500D03*
X189678125Y-164187500D03*
X190178125Y-164187500D03*
X190678125Y-164187500D03*
D15*
X192603125Y-166112500D03*
X192603125Y-166612500D03*
X192603125Y-167112500D03*
X192603125Y-167612500D03*
X192603125Y-168112500D03*
X192603125Y-168612500D03*
X192603125Y-169112500D03*
X192603125Y-169612500D03*
X192603125Y-170112500D03*
X192603125Y-170612500D03*
X192603125Y-171112500D03*
X192603125Y-171612500D03*
X192603125Y-172112500D03*
X192603125Y-172612500D03*
X192603125Y-173112500D03*
X192603125Y-173612500D03*
D16*
X190678125Y-175537500D03*
X190178125Y-175537500D03*
X189678125Y-175537500D03*
X189178125Y-175537500D03*
X188678125Y-175537500D03*
X188178125Y-175537500D03*
X187678125Y-175537500D03*
X187178125Y-175537500D03*
X186678125Y-175537500D03*
X186178125Y-175537500D03*
X185678125Y-175537500D03*
X185178125Y-175537500D03*
X184678125Y-175537500D03*
X184178125Y-175537500D03*
X183678125Y-175537500D03*
X183178125Y-175537500D03*
D10*
X101996875Y-139787500D03*
X101996875Y-137737500D03*
X66278125Y-177887500D03*
X66278125Y-175837500D03*
X156765625Y-158837500D03*
X156765625Y-156787500D03*
D17*
X253603125Y-172625000D03*
X253603125Y-174625000D03*
D10*
X228203125Y-101687500D03*
X228203125Y-99637500D03*
D11*
X87493125Y-91122500D03*
X100943125Y-88582500D03*
X382768125Y-67310000D03*
X396218125Y-64770000D03*
X192268125Y-67310000D03*
X205718125Y-64770000D03*
X354193125Y-67310000D03*
X367643125Y-64770000D03*
X120830625Y-129222500D03*
X134280625Y-126682500D03*
D10*
X137715625Y-77875000D03*
X137715625Y-75825000D03*
D11*
X287518125Y-110172500D03*
X300968125Y-107632500D03*
X230368125Y-67310000D03*
X243818125Y-64770000D03*
D10*
X299640625Y-77875000D03*
X299640625Y-75825000D03*
X180578125Y-120737500D03*
X180578125Y-118687500D03*
D11*
X249418125Y-110172500D03*
X262868125Y-107632500D03*
D10*
X390128125Y-139787500D03*
X390128125Y-137737500D03*
D11*
X342286875Y-129222500D03*
X355736875Y-126682500D03*
D10*
X280590625Y-139787500D03*
X280590625Y-137737500D03*
X294878125Y-120737500D03*
X294878125Y-118687500D03*
D18*
X253603125Y-168518750D03*
X253603125Y-166443750D03*
D11*
X382768125Y-91122500D03*
X396218125Y-88582500D03*
D17*
X258028125Y-172625000D03*
X258028125Y-174625000D03*
D10*
X304403125Y-177887500D03*
X304403125Y-175837500D03*
X323453125Y-177887500D03*
X323453125Y-175837500D03*
D11*
X339905625Y-172085000D03*
X353355625Y-169545000D03*
X316093125Y-167322500D03*
X329543125Y-164782500D03*
X135118125Y-110172500D03*
X148568125Y-107632500D03*
X249418125Y-67310000D03*
X262868125Y-64770000D03*
X116068125Y-110172500D03*
X129518125Y-107632500D03*
D10*
X390128125Y-101687500D03*
X390128125Y-99637500D03*
X161528125Y-120737500D03*
X161528125Y-118687500D03*
D11*
X92255625Y-110172500D03*
X105705625Y-107632500D03*
D10*
X144859375Y-177887500D03*
X144859375Y-175837500D03*
D11*
X208936875Y-167322500D03*
X222386875Y-164782500D03*
D10*
X175815625Y-158837500D03*
X175815625Y-156787500D03*
X313928125Y-120737500D03*
X313928125Y-118687500D03*
D11*
X216080625Y-129222500D03*
X229530625Y-126682500D03*
D10*
X66278125Y-101687500D03*
X66278125Y-99637500D03*
D18*
X246215625Y-174662500D03*
X246215625Y-172587500D03*
D10*
X352028125Y-101687500D03*
X352028125Y-99637500D03*
X152003125Y-101687500D03*
X152003125Y-99637500D03*
X299640625Y-139787500D03*
X299640625Y-137737500D03*
D11*
X206555625Y-148272500D03*
X220005625Y-145732500D03*
D10*
X142478125Y-120737500D03*
X142478125Y-118687500D03*
D18*
X249634375Y-168518750D03*
X249634375Y-166443750D03*
D11*
X263705625Y-148272500D03*
X277155625Y-145732500D03*
X144643125Y-91122500D03*
X158093125Y-88582500D03*
D10*
X97234375Y-177887500D03*
X97234375Y-175837500D03*
X156765625Y-77875000D03*
X156765625Y-75825000D03*
D11*
X168455625Y-148272500D03*
X181905625Y-145732500D03*
D10*
X194865625Y-158837500D03*
X194865625Y-156787500D03*
X94853125Y-101687500D03*
X94853125Y-99637500D03*
X271065625Y-158837500D03*
X271065625Y-156787500D03*
X256778125Y-77875000D03*
X256778125Y-75825000D03*
D11*
X325618125Y-110172500D03*
X339068125Y-107632500D03*
D10*
X318690625Y-77875000D03*
X318690625Y-75825000D03*
X190103125Y-101687500D03*
X190103125Y-99637500D03*
X237728125Y-77875000D03*
X237728125Y-75825000D03*
X113903125Y-101687500D03*
X113903125Y-99637500D03*
X66278125Y-158837500D03*
X66278125Y-156787500D03*
X256778125Y-120737500D03*
X256778125Y-118687500D03*
X66278125Y-139787500D03*
X66278125Y-137737500D03*
D11*
X282755625Y-148272500D03*
X296205625Y-145732500D03*
X349430625Y-110172500D03*
X362880625Y-107632500D03*
D10*
X335359375Y-158837500D03*
X335359375Y-156787500D03*
D11*
X306568125Y-110172500D03*
X320018125Y-107632500D03*
X154168125Y-110172500D03*
X167618125Y-107632500D03*
D19*
X65278125Y-77787500D03*
X67278125Y-77787500D03*
D11*
X239893125Y-91122500D03*
X253343125Y-88582500D03*
D10*
X213915625Y-158837500D03*
X213915625Y-156787500D03*
D11*
X39868125Y-148272500D03*
X53318125Y-145732500D03*
X158930625Y-129222500D03*
X172380625Y-126682500D03*
X382768125Y-148272500D03*
X396218125Y-145732500D03*
D10*
X232965625Y-158837500D03*
X232965625Y-156787500D03*
X185340625Y-139787500D03*
X185340625Y-137737500D03*
D11*
X258943125Y-91122500D03*
X272393125Y-88582500D03*
X316093125Y-91122500D03*
X329543125Y-88582500D03*
D18*
X257909375Y-168518750D03*
X257909375Y-166443750D03*
D11*
X301805625Y-148272500D03*
X315255625Y-145732500D03*
D20*
X315440625Y-47701250D03*
X316240625Y-47701250D03*
D21*
X317440625Y-47701250D03*
X318440625Y-47701250D03*
X318940625Y-47701250D03*
X319940625Y-47701250D03*
D20*
X321140625Y-47701250D03*
X321940625Y-47701250D03*
X321940625Y-47701250D03*
X321140625Y-47701250D03*
D21*
X320440625Y-47701250D03*
X319440625Y-47701250D03*
X317940625Y-47701250D03*
X316940625Y-47701250D03*
D20*
X316240625Y-47701250D03*
X315440625Y-47701250D03*
D11*
X87493125Y-67310000D03*
X100943125Y-64770000D03*
D19*
X48815625Y-77787500D03*
X50815625Y-77787500D03*
D11*
X273230625Y-67310000D03*
X286680625Y-64770000D03*
D18*
X242490625Y-174662500D03*
X242490625Y-172587500D03*
D10*
X171053125Y-101687500D03*
X171053125Y-99637500D03*
X347265625Y-182650000D03*
X347265625Y-180600000D03*
D11*
X230368125Y-110172500D03*
X243818125Y-107632500D03*
X149405625Y-148272500D03*
X162855625Y-145732500D03*
X168455625Y-67310000D03*
X181905625Y-64770000D03*
D10*
X290115625Y-158837500D03*
X290115625Y-156787500D03*
D12*
X47315625Y-73825000D03*
X47315625Y-59525000D03*
X52315625Y-73825000D03*
X52315625Y-59525000D03*
D10*
X304403125Y-101687500D03*
X304403125Y-99637500D03*
D18*
X242490625Y-168518750D03*
X242490625Y-166443750D03*
D11*
X197030625Y-129222500D03*
X210480625Y-126682500D03*
X358955625Y-172085000D03*
X372405625Y-169545000D03*
X137499375Y-167322500D03*
X150949375Y-164782500D03*
D10*
X247253125Y-101687500D03*
X247253125Y-99637500D03*
X216296875Y-177887500D03*
X216296875Y-175837500D03*
X385365625Y-182650000D03*
X385365625Y-180600000D03*
X332978125Y-120737500D03*
X332978125Y-118687500D03*
D11*
X378005625Y-172085000D03*
X391455625Y-169545000D03*
X99399375Y-148272500D03*
X112849375Y-145732500D03*
D10*
X323453125Y-101687500D03*
X323453125Y-99637500D03*
D11*
X149405625Y-67310000D03*
X162855625Y-64770000D03*
D10*
X128190625Y-139787500D03*
X128190625Y-137737500D03*
X132953125Y-101687500D03*
X132953125Y-99637500D03*
X209153125Y-101687500D03*
X209153125Y-99637500D03*
D11*
X58918125Y-129222500D03*
X72368125Y-126682500D03*
D10*
X99615625Y-120737500D03*
X99615625Y-118687500D03*
X280590625Y-77875000D03*
X280590625Y-75825000D03*
X261540625Y-139787500D03*
X261540625Y-137737500D03*
X390128125Y-120737500D03*
X390128125Y-118687500D03*
D11*
X201793125Y-91122500D03*
X215243125Y-88582500D03*
X292280625Y-67310000D03*
X305730625Y-64770000D03*
D10*
X166290625Y-139787500D03*
X166290625Y-137737500D03*
D11*
X139880625Y-129222500D03*
X153330625Y-126682500D03*
X106543125Y-91122500D03*
X119993125Y-88582500D03*
X225605625Y-148272500D03*
X239055625Y-145732500D03*
D10*
X47228125Y-120737500D03*
X47228125Y-118687500D03*
X199628125Y-77875000D03*
X199628125Y-75825000D03*
D11*
X130355625Y-67310000D03*
X143805625Y-64770000D03*
D18*
X245953125Y-168518750D03*
X245953125Y-166443750D03*
D11*
X244655625Y-148272500D03*
X258105625Y-145732500D03*
X182743125Y-91122500D03*
X196193125Y-88582500D03*
X173218125Y-110172500D03*
X186668125Y-107632500D03*
D10*
X47228125Y-177887500D03*
X47228125Y-175837500D03*
D11*
X39868125Y-110172500D03*
X53318125Y-107632500D03*
X311330625Y-129222500D03*
X324780625Y-126682500D03*
X58918125Y-148272500D03*
X72368125Y-145732500D03*
X382768125Y-110172500D03*
X396218125Y-107632500D03*
X268468125Y-110172500D03*
X281918125Y-107632500D03*
D10*
X266303125Y-101687500D03*
X266303125Y-99637500D03*
X175815625Y-77875000D03*
X175815625Y-75825000D03*
X361553125Y-77875000D03*
X361553125Y-75825000D03*
D11*
X220843125Y-91122500D03*
X234293125Y-88582500D03*
D10*
X223440625Y-139787500D03*
X223440625Y-137737500D03*
X118665625Y-77875000D03*
X118665625Y-75825000D03*
X47228125Y-139787500D03*
X47228125Y-137737500D03*
M02*
