G04 #@! TF.GenerationSoftware,KiCad,Pcbnew,(6.0.11)*
G04 #@! TF.CreationDate,2023-03-01T19:49:01+07:00*
G04 #@! TF.ProjectId,QCK,51434b2e-6b69-4636-9164-5f7063625858,rev?*
G04 #@! TF.SameCoordinates,Original*
G04 #@! TF.FileFunction,Soldermask,Top*
G04 #@! TF.FilePolarity,Negative*
%FSLAX46Y46*%
G04 Gerber Fmt 4.6, Leading zero omitted, Abs format (unit mm)*
G04 Created by KiCad (PCBNEW (6.0.11)) date 2023-03-01 19:49:01*
%MOMM*%
%LPD*%
G01*
G04 APERTURE LIST*
%ADD10R,1.700000X1.700000*%
%ADD11O,1.700000X1.700000*%
%ADD12C,1.700000*%
%ADD13C,4.800000*%
%ADD14R,2.000000X2.000000*%
%ADD15C,2.000000*%
%ADD16R,3.200000X2.000000*%
%ADD17C,3.987800*%
%ADD18C,1.750000*%
%ADD19C,3.300000*%
%ADD20C,4.000000*%
%ADD21C,0.650000*%
%ADD22O,1.000000X2.100000*%
%ADD23O,1.000000X1.600000*%
G04 APERTURE END LIST*
D10*
X22778125Y-3833743D03*
D11*
X25318125Y-3833743D03*
X27858125Y-3833743D03*
D12*
X30398125Y-3833743D03*
D13*
X11388125Y-4333743D03*
X41888125Y-4333743D03*
X11388125Y-32933743D03*
X41888125Y-32933743D03*
D10*
X63810000Y-3966243D03*
D11*
X61270000Y-3966243D03*
X58730000Y-3966243D03*
X56190000Y-3966243D03*
X53650000Y-3966243D03*
D10*
X84928750Y-3966243D03*
D11*
X82388750Y-3966243D03*
X79848750Y-3966243D03*
D14*
X8622500Y-43534993D03*
D15*
X8622500Y-48534993D03*
X8622500Y-46034993D03*
D16*
X16122500Y-40434993D03*
X16122500Y-51634993D03*
D15*
X23122500Y-48534993D03*
X23122500Y-43534993D03*
D17*
X273047500Y-46034993D03*
D18*
X267967500Y-46034993D03*
X278127500Y-46034993D03*
D19*
X269237500Y-43494993D03*
X275587500Y-40954993D03*
D18*
X311465000Y-22222493D03*
X301305000Y-22222493D03*
D17*
X306385000Y-22222493D03*
D19*
X302575000Y-19682493D03*
X308925000Y-17142493D03*
D18*
X248917500Y-46034993D03*
D17*
X253997500Y-46034993D03*
D18*
X259077500Y-46034993D03*
D19*
X250187500Y-43494993D03*
X256537500Y-40954993D03*
D18*
X96517500Y-46034993D03*
D17*
X101597500Y-46034993D03*
D18*
X106677500Y-46034993D03*
D19*
X97787500Y-43494993D03*
X104137500Y-40954993D03*
D18*
X111440000Y-103184993D03*
X101280000Y-103184993D03*
D17*
X106360000Y-103184993D03*
D19*
X102550000Y-100644993D03*
X108900000Y-98104993D03*
D18*
X248917500Y-122234993D03*
D17*
X253997500Y-122234993D03*
D18*
X259077500Y-122234993D03*
D19*
X250187500Y-119694993D03*
X256537500Y-117154993D03*
D17*
X65878750Y-122234993D03*
D18*
X70958750Y-122234993D03*
X60798750Y-122234993D03*
D19*
X62068750Y-119694993D03*
X68418750Y-117154993D03*
D17*
X139697500Y-46034993D03*
D18*
X144777500Y-46034993D03*
X134617500Y-46034993D03*
D19*
X135887500Y-43494993D03*
X142237500Y-40954993D03*
D18*
X163192500Y-65084993D03*
X173352500Y-65084993D03*
D17*
X168272500Y-65084993D03*
D19*
X164462500Y-62544993D03*
X170812500Y-60004993D03*
D18*
X325752500Y-46034993D03*
D17*
X320672500Y-46034993D03*
D18*
X315592500Y-46034993D03*
D19*
X316862500Y-43494993D03*
X323212500Y-40954993D03*
D18*
X10792500Y-84134993D03*
D17*
X15872500Y-84134993D03*
D18*
X20952500Y-84134993D03*
D19*
X12062500Y-81594993D03*
X18412500Y-79054993D03*
D17*
X34922500Y-46034993D03*
D18*
X29842500Y-46034993D03*
X40002500Y-46034993D03*
D17*
X34922500Y-46034993D03*
D19*
X31112500Y-43494993D03*
X37462500Y-40954993D03*
D18*
X75721250Y-84134993D03*
X65561250Y-84134993D03*
D17*
X70641250Y-84134993D03*
D19*
X66831250Y-81594993D03*
X73181250Y-79054993D03*
D18*
X353692500Y-84134993D03*
X363852500Y-84134993D03*
D17*
X358772500Y-84134993D03*
D19*
X354962500Y-81594993D03*
X361312500Y-79054993D03*
D20*
X134935000Y-115249993D03*
D17*
X234947500Y-130489993D03*
D20*
X234947500Y-115249993D03*
D17*
X134935000Y-130489993D03*
X273047500Y-122234993D03*
D18*
X278127500Y-122234993D03*
X267967500Y-122234993D03*
D19*
X269237500Y-119694993D03*
X275587500Y-117154993D03*
D17*
X87310000Y-22222493D03*
D18*
X92390000Y-22222493D03*
X82230000Y-22222493D03*
D19*
X83500000Y-19682493D03*
X89850000Y-17142493D03*
D18*
X282255000Y-22222493D03*
D17*
X287335000Y-22222493D03*
D18*
X292415000Y-22222493D03*
D19*
X283525000Y-19682493D03*
X289875000Y-17142493D03*
D17*
X89691250Y-122234993D03*
D18*
X94771250Y-122234993D03*
X84611250Y-122234993D03*
D19*
X85881250Y-119694993D03*
X92231250Y-117154993D03*
D18*
X329880000Y-107947493D03*
X340040000Y-107947493D03*
D17*
X334960000Y-107947493D03*
D19*
X331150000Y-105407493D03*
X337500000Y-102867493D03*
D17*
X163510000Y-103184993D03*
D18*
X168590000Y-103184993D03*
X158430000Y-103184993D03*
D19*
X159700000Y-100644993D03*
X166050000Y-98104993D03*
D18*
X40002500Y-122234993D03*
D17*
X34922500Y-122234993D03*
D18*
X29842500Y-122234993D03*
D19*
X31112500Y-119694993D03*
X37462500Y-117154993D03*
D17*
X187322500Y-65084993D03*
D18*
X182242500Y-65084993D03*
X192402500Y-65084993D03*
D19*
X183512500Y-62544993D03*
X189862500Y-60004993D03*
D18*
X263205000Y-84134993D03*
X273365000Y-84134993D03*
D17*
X268285000Y-84134993D03*
D19*
X264475000Y-81594993D03*
X270825000Y-79054993D03*
D18*
X148905000Y-84134993D03*
X159065000Y-84134993D03*
D17*
X153985000Y-84134993D03*
D19*
X150175000Y-81594993D03*
X156525000Y-79054993D03*
D17*
X211135000Y-84134993D03*
D18*
X206055000Y-84134993D03*
X216215000Y-84134993D03*
D19*
X207325000Y-81594993D03*
X213675000Y-79054993D03*
D18*
X225105000Y-84134993D03*
D17*
X230185000Y-84134993D03*
D18*
X235265000Y-84134993D03*
D19*
X226375000Y-81594993D03*
X232725000Y-79054993D03*
D18*
X20952500Y-122234993D03*
X10792500Y-122234993D03*
D17*
X15872500Y-122234993D03*
D19*
X12062500Y-119694993D03*
X18412500Y-117154993D03*
D17*
X34922500Y-65084993D03*
D18*
X40002500Y-65084993D03*
X29842500Y-65084993D03*
D19*
X31112500Y-62544993D03*
X37462500Y-60004993D03*
D18*
X182242500Y-22222493D03*
D17*
X187322500Y-22222493D03*
D18*
X192402500Y-22222493D03*
D19*
X183512500Y-19682493D03*
X189862500Y-17142493D03*
D18*
X254315000Y-84134993D03*
D17*
X249235000Y-84134993D03*
D18*
X244155000Y-84134993D03*
D19*
X245425000Y-81594993D03*
X251775000Y-79054993D03*
D17*
X304003750Y-103184993D03*
D18*
X298923750Y-103184993D03*
X309083750Y-103184993D03*
D19*
X300193750Y-100644993D03*
X306543750Y-98104993D03*
D17*
X63497500Y-46034993D03*
D18*
X68577500Y-46034993D03*
X58417500Y-46034993D03*
D19*
X59687500Y-43494993D03*
X66037500Y-40954993D03*
D17*
X358772500Y-22222493D03*
D18*
X353692500Y-22222493D03*
X363852500Y-22222493D03*
D19*
X354962500Y-19682493D03*
X361312500Y-17142493D03*
D17*
X168272500Y-22222493D03*
D18*
X163192500Y-22222493D03*
X173352500Y-22222493D03*
D19*
X164462500Y-19682493D03*
X170812500Y-17142493D03*
D18*
X325117500Y-22222493D03*
D17*
X330197500Y-22222493D03*
D18*
X335277500Y-22222493D03*
D19*
X326387500Y-19682493D03*
X332737500Y-17142493D03*
D18*
X91755000Y-84134993D03*
X101915000Y-84134993D03*
D17*
X96835000Y-84134993D03*
D19*
X93025000Y-81594993D03*
X99375000Y-79054993D03*
D17*
X263522500Y-65084993D03*
D18*
X268602500Y-65084993D03*
X258442500Y-65084993D03*
D19*
X259712500Y-62544993D03*
X266062500Y-60004993D03*
D17*
X206372500Y-22222493D03*
D18*
X211452500Y-22222493D03*
X201292500Y-22222493D03*
D19*
X202562500Y-19682493D03*
X208912500Y-17142493D03*
D18*
X230502500Y-65084993D03*
X220342500Y-65084993D03*
D17*
X225422500Y-65084993D03*
D19*
X221612500Y-62544993D03*
X227962500Y-60004993D03*
D18*
X313211250Y-84134993D03*
X323371250Y-84134993D03*
D17*
X318291250Y-84134993D03*
D19*
X314481250Y-81594993D03*
X320831250Y-79054993D03*
D17*
X358772500Y-46034993D03*
D18*
X353692500Y-46034993D03*
X363852500Y-46034993D03*
D19*
X354962500Y-43494993D03*
X361312500Y-40954993D03*
D17*
X330197500Y-92389993D03*
X306385000Y-92389993D03*
D20*
X330197500Y-77149993D03*
X306385000Y-77149993D03*
D18*
X310830000Y-126997493D03*
D17*
X315910000Y-126997493D03*
D18*
X320990000Y-126997493D03*
D19*
X312100000Y-124457493D03*
X318450000Y-121917493D03*
D18*
X297177500Y-122234993D03*
D17*
X292097500Y-122234993D03*
D18*
X287017500Y-122234993D03*
D19*
X288287500Y-119694993D03*
X294637500Y-117154993D03*
D17*
X111122500Y-65084993D03*
D18*
X116202500Y-65084993D03*
X106042500Y-65084993D03*
D19*
X107312500Y-62544993D03*
X113662500Y-60004993D03*
D18*
X220342500Y-22222493D03*
D17*
X225422500Y-22222493D03*
D18*
X230502500Y-22222493D03*
D19*
X221612500Y-19682493D03*
X227962500Y-17142493D03*
D18*
X86992500Y-65084993D03*
X97152500Y-65084993D03*
D17*
X92072500Y-65084993D03*
D19*
X88262500Y-62544993D03*
X94612500Y-60004993D03*
D18*
X63180000Y-65084993D03*
X73340000Y-65084993D03*
D17*
X68260000Y-65084993D03*
D19*
X64450000Y-62544993D03*
X70800000Y-60004993D03*
D18*
X179861250Y-122234993D03*
D17*
X184941250Y-122234993D03*
D18*
X190021250Y-122234993D03*
D19*
X181131250Y-119694993D03*
X187481250Y-117154993D03*
D18*
X187005000Y-84134993D03*
X197165000Y-84134993D03*
D17*
X192085000Y-84134993D03*
D19*
X188275000Y-81594993D03*
X194625000Y-79054993D03*
D18*
X177480000Y-103184993D03*
X187640000Y-103184993D03*
D17*
X182560000Y-103184993D03*
D19*
X178750000Y-100644993D03*
X185100000Y-98104993D03*
D18*
X234630000Y-103184993D03*
D17*
X239710000Y-103184993D03*
D18*
X244790000Y-103184993D03*
D19*
X235900000Y-100644993D03*
X242250000Y-98104993D03*
D18*
X125727500Y-46034993D03*
X115567500Y-46034993D03*
D17*
X120647500Y-46034993D03*
D19*
X116837500Y-43494993D03*
X123187500Y-40954993D03*
D18*
X149540000Y-103184993D03*
X139380000Y-103184993D03*
D17*
X144460000Y-103184993D03*
D19*
X140650000Y-100644993D03*
X147000000Y-98104993D03*
D17*
X308766250Y-54289993D03*
D20*
X332578750Y-39049993D03*
D17*
X332578750Y-54289993D03*
D20*
X308766250Y-39049993D03*
D18*
X296542500Y-65084993D03*
X306702500Y-65084993D03*
D17*
X301622500Y-65084993D03*
D19*
X297812500Y-62544993D03*
X304162500Y-60004993D03*
D17*
X258760000Y-103184993D03*
D18*
X253680000Y-103184993D03*
X263840000Y-103184993D03*
D19*
X254950000Y-100644993D03*
X261300000Y-98104993D03*
D18*
X320355000Y-65084993D03*
X330515000Y-65084993D03*
D17*
X325435000Y-65084993D03*
D19*
X321625000Y-62544993D03*
X327975000Y-60004993D03*
D18*
X277492500Y-65084993D03*
D17*
X282572500Y-65084993D03*
D18*
X287652500Y-65084993D03*
D19*
X278762500Y-62544993D03*
X285112500Y-60004993D03*
D17*
X130172500Y-65084993D03*
D18*
X125092500Y-65084993D03*
X135252500Y-65084993D03*
D19*
X126362500Y-62544993D03*
X132712500Y-60004993D03*
D18*
X220977500Y-46034993D03*
D17*
X215897500Y-46034993D03*
D18*
X210817500Y-46034993D03*
D19*
X212087500Y-43494993D03*
X218437500Y-40954993D03*
D18*
X10792500Y-103184993D03*
D17*
X15872500Y-103184993D03*
D18*
X20952500Y-103184993D03*
D19*
X12062500Y-100644993D03*
X18412500Y-98104993D03*
D17*
X134935000Y-84134993D03*
D18*
X140015000Y-84134993D03*
X129855000Y-84134993D03*
D19*
X131125000Y-81594993D03*
X137475000Y-79054993D03*
D17*
X358772500Y-103184993D03*
D18*
X353692500Y-103184993D03*
X363852500Y-103184993D03*
D19*
X354962500Y-100644993D03*
X361312500Y-98104993D03*
D17*
X234947500Y-46034993D03*
D18*
X229867500Y-46034993D03*
X240027500Y-46034993D03*
D19*
X231137500Y-43494993D03*
X237487500Y-40954993D03*
D18*
X297177500Y-46034993D03*
D17*
X292097500Y-46034993D03*
D18*
X287017500Y-46034993D03*
D19*
X288287500Y-43494993D03*
X294637500Y-40954993D03*
D17*
X277810000Y-103184993D03*
D18*
X282890000Y-103184993D03*
X272730000Y-103184993D03*
D19*
X274000000Y-100644993D03*
X280350000Y-98104993D03*
D21*
X284445000Y1371257D03*
X290225000Y1371257D03*
D22*
X283015000Y841257D03*
D23*
X283015000Y5021257D03*
D22*
X291655000Y841257D03*
D23*
X291655000Y5021257D03*
D18*
X68577500Y-22222493D03*
X58417500Y-22222493D03*
D17*
X63497500Y-22222493D03*
D19*
X59687500Y-19682493D03*
X66037500Y-17142493D03*
D18*
X244155000Y-22222493D03*
D17*
X249235000Y-22222493D03*
D18*
X254315000Y-22222493D03*
D19*
X245425000Y-19682493D03*
X251775000Y-17142493D03*
D17*
X63497500Y-111439993D03*
D20*
X63497500Y-96199993D03*
D17*
X87310000Y-111439993D03*
D20*
X87310000Y-96199993D03*
D18*
X201292500Y-65084993D03*
X211452500Y-65084993D03*
D17*
X206372500Y-65084993D03*
D19*
X202562500Y-62544993D03*
X208912500Y-60004993D03*
D18*
X130490000Y-103184993D03*
D17*
X125410000Y-103184993D03*
D18*
X120330000Y-103184993D03*
D19*
X121600000Y-100644993D03*
X127950000Y-98104993D03*
D17*
X144460000Y-22222493D03*
D18*
X139380000Y-22222493D03*
X149540000Y-22222493D03*
D19*
X140650000Y-19682493D03*
X147000000Y-17142493D03*
D18*
X178115000Y-84134993D03*
X167955000Y-84134993D03*
D17*
X173035000Y-84134993D03*
D19*
X169225000Y-81594993D03*
X175575000Y-79054993D03*
D18*
X329880000Y-126997493D03*
X340040000Y-126997493D03*
D17*
X334960000Y-126997493D03*
D19*
X331150000Y-124457493D03*
X337500000Y-121917493D03*
D17*
X113503750Y-122234993D03*
D18*
X118583750Y-122234993D03*
X108423750Y-122234993D03*
D19*
X109693750Y-119694993D03*
X116043750Y-117154993D03*
D18*
X348930000Y-126997493D03*
X359090000Y-126997493D03*
D17*
X354010000Y-126997493D03*
D19*
X350200000Y-124457493D03*
X356550000Y-121917493D03*
D18*
X70323750Y-103184993D03*
D17*
X75403750Y-103184993D03*
D18*
X80483750Y-103184993D03*
D19*
X71593750Y-100644993D03*
X77943750Y-98104993D03*
D18*
X120330000Y-22222493D03*
X130490000Y-22222493D03*
D17*
X125410000Y-22222493D03*
D19*
X121600000Y-19682493D03*
X127950000Y-17142493D03*
D18*
X40002500Y-84134993D03*
X29842500Y-84134993D03*
D17*
X34922500Y-84134993D03*
D19*
X31112500Y-81594993D03*
X37462500Y-79054993D03*
D17*
X177797500Y-46034993D03*
D18*
X172717500Y-46034993D03*
X182877500Y-46034993D03*
D19*
X173987500Y-43494993D03*
X180337500Y-40954993D03*
D18*
X263205000Y-22222493D03*
D17*
X268285000Y-22222493D03*
D18*
X273365000Y-22222493D03*
D19*
X264475000Y-19682493D03*
X270825000Y-17142493D03*
D18*
X120965000Y-84134993D03*
D17*
X115885000Y-84134993D03*
D18*
X110805000Y-84134993D03*
D19*
X112075000Y-81594993D03*
X118425000Y-79054993D03*
D18*
X77467500Y-46034993D03*
X87627500Y-46034993D03*
D17*
X82547500Y-46034993D03*
D19*
X78737500Y-43494993D03*
X85087500Y-40954993D03*
D18*
X196530000Y-103184993D03*
X206690000Y-103184993D03*
D17*
X201610000Y-103184993D03*
D19*
X197800000Y-100644993D03*
X204150000Y-98104993D03*
D18*
X101280000Y-22222493D03*
X111440000Y-22222493D03*
D17*
X106360000Y-22222493D03*
D19*
X102550000Y-19682493D03*
X108900000Y-17142493D03*
D18*
X215580000Y-103184993D03*
D17*
X220660000Y-103184993D03*
D18*
X225740000Y-103184993D03*
D19*
X216850000Y-100644993D03*
X223200000Y-98104993D03*
D18*
X153667500Y-46034993D03*
D17*
X158747500Y-46034993D03*
D18*
X163827500Y-46034993D03*
D19*
X154937500Y-43494993D03*
X161287500Y-40954993D03*
D17*
X149222500Y-65084993D03*
D18*
X144142500Y-65084993D03*
X154302500Y-65084993D03*
D19*
X145412500Y-62544993D03*
X151762500Y-60004993D03*
D17*
X15872500Y-65084993D03*
D18*
X10792500Y-65084993D03*
X20952500Y-65084993D03*
D19*
X12062500Y-62544993D03*
X18412500Y-60004993D03*
D18*
X292415000Y-84134993D03*
X282255000Y-84134993D03*
D17*
X287335000Y-84134993D03*
D19*
X283525000Y-81594993D03*
X289875000Y-79054993D03*
D18*
X29842500Y-103184993D03*
D17*
X34922500Y-103184993D03*
D18*
X40002500Y-103184993D03*
D19*
X31112500Y-100644993D03*
X37462500Y-98104993D03*
D18*
X353692500Y-65084993D03*
X363852500Y-65084993D03*
D17*
X358772500Y-65084993D03*
D19*
X354962500Y-62544993D03*
X361312500Y-60004993D03*
D18*
X239392500Y-65084993D03*
X249552500Y-65084993D03*
D17*
X244472500Y-65084993D03*
D19*
X240662500Y-62544993D03*
X247012500Y-60004993D03*
D18*
X201927500Y-46034993D03*
X191767500Y-46034993D03*
D17*
X196847500Y-46034993D03*
D19*
X193037500Y-43494993D03*
X199387500Y-40954993D03*
M02*
