M48
; DRILL file {KiCad (6.0.11)} date Wed Mar  1 19:49:16 2023
; FORMAT={-:-/ absolute / metric / decimal}
; #@! TF.CreationDate,2023-03-01T19:49:16+07:00
; #@! TF.GenerationSoftware,Kicad,Pcbnew,(6.0.11)
; #@! TF.FileFunction,NonPlated,1,2,NPTH
FMAT,2
METRIC
; #@! TA.AperFunction,NonPlated,NPTH,ComponentDrill
T1C0.650
; #@! TA.AperFunction,NonPlated,NPTH,ComponentDrill
T2C1.750
; #@! TA.AperFunction,NonPlated,NPTH,ComponentDrill
T3C3.988
%
G90
G05
T1
X284.445Y1.371
X290.225Y1.371
T2
X10.792Y-65.085
X10.792Y-84.135
X10.792Y-103.185
X10.792Y-122.235
X20.953Y-65.085
X20.953Y-84.135
X20.953Y-103.185
X20.953Y-122.235
X29.842Y-46.035
X29.842Y-65.085
X29.842Y-84.135
X29.842Y-103.185
X29.842Y-122.235
X40.002Y-46.035
X40.002Y-65.085
X40.002Y-84.135
X40.002Y-103.185
X40.002Y-122.235
X58.417Y-22.222
X58.417Y-46.035
X60.799Y-122.235
X63.18Y-65.085
X65.561Y-84.135
X68.578Y-22.222
X68.578Y-46.035
X70.324Y-103.185
X70.959Y-122.235
X73.34Y-65.085
X75.721Y-84.135
X77.468Y-46.035
X80.484Y-103.185
X82.23Y-22.222
X84.611Y-122.235
X86.992Y-65.085
X87.627Y-46.035
X91.755Y-84.135
X92.39Y-22.222
X94.771Y-122.235
X96.517Y-46.035
X97.152Y-65.085
X101.28Y-22.222
X101.28Y-103.185
X101.915Y-84.135
X106.042Y-65.085
X106.677Y-46.035
X108.424Y-122.235
X110.805Y-84.135
X111.44Y-22.222
X111.44Y-103.185
X115.567Y-46.035
X116.203Y-65.085
X118.584Y-122.235
X120.33Y-22.222
X120.33Y-103.185
X120.965Y-84.135
X125.093Y-65.085
X125.727Y-46.035
X129.855Y-84.135
X130.49Y-22.222
X130.49Y-103.185
X134.618Y-46.035
X135.252Y-65.085
X139.38Y-22.222
X139.38Y-103.185
X140.015Y-84.135
X144.142Y-65.085
X144.778Y-46.035
X148.905Y-84.135
X149.54Y-22.222
X149.54Y-103.185
X153.667Y-46.035
X154.302Y-65.085
X158.43Y-103.185
X159.065Y-84.135
X163.192Y-22.222
X163.192Y-65.085
X163.827Y-46.035
X167.955Y-84.135
X168.59Y-103.185
X172.718Y-46.035
X173.352Y-22.222
X173.352Y-65.085
X177.48Y-103.185
X178.115Y-84.135
X179.861Y-122.235
X182.242Y-22.222
X182.242Y-65.085
X182.877Y-46.035
X187.005Y-84.135
X187.64Y-103.185
X190.021Y-122.235
X191.767Y-46.035
X192.403Y-22.222
X192.403Y-65.085
X196.53Y-103.185
X197.165Y-84.135
X201.292Y-22.222
X201.292Y-65.085
X201.927Y-46.035
X206.055Y-84.135
X206.69Y-103.185
X210.817Y-46.035
X211.452Y-22.222
X211.452Y-65.085
X215.58Y-103.185
X216.215Y-84.135
X220.343Y-22.222
X220.343Y-65.085
X220.977Y-46.035
X225.105Y-84.135
X225.74Y-103.185
X229.867Y-46.035
X230.502Y-22.222
X230.502Y-65.085
X234.63Y-103.185
X235.265Y-84.135
X239.392Y-65.085
X240.027Y-46.035
X244.155Y-22.222
X244.155Y-84.135
X244.79Y-103.185
X248.917Y-46.035
X248.917Y-122.235
X249.552Y-65.085
X253.68Y-103.185
X254.315Y-22.222
X254.315Y-84.135
X258.442Y-65.085
X259.077Y-46.035
X259.077Y-122.235
X263.205Y-22.222
X263.205Y-84.135
X263.84Y-103.185
X267.967Y-46.035
X267.967Y-122.235
X268.602Y-65.085
X272.73Y-103.185
X273.365Y-22.222
X273.365Y-84.135
X277.493Y-65.085
X278.127Y-46.035
X278.127Y-122.235
X282.255Y-22.222
X282.255Y-84.135
X282.89Y-103.185
X287.017Y-46.035
X287.017Y-122.235
X287.652Y-65.085
X292.415Y-22.222
X292.415Y-84.135
X296.542Y-65.085
X297.178Y-46.035
X297.178Y-122.235
X298.924Y-103.185
X301.305Y-22.222
X306.702Y-65.085
X309.084Y-103.185
X310.83Y-126.997
X311.465Y-22.222
X313.211Y-84.135
X315.592Y-46.035
X320.355Y-65.085
X320.99Y-126.997
X323.371Y-84.135
X325.118Y-22.222
X325.752Y-46.035
X329.88Y-107.947
X329.88Y-126.997
X330.515Y-65.085
X335.277Y-22.222
X340.04Y-107.947
X340.04Y-126.997
X348.93Y-126.997
X353.692Y-22.222
X353.692Y-46.035
X353.692Y-65.085
X353.692Y-84.135
X353.692Y-103.185
X359.09Y-126.997
X363.852Y-22.222
X363.852Y-46.035
X363.852Y-65.085
X363.852Y-84.135
X363.852Y-103.185
T3
X15.872Y-65.085
X15.872Y-84.135
X15.872Y-103.185
X15.872Y-122.235
X34.922Y-46.035
X34.922Y-46.035
X34.922Y-65.085
X34.922Y-84.135
X34.922Y-103.185
X34.922Y-122.235
X63.497Y-22.222
X63.497Y-46.035
X63.497Y-111.44
X65.879Y-122.235
X68.26Y-65.085
X70.641Y-84.135
X75.404Y-103.185
X82.547Y-46.035
X87.31Y-22.222
X87.31Y-111.44
X89.691Y-122.235
X92.072Y-65.085
X96.835Y-84.135
X101.597Y-46.035
X106.36Y-22.222
X106.36Y-103.185
X111.122Y-65.085
X113.504Y-122.235
X115.885Y-84.135
X120.647Y-46.035
X125.41Y-22.222
X125.41Y-103.185
X130.172Y-65.085
X134.935Y-84.135
X134.935Y-130.49
X139.697Y-46.035
X144.46Y-22.222
X144.46Y-103.185
X149.222Y-65.085
X153.985Y-84.135
X158.748Y-46.035
X163.51Y-103.185
X168.272Y-22.222
X168.272Y-65.085
X173.035Y-84.135
X177.797Y-46.035
X182.56Y-103.185
X184.941Y-122.235
X187.322Y-22.222
X187.322Y-65.085
X192.085Y-84.135
X196.847Y-46.035
X201.61Y-103.185
X206.373Y-22.222
X206.373Y-65.085
X211.135Y-84.135
X215.897Y-46.035
X220.66Y-103.185
X225.422Y-22.222
X225.422Y-65.085
X230.185Y-84.135
X234.947Y-46.035
X234.947Y-130.49
X239.71Y-103.185
X244.472Y-65.085
X249.235Y-22.222
X249.235Y-84.135
X253.998Y-46.035
X253.998Y-122.235
X258.76Y-103.185
X263.522Y-65.085
X268.285Y-22.222
X268.285Y-84.135
X273.048Y-46.035
X273.048Y-122.235
X277.81Y-103.185
X282.572Y-65.085
X287.335Y-22.222
X287.335Y-84.135
X292.097Y-46.035
X292.097Y-122.235
X301.623Y-65.085
X304.004Y-103.185
X306.385Y-22.222
X306.385Y-92.39
X308.766Y-54.29
X315.91Y-126.997
X318.291Y-84.135
X320.673Y-46.035
X325.435Y-65.085
X330.197Y-22.222
X330.197Y-92.39
X332.579Y-54.29
X334.96Y-107.947
X334.96Y-126.997
X354.01Y-126.997
X358.772Y-22.222
X358.772Y-46.035
X358.772Y-65.085
X358.772Y-84.135
X358.772Y-103.185
T0
M30
