M48
; DRILL file {KiCad (6.0.11)} date Wed Mar  1 19:49:16 2023
; FORMAT={-:-/ absolute / metric / decimal}
; #@! TF.CreationDate,2023-03-01T19:49:16+07:00
; #@! TF.GenerationSoftware,Kicad,Pcbnew,(6.0.11)
; #@! TF.FileFunction,Plated,1,2,PTH
FMAT,2
METRIC
; #@! TA.AperFunction,Plated,PTH,ViaDrill
T1C0.400
; #@! TA.AperFunction,Plated,PTH,ViaDrill
T2C0.500
; #@! TA.AperFunction,Plated,PTH,ComponentDrill
T3C0.600
; #@! TA.AperFunction,Plated,PTH,ComponentDrill
T4C1.000
; #@! TA.AperFunction,Plated,PTH,ComponentDrill
T5C1.500
; #@! TA.AperFunction,Plated,PTH,ComponentDrill
T6C3.000
; #@! TA.AperFunction,Plated,PTH,ComponentDrill
T7C3.048
; #@! TA.AperFunction,Plated,PTH,ComponentDrill
T8C3.200
%
G90
G05
T1
X15.787Y-29.16
X18.412Y-111.994
X30.664Y-29.142
X37.462Y-111.934
X73.603Y-111.971
X97.452Y-111.934
X108.904Y-111.727
X127.934Y-111.727
X130.349Y-30.247
X136.809Y-120.937
X138.154Y-118.672
X139.254Y-119.397
X140.684Y-120.121
X141.597Y-54.06
X142.322Y-92.16
X142.344Y-121.152
X145.512Y-73.11
X145.638Y-115.828
X146.637Y-115.841
X147.0Y-111.727
X147.636Y-115.811
X148.634Y-115.762
X151.464Y-125.982
X151.794Y-120.252
X152.055Y-123.727
X152.366Y-122.247
X152.774Y-118.652
X153.054Y-123.727
X154.055Y-123.727
X157.545Y-119.703
X158.964Y-124.052
X163.584Y-126.892
X166.074Y-111.727
X166.284Y-124.062
X167.254Y-122.102
X193.799Y-123.557
X204.174Y-117.042
X223.204Y-116.162
X224.634Y-128.393
X230.264Y-126.852
X242.244Y-118.122
X258.772Y-114.92
X277.822Y-114.92
X286.09Y-12.237
X287.604Y-10.842
X288.284Y-9.876
X289.094Y-11.512
X297.037Y-114.755
X320.831Y-119.536
X337.5Y-117.597
X361.312Y-113.374
T2
X218.674Y-126.882
X284.424Y-10.362
X293.084Y-12.512
T4
X8.623Y-43.535
X8.623Y-46.035
X8.623Y-48.535
X22.778Y-3.834
X23.122Y-43.535
X23.122Y-48.535
X25.318Y-3.834
X27.858Y-3.834
X30.398Y-3.834
X53.65Y-3.966
X56.19Y-3.966
X58.73Y-3.966
X61.27Y-3.966
X63.81Y-3.966
X79.849Y-3.966
X82.389Y-3.966
X84.929Y-3.966
T6
X12.062Y-62.545
X12.062Y-81.595
X12.062Y-100.645
X12.062Y-119.695
X18.412Y-60.005
X18.412Y-79.055
X18.412Y-98.105
X18.412Y-117.155
X31.112Y-43.495
X31.112Y-62.545
X31.112Y-81.595
X31.112Y-100.645
X31.112Y-119.695
X37.462Y-40.955
X37.462Y-60.005
X37.462Y-79.055
X37.462Y-98.105
X37.462Y-117.155
X59.688Y-19.682
X59.688Y-43.495
X62.069Y-119.695
X64.45Y-62.545
X66.037Y-17.142
X66.037Y-40.955
X66.831Y-81.595
X68.419Y-117.155
X70.8Y-60.005
X71.594Y-100.645
X73.181Y-79.055
X77.944Y-98.105
X78.737Y-43.495
X83.5Y-19.682
X85.087Y-40.955
X85.881Y-119.695
X88.263Y-62.545
X89.85Y-17.142
X92.231Y-117.155
X93.025Y-81.595
X94.612Y-60.005
X97.787Y-43.495
X99.375Y-79.055
X102.55Y-19.682
X102.55Y-100.645
X104.137Y-40.955
X107.312Y-62.545
X108.9Y-17.142
X108.9Y-98.105
X109.694Y-119.695
X112.075Y-81.595
X113.662Y-60.005
X116.044Y-117.155
X116.837Y-43.495
X118.425Y-79.055
X121.6Y-19.682
X121.6Y-100.645
X123.188Y-40.955
X126.362Y-62.545
X127.95Y-17.142
X127.95Y-98.105
X131.125Y-81.595
X132.713Y-60.005
X135.887Y-43.495
X137.475Y-79.055
X140.65Y-19.682
X140.65Y-100.645
X142.237Y-40.955
X145.412Y-62.545
X147.0Y-17.142
X147.0Y-98.105
X150.175Y-81.595
X151.762Y-60.005
X154.938Y-43.495
X156.525Y-79.055
X159.7Y-100.645
X161.287Y-40.955
X164.463Y-19.682
X164.463Y-62.545
X166.05Y-98.105
X169.225Y-81.595
X170.812Y-17.142
X170.812Y-60.005
X173.987Y-43.495
X175.575Y-79.055
X178.75Y-100.645
X180.338Y-40.955
X181.131Y-119.695
X183.512Y-19.682
X183.512Y-62.545
X185.1Y-98.105
X187.481Y-117.155
X188.275Y-81.595
X189.862Y-17.142
X189.862Y-60.005
X193.037Y-43.495
X194.625Y-79.055
X197.8Y-100.645
X199.387Y-40.955
X202.562Y-19.682
X202.562Y-62.545
X204.15Y-98.105
X207.325Y-81.595
X208.912Y-17.142
X208.912Y-60.005
X212.087Y-43.495
X213.675Y-79.055
X216.85Y-100.645
X218.438Y-40.955
X221.612Y-19.682
X221.612Y-62.545
X223.2Y-98.105
X226.375Y-81.595
X227.962Y-17.142
X227.962Y-60.005
X231.137Y-43.495
X232.725Y-79.055
X235.9Y-100.645
X237.487Y-40.955
X240.662Y-62.545
X242.25Y-98.105
X245.425Y-19.682
X245.425Y-81.595
X247.012Y-60.005
X250.188Y-43.495
X250.188Y-119.695
X251.775Y-17.142
X251.775Y-79.055
X254.95Y-100.645
X256.537Y-40.955
X256.537Y-117.155
X259.712Y-62.545
X261.3Y-98.105
X264.475Y-19.682
X264.475Y-81.595
X266.062Y-60.005
X269.238Y-43.495
X269.238Y-119.695
X270.825Y-17.142
X270.825Y-79.055
X274.0Y-100.645
X275.587Y-40.955
X275.587Y-117.155
X278.762Y-62.545
X280.35Y-98.105
X283.525Y-19.682
X283.525Y-81.595
X285.113Y-60.005
X288.287Y-43.495
X288.287Y-119.695
X289.875Y-17.142
X289.875Y-79.055
X294.637Y-40.955
X294.637Y-117.155
X297.812Y-62.545
X300.194Y-100.645
X302.575Y-19.682
X304.162Y-60.005
X306.544Y-98.105
X308.925Y-17.142
X312.1Y-124.457
X314.481Y-81.595
X316.863Y-43.495
X318.45Y-121.917
X320.831Y-79.055
X321.625Y-62.545
X323.212Y-40.955
X326.387Y-19.682
X327.975Y-60.005
X331.15Y-105.407
X331.15Y-124.457
X332.738Y-17.142
X337.5Y-102.867
X337.5Y-121.917
X350.2Y-124.457
X354.962Y-19.682
X354.962Y-43.495
X354.962Y-62.545
X354.962Y-81.595
X354.962Y-100.645
X356.55Y-121.917
X361.312Y-17.142
X361.312Y-40.955
X361.312Y-60.005
X361.312Y-79.055
X361.312Y-98.105
T7
X63.497Y-96.2
X87.31Y-96.2
X134.935Y-115.25
X234.947Y-115.25
X306.385Y-77.15
X308.766Y-39.05
X330.197Y-77.15
X332.579Y-39.05
T8
X11.388Y-4.334
X11.388Y-32.934
X41.888Y-4.334
X41.888Y-32.934
T3
X283.015Y5.321G85X283.015Y4.721
G05
X283.015Y1.391G85X283.015Y0.291
G05
X291.655Y5.321G85X291.655Y4.721
G05
X291.655Y1.391G85X291.655Y0.291
G05
T5
X15.473Y-40.435G85X16.773Y-40.435
G05
X15.473Y-51.635G85X16.773Y-51.635
G05
T0
M30
