%TF.GenerationSoftware,KiCad,Pcbnew,(6.0.11)*%
%TF.CreationDate,2023-03-01T19:49:17+07:00*%
%TF.ProjectId,QCK,51434b2e-6b69-4636-9164-5f7063625858,rev?*%
%TF.SameCoordinates,Original*%
%TF.FileFunction,Drillmap*%
%TF.FilePolarity,Positive*%
%FSLAX45Y45*%
G04 Gerber Fmt 4.5, Leading zero omitted, Abs format (unit mm)*
G04 Created by KiCad (PCBNEW (6.0.11)) date 2023-03-01 19:49:17*
%MOMM*%
%LPD*%
G01*
G04 APERTURE LIST*
%ADD10C,0.100000*%
%ADD11C,0.200000*%
%ADD12C,0.040000*%
%ADD13C,0.050000*%
%ADD14C,0.060000*%
%ADD15C,0.150000*%
%ADD16C,0.300000*%
%ADD17C,0.304800*%
%ADD18C,0.320000*%
G04 APERTURE END LIST*
D10*
X28257250Y635255D02*
G75*
G03*
X28177875Y555876I10J-79385D01*
G01*
X-250Y-13731624D02*
X-250Y-79124D01*
X-250Y-13731624D02*
G75*
G03*
X79125Y-13810999I79376J1D01*
G01*
X28098500Y245D02*
G75*
G03*
X28177875Y79626I-10J79385D01*
G01*
X37306000Y-13810995D02*
G75*
G03*
X37385375Y-13731624I10J79365D01*
G01*
X79125Y251D02*
G75*
G03*
X-250Y-79124I7J-79382D01*
G01*
X79125Y251D02*
X28098500Y251D01*
X29368500Y251D02*
X37306000Y251D01*
X28177875Y79626D02*
X28177875Y555876D01*
X37385371Y-79124D02*
G75*
G03*
X37306000Y251I-79371J4D01*
G01*
X29289125Y555876D02*
X29289125Y79626D01*
X29289121Y79626D02*
G75*
G03*
X29368500Y251I79369J-6D01*
G01*
X37305998Y-13810999D02*
X79123Y-13810999D01*
X37385375Y-79124D02*
X37385375Y-13731624D01*
X28257250Y635251D02*
X29209750Y635251D01*
X29289121Y555876D02*
G75*
G03*
X29209750Y635251I-79371J4D01*
G01*
D11*
D12*
X1558687Y-2895999D02*
X1598687Y-2935999D01*
X1598687Y-2895999D02*
X1558687Y-2935999D01*
X1821250Y-11179437D02*
X1861250Y-11219437D01*
X1861250Y-11179437D02*
X1821250Y-11219437D01*
X3046437Y-2894249D02*
X3086437Y-2934249D01*
X3086437Y-2894249D02*
X3046437Y-2934249D01*
X3726250Y-11173449D02*
X3766250Y-11213449D01*
X3766250Y-11173449D02*
X3726250Y-11213449D01*
X7340281Y-11177093D02*
X7380281Y-11217093D01*
X7380281Y-11177093D02*
X7340281Y-11217093D01*
X9725175Y-11173449D02*
X9765175Y-11213449D01*
X9765175Y-11173449D02*
X9725175Y-11213449D01*
X10870438Y-11152699D02*
X10910438Y-11192699D01*
X10910438Y-11152699D02*
X10870438Y-11192699D01*
X12773437Y-11152699D02*
X12813437Y-11192699D01*
X12813437Y-11152699D02*
X12773437Y-11192699D01*
X13014937Y-3004749D02*
X13054937Y-3044749D01*
X13054937Y-3004749D02*
X13014937Y-3044749D01*
X13660857Y-12073669D02*
X13700857Y-12113669D01*
X13700857Y-12073669D02*
X13660857Y-12113669D01*
X13795437Y-11847249D02*
X13835437Y-11887249D01*
X13835437Y-11847249D02*
X13795437Y-11887249D01*
X13905437Y-11919699D02*
X13945437Y-11959699D01*
X13945437Y-11919699D02*
X13905437Y-11959699D01*
X14048437Y-11992149D02*
X14088437Y-12032149D01*
X14088437Y-11992149D02*
X14048437Y-12032149D01*
X14139687Y-5385999D02*
X14179687Y-5425999D01*
X14179687Y-5385999D02*
X14139687Y-5425999D01*
X14212187Y-9195999D02*
X14252187Y-9235999D01*
X14252187Y-9195999D02*
X14212187Y-9235999D01*
X14214437Y-12095249D02*
X14254437Y-12135249D01*
X14254437Y-12095249D02*
X14214437Y-12135249D01*
X14531187Y-7290999D02*
X14571187Y-7330999D01*
X14571187Y-7290999D02*
X14531187Y-7330999D01*
X14543757Y-11562795D02*
X14583757Y-11602795D01*
X14583757Y-11562795D02*
X14543757Y-11602795D01*
X14643699Y-11564068D02*
X14683699Y-11604068D01*
X14683699Y-11564068D02*
X14643699Y-11604068D01*
X14680000Y-11152699D02*
X14720000Y-11192699D01*
X14720000Y-11152699D02*
X14680000Y-11192699D01*
X14743606Y-11561119D02*
X14783606Y-11601119D01*
X14783606Y-11561119D02*
X14743606Y-11601119D01*
X14843437Y-11556249D02*
X14883437Y-11596249D01*
X14883437Y-11556249D02*
X14843437Y-11596249D01*
X15126437Y-12578249D02*
X15166437Y-12618249D01*
X15166437Y-12578249D02*
X15126437Y-12618249D01*
X15159437Y-12005249D02*
X15199437Y-12045249D01*
X15199437Y-12005249D02*
X15159437Y-12045249D01*
X15185487Y-12352699D02*
X15225487Y-12392699D01*
X15225487Y-12352699D02*
X15185487Y-12392699D01*
X15216568Y-12204699D02*
X15256568Y-12244699D01*
X15256568Y-12204699D02*
X15216568Y-12244699D01*
X15257437Y-11845249D02*
X15297437Y-11885249D01*
X15297437Y-11845249D02*
X15257437Y-11885249D01*
X15285437Y-12352699D02*
X15325437Y-12392699D01*
X15325437Y-12352699D02*
X15285437Y-12392699D01*
X15385478Y-12352699D02*
X15425478Y-12392699D01*
X15425478Y-12352699D02*
X15385478Y-12392699D01*
X15734483Y-11950295D02*
X15774483Y-11990295D01*
X15774483Y-11950295D02*
X15734483Y-11990295D01*
X15876437Y-12385249D02*
X15916437Y-12425249D01*
X15916437Y-12385249D02*
X15876437Y-12425249D01*
X16338437Y-12669249D02*
X16378437Y-12709249D01*
X16378437Y-12669249D02*
X16338437Y-12709249D01*
X16587437Y-11152699D02*
X16627437Y-11192699D01*
X16627437Y-11152699D02*
X16587437Y-11192699D01*
X16608437Y-12386249D02*
X16648437Y-12426249D01*
X16648437Y-12386249D02*
X16608437Y-12426249D01*
X16705437Y-12190249D02*
X16745437Y-12230249D01*
X16745437Y-12190249D02*
X16705437Y-12230249D01*
X19359938Y-12335749D02*
X19399938Y-12375749D01*
X19399938Y-12335749D02*
X19359938Y-12375749D01*
X20397438Y-11684249D02*
X20437438Y-11724249D01*
X20437438Y-11684249D02*
X20397438Y-11724249D01*
X22300438Y-11596249D02*
X22340438Y-11636249D01*
X22340438Y-11596249D02*
X22300438Y-11636249D01*
X22443437Y-12819299D02*
X22483437Y-12859299D01*
X22483437Y-12819299D02*
X22443437Y-12859299D01*
X23006437Y-12665249D02*
X23046437Y-12705249D01*
X23046437Y-12665249D02*
X23006437Y-12705249D01*
X24204437Y-11792249D02*
X24244437Y-11832249D01*
X24244437Y-11792249D02*
X24204437Y-11832249D01*
X25857219Y-11472031D02*
X25897219Y-11512031D01*
X25897219Y-11472031D02*
X25857219Y-11512031D01*
X27762219Y-11472030D02*
X27802219Y-11512030D01*
X27802219Y-11472030D02*
X27762219Y-11512030D01*
X28588987Y-1203699D02*
X28628987Y-1243699D01*
X28628987Y-1203699D02*
X28588987Y-1243699D01*
X28740437Y-1064249D02*
X28780437Y-1104249D01*
X28780437Y-1064249D02*
X28740437Y-1104249D01*
X28808450Y-967590D02*
X28848450Y-1007590D01*
X28848450Y-967590D02*
X28808450Y-1007590D01*
X28889437Y-1131249D02*
X28929437Y-1171249D01*
X28929437Y-1131249D02*
X28889437Y-1171249D01*
X29683719Y-11455530D02*
X29723719Y-11495530D01*
X29723719Y-11455530D02*
X29683719Y-11495530D01*
X32063125Y-11933624D02*
X32103125Y-11973624D01*
X32103125Y-11933624D02*
X32063125Y-11973624D01*
X33730000Y-11739699D02*
X33770000Y-11779699D01*
X33770000Y-11739699D02*
X33730000Y-11779699D01*
X36111250Y-11317437D02*
X36151250Y-11357437D01*
X36151250Y-11317437D02*
X36111250Y-11357437D01*
D13*
X21892438Y-12688249D02*
G75*
G03*
X21892438Y-12688249I-25000J0D01*
G01*
X28467437Y-1036249D02*
G75*
G03*
X28467437Y-1036249I-25000J0D01*
G01*
X29333437Y-1251199D02*
G75*
G03*
X29333437Y-1251199I-25000J0D01*
G01*
D14*
X28301500Y532126D02*
X28301500Y472126D01*
X28271500Y502126D02*
X28331500Y502126D01*
D11*
X28271500Y532126D02*
X28271500Y472126D01*
X28331500Y532126D02*
X28331500Y472126D01*
X28271500Y472126D02*
G75*
G03*
X28331500Y472126I30000J0D01*
G01*
X28331500Y532126D02*
G75*
G03*
X28271500Y532126I-30000J0D01*
G01*
D14*
X28301500Y114126D02*
X28301500Y54126D01*
X28271500Y84126D02*
X28331500Y84126D01*
D11*
X28271500Y139126D02*
X28271500Y29126D01*
X28331500Y139126D02*
X28331500Y29126D01*
X28271500Y29126D02*
G75*
G03*
X28331500Y29126I30000J0D01*
G01*
X28331500Y139126D02*
G75*
G03*
X28271500Y139126I-30000J0D01*
G01*
D14*
X29165500Y532126D02*
X29165500Y472126D01*
X29135500Y502126D02*
X29195500Y502126D01*
D11*
X29135500Y532126D02*
X29135500Y472126D01*
X29195500Y532126D02*
X29195500Y472126D01*
X29135500Y472126D02*
G75*
G03*
X29195500Y472126I30000J0D01*
G01*
X29195500Y532126D02*
G75*
G03*
X29135500Y532126I-30000J0D01*
G01*
D14*
X29165500Y114126D02*
X29165500Y54126D01*
X29135500Y84126D02*
X29195500Y84126D01*
D11*
X29135500Y139126D02*
X29135500Y29126D01*
X29195500Y139126D02*
X29195500Y29126D01*
X29135500Y29126D02*
G75*
G03*
X29195500Y29126I30000J0D01*
G01*
X29195500Y139126D02*
G75*
G03*
X29135500Y139126I-30000J0D01*
G01*
D10*
X897606Y-4388855D02*
X897606Y-4318144D01*
X826894Y-4318144D01*
X826894Y-4388855D01*
X897606Y-4388855D01*
X897606Y-4638855D02*
X897606Y-4568144D01*
X826894Y-4568144D01*
X826894Y-4638855D01*
X897606Y-4638855D01*
X897606Y-4888855D02*
X897606Y-4818144D01*
X826894Y-4818144D01*
X826894Y-4888855D01*
X897606Y-4888855D01*
X2313168Y-418730D02*
X2313168Y-348019D01*
X2242457Y-348019D01*
X2242457Y-418730D01*
X2313168Y-418730D01*
X2347606Y-4388855D02*
X2347606Y-4318144D01*
X2276894Y-4318144D01*
X2276894Y-4388855D01*
X2347606Y-4388855D01*
X2347606Y-4888855D02*
X2347606Y-4818144D01*
X2276894Y-4818144D01*
X2276894Y-4888855D01*
X2347606Y-4888855D01*
X2567168Y-418730D02*
X2567168Y-348019D01*
X2496457Y-348019D01*
X2496457Y-418730D01*
X2567168Y-418730D01*
X2821168Y-418730D02*
X2821168Y-348019D01*
X2750457Y-348019D01*
X2750457Y-418730D01*
X2821168Y-418730D01*
X3075168Y-418730D02*
X3075168Y-348019D01*
X3004457Y-348019D01*
X3004457Y-418730D01*
X3075168Y-418730D01*
X5400356Y-431980D02*
X5400356Y-361269D01*
X5329644Y-361269D01*
X5329644Y-431980D01*
X5400356Y-431980D01*
X5654356Y-431980D02*
X5654356Y-361269D01*
X5583644Y-361269D01*
X5583644Y-431980D01*
X5654356Y-431980D01*
X5908356Y-431980D02*
X5908356Y-361269D01*
X5837644Y-361269D01*
X5837644Y-431980D01*
X5908356Y-431980D01*
X6162356Y-431980D02*
X6162356Y-361269D01*
X6091644Y-361269D01*
X6091644Y-431980D01*
X6162356Y-431980D01*
X6416356Y-431980D02*
X6416356Y-361269D01*
X6345644Y-361269D01*
X6345644Y-431980D01*
X6416356Y-431980D01*
X8020231Y-431980D02*
X8020231Y-361269D01*
X7949519Y-361269D01*
X7949519Y-431980D01*
X8020231Y-431980D01*
X8274231Y-431980D02*
X8274231Y-361269D01*
X8203519Y-361269D01*
X8203519Y-431980D01*
X8274231Y-431980D01*
X8528231Y-431980D02*
X8528231Y-361269D01*
X8457519Y-361269D01*
X8457519Y-431980D01*
X8528231Y-431980D01*
D15*
X1612250Y-4118499D02*
X1687250Y-4043499D01*
X1612250Y-3968499D01*
X1537250Y-4043499D01*
X1612250Y-4118499D01*
D11*
X1547250Y-4118499D02*
X1677250Y-4118499D01*
X1547250Y-3968499D02*
X1677250Y-3968499D01*
X1677250Y-4118499D02*
G75*
G03*
X1677250Y-3968499I0J75000D01*
G01*
X1547250Y-3968499D02*
G75*
G03*
X1547250Y-4118499I0J-75000D01*
G01*
D15*
X1612250Y-5238499D02*
X1687250Y-5163499D01*
X1612250Y-5088499D01*
X1537250Y-5163499D01*
X1612250Y-5238499D01*
D11*
X1547250Y-5238499D02*
X1677250Y-5238499D01*
X1547250Y-5088499D02*
X1677250Y-5088499D01*
X1677250Y-5238499D02*
G75*
G03*
X1677250Y-5088499I0J75000D01*
G01*
X1547250Y-5088499D02*
G75*
G03*
X1547250Y-5238499I0J-75000D01*
G01*
D16*
X1056250Y-6104499D02*
X1356250Y-6404499D01*
X1356250Y-6104499D02*
X1056250Y-6404499D01*
X1356250Y-6254499D02*
G75*
G03*
X1356250Y-6254499I-150000J0D01*
G01*
X1056250Y-8009499D02*
X1356250Y-8309499D01*
X1356250Y-8009499D02*
X1056250Y-8309499D01*
X1356250Y-8159499D02*
G75*
G03*
X1356250Y-8159499I-150000J0D01*
G01*
X1056250Y-9914499D02*
X1356250Y-10214499D01*
X1356250Y-9914499D02*
X1056250Y-10214499D01*
X1356250Y-10064499D02*
G75*
G03*
X1356250Y-10064499I-150000J0D01*
G01*
X1056250Y-11819499D02*
X1356250Y-12119499D01*
X1356250Y-11819499D02*
X1056250Y-12119499D01*
X1356250Y-11969499D02*
G75*
G03*
X1356250Y-11969499I-150000J0D01*
G01*
X1691250Y-5850499D02*
X1991250Y-6150499D01*
X1991250Y-5850499D02*
X1691250Y-6150499D01*
X1991250Y-6000499D02*
G75*
G03*
X1991250Y-6000499I-150000J0D01*
G01*
X1691250Y-7755499D02*
X1991250Y-8055499D01*
X1991250Y-7755499D02*
X1691250Y-8055499D01*
X1991250Y-7905499D02*
G75*
G03*
X1991250Y-7905499I-150000J0D01*
G01*
X1691250Y-9660499D02*
X1991250Y-9960499D01*
X1991250Y-9660499D02*
X1691250Y-9960499D01*
X1991250Y-9810499D02*
G75*
G03*
X1991250Y-9810499I-150000J0D01*
G01*
X1691250Y-11565499D02*
X1991250Y-11865499D01*
X1991250Y-11565499D02*
X1691250Y-11865499D01*
X1991250Y-11715499D02*
G75*
G03*
X1991250Y-11715499I-150000J0D01*
G01*
X2961250Y-4199499D02*
X3261250Y-4499499D01*
X3261250Y-4199499D02*
X2961250Y-4499499D01*
X3261250Y-4349499D02*
G75*
G03*
X3261250Y-4349499I-150000J0D01*
G01*
X2961250Y-6104499D02*
X3261250Y-6404499D01*
X3261250Y-6104499D02*
X2961250Y-6404499D01*
X3261250Y-6254499D02*
G75*
G03*
X3261250Y-6254499I-150000J0D01*
G01*
X2961250Y-8009499D02*
X3261250Y-8309499D01*
X3261250Y-8009499D02*
X2961250Y-8309499D01*
X3261250Y-8159499D02*
G75*
G03*
X3261250Y-8159499I-150000J0D01*
G01*
X2961250Y-9914499D02*
X3261250Y-10214499D01*
X3261250Y-9914499D02*
X2961250Y-10214499D01*
X3261250Y-10064499D02*
G75*
G03*
X3261250Y-10064499I-150000J0D01*
G01*
X2961250Y-11819499D02*
X3261250Y-12119499D01*
X3261250Y-11819499D02*
X2961250Y-12119499D01*
X3261250Y-11969499D02*
G75*
G03*
X3261250Y-11969499I-150000J0D01*
G01*
X3596250Y-3945499D02*
X3896250Y-4245499D01*
X3896250Y-3945499D02*
X3596250Y-4245499D01*
X3896250Y-4095499D02*
G75*
G03*
X3896250Y-4095499I-150000J0D01*
G01*
X3596250Y-5850499D02*
X3896250Y-6150499D01*
X3896250Y-5850499D02*
X3596250Y-6150499D01*
X3896250Y-6000499D02*
G75*
G03*
X3896250Y-6000499I-150000J0D01*
G01*
X3596250Y-7755499D02*
X3896250Y-8055499D01*
X3896250Y-7755499D02*
X3596250Y-8055499D01*
X3896250Y-7905499D02*
G75*
G03*
X3896250Y-7905499I-150000J0D01*
G01*
X3596250Y-9660499D02*
X3896250Y-9960499D01*
X3896250Y-9660499D02*
X3596250Y-9960499D01*
X3896250Y-9810499D02*
G75*
G03*
X3896250Y-9810499I-150000J0D01*
G01*
X3596250Y-11565499D02*
X3896250Y-11865499D01*
X3896250Y-11565499D02*
X3596250Y-11865499D01*
X3896250Y-11715499D02*
G75*
G03*
X3896250Y-11715499I-150000J0D01*
G01*
X5818750Y-1818249D02*
X6118750Y-2118249D01*
X6118750Y-1818249D02*
X5818750Y-2118249D01*
X6118750Y-1968249D02*
G75*
G03*
X6118750Y-1968249I-150000J0D01*
G01*
X5818750Y-4199499D02*
X6118750Y-4499499D01*
X6118750Y-4199499D02*
X5818750Y-4499499D01*
X6118750Y-4349499D02*
G75*
G03*
X6118750Y-4349499I-150000J0D01*
G01*
X6056875Y-11819499D02*
X6356875Y-12119499D01*
X6356875Y-11819499D02*
X6056875Y-12119499D01*
X6356875Y-11969499D02*
G75*
G03*
X6356875Y-11969499I-150000J0D01*
G01*
X6295000Y-6104499D02*
X6595000Y-6404499D01*
X6595000Y-6104499D02*
X6295000Y-6404499D01*
X6595000Y-6254499D02*
G75*
G03*
X6595000Y-6254499I-150000J0D01*
G01*
X6453750Y-1564249D02*
X6753750Y-1864249D01*
X6753750Y-1564249D02*
X6453750Y-1864249D01*
X6753750Y-1714249D02*
G75*
G03*
X6753750Y-1714249I-150000J0D01*
G01*
X6453750Y-3945499D02*
X6753750Y-4245499D01*
X6753750Y-3945499D02*
X6453750Y-4245499D01*
X6753750Y-4095499D02*
G75*
G03*
X6753750Y-4095499I-150000J0D01*
G01*
X6533125Y-8009499D02*
X6833125Y-8309499D01*
X6833125Y-8009499D02*
X6533125Y-8309499D01*
X6833125Y-8159499D02*
G75*
G03*
X6833125Y-8159499I-150000J0D01*
G01*
X6691875Y-11565499D02*
X6991875Y-11865499D01*
X6991875Y-11565499D02*
X6691875Y-11865499D01*
X6991875Y-11715499D02*
G75*
G03*
X6991875Y-11715499I-150000J0D01*
G01*
X6930000Y-5850499D02*
X7230000Y-6150499D01*
X7230000Y-5850499D02*
X6930000Y-6150499D01*
X7230000Y-6000499D02*
G75*
G03*
X7230000Y-6000499I-150000J0D01*
G01*
X7009375Y-9914499D02*
X7309375Y-10214499D01*
X7309375Y-9914499D02*
X7009375Y-10214499D01*
X7309375Y-10064499D02*
G75*
G03*
X7309375Y-10064499I-150000J0D01*
G01*
X7168125Y-7755499D02*
X7468125Y-8055499D01*
X7468125Y-7755499D02*
X7168125Y-8055499D01*
X7468125Y-7905499D02*
G75*
G03*
X7468125Y-7905499I-150000J0D01*
G01*
X7644375Y-9660499D02*
X7944375Y-9960499D01*
X7944375Y-9660499D02*
X7644375Y-9960499D01*
X7944375Y-9810499D02*
G75*
G03*
X7944375Y-9810499I-150000J0D01*
G01*
X7723750Y-4199499D02*
X8023750Y-4499499D01*
X8023750Y-4199499D02*
X7723750Y-4499499D01*
X8023750Y-4349499D02*
G75*
G03*
X8023750Y-4349499I-150000J0D01*
G01*
X8200000Y-1818249D02*
X8500000Y-2118249D01*
X8500000Y-1818249D02*
X8200000Y-2118249D01*
X8500000Y-1968249D02*
G75*
G03*
X8500000Y-1968249I-150000J0D01*
G01*
X8358750Y-3945499D02*
X8658750Y-4245499D01*
X8658750Y-3945499D02*
X8358750Y-4245499D01*
X8658750Y-4095499D02*
G75*
G03*
X8658750Y-4095499I-150000J0D01*
G01*
X8438125Y-11819499D02*
X8738125Y-12119499D01*
X8738125Y-11819499D02*
X8438125Y-12119499D01*
X8738125Y-11969499D02*
G75*
G03*
X8738125Y-11969499I-150000J0D01*
G01*
X8676250Y-6104499D02*
X8976250Y-6404499D01*
X8976250Y-6104499D02*
X8676250Y-6404499D01*
X8976250Y-6254499D02*
G75*
G03*
X8976250Y-6254499I-150000J0D01*
G01*
X8835000Y-1564249D02*
X9135000Y-1864249D01*
X9135000Y-1564249D02*
X8835000Y-1864249D01*
X9135000Y-1714249D02*
G75*
G03*
X9135000Y-1714249I-150000J0D01*
G01*
X9073125Y-11565499D02*
X9373125Y-11865499D01*
X9373125Y-11565499D02*
X9073125Y-11865499D01*
X9373125Y-11715499D02*
G75*
G03*
X9373125Y-11715499I-150000J0D01*
G01*
X9152500Y-8009499D02*
X9452500Y-8309499D01*
X9452500Y-8009499D02*
X9152500Y-8309499D01*
X9452500Y-8159499D02*
G75*
G03*
X9452500Y-8159499I-150000J0D01*
G01*
X9311250Y-5850499D02*
X9611250Y-6150499D01*
X9611250Y-5850499D02*
X9311250Y-6150499D01*
X9611250Y-6000499D02*
G75*
G03*
X9611250Y-6000499I-150000J0D01*
G01*
X9628750Y-4199499D02*
X9928750Y-4499499D01*
X9928750Y-4199499D02*
X9628750Y-4499499D01*
X9928750Y-4349499D02*
G75*
G03*
X9928750Y-4349499I-150000J0D01*
G01*
X9787500Y-7755499D02*
X10087500Y-8055499D01*
X10087500Y-7755499D02*
X9787500Y-8055499D01*
X10087500Y-7905499D02*
G75*
G03*
X10087500Y-7905499I-150000J0D01*
G01*
X10105000Y-1818249D02*
X10405000Y-2118249D01*
X10405000Y-1818249D02*
X10105000Y-2118249D01*
X10405000Y-1968249D02*
G75*
G03*
X10405000Y-1968249I-150000J0D01*
G01*
X10105000Y-9914499D02*
X10405000Y-10214499D01*
X10405000Y-9914499D02*
X10105000Y-10214499D01*
X10405000Y-10064499D02*
G75*
G03*
X10405000Y-10064499I-150000J0D01*
G01*
X10263750Y-3945499D02*
X10563750Y-4245499D01*
X10563750Y-3945499D02*
X10263750Y-4245499D01*
X10563750Y-4095499D02*
G75*
G03*
X10563750Y-4095499I-150000J0D01*
G01*
X10581250Y-6104499D02*
X10881250Y-6404499D01*
X10881250Y-6104499D02*
X10581250Y-6404499D01*
X10881250Y-6254499D02*
G75*
G03*
X10881250Y-6254499I-150000J0D01*
G01*
X10740000Y-1564249D02*
X11040000Y-1864249D01*
X11040000Y-1564249D02*
X10740000Y-1864249D01*
X11040000Y-1714249D02*
G75*
G03*
X11040000Y-1714249I-150000J0D01*
G01*
X10740000Y-9660499D02*
X11040000Y-9960499D01*
X11040000Y-9660499D02*
X10740000Y-9960499D01*
X11040000Y-9810499D02*
G75*
G03*
X11040000Y-9810499I-150000J0D01*
G01*
X10819375Y-11819499D02*
X11119375Y-12119499D01*
X11119375Y-11819499D02*
X10819375Y-12119499D01*
X11119375Y-11969499D02*
G75*
G03*
X11119375Y-11969499I-150000J0D01*
G01*
X11057500Y-8009499D02*
X11357500Y-8309499D01*
X11357500Y-8009499D02*
X11057500Y-8309499D01*
X11357500Y-8159499D02*
G75*
G03*
X11357500Y-8159499I-150000J0D01*
G01*
X11216250Y-5850499D02*
X11516250Y-6150499D01*
X11516250Y-5850499D02*
X11216250Y-6150499D01*
X11516250Y-6000499D02*
G75*
G03*
X11516250Y-6000499I-150000J0D01*
G01*
X11454375Y-11565499D02*
X11754375Y-11865499D01*
X11754375Y-11565499D02*
X11454375Y-11865499D01*
X11754375Y-11715499D02*
G75*
G03*
X11754375Y-11715499I-150000J0D01*
G01*
X11533750Y-4199499D02*
X11833750Y-4499499D01*
X11833750Y-4199499D02*
X11533750Y-4499499D01*
X11833750Y-4349499D02*
G75*
G03*
X11833750Y-4349499I-150000J0D01*
G01*
X11692500Y-7755499D02*
X11992500Y-8055499D01*
X11992500Y-7755499D02*
X11692500Y-8055499D01*
X11992500Y-7905499D02*
G75*
G03*
X11992500Y-7905499I-150000J0D01*
G01*
X12010000Y-1818249D02*
X12310000Y-2118249D01*
X12310000Y-1818249D02*
X12010000Y-2118249D01*
X12310000Y-1968249D02*
G75*
G03*
X12310000Y-1968249I-150000J0D01*
G01*
X12010000Y-9914499D02*
X12310000Y-10214499D01*
X12310000Y-9914499D02*
X12010000Y-10214499D01*
X12310000Y-10064499D02*
G75*
G03*
X12310000Y-10064499I-150000J0D01*
G01*
X12168750Y-3945499D02*
X12468750Y-4245499D01*
X12468750Y-3945499D02*
X12168750Y-4245499D01*
X12468750Y-4095499D02*
G75*
G03*
X12468750Y-4095499I-150000J0D01*
G01*
X12486250Y-6104499D02*
X12786250Y-6404499D01*
X12786250Y-6104499D02*
X12486250Y-6404499D01*
X12786250Y-6254499D02*
G75*
G03*
X12786250Y-6254499I-150000J0D01*
G01*
X12645000Y-1564249D02*
X12945000Y-1864249D01*
X12945000Y-1564249D02*
X12645000Y-1864249D01*
X12945000Y-1714249D02*
G75*
G03*
X12945000Y-1714249I-150000J0D01*
G01*
X12645000Y-9660499D02*
X12945000Y-9960499D01*
X12945000Y-9660499D02*
X12645000Y-9960499D01*
X12945000Y-9810499D02*
G75*
G03*
X12945000Y-9810499I-150000J0D01*
G01*
X12962500Y-8009499D02*
X13262500Y-8309499D01*
X13262500Y-8009499D02*
X12962500Y-8309499D01*
X13262500Y-8159499D02*
G75*
G03*
X13262500Y-8159499I-150000J0D01*
G01*
X13121250Y-5850499D02*
X13421250Y-6150499D01*
X13421250Y-5850499D02*
X13121250Y-6150499D01*
X13421250Y-6000499D02*
G75*
G03*
X13421250Y-6000499I-150000J0D01*
G01*
X13438750Y-4199499D02*
X13738750Y-4499499D01*
X13738750Y-4199499D02*
X13438750Y-4499499D01*
X13738750Y-4349499D02*
G75*
G03*
X13738750Y-4349499I-150000J0D01*
G01*
X13597500Y-7755499D02*
X13897500Y-8055499D01*
X13897500Y-7755499D02*
X13597500Y-8055499D01*
X13897500Y-7905499D02*
G75*
G03*
X13897500Y-7905499I-150000J0D01*
G01*
X13915000Y-1818249D02*
X14215000Y-2118249D01*
X14215000Y-1818249D02*
X13915000Y-2118249D01*
X14215000Y-1968249D02*
G75*
G03*
X14215000Y-1968249I-150000J0D01*
G01*
X13915000Y-9914499D02*
X14215000Y-10214499D01*
X14215000Y-9914499D02*
X13915000Y-10214499D01*
X14215000Y-10064499D02*
G75*
G03*
X14215000Y-10064499I-150000J0D01*
G01*
X14073750Y-3945499D02*
X14373750Y-4245499D01*
X14373750Y-3945499D02*
X14073750Y-4245499D01*
X14373750Y-4095499D02*
G75*
G03*
X14373750Y-4095499I-150000J0D01*
G01*
X14391250Y-6104499D02*
X14691250Y-6404499D01*
X14691250Y-6104499D02*
X14391250Y-6404499D01*
X14691250Y-6254499D02*
G75*
G03*
X14691250Y-6254499I-150000J0D01*
G01*
X14550000Y-1564249D02*
X14850000Y-1864249D01*
X14850000Y-1564249D02*
X14550000Y-1864249D01*
X14850000Y-1714249D02*
G75*
G03*
X14850000Y-1714249I-150000J0D01*
G01*
X14550000Y-9660499D02*
X14850000Y-9960499D01*
X14850000Y-9660499D02*
X14550000Y-9960499D01*
X14850000Y-9810499D02*
G75*
G03*
X14850000Y-9810499I-150000J0D01*
G01*
X14867500Y-8009499D02*
X15167500Y-8309499D01*
X15167500Y-8009499D02*
X14867500Y-8309499D01*
X15167500Y-8159499D02*
G75*
G03*
X15167500Y-8159499I-150000J0D01*
G01*
X15026250Y-5850499D02*
X15326250Y-6150499D01*
X15326250Y-5850499D02*
X15026250Y-6150499D01*
X15326250Y-6000499D02*
G75*
G03*
X15326250Y-6000499I-150000J0D01*
G01*
X15343750Y-4199499D02*
X15643750Y-4499499D01*
X15643750Y-4199499D02*
X15343750Y-4499499D01*
X15643750Y-4349499D02*
G75*
G03*
X15643750Y-4349499I-150000J0D01*
G01*
X15502500Y-7755499D02*
X15802500Y-8055499D01*
X15802500Y-7755499D02*
X15502500Y-8055499D01*
X15802500Y-7905499D02*
G75*
G03*
X15802500Y-7905499I-150000J0D01*
G01*
X15820000Y-9914499D02*
X16120000Y-10214499D01*
X16120000Y-9914499D02*
X15820000Y-10214499D01*
X16120000Y-10064499D02*
G75*
G03*
X16120000Y-10064499I-150000J0D01*
G01*
X15978750Y-3945499D02*
X16278750Y-4245499D01*
X16278750Y-3945499D02*
X15978750Y-4245499D01*
X16278750Y-4095499D02*
G75*
G03*
X16278750Y-4095499I-150000J0D01*
G01*
X16296250Y-1818249D02*
X16596250Y-2118249D01*
X16596250Y-1818249D02*
X16296250Y-2118249D01*
X16596250Y-1968249D02*
G75*
G03*
X16596250Y-1968249I-150000J0D01*
G01*
X16296250Y-6104499D02*
X16596250Y-6404499D01*
X16596250Y-6104499D02*
X16296250Y-6404499D01*
X16596250Y-6254499D02*
G75*
G03*
X16596250Y-6254499I-150000J0D01*
G01*
X16455000Y-9660499D02*
X16755000Y-9960499D01*
X16755000Y-9660499D02*
X16455000Y-9960499D01*
X16755000Y-9810499D02*
G75*
G03*
X16755000Y-9810499I-150000J0D01*
G01*
X16772500Y-8009499D02*
X17072500Y-8309499D01*
X17072500Y-8009499D02*
X16772500Y-8309499D01*
X17072500Y-8159499D02*
G75*
G03*
X17072500Y-8159499I-150000J0D01*
G01*
X16931250Y-1564249D02*
X17231250Y-1864249D01*
X17231250Y-1564249D02*
X16931250Y-1864249D01*
X17231250Y-1714249D02*
G75*
G03*
X17231250Y-1714249I-150000J0D01*
G01*
X16931250Y-5850499D02*
X17231250Y-6150499D01*
X17231250Y-5850499D02*
X16931250Y-6150499D01*
X17231250Y-6000499D02*
G75*
G03*
X17231250Y-6000499I-150000J0D01*
G01*
X17248750Y-4199499D02*
X17548750Y-4499499D01*
X17548750Y-4199499D02*
X17248750Y-4499499D01*
X17548750Y-4349499D02*
G75*
G03*
X17548750Y-4349499I-150000J0D01*
G01*
X17407500Y-7755499D02*
X17707500Y-8055499D01*
X17707500Y-7755499D02*
X17407500Y-8055499D01*
X17707500Y-7905499D02*
G75*
G03*
X17707500Y-7905499I-150000J0D01*
G01*
X17725000Y-9914499D02*
X18025000Y-10214499D01*
X18025000Y-9914499D02*
X17725000Y-10214499D01*
X18025000Y-10064499D02*
G75*
G03*
X18025000Y-10064499I-150000J0D01*
G01*
X17883750Y-3945499D02*
X18183750Y-4245499D01*
X18183750Y-3945499D02*
X17883750Y-4245499D01*
X18183750Y-4095499D02*
G75*
G03*
X18183750Y-4095499I-150000J0D01*
G01*
X17963125Y-11819499D02*
X18263125Y-12119499D01*
X18263125Y-11819499D02*
X17963125Y-12119499D01*
X18263125Y-11969499D02*
G75*
G03*
X18263125Y-11969499I-150000J0D01*
G01*
X18201250Y-1818249D02*
X18501250Y-2118249D01*
X18501250Y-1818249D02*
X18201250Y-2118249D01*
X18501250Y-1968249D02*
G75*
G03*
X18501250Y-1968249I-150000J0D01*
G01*
X18201250Y-6104499D02*
X18501250Y-6404499D01*
X18501250Y-6104499D02*
X18201250Y-6404499D01*
X18501250Y-6254499D02*
G75*
G03*
X18501250Y-6254499I-150000J0D01*
G01*
X18360000Y-9660499D02*
X18660000Y-9960499D01*
X18660000Y-9660499D02*
X18360000Y-9960499D01*
X18660000Y-9810499D02*
G75*
G03*
X18660000Y-9810499I-150000J0D01*
G01*
X18598125Y-11565499D02*
X18898125Y-11865499D01*
X18898125Y-11565499D02*
X18598125Y-11865499D01*
X18898125Y-11715499D02*
G75*
G03*
X18898125Y-11715499I-150000J0D01*
G01*
X18677500Y-8009499D02*
X18977500Y-8309499D01*
X18977500Y-8009499D02*
X18677500Y-8309499D01*
X18977500Y-8159499D02*
G75*
G03*
X18977500Y-8159499I-150000J0D01*
G01*
X18836250Y-1564249D02*
X19136250Y-1864249D01*
X19136250Y-1564249D02*
X18836250Y-1864249D01*
X19136250Y-1714249D02*
G75*
G03*
X19136250Y-1714249I-150000J0D01*
G01*
X18836250Y-5850499D02*
X19136250Y-6150499D01*
X19136250Y-5850499D02*
X18836250Y-6150499D01*
X19136250Y-6000499D02*
G75*
G03*
X19136250Y-6000499I-150000J0D01*
G01*
X19153750Y-4199499D02*
X19453750Y-4499499D01*
X19453750Y-4199499D02*
X19153750Y-4499499D01*
X19453750Y-4349499D02*
G75*
G03*
X19453750Y-4349499I-150000J0D01*
G01*
X19312500Y-7755499D02*
X19612500Y-8055499D01*
X19612500Y-7755499D02*
X19312500Y-8055499D01*
X19612500Y-7905499D02*
G75*
G03*
X19612500Y-7905499I-150000J0D01*
G01*
X19630000Y-9914499D02*
X19930000Y-10214499D01*
X19930000Y-9914499D02*
X19630000Y-10214499D01*
X19930000Y-10064499D02*
G75*
G03*
X19930000Y-10064499I-150000J0D01*
G01*
X19788750Y-3945499D02*
X20088750Y-4245499D01*
X20088750Y-3945499D02*
X19788750Y-4245499D01*
X20088750Y-4095499D02*
G75*
G03*
X20088750Y-4095499I-150000J0D01*
G01*
X20106250Y-1818249D02*
X20406250Y-2118249D01*
X20406250Y-1818249D02*
X20106250Y-2118249D01*
X20406250Y-1968249D02*
G75*
G03*
X20406250Y-1968249I-150000J0D01*
G01*
X20106250Y-6104499D02*
X20406250Y-6404499D01*
X20406250Y-6104499D02*
X20106250Y-6404499D01*
X20406250Y-6254499D02*
G75*
G03*
X20406250Y-6254499I-150000J0D01*
G01*
X20265000Y-9660499D02*
X20565000Y-9960499D01*
X20565000Y-9660499D02*
X20265000Y-9960499D01*
X20565000Y-9810499D02*
G75*
G03*
X20565000Y-9810499I-150000J0D01*
G01*
X20582500Y-8009499D02*
X20882500Y-8309499D01*
X20882500Y-8009499D02*
X20582500Y-8309499D01*
X20882500Y-8159499D02*
G75*
G03*
X20882500Y-8159499I-150000J0D01*
G01*
X20741250Y-1564249D02*
X21041250Y-1864249D01*
X21041250Y-1564249D02*
X20741250Y-1864249D01*
X21041250Y-1714249D02*
G75*
G03*
X21041250Y-1714249I-150000J0D01*
G01*
X20741250Y-5850499D02*
X21041250Y-6150499D01*
X21041250Y-5850499D02*
X20741250Y-6150499D01*
X21041250Y-6000499D02*
G75*
G03*
X21041250Y-6000499I-150000J0D01*
G01*
X21058750Y-4199499D02*
X21358750Y-4499499D01*
X21358750Y-4199499D02*
X21058750Y-4499499D01*
X21358750Y-4349499D02*
G75*
G03*
X21358750Y-4349499I-150000J0D01*
G01*
X21217500Y-7755499D02*
X21517500Y-8055499D01*
X21517500Y-7755499D02*
X21217500Y-8055499D01*
X21517500Y-7905499D02*
G75*
G03*
X21517500Y-7905499I-150000J0D01*
G01*
X21535000Y-9914499D02*
X21835000Y-10214499D01*
X21835000Y-9914499D02*
X21535000Y-10214499D01*
X21835000Y-10064499D02*
G75*
G03*
X21835000Y-10064499I-150000J0D01*
G01*
X21693750Y-3945499D02*
X21993750Y-4245499D01*
X21993750Y-3945499D02*
X21693750Y-4245499D01*
X21993750Y-4095499D02*
G75*
G03*
X21993750Y-4095499I-150000J0D01*
G01*
X22011250Y-1818249D02*
X22311250Y-2118249D01*
X22311250Y-1818249D02*
X22011250Y-2118249D01*
X22311250Y-1968249D02*
G75*
G03*
X22311250Y-1968249I-150000J0D01*
G01*
X22011250Y-6104499D02*
X22311250Y-6404499D01*
X22311250Y-6104499D02*
X22011250Y-6404499D01*
X22311250Y-6254499D02*
G75*
G03*
X22311250Y-6254499I-150000J0D01*
G01*
X22170000Y-9660499D02*
X22470000Y-9960499D01*
X22470000Y-9660499D02*
X22170000Y-9960499D01*
X22470000Y-9810499D02*
G75*
G03*
X22470000Y-9810499I-150000J0D01*
G01*
X22487500Y-8009499D02*
X22787500Y-8309499D01*
X22787500Y-8009499D02*
X22487500Y-8309499D01*
X22787500Y-8159499D02*
G75*
G03*
X22787500Y-8159499I-150000J0D01*
G01*
X22646250Y-1564249D02*
X22946250Y-1864249D01*
X22946250Y-1564249D02*
X22646250Y-1864249D01*
X22946250Y-1714249D02*
G75*
G03*
X22946250Y-1714249I-150000J0D01*
G01*
X22646250Y-5850499D02*
X22946250Y-6150499D01*
X22946250Y-5850499D02*
X22646250Y-6150499D01*
X22946250Y-6000499D02*
G75*
G03*
X22946250Y-6000499I-150000J0D01*
G01*
X22963750Y-4199499D02*
X23263750Y-4499499D01*
X23263750Y-4199499D02*
X22963750Y-4499499D01*
X23263750Y-4349499D02*
G75*
G03*
X23263750Y-4349499I-150000J0D01*
G01*
X23122500Y-7755499D02*
X23422500Y-8055499D01*
X23422500Y-7755499D02*
X23122500Y-8055499D01*
X23422500Y-7905499D02*
G75*
G03*
X23422500Y-7905499I-150000J0D01*
G01*
X23440000Y-9914499D02*
X23740000Y-10214499D01*
X23740000Y-9914499D02*
X23440000Y-10214499D01*
X23740000Y-10064499D02*
G75*
G03*
X23740000Y-10064499I-150000J0D01*
G01*
X23598750Y-3945499D02*
X23898750Y-4245499D01*
X23898750Y-3945499D02*
X23598750Y-4245499D01*
X23898750Y-4095499D02*
G75*
G03*
X23898750Y-4095499I-150000J0D01*
G01*
X23916250Y-6104499D02*
X24216250Y-6404499D01*
X24216250Y-6104499D02*
X23916250Y-6404499D01*
X24216250Y-6254499D02*
G75*
G03*
X24216250Y-6254499I-150000J0D01*
G01*
X24075000Y-9660499D02*
X24375000Y-9960499D01*
X24375000Y-9660499D02*
X24075000Y-9960499D01*
X24375000Y-9810499D02*
G75*
G03*
X24375000Y-9810499I-150000J0D01*
G01*
X24392500Y-1818249D02*
X24692500Y-2118249D01*
X24692500Y-1818249D02*
X24392500Y-2118249D01*
X24692500Y-1968249D02*
G75*
G03*
X24692500Y-1968249I-150000J0D01*
G01*
X24392500Y-8009499D02*
X24692500Y-8309499D01*
X24692500Y-8009499D02*
X24392500Y-8309499D01*
X24692500Y-8159499D02*
G75*
G03*
X24692500Y-8159499I-150000J0D01*
G01*
X24551250Y-5850499D02*
X24851250Y-6150499D01*
X24851250Y-5850499D02*
X24551250Y-6150499D01*
X24851250Y-6000499D02*
G75*
G03*
X24851250Y-6000499I-150000J0D01*
G01*
X24868750Y-4199499D02*
X25168750Y-4499499D01*
X25168750Y-4199499D02*
X24868750Y-4499499D01*
X25168750Y-4349499D02*
G75*
G03*
X25168750Y-4349499I-150000J0D01*
G01*
X24868750Y-11819499D02*
X25168750Y-12119499D01*
X25168750Y-11819499D02*
X24868750Y-12119499D01*
X25168750Y-11969499D02*
G75*
G03*
X25168750Y-11969499I-150000J0D01*
G01*
X25027500Y-1564249D02*
X25327500Y-1864249D01*
X25327500Y-1564249D02*
X25027500Y-1864249D01*
X25327500Y-1714249D02*
G75*
G03*
X25327500Y-1714249I-150000J0D01*
G01*
X25027500Y-7755499D02*
X25327500Y-8055499D01*
X25327500Y-7755499D02*
X25027500Y-8055499D01*
X25327500Y-7905499D02*
G75*
G03*
X25327500Y-7905499I-150000J0D01*
G01*
X25345000Y-9914499D02*
X25645000Y-10214499D01*
X25645000Y-9914499D02*
X25345000Y-10214499D01*
X25645000Y-10064499D02*
G75*
G03*
X25645000Y-10064499I-150000J0D01*
G01*
X25503750Y-3945499D02*
X25803750Y-4245499D01*
X25803750Y-3945499D02*
X25503750Y-4245499D01*
X25803750Y-4095499D02*
G75*
G03*
X25803750Y-4095499I-150000J0D01*
G01*
X25503750Y-11565499D02*
X25803750Y-11865499D01*
X25803750Y-11565499D02*
X25503750Y-11865499D01*
X25803750Y-11715499D02*
G75*
G03*
X25803750Y-11715499I-150000J0D01*
G01*
X25821250Y-6104499D02*
X26121250Y-6404499D01*
X26121250Y-6104499D02*
X25821250Y-6404499D01*
X26121250Y-6254499D02*
G75*
G03*
X26121250Y-6254499I-150000J0D01*
G01*
X25980000Y-9660499D02*
X26280000Y-9960499D01*
X26280000Y-9660499D02*
X25980000Y-9960499D01*
X26280000Y-9810499D02*
G75*
G03*
X26280000Y-9810499I-150000J0D01*
G01*
X26297500Y-1818249D02*
X26597500Y-2118249D01*
X26597500Y-1818249D02*
X26297500Y-2118249D01*
X26597500Y-1968249D02*
G75*
G03*
X26597500Y-1968249I-150000J0D01*
G01*
X26297500Y-8009499D02*
X26597500Y-8309499D01*
X26597500Y-8009499D02*
X26297500Y-8309499D01*
X26597500Y-8159499D02*
G75*
G03*
X26597500Y-8159499I-150000J0D01*
G01*
X26456250Y-5850499D02*
X26756250Y-6150499D01*
X26756250Y-5850499D02*
X26456250Y-6150499D01*
X26756250Y-6000499D02*
G75*
G03*
X26756250Y-6000499I-150000J0D01*
G01*
X26773750Y-4199499D02*
X27073750Y-4499499D01*
X27073750Y-4199499D02*
X26773750Y-4499499D01*
X27073750Y-4349499D02*
G75*
G03*
X27073750Y-4349499I-150000J0D01*
G01*
X26773750Y-11819499D02*
X27073750Y-12119499D01*
X27073750Y-11819499D02*
X26773750Y-12119499D01*
X27073750Y-11969499D02*
G75*
G03*
X27073750Y-11969499I-150000J0D01*
G01*
X26932500Y-1564249D02*
X27232500Y-1864249D01*
X27232500Y-1564249D02*
X26932500Y-1864249D01*
X27232500Y-1714249D02*
G75*
G03*
X27232500Y-1714249I-150000J0D01*
G01*
X26932500Y-7755499D02*
X27232500Y-8055499D01*
X27232500Y-7755499D02*
X26932500Y-8055499D01*
X27232500Y-7905499D02*
G75*
G03*
X27232500Y-7905499I-150000J0D01*
G01*
X27250000Y-9914499D02*
X27550000Y-10214499D01*
X27550000Y-9914499D02*
X27250000Y-10214499D01*
X27550000Y-10064499D02*
G75*
G03*
X27550000Y-10064499I-150000J0D01*
G01*
X27408750Y-3945499D02*
X27708750Y-4245499D01*
X27708750Y-3945499D02*
X27408750Y-4245499D01*
X27708750Y-4095499D02*
G75*
G03*
X27708750Y-4095499I-150000J0D01*
G01*
X27408750Y-11565499D02*
X27708750Y-11865499D01*
X27708750Y-11565499D02*
X27408750Y-11865499D01*
X27708750Y-11715499D02*
G75*
G03*
X27708750Y-11715499I-150000J0D01*
G01*
X27726250Y-6104499D02*
X28026250Y-6404499D01*
X28026250Y-6104499D02*
X27726250Y-6404499D01*
X28026250Y-6254499D02*
G75*
G03*
X28026250Y-6254499I-150000J0D01*
G01*
X27885000Y-9660499D02*
X28185000Y-9960499D01*
X28185000Y-9660499D02*
X27885000Y-9960499D01*
X28185000Y-9810499D02*
G75*
G03*
X28185000Y-9810499I-150000J0D01*
G01*
X28202500Y-1818249D02*
X28502500Y-2118249D01*
X28502500Y-1818249D02*
X28202500Y-2118249D01*
X28502500Y-1968249D02*
G75*
G03*
X28502500Y-1968249I-150000J0D01*
G01*
X28202500Y-8009499D02*
X28502500Y-8309499D01*
X28502500Y-8009499D02*
X28202500Y-8309499D01*
X28502500Y-8159499D02*
G75*
G03*
X28502500Y-8159499I-150000J0D01*
G01*
X28361250Y-5850499D02*
X28661250Y-6150499D01*
X28661250Y-5850499D02*
X28361250Y-6150499D01*
X28661250Y-6000499D02*
G75*
G03*
X28661250Y-6000499I-150000J0D01*
G01*
X28678750Y-4199499D02*
X28978750Y-4499499D01*
X28978750Y-4199499D02*
X28678750Y-4499499D01*
X28978750Y-4349499D02*
G75*
G03*
X28978750Y-4349499I-150000J0D01*
G01*
X28678750Y-11819499D02*
X28978750Y-12119499D01*
X28978750Y-11819499D02*
X28678750Y-12119499D01*
X28978750Y-11969499D02*
G75*
G03*
X28978750Y-11969499I-150000J0D01*
G01*
X28837500Y-1564249D02*
X29137500Y-1864249D01*
X29137500Y-1564249D02*
X28837500Y-1864249D01*
X29137500Y-1714249D02*
G75*
G03*
X29137500Y-1714249I-150000J0D01*
G01*
X28837500Y-7755499D02*
X29137500Y-8055499D01*
X29137500Y-7755499D02*
X28837500Y-8055499D01*
X29137500Y-7905499D02*
G75*
G03*
X29137500Y-7905499I-150000J0D01*
G01*
X29313750Y-3945499D02*
X29613750Y-4245499D01*
X29613750Y-3945499D02*
X29313750Y-4245499D01*
X29613750Y-4095499D02*
G75*
G03*
X29613750Y-4095499I-150000J0D01*
G01*
X29313750Y-11565499D02*
X29613750Y-11865499D01*
X29613750Y-11565499D02*
X29313750Y-11865499D01*
X29613750Y-11715499D02*
G75*
G03*
X29613750Y-11715499I-150000J0D01*
G01*
X29631250Y-6104499D02*
X29931250Y-6404499D01*
X29931250Y-6104499D02*
X29631250Y-6404499D01*
X29931250Y-6254499D02*
G75*
G03*
X29931250Y-6254499I-150000J0D01*
G01*
X29869375Y-9914499D02*
X30169375Y-10214499D01*
X30169375Y-9914499D02*
X29869375Y-10214499D01*
X30169375Y-10064499D02*
G75*
G03*
X30169375Y-10064499I-150000J0D01*
G01*
X30107500Y-1818249D02*
X30407500Y-2118249D01*
X30407500Y-1818249D02*
X30107500Y-2118249D01*
X30407500Y-1968249D02*
G75*
G03*
X30407500Y-1968249I-150000J0D01*
G01*
X30266250Y-5850499D02*
X30566250Y-6150499D01*
X30566250Y-5850499D02*
X30266250Y-6150499D01*
X30566250Y-6000499D02*
G75*
G03*
X30566250Y-6000499I-150000J0D01*
G01*
X30504375Y-9660499D02*
X30804375Y-9960499D01*
X30804375Y-9660499D02*
X30504375Y-9960499D01*
X30804375Y-9810499D02*
G75*
G03*
X30804375Y-9810499I-150000J0D01*
G01*
X30742500Y-1564249D02*
X31042500Y-1864249D01*
X31042500Y-1564249D02*
X30742500Y-1864249D01*
X31042500Y-1714249D02*
G75*
G03*
X31042500Y-1714249I-150000J0D01*
G01*
X31060000Y-12295749D02*
X31360000Y-12595749D01*
X31360000Y-12295749D02*
X31060000Y-12595749D01*
X31360000Y-12445749D02*
G75*
G03*
X31360000Y-12445749I-150000J0D01*
G01*
X31298125Y-8009499D02*
X31598125Y-8309499D01*
X31598125Y-8009499D02*
X31298125Y-8309499D01*
X31598125Y-8159499D02*
G75*
G03*
X31598125Y-8159499I-150000J0D01*
G01*
X31536250Y-4199499D02*
X31836250Y-4499499D01*
X31836250Y-4199499D02*
X31536250Y-4499499D01*
X31836250Y-4349499D02*
G75*
G03*
X31836250Y-4349499I-150000J0D01*
G01*
X31695000Y-12041749D02*
X31995000Y-12341749D01*
X31995000Y-12041749D02*
X31695000Y-12341749D01*
X31995000Y-12191749D02*
G75*
G03*
X31995000Y-12191749I-150000J0D01*
G01*
X31933125Y-7755499D02*
X32233125Y-8055499D01*
X32233125Y-7755499D02*
X31933125Y-8055499D01*
X32233125Y-7905499D02*
G75*
G03*
X32233125Y-7905499I-150000J0D01*
G01*
X32012500Y-6104499D02*
X32312500Y-6404499D01*
X32312500Y-6104499D02*
X32012500Y-6404499D01*
X32312500Y-6254499D02*
G75*
G03*
X32312500Y-6254499I-150000J0D01*
G01*
X32171250Y-3945499D02*
X32471250Y-4245499D01*
X32471250Y-3945499D02*
X32171250Y-4245499D01*
X32471250Y-4095499D02*
G75*
G03*
X32471250Y-4095499I-150000J0D01*
G01*
X32488750Y-1818249D02*
X32788750Y-2118249D01*
X32788750Y-1818249D02*
X32488750Y-2118249D01*
X32788750Y-1968249D02*
G75*
G03*
X32788750Y-1968249I-150000J0D01*
G01*
X32647500Y-5850499D02*
X32947500Y-6150499D01*
X32947500Y-5850499D02*
X32647500Y-6150499D01*
X32947500Y-6000499D02*
G75*
G03*
X32947500Y-6000499I-150000J0D01*
G01*
X32965000Y-10390749D02*
X33265000Y-10690749D01*
X33265000Y-10390749D02*
X32965000Y-10690749D01*
X33265000Y-10540749D02*
G75*
G03*
X33265000Y-10540749I-150000J0D01*
G01*
X32965000Y-12295749D02*
X33265000Y-12595749D01*
X33265000Y-12295749D02*
X32965000Y-12595749D01*
X33265000Y-12445749D02*
G75*
G03*
X33265000Y-12445749I-150000J0D01*
G01*
X33123750Y-1564249D02*
X33423750Y-1864249D01*
X33423750Y-1564249D02*
X33123750Y-1864249D01*
X33423750Y-1714249D02*
G75*
G03*
X33423750Y-1714249I-150000J0D01*
G01*
X33600000Y-10136749D02*
X33900000Y-10436749D01*
X33900000Y-10136749D02*
X33600000Y-10436749D01*
X33900000Y-10286749D02*
G75*
G03*
X33900000Y-10286749I-150000J0D01*
G01*
X33600000Y-12041749D02*
X33900000Y-12341749D01*
X33900000Y-12041749D02*
X33600000Y-12341749D01*
X33900000Y-12191749D02*
G75*
G03*
X33900000Y-12191749I-150000J0D01*
G01*
X34870000Y-12295749D02*
X35170000Y-12595749D01*
X35170000Y-12295749D02*
X34870000Y-12595749D01*
X35170000Y-12445749D02*
G75*
G03*
X35170000Y-12445749I-150000J0D01*
G01*
X35346250Y-1818249D02*
X35646250Y-2118249D01*
X35646250Y-1818249D02*
X35346250Y-2118249D01*
X35646250Y-1968249D02*
G75*
G03*
X35646250Y-1968249I-150000J0D01*
G01*
X35346250Y-4199499D02*
X35646250Y-4499499D01*
X35646250Y-4199499D02*
X35346250Y-4499499D01*
X35646250Y-4349499D02*
G75*
G03*
X35646250Y-4349499I-150000J0D01*
G01*
X35346250Y-6104499D02*
X35646250Y-6404499D01*
X35646250Y-6104499D02*
X35346250Y-6404499D01*
X35646250Y-6254499D02*
G75*
G03*
X35646250Y-6254499I-150000J0D01*
G01*
X35346250Y-8009499D02*
X35646250Y-8309499D01*
X35646250Y-8009499D02*
X35346250Y-8309499D01*
X35646250Y-8159499D02*
G75*
G03*
X35646250Y-8159499I-150000J0D01*
G01*
X35346250Y-9914499D02*
X35646250Y-10214499D01*
X35646250Y-9914499D02*
X35346250Y-10214499D01*
X35646250Y-10064499D02*
G75*
G03*
X35646250Y-10064499I-150000J0D01*
G01*
X35505000Y-12041749D02*
X35805000Y-12341749D01*
X35805000Y-12041749D02*
X35505000Y-12341749D01*
X35805000Y-12191749D02*
G75*
G03*
X35805000Y-12191749I-150000J0D01*
G01*
X35981250Y-1564249D02*
X36281250Y-1864249D01*
X36281250Y-1564249D02*
X35981250Y-1864249D01*
X36281250Y-1714249D02*
G75*
G03*
X36281250Y-1714249I-150000J0D01*
G01*
X35981250Y-3945499D02*
X36281250Y-4245499D01*
X36281250Y-3945499D02*
X35981250Y-4245499D01*
X36281250Y-4095499D02*
G75*
G03*
X36281250Y-4095499I-150000J0D01*
G01*
X35981250Y-5850499D02*
X36281250Y-6150499D01*
X36281250Y-5850499D02*
X35981250Y-6150499D01*
X36281250Y-6000499D02*
G75*
G03*
X36281250Y-6000499I-150000J0D01*
G01*
X35981250Y-7755499D02*
X36281250Y-8055499D01*
X36281250Y-7755499D02*
X35981250Y-8055499D01*
X36281250Y-7905499D02*
G75*
G03*
X36281250Y-7905499I-150000J0D01*
G01*
X35981250Y-9660499D02*
X36281250Y-9960499D01*
X36281250Y-9660499D02*
X35981250Y-9960499D01*
X36281250Y-9810499D02*
G75*
G03*
X36281250Y-9810499I-150000J0D01*
G01*
D17*
X6197350Y-9467599D02*
X6502150Y-9772399D01*
X6502150Y-9467599D02*
X6197350Y-9772399D01*
X6349750Y-9467599D02*
X6349750Y-9772399D01*
X6197350Y-9619999D02*
X6502150Y-9619999D01*
X8578600Y-9467599D02*
X8883400Y-9772399D01*
X8883400Y-9467599D02*
X8578600Y-9772399D01*
X8731000Y-9467599D02*
X8731000Y-9772399D01*
X8578600Y-9619999D02*
X8883400Y-9619999D01*
X13341100Y-11372599D02*
X13645900Y-11677399D01*
X13645900Y-11372599D02*
X13341100Y-11677399D01*
X13493500Y-11372599D02*
X13493500Y-11677399D01*
X13341100Y-11524999D02*
X13645900Y-11524999D01*
X23342350Y-11372599D02*
X23647150Y-11677399D01*
X23647150Y-11372599D02*
X23342350Y-11677399D01*
X23494750Y-11372599D02*
X23494750Y-11677399D01*
X23342350Y-11524999D02*
X23647150Y-11524999D01*
X30486100Y-7562599D02*
X30790900Y-7867399D01*
X30790900Y-7562599D02*
X30486100Y-7867399D01*
X30638500Y-7562599D02*
X30638500Y-7867399D01*
X30486100Y-7714999D02*
X30790900Y-7714999D01*
X30724225Y-3752599D02*
X31029025Y-4057399D01*
X31029025Y-3752599D02*
X30724225Y-4057399D01*
X30876625Y-3752599D02*
X30876625Y-4057399D01*
X30724225Y-3904999D02*
X31029025Y-3904999D01*
X32867350Y-7562599D02*
X33172150Y-7867399D01*
X33172150Y-7562599D02*
X32867350Y-7867399D01*
X33019750Y-7562599D02*
X33019750Y-7867399D01*
X32867350Y-7714999D02*
X33172150Y-7714999D01*
X33105475Y-3752599D02*
X33410275Y-4057399D01*
X33410275Y-3752599D02*
X33105475Y-4057399D01*
X33257875Y-3752599D02*
X33257875Y-4057399D01*
X33105475Y-3904999D02*
X33410275Y-3904999D01*
D18*
X978812Y-273374D02*
X1298813Y-593374D01*
X1298813Y-273374D02*
X978812Y-593374D01*
X1251951Y-546513D02*
X1251951Y-320236D01*
X1025674Y-320236D01*
X1025674Y-546513D01*
X1251951Y-546513D01*
X978812Y-3133374D02*
X1298813Y-3453374D01*
X1298813Y-3133374D02*
X978812Y-3453374D01*
X1251951Y-3406512D02*
X1251951Y-3180236D01*
X1025674Y-3180236D01*
X1025674Y-3406512D01*
X1251951Y-3406512D01*
X4028812Y-273374D02*
X4348813Y-593374D01*
X4348813Y-273374D02*
X4028812Y-593374D01*
X4301951Y-546513D02*
X4301951Y-320236D01*
X4075674Y-320236D01*
X4075674Y-546513D01*
X4301951Y-546513D01*
X4028812Y-3133374D02*
X4348813Y-3453374D01*
X4348813Y-3133374D02*
X4028812Y-3453374D01*
X4301951Y-3406512D02*
X4301951Y-3180236D01*
X4075674Y-3180236D01*
X4075674Y-3406512D01*
X4301951Y-3406512D01*
D11*
X252369Y-14126475D02*
X252369Y-13926475D01*
X299988Y-13926475D01*
X328560Y-13935999D01*
X347607Y-13955047D01*
X357131Y-13974094D01*
X366655Y-14012190D01*
X366655Y-14040761D01*
X357131Y-14078856D01*
X347607Y-14097904D01*
X328560Y-14116952D01*
X299988Y-14126475D01*
X252369Y-14126475D01*
X452369Y-14126475D02*
X452369Y-13993142D01*
X452369Y-14031237D02*
X461893Y-14012190D01*
X471417Y-14002666D01*
X490464Y-13993142D01*
X509512Y-13993142D01*
X576179Y-14126475D02*
X576179Y-13993142D01*
X576179Y-13926475D02*
X566655Y-13935999D01*
X576179Y-13945523D01*
X585702Y-13935999D01*
X576179Y-13926475D01*
X576179Y-13945523D01*
X699988Y-14126475D02*
X680940Y-14116952D01*
X671417Y-14097904D01*
X671417Y-13926475D01*
X804750Y-14126475D02*
X785702Y-14116952D01*
X776178Y-14097904D01*
X776178Y-13926475D01*
X1033321Y-14126475D02*
X1033321Y-13926475D01*
X1099988Y-14069333D01*
X1166655Y-13926475D01*
X1166655Y-14126475D01*
X1347607Y-14126475D02*
X1347607Y-14021713D01*
X1338083Y-14002666D01*
X1319036Y-13993142D01*
X1280940Y-13993142D01*
X1261893Y-14002666D01*
X1347607Y-14116952D02*
X1328560Y-14126475D01*
X1280940Y-14126475D01*
X1261893Y-14116952D01*
X1252369Y-14097904D01*
X1252369Y-14078856D01*
X1261893Y-14059809D01*
X1280940Y-14050285D01*
X1328560Y-14050285D01*
X1347607Y-14040761D01*
X1442845Y-13993142D02*
X1442845Y-14193142D01*
X1442845Y-14002666D02*
X1461893Y-13993142D01*
X1499988Y-13993142D01*
X1519036Y-14002666D01*
X1528559Y-14012190D01*
X1538083Y-14031237D01*
X1538083Y-14088380D01*
X1528559Y-14107428D01*
X1519036Y-14116952D01*
X1499988Y-14126475D01*
X1461893Y-14126475D01*
X1442845Y-14116952D01*
X1623798Y-14107428D02*
X1633321Y-14116952D01*
X1623798Y-14126475D01*
X1614274Y-14116952D01*
X1623798Y-14107428D01*
X1623798Y-14126475D01*
X1623798Y-14002666D02*
X1633321Y-14012190D01*
X1623798Y-14021713D01*
X1614274Y-14012190D01*
X1623798Y-14002666D01*
X1623798Y-14021713D01*
D12*
X-45250Y-14435999D02*
X-5250Y-14475999D01*
X-5250Y-14435999D02*
X-45250Y-14475999D01*
D11*
X290464Y-14346475D02*
X309512Y-14346475D01*
X328560Y-14355999D01*
X338083Y-14365523D01*
X347607Y-14384571D01*
X357131Y-14422666D01*
X357131Y-14470285D01*
X347607Y-14508380D01*
X338083Y-14527428D01*
X328560Y-14536952D01*
X309512Y-14546475D01*
X290464Y-14546475D01*
X271417Y-14536952D01*
X261893Y-14527428D01*
X252369Y-14508380D01*
X242845Y-14470285D01*
X242845Y-14422666D01*
X252369Y-14384571D01*
X261893Y-14365523D01*
X271417Y-14355999D01*
X290464Y-14346475D01*
X442845Y-14527428D02*
X452369Y-14536952D01*
X442845Y-14546475D01*
X433321Y-14536952D01*
X442845Y-14527428D01*
X442845Y-14546475D01*
X623798Y-14413142D02*
X623798Y-14546475D01*
X576179Y-14336952D02*
X528560Y-14479809D01*
X652369Y-14479809D01*
X766655Y-14346475D02*
X785702Y-14346475D01*
X804750Y-14355999D01*
X814274Y-14365523D01*
X823798Y-14384571D01*
X833321Y-14422666D01*
X833321Y-14470285D01*
X823798Y-14508380D01*
X814274Y-14527428D01*
X804750Y-14536952D01*
X785702Y-14546475D01*
X766655Y-14546475D01*
X747607Y-14536952D01*
X738083Y-14527428D01*
X728559Y-14508380D01*
X719036Y-14470285D01*
X719036Y-14422666D01*
X728559Y-14384571D01*
X738083Y-14365523D01*
X747607Y-14355999D01*
X766655Y-14346475D01*
X957131Y-14346475D02*
X976178Y-14346475D01*
X995226Y-14355999D01*
X1004750Y-14365523D01*
X1014274Y-14384571D01*
X1023798Y-14422666D01*
X1023798Y-14470285D01*
X1014274Y-14508380D01*
X1004750Y-14527428D01*
X995226Y-14536952D01*
X976178Y-14546475D01*
X957131Y-14546475D01*
X938083Y-14536952D01*
X928559Y-14527428D01*
X919036Y-14508380D01*
X909512Y-14470285D01*
X909512Y-14422666D01*
X919036Y-14384571D01*
X928559Y-14365523D01*
X938083Y-14355999D01*
X957131Y-14346475D01*
X1109512Y-14546475D02*
X1109512Y-14413142D01*
X1109512Y-14432190D02*
X1119036Y-14422666D01*
X1138083Y-14413142D01*
X1166655Y-14413142D01*
X1185702Y-14422666D01*
X1195226Y-14441713D01*
X1195226Y-14546475D01*
X1195226Y-14441713D02*
X1204750Y-14422666D01*
X1223798Y-14413142D01*
X1252369Y-14413142D01*
X1271417Y-14422666D01*
X1280940Y-14441713D01*
X1280940Y-14546475D01*
X1376179Y-14546475D02*
X1376179Y-14413142D01*
X1376179Y-14432190D02*
X1385702Y-14422666D01*
X1404750Y-14413142D01*
X1433321Y-14413142D01*
X1452369Y-14422666D01*
X1461893Y-14441713D01*
X1461893Y-14546475D01*
X1461893Y-14441713D02*
X1471417Y-14422666D01*
X1490464Y-14413142D01*
X1519036Y-14413142D01*
X1538083Y-14422666D01*
X1547607Y-14441713D01*
X1547607Y-14546475D01*
X1938083Y-14336952D02*
X1766655Y-14594094D01*
X2195226Y-14346475D02*
X2214274Y-14346475D01*
X2233321Y-14355999D01*
X2242845Y-14365523D01*
X2252369Y-14384571D01*
X2261893Y-14422666D01*
X2261893Y-14470285D01*
X2252369Y-14508380D01*
X2242845Y-14527428D01*
X2233321Y-14536952D01*
X2214274Y-14546475D01*
X2195226Y-14546475D01*
X2176179Y-14536952D01*
X2166655Y-14527428D01*
X2157131Y-14508380D01*
X2147607Y-14470285D01*
X2147607Y-14422666D01*
X2157131Y-14384571D01*
X2166655Y-14365523D01*
X2176179Y-14355999D01*
X2195226Y-14346475D01*
X2347607Y-14527428D02*
X2357131Y-14536952D01*
X2347607Y-14546475D01*
X2338083Y-14536952D01*
X2347607Y-14527428D01*
X2347607Y-14546475D01*
X2480940Y-14346475D02*
X2499988Y-14346475D01*
X2519036Y-14355999D01*
X2528560Y-14365523D01*
X2538083Y-14384571D01*
X2547607Y-14422666D01*
X2547607Y-14470285D01*
X2538083Y-14508380D01*
X2528560Y-14527428D01*
X2519036Y-14536952D01*
X2499988Y-14546475D01*
X2480940Y-14546475D01*
X2461893Y-14536952D01*
X2452369Y-14527428D01*
X2442845Y-14508380D01*
X2433321Y-14470285D01*
X2433321Y-14422666D01*
X2442845Y-14384571D01*
X2452369Y-14365523D01*
X2461893Y-14355999D01*
X2480940Y-14346475D01*
X2738083Y-14546475D02*
X2623798Y-14546475D01*
X2680940Y-14546475D02*
X2680940Y-14346475D01*
X2661893Y-14375047D01*
X2642845Y-14394094D01*
X2623798Y-14403618D01*
X2919036Y-14346475D02*
X2823798Y-14346475D01*
X2814274Y-14441713D01*
X2823798Y-14432190D01*
X2842845Y-14422666D01*
X2890464Y-14422666D01*
X2909512Y-14432190D01*
X2919036Y-14441713D01*
X2928559Y-14460761D01*
X2928559Y-14508380D01*
X2919036Y-14527428D01*
X2909512Y-14536952D01*
X2890464Y-14546475D01*
X2842845Y-14546475D01*
X2823798Y-14536952D01*
X2814274Y-14527428D01*
X2995226Y-14346475D02*
X3128559Y-14346475D01*
X3042845Y-14546475D01*
X3195226Y-14346475D02*
X3195226Y-14384571D01*
X3271417Y-14346475D02*
X3271417Y-14384571D01*
X3566655Y-14622666D02*
X3557131Y-14613142D01*
X3538083Y-14584571D01*
X3528559Y-14565523D01*
X3519036Y-14536952D01*
X3509512Y-14489333D01*
X3509512Y-14451237D01*
X3519036Y-14403618D01*
X3528559Y-14375047D01*
X3538083Y-14355999D01*
X3557131Y-14327428D01*
X3566655Y-14317904D01*
X3738083Y-14346475D02*
X3642845Y-14346475D01*
X3633321Y-14441713D01*
X3642845Y-14432190D01*
X3661893Y-14422666D01*
X3709512Y-14422666D01*
X3728559Y-14432190D01*
X3738083Y-14441713D01*
X3747607Y-14460761D01*
X3747607Y-14508380D01*
X3738083Y-14527428D01*
X3728559Y-14536952D01*
X3709512Y-14546475D01*
X3661893Y-14546475D01*
X3642845Y-14536952D01*
X3633321Y-14527428D01*
X3938083Y-14546475D02*
X3823798Y-14546475D01*
X3880940Y-14546475D02*
X3880940Y-14346475D01*
X3861893Y-14375047D01*
X3842845Y-14394094D01*
X3823798Y-14403618D01*
X4176178Y-14546475D02*
X4176178Y-14346475D01*
X4261893Y-14546475D02*
X4261893Y-14441713D01*
X4252369Y-14422666D01*
X4233321Y-14413142D01*
X4204750Y-14413142D01*
X4185702Y-14422666D01*
X4176178Y-14432190D01*
X4385702Y-14546475D02*
X4366655Y-14536952D01*
X4357131Y-14527428D01*
X4347607Y-14508380D01*
X4347607Y-14451237D01*
X4357131Y-14432190D01*
X4366655Y-14422666D01*
X4385702Y-14413142D01*
X4414274Y-14413142D01*
X4433321Y-14422666D01*
X4442845Y-14432190D01*
X4452369Y-14451237D01*
X4452369Y-14508380D01*
X4442845Y-14527428D01*
X4433321Y-14536952D01*
X4414274Y-14546475D01*
X4385702Y-14546475D01*
X4566655Y-14546475D02*
X4547607Y-14536952D01*
X4538083Y-14517904D01*
X4538083Y-14346475D01*
X4719036Y-14536952D02*
X4699988Y-14546475D01*
X4661893Y-14546475D01*
X4642845Y-14536952D01*
X4633321Y-14517904D01*
X4633321Y-14441713D01*
X4642845Y-14422666D01*
X4661893Y-14413142D01*
X4699988Y-14413142D01*
X4719036Y-14422666D01*
X4728560Y-14441713D01*
X4728560Y-14460761D01*
X4633321Y-14479809D01*
X4804750Y-14536952D02*
X4823798Y-14546475D01*
X4861893Y-14546475D01*
X4880940Y-14536952D01*
X4890464Y-14517904D01*
X4890464Y-14508380D01*
X4880940Y-14489333D01*
X4861893Y-14479809D01*
X4833321Y-14479809D01*
X4814274Y-14470285D01*
X4804750Y-14451237D01*
X4804750Y-14441713D01*
X4814274Y-14422666D01*
X4833321Y-14413142D01*
X4861893Y-14413142D01*
X4880940Y-14422666D01*
X4957131Y-14622666D02*
X4966655Y-14613142D01*
X4985702Y-14584571D01*
X4995226Y-14565523D01*
X5004750Y-14536952D01*
X5014274Y-14489333D01*
X5014274Y-14451237D01*
X5004750Y-14403618D01*
X4995226Y-14375047D01*
X4985702Y-14355999D01*
X4966655Y-14327428D01*
X4957131Y-14317904D01*
D13*
X-5250Y-14719999D02*
G75*
G03*
X-5250Y-14719999I-25000J0D01*
G01*
D11*
X290464Y-14610475D02*
X309512Y-14610475D01*
X328560Y-14619999D01*
X338083Y-14629523D01*
X347607Y-14648571D01*
X357131Y-14686666D01*
X357131Y-14734285D01*
X347607Y-14772380D01*
X338083Y-14791428D01*
X328560Y-14800952D01*
X309512Y-14810475D01*
X290464Y-14810475D01*
X271417Y-14800952D01*
X261893Y-14791428D01*
X252369Y-14772380D01*
X242845Y-14734285D01*
X242845Y-14686666D01*
X252369Y-14648571D01*
X261893Y-14629523D01*
X271417Y-14619999D01*
X290464Y-14610475D01*
X442845Y-14791428D02*
X452369Y-14800952D01*
X442845Y-14810475D01*
X433321Y-14800952D01*
X442845Y-14791428D01*
X442845Y-14810475D01*
X633321Y-14610475D02*
X538083Y-14610475D01*
X528560Y-14705713D01*
X538083Y-14696190D01*
X557131Y-14686666D01*
X604750Y-14686666D01*
X623798Y-14696190D01*
X633321Y-14705713D01*
X642845Y-14724761D01*
X642845Y-14772380D01*
X633321Y-14791428D01*
X623798Y-14800952D01*
X604750Y-14810475D01*
X557131Y-14810475D01*
X538083Y-14800952D01*
X528560Y-14791428D01*
X766655Y-14610475D02*
X785702Y-14610475D01*
X804750Y-14619999D01*
X814274Y-14629523D01*
X823798Y-14648571D01*
X833321Y-14686666D01*
X833321Y-14734285D01*
X823798Y-14772380D01*
X814274Y-14791428D01*
X804750Y-14800952D01*
X785702Y-14810475D01*
X766655Y-14810475D01*
X747607Y-14800952D01*
X738083Y-14791428D01*
X728559Y-14772380D01*
X719036Y-14734285D01*
X719036Y-14686666D01*
X728559Y-14648571D01*
X738083Y-14629523D01*
X747607Y-14619999D01*
X766655Y-14610475D01*
X957131Y-14610475D02*
X976178Y-14610475D01*
X995226Y-14619999D01*
X1004750Y-14629523D01*
X1014274Y-14648571D01*
X1023798Y-14686666D01*
X1023798Y-14734285D01*
X1014274Y-14772380D01*
X1004750Y-14791428D01*
X995226Y-14800952D01*
X976178Y-14810475D01*
X957131Y-14810475D01*
X938083Y-14800952D01*
X928559Y-14791428D01*
X919036Y-14772380D01*
X909512Y-14734285D01*
X909512Y-14686666D01*
X919036Y-14648571D01*
X928559Y-14629523D01*
X938083Y-14619999D01*
X957131Y-14610475D01*
X1109512Y-14810475D02*
X1109512Y-14677142D01*
X1109512Y-14696190D02*
X1119036Y-14686666D01*
X1138083Y-14677142D01*
X1166655Y-14677142D01*
X1185702Y-14686666D01*
X1195226Y-14705713D01*
X1195226Y-14810475D01*
X1195226Y-14705713D02*
X1204750Y-14686666D01*
X1223798Y-14677142D01*
X1252369Y-14677142D01*
X1271417Y-14686666D01*
X1280940Y-14705713D01*
X1280940Y-14810475D01*
X1376179Y-14810475D02*
X1376179Y-14677142D01*
X1376179Y-14696190D02*
X1385702Y-14686666D01*
X1404750Y-14677142D01*
X1433321Y-14677142D01*
X1452369Y-14686666D01*
X1461893Y-14705713D01*
X1461893Y-14810475D01*
X1461893Y-14705713D02*
X1471417Y-14686666D01*
X1490464Y-14677142D01*
X1519036Y-14677142D01*
X1538083Y-14686666D01*
X1547607Y-14705713D01*
X1547607Y-14810475D01*
X1938083Y-14600952D02*
X1766655Y-14858094D01*
X2195226Y-14610475D02*
X2214274Y-14610475D01*
X2233321Y-14619999D01*
X2242845Y-14629523D01*
X2252369Y-14648571D01*
X2261893Y-14686666D01*
X2261893Y-14734285D01*
X2252369Y-14772380D01*
X2242845Y-14791428D01*
X2233321Y-14800952D01*
X2214274Y-14810475D01*
X2195226Y-14810475D01*
X2176179Y-14800952D01*
X2166655Y-14791428D01*
X2157131Y-14772380D01*
X2147607Y-14734285D01*
X2147607Y-14686666D01*
X2157131Y-14648571D01*
X2166655Y-14629523D01*
X2176179Y-14619999D01*
X2195226Y-14610475D01*
X2347607Y-14791428D02*
X2357131Y-14800952D01*
X2347607Y-14810475D01*
X2338083Y-14800952D01*
X2347607Y-14791428D01*
X2347607Y-14810475D01*
X2480940Y-14610475D02*
X2499988Y-14610475D01*
X2519036Y-14619999D01*
X2528560Y-14629523D01*
X2538083Y-14648571D01*
X2547607Y-14686666D01*
X2547607Y-14734285D01*
X2538083Y-14772380D01*
X2528560Y-14791428D01*
X2519036Y-14800952D01*
X2499988Y-14810475D01*
X2480940Y-14810475D01*
X2461893Y-14800952D01*
X2452369Y-14791428D01*
X2442845Y-14772380D01*
X2433321Y-14734285D01*
X2433321Y-14686666D01*
X2442845Y-14648571D01*
X2452369Y-14629523D01*
X2461893Y-14619999D01*
X2480940Y-14610475D01*
X2738083Y-14810475D02*
X2623798Y-14810475D01*
X2680940Y-14810475D02*
X2680940Y-14610475D01*
X2661893Y-14639047D01*
X2642845Y-14658094D01*
X2623798Y-14667618D01*
X2833321Y-14810475D02*
X2871417Y-14810475D01*
X2890464Y-14800952D01*
X2899988Y-14791428D01*
X2919036Y-14762856D01*
X2928559Y-14724761D01*
X2928559Y-14648571D01*
X2919036Y-14629523D01*
X2909512Y-14619999D01*
X2890464Y-14610475D01*
X2852369Y-14610475D01*
X2833321Y-14619999D01*
X2823798Y-14629523D01*
X2814274Y-14648571D01*
X2814274Y-14696190D01*
X2823798Y-14715237D01*
X2833321Y-14724761D01*
X2852369Y-14734285D01*
X2890464Y-14734285D01*
X2909512Y-14724761D01*
X2919036Y-14715237D01*
X2928559Y-14696190D01*
X2995226Y-14610475D02*
X3128559Y-14610475D01*
X3042845Y-14810475D01*
X3195226Y-14610475D02*
X3195226Y-14648571D01*
X3271417Y-14610475D02*
X3271417Y-14648571D01*
X3566655Y-14886666D02*
X3557131Y-14877142D01*
X3538083Y-14848571D01*
X3528559Y-14829523D01*
X3519036Y-14800952D01*
X3509512Y-14753333D01*
X3509512Y-14715237D01*
X3519036Y-14667618D01*
X3528559Y-14639047D01*
X3538083Y-14619999D01*
X3557131Y-14591428D01*
X3566655Y-14581904D01*
X3623798Y-14610475D02*
X3747607Y-14610475D01*
X3680940Y-14686666D01*
X3709512Y-14686666D01*
X3728559Y-14696190D01*
X3738083Y-14705713D01*
X3747607Y-14724761D01*
X3747607Y-14772380D01*
X3738083Y-14791428D01*
X3728559Y-14800952D01*
X3709512Y-14810475D01*
X3652369Y-14810475D01*
X3633321Y-14800952D01*
X3623798Y-14791428D01*
X3985702Y-14810475D02*
X3985702Y-14610475D01*
X4071417Y-14810475D02*
X4071417Y-14705713D01*
X4061893Y-14686666D01*
X4042845Y-14677142D01*
X4014274Y-14677142D01*
X3995226Y-14686666D01*
X3985702Y-14696190D01*
X4195226Y-14810475D02*
X4176178Y-14800952D01*
X4166655Y-14791428D01*
X4157131Y-14772380D01*
X4157131Y-14715237D01*
X4166655Y-14696190D01*
X4176178Y-14686666D01*
X4195226Y-14677142D01*
X4223798Y-14677142D01*
X4242845Y-14686666D01*
X4252369Y-14696190D01*
X4261893Y-14715237D01*
X4261893Y-14772380D01*
X4252369Y-14791428D01*
X4242845Y-14800952D01*
X4223798Y-14810475D01*
X4195226Y-14810475D01*
X4376179Y-14810475D02*
X4357131Y-14800952D01*
X4347607Y-14781904D01*
X4347607Y-14610475D01*
X4528560Y-14800952D02*
X4509512Y-14810475D01*
X4471417Y-14810475D01*
X4452369Y-14800952D01*
X4442845Y-14781904D01*
X4442845Y-14705713D01*
X4452369Y-14686666D01*
X4471417Y-14677142D01*
X4509512Y-14677142D01*
X4528560Y-14686666D01*
X4538083Y-14705713D01*
X4538083Y-14724761D01*
X4442845Y-14743809D01*
X4614274Y-14800952D02*
X4633321Y-14810475D01*
X4671417Y-14810475D01*
X4690464Y-14800952D01*
X4699988Y-14781904D01*
X4699988Y-14772380D01*
X4690464Y-14753333D01*
X4671417Y-14743809D01*
X4642845Y-14743809D01*
X4623798Y-14734285D01*
X4614274Y-14715237D01*
X4614274Y-14705713D01*
X4623798Y-14686666D01*
X4642845Y-14677142D01*
X4671417Y-14677142D01*
X4690464Y-14686666D01*
X4766655Y-14886666D02*
X4776179Y-14877142D01*
X4795226Y-14848571D01*
X4804750Y-14829523D01*
X4814274Y-14800952D01*
X4823798Y-14753333D01*
X4823798Y-14715237D01*
X4814274Y-14667618D01*
X4804750Y-14639047D01*
X4795226Y-14619999D01*
X4776179Y-14591428D01*
X4766655Y-14581904D01*
D14*
X-35250Y-14953999D02*
X-35250Y-15013999D01*
X-65250Y-14983999D02*
X-5250Y-14983999D01*
D11*
X290464Y-14874475D02*
X309512Y-14874475D01*
X328560Y-14883999D01*
X338083Y-14893523D01*
X347607Y-14912571D01*
X357131Y-14950666D01*
X357131Y-14998285D01*
X347607Y-15036380D01*
X338083Y-15055428D01*
X328560Y-15064952D01*
X309512Y-15074475D01*
X290464Y-15074475D01*
X271417Y-15064952D01*
X261893Y-15055428D01*
X252369Y-15036380D01*
X242845Y-14998285D01*
X242845Y-14950666D01*
X252369Y-14912571D01*
X261893Y-14893523D01*
X271417Y-14883999D01*
X290464Y-14874475D01*
X442845Y-15055428D02*
X452369Y-15064952D01*
X442845Y-15074475D01*
X433321Y-15064952D01*
X442845Y-15055428D01*
X442845Y-15074475D01*
X623798Y-14874475D02*
X585702Y-14874475D01*
X566655Y-14883999D01*
X557131Y-14893523D01*
X538083Y-14922094D01*
X528560Y-14960190D01*
X528560Y-15036380D01*
X538083Y-15055428D01*
X547607Y-15064952D01*
X566655Y-15074475D01*
X604750Y-15074475D01*
X623798Y-15064952D01*
X633321Y-15055428D01*
X642845Y-15036380D01*
X642845Y-14988761D01*
X633321Y-14969713D01*
X623798Y-14960190D01*
X604750Y-14950666D01*
X566655Y-14950666D01*
X547607Y-14960190D01*
X538083Y-14969713D01*
X528560Y-14988761D01*
X766655Y-14874475D02*
X785702Y-14874475D01*
X804750Y-14883999D01*
X814274Y-14893523D01*
X823798Y-14912571D01*
X833321Y-14950666D01*
X833321Y-14998285D01*
X823798Y-15036380D01*
X814274Y-15055428D01*
X804750Y-15064952D01*
X785702Y-15074475D01*
X766655Y-15074475D01*
X747607Y-15064952D01*
X738083Y-15055428D01*
X728559Y-15036380D01*
X719036Y-14998285D01*
X719036Y-14950666D01*
X728559Y-14912571D01*
X738083Y-14893523D01*
X747607Y-14883999D01*
X766655Y-14874475D01*
X957131Y-14874475D02*
X976178Y-14874475D01*
X995226Y-14883999D01*
X1004750Y-14893523D01*
X1014274Y-14912571D01*
X1023798Y-14950666D01*
X1023798Y-14998285D01*
X1014274Y-15036380D01*
X1004750Y-15055428D01*
X995226Y-15064952D01*
X976178Y-15074475D01*
X957131Y-15074475D01*
X938083Y-15064952D01*
X928559Y-15055428D01*
X919036Y-15036380D01*
X909512Y-14998285D01*
X909512Y-14950666D01*
X919036Y-14912571D01*
X928559Y-14893523D01*
X938083Y-14883999D01*
X957131Y-14874475D01*
X1109512Y-15074475D02*
X1109512Y-14941142D01*
X1109512Y-14960190D02*
X1119036Y-14950666D01*
X1138083Y-14941142D01*
X1166655Y-14941142D01*
X1185702Y-14950666D01*
X1195226Y-14969713D01*
X1195226Y-15074475D01*
X1195226Y-14969713D02*
X1204750Y-14950666D01*
X1223798Y-14941142D01*
X1252369Y-14941142D01*
X1271417Y-14950666D01*
X1280940Y-14969713D01*
X1280940Y-15074475D01*
X1376179Y-15074475D02*
X1376179Y-14941142D01*
X1376179Y-14960190D02*
X1385702Y-14950666D01*
X1404750Y-14941142D01*
X1433321Y-14941142D01*
X1452369Y-14950666D01*
X1461893Y-14969713D01*
X1461893Y-15074475D01*
X1461893Y-14969713D02*
X1471417Y-14950666D01*
X1490464Y-14941142D01*
X1519036Y-14941142D01*
X1538083Y-14950666D01*
X1547607Y-14969713D01*
X1547607Y-15074475D01*
X1938083Y-14864952D02*
X1766655Y-15122094D01*
X2195226Y-14874475D02*
X2214274Y-14874475D01*
X2233321Y-14883999D01*
X2242845Y-14893523D01*
X2252369Y-14912571D01*
X2261893Y-14950666D01*
X2261893Y-14998285D01*
X2252369Y-15036380D01*
X2242845Y-15055428D01*
X2233321Y-15064952D01*
X2214274Y-15074475D01*
X2195226Y-15074475D01*
X2176179Y-15064952D01*
X2166655Y-15055428D01*
X2157131Y-15036380D01*
X2147607Y-14998285D01*
X2147607Y-14950666D01*
X2157131Y-14912571D01*
X2166655Y-14893523D01*
X2176179Y-14883999D01*
X2195226Y-14874475D01*
X2347607Y-15055428D02*
X2357131Y-15064952D01*
X2347607Y-15074475D01*
X2338083Y-15064952D01*
X2347607Y-15055428D01*
X2347607Y-15074475D01*
X2480940Y-14874475D02*
X2499988Y-14874475D01*
X2519036Y-14883999D01*
X2528560Y-14893523D01*
X2538083Y-14912571D01*
X2547607Y-14950666D01*
X2547607Y-14998285D01*
X2538083Y-15036380D01*
X2528560Y-15055428D01*
X2519036Y-15064952D01*
X2499988Y-15074475D01*
X2480940Y-15074475D01*
X2461893Y-15064952D01*
X2452369Y-15055428D01*
X2442845Y-15036380D01*
X2433321Y-14998285D01*
X2433321Y-14950666D01*
X2442845Y-14912571D01*
X2452369Y-14893523D01*
X2461893Y-14883999D01*
X2480940Y-14874475D01*
X2623798Y-14893523D02*
X2633321Y-14883999D01*
X2652369Y-14874475D01*
X2699988Y-14874475D01*
X2719036Y-14883999D01*
X2728560Y-14893523D01*
X2738083Y-14912571D01*
X2738083Y-14931618D01*
X2728560Y-14960190D01*
X2614274Y-15074475D01*
X2738083Y-15074475D01*
X2804750Y-14874475D02*
X2928559Y-14874475D01*
X2861893Y-14950666D01*
X2890464Y-14950666D01*
X2909512Y-14960190D01*
X2919036Y-14969713D01*
X2928559Y-14988761D01*
X2928559Y-15036380D01*
X2919036Y-15055428D01*
X2909512Y-15064952D01*
X2890464Y-15074475D01*
X2833321Y-15074475D01*
X2814274Y-15064952D01*
X2804750Y-15055428D01*
X3099988Y-14874475D02*
X3061893Y-14874475D01*
X3042845Y-14883999D01*
X3033321Y-14893523D01*
X3014274Y-14922094D01*
X3004750Y-14960190D01*
X3004750Y-15036380D01*
X3014274Y-15055428D01*
X3023798Y-15064952D01*
X3042845Y-15074475D01*
X3080940Y-15074475D01*
X3099988Y-15064952D01*
X3109512Y-15055428D01*
X3119036Y-15036380D01*
X3119036Y-14988761D01*
X3109512Y-14969713D01*
X3099988Y-14960190D01*
X3080940Y-14950666D01*
X3042845Y-14950666D01*
X3023798Y-14960190D01*
X3014274Y-14969713D01*
X3004750Y-14988761D01*
X3195226Y-14874475D02*
X3195226Y-14912571D01*
X3271417Y-14874475D02*
X3271417Y-14912571D01*
X3566655Y-15150666D02*
X3557131Y-15141142D01*
X3538083Y-15112571D01*
X3528559Y-15093523D01*
X3519036Y-15064952D01*
X3509512Y-15017333D01*
X3509512Y-14979237D01*
X3519036Y-14931618D01*
X3528559Y-14903047D01*
X3538083Y-14883999D01*
X3557131Y-14855428D01*
X3566655Y-14845904D01*
X3680940Y-14874475D02*
X3699988Y-14874475D01*
X3719036Y-14883999D01*
X3728559Y-14893523D01*
X3738083Y-14912571D01*
X3747607Y-14950666D01*
X3747607Y-14998285D01*
X3738083Y-15036380D01*
X3728559Y-15055428D01*
X3719036Y-15064952D01*
X3699988Y-15074475D01*
X3680940Y-15074475D01*
X3661893Y-15064952D01*
X3652369Y-15055428D01*
X3642845Y-15036380D01*
X3633321Y-14998285D01*
X3633321Y-14950666D01*
X3642845Y-14912571D01*
X3652369Y-14893523D01*
X3661893Y-14883999D01*
X3680940Y-14874475D01*
X3985702Y-15074475D02*
X3985702Y-14874475D01*
X4071417Y-15074475D02*
X4071417Y-14969713D01*
X4061893Y-14950666D01*
X4042845Y-14941142D01*
X4014274Y-14941142D01*
X3995226Y-14950666D01*
X3985702Y-14960190D01*
X4195226Y-15074475D02*
X4176178Y-15064952D01*
X4166655Y-15055428D01*
X4157131Y-15036380D01*
X4157131Y-14979237D01*
X4166655Y-14960190D01*
X4176178Y-14950666D01*
X4195226Y-14941142D01*
X4223798Y-14941142D01*
X4242845Y-14950666D01*
X4252369Y-14960190D01*
X4261893Y-14979237D01*
X4261893Y-15036380D01*
X4252369Y-15055428D01*
X4242845Y-15064952D01*
X4223798Y-15074475D01*
X4195226Y-15074475D01*
X4376179Y-15074475D02*
X4357131Y-15064952D01*
X4347607Y-15045904D01*
X4347607Y-14874475D01*
X4528560Y-15064952D02*
X4509512Y-15074475D01*
X4471417Y-15074475D01*
X4452369Y-15064952D01*
X4442845Y-15045904D01*
X4442845Y-14969713D01*
X4452369Y-14950666D01*
X4471417Y-14941142D01*
X4509512Y-14941142D01*
X4528560Y-14950666D01*
X4538083Y-14969713D01*
X4538083Y-14988761D01*
X4442845Y-15007809D01*
X4614274Y-15064952D02*
X4633321Y-15074475D01*
X4671417Y-15074475D01*
X4690464Y-15064952D01*
X4699988Y-15045904D01*
X4699988Y-15036380D01*
X4690464Y-15017333D01*
X4671417Y-15007809D01*
X4642845Y-15007809D01*
X4623798Y-14998285D01*
X4614274Y-14979237D01*
X4614274Y-14969713D01*
X4623798Y-14950666D01*
X4642845Y-14941142D01*
X4671417Y-14941142D01*
X4690464Y-14950666D01*
X4938083Y-14998285D02*
X5090464Y-14998285D01*
X5014274Y-15074475D02*
X5014274Y-14922094D01*
X5423798Y-14941142D02*
X5423798Y-15074475D01*
X5376179Y-14864952D02*
X5328560Y-15007809D01*
X5452369Y-15007809D01*
X5671417Y-15064952D02*
X5690464Y-15074475D01*
X5728559Y-15074475D01*
X5747607Y-15064952D01*
X5757131Y-15045904D01*
X5757131Y-15036380D01*
X5747607Y-15017333D01*
X5728559Y-15007809D01*
X5699988Y-15007809D01*
X5680940Y-14998285D01*
X5671417Y-14979237D01*
X5671417Y-14969713D01*
X5680940Y-14950666D01*
X5699988Y-14941142D01*
X5728559Y-14941142D01*
X5747607Y-14950666D01*
X5871417Y-15074475D02*
X5852369Y-15064952D01*
X5842845Y-15045904D01*
X5842845Y-14874475D01*
X5976178Y-15074475D02*
X5957131Y-15064952D01*
X5947607Y-15055428D01*
X5938083Y-15036380D01*
X5938083Y-14979237D01*
X5947607Y-14960190D01*
X5957131Y-14950666D01*
X5976178Y-14941142D01*
X6004750Y-14941142D01*
X6023798Y-14950666D01*
X6033321Y-14960190D01*
X6042845Y-14979237D01*
X6042845Y-15036380D01*
X6033321Y-15055428D01*
X6023798Y-15064952D01*
X6004750Y-15074475D01*
X5976178Y-15074475D01*
X6099988Y-14941142D02*
X6176178Y-14941142D01*
X6128559Y-14874475D02*
X6128559Y-15045904D01*
X6138083Y-15064952D01*
X6157131Y-15074475D01*
X6176178Y-15074475D01*
X6233321Y-15064952D02*
X6252369Y-15074475D01*
X6290464Y-15074475D01*
X6309512Y-15064952D01*
X6319036Y-15045904D01*
X6319036Y-15036380D01*
X6309512Y-15017333D01*
X6290464Y-15007809D01*
X6261893Y-15007809D01*
X6242845Y-14998285D01*
X6233321Y-14979237D01*
X6233321Y-14969713D01*
X6242845Y-14950666D01*
X6261893Y-14941142D01*
X6290464Y-14941142D01*
X6309512Y-14950666D01*
X6385702Y-15150666D02*
X6395226Y-15141142D01*
X6414274Y-15112571D01*
X6423798Y-15093523D01*
X6433321Y-15064952D01*
X6442845Y-15017333D01*
X6442845Y-14979237D01*
X6433321Y-14931618D01*
X6423798Y-14903047D01*
X6414274Y-14883999D01*
X6395226Y-14855428D01*
X6385702Y-14845904D01*
D10*
X-19894Y-15283355D02*
X-19894Y-15212644D01*
X-90606Y-15212644D01*
X-90606Y-15283355D01*
X-19894Y-15283355D01*
D11*
X357131Y-15338475D02*
X242845Y-15338475D01*
X299988Y-15338475D02*
X299988Y-15138475D01*
X280940Y-15167047D01*
X261893Y-15186094D01*
X242845Y-15195618D01*
X442845Y-15319428D02*
X452369Y-15328952D01*
X442845Y-15338475D01*
X433321Y-15328952D01*
X442845Y-15319428D01*
X442845Y-15338475D01*
X576179Y-15138475D02*
X595226Y-15138475D01*
X614274Y-15147999D01*
X623798Y-15157523D01*
X633321Y-15176571D01*
X642845Y-15214666D01*
X642845Y-15262285D01*
X633321Y-15300380D01*
X623798Y-15319428D01*
X614274Y-15328952D01*
X595226Y-15338475D01*
X576179Y-15338475D01*
X557131Y-15328952D01*
X547607Y-15319428D01*
X538083Y-15300380D01*
X528560Y-15262285D01*
X528560Y-15214666D01*
X538083Y-15176571D01*
X547607Y-15157523D01*
X557131Y-15147999D01*
X576179Y-15138475D01*
X766655Y-15138475D02*
X785702Y-15138475D01*
X804750Y-15147999D01*
X814274Y-15157523D01*
X823798Y-15176571D01*
X833321Y-15214666D01*
X833321Y-15262285D01*
X823798Y-15300380D01*
X814274Y-15319428D01*
X804750Y-15328952D01*
X785702Y-15338475D01*
X766655Y-15338475D01*
X747607Y-15328952D01*
X738083Y-15319428D01*
X728559Y-15300380D01*
X719036Y-15262285D01*
X719036Y-15214666D01*
X728559Y-15176571D01*
X738083Y-15157523D01*
X747607Y-15147999D01*
X766655Y-15138475D01*
X957131Y-15138475D02*
X976178Y-15138475D01*
X995226Y-15147999D01*
X1004750Y-15157523D01*
X1014274Y-15176571D01*
X1023798Y-15214666D01*
X1023798Y-15262285D01*
X1014274Y-15300380D01*
X1004750Y-15319428D01*
X995226Y-15328952D01*
X976178Y-15338475D01*
X957131Y-15338475D01*
X938083Y-15328952D01*
X928559Y-15319428D01*
X919036Y-15300380D01*
X909512Y-15262285D01*
X909512Y-15214666D01*
X919036Y-15176571D01*
X928559Y-15157523D01*
X938083Y-15147999D01*
X957131Y-15138475D01*
X1109512Y-15338475D02*
X1109512Y-15205142D01*
X1109512Y-15224190D02*
X1119036Y-15214666D01*
X1138083Y-15205142D01*
X1166655Y-15205142D01*
X1185702Y-15214666D01*
X1195226Y-15233713D01*
X1195226Y-15338475D01*
X1195226Y-15233713D02*
X1204750Y-15214666D01*
X1223798Y-15205142D01*
X1252369Y-15205142D01*
X1271417Y-15214666D01*
X1280940Y-15233713D01*
X1280940Y-15338475D01*
X1376179Y-15338475D02*
X1376179Y-15205142D01*
X1376179Y-15224190D02*
X1385702Y-15214666D01*
X1404750Y-15205142D01*
X1433321Y-15205142D01*
X1452369Y-15214666D01*
X1461893Y-15233713D01*
X1461893Y-15338475D01*
X1461893Y-15233713D02*
X1471417Y-15214666D01*
X1490464Y-15205142D01*
X1519036Y-15205142D01*
X1538083Y-15214666D01*
X1547607Y-15233713D01*
X1547607Y-15338475D01*
X1938083Y-15128952D02*
X1766655Y-15386094D01*
X2195226Y-15138475D02*
X2214274Y-15138475D01*
X2233321Y-15147999D01*
X2242845Y-15157523D01*
X2252369Y-15176571D01*
X2261893Y-15214666D01*
X2261893Y-15262285D01*
X2252369Y-15300380D01*
X2242845Y-15319428D01*
X2233321Y-15328952D01*
X2214274Y-15338475D01*
X2195226Y-15338475D01*
X2176179Y-15328952D01*
X2166655Y-15319428D01*
X2157131Y-15300380D01*
X2147607Y-15262285D01*
X2147607Y-15214666D01*
X2157131Y-15176571D01*
X2166655Y-15157523D01*
X2176179Y-15147999D01*
X2195226Y-15138475D01*
X2347607Y-15319428D02*
X2357131Y-15328952D01*
X2347607Y-15338475D01*
X2338083Y-15328952D01*
X2347607Y-15319428D01*
X2347607Y-15338475D01*
X2480940Y-15138475D02*
X2499988Y-15138475D01*
X2519036Y-15147999D01*
X2528560Y-15157523D01*
X2538083Y-15176571D01*
X2547607Y-15214666D01*
X2547607Y-15262285D01*
X2538083Y-15300380D01*
X2528560Y-15319428D01*
X2519036Y-15328952D01*
X2499988Y-15338475D01*
X2480940Y-15338475D01*
X2461893Y-15328952D01*
X2452369Y-15319428D01*
X2442845Y-15300380D01*
X2433321Y-15262285D01*
X2433321Y-15214666D01*
X2442845Y-15176571D01*
X2452369Y-15157523D01*
X2461893Y-15147999D01*
X2480940Y-15138475D01*
X2614274Y-15138475D02*
X2738083Y-15138475D01*
X2671417Y-15214666D01*
X2699988Y-15214666D01*
X2719036Y-15224190D01*
X2728560Y-15233713D01*
X2738083Y-15252761D01*
X2738083Y-15300380D01*
X2728560Y-15319428D01*
X2719036Y-15328952D01*
X2699988Y-15338475D01*
X2642845Y-15338475D01*
X2623798Y-15328952D01*
X2614274Y-15319428D01*
X2833321Y-15338475D02*
X2871417Y-15338475D01*
X2890464Y-15328952D01*
X2899988Y-15319428D01*
X2919036Y-15290856D01*
X2928559Y-15252761D01*
X2928559Y-15176571D01*
X2919036Y-15157523D01*
X2909512Y-15147999D01*
X2890464Y-15138475D01*
X2852369Y-15138475D01*
X2833321Y-15147999D01*
X2823798Y-15157523D01*
X2814274Y-15176571D01*
X2814274Y-15224190D01*
X2823798Y-15243237D01*
X2833321Y-15252761D01*
X2852369Y-15262285D01*
X2890464Y-15262285D01*
X2909512Y-15252761D01*
X2919036Y-15243237D01*
X2928559Y-15224190D01*
X3099988Y-15205142D02*
X3099988Y-15338475D01*
X3052369Y-15128952D02*
X3004750Y-15271809D01*
X3128559Y-15271809D01*
X3195226Y-15138475D02*
X3195226Y-15176571D01*
X3271417Y-15138475D02*
X3271417Y-15176571D01*
X3566655Y-15414666D02*
X3557131Y-15405142D01*
X3538083Y-15376571D01*
X3528559Y-15357523D01*
X3519036Y-15328952D01*
X3509512Y-15281333D01*
X3509512Y-15243237D01*
X3519036Y-15195618D01*
X3528559Y-15167047D01*
X3538083Y-15147999D01*
X3557131Y-15119428D01*
X3566655Y-15109904D01*
X3747607Y-15338475D02*
X3633321Y-15338475D01*
X3690464Y-15338475D02*
X3690464Y-15138475D01*
X3671417Y-15167047D01*
X3652369Y-15186094D01*
X3633321Y-15195618D01*
X3814274Y-15138475D02*
X3947607Y-15138475D01*
X3861893Y-15338475D01*
X4176178Y-15338475D02*
X4176178Y-15138475D01*
X4261893Y-15338475D02*
X4261893Y-15233713D01*
X4252369Y-15214666D01*
X4233321Y-15205142D01*
X4204750Y-15205142D01*
X4185702Y-15214666D01*
X4176178Y-15224190D01*
X4385702Y-15338475D02*
X4366655Y-15328952D01*
X4357131Y-15319428D01*
X4347607Y-15300380D01*
X4347607Y-15243237D01*
X4357131Y-15224190D01*
X4366655Y-15214666D01*
X4385702Y-15205142D01*
X4414274Y-15205142D01*
X4433321Y-15214666D01*
X4442845Y-15224190D01*
X4452369Y-15243237D01*
X4452369Y-15300380D01*
X4442845Y-15319428D01*
X4433321Y-15328952D01*
X4414274Y-15338475D01*
X4385702Y-15338475D01*
X4566655Y-15338475D02*
X4547607Y-15328952D01*
X4538083Y-15309904D01*
X4538083Y-15138475D01*
X4719036Y-15328952D02*
X4699988Y-15338475D01*
X4661893Y-15338475D01*
X4642845Y-15328952D01*
X4633321Y-15309904D01*
X4633321Y-15233713D01*
X4642845Y-15214666D01*
X4661893Y-15205142D01*
X4699988Y-15205142D01*
X4719036Y-15214666D01*
X4728560Y-15233713D01*
X4728560Y-15252761D01*
X4633321Y-15271809D01*
X4804750Y-15328952D02*
X4823798Y-15338475D01*
X4861893Y-15338475D01*
X4880940Y-15328952D01*
X4890464Y-15309904D01*
X4890464Y-15300380D01*
X4880940Y-15281333D01*
X4861893Y-15271809D01*
X4833321Y-15271809D01*
X4814274Y-15262285D01*
X4804750Y-15243237D01*
X4804750Y-15233713D01*
X4814274Y-15214666D01*
X4833321Y-15205142D01*
X4861893Y-15205142D01*
X4880940Y-15214666D01*
X4957131Y-15414666D02*
X4966655Y-15405142D01*
X4985702Y-15376571D01*
X4995226Y-15357523D01*
X5004750Y-15328952D01*
X5014274Y-15281333D01*
X5014274Y-15243237D01*
X5004750Y-15195618D01*
X4995226Y-15167047D01*
X4985702Y-15147999D01*
X4966655Y-15119428D01*
X4957131Y-15109904D01*
D15*
X-80250Y-15586999D02*
X-5250Y-15511999D01*
X-80250Y-15436999D01*
X-155250Y-15511999D01*
X-80250Y-15586999D01*
D11*
X357131Y-15602475D02*
X242845Y-15602475D01*
X299988Y-15602475D02*
X299988Y-15402475D01*
X280940Y-15431047D01*
X261893Y-15450094D01*
X242845Y-15459618D01*
X442845Y-15583428D02*
X452369Y-15592952D01*
X442845Y-15602475D01*
X433321Y-15592952D01*
X442845Y-15583428D01*
X442845Y-15602475D01*
X633321Y-15402475D02*
X538083Y-15402475D01*
X528560Y-15497713D01*
X538083Y-15488190D01*
X557131Y-15478666D01*
X604750Y-15478666D01*
X623798Y-15488190D01*
X633321Y-15497713D01*
X642845Y-15516761D01*
X642845Y-15564380D01*
X633321Y-15583428D01*
X623798Y-15592952D01*
X604750Y-15602475D01*
X557131Y-15602475D01*
X538083Y-15592952D01*
X528560Y-15583428D01*
X766655Y-15402475D02*
X785702Y-15402475D01*
X804750Y-15411999D01*
X814274Y-15421523D01*
X823798Y-15440571D01*
X833321Y-15478666D01*
X833321Y-15526285D01*
X823798Y-15564380D01*
X814274Y-15583428D01*
X804750Y-15592952D01*
X785702Y-15602475D01*
X766655Y-15602475D01*
X747607Y-15592952D01*
X738083Y-15583428D01*
X728559Y-15564380D01*
X719036Y-15526285D01*
X719036Y-15478666D01*
X728559Y-15440571D01*
X738083Y-15421523D01*
X747607Y-15411999D01*
X766655Y-15402475D01*
X957131Y-15402475D02*
X976178Y-15402475D01*
X995226Y-15411999D01*
X1004750Y-15421523D01*
X1014274Y-15440571D01*
X1023798Y-15478666D01*
X1023798Y-15526285D01*
X1014274Y-15564380D01*
X1004750Y-15583428D01*
X995226Y-15592952D01*
X976178Y-15602475D01*
X957131Y-15602475D01*
X938083Y-15592952D01*
X928559Y-15583428D01*
X919036Y-15564380D01*
X909512Y-15526285D01*
X909512Y-15478666D01*
X919036Y-15440571D01*
X928559Y-15421523D01*
X938083Y-15411999D01*
X957131Y-15402475D01*
X1109512Y-15602475D02*
X1109512Y-15469142D01*
X1109512Y-15488190D02*
X1119036Y-15478666D01*
X1138083Y-15469142D01*
X1166655Y-15469142D01*
X1185702Y-15478666D01*
X1195226Y-15497713D01*
X1195226Y-15602475D01*
X1195226Y-15497713D02*
X1204750Y-15478666D01*
X1223798Y-15469142D01*
X1252369Y-15469142D01*
X1271417Y-15478666D01*
X1280940Y-15497713D01*
X1280940Y-15602475D01*
X1376179Y-15602475D02*
X1376179Y-15469142D01*
X1376179Y-15488190D02*
X1385702Y-15478666D01*
X1404750Y-15469142D01*
X1433321Y-15469142D01*
X1452369Y-15478666D01*
X1461893Y-15497713D01*
X1461893Y-15602475D01*
X1461893Y-15497713D02*
X1471417Y-15478666D01*
X1490464Y-15469142D01*
X1519036Y-15469142D01*
X1538083Y-15478666D01*
X1547607Y-15497713D01*
X1547607Y-15602475D01*
X1938083Y-15392952D02*
X1766655Y-15650094D01*
X2195226Y-15402475D02*
X2214274Y-15402475D01*
X2233321Y-15411999D01*
X2242845Y-15421523D01*
X2252369Y-15440571D01*
X2261893Y-15478666D01*
X2261893Y-15526285D01*
X2252369Y-15564380D01*
X2242845Y-15583428D01*
X2233321Y-15592952D01*
X2214274Y-15602475D01*
X2195226Y-15602475D01*
X2176179Y-15592952D01*
X2166655Y-15583428D01*
X2157131Y-15564380D01*
X2147607Y-15526285D01*
X2147607Y-15478666D01*
X2157131Y-15440571D01*
X2166655Y-15421523D01*
X2176179Y-15411999D01*
X2195226Y-15402475D01*
X2347607Y-15583428D02*
X2357131Y-15592952D01*
X2347607Y-15602475D01*
X2338083Y-15592952D01*
X2347607Y-15583428D01*
X2347607Y-15602475D01*
X2480940Y-15402475D02*
X2499988Y-15402475D01*
X2519036Y-15411999D01*
X2528560Y-15421523D01*
X2538083Y-15440571D01*
X2547607Y-15478666D01*
X2547607Y-15526285D01*
X2538083Y-15564380D01*
X2528560Y-15583428D01*
X2519036Y-15592952D01*
X2499988Y-15602475D01*
X2480940Y-15602475D01*
X2461893Y-15592952D01*
X2452369Y-15583428D01*
X2442845Y-15564380D01*
X2433321Y-15526285D01*
X2433321Y-15478666D01*
X2442845Y-15440571D01*
X2452369Y-15421523D01*
X2461893Y-15411999D01*
X2480940Y-15402475D01*
X2728560Y-15402475D02*
X2633321Y-15402475D01*
X2623798Y-15497713D01*
X2633321Y-15488190D01*
X2652369Y-15478666D01*
X2699988Y-15478666D01*
X2719036Y-15488190D01*
X2728560Y-15497713D01*
X2738083Y-15516761D01*
X2738083Y-15564380D01*
X2728560Y-15583428D01*
X2719036Y-15592952D01*
X2699988Y-15602475D01*
X2652369Y-15602475D01*
X2633321Y-15592952D01*
X2623798Y-15583428D01*
X2833321Y-15602475D02*
X2871417Y-15602475D01*
X2890464Y-15592952D01*
X2899988Y-15583428D01*
X2919036Y-15554856D01*
X2928559Y-15516761D01*
X2928559Y-15440571D01*
X2919036Y-15421523D01*
X2909512Y-15411999D01*
X2890464Y-15402475D01*
X2852369Y-15402475D01*
X2833321Y-15411999D01*
X2823798Y-15421523D01*
X2814274Y-15440571D01*
X2814274Y-15488190D01*
X2823798Y-15507237D01*
X2833321Y-15516761D01*
X2852369Y-15526285D01*
X2890464Y-15526285D01*
X2909512Y-15516761D01*
X2919036Y-15507237D01*
X2928559Y-15488190D01*
X3119036Y-15602475D02*
X3004750Y-15602475D01*
X3061893Y-15602475D02*
X3061893Y-15402475D01*
X3042845Y-15431047D01*
X3023798Y-15450094D01*
X3004750Y-15459618D01*
X3195226Y-15402475D02*
X3195226Y-15440571D01*
X3271417Y-15402475D02*
X3271417Y-15440571D01*
X3566655Y-15678666D02*
X3557131Y-15669142D01*
X3538083Y-15640571D01*
X3528559Y-15621523D01*
X3519036Y-15592952D01*
X3509512Y-15545333D01*
X3509512Y-15507237D01*
X3519036Y-15459618D01*
X3528559Y-15431047D01*
X3538083Y-15411999D01*
X3557131Y-15383428D01*
X3566655Y-15373904D01*
X3680940Y-15402475D02*
X3699988Y-15402475D01*
X3719036Y-15411999D01*
X3728559Y-15421523D01*
X3738083Y-15440571D01*
X3747607Y-15478666D01*
X3747607Y-15526285D01*
X3738083Y-15564380D01*
X3728559Y-15583428D01*
X3719036Y-15592952D01*
X3699988Y-15602475D01*
X3680940Y-15602475D01*
X3661893Y-15592952D01*
X3652369Y-15583428D01*
X3642845Y-15564380D01*
X3633321Y-15526285D01*
X3633321Y-15478666D01*
X3642845Y-15440571D01*
X3652369Y-15421523D01*
X3661893Y-15411999D01*
X3680940Y-15402475D01*
X3985702Y-15602475D02*
X3985702Y-15402475D01*
X4071417Y-15602475D02*
X4071417Y-15497713D01*
X4061893Y-15478666D01*
X4042845Y-15469142D01*
X4014274Y-15469142D01*
X3995226Y-15478666D01*
X3985702Y-15488190D01*
X4195226Y-15602475D02*
X4176178Y-15592952D01*
X4166655Y-15583428D01*
X4157131Y-15564380D01*
X4157131Y-15507237D01*
X4166655Y-15488190D01*
X4176178Y-15478666D01*
X4195226Y-15469142D01*
X4223798Y-15469142D01*
X4242845Y-15478666D01*
X4252369Y-15488190D01*
X4261893Y-15507237D01*
X4261893Y-15564380D01*
X4252369Y-15583428D01*
X4242845Y-15592952D01*
X4223798Y-15602475D01*
X4195226Y-15602475D01*
X4376179Y-15602475D02*
X4357131Y-15592952D01*
X4347607Y-15573904D01*
X4347607Y-15402475D01*
X4528560Y-15592952D02*
X4509512Y-15602475D01*
X4471417Y-15602475D01*
X4452369Y-15592952D01*
X4442845Y-15573904D01*
X4442845Y-15497713D01*
X4452369Y-15478666D01*
X4471417Y-15469142D01*
X4509512Y-15469142D01*
X4528560Y-15478666D01*
X4538083Y-15497713D01*
X4538083Y-15516761D01*
X4442845Y-15535809D01*
X4614274Y-15592952D02*
X4633321Y-15602475D01*
X4671417Y-15602475D01*
X4690464Y-15592952D01*
X4699988Y-15573904D01*
X4699988Y-15564380D01*
X4690464Y-15545333D01*
X4671417Y-15535809D01*
X4642845Y-15535809D01*
X4623798Y-15526285D01*
X4614274Y-15507237D01*
X4614274Y-15497713D01*
X4623798Y-15478666D01*
X4642845Y-15469142D01*
X4671417Y-15469142D01*
X4690464Y-15478666D01*
X4938083Y-15526285D02*
X5090464Y-15526285D01*
X5014274Y-15602475D02*
X5014274Y-15450094D01*
X5328560Y-15421523D02*
X5338083Y-15411999D01*
X5357131Y-15402475D01*
X5404750Y-15402475D01*
X5423798Y-15411999D01*
X5433321Y-15421523D01*
X5442845Y-15440571D01*
X5442845Y-15459618D01*
X5433321Y-15488190D01*
X5319036Y-15602475D01*
X5442845Y-15602475D01*
X5671417Y-15592952D02*
X5690464Y-15602475D01*
X5728559Y-15602475D01*
X5747607Y-15592952D01*
X5757131Y-15573904D01*
X5757131Y-15564380D01*
X5747607Y-15545333D01*
X5728559Y-15535809D01*
X5699988Y-15535809D01*
X5680940Y-15526285D01*
X5671417Y-15507237D01*
X5671417Y-15497713D01*
X5680940Y-15478666D01*
X5699988Y-15469142D01*
X5728559Y-15469142D01*
X5747607Y-15478666D01*
X5871417Y-15602475D02*
X5852369Y-15592952D01*
X5842845Y-15573904D01*
X5842845Y-15402475D01*
X5976178Y-15602475D02*
X5957131Y-15592952D01*
X5947607Y-15583428D01*
X5938083Y-15564380D01*
X5938083Y-15507237D01*
X5947607Y-15488190D01*
X5957131Y-15478666D01*
X5976178Y-15469142D01*
X6004750Y-15469142D01*
X6023798Y-15478666D01*
X6033321Y-15488190D01*
X6042845Y-15507237D01*
X6042845Y-15564380D01*
X6033321Y-15583428D01*
X6023798Y-15592952D01*
X6004750Y-15602475D01*
X5976178Y-15602475D01*
X6099988Y-15469142D02*
X6176178Y-15469142D01*
X6128559Y-15402475D02*
X6128559Y-15573904D01*
X6138083Y-15592952D01*
X6157131Y-15602475D01*
X6176178Y-15602475D01*
X6233321Y-15592952D02*
X6252369Y-15602475D01*
X6290464Y-15602475D01*
X6309512Y-15592952D01*
X6319036Y-15573904D01*
X6319036Y-15564380D01*
X6309512Y-15545333D01*
X6290464Y-15535809D01*
X6261893Y-15535809D01*
X6242845Y-15526285D01*
X6233321Y-15507237D01*
X6233321Y-15497713D01*
X6242845Y-15478666D01*
X6261893Y-15469142D01*
X6290464Y-15469142D01*
X6309512Y-15478666D01*
X6385702Y-15678666D02*
X6395226Y-15669142D01*
X6414274Y-15640571D01*
X6423798Y-15621523D01*
X6433321Y-15592952D01*
X6442845Y-15545333D01*
X6442845Y-15507237D01*
X6433321Y-15459618D01*
X6423798Y-15431047D01*
X6414274Y-15411999D01*
X6395226Y-15383428D01*
X6385702Y-15373904D01*
X-205250Y-15681999D02*
X-5250Y-15881999D01*
X-5250Y-15681999D02*
X-205250Y-15881999D01*
X-5250Y-15781999D02*
G75*
G03*
X-5250Y-15781999I-100000J0D01*
G01*
X233321Y-15672475D02*
X357131Y-15672475D01*
X290464Y-15748666D01*
X319036Y-15748666D01*
X338083Y-15758190D01*
X347607Y-15767713D01*
X357131Y-15786761D01*
X357131Y-15834380D01*
X347607Y-15853428D01*
X338083Y-15862952D01*
X319036Y-15872475D01*
X261893Y-15872475D01*
X242845Y-15862952D01*
X233321Y-15853428D01*
X442845Y-15853428D02*
X452369Y-15862952D01*
X442845Y-15872475D01*
X433321Y-15862952D01*
X442845Y-15853428D01*
X442845Y-15872475D01*
X576179Y-15672475D02*
X595226Y-15672475D01*
X614274Y-15681999D01*
X623798Y-15691523D01*
X633321Y-15710571D01*
X642845Y-15748666D01*
X642845Y-15796285D01*
X633321Y-15834380D01*
X623798Y-15853428D01*
X614274Y-15862952D01*
X595226Y-15872475D01*
X576179Y-15872475D01*
X557131Y-15862952D01*
X547607Y-15853428D01*
X538083Y-15834380D01*
X528560Y-15796285D01*
X528560Y-15748666D01*
X538083Y-15710571D01*
X547607Y-15691523D01*
X557131Y-15681999D01*
X576179Y-15672475D01*
X766655Y-15672475D02*
X785702Y-15672475D01*
X804750Y-15681999D01*
X814274Y-15691523D01*
X823798Y-15710571D01*
X833321Y-15748666D01*
X833321Y-15796285D01*
X823798Y-15834380D01*
X814274Y-15853428D01*
X804750Y-15862952D01*
X785702Y-15872475D01*
X766655Y-15872475D01*
X747607Y-15862952D01*
X738083Y-15853428D01*
X728559Y-15834380D01*
X719036Y-15796285D01*
X719036Y-15748666D01*
X728559Y-15710571D01*
X738083Y-15691523D01*
X747607Y-15681999D01*
X766655Y-15672475D01*
X957131Y-15672475D02*
X976178Y-15672475D01*
X995226Y-15681999D01*
X1004750Y-15691523D01*
X1014274Y-15710571D01*
X1023798Y-15748666D01*
X1023798Y-15796285D01*
X1014274Y-15834380D01*
X1004750Y-15853428D01*
X995226Y-15862952D01*
X976178Y-15872475D01*
X957131Y-15872475D01*
X938083Y-15862952D01*
X928559Y-15853428D01*
X919036Y-15834380D01*
X909512Y-15796285D01*
X909512Y-15748666D01*
X919036Y-15710571D01*
X928559Y-15691523D01*
X938083Y-15681999D01*
X957131Y-15672475D01*
X1109512Y-15872475D02*
X1109512Y-15739142D01*
X1109512Y-15758190D02*
X1119036Y-15748666D01*
X1138083Y-15739142D01*
X1166655Y-15739142D01*
X1185702Y-15748666D01*
X1195226Y-15767713D01*
X1195226Y-15872475D01*
X1195226Y-15767713D02*
X1204750Y-15748666D01*
X1223798Y-15739142D01*
X1252369Y-15739142D01*
X1271417Y-15748666D01*
X1280940Y-15767713D01*
X1280940Y-15872475D01*
X1376179Y-15872475D02*
X1376179Y-15739142D01*
X1376179Y-15758190D02*
X1385702Y-15748666D01*
X1404750Y-15739142D01*
X1433321Y-15739142D01*
X1452369Y-15748666D01*
X1461893Y-15767713D01*
X1461893Y-15872475D01*
X1461893Y-15767713D02*
X1471417Y-15748666D01*
X1490464Y-15739142D01*
X1519036Y-15739142D01*
X1538083Y-15748666D01*
X1547607Y-15767713D01*
X1547607Y-15872475D01*
X1938083Y-15662952D02*
X1766655Y-15920094D01*
X2195226Y-15672475D02*
X2214274Y-15672475D01*
X2233321Y-15681999D01*
X2242845Y-15691523D01*
X2252369Y-15710571D01*
X2261893Y-15748666D01*
X2261893Y-15796285D01*
X2252369Y-15834380D01*
X2242845Y-15853428D01*
X2233321Y-15862952D01*
X2214274Y-15872475D01*
X2195226Y-15872475D01*
X2176179Y-15862952D01*
X2166655Y-15853428D01*
X2157131Y-15834380D01*
X2147607Y-15796285D01*
X2147607Y-15748666D01*
X2157131Y-15710571D01*
X2166655Y-15691523D01*
X2176179Y-15681999D01*
X2195226Y-15672475D01*
X2347607Y-15853428D02*
X2357131Y-15862952D01*
X2347607Y-15872475D01*
X2338083Y-15862952D01*
X2347607Y-15853428D01*
X2347607Y-15872475D01*
X2547607Y-15872475D02*
X2433321Y-15872475D01*
X2490464Y-15872475D02*
X2490464Y-15672475D01*
X2471417Y-15701047D01*
X2452369Y-15720094D01*
X2433321Y-15729618D01*
X2738083Y-15872475D02*
X2623798Y-15872475D01*
X2680940Y-15872475D02*
X2680940Y-15672475D01*
X2661893Y-15701047D01*
X2642845Y-15720094D01*
X2623798Y-15729618D01*
X2852369Y-15758190D02*
X2833321Y-15748666D01*
X2823798Y-15739142D01*
X2814274Y-15720094D01*
X2814274Y-15710571D01*
X2823798Y-15691523D01*
X2833321Y-15681999D01*
X2852369Y-15672475D01*
X2890464Y-15672475D01*
X2909512Y-15681999D01*
X2919036Y-15691523D01*
X2928559Y-15710571D01*
X2928559Y-15720094D01*
X2919036Y-15739142D01*
X2909512Y-15748666D01*
X2890464Y-15758190D01*
X2852369Y-15758190D01*
X2833321Y-15767713D01*
X2823798Y-15777237D01*
X2814274Y-15796285D01*
X2814274Y-15834380D01*
X2823798Y-15853428D01*
X2833321Y-15862952D01*
X2852369Y-15872475D01*
X2890464Y-15872475D01*
X2909512Y-15862952D01*
X2919036Y-15853428D01*
X2928559Y-15834380D01*
X2928559Y-15796285D01*
X2919036Y-15777237D01*
X2909512Y-15767713D01*
X2890464Y-15758190D01*
X3119036Y-15872475D02*
X3004750Y-15872475D01*
X3061893Y-15872475D02*
X3061893Y-15672475D01*
X3042845Y-15701047D01*
X3023798Y-15720094D01*
X3004750Y-15729618D01*
X3195226Y-15672475D02*
X3195226Y-15710571D01*
X3271417Y-15672475D02*
X3271417Y-15710571D01*
X3566655Y-15948666D02*
X3557131Y-15939142D01*
X3538083Y-15910571D01*
X3528559Y-15891523D01*
X3519036Y-15862952D01*
X3509512Y-15815333D01*
X3509512Y-15777237D01*
X3519036Y-15729618D01*
X3528559Y-15701047D01*
X3538083Y-15681999D01*
X3557131Y-15653428D01*
X3566655Y-15643904D01*
X3747607Y-15872475D02*
X3633321Y-15872475D01*
X3690464Y-15872475D02*
X3690464Y-15672475D01*
X3671417Y-15701047D01*
X3652369Y-15720094D01*
X3633321Y-15729618D01*
X3861893Y-15758190D02*
X3842845Y-15748666D01*
X3833321Y-15739142D01*
X3823798Y-15720094D01*
X3823798Y-15710571D01*
X3833321Y-15691523D01*
X3842845Y-15681999D01*
X3861893Y-15672475D01*
X3899988Y-15672475D01*
X3919036Y-15681999D01*
X3928559Y-15691523D01*
X3938083Y-15710571D01*
X3938083Y-15720094D01*
X3928559Y-15739142D01*
X3919036Y-15748666D01*
X3899988Y-15758190D01*
X3861893Y-15758190D01*
X3842845Y-15767713D01*
X3833321Y-15777237D01*
X3823798Y-15796285D01*
X3823798Y-15834380D01*
X3833321Y-15853428D01*
X3842845Y-15862952D01*
X3861893Y-15872475D01*
X3899988Y-15872475D01*
X3919036Y-15862952D01*
X3928559Y-15853428D01*
X3938083Y-15834380D01*
X3938083Y-15796285D01*
X3928559Y-15777237D01*
X3919036Y-15767713D01*
X3899988Y-15758190D01*
X4109512Y-15739142D02*
X4109512Y-15872475D01*
X4061893Y-15662952D02*
X4014274Y-15805809D01*
X4138083Y-15805809D01*
X4366655Y-15872475D02*
X4366655Y-15672475D01*
X4452369Y-15872475D02*
X4452369Y-15767713D01*
X4442845Y-15748666D01*
X4423798Y-15739142D01*
X4395226Y-15739142D01*
X4376179Y-15748666D01*
X4366655Y-15758190D01*
X4576179Y-15872475D02*
X4557131Y-15862952D01*
X4547607Y-15853428D01*
X4538083Y-15834380D01*
X4538083Y-15777237D01*
X4547607Y-15758190D01*
X4557131Y-15748666D01*
X4576179Y-15739142D01*
X4604750Y-15739142D01*
X4623798Y-15748666D01*
X4633321Y-15758190D01*
X4642845Y-15777237D01*
X4642845Y-15834380D01*
X4633321Y-15853428D01*
X4623798Y-15862952D01*
X4604750Y-15872475D01*
X4576179Y-15872475D01*
X4757131Y-15872475D02*
X4738083Y-15862952D01*
X4728560Y-15843904D01*
X4728560Y-15672475D01*
X4909512Y-15862952D02*
X4890464Y-15872475D01*
X4852369Y-15872475D01*
X4833321Y-15862952D01*
X4823798Y-15843904D01*
X4823798Y-15767713D01*
X4833321Y-15748666D01*
X4852369Y-15739142D01*
X4890464Y-15739142D01*
X4909512Y-15748666D01*
X4919036Y-15767713D01*
X4919036Y-15786761D01*
X4823798Y-15805809D01*
X4995226Y-15862952D02*
X5014274Y-15872475D01*
X5052369Y-15872475D01*
X5071417Y-15862952D01*
X5080940Y-15843904D01*
X5080940Y-15834380D01*
X5071417Y-15815333D01*
X5052369Y-15805809D01*
X5023798Y-15805809D01*
X5004750Y-15796285D01*
X4995226Y-15777237D01*
X4995226Y-15767713D01*
X5004750Y-15748666D01*
X5023798Y-15739142D01*
X5052369Y-15739142D01*
X5071417Y-15748666D01*
X5147607Y-15948666D02*
X5157131Y-15939142D01*
X5176179Y-15910571D01*
X5185702Y-15891523D01*
X5195226Y-15862952D01*
X5204750Y-15815333D01*
X5204750Y-15777237D01*
X5195226Y-15729618D01*
X5185702Y-15701047D01*
X5176179Y-15681999D01*
X5157131Y-15653428D01*
X5147607Y-15643904D01*
X-205250Y-16001999D02*
X-5250Y-16201999D01*
X-5250Y-16001999D02*
X-205250Y-16201999D01*
X-105250Y-16001999D02*
X-105250Y-16201999D01*
X-205250Y-16101999D02*
X-5250Y-16101999D01*
X233321Y-15992475D02*
X357131Y-15992475D01*
X290464Y-16068666D01*
X319036Y-16068666D01*
X338083Y-16078190D01*
X347607Y-16087713D01*
X357131Y-16106761D01*
X357131Y-16154380D01*
X347607Y-16173428D01*
X338083Y-16182952D01*
X319036Y-16192475D01*
X261893Y-16192475D01*
X242845Y-16182952D01*
X233321Y-16173428D01*
X442845Y-16173428D02*
X452369Y-16182952D01*
X442845Y-16192475D01*
X433321Y-16182952D01*
X442845Y-16173428D01*
X442845Y-16192475D01*
X576179Y-15992475D02*
X595226Y-15992475D01*
X614274Y-16001999D01*
X623798Y-16011523D01*
X633321Y-16030571D01*
X642845Y-16068666D01*
X642845Y-16116285D01*
X633321Y-16154380D01*
X623798Y-16173428D01*
X614274Y-16182952D01*
X595226Y-16192475D01*
X576179Y-16192475D01*
X557131Y-16182952D01*
X547607Y-16173428D01*
X538083Y-16154380D01*
X528560Y-16116285D01*
X528560Y-16068666D01*
X538083Y-16030571D01*
X547607Y-16011523D01*
X557131Y-16001999D01*
X576179Y-15992475D01*
X814274Y-16059142D02*
X814274Y-16192475D01*
X766655Y-15982952D02*
X719036Y-16125809D01*
X842845Y-16125809D01*
X947607Y-16078190D02*
X928559Y-16068666D01*
X919036Y-16059142D01*
X909512Y-16040094D01*
X909512Y-16030571D01*
X919036Y-16011523D01*
X928559Y-16001999D01*
X947607Y-15992475D01*
X985702Y-15992475D01*
X1004750Y-16001999D01*
X1014274Y-16011523D01*
X1023798Y-16030571D01*
X1023798Y-16040094D01*
X1014274Y-16059142D01*
X1004750Y-16068666D01*
X985702Y-16078190D01*
X947607Y-16078190D01*
X928559Y-16087713D01*
X919036Y-16097237D01*
X909512Y-16116285D01*
X909512Y-16154380D01*
X919036Y-16173428D01*
X928559Y-16182952D01*
X947607Y-16192475D01*
X985702Y-16192475D01*
X1004750Y-16182952D01*
X1014274Y-16173428D01*
X1023798Y-16154380D01*
X1023798Y-16116285D01*
X1014274Y-16097237D01*
X1004750Y-16087713D01*
X985702Y-16078190D01*
X1109512Y-16192475D02*
X1109512Y-16059142D01*
X1109512Y-16078190D02*
X1119036Y-16068666D01*
X1138083Y-16059142D01*
X1166655Y-16059142D01*
X1185702Y-16068666D01*
X1195226Y-16087713D01*
X1195226Y-16192475D01*
X1195226Y-16087713D02*
X1204750Y-16068666D01*
X1223798Y-16059142D01*
X1252369Y-16059142D01*
X1271417Y-16068666D01*
X1280940Y-16087713D01*
X1280940Y-16192475D01*
X1376179Y-16192475D02*
X1376179Y-16059142D01*
X1376179Y-16078190D02*
X1385702Y-16068666D01*
X1404750Y-16059142D01*
X1433321Y-16059142D01*
X1452369Y-16068666D01*
X1461893Y-16087713D01*
X1461893Y-16192475D01*
X1461893Y-16087713D02*
X1471417Y-16068666D01*
X1490464Y-16059142D01*
X1519036Y-16059142D01*
X1538083Y-16068666D01*
X1547607Y-16087713D01*
X1547607Y-16192475D01*
X1938083Y-15982952D02*
X1766655Y-16240094D01*
X2195226Y-15992475D02*
X2214274Y-15992475D01*
X2233321Y-16001999D01*
X2242845Y-16011523D01*
X2252369Y-16030571D01*
X2261893Y-16068666D01*
X2261893Y-16116285D01*
X2252369Y-16154380D01*
X2242845Y-16173428D01*
X2233321Y-16182952D01*
X2214274Y-16192475D01*
X2195226Y-16192475D01*
X2176179Y-16182952D01*
X2166655Y-16173428D01*
X2157131Y-16154380D01*
X2147607Y-16116285D01*
X2147607Y-16068666D01*
X2157131Y-16030571D01*
X2166655Y-16011523D01*
X2176179Y-16001999D01*
X2195226Y-15992475D01*
X2347607Y-16173428D02*
X2357131Y-16182952D01*
X2347607Y-16192475D01*
X2338083Y-16182952D01*
X2347607Y-16173428D01*
X2347607Y-16192475D01*
X2547607Y-16192475D02*
X2433321Y-16192475D01*
X2490464Y-16192475D02*
X2490464Y-15992475D01*
X2471417Y-16021047D01*
X2452369Y-16040094D01*
X2433321Y-16049618D01*
X2623798Y-16011523D02*
X2633321Y-16001999D01*
X2652369Y-15992475D01*
X2699988Y-15992475D01*
X2719036Y-16001999D01*
X2728560Y-16011523D01*
X2738083Y-16030571D01*
X2738083Y-16049618D01*
X2728560Y-16078190D01*
X2614274Y-16192475D01*
X2738083Y-16192475D01*
X2861893Y-15992475D02*
X2880940Y-15992475D01*
X2899988Y-16001999D01*
X2909512Y-16011523D01*
X2919036Y-16030571D01*
X2928559Y-16068666D01*
X2928559Y-16116285D01*
X2919036Y-16154380D01*
X2909512Y-16173428D01*
X2899988Y-16182952D01*
X2880940Y-16192475D01*
X2861893Y-16192475D01*
X2842845Y-16182952D01*
X2833321Y-16173428D01*
X2823798Y-16154380D01*
X2814274Y-16116285D01*
X2814274Y-16068666D01*
X2823798Y-16030571D01*
X2833321Y-16011523D01*
X2842845Y-16001999D01*
X2861893Y-15992475D01*
X3052369Y-15992475D02*
X3071417Y-15992475D01*
X3090464Y-16001999D01*
X3099988Y-16011523D01*
X3109512Y-16030571D01*
X3119036Y-16068666D01*
X3119036Y-16116285D01*
X3109512Y-16154380D01*
X3099988Y-16173428D01*
X3090464Y-16182952D01*
X3071417Y-16192475D01*
X3052369Y-16192475D01*
X3033321Y-16182952D01*
X3023798Y-16173428D01*
X3014274Y-16154380D01*
X3004750Y-16116285D01*
X3004750Y-16068666D01*
X3014274Y-16030571D01*
X3023798Y-16011523D01*
X3033321Y-16001999D01*
X3052369Y-15992475D01*
X3195226Y-15992475D02*
X3195226Y-16030571D01*
X3271417Y-15992475D02*
X3271417Y-16030571D01*
X3566655Y-16268666D02*
X3557131Y-16259142D01*
X3538083Y-16230571D01*
X3528559Y-16211523D01*
X3519036Y-16182952D01*
X3509512Y-16135333D01*
X3509512Y-16097237D01*
X3519036Y-16049618D01*
X3528559Y-16021047D01*
X3538083Y-16001999D01*
X3557131Y-15973428D01*
X3566655Y-15963904D01*
X3671417Y-16078190D02*
X3652369Y-16068666D01*
X3642845Y-16059142D01*
X3633321Y-16040094D01*
X3633321Y-16030571D01*
X3642845Y-16011523D01*
X3652369Y-16001999D01*
X3671417Y-15992475D01*
X3709512Y-15992475D01*
X3728559Y-16001999D01*
X3738083Y-16011523D01*
X3747607Y-16030571D01*
X3747607Y-16040094D01*
X3738083Y-16059142D01*
X3728559Y-16068666D01*
X3709512Y-16078190D01*
X3671417Y-16078190D01*
X3652369Y-16087713D01*
X3642845Y-16097237D01*
X3633321Y-16116285D01*
X3633321Y-16154380D01*
X3642845Y-16173428D01*
X3652369Y-16182952D01*
X3671417Y-16192475D01*
X3709512Y-16192475D01*
X3728559Y-16182952D01*
X3738083Y-16173428D01*
X3747607Y-16154380D01*
X3747607Y-16116285D01*
X3738083Y-16097237D01*
X3728559Y-16087713D01*
X3709512Y-16078190D01*
X3985702Y-16192475D02*
X3985702Y-15992475D01*
X4071417Y-16192475D02*
X4071417Y-16087713D01*
X4061893Y-16068666D01*
X4042845Y-16059142D01*
X4014274Y-16059142D01*
X3995226Y-16068666D01*
X3985702Y-16078190D01*
X4195226Y-16192475D02*
X4176178Y-16182952D01*
X4166655Y-16173428D01*
X4157131Y-16154380D01*
X4157131Y-16097237D01*
X4166655Y-16078190D01*
X4176178Y-16068666D01*
X4195226Y-16059142D01*
X4223798Y-16059142D01*
X4242845Y-16068666D01*
X4252369Y-16078190D01*
X4261893Y-16097237D01*
X4261893Y-16154380D01*
X4252369Y-16173428D01*
X4242845Y-16182952D01*
X4223798Y-16192475D01*
X4195226Y-16192475D01*
X4376179Y-16192475D02*
X4357131Y-16182952D01*
X4347607Y-16163904D01*
X4347607Y-15992475D01*
X4528560Y-16182952D02*
X4509512Y-16192475D01*
X4471417Y-16192475D01*
X4452369Y-16182952D01*
X4442845Y-16163904D01*
X4442845Y-16087713D01*
X4452369Y-16068666D01*
X4471417Y-16059142D01*
X4509512Y-16059142D01*
X4528560Y-16068666D01*
X4538083Y-16087713D01*
X4538083Y-16106761D01*
X4442845Y-16125809D01*
X4614274Y-16182952D02*
X4633321Y-16192475D01*
X4671417Y-16192475D01*
X4690464Y-16182952D01*
X4699988Y-16163904D01*
X4699988Y-16154380D01*
X4690464Y-16135333D01*
X4671417Y-16125809D01*
X4642845Y-16125809D01*
X4623798Y-16116285D01*
X4614274Y-16097237D01*
X4614274Y-16087713D01*
X4623798Y-16068666D01*
X4642845Y-16059142D01*
X4671417Y-16059142D01*
X4690464Y-16068666D01*
X4766655Y-16268666D02*
X4776179Y-16259142D01*
X4795226Y-16230571D01*
X4804750Y-16211523D01*
X4814274Y-16182952D01*
X4823798Y-16135333D01*
X4823798Y-16097237D01*
X4814274Y-16049618D01*
X4804750Y-16021047D01*
X4795226Y-16001999D01*
X4776179Y-15973428D01*
X4766655Y-15963904D01*
X-205250Y-16321999D02*
X-5250Y-16521999D01*
X-5250Y-16321999D02*
X-205250Y-16521999D01*
X-34539Y-16492711D02*
X-34539Y-16351288D01*
X-175961Y-16351288D01*
X-175961Y-16492711D01*
X-34539Y-16492711D01*
X233321Y-16312475D02*
X357131Y-16312475D01*
X290464Y-16388666D01*
X319036Y-16388666D01*
X338083Y-16398190D01*
X347607Y-16407713D01*
X357131Y-16426761D01*
X357131Y-16474380D01*
X347607Y-16493428D01*
X338083Y-16502952D01*
X319036Y-16512475D01*
X261893Y-16512475D01*
X242845Y-16502952D01*
X233321Y-16493428D01*
X442845Y-16493428D02*
X452369Y-16502952D01*
X442845Y-16512475D01*
X433321Y-16502952D01*
X442845Y-16493428D01*
X442845Y-16512475D01*
X528560Y-16331523D02*
X538083Y-16321999D01*
X557131Y-16312475D01*
X604750Y-16312475D01*
X623798Y-16321999D01*
X633321Y-16331523D01*
X642845Y-16350571D01*
X642845Y-16369618D01*
X633321Y-16398190D01*
X519036Y-16512475D01*
X642845Y-16512475D01*
X766655Y-16312475D02*
X785702Y-16312475D01*
X804750Y-16321999D01*
X814274Y-16331523D01*
X823798Y-16350571D01*
X833321Y-16388666D01*
X833321Y-16436285D01*
X823798Y-16474380D01*
X814274Y-16493428D01*
X804750Y-16502952D01*
X785702Y-16512475D01*
X766655Y-16512475D01*
X747607Y-16502952D01*
X738083Y-16493428D01*
X728559Y-16474380D01*
X719036Y-16436285D01*
X719036Y-16388666D01*
X728559Y-16350571D01*
X738083Y-16331523D01*
X747607Y-16321999D01*
X766655Y-16312475D01*
X957131Y-16312475D02*
X976178Y-16312475D01*
X995226Y-16321999D01*
X1004750Y-16331523D01*
X1014274Y-16350571D01*
X1023798Y-16388666D01*
X1023798Y-16436285D01*
X1014274Y-16474380D01*
X1004750Y-16493428D01*
X995226Y-16502952D01*
X976178Y-16512475D01*
X957131Y-16512475D01*
X938083Y-16502952D01*
X928559Y-16493428D01*
X919036Y-16474380D01*
X909512Y-16436285D01*
X909512Y-16388666D01*
X919036Y-16350571D01*
X928559Y-16331523D01*
X938083Y-16321999D01*
X957131Y-16312475D01*
X1109512Y-16512475D02*
X1109512Y-16379142D01*
X1109512Y-16398190D02*
X1119036Y-16388666D01*
X1138083Y-16379142D01*
X1166655Y-16379142D01*
X1185702Y-16388666D01*
X1195226Y-16407713D01*
X1195226Y-16512475D01*
X1195226Y-16407713D02*
X1204750Y-16388666D01*
X1223798Y-16379142D01*
X1252369Y-16379142D01*
X1271417Y-16388666D01*
X1280940Y-16407713D01*
X1280940Y-16512475D01*
X1376179Y-16512475D02*
X1376179Y-16379142D01*
X1376179Y-16398190D02*
X1385702Y-16388666D01*
X1404750Y-16379142D01*
X1433321Y-16379142D01*
X1452369Y-16388666D01*
X1461893Y-16407713D01*
X1461893Y-16512475D01*
X1461893Y-16407713D02*
X1471417Y-16388666D01*
X1490464Y-16379142D01*
X1519036Y-16379142D01*
X1538083Y-16388666D01*
X1547607Y-16407713D01*
X1547607Y-16512475D01*
X1938083Y-16302952D02*
X1766655Y-16560094D01*
X2195226Y-16312475D02*
X2214274Y-16312475D01*
X2233321Y-16321999D01*
X2242845Y-16331523D01*
X2252369Y-16350571D01*
X2261893Y-16388666D01*
X2261893Y-16436285D01*
X2252369Y-16474380D01*
X2242845Y-16493428D01*
X2233321Y-16502952D01*
X2214274Y-16512475D01*
X2195226Y-16512475D01*
X2176179Y-16502952D01*
X2166655Y-16493428D01*
X2157131Y-16474380D01*
X2147607Y-16436285D01*
X2147607Y-16388666D01*
X2157131Y-16350571D01*
X2166655Y-16331523D01*
X2176179Y-16321999D01*
X2195226Y-16312475D01*
X2347607Y-16493428D02*
X2357131Y-16502952D01*
X2347607Y-16512475D01*
X2338083Y-16502952D01*
X2347607Y-16493428D01*
X2347607Y-16512475D01*
X2547607Y-16512475D02*
X2433321Y-16512475D01*
X2490464Y-16512475D02*
X2490464Y-16312475D01*
X2471417Y-16341047D01*
X2452369Y-16360094D01*
X2433321Y-16369618D01*
X2623798Y-16331523D02*
X2633321Y-16321999D01*
X2652369Y-16312475D01*
X2699988Y-16312475D01*
X2719036Y-16321999D01*
X2728560Y-16331523D01*
X2738083Y-16350571D01*
X2738083Y-16369618D01*
X2728560Y-16398190D01*
X2614274Y-16512475D01*
X2738083Y-16512475D01*
X2909512Y-16312475D02*
X2871417Y-16312475D01*
X2852369Y-16321999D01*
X2842845Y-16331523D01*
X2823798Y-16360094D01*
X2814274Y-16398190D01*
X2814274Y-16474380D01*
X2823798Y-16493428D01*
X2833321Y-16502952D01*
X2852369Y-16512475D01*
X2890464Y-16512475D01*
X2909512Y-16502952D01*
X2919036Y-16493428D01*
X2928559Y-16474380D01*
X2928559Y-16426761D01*
X2919036Y-16407713D01*
X2909512Y-16398190D01*
X2890464Y-16388666D01*
X2852369Y-16388666D01*
X2833321Y-16398190D01*
X2823798Y-16407713D01*
X2814274Y-16426761D01*
X3052369Y-16312475D02*
X3071417Y-16312475D01*
X3090464Y-16321999D01*
X3099988Y-16331523D01*
X3109512Y-16350571D01*
X3119036Y-16388666D01*
X3119036Y-16436285D01*
X3109512Y-16474380D01*
X3099988Y-16493428D01*
X3090464Y-16502952D01*
X3071417Y-16512475D01*
X3052369Y-16512475D01*
X3033321Y-16502952D01*
X3023798Y-16493428D01*
X3014274Y-16474380D01*
X3004750Y-16436285D01*
X3004750Y-16388666D01*
X3014274Y-16350571D01*
X3023798Y-16331523D01*
X3033321Y-16321999D01*
X3052369Y-16312475D01*
X3195226Y-16312475D02*
X3195226Y-16350571D01*
X3271417Y-16312475D02*
X3271417Y-16350571D01*
X3566655Y-16588666D02*
X3557131Y-16579142D01*
X3538083Y-16550571D01*
X3528559Y-16531523D01*
X3519036Y-16502952D01*
X3509512Y-16455333D01*
X3509512Y-16417237D01*
X3519036Y-16369618D01*
X3528559Y-16341047D01*
X3538083Y-16321999D01*
X3557131Y-16293428D01*
X3566655Y-16283904D01*
X3728559Y-16379142D02*
X3728559Y-16512475D01*
X3680940Y-16302952D02*
X3633321Y-16445809D01*
X3757131Y-16445809D01*
X3985702Y-16512475D02*
X3985702Y-16312475D01*
X4071417Y-16512475D02*
X4071417Y-16407713D01*
X4061893Y-16388666D01*
X4042845Y-16379142D01*
X4014274Y-16379142D01*
X3995226Y-16388666D01*
X3985702Y-16398190D01*
X4195226Y-16512475D02*
X4176178Y-16502952D01*
X4166655Y-16493428D01*
X4157131Y-16474380D01*
X4157131Y-16417237D01*
X4166655Y-16398190D01*
X4176178Y-16388666D01*
X4195226Y-16379142D01*
X4223798Y-16379142D01*
X4242845Y-16388666D01*
X4252369Y-16398190D01*
X4261893Y-16417237D01*
X4261893Y-16474380D01*
X4252369Y-16493428D01*
X4242845Y-16502952D01*
X4223798Y-16512475D01*
X4195226Y-16512475D01*
X4376179Y-16512475D02*
X4357131Y-16502952D01*
X4347607Y-16483904D01*
X4347607Y-16312475D01*
X4528560Y-16502952D02*
X4509512Y-16512475D01*
X4471417Y-16512475D01*
X4452369Y-16502952D01*
X4442845Y-16483904D01*
X4442845Y-16407713D01*
X4452369Y-16388666D01*
X4471417Y-16379142D01*
X4509512Y-16379142D01*
X4528560Y-16388666D01*
X4538083Y-16407713D01*
X4538083Y-16426761D01*
X4442845Y-16445809D01*
X4614274Y-16502952D02*
X4633321Y-16512475D01*
X4671417Y-16512475D01*
X4690464Y-16502952D01*
X4699988Y-16483904D01*
X4699988Y-16474380D01*
X4690464Y-16455333D01*
X4671417Y-16445809D01*
X4642845Y-16445809D01*
X4623798Y-16436285D01*
X4614274Y-16417237D01*
X4614274Y-16407713D01*
X4623798Y-16388666D01*
X4642845Y-16379142D01*
X4671417Y-16379142D01*
X4690464Y-16388666D01*
X4766655Y-16588666D02*
X4776179Y-16579142D01*
X4795226Y-16550571D01*
X4804750Y-16531523D01*
X4814274Y-16502952D01*
X4823798Y-16455333D01*
X4823798Y-16417237D01*
X4814274Y-16369618D01*
X4804750Y-16341047D01*
X4795226Y-16321999D01*
X4776179Y-16293428D01*
X4766655Y-16283904D01*
M02*
