999
FreeCAD v0.20 29177 +426 (Git)
  0
SECTION
  2
HEADER
  9
$ACADVER
  1
AC1014
  9
$ACADMAINTVER
 70
     9
  9
$DWGCODEPAGE
  3
ANSI_1252
  9
$TEXTSTYLE
  7
STANDARD
  9
$DIMSTYLE
  2
STANDARD
  9
$DIMTXSTY
  7
STANDARD
  9
$CMLSTYLE
  2
STANDARD
  9
$LUNITS
 70
2
  9
$INSUNITS
 70
4
  9
$PEXTMAX
 10
50
 20
50
 30
50
  9
$PEXTMIN
 10
0
 20
0
 30
0
  9
$HANDSEED
  5
FFFF
  0
ENDSEC
  0
SECTION
  2
CLASSES
  0
CLASS
  1
ACDBDICTIONARYWDFLT
  2
AcDbDictionaryWithDefault
  3
ObjectDBX Classes
 90
        0
280
     0
281
     0
  0
CLASS
  1
XRECORD
  2
AcDbXrecord
  3
ObjectDBX Classes
 90
        0
280
     0
281
     0
  0
CLASS
  1
LWPOLYLINE
  2
AcDbPolyline
  3
ObjectDBX Classes
 90
        0
280
     0
281
     1
  0
ENDSEC
  0
SECTION
  2
TABLES
  0
TABLE
  2
VPORT
  5
20
330
0
100
AcDbSymbolTable
 70
     1
  0
VPORT
  5
21
330
20
100
AcDbSymbolTableRecord
100
AcDbViewportTableRecord
  2
*ACTIVE
 70
     0
  0
ENDTAB
  0
TABLE
  2
LTYPE
  5
22
330
0
100
AcDbSymbolTable
 70
     1
  0
LTYPE
  5
23
330
21
100
AcDbSymbolTableRecord
100
AcDbLinetypeTableRecord
  2
BYBLOCK
 70
     0
  3

 72
    65
 73
     0
 40
0.0
  0
LTYPE
  5
24
330
21
100
AcDbSymbolTableRecord
100
AcDbLinetypeTableRecord
  2
BYLAYER
 70
     0
  3

 72
    65
 73
     0
 40
0.0
  0
LTYPE
  5
25
330
21
100
AcDbSymbolTableRecord
100
AcDbLinetypeTableRecord
  2
CONTINUOUS
 70
     0
  3
Solid line
 72
    65
 73
     0
 40
0.0
  0
ENDTAB
  0
TABLE
  2
LAYER
  5
C35
330
0
100
AcDbSymbolTable
 70
3
  0
LAYER
  5
C36
330
C35
100
AcDbSymbolTableRecord
100
AcDbLayerTableRecord
  2
0
 70
   0
 62
   7
  6
CONTINUOUS
  0
LAYER
  5
C37
330
C35
100
AcDbSymbolTableRecord
100
AcDbLayerTableRecord
  2
View009
 70
    0
 62
    7
  6
CONTINUOUS
  0
LAYER
  5
C38
330
C35
100
AcDbSymbolTableRecord
100
AcDbLayerTableRecord
  2
View010
 70
    0
 62
    7
  6
CONTINUOUS
  0
ENDTAB
  0
TABLE
  2
STYLE
  5
70
330
0
100
AcDbSymbolTable
 70
     2
  0
STYLE
  5
71
330
70
100
AcDbSymbolTableRecord
100
AcDbTextStyleTableRecord
  2
STANDARD
 70
     0
 40
0.0
 41
1.0
 50
0.0
 71
     0
 42
2.5
  3
arial.ttf
  4

  0
STYLE
  5
72
330
70
100
AcDbSymbolTableRecord
100
AcDbTextStyleTableRecord
  2
ANNOTATIVE
 70
     0
 40
0.0
 41
1.0
 50
0.0
 71
     0
 42
2.5
  3
arial.ttf
  4

  0
ENDTAB
  0
TABLE
  2
VIEW
  5
73
330
0
100
AcDbSymbolTable
 70
     0
  0
ENDTAB
  0
TABLE
  2
UCS
  5
74
330
0
100
AcDbSymbolTable
 70
     0
  0
ENDTAB
  0
TABLE
  2
APPID
  5
75
330
0
100
AcDbSymbolTable
 70
     2
  0
APPID
  5
76
330
75
100
AcDbSymbolTableRecord
100
AcDbRegAppTableRecord
  2
ACAD
 70
     0
  0
APPID
  5
77
330
75
100
AcDbSymbolTableRecord
100
AcDbRegAppTableRecord
  2
ACADANNOTATIVE
 70
     0
  0
ENDTAB
  0
TABLE
  2
DIMSTYLE
  5
78
330
0
100
AcDbSymbolTable
 70
     2
  0
DIMSTYLE
105
79
330
78
100
AcDbSymbolTableRecord
100
AcDbDimStyleTableRecord
  2
STANDARD
 70
     0
  3

  4

  5

  6

  7

 40
0.0
 41
2.5
 42
0.625
 43
3.75
 44
1.25
 45
0.0
 46
0.0
 47
0.0
 48
0.0
140
2.5
141
2.5
142
0.0
143
0.03937007874016
144
1.0
145
0.0
146
1.0
147
0.625
 71
     0
 72
     0
 73
     0
 74
     0
 75
     0
 76
     0
 77
     1
 78
     8
170
     0
171
     3
172
     1
173
     0
174
     0
175
     0
176
     0
177
     0
178
     0
270
     2
271
     2
272
     2
273
     2
274
     3
340
71
275
     0
280
     0
281
     0
282
     0
283
     0
284
     8
285
     0
286
     0
287
     3
288
     0
  0
ENDTAB
  0
TABLE
  2
BLOCK_RECORD
  5
A01
330
0
100
AcDbSymbolTable
  70
5
  0
BLOCK_RECORD
  5
A02
330
A01
100
AcDbSymbolTableRecord
100
AcDbBlockTableRecord
  2
*MODEL_SPACE
  0
BLOCK_RECORD
  5
A03
330
A01
100
AcDbSymbolTableRecord
100
AcDbBlockTableRecord
  2
*PAPER_SPACE
  0
ENDTAB
  0
ENDSEC
  0
SECTION
  2
BLOCKS
  0
BLOCK
  5
A04
330
A02
100
AcDbEntity
  8
0
100
AcDbBlockBegin
  2
*MODEL_SPACE
 70
   0
 10
0
 20
0
 30
0
  3
*MODEL_SPACE
  1
 
  0
ENDBLK
  5
A05
330
A02
100
AcDbEntity
  8
0
100
AcDbBlockEnd
  0
BLOCK
  5
A06
330
A03
100
AcDbEntity
 67
1
  8
0
100
AcDbBlockBegin
  2
*PAPER_SPACE
 70
   0
 10
0
 20
0
 30
0
  3
*PAPER_SPACE
  1
 
  0
ENDBLK
  5
A07
330
A03
100
AcDbEntity
 67
    1
  8
0
100
AcDbBlockEnd
  0
ENDSEC
  0
SECTION
  2
ENTITIES
  0
LINE
  5
A08
330
A02
100
AcDbEntity
  8
View009
100
AcDbLine
 10
98.215
 20
234.57
 30
0
 11
98.215
 21
388.682
 31
0
  0
ARC
  5
A09
330
A02
100
AcDbEntity
  8
View009
100
AcDbCircle
 10
101.715
 20
234.57
 30
0
 40
3.5
100
AcDbArc
 50
-180
 51
-90
  0
ARC
  5
A0A
330
A02
100
AcDbEntity
  8
View009
100
AcDbCircle
 10
101.715
 20
388.682
 30
0
 40
3.5
100
AcDbArc
 50
90
 51
-180
  0
LINE
  5
A0B
330
A02
100
AcDbEntity
  8
View009
100
AcDbLine
 10
101.715
 20
392.182
 30
0
 11
377.129
 21
392.182
 31
0
  0
LINE
  5
A0C
330
A02
100
AcDbEntity
  8
View009
100
AcDbLine
 10
377.129
 20
392.182
 30
0
 11
387.996
 21
392.182
 31
0
  0
ARC
  5
A0D
330
A02
100
AcDbEntity
  8
View009
100
AcDbCircle
 10
387.996
 20
390.682
 30
0
 40
1.5
100
AcDbArc
 50
0
 51
90
  0
LINE
  5
A0E
330
A02
100
AcDbEntity
  8
View009
100
AcDbLine
 10
389.496
 20
383.682
 30
0
 11
389.496
 21
390.682
 31
0
  0
ARC
  5
A0F
330
A02
100
AcDbEntity
  8
View009
100
AcDbCircle
 10
387.996
 20
383.682
 30
0
 40
1.5
100
AcDbArc
 50
-90
 51
0
  0
LINE
  5
A10
330
A02
100
AcDbEntity
  8
View009
100
AcDbLine
 10
377.129
 20
382.182
 30
0
 11
387.996
 21
382.182
 31
0
  0
LINE
  5
A11
330
A02
100
AcDbEntity
  8
View009
100
AcDbLine
 10
109.215
 20
382.182
 30
0
 11
377.129
 21
382.182
 31
0
  0
ARC
  5
A12
330
A02
100
AcDbEntity
  8
View009
100
AcDbCircle
 10
109.215
 20
381.182
 30
0
 40
1
100
AcDbArc
 50
90
 51
-180
  0
LINE
  5
A13
330
A02
100
AcDbEntity
  8
View009
100
AcDbLine
 10
108.215
 20
242.07
 30
0
 11
108.215
 21
381.182
 31
0
  0
ARC
  5
A14
330
A02
100
AcDbEntity
  8
View009
100
AcDbCircle
 10
109.215
 20
242.07
 30
0
 40
1
100
AcDbArc
 50
180
 51
-90
  0
LINE
  5
A15
330
A02
100
AcDbEntity
  8
View009
100
AcDbLine
 10
484.071
 20
241.07
 30
0
 11
109.215
 21
241.07
 31
0
  0
ARC
  5
A16
330
A02
100
AcDbEntity
  8
View009
100
AcDbCircle
 10
484.071
 20
242.07
 30
0
 40
1
100
AcDbArc
 50
-90
 51
0
  0
LINE
  5
A17
330
A02
100
AcDbEntity
  8
View009
100
AcDbLine
 10
485.071
 20
381.182
 30
0
 11
485.071
 21
242.07
 31
0
  0
ARC
  5
A18
330
A02
100
AcDbEntity
  8
View009
100
AcDbCircle
 10
484.071
 20
381.182
 30
0
 40
1
100
AcDbArc
 50
-3.25689e-12
 51
90
  0
LINE
  5
A19
330
A02
100
AcDbEntity
  8
View009
100
AcDbLine
 10
419.576
 20
382.182
 30
0
 11
484.071
 21
382.182
 31
0
  0
LINE
  5
A1A
330
A02
100
AcDbEntity
  8
View009
100
AcDbLine
 10
406.109
 20
382.182
 30
0
 11
419.576
 21
382.182
 31
0
  0
ARC
  5
A1B
330
A02
100
AcDbEntity
  8
View009
100
AcDbCircle
 10
406.109
 20
383.682
 30
0
 40
1.5
100
AcDbArc
 50
-180
 51
-90
  0
LINE
  5
A1C
330
A02
100
AcDbEntity
  8
View009
100
AcDbLine
 10
404.609
 20
390.682
 30
0
 11
404.609
 21
383.682
 31
0
  0
ARC
  5
A1D
330
A02
100
AcDbEntity
  8
View009
100
AcDbCircle
 10
406.109
 20
390.682
 30
0
 40
1.5
100
AcDbArc
 50
90
 51
180
  0
LINE
  5
A1E
330
A02
100
AcDbEntity
  8
View009
100
AcDbLine
 10
406.109
 20
392.182
 30
0
 11
419.576
 21
392.182
 31
0
  0
LINE
  5
A1F
330
A02
100
AcDbEntity
  8
View009
100
AcDbLine
 10
419.576
 20
392.182
 30
0
 11
491.571
 21
392.182
 31
0
  0
ARC
  5
A20
330
A02
100
AcDbEntity
  8
View009
100
AcDbCircle
 10
491.571
 20
388.682
 30
0
 40
3.5
100
AcDbArc
 50
-1.86108e-12
 51
90
  0
LINE
  5
A21
330
A02
100
AcDbEntity
  8
View009
100
AcDbLine
 10
495.071
 20
388.682
 30
0
 11
495.071
 21
234.57
 31
0
  0
ARC
  5
A22
330
A02
100
AcDbEntity
  8
View009
100
AcDbCircle
 10
491.571
 20
234.57
 30
0
 40
3.5
100
AcDbArc
 50
-90
 51
-1.39581e-12
  0
LINE
  5
A23
330
A02
100
AcDbEntity
  8
View009
100
AcDbLine
 10
491.571
 20
231.07
 30
0
 11
101.715
 21
231.07
 31
0
  0
CIRCLE
  5
A24
330
A02
100
AcDbEntity
  8
View009
100
AcDbCircle
 10
103.215
 20
236.07
 40
1.6
  0
CIRCLE
  5
A25
330
A02
100
AcDbEntity
  8
View009
100
AcDbCircle
 10
180.527
 20
236.07
 40
1.6
  0
CIRCLE
  5
A26
330
A02
100
AcDbEntity
  8
View009
100
AcDbCircle
 10
257.839
 20
236.07
 40
1.6
  0
CIRCLE
  5
A27
330
A02
100
AcDbEntity
  8
View009
100
AcDbCircle
 10
335.447
 20
236.07
 40
1.6
  0
CIRCLE
  5
A28
330
A02
100
AcDbEntity
  8
View009
100
AcDbCircle
 10
412.759
 20
236.07
 40
1.6
  0
CIRCLE
  5
A29
330
A02
100
AcDbEntity
  8
View009
100
AcDbCircle
 10
490.071
 20
236.07
 40
1.6
  0
CIRCLE
  5
A2A
330
A02
100
AcDbEntity
  8
View009
100
AcDbCircle
 10
103.215
 20
387.182
 40
1.6
  0
CIRCLE
  5
A2B
330
A02
100
AcDbEntity
  8
View009
100
AcDbCircle
 10
180.527
 20
387.182
 40
1.6
  0
CIRCLE
  5
A2C
330
A02
100
AcDbEntity
  8
View009
100
AcDbCircle
 10
257.839
 20
387.182
 40
1.6
  0
CIRCLE
  5
A2D
330
A02
100
AcDbEntity
  8
View009
100
AcDbCircle
 10
335.447
 20
387.182
 40
1.6
  0
CIRCLE
  5
A2E
330
A02
100
AcDbEntity
  8
View009
100
AcDbCircle
 10
412.759
 20
387.182
 40
1.6
  0
CIRCLE
  5
A2F
330
A02
100
AcDbEntity
  8
View009
100
AcDbCircle
 10
490.071
 20
387.182
 40
1.6
  0
LINE
  5
A30
330
A02
100
AcDbEntity
  8
View010
100
AcDbLine
 10
101.41
 20
207.123
 30
0
 11
491.266
 21
207.123
 31
0
  0
ARC
  5
A31
330
A02
100
AcDbEntity
  8
View010
100
AcDbCircle
 10
101.41
 20
203.623
 30
0
 40
3.5
100
AcDbArc
 50
90
 51
180
  0
ARC
  5
A32
330
A02
100
AcDbEntity
  8
View010
100
AcDbCircle
 10
491.266
 20
203.623
 30
0
 40
3.5
100
AcDbArc
 50
0
 51
90
  0
LINE
  5
A33
330
A02
100
AcDbEntity
  8
View010
100
AcDbLine
 10
97.91
 20
49.5105
 30
0
 11
97.91
 21
203.623
 31
0
  0
LINE
  5
A34
330
A02
100
AcDbEntity
  8
View010
100
AcDbLine
 10
494.766
 20
203.623
 30
0
 11
494.766
 21
49.5105
 31
0
  0
ARC
  5
A35
330
A02
100
AcDbEntity
  8
View010
100
AcDbCircle
 10
101.41
 20
49.5105
 30
0
 40
3.5
100
AcDbArc
 50
-180
 51
-90
  0
ARC
  5
A36
330
A02
100
AcDbEntity
  8
View010
100
AcDbCircle
 10
491.266
 20
49.5105
 30
0
 40
3.5
100
AcDbArc
 50
-90
 51
0
  0
LINE
  5
A37
330
A02
100
AcDbEntity
  8
View010
100
AcDbLine
 10
491.266
 20
46.0105
 30
0
 11
101.41
 21
46.0105
 31
0
  0
CIRCLE
  5
A38
330
A02
100
AcDbEntity
  8
View010
100
AcDbCircle
 10
102.91
 20
51.0105
 40
1.6
  0
CIRCLE
  5
A39
330
A02
100
AcDbEntity
  8
View010
100
AcDbCircle
 10
180.222
 20
51.0105
 40
1.6
  0
SPLINE
  5
A3A
330
A02
100
AcDbEntity
  8
View010
100
AcDbSpline
210
0
220
0
230
1
 70
8
 71
1
 72
4
 73
2
 74
0
 40
0
 40
0
 40
1
 40
1
 10
132.259
 20
66.4122
 30
0
 10
118.259
 20
66.4122
 30
0
  0
SPLINE
  5
A3B
330
A02
100
AcDbEntity
  8
View010
100
AcDbSpline
210
0
220
0
230
1
 70
8
 71
1
 72
4
 73
2
 74
0
 40
0
 40
0
 40
1
 40
1
 10
132.259
 20
80.4121
 30
0
 10
132.259
 20
66.4122
 30
0
  0
SPLINE
  5
A3C
330
A02
100
AcDbEntity
  8
View010
100
AcDbSpline
210
0
220
0
230
1
 70
8
 71
1
 72
4
 73
2
 74
0
 40
0
 40
0
 40
1
 40
1
 10
118.259
 20
66.4122
 30
0
 10
118.259
 20
80.4121
 30
0
  0
SPLINE
  5
A3D
330
A02
100
AcDbEntity
  8
View010
100
AcDbSpline
210
0
220
0
230
1
 70
8
 71
1
 72
4
 73
2
 74
0
 40
0
 40
0
 40
1
 40
1
 10
118.259
 20
80.4121
 30
0
 10
132.259
 20
80.4121
 30
0
  0
SPLINE
  5
A3E
330
A02
100
AcDbEntity
  8
View010
100
AcDbSpline
210
0
220
0
230
1
 70
8
 71
1
 72
4
 73
2
 74
0
 40
0
 40
0
 40
1
 40
1
 10
151.309
 20
66.4122
 30
0
 10
137.309
 20
66.4122
 30
0
  0
SPLINE
  5
A3F
330
A02
100
AcDbEntity
  8
View010
100
AcDbSpline
210
0
220
0
230
1
 70
8
 71
1
 72
4
 73
2
 74
0
 40
0
 40
0
 40
1
 40
1
 10
151.309
 20
80.4121
 30
0
 10
151.309
 20
66.4122
 30
0
  0
SPLINE
  5
A40
330
A02
100
AcDbEntity
  8
View010
100
AcDbSpline
210
0
220
0
230
1
 70
8
 71
1
 72
4
 73
2
 74
0
 40
0
 40
0
 40
1
 40
1
 10
137.309
 20
66.4122
 30
0
 10
137.309
 20
80.4121
 30
0
  0
SPLINE
  5
A41
330
A02
100
AcDbEntity
  8
View010
100
AcDbSpline
210
0
220
0
230
1
 70
8
 71
1
 72
4
 73
2
 74
0
 40
0
 40
0
 40
1
 40
1
 10
137.309
 20
80.4121
 30
0
 10
151.309
 20
80.4121
 30
0
  0
SPLINE
  5
A42
330
A02
100
AcDbEntity
  8
View010
100
AcDbSpline
210
0
220
0
230
1
 70
8
 71
1
 72
4
 73
2
 74
0
 40
0
 40
0
 40
1
 40
1
 10
182.265
 20
66.4122
 30
0
 10
168.265
 20
66.4122
 30
0
  0
SPLINE
  5
A43
330
A02
100
AcDbEntity
  8
View010
100
AcDbSpline
210
0
220
0
230
1
 70
8
 71
1
 72
4
 73
2
 74
0
 40
0
 40
0
 40
1
 40
1
 10
182.265
 20
80.4121
 30
0
 10
182.265
 20
66.4122
 30
0
  0
SPLINE
  5
A44
330
A02
100
AcDbEntity
  8
View010
100
AcDbSpline
210
0
220
0
230
1
 70
8
 71
1
 72
4
 73
2
 74
0
 40
0
 40
0
 40
1
 40
1
 10
168.265
 20
66.4122
 30
0
 10
168.265
 20
80.4121
 30
0
  0
SPLINE
  5
A45
330
A02
100
AcDbEntity
  8
View010
100
AcDbSpline
210
0
220
0
230
1
 70
8
 71
1
 72
4
 73
2
 74
0
 40
0
 40
0
 40
1
 40
1
 10
168.265
 20
80.4121
 30
0
 10
182.265
 20
80.4121
 30
0
  0
CIRCLE
  5
A46
330
A02
100
AcDbEntity
  8
View010
100
AcDbCircle
 10
257.534
 20
51.0105
 40
1.6
  0
SPLINE
  5
A47
330
A02
100
AcDbEntity
  8
View010
100
AcDbSpline
210
0
220
0
230
1
 70
8
 71
1
 72
4
 73
2
 74
0
 40
0
 40
0
 40
1
 40
1
 10
206.077
 20
66.4122
 30
0
 10
192.077
 20
66.4122
 30
0
  0
SPLINE
  5
A48
330
A02
100
AcDbEntity
  8
View010
100
AcDbSpline
210
0
220
0
230
1
 70
8
 71
1
 72
4
 73
2
 74
0
 40
0
 40
0
 40
1
 40
1
 10
206.077
 20
80.4121
 30
0
 10
206.077
 20
66.4122
 30
0
  0
SPLINE
  5
A49
330
A02
100
AcDbEntity
  8
View010
100
AcDbSpline
210
0
220
0
230
1
 70
8
 71
1
 72
4
 73
2
 74
0
 40
0
 40
0
 40
1
 40
1
 10
192.077
 20
66.4122
 30
0
 10
192.077
 20
80.4121
 30
0
  0
SPLINE
  5
A4A
330
A02
100
AcDbEntity
  8
View010
100
AcDbSpline
210
0
220
0
230
1
 70
8
 71
1
 72
4
 73
2
 74
0
 40
0
 40
0
 40
1
 40
1
 10
192.077
 20
80.4121
 30
0
 10
206.077
 20
80.4121
 30
0
  0
SPLINE
  5
A4B
330
A02
100
AcDbEntity
  8
View010
100
AcDbSpline
210
0
220
0
230
1
 70
8
 71
1
 72
4
 73
2
 74
0
 40
0
 40
0
 40
1
 40
1
 10
229.89
 20
66.4122
 30
0
 10
215.89
 20
66.4122
 30
0
  0
SPLINE
  5
A4C
330
A02
100
AcDbEntity
  8
View010
100
AcDbSpline
210
0
220
0
230
1
 70
8
 71
1
 72
4
 73
2
 74
0
 40
0
 40
0
 40
1
 40
1
 10
229.89
 20
80.4121
 30
0
 10
229.89
 20
66.4122
 30
0
  0
SPLINE
  5
A4D
330
A02
100
AcDbEntity
  8
View010
100
AcDbSpline
210
0
220
0
230
1
 70
8
 71
1
 72
4
 73
2
 74
0
 40
0
 40
0
 40
1
 40
1
 10
215.89
 20
66.4122
 30
0
 10
215.89
 20
80.4121
 30
0
  0
SPLINE
  5
A4E
330
A02
100
AcDbEntity
  8
View010
100
AcDbSpline
210
0
220
0
230
1
 70
8
 71
1
 72
4
 73
2
 74
0
 40
0
 40
0
 40
1
 40
1
 10
215.89
 20
80.4121
 30
0
 10
229.89
 20
80.4121
 30
0
  0
SPLINE
  5
A4F
330
A02
100
AcDbEntity
  8
View010
100
AcDbSpline
210
0
220
0
230
1
 70
8
 71
1
 72
4
 73
2
 74
0
 40
0
 40
0
 40
1
 40
1
 10
247.702
 20
75.712
 30
0
 10
287.327
 20
75.712
 30
0
  0
SPLINE
  5
A50
330
A02
100
AcDbEntity
  8
View010
100
AcDbSpline
210
0
220
0
230
1
 70
8
 71
1
 72
4
 73
2
 74
0
 40
0
 40
0
 40
1
 40
1
 10
247.702
 20
82.2491
 30
0
 10
247.702
 20
75.712
 30
0
  0
SPLINE
  5
A51
330
A02
100
AcDbEntity
  8
View010
100
AcDbSpline
210
0
220
0
230
1
 70
8
 71
1
 72
4
 73
2
 74
0
 40
0
 40
0
 40
1
 40
1
 10
287.327
 20
75.712
 30
0
 10
287.327
 20
80.4121
 30
0
  0
SPLINE
  5
A52
330
A02
100
AcDbEntity
  8
View010
100
AcDbSpline
210
0
220
0
230
1
 70
8
 71
1
 72
4
 73
2
 74
0
 40
0
 40
0
 40
1
 40
1
 10
245.977
 20
82.2491
 30
0
 10
247.702
 20
82.2491
 30
0
  0
SPLINE
  5
A53
330
A02
100
AcDbEntity
  8
View010
100
AcDbSpline
210
0
220
0
230
1
 70
8
 71
1
 72
4
 73
2
 74
0
 40
0
 40
0
 40
1
 40
1
 10
287.327
 20
80.4121
 30
0
 10
301.327
 20
80.4121
 30
0
  0
SPLINE
  5
A54
330
A02
100
AcDbEntity
  8
View010
100
AcDbSpline
210
0
220
0
230
1
 70
8
 71
1
 72
4
 73
2
 74
0
 40
0
 40
0
 40
1
 40
1
 10
242.677
 20
82.2491
 30
0
 10
245.977
 20
82.2491
 30
0
  0
SPLINE
  5
A55
330
A02
100
AcDbEntity
  8
View010
100
AcDbSpline
210
0
220
0
230
1
 70
8
 71
1
 72
4
 73
2
 74
0
 40
0
 40
0
 40
1
 40
1
 10
301.327
 20
80.4121
 30
0
 10
301.327
 20
75.712
 30
0
  0
SPLINE
  5
A56
330
A02
100
AcDbEntity
  8
View010
100
AcDbSpline
210
0
220
0
230
1
 70
8
 71
1
 72
4
 73
2
 74
0
 40
0
 40
0
 40
1
 40
1
 10
240.951
 20
82.2491
 30
0
 10
242.677
 20
82.2491
 30
0
  0
SPLINE
  5
A57
330
A02
100
AcDbEntity
  8
View010
100
AcDbSpline
210
0
220
0
230
1
 70
8
 71
1
 72
4
 73
2
 74
0
 40
0
 40
0
 40
1
 40
1
 10
301.327
 20
75.712
 30
0
 10
340.952
 20
75.712
 30
0
  0
SPLINE
  5
A58
330
A02
100
AcDbEntity
  8
View010
100
AcDbSpline
210
0
220
0
230
1
 70
8
 71
1
 72
4
 73
2
 74
0
 40
0
 40
0
 40
1
 40
1
 10
240.951
 20
75.712
 30
0
 10
240.951
 20
82.2491
 30
0
  0
SPLINE
  5
A59
330
A02
100
AcDbEntity
  8
View010
100
AcDbSpline
210
0
220
0
230
1
 70
8
 71
1
 72
4
 73
2
 74
0
 40
0
 40
0
 40
1
 40
1
 10
340.952
 20
75.712
 30
0
 10
340.952
 20
82.2491
 30
0
  0
SPLINE
  5
A5A
330
A02
100
AcDbEntity
  8
View010
100
AcDbSpline
210
0
220
0
230
1
 70
8
 71
1
 72
4
 73
2
 74
0
 40
0
 40
0
 40
1
 40
1
 10
240.951
 20
72.9122
 30
0
 10
240.951
 20
75.712
 30
0
  0
SPLINE
  5
A5B
330
A02
100
AcDbEntity
  8
View010
100
AcDbSpline
210
0
220
0
230
1
 70
8
 71
1
 72
4
 73
2
 74
0
 40
0
 40
0
 40
1
 40
1
 10
340.952
 20
82.2491
 30
0
 10
342.677
 20
82.2491
 30
0
  0
SPLINE
  5
A5C
330
A02
100
AcDbEntity
  8
View010
100
AcDbSpline
210
0
220
0
230
1
 70
8
 71
1
 72
4
 73
2
 74
0
 40
0
 40
0
 40
1
 40
1
 10
240.951
 20
66.6421
 30
0
 10
240.951
 20
72.9122
 30
0
  0
SPLINE
  5
A5D
330
A02
100
AcDbEntity
  8
View010
100
AcDbSpline
210
0
220
0
230
1
 70
8
 71
1
 72
4
 73
2
 74
0
 40
0
 40
0
 40
1
 40
1
 10
342.677
 20
82.2491
 30
0
 10
345.977
 20
82.2491
 30
0
  0
SPLINE
  5
A5E
330
A02
100
AcDbEntity
  8
View010
100
AcDbSpline
210
0
220
0
230
1
 70
8
 71
1
 72
4
 73
2
 74
0
 40
0
 40
0
 40
1
 40
1
 10
242.677
 20
66.6421
 30
0
 10
240.951
 20
66.6421
 30
0
  0
SPLINE
  5
A5F
330
A02
100
AcDbEntity
  8
View010
100
AcDbSpline
210
0
220
0
230
1
 70
8
 71
1
 72
4
 73
2
 74
0
 40
0
 40
0
 40
1
 40
1
 10
345.977
 20
82.2491
 30
0
 10
347.702
 20
82.2491
 30
0
  0
SPLINE
  5
A60
330
A02
100
AcDbEntity
  8
View010
100
AcDbSpline
210
0
220
0
230
1
 70
8
 71
1
 72
4
 73
2
 74
0
 40
0
 40
0
 40
1
 40
1
 10
245.977
 20
66.6421
 30
0
 10
242.677
 20
66.6421
 30
0
  0
SPLINE
  5
A61
330
A02
100
AcDbEntity
  8
View010
100
AcDbSpline
210
0
220
0
230
1
 70
8
 71
1
 72
4
 73
2
 74
0
 40
0
 40
0
 40
1
 40
1
 10
347.702
 20
82.2491
 30
0
 10
347.702
 20
75.712
 30
0
  0
SPLINE
  5
A62
330
A02
100
AcDbEntity
  8
View010
100
AcDbSpline
210
0
220
0
230
1
 70
8
 71
1
 72
4
 73
2
 74
0
 40
0
 40
0
 40
1
 40
1
 10
247.702
 20
66.6421
 30
0
 10
245.977
 20
66.6421
 30
0
  0
SPLINE
  5
A63
330
A02
100
AcDbEntity
  8
View010
100
AcDbSpline
210
0
220
0
230
1
 70
8
 71
1
 72
4
 73
2
 74
0
 40
0
 40
0
 40
1
 40
1
 10
347.702
 20
75.712
 30
0
 10
347.702
 20
72.9122
 30
0
  0
SPLINE
  5
A64
330
A02
100
AcDbEntity
  8
View010
100
AcDbSpline
210
0
220
0
230
1
 70
8
 71
1
 72
4
 73
2
 74
0
 40
0
 40
0
 40
1
 40
1
 10
247.702
 20
71.1122
 30
0
 10
247.702
 20
66.6421
 30
0
  0
SPLINE
  5
A65
330
A02
100
AcDbEntity
  8
View010
100
AcDbSpline
210
0
220
0
230
1
 70
8
 71
1
 72
4
 73
2
 74
0
 40
0
 40
0
 40
1
 40
1
 10
347.702
 20
72.9122
 30
0
 10
347.702
 20
66.6421
 30
0
  0
SPLINE
  5
A66
330
A02
100
AcDbEntity
  8
View010
100
AcDbSpline
210
0
220
0
230
1
 70
8
 71
1
 72
4
 73
2
 74
0
 40
0
 40
0
 40
1
 40
1
 10
287.327
 20
71.1122
 30
0
 10
247.702
 20
71.1122
 30
0
  0
SPLINE
  5
A67
330
A02
100
AcDbEntity
  8
View010
100
AcDbSpline
210
0
220
0
230
1
 70
8
 71
1
 72
4
 73
2
 74
0
 40
0
 40
0
 40
1
 40
1
 10
347.702
 20
66.6421
 30
0
 10
345.977
 20
66.6421
 30
0
  0
SPLINE
  5
A68
330
A02
100
AcDbEntity
  8
View010
100
AcDbSpline
210
0
220
0
230
1
 70
8
 71
1
 72
4
 73
2
 74
0
 40
0
 40
0
 40
1
 40
1
 10
287.327
 20
66.4122
 30
0
 10
287.327
 20
71.1122
 30
0
  0
SPLINE
  5
A69
330
A02
100
AcDbEntity
  8
View010
100
AcDbSpline
210
0
220
0
230
1
 70
8
 71
1
 72
4
 73
2
 74
0
 40
0
 40
0
 40
1
 40
1
 10
345.977
 20
66.6421
 30
0
 10
342.677
 20
66.6421
 30
0
  0
SPLINE
  5
A6A
330
A02
100
AcDbEntity
  8
View010
100
AcDbSpline
210
0
220
0
230
1
 70
8
 71
1
 72
4
 73
2
 74
0
 40
0
 40
0
 40
1
 40
1
 10
301.327
 20
66.4122
 30
0
 10
287.327
 20
66.4122
 30
0
  0
SPLINE
  5
A6B
330
A02
100
AcDbEntity
  8
View010
100
AcDbSpline
210
0
220
0
230
1
 70
8
 71
1
 72
4
 73
2
 74
0
 40
0
 40
0
 40
1
 40
1
 10
342.677
 20
66.6421
 30
0
 10
340.952
 20
66.6421
 30
0
  0
SPLINE
  5
A6C
330
A02
100
AcDbEntity
  8
View010
100
AcDbSpline
210
0
220
0
230
1
 70
8
 71
1
 72
4
 73
2
 74
0
 40
0
 40
0
 40
1
 40
1
 10
301.327
 20
71.1122
 30
0
 10
301.327
 20
66.4122
 30
0
  0
SPLINE
  5
A6D
330
A02
100
AcDbEntity
  8
View010
100
AcDbSpline
210
0
220
0
230
1
 70
8
 71
1
 72
4
 73
2
 74
0
 40
0
 40
0
 40
1
 40
1
 10
340.952
 20
66.6421
 30
0
 10
340.952
 20
71.1122
 30
0
  0
SPLINE
  5
A6E
330
A02
100
AcDbEntity
  8
View010
100
AcDbSpline
210
0
220
0
230
1
 70
8
 71
1
 72
4
 73
2
 74
0
 40
0
 40
0
 40
1
 40
1
 10
340.952
 20
71.1122
 30
0
 10
301.327
 20
71.1122
 30
0
  0
SPLINE
  5
A6F
330
A02
100
AcDbEntity
  8
View010
100
AcDbSpline
210
0
220
0
230
1
 70
8
 71
1
 72
4
 73
2
 74
0
 40
0
 40
0
 40
1
 40
1
 10
132.259
 20
85.4622
 30
0
 10
118.259
 20
85.4622
 30
0
  0
SPLINE
  5
A70
330
A02
100
AcDbEntity
  8
View010
100
AcDbSpline
210
0
220
0
230
1
 70
8
 71
1
 72
4
 73
2
 74
0
 40
0
 40
0
 40
1
 40
1
 10
132.259
 20
99.4621
 30
0
 10
132.259
 20
85.4622
 30
0
  0
SPLINE
  5
A71
330
A02
100
AcDbEntity
  8
View010
100
AcDbSpline
210
0
220
0
230
1
 70
8
 71
1
 72
4
 73
2
 74
0
 40
0
 40
0
 40
1
 40
1
 10
118.259
 20
85.4622
 30
0
 10
118.259
 20
99.4621
 30
0
  0
SPLINE
  5
A72
330
A02
100
AcDbEntity
  8
View010
100
AcDbSpline
210
0
220
0
230
1
 70
8
 71
1
 72
4
 73
2
 74
0
 40
0
 40
0
 40
1
 40
1
 10
118.259
 20
99.4621
 30
0
 10
132.259
 20
99.4621
 30
0
  0
SPLINE
  5
A73
330
A02
100
AcDbEntity
  8
View010
100
AcDbSpline
210
0
220
0
230
1
 70
8
 71
1
 72
4
 73
2
 74
0
 40
0
 40
0
 40
1
 40
1
 10
151.309
 20
85.4622
 30
0
 10
137.309
 20
85.4622
 30
0
  0
SPLINE
  5
A74
330
A02
100
AcDbEntity
  8
View010
100
AcDbSpline
210
0
220
0
230
1
 70
8
 71
1
 72
4
 73
2
 74
0
 40
0
 40
0
 40
1
 40
1
 10
151.309
 20
99.4621
 30
0
 10
151.309
 20
85.4622
 30
0
  0
SPLINE
  5
A75
330
A02
100
AcDbEntity
  8
View010
100
AcDbSpline
210
0
220
0
230
1
 70
8
 71
1
 72
4
 73
2
 74
0
 40
0
 40
0
 40
1
 40
1
 10
137.309
 20
85.4622
 30
0
 10
137.309
 20
99.4621
 30
0
  0
SPLINE
  5
A76
330
A02
100
AcDbEntity
  8
View010
100
AcDbSpline
210
0
220
0
230
1
 70
8
 71
1
 72
4
 73
2
 74
0
 40
0
 40
0
 40
1
 40
1
 10
137.309
 20
99.4621
 30
0
 10
151.309
 20
99.4621
 30
0
  0
SPLINE
  5
A77
330
A02
100
AcDbEntity
  8
View010
100
AcDbSpline
210
0
220
0
230
1
 70
8
 71
1
 72
4
 73
2
 74
0
 40
0
 40
0
 40
1
 40
1
 10
176.265
 20
94.762
 30
0
 10
177.79
 20
94.762
 30
0
  0
SPLINE
  5
A78
330
A02
100
AcDbEntity
  8
View010
100
AcDbSpline
210
0
220
0
230
1
 70
8
 71
1
 72
4
 73
2
 74
0
 40
0
 40
0
 40
1
 40
1
 10
176.265
 20
98.912
 30
0
 10
176.265
 20
94.762
 30
0
  0
SPLINE
  5
A79
330
A02
100
AcDbEntity
  8
View010
100
AcDbSpline
210
0
220
0
230
1
 70
8
 71
1
 72
4
 73
2
 74
0
 40
0
 40
0
 40
1
 40
1
 10
177.79
 20
94.762
 30
0
 10
177.79
 20
99.4621
 30
0
  0
SPLINE
  5
A7A
330
A02
100
AcDbEntity
  8
View010
100
AcDbSpline
210
0
220
0
230
1
 70
8
 71
1
 72
4
 73
2
 74
0
 40
0
 40
0
 40
1
 40
1
 10
174.54
 20
98.912
 30
0
 10
176.265
 20
98.912
 30
0
  0
SPLINE
  5
A7B
330
A02
100
AcDbEntity
  8
View010
100
AcDbSpline
210
0
220
0
230
1
 70
8
 71
1
 72
4
 73
2
 74
0
 40
0
 40
0
 40
1
 40
1
 10
177.79
 20
99.4621
 30
0
 10
191.79
 20
99.4621
 30
0
  0
SPLINE
  5
A7C
330
A02
100
AcDbEntity
  8
View010
100
AcDbSpline
210
0
220
0
230
1
 70
8
 71
1
 72
4
 73
2
 74
0
 40
0
 40
0
 40
1
 40
1
 10
171.24
 20
98.912
 30
0
 10
174.54
 20
98.912
 30
0
  0
SPLINE
  5
A7D
330
A02
100
AcDbEntity
  8
View010
100
AcDbSpline
210
0
220
0
230
1
 70
8
 71
1
 72
4
 73
2
 74
0
 40
0
 40
0
 40
1
 40
1
 10
191.79
 20
99.4621
 30
0
 10
191.79
 20
94.762
 30
0
  0
SPLINE
  5
A7E
330
A02
100
AcDbEntity
  8
View010
100
AcDbSpline
210
0
220
0
230
1
 70
8
 71
1
 72
4
 73
2
 74
0
 40
0
 40
0
 40
1
 40
1
 10
169.515
 20
98.912
 30
0
 10
171.24
 20
98.912
 30
0
  0
SPLINE
  5
A7F
330
A02
100
AcDbEntity
  8
View010
100
AcDbSpline
210
0
220
0
230
1
 70
8
 71
1
 72
4
 73
2
 74
0
 40
0
 40
0
 40
1
 40
1
 10
191.79
 20
94.762
 30
0
 10
193.315
 20
94.762
 30
0
  0
SPLINE
  5
A80
330
A02
100
AcDbEntity
  8
View010
100
AcDbSpline
210
0
220
0
230
1
 70
8
 71
1
 72
4
 73
2
 74
0
 40
0
 40
0
 40
1
 40
1
 10
169.515
 20
94.762
 30
0
 10
169.515
 20
98.912
 30
0
  0
SPLINE
  5
A81
330
A02
100
AcDbEntity
  8
View010
100
AcDbSpline
210
0
220
0
230
1
 70
8
 71
1
 72
4
 73
2
 74
0
 40
0
 40
0
 40
1
 40
1
 10
193.315
 20
94.762
 30
0
 10
193.315
 20
98.912
 30
0
  0
SPLINE
  5
A82
330
A02
100
AcDbEntity
  8
View010
100
AcDbSpline
210
0
220
0
230
1
 70
8
 71
1
 72
4
 73
2
 74
0
 40
0
 40
0
 40
1
 40
1
 10
169.515
 20
91.9622
 30
0
 10
169.515
 20
94.762
 30
0
  0
SPLINE
  5
A83
330
A02
100
AcDbEntity
  8
View010
100
AcDbSpline
210
0
220
0
230
1
 70
8
 71
1
 72
4
 73
2
 74
0
 40
0
 40
0
 40
1
 40
1
 10
193.315
 20
98.912
 30
0
 10
195.04
 20
98.912
 30
0
  0
SPLINE
  5
A84
330
A02
100
AcDbEntity
  8
View010
100
AcDbSpline
210
0
220
0
230
1
 70
8
 71
1
 72
4
 73
2
 74
0
 40
0
 40
0
 40
1
 40
1
 10
169.515
 20
83.8366
 30
0
 10
169.515
 20
91.9622
 30
0
  0
SPLINE
  5
A85
330
A02
100
AcDbEntity
  8
View010
100
AcDbSpline
210
0
220
0
230
1
 70
8
 71
1
 72
4
 73
2
 74
0
 40
0
 40
0
 40
1
 40
1
 10
195.04
 20
98.912
 30
0
 10
198.34
 20
98.912
 30
0
  0
SPLINE
  5
A86
330
A02
100
AcDbEntity
  8
View010
100
AcDbSpline
210
0
220
0
230
1
 70
8
 71
1
 72
4
 73
2
 74
0
 40
0
 40
0
 40
1
 40
1
 10
171.24
 20
83.8366
 30
0
 10
169.515
 20
83.8366
 30
0
  0
SPLINE
  5
A87
330
A02
100
AcDbEntity
  8
View010
100
AcDbSpline
210
0
220
0
230
1
 70
8
 71
1
 72
4
 73
2
 74
0
 40
0
 40
0
 40
1
 40
1
 10
198.34
 20
98.912
 30
0
 10
200.065
 20
98.912
 30
0
  0
SPLINE
  5
A88
330
A02
100
AcDbEntity
  8
View010
100
AcDbSpline
210
0
220
0
230
1
 70
8
 71
1
 72
4
 73
2
 74
0
 40
0
 40
0
 40
1
 40
1
 10
174.54
 20
83.8366
 30
0
 10
171.24
 20
83.8366
 30
0
  0
SPLINE
  5
A89
330
A02
100
AcDbEntity
  8
View010
100
AcDbSpline
210
0
220
0
230
1
 70
8
 71
1
 72
4
 73
2
 74
0
 40
0
 40
0
 40
1
 40
1
 10
200.065
 20
98.912
 30
0
 10
200.065
 20
94.762
 30
0
  0
SPLINE
  5
A8A
330
A02
100
AcDbEntity
  8
View010
100
AcDbSpline
210
0
220
0
230
1
 70
8
 71
1
 72
4
 73
2
 74
0
 40
0
 40
0
 40
1
 40
1
 10
176.265
 20
83.8366
 30
0
 10
174.54
 20
83.8366
 30
0
  0
SPLINE
  5
A8B
330
A02
100
AcDbEntity
  8
View010
100
AcDbSpline
210
0
220
0
230
1
 70
8
 71
1
 72
4
 73
2
 74
0
 40
0
 40
0
 40
1
 40
1
 10
200.065
 20
94.762
 30
0
 10
200.065
 20
91.9622
 30
0
  0
SPLINE
  5
A8C
330
A02
100
AcDbEntity
  8
View010
100
AcDbSpline
210
0
220
0
230
1
 70
8
 71
1
 72
4
 73
2
 74
0
 40
0
 40
0
 40
1
 40
1
 10
176.265
 20
90.1622
 30
0
 10
176.265
 20
83.8366
 30
0
  0
SPLINE
  5
A8D
330
A02
100
AcDbEntity
  8
View010
100
AcDbSpline
210
0
220
0
230
1
 70
8
 71
1
 72
4
 73
2
 74
0
 40
0
 40
0
 40
1
 40
1
 10
200.065
 20
91.9622
 30
0
 10
200.065
 20
83.8366
 30
0
  0
SPLINE
  5
A8E
330
A02
100
AcDbEntity
  8
View010
100
AcDbSpline
210
0
220
0
230
1
 70
8
 71
1
 72
4
 73
2
 74
0
 40
0
 40
0
 40
1
 40
1
 10
177.79
 20
90.1622
 30
0
 10
176.265
 20
90.1622
 30
0
  0
SPLINE
  5
A8F
330
A02
100
AcDbEntity
  8
View010
100
AcDbSpline
210
0
220
0
230
1
 70
8
 71
1
 72
4
 73
2
 74
0
 40
0
 40
0
 40
1
 40
1
 10
200.065
 20
83.8366
 30
0
 10
198.34
 20
83.8366
 30
0
  0
SPLINE
  5
A90
330
A02
100
AcDbEntity
  8
View010
100
AcDbSpline
210
0
220
0
230
1
 70
8
 71
1
 72
4
 73
2
 74
0
 40
0
 40
0
 40
1
 40
1
 10
177.79
 20
85.4622
 30
0
 10
177.79
 20
90.1622
 30
0
  0
SPLINE
  5
A91
330
A02
100
AcDbEntity
  8
View010
100
AcDbSpline
210
0
220
0
230
1
 70
8
 71
1
 72
4
 73
2
 74
0
 40
0
 40
0
 40
1
 40
1
 10
198.34
 20
83.8366
 30
0
 10
195.04
 20
83.8366
 30
0
  0
SPLINE
  5
A92
330
A02
100
AcDbEntity
  8
View010
100
AcDbSpline
210
0
220
0
230
1
 70
8
 71
1
 72
4
 73
2
 74
0
 40
0
 40
0
 40
1
 40
1
 10
191.79
 20
85.4622
 30
0
 10
177.79
 20
85.4622
 30
0
  0
SPLINE
  5
A93
330
A02
100
AcDbEntity
  8
View010
100
AcDbSpline
210
0
220
0
230
1
 70
8
 71
1
 72
4
 73
2
 74
0
 40
0
 40
0
 40
1
 40
1
 10
195.04
 20
83.8366
 30
0
 10
193.315
 20
83.8366
 30
0
  0
SPLINE
  5
A94
330
A02
100
AcDbEntity
  8
View010
100
AcDbSpline
210
0
220
0
230
1
 70
8
 71
1
 72
4
 73
2
 74
0
 40
0
 40
0
 40
1
 40
1
 10
191.79
 20
90.1622
 30
0
 10
191.79
 20
85.4622
 30
0
  0
SPLINE
  5
A95
330
A02
100
AcDbEntity
  8
View010
100
AcDbSpline
210
0
220
0
230
1
 70
8
 71
1
 72
4
 73
2
 74
0
 40
0
 40
0
 40
1
 40
1
 10
193.315
 20
83.8366
 30
0
 10
193.315
 20
90.1622
 30
0
  0
SPLINE
  5
A96
330
A02
100
AcDbEntity
  8
View010
100
AcDbSpline
210
0
220
0
230
1
 70
8
 71
1
 72
4
 73
2
 74
0
 40
0
 40
0
 40
1
 40
1
 10
193.315
 20
90.1622
 30
0
 10
191.79
 20
90.1622
 30
0
  0
SPLINE
  5
A97
330
A02
100
AcDbEntity
  8
View010
100
AcDbSpline
210
0
220
0
230
1
 70
8
 71
1
 72
4
 73
2
 74
0
 40
0
 40
0
 40
1
 40
1
 10
132.259
 20
104.512
 30
0
 10
118.259
 20
104.512
 30
0
  0
SPLINE
  5
A98
330
A02
100
AcDbEntity
  8
View010
100
AcDbSpline
210
0
220
0
230
1
 70
8
 71
1
 72
4
 73
2
 74
0
 40
0
 40
0
 40
1
 40
1
 10
132.259
 20
118.512
 30
0
 10
132.259
 20
104.512
 30
0
  0
SPLINE
  5
A99
330
A02
100
AcDbEntity
  8
View010
100
AcDbSpline
210
0
220
0
230
1
 70
8
 71
1
 72
4
 73
2
 74
0
 40
0
 40
0
 40
1
 40
1
 10
118.259
 20
104.512
 30
0
 10
118.259
 20
118.512
 30
0
  0
SPLINE
  5
A9A
330
A02
100
AcDbEntity
  8
View010
100
AcDbSpline
210
0
220
0
230
1
 70
8
 71
1
 72
4
 73
2
 74
0
 40
0
 40
0
 40
1
 40
1
 10
118.259
 20
118.512
 30
0
 10
132.259
 20
118.512
 30
0
  0
SPLINE
  5
A9B
330
A02
100
AcDbEntity
  8
View010
100
AcDbSpline
210
0
220
0
230
1
 70
8
 71
1
 72
4
 73
2
 74
0
 40
0
 40
0
 40
1
 40
1
 10
151.309
 20
104.512
 30
0
 10
137.309
 20
104.512
 30
0
  0
SPLINE
  5
A9C
330
A02
100
AcDbEntity
  8
View010
100
AcDbSpline
210
0
220
0
230
1
 70
8
 71
1
 72
4
 73
2
 74
0
 40
0
 40
0
 40
1
 40
1
 10
151.309
 20
118.512
 30
0
 10
151.309
 20
104.512
 30
0
  0
SPLINE
  5
A9D
330
A02
100
AcDbEntity
  8
View010
100
AcDbSpline
210
0
220
0
230
1
 70
8
 71
1
 72
4
 73
2
 74
0
 40
0
 40
0
 40
1
 40
1
 10
137.309
 20
104.512
 30
0
 10
137.309
 20
118.512
 30
0
  0
SPLINE
  5
A9E
330
A02
100
AcDbEntity
  8
View010
100
AcDbSpline
210
0
220
0
230
1
 70
8
 71
1
 72
4
 73
2
 74
0
 40
0
 40
0
 40
1
 40
1
 10
137.309
 20
118.512
 30
0
 10
151.309
 20
118.512
 30
0
  0
SPLINE
  5
A9F
330
A02
100
AcDbEntity
  8
View010
100
AcDbSpline
210
0
220
0
230
1
 70
8
 71
1
 72
4
 73
2
 74
0
 40
0
 40
0
 40
1
 40
1
 10
187.027
 20
104.512
 30
0
 10
173.027
 20
104.512
 30
0
  0
SPLINE
  5
AA0
330
A02
100
AcDbEntity
  8
View010
100
AcDbSpline
210
0
220
0
230
1
 70
8
 71
1
 72
4
 73
2
 74
0
 40
0
 40
0
 40
1
 40
1
 10
187.027
 20
118.512
 30
0
 10
187.027
 20
104.512
 30
0
  0
SPLINE
  5
AA1
330
A02
100
AcDbEntity
  8
View010
100
AcDbSpline
210
0
220
0
230
1
 70
8
 71
1
 72
4
 73
2
 74
0
 40
0
 40
0
 40
1
 40
1
 10
173.027
 20
104.512
 30
0
 10
173.027
 20
118.512
 30
0
  0
SPLINE
  5
AA2
330
A02
100
AcDbEntity
  8
View010
100
AcDbSpline
210
0
220
0
230
1
 70
8
 71
1
 72
4
 73
2
 74
0
 40
0
 40
0
 40
1
 40
1
 10
173.027
 20
118.512
 30
0
 10
187.027
 20
118.512
 30
0
  0
SPLINE
  5
AA3
330
A02
100
AcDbEntity
  8
View010
100
AcDbSpline
210
0
220
0
230
1
 70
8
 71
1
 72
4
 73
2
 74
0
 40
0
 40
0
 40
1
 40
1
 10
222.746
 20
85.4622
 30
0
 10
208.746
 20
85.4622
 30
0
  0
SPLINE
  5
AA4
330
A02
100
AcDbEntity
  8
View010
100
AcDbSpline
210
0
220
0
230
1
 70
8
 71
1
 72
4
 73
2
 74
0
 40
0
 40
0
 40
1
 40
1
 10
222.746
 20
99.4621
 30
0
 10
222.746
 20
85.4622
 30
0
  0
SPLINE
  5
AA5
330
A02
100
AcDbEntity
  8
View010
100
AcDbSpline
210
0
220
0
230
1
 70
8
 71
1
 72
4
 73
2
 74
0
 40
0
 40
0
 40
1
 40
1
 10
208.746
 20
85.4622
 30
0
 10
208.746
 20
99.4621
 30
0
  0
SPLINE
  5
AA6
330
A02
100
AcDbEntity
  8
View010
100
AcDbSpline
210
0
220
0
230
1
 70
8
 71
1
 72
4
 73
2
 74
0
 40
0
 40
0
 40
1
 40
1
 10
208.746
 20
99.4621
 30
0
 10
222.746
 20
99.4621
 30
0
  0
SPLINE
  5
AA7
330
A02
100
AcDbEntity
  8
View010
100
AcDbSpline
210
0
220
0
230
1
 70
8
 71
1
 72
4
 73
2
 74
0
 40
0
 40
0
 40
1
 40
1
 10
241.796
 20
85.4622
 30
0
 10
227.796
 20
85.4622
 30
0
  0
SPLINE
  5
AA8
330
A02
100
AcDbEntity
  8
View010
100
AcDbSpline
210
0
220
0
230
1
 70
8
 71
1
 72
4
 73
2
 74
0
 40
0
 40
0
 40
1
 40
1
 10
241.796
 20
99.4621
 30
0
 10
241.796
 20
85.4622
 30
0
  0
SPLINE
  5
AA9
330
A02
100
AcDbEntity
  8
View010
100
AcDbSpline
210
0
220
0
230
1
 70
8
 71
1
 72
4
 73
2
 74
0
 40
0
 40
0
 40
1
 40
1
 10
227.796
 20
85.4622
 30
0
 10
227.796
 20
99.4621
 30
0
  0
SPLINE
  5
AAA
330
A02
100
AcDbEntity
  8
View010
100
AcDbSpline
210
0
220
0
230
1
 70
8
 71
1
 72
4
 73
2
 74
0
 40
0
 40
0
 40
1
 40
1
 10
227.796
 20
99.4621
 30
0
 10
241.796
 20
99.4621
 30
0
  0
SPLINE
  5
AAB
330
A02
100
AcDbEntity
  8
View010
100
AcDbSpline
210
0
220
0
230
1
 70
8
 71
1
 72
4
 73
2
 74
0
 40
0
 40
0
 40
1
 40
1
 10
260.846
 20
85.4622
 30
0
 10
246.846
 20
85.4622
 30
0
  0
SPLINE
  5
AAC
330
A02
100
AcDbEntity
  8
View010
100
AcDbSpline
210
0
220
0
230
1
 70
8
 71
1
 72
4
 73
2
 74
0
 40
0
 40
0
 40
1
 40
1
 10
260.846
 20
99.4621
 30
0
 10
260.846
 20
85.4622
 30
0
  0
SPLINE
  5
AAD
330
A02
100
AcDbEntity
  8
View010
100
AcDbSpline
210
0
220
0
230
1
 70
8
 71
1
 72
4
 73
2
 74
0
 40
0
 40
0
 40
1
 40
1
 10
246.846
 20
85.4622
 30
0
 10
246.846
 20
99.4621
 30
0
  0
SPLINE
  5
AAE
330
A02
100
AcDbEntity
  8
View010
100
AcDbSpline
210
0
220
0
230
1
 70
8
 71
1
 72
4
 73
2
 74
0
 40
0
 40
0
 40
1
 40
1
 10
246.846
 20
99.4621
 30
0
 10
260.846
 20
99.4621
 30
0
  0
SPLINE
  5
AAF
330
A02
100
AcDbEntity
  8
View010
100
AcDbSpline
210
0
220
0
230
1
 70
8
 71
1
 72
4
 73
2
 74
0
 40
0
 40
0
 40
1
 40
1
 10
279.896
 20
85.4622
 30
0
 10
265.896
 20
85.4622
 30
0
  0
SPLINE
  5
AB0
330
A02
100
AcDbEntity
  8
View010
100
AcDbSpline
210
0
220
0
230
1
 70
8
 71
1
 72
4
 73
2
 74
0
 40
0
 40
0
 40
1
 40
1
 10
279.896
 20
99.4621
 30
0
 10
279.896
 20
85.4622
 30
0
  0
SPLINE
  5
AB1
330
A02
100
AcDbEntity
  8
View010
100
AcDbSpline
210
0
220
0
230
1
 70
8
 71
1
 72
4
 73
2
 74
0
 40
0
 40
0
 40
1
 40
1
 10
265.896
 20
85.4622
 30
0
 10
265.896
 20
99.4621
 30
0
  0
SPLINE
  5
AB2
330
A02
100
AcDbEntity
  8
View010
100
AcDbSpline
210
0
220
0
230
1
 70
8
 71
1
 72
4
 73
2
 74
0
 40
0
 40
0
 40
1
 40
1
 10
265.896
 20
99.4621
 30
0
 10
279.896
 20
99.4621
 30
0
  0
SPLINE
  5
AB3
330
A02
100
AcDbEntity
  8
View010
100
AcDbSpline
210
0
220
0
230
1
 70
8
 71
1
 72
4
 73
2
 74
0
 40
0
 40
0
 40
1
 40
1
 10
298.946
 20
85.4622
 30
0
 10
284.946
 20
85.4622
 30
0
  0
SPLINE
  5
AB4
330
A02
100
AcDbEntity
  8
View010
100
AcDbSpline
210
0
220
0
230
1
 70
8
 71
1
 72
4
 73
2
 74
0
 40
0
 40
0
 40
1
 40
1
 10
298.946
 20
99.4621
 30
0
 10
298.946
 20
85.4622
 30
0
  0
SPLINE
  5
AB5
330
A02
100
AcDbEntity
  8
View010
100
AcDbSpline
210
0
220
0
230
1
 70
8
 71
1
 72
4
 73
2
 74
0
 40
0
 40
0
 40
1
 40
1
 10
284.946
 20
85.4622
 30
0
 10
284.946
 20
99.4621
 30
0
  0
SPLINE
  5
AB6
330
A02
100
AcDbEntity
  8
View010
100
AcDbSpline
210
0
220
0
230
1
 70
8
 71
1
 72
4
 73
2
 74
0
 40
0
 40
0
 40
1
 40
1
 10
284.946
 20
99.4621
 30
0
 10
298.946
 20
99.4621
 30
0
  0
SPLINE
  5
AB7
330
A02
100
AcDbEntity
  8
View010
100
AcDbSpline
210
0
220
0
230
1
 70
8
 71
1
 72
4
 73
2
 74
0
 40
0
 40
0
 40
1
 40
1
 10
213.221
 20
104.512
 30
0
 10
199.221
 20
104.512
 30
0
  0
SPLINE
  5
AB8
330
A02
100
AcDbEntity
  8
View010
100
AcDbSpline
210
0
220
0
230
1
 70
8
 71
1
 72
4
 73
2
 74
0
 40
0
 40
0
 40
1
 40
1
 10
213.221
 20
118.512
 30
0
 10
213.221
 20
104.512
 30
0
  0
SPLINE
  5
AB9
330
A02
100
AcDbEntity
  8
View010
100
AcDbSpline
210
0
220
0
230
1
 70
8
 71
1
 72
4
 73
2
 74
0
 40
0
 40
0
 40
1
 40
1
 10
199.221
 20
104.512
 30
0
 10
199.221
 20
118.512
 30
0
  0
SPLINE
  5
ABA
330
A02
100
AcDbEntity
  8
View010
100
AcDbSpline
210
0
220
0
230
1
 70
8
 71
1
 72
4
 73
2
 74
0
 40
0
 40
0
 40
1
 40
1
 10
199.221
 20
118.512
 30
0
 10
213.221
 20
118.512
 30
0
  0
SPLINE
  5
ABB
330
A02
100
AcDbEntity
  8
View010
100
AcDbSpline
210
0
220
0
230
1
 70
8
 71
1
 72
4
 73
2
 74
0
 40
0
 40
0
 40
1
 40
1
 10
232.271
 20
104.512
 30
0
 10
218.271
 20
104.512
 30
0
  0
SPLINE
  5
ABC
330
A02
100
AcDbEntity
  8
View010
100
AcDbSpline
210
0
220
0
230
1
 70
8
 71
1
 72
4
 73
2
 74
0
 40
0
 40
0
 40
1
 40
1
 10
232.271
 20
118.512
 30
0
 10
232.271
 20
104.512
 30
0
  0
SPLINE
  5
ABD
330
A02
100
AcDbEntity
  8
View010
100
AcDbSpline
210
0
220
0
230
1
 70
8
 71
1
 72
4
 73
2
 74
0
 40
0
 40
0
 40
1
 40
1
 10
218.271
 20
104.512
 30
0
 10
218.271
 20
118.512
 30
0
  0
SPLINE
  5
ABE
330
A02
100
AcDbEntity
  8
View010
100
AcDbSpline
210
0
220
0
230
1
 70
8
 71
1
 72
4
 73
2
 74
0
 40
0
 40
0
 40
1
 40
1
 10
218.271
 20
118.512
 30
0
 10
232.271
 20
118.512
 30
0
  0
SPLINE
  5
ABF
330
A02
100
AcDbEntity
  8
View010
100
AcDbSpline
210
0
220
0
230
1
 70
8
 71
1
 72
4
 73
2
 74
0
 40
0
 40
0
 40
1
 40
1
 10
251.321
 20
104.512
 30
0
 10
237.321
 20
104.512
 30
0
  0
SPLINE
  5
AC0
330
A02
100
AcDbEntity
  8
View010
100
AcDbSpline
210
0
220
0
230
1
 70
8
 71
1
 72
4
 73
2
 74
0
 40
0
 40
0
 40
1
 40
1
 10
251.321
 20
118.512
 30
0
 10
251.321
 20
104.512
 30
0
  0
SPLINE
  5
AC1
330
A02
100
AcDbEntity
  8
View010
100
AcDbSpline
210
0
220
0
230
1
 70
8
 71
1
 72
4
 73
2
 74
0
 40
0
 40
0
 40
1
 40
1
 10
237.321
 20
104.512
 30
0
 10
237.321
 20
118.512
 30
0
  0
SPLINE
  5
AC2
330
A02
100
AcDbEntity
  8
View010
100
AcDbSpline
210
0
220
0
230
1
 70
8
 71
1
 72
4
 73
2
 74
0
 40
0
 40
0
 40
1
 40
1
 10
237.321
 20
118.512
 30
0
 10
251.321
 20
118.512
 30
0
  0
SPLINE
  5
AC3
330
A02
100
AcDbEntity
  8
View010
100
AcDbSpline
210
0
220
0
230
1
 70
8
 71
1
 72
4
 73
2
 74
0
 40
0
 40
0
 40
1
 40
1
 10
270.371
 20
104.512
 30
0
 10
256.371
 20
104.512
 30
0
  0
SPLINE
  5
AC4
330
A02
100
AcDbEntity
  8
View010
100
AcDbSpline
210
0
220
0
230
1
 70
8
 71
1
 72
4
 73
2
 74
0
 40
0
 40
0
 40
1
 40
1
 10
270.371
 20
118.512
 30
0
 10
270.371
 20
104.512
 30
0
  0
SPLINE
  5
AC5
330
A02
100
AcDbEntity
  8
View010
100
AcDbSpline
210
0
220
0
230
1
 70
8
 71
1
 72
4
 73
2
 74
0
 40
0
 40
0
 40
1
 40
1
 10
256.371
 20
104.512
 30
0
 10
256.371
 20
118.512
 30
0
  0
SPLINE
  5
AC6
330
A02
100
AcDbEntity
  8
View010
100
AcDbSpline
210
0
220
0
230
1
 70
8
 71
1
 72
4
 73
2
 74
0
 40
0
 40
0
 40
1
 40
1
 10
256.371
 20
118.512
 30
0
 10
270.371
 20
118.512
 30
0
  0
SPLINE
  5
AC7
330
A02
100
AcDbEntity
  8
View010
100
AcDbSpline
210
0
220
0
230
1
 70
8
 71
1
 72
4
 73
2
 74
0
 40
0
 40
0
 40
1
 40
1
 10
289.421
 20
104.512
 30
0
 10
275.421
 20
104.512
 30
0
  0
SPLINE
  5
AC8
330
A02
100
AcDbEntity
  8
View010
100
AcDbSpline
210
0
220
0
230
1
 70
8
 71
1
 72
4
 73
2
 74
0
 40
0
 40
0
 40
1
 40
1
 10
289.421
 20
118.512
 30
0
 10
289.421
 20
104.512
 30
0
  0
SPLINE
  5
AC9
330
A02
100
AcDbEntity
  8
View010
100
AcDbSpline
210
0
220
0
230
1
 70
8
 71
1
 72
4
 73
2
 74
0
 40
0
 40
0
 40
1
 40
1
 10
275.421
 20
104.512
 30
0
 10
275.421
 20
118.512
 30
0
  0
SPLINE
  5
ACA
330
A02
100
AcDbEntity
  8
View010
100
AcDbSpline
210
0
220
0
230
1
 70
8
 71
1
 72
4
 73
2
 74
0
 40
0
 40
0
 40
1
 40
1
 10
275.421
 20
118.512
 30
0
 10
289.421
 20
118.512
 30
0
  0
CIRCLE
  5
ACB
330
A02
100
AcDbEntity
  8
View010
100
AcDbCircle
 10
335.142
 20
51.0105
 40
1.6
  0
SPLINE
  5
ACC
330
A02
100
AcDbEntity
  8
View010
100
AcDbSpline
210
0
220
0
230
1
 70
8
 71
1
 72
4
 73
2
 74
0
 40
0
 40
0
 40
1
 40
1
 10
370.383
 20
66.4122
 30
0
 10
356.384
 20
66.4122
 30
0
  0
SPLINE
  5
ACD
330
A02
100
AcDbEntity
  8
View010
100
AcDbSpline
210
0
220
0
230
1
 70
8
 71
1
 72
4
 73
2
 74
0
 40
0
 40
0
 40
1
 40
1
 10
370.383
 20
80.4121
 30
0
 10
370.383
 20
66.4122
 30
0
  0
SPLINE
  5
ACE
330
A02
100
AcDbEntity
  8
View010
100
AcDbSpline
210
0
220
0
230
1
 70
8
 71
1
 72
4
 73
2
 74
0
 40
0
 40
0
 40
1
 40
1
 10
356.384
 20
66.4122
 30
0
 10
356.384
 20
80.4121
 30
0
  0
SPLINE
  5
ACF
330
A02
100
AcDbEntity
  8
View010
100
AcDbSpline
210
0
220
0
230
1
 70
8
 71
1
 72
4
 73
2
 74
0
 40
0
 40
0
 40
1
 40
1
 10
356.384
 20
80.4121
 30
0
 10
370.383
 20
80.4121
 30
0
  0
SPLINE
  5
AD0
330
A02
100
AcDbEntity
  8
View010
100
AcDbSpline
210
0
220
0
230
1
 70
8
 71
1
 72
4
 73
2
 74
0
 40
0
 40
0
 40
1
 40
1
 10
389.434
 20
66.4122
 30
0
 10
375.433
 20
66.4122
 30
0
  0
SPLINE
  5
AD1
330
A02
100
AcDbEntity
  8
View010
100
AcDbSpline
210
0
220
0
230
1
 70
8
 71
1
 72
4
 73
2
 74
0
 40
0
 40
0
 40
1
 40
1
 10
389.434
 20
80.4121
 30
0
 10
389.434
 20
66.4122
 30
0
  0
SPLINE
  5
AD2
330
A02
100
AcDbEntity
  8
View010
100
AcDbSpline
210
0
220
0
230
1
 70
8
 71
1
 72
4
 73
2
 74
0
 40
0
 40
0
 40
1
 40
1
 10
375.433
 20
66.4122
 30
0
 10
375.433
 20
80.4121
 30
0
  0
SPLINE
  5
AD3
330
A02
100
AcDbEntity
  8
View010
100
AcDbSpline
210
0
220
0
230
1
 70
8
 71
1
 72
4
 73
2
 74
0
 40
0
 40
0
 40
1
 40
1
 10
375.433
 20
80.4121
 30
0
 10
389.434
 20
80.4121
 30
0
  0
CIRCLE
  5
AD4
330
A02
100
AcDbEntity
  8
View010
100
AcDbCircle
 10
412.454
 20
51.0105
 40
1.6
  0
SPLINE
  5
AD5
330
A02
100
AcDbEntity
  8
View010
100
AcDbSpline
210
0
220
0
230
1
 70
8
 71
1
 72
4
 73
2
 74
0
 40
0
 40
0
 40
1
 40
1
 10
432.297
 20
61.6491
 30
0
 10
418.295
 20
61.6491
 30
0
  0
SPLINE
  5
AD6
330
A02
100
AcDbEntity
  8
View010
100
AcDbSpline
210
0
220
0
230
1
 70
8
 71
1
 72
4
 73
2
 74
0
 40
0
 40
0
 40
1
 40
1
 10
432.297
 20
75.649
 30
0
 10
432.297
 20
61.6491
 30
0
  0
SPLINE
  5
AD7
330
A02
100
AcDbEntity
  8
View010
100
AcDbSpline
210
0
220
0
230
1
 70
8
 71
1
 72
4
 73
2
 74
0
 40
0
 40
0
 40
1
 40
1
 10
418.295
 20
61.6491
 30
0
 10
418.295
 20
75.649
 30
0
  0
SPLINE
  5
AD8
330
A02
100
AcDbEntity
  8
View010
100
AcDbSpline
210
0
220
0
230
1
 70
8
 71
1
 72
4
 73
2
 74
0
 40
0
 40
0
 40
1
 40
1
 10
418.295
 20
75.649
 30
0
 10
432.297
 20
75.649
 30
0
  0
CIRCLE
  5
AD9
330
A02
100
AcDbEntity
  8
View010
100
AcDbCircle
 10
489.766
 20
51.0105
 40
1.6
  0
CIRCLE
  5
ADA
330
A02
100
AcDbEntity
  8
View010
100
AcDbCircle
 10
489.766
 20
51.0105
 40
1.6
  0
SPLINE
  5
ADB
330
A02
100
AcDbEntity
  8
View010
100
AcDbSpline
210
0
220
0
230
1
 70
8
 71
1
 72
4
 73
2
 74
0
 40
0
 40
0
 40
1
 40
1
 10
451.347
 20
61.6491
 30
0
 10
437.345
 20
61.6491
 30
0
  0
SPLINE
  5
ADC
330
A02
100
AcDbEntity
  8
View010
100
AcDbSpline
210
0
220
0
230
1
 70
8
 71
1
 72
4
 73
2
 74
0
 40
0
 40
0
 40
1
 40
1
 10
451.347
 20
75.649
 30
0
 10
451.347
 20
61.6491
 30
0
  0
SPLINE
  5
ADD
330
A02
100
AcDbEntity
  8
View010
100
AcDbSpline
210
0
220
0
230
1
 70
8
 71
1
 72
4
 73
2
 74
0
 40
0
 40
0
 40
1
 40
1
 10
437.345
 20
61.6491
 30
0
 10
437.345
 20
75.649
 30
0
  0
SPLINE
  5
ADE
330
A02
100
AcDbEntity
  8
View010
100
AcDbSpline
210
0
220
0
230
1
 70
8
 71
1
 72
4
 73
2
 74
0
 40
0
 40
0
 40
1
 40
1
 10
437.345
 20
75.649
 30
0
 10
451.347
 20
75.649
 30
0
  0
SPLINE
  5
ADF
330
A02
100
AcDbEntity
  8
View010
100
AcDbSpline
210
0
220
0
230
1
 70
8
 71
1
 72
4
 73
2
 74
0
 40
0
 40
0
 40
1
 40
1
 10
470.397
 20
61.6491
 30
0
 10
456.395
 20
61.6491
 30
0
  0
SPLINE
  5
AE0
330
A02
100
AcDbEntity
  8
View010
100
AcDbSpline
210
0
220
0
230
1
 70
8
 71
1
 72
4
 73
2
 74
0
 40
0
 40
0
 40
1
 40
1
 10
470.397
 20
75.649
 30
0
 10
470.397
 20
61.6491
 30
0
  0
SPLINE
  5
AE1
330
A02
100
AcDbEntity
  8
View010
100
AcDbSpline
210
0
220
0
230
1
 70
8
 71
1
 72
4
 73
2
 74
0
 40
0
 40
0
 40
1
 40
1
 10
456.395
 20
61.6491
 30
0
 10
456.395
 20
75.649
 30
0
  0
SPLINE
  5
AE2
330
A02
100
AcDbEntity
  8
View010
100
AcDbSpline
210
0
220
0
230
1
 70
8
 71
1
 72
4
 73
2
 74
0
 40
0
 40
0
 40
1
 40
1
 10
456.395
 20
75.649
 30
0
 10
470.397
 20
75.649
 30
0
  0
SPLINE
  5
AE3
330
A02
100
AcDbEntity
  8
View010
100
AcDbSpline
210
0
220
0
230
1
 70
8
 71
1
 72
4
 73
2
 74
0
 40
0
 40
0
 40
1
 40
1
 10
408.484
 20
66.4122
 30
0
 10
394.483
 20
66.4122
 30
0
  0
SPLINE
  5
AE4
330
A02
100
AcDbEntity
  8
View010
100
AcDbSpline
210
0
220
0
230
1
 70
8
 71
1
 72
4
 73
2
 74
0
 40
0
 40
0
 40
1
 40
1
 10
408.484
 20
80.4121
 30
0
 10
408.484
 20
66.4122
 30
0
  0
SPLINE
  5
AE5
330
A02
100
AcDbEntity
  8
View010
100
AcDbSpline
210
0
220
0
230
1
 70
8
 71
1
 72
4
 73
2
 74
0
 40
0
 40
0
 40
1
 40
1
 10
394.483
 20
66.4122
 30
0
 10
394.483
 20
80.4121
 30
0
  0
SPLINE
  5
AE6
330
A02
100
AcDbEntity
  8
View010
100
AcDbSpline
210
0
220
0
230
1
 70
8
 71
1
 72
4
 73
2
 74
0
 40
0
 40
0
 40
1
 40
1
 10
394.483
 20
80.4121
 30
0
 10
408.484
 20
80.4121
 30
0
  0
SPLINE
  5
AE7
330
A02
100
AcDbEntity
  8
View010
100
AcDbSpline
210
0
220
0
230
1
 70
8
 71
1
 72
4
 73
2
 74
0
 40
0
 40
0
 40
1
 40
1
 10
451.347
 20
80.6991
 30
0
 10
437.345
 20
80.6991
 30
0
  0
SPLINE
  5
AE8
330
A02
100
AcDbEntity
  8
View010
100
AcDbSpline
210
0
220
0
230
1
 70
8
 71
1
 72
4
 73
2
 74
0
 40
0
 40
0
 40
1
 40
1
 10
451.347
 20
94.699
 30
0
 10
451.347
 20
80.6991
 30
0
  0
SPLINE
  5
AE9
330
A02
100
AcDbEntity
  8
View010
100
AcDbSpline
210
0
220
0
230
1
 70
8
 71
1
 72
4
 73
2
 74
0
 40
0
 40
0
 40
1
 40
1
 10
437.345
 20
80.6991
 30
0
 10
437.345
 20
94.699
 30
0
  0
SPLINE
  5
AEA
330
A02
100
AcDbEntity
  8
View010
100
AcDbSpline
210
0
220
0
230
1
 70
8
 71
1
 72
4
 73
2
 74
0
 40
0
 40
0
 40
1
 40
1
 10
437.345
 20
94.699
 30
0
 10
451.347
 20
94.699
 30
0
  0
SPLINE
  5
AEB
330
A02
100
AcDbEntity
  8
View010
100
AcDbSpline
210
0
220
0
230
1
 70
8
 71
1
 72
4
 73
2
 74
0
 40
0
 40
0
 40
1
 40
1
 10
317.996
 20
85.4622
 30
0
 10
303.996
 20
85.4622
 30
0
  0
SPLINE
  5
AEC
330
A02
100
AcDbEntity
  8
View010
100
AcDbSpline
210
0
220
0
230
1
 70
8
 71
1
 72
4
 73
2
 74
0
 40
0
 40
0
 40
1
 40
1
 10
317.996
 20
99.4621
 30
0
 10
317.996
 20
85.4622
 30
0
  0
SPLINE
  5
AED
330
A02
100
AcDbEntity
  8
View010
100
AcDbSpline
210
0
220
0
230
1
 70
8
 71
1
 72
4
 73
2
 74
0
 40
0
 40
0
 40
1
 40
1
 10
303.996
 20
85.4622
 30
0
 10
303.996
 20
99.4621
 30
0
  0
SPLINE
  5
AEE
330
A02
100
AcDbEntity
  8
View010
100
AcDbSpline
210
0
220
0
230
1
 70
8
 71
1
 72
4
 73
2
 74
0
 40
0
 40
0
 40
1
 40
1
 10
303.996
 20
99.4621
 30
0
 10
317.996
 20
99.4621
 30
0
  0
SPLINE
  5
AEF
330
A02
100
AcDbEntity
  8
View010
100
AcDbSpline
210
0
220
0
230
1
 70
8
 71
1
 72
4
 73
2
 74
0
 40
0
 40
0
 40
1
 40
1
 10
337.046
 20
85.4622
 30
0
 10
323.046
 20
85.4622
 30
0
  0
SPLINE
  5
AF0
330
A02
100
AcDbEntity
  8
View010
100
AcDbSpline
210
0
220
0
230
1
 70
8
 71
1
 72
4
 73
2
 74
0
 40
0
 40
0
 40
1
 40
1
 10
337.046
 20
99.4621
 30
0
 10
337.046
 20
85.4622
 30
0
  0
SPLINE
  5
AF1
330
A02
100
AcDbEntity
  8
View010
100
AcDbSpline
210
0
220
0
230
1
 70
8
 71
1
 72
4
 73
2
 74
0
 40
0
 40
0
 40
1
 40
1
 10
323.046
 20
85.4622
 30
0
 10
323.046
 20
99.4621
 30
0
  0
SPLINE
  5
AF2
330
A02
100
AcDbEntity
  8
View010
100
AcDbSpline
210
0
220
0
230
1
 70
8
 71
1
 72
4
 73
2
 74
0
 40
0
 40
0
 40
1
 40
1
 10
323.046
 20
99.4621
 30
0
 10
337.046
 20
99.4621
 30
0
  0
SPLINE
  5
AF3
330
A02
100
AcDbEntity
  8
View010
100
AcDbSpline
210
0
220
0
230
1
 70
8
 71
1
 72
4
 73
2
 74
0
 40
0
 40
0
 40
1
 40
1
 10
356.096
 20
85.4622
 30
0
 10
342.096
 20
85.4622
 30
0
  0
SPLINE
  5
AF4
330
A02
100
AcDbEntity
  8
View010
100
AcDbSpline
210
0
220
0
230
1
 70
8
 71
1
 72
4
 73
2
 74
0
 40
0
 40
0
 40
1
 40
1
 10
356.096
 20
99.4621
 30
0
 10
356.096
 20
85.4622
 30
0
  0
SPLINE
  5
AF5
330
A02
100
AcDbEntity
  8
View010
100
AcDbSpline
210
0
220
0
230
1
 70
8
 71
1
 72
4
 73
2
 74
0
 40
0
 40
0
 40
1
 40
1
 10
342.096
 20
85.4622
 30
0
 10
342.096
 20
99.4621
 30
0
  0
SPLINE
  5
AF6
330
A02
100
AcDbEntity
  8
View010
100
AcDbSpline
210
0
220
0
230
1
 70
8
 71
1
 72
4
 73
2
 74
0
 40
0
 40
0
 40
1
 40
1
 10
342.096
 20
99.4621
 30
0
 10
356.096
 20
99.4621
 30
0
  0
SPLINE
  5
AF7
330
A02
100
AcDbEntity
  8
View010
100
AcDbSpline
210
0
220
0
230
1
 70
8
 71
1
 72
4
 73
2
 74
0
 40
0
 40
0
 40
1
 40
1
 10
375.147
 20
85.4622
 30
0
 10
361.146
 20
85.4622
 30
0
  0
SPLINE
  5
AF8
330
A02
100
AcDbEntity
  8
View010
100
AcDbSpline
210
0
220
0
230
1
 70
8
 71
1
 72
4
 73
2
 74
0
 40
0
 40
0
 40
1
 40
1
 10
375.147
 20
99.4621
 30
0
 10
375.147
 20
85.4622
 30
0
  0
SPLINE
  5
AF9
330
A02
100
AcDbEntity
  8
View010
100
AcDbSpline
210
0
220
0
230
1
 70
8
 71
1
 72
4
 73
2
 74
0
 40
0
 40
0
 40
1
 40
1
 10
361.146
 20
85.4622
 30
0
 10
361.146
 20
99.4621
 30
0
  0
SPLINE
  5
AFA
330
A02
100
AcDbEntity
  8
View010
100
AcDbSpline
210
0
220
0
230
1
 70
8
 71
1
 72
4
 73
2
 74
0
 40
0
 40
0
 40
1
 40
1
 10
361.146
 20
99.4621
 30
0
 10
375.147
 20
99.4621
 30
0
  0
SPLINE
  5
AFB
330
A02
100
AcDbEntity
  8
View010
100
AcDbSpline
210
0
220
0
230
1
 70
8
 71
1
 72
4
 73
2
 74
0
 40
0
 40
0
 40
1
 40
1
 10
394.197
 20
85.4622
 30
0
 10
380.195
 20
85.4622
 30
0
  0
SPLINE
  5
AFC
330
A02
100
AcDbEntity
  8
View010
100
AcDbSpline
210
0
220
0
230
1
 70
8
 71
1
 72
4
 73
2
 74
0
 40
0
 40
0
 40
1
 40
1
 10
394.197
 20
99.4621
 30
0
 10
394.197
 20
85.4622
 30
0
  0
SPLINE
  5
AFD
330
A02
100
AcDbEntity
  8
View010
100
AcDbSpline
210
0
220
0
230
1
 70
8
 71
1
 72
4
 73
2
 74
0
 40
0
 40
0
 40
1
 40
1
 10
380.195
 20
85.4622
 30
0
 10
380.195
 20
99.4621
 30
0
  0
SPLINE
  5
AFE
330
A02
100
AcDbEntity
  8
View010
100
AcDbSpline
210
0
220
0
230
1
 70
8
 71
1
 72
4
 73
2
 74
0
 40
0
 40
0
 40
1
 40
1
 10
380.195
 20
99.4621
 30
0
 10
394.197
 20
99.4621
 30
0
  0
SPLINE
  5
AFF
330
A02
100
AcDbEntity
  8
View010
100
AcDbSpline
210
0
220
0
230
1
 70
8
 71
1
 72
4
 73
2
 74
0
 40
0
 40
0
 40
1
 40
1
 10
308.471
 20
104.512
 30
0
 10
294.471
 20
104.512
 30
0
  0
SPLINE
  5
B00
330
A02
100
AcDbEntity
  8
View010
100
AcDbSpline
210
0
220
0
230
1
 70
8
 71
1
 72
4
 73
2
 74
0
 40
0
 40
0
 40
1
 40
1
 10
308.471
 20
118.512
 30
0
 10
308.471
 20
104.512
 30
0
  0
SPLINE
  5
B01
330
A02
100
AcDbEntity
  8
View010
100
AcDbSpline
210
0
220
0
230
1
 70
8
 71
1
 72
4
 73
2
 74
0
 40
0
 40
0
 40
1
 40
1
 10
294.471
 20
104.512
 30
0
 10
294.471
 20
118.512
 30
0
  0
SPLINE
  5
B02
330
A02
100
AcDbEntity
  8
View010
100
AcDbSpline
210
0
220
0
230
1
 70
8
 71
1
 72
4
 73
2
 74
0
 40
0
 40
0
 40
1
 40
1
 10
294.471
 20
118.512
 30
0
 10
308.471
 20
118.512
 30
0
  0
SPLINE
  5
B03
330
A02
100
AcDbEntity
  8
View010
100
AcDbSpline
210
0
220
0
230
1
 70
8
 71
1
 72
4
 73
2
 74
0
 40
0
 40
0
 40
1
 40
1
 10
327.521
 20
104.512
 30
0
 10
313.521
 20
104.512
 30
0
  0
SPLINE
  5
B04
330
A02
100
AcDbEntity
  8
View010
100
AcDbSpline
210
0
220
0
230
1
 70
8
 71
1
 72
4
 73
2
 74
0
 40
0
 40
0
 40
1
 40
1
 10
327.521
 20
118.512
 30
0
 10
327.521
 20
104.512
 30
0
  0
SPLINE
  5
B05
330
A02
100
AcDbEntity
  8
View010
100
AcDbSpline
210
0
220
0
230
1
 70
8
 71
1
 72
4
 73
2
 74
0
 40
0
 40
0
 40
1
 40
1
 10
313.521
 20
104.512
 30
0
 10
313.521
 20
118.512
 30
0
  0
SPLINE
  5
B06
330
A02
100
AcDbEntity
  8
View010
100
AcDbSpline
210
0
220
0
230
1
 70
8
 71
1
 72
4
 73
2
 74
0
 40
0
 40
0
 40
1
 40
1
 10
313.521
 20
118.512
 30
0
 10
327.521
 20
118.512
 30
0
  0
SPLINE
  5
B07
330
A02
100
AcDbEntity
  8
View010
100
AcDbSpline
210
0
220
0
230
1
 70
8
 71
1
 72
4
 73
2
 74
0
 40
0
 40
0
 40
1
 40
1
 10
346.571
 20
104.512
 30
0
 10
332.571
 20
104.512
 30
0
  0
SPLINE
  5
B08
330
A02
100
AcDbEntity
  8
View010
100
AcDbSpline
210
0
220
0
230
1
 70
8
 71
1
 72
4
 73
2
 74
0
 40
0
 40
0
 40
1
 40
1
 10
346.571
 20
118.512
 30
0
 10
346.571
 20
104.512
 30
0
  0
SPLINE
  5
B09
330
A02
100
AcDbEntity
  8
View010
100
AcDbSpline
210
0
220
0
230
1
 70
8
 71
1
 72
4
 73
2
 74
0
 40
0
 40
0
 40
1
 40
1
 10
332.571
 20
104.512
 30
0
 10
332.571
 20
118.512
 30
0
  0
SPLINE
  5
B0A
330
A02
100
AcDbEntity
  8
View010
100
AcDbSpline
210
0
220
0
230
1
 70
8
 71
1
 72
4
 73
2
 74
0
 40
0
 40
0
 40
1
 40
1
 10
332.571
 20
118.512
 30
0
 10
346.571
 20
118.512
 30
0
  0
SPLINE
  5
B0B
330
A02
100
AcDbEntity
  8
View010
100
AcDbSpline
210
0
220
0
230
1
 70
8
 71
1
 72
4
 73
2
 74
0
 40
0
 40
0
 40
1
 40
1
 10
365.621
 20
104.512
 30
0
 10
351.621
 20
104.512
 30
0
  0
SPLINE
  5
B0C
330
A02
100
AcDbEntity
  8
View010
100
AcDbSpline
210
0
220
0
230
1
 70
8
 71
1
 72
4
 73
2
 74
0
 40
0
 40
0
 40
1
 40
1
 10
365.621
 20
118.512
 30
0
 10
365.621
 20
104.512
 30
0
  0
SPLINE
  5
B0D
330
A02
100
AcDbEntity
  8
View010
100
AcDbSpline
210
0
220
0
230
1
 70
8
 71
1
 72
4
 73
2
 74
0
 40
0
 40
0
 40
1
 40
1
 10
351.621
 20
104.512
 30
0
 10
351.621
 20
118.512
 30
0
  0
SPLINE
  5
B0E
330
A02
100
AcDbEntity
  8
View010
100
AcDbSpline
210
0
220
0
230
1
 70
8
 71
1
 72
4
 73
2
 74
0
 40
0
 40
0
 40
1
 40
1
 10
351.621
 20
118.512
 30
0
 10
365.621
 20
118.512
 30
0
  0
SPLINE
  5
B0F
330
A02
100
AcDbEntity
  8
View010
100
AcDbSpline
210
0
220
0
230
1
 70
8
 71
1
 72
4
 73
2
 74
0
 40
0
 40
0
 40
1
 40
1
 10
384.672
 20
104.512
 30
0
 10
370.671
 20
104.512
 30
0
  0
SPLINE
  5
B10
330
A02
100
AcDbEntity
  8
View010
100
AcDbSpline
210
0
220
0
230
1
 70
8
 71
1
 72
4
 73
2
 74
0
 40
0
 40
0
 40
1
 40
1
 10
384.672
 20
118.512
 30
0
 10
384.672
 20
104.512
 30
0
  0
SPLINE
  5
B11
330
A02
100
AcDbEntity
  8
View010
100
AcDbSpline
210
0
220
0
230
1
 70
8
 71
1
 72
4
 73
2
 74
0
 40
0
 40
0
 40
1
 40
1
 10
370.671
 20
104.512
 30
0
 10
370.671
 20
118.512
 30
0
  0
SPLINE
  5
B12
330
A02
100
AcDbEntity
  8
View010
100
AcDbSpline
210
0
220
0
230
1
 70
8
 71
1
 72
4
 73
2
 74
0
 40
0
 40
0
 40
1
 40
1
 10
370.671
 20
118.512
 30
0
 10
384.672
 20
118.512
 30
0
  0
SPLINE
  5
B13
330
A02
100
AcDbEntity
  8
View010
100
AcDbSpline
210
0
220
0
230
1
 70
8
 71
1
 72
4
 73
2
 74
0
 40
0
 40
0
 40
1
 40
1
 10
420.391
 20
85.4622
 30
0
 10
406.389
 20
85.4622
 30
0
  0
SPLINE
  5
B14
330
A02
100
AcDbEntity
  8
View010
100
AcDbSpline
210
0
220
0
230
1
 70
8
 71
1
 72
4
 73
2
 74
0
 40
0
 40
0
 40
1
 40
1
 10
420.391
 20
99.4621
 30
0
 10
420.391
 20
85.4622
 30
0
  0
SPLINE
  5
B15
330
A02
100
AcDbEntity
  8
View010
100
AcDbSpline
210
0
220
0
230
1
 70
8
 71
1
 72
4
 73
2
 74
0
 40
0
 40
0
 40
1
 40
1
 10
406.389
 20
85.4622
 30
0
 10
406.389
 20
99.4621
 30
0
  0
SPLINE
  5
B16
330
A02
100
AcDbEntity
  8
View010
100
AcDbSpline
210
0
220
0
230
1
 70
8
 71
1
 72
4
 73
2
 74
0
 40
0
 40
0
 40
1
 40
1
 10
406.389
 20
99.4621
 30
0
 10
420.391
 20
99.4621
 30
0
  0
SPLINE
  5
B17
330
A02
100
AcDbEntity
  8
View010
100
AcDbSpline
210
0
220
0
230
1
 70
8
 71
1
 72
4
 73
2
 74
0
 40
0
 40
0
 40
1
 40
1
 10
475.159
 20
85.4622
 30
0
 10
461.158
 20
85.4622
 30
0
  0
SPLINE
  5
B18
330
A02
100
AcDbEntity
  8
View010
100
AcDbSpline
210
0
220
0
230
1
 70
8
 71
1
 72
4
 73
2
 74
0
 40
0
 40
0
 40
1
 40
1
 10
475.159
 20
99.4621
 30
0
 10
475.159
 20
85.4622
 30
0
  0
SPLINE
  5
B19
330
A02
100
AcDbEntity
  8
View010
100
AcDbSpline
210
0
220
0
230
1
 70
8
 71
1
 72
4
 73
2
 74
0
 40
0
 40
0
 40
1
 40
1
 10
461.158
 20
85.4622
 30
0
 10
461.158
 20
99.4621
 30
0
  0
SPLINE
  5
B1A
330
A02
100
AcDbEntity
  8
View010
100
AcDbSpline
210
0
220
0
230
1
 70
8
 71
1
 72
4
 73
2
 74
0
 40
0
 40
0
 40
1
 40
1
 10
461.158
 20
99.4621
 30
0
 10
475.159
 20
99.4621
 30
0
  0
SPLINE
  5
B1B
330
A02
100
AcDbEntity
  8
View010
100
AcDbSpline
210
0
220
0
230
1
 70
8
 71
1
 72
4
 73
2
 74
0
 40
0
 40
0
 40
1
 40
1
 10
403.722
 20
104.512
 30
0
 10
389.72
 20
104.512
 30
0
  0
SPLINE
  5
B1C
330
A02
100
AcDbEntity
  8
View010
100
AcDbSpline
210
0
220
0
230
1
 70
8
 71
1
 72
4
 73
2
 74
0
 40
0
 40
0
 40
1
 40
1
 10
403.722
 20
118.512
 30
0
 10
403.722
 20
104.512
 30
0
  0
SPLINE
  5
B1D
330
A02
100
AcDbEntity
  8
View010
100
AcDbSpline
210
0
220
0
230
1
 70
8
 71
1
 72
4
 73
2
 74
0
 40
0
 40
0
 40
1
 40
1
 10
389.72
 20
104.512
 30
0
 10
389.72
 20
118.512
 30
0
  0
SPLINE
  5
B1E
330
A02
100
AcDbEntity
  8
View010
100
AcDbSpline
210
0
220
0
230
1
 70
8
 71
1
 72
4
 73
2
 74
0
 40
0
 40
0
 40
1
 40
1
 10
389.72
 20
118.512
 30
0
 10
403.722
 20
118.512
 30
0
  0
SPLINE
  5
B1F
330
A02
100
AcDbEntity
  8
View010
100
AcDbSpline
210
0
220
0
230
1
 70
8
 71
1
 72
4
 73
2
 74
0
 40
0
 40
0
 40
1
 40
1
 10
419.152
 20
113.812
 30
0
 10
420.676
 20
113.812
 30
0
  0
SPLINE
  5
B20
330
A02
100
AcDbEntity
  8
View010
100
AcDbSpline
210
0
220
0
230
1
 70
8
 71
1
 72
4
 73
2
 74
0
 40
0
 40
0
 40
1
 40
1
 10
419.152
 20
117.962
 30
0
 10
419.152
 20
113.812
 30
0
  0
SPLINE
  5
B21
330
A02
100
AcDbEntity
  8
View010
100
AcDbSpline
210
0
220
0
230
1
 70
8
 71
1
 72
4
 73
2
 74
0
 40
0
 40
0
 40
1
 40
1
 10
420.676
 20
113.812
 30
0
 10
420.676
 20
118.512
 30
0
  0
SPLINE
  5
B22
330
A02
100
AcDbEntity
  8
View010
100
AcDbSpline
210
0
220
0
230
1
 70
8
 71
1
 72
4
 73
2
 74
0
 40
0
 40
0
 40
1
 40
1
 10
417.427
 20
117.962
 30
0
 10
419.152
 20
117.962
 30
0
  0
SPLINE
  5
B23
330
A02
100
AcDbEntity
  8
View010
100
AcDbSpline
210
0
220
0
230
1
 70
8
 71
1
 72
4
 73
2
 74
0
 40
0
 40
0
 40
1
 40
1
 10
420.676
 20
118.512
 30
0
 10
434.678
 20
118.512
 30
0
  0
SPLINE
  5
B24
330
A02
100
AcDbEntity
  8
View010
100
AcDbSpline
210
0
220
0
230
1
 70
8
 71
1
 72
4
 73
2
 74
0
 40
0
 40
0
 40
1
 40
1
 10
414.128
 20
117.962
 30
0
 10
417.427
 20
117.962
 30
0
  0
SPLINE
  5
B25
330
A02
100
AcDbEntity
  8
View010
100
AcDbSpline
210
0
220
0
230
1
 70
8
 71
1
 72
4
 73
2
 74
0
 40
0
 40
0
 40
1
 40
1
 10
434.678
 20
118.512
 30
0
 10
434.678
 20
113.812
 30
0
  0
SPLINE
  5
B26
330
A02
100
AcDbEntity
  8
View010
100
AcDbSpline
210
0
220
0
230
1
 70
8
 71
1
 72
4
 73
2
 74
0
 40
0
 40
0
 40
1
 40
1
 10
412.403
 20
117.962
 30
0
 10
414.128
 20
117.962
 30
0
  0
SPLINE
  5
B27
330
A02
100
AcDbEntity
  8
View010
100
AcDbSpline
210
0
220
0
230
1
 70
8
 71
1
 72
4
 73
2
 74
0
 40
0
 40
0
 40
1
 40
1
 10
434.678
 20
113.812
 30
0
 10
436.202
 20
113.812
 30
0
  0
SPLINE
  5
B28
330
A02
100
AcDbEntity
  8
View010
100
AcDbSpline
210
0
220
0
230
1
 70
8
 71
1
 72
4
 73
2
 74
0
 40
0
 40
0
 40
1
 40
1
 10
412.403
 20
113.812
 30
0
 10
412.403
 20
117.962
 30
0
  0
SPLINE
  5
B29
330
A02
100
AcDbEntity
  8
View010
100
AcDbSpline
210
0
220
0
230
1
 70
8
 71
1
 72
4
 73
2
 74
0
 40
0
 40
0
 40
1
 40
1
 10
436.202
 20
113.812
 30
0
 10
436.202
 20
117.962
 30
0
  0
SPLINE
  5
B2A
330
A02
100
AcDbEntity
  8
View010
100
AcDbSpline
210
0
220
0
230
1
 70
8
 71
1
 72
4
 73
2
 74
0
 40
0
 40
0
 40
1
 40
1
 10
412.403
 20
111.012
 30
0
 10
412.403
 20
113.812
 30
0
  0
SPLINE
  5
B2B
330
A02
100
AcDbEntity
  8
View010
100
AcDbSpline
210
0
220
0
230
1
 70
8
 71
1
 72
4
 73
2
 74
0
 40
0
 40
0
 40
1
 40
1
 10
436.202
 20
117.962
 30
0
 10
437.927
 20
117.962
 30
0
  0
SPLINE
  5
B2C
330
A02
100
AcDbEntity
  8
View010
100
AcDbSpline
210
0
220
0
230
1
 70
8
 71
1
 72
4
 73
2
 74
0
 40
0
 40
0
 40
1
 40
1
 10
412.403
 20
102.887
 30
0
 10
412.403
 20
111.012
 30
0
  0
SPLINE
  5
B2D
330
A02
100
AcDbEntity
  8
View010
100
AcDbSpline
210
0
220
0
230
1
 70
8
 71
1
 72
4
 73
2
 74
0
 40
0
 40
0
 40
1
 40
1
 10
437.927
 20
117.962
 30
0
 10
441.227
 20
117.962
 30
0
  0
SPLINE
  5
B2E
330
A02
100
AcDbEntity
  8
View010
100
AcDbSpline
210
0
220
0
230
1
 70
8
 71
1
 72
4
 73
2
 74
0
 40
0
 40
0
 40
1
 40
1
 10
414.128
 20
102.887
 30
0
 10
412.403
 20
102.887
 30
0
  0
SPLINE
  5
B2F
330
A02
100
AcDbEntity
  8
View010
100
AcDbSpline
210
0
220
0
230
1
 70
8
 71
1
 72
4
 73
2
 74
0
 40
0
 40
0
 40
1
 40
1
 10
441.227
 20
117.962
 30
0
 10
442.952
 20
117.962
 30
0
  0
SPLINE
  5
B30
330
A02
100
AcDbEntity
  8
View010
100
AcDbSpline
210
0
220
0
230
1
 70
8
 71
1
 72
4
 73
2
 74
0
 40
0
 40
0
 40
1
 40
1
 10
417.427
 20
102.887
 30
0
 10
414.128
 20
102.887
 30
0
  0
SPLINE
  5
B31
330
A02
100
AcDbEntity
  8
View010
100
AcDbSpline
210
0
220
0
230
1
 70
8
 71
1
 72
4
 73
2
 74
0
 40
0
 40
0
 40
1
 40
1
 10
442.952
 20
117.962
 30
0
 10
442.952
 20
113.812
 30
0
  0
SPLINE
  5
B32
330
A02
100
AcDbEntity
  8
View010
100
AcDbSpline
210
0
220
0
230
1
 70
8
 71
1
 72
4
 73
2
 74
0
 40
0
 40
0
 40
1
 40
1
 10
419.152
 20
102.887
 30
0
 10
417.427
 20
102.887
 30
0
  0
SPLINE
  5
B33
330
A02
100
AcDbEntity
  8
View010
100
AcDbSpline
210
0
220
0
230
1
 70
8
 71
1
 72
4
 73
2
 74
0
 40
0
 40
0
 40
1
 40
1
 10
442.952
 20
113.812
 30
0
 10
442.952
 20
111.012
 30
0
  0
SPLINE
  5
B34
330
A02
100
AcDbEntity
  8
View010
100
AcDbSpline
210
0
220
0
230
1
 70
8
 71
1
 72
4
 73
2
 74
0
 40
0
 40
0
 40
1
 40
1
 10
419.152
 20
109.212
 30
0
 10
419.152
 20
102.887
 30
0
  0
SPLINE
  5
B35
330
A02
100
AcDbEntity
  8
View010
100
AcDbSpline
210
0
220
0
230
1
 70
8
 71
1
 72
4
 73
2
 74
0
 40
0
 40
0
 40
1
 40
1
 10
442.952
 20
111.012
 30
0
 10
442.952
 20
102.887
 30
0
  0
SPLINE
  5
B36
330
A02
100
AcDbEntity
  8
View010
100
AcDbSpline
210
0
220
0
230
1
 70
8
 71
1
 72
4
 73
2
 74
0
 40
0
 40
0
 40
1
 40
1
 10
420.676
 20
109.212
 30
0
 10
419.152
 20
109.212
 30
0
  0
SPLINE
  5
B37
330
A02
100
AcDbEntity
  8
View010
100
AcDbSpline
210
0
220
0
230
1
 70
8
 71
1
 72
4
 73
2
 74
0
 40
0
 40
0
 40
1
 40
1
 10
442.952
 20
102.887
 30
0
 10
441.227
 20
102.887
 30
0
  0
SPLINE
  5
B38
330
A02
100
AcDbEntity
  8
View010
100
AcDbSpline
210
0
220
0
230
1
 70
8
 71
1
 72
4
 73
2
 74
0
 40
0
 40
0
 40
1
 40
1
 10
420.676
 20
104.512
 30
0
 10
420.676
 20
109.212
 30
0
  0
SPLINE
  5
B39
330
A02
100
AcDbEntity
  8
View010
100
AcDbSpline
210
0
220
0
230
1
 70
8
 71
1
 72
4
 73
2
 74
0
 40
0
 40
0
 40
1
 40
1
 10
441.227
 20
102.887
 30
0
 10
437.927
 20
102.887
 30
0
  0
SPLINE
  5
B3A
330
A02
100
AcDbEntity
  8
View010
100
AcDbSpline
210
0
220
0
230
1
 70
8
 71
1
 72
4
 73
2
 74
0
 40
0
 40
0
 40
1
 40
1
 10
434.678
 20
104.512
 30
0
 10
420.676
 20
104.512
 30
0
  0
SPLINE
  5
B3B
330
A02
100
AcDbEntity
  8
View010
100
AcDbSpline
210
0
220
0
230
1
 70
8
 71
1
 72
4
 73
2
 74
0
 40
0
 40
0
 40
1
 40
1
 10
437.927
 20
102.887
 30
0
 10
436.202
 20
102.887
 30
0
  0
SPLINE
  5
B3C
330
A02
100
AcDbEntity
  8
View010
100
AcDbSpline
210
0
220
0
230
1
 70
8
 71
1
 72
4
 73
2
 74
0
 40
0
 40
0
 40
1
 40
1
 10
434.678
 20
109.212
 30
0
 10
434.678
 20
104.512
 30
0
  0
SPLINE
  5
B3D
330
A02
100
AcDbEntity
  8
View010
100
AcDbSpline
210
0
220
0
230
1
 70
8
 71
1
 72
4
 73
2
 74
0
 40
0
 40
0
 40
1
 40
1
 10
436.202
 20
102.887
 30
0
 10
436.202
 20
109.212
 30
0
  0
SPLINE
  5
B3E
330
A02
100
AcDbEntity
  8
View010
100
AcDbSpline
210
0
220
0
230
1
 70
8
 71
1
 72
4
 73
2
 74
0
 40
0
 40
0
 40
1
 40
1
 10
436.202
 20
109.212
 30
0
 10
434.678
 20
109.212
 30
0
  0
SPLINE
  5
B3F
330
A02
100
AcDbEntity
  8
View010
100
AcDbSpline
210
0
220
0
230
1
 70
8
 71
1
 72
4
 73
2
 74
0
 40
0
 40
0
 40
1
 40
1
 10
475.159
 20
104.512
 30
0
 10
461.158
 20
104.512
 30
0
  0
SPLINE
  5
B40
330
A02
100
AcDbEntity
  8
View010
100
AcDbSpline
210
0
220
0
230
1
 70
8
 71
1
 72
4
 73
2
 74
0
 40
0
 40
0
 40
1
 40
1
 10
475.159
 20
118.512
 30
0
 10
475.159
 20
104.512
 30
0
  0
SPLINE
  5
B41
330
A02
100
AcDbEntity
  8
View010
100
AcDbSpline
210
0
220
0
230
1
 70
8
 71
1
 72
4
 73
2
 74
0
 40
0
 40
0
 40
1
 40
1
 10
461.158
 20
104.512
 30
0
 10
461.158
 20
118.512
 30
0
  0
SPLINE
  5
B42
330
A02
100
AcDbEntity
  8
View010
100
AcDbSpline
210
0
220
0
230
1
 70
8
 71
1
 72
4
 73
2
 74
0
 40
0
 40
0
 40
1
 40
1
 10
461.158
 20
118.512
 30
0
 10
475.159
 20
118.512
 30
0
  0
SPLINE
  5
B43
330
A02
100
AcDbEntity
  8
View010
100
AcDbSpline
210
0
220
0
230
1
 70
8
 71
1
 72
4
 73
2
 74
0
 40
0
 40
0
 40
1
 40
1
 10
132.259
 20
123.562
 30
0
 10
118.259
 20
123.562
 30
0
  0
SPLINE
  5
B44
330
A02
100
AcDbEntity
  8
View010
100
AcDbSpline
210
0
220
0
230
1
 70
8
 71
1
 72
4
 73
2
 74
0
 40
0
 40
0
 40
1
 40
1
 10
132.259
 20
137.562
 30
0
 10
132.259
 20
123.562
 30
0
  0
SPLINE
  5
B45
330
A02
100
AcDbEntity
  8
View010
100
AcDbSpline
210
0
220
0
230
1
 70
8
 71
1
 72
4
 73
2
 74
0
 40
0
 40
0
 40
1
 40
1
 10
118.259
 20
123.562
 30
0
 10
118.259
 20
137.562
 30
0
  0
SPLINE
  5
B46
330
A02
100
AcDbEntity
  8
View010
100
AcDbSpline
210
0
220
0
230
1
 70
8
 71
1
 72
4
 73
2
 74
0
 40
0
 40
0
 40
1
 40
1
 10
118.259
 20
137.562
 30
0
 10
132.259
 20
137.562
 30
0
  0
SPLINE
  5
B47
330
A02
100
AcDbEntity
  8
View010
100
AcDbSpline
210
0
220
0
230
1
 70
8
 71
1
 72
4
 73
2
 74
0
 40
0
 40
0
 40
1
 40
1
 10
151.309
 20
123.562
 30
0
 10
137.309
 20
123.562
 30
0
  0
SPLINE
  5
B48
330
A02
100
AcDbEntity
  8
View010
100
AcDbSpline
210
0
220
0
230
1
 70
8
 71
1
 72
4
 73
2
 74
0
 40
0
 40
0
 40
1
 40
1
 10
151.309
 20
137.562
 30
0
 10
151.309
 20
123.562
 30
0
  0
SPLINE
  5
B49
330
A02
100
AcDbEntity
  8
View010
100
AcDbSpline
210
0
220
0
230
1
 70
8
 71
1
 72
4
 73
2
 74
0
 40
0
 40
0
 40
1
 40
1
 10
137.309
 20
123.562
 30
0
 10
137.309
 20
137.562
 30
0
  0
SPLINE
  5
B4A
330
A02
100
AcDbEntity
  8
View010
100
AcDbSpline
210
0
220
0
230
1
 70
8
 71
1
 72
4
 73
2
 74
0
 40
0
 40
0
 40
1
 40
1
 10
137.309
 20
137.562
 30
0
 10
151.309
 20
137.562
 30
0
  0
SPLINE
  5
B4B
330
A02
100
AcDbEntity
  8
View010
100
AcDbSpline
210
0
220
0
230
1
 70
8
 71
1
 72
4
 73
2
 74
0
 40
0
 40
0
 40
1
 40
1
 10
184.646
 20
123.562
 30
0
 10
170.646
 20
123.562
 30
0
  0
SPLINE
  5
B4C
330
A02
100
AcDbEntity
  8
View010
100
AcDbSpline
210
0
220
0
230
1
 70
8
 71
1
 72
4
 73
2
 74
0
 40
0
 40
0
 40
1
 40
1
 10
184.646
 20
137.562
 30
0
 10
184.646
 20
123.562
 30
0
  0
SPLINE
  5
B4D
330
A02
100
AcDbEntity
  8
View010
100
AcDbSpline
210
0
220
0
230
1
 70
8
 71
1
 72
4
 73
2
 74
0
 40
0
 40
0
 40
1
 40
1
 10
170.646
 20
123.562
 30
0
 10
170.646
 20
137.562
 30
0
  0
SPLINE
  5
B4E
330
A02
100
AcDbEntity
  8
View010
100
AcDbSpline
210
0
220
0
230
1
 70
8
 71
1
 72
4
 73
2
 74
0
 40
0
 40
0
 40
1
 40
1
 10
170.646
 20
137.562
 30
0
 10
184.646
 20
137.562
 30
0
  0
ARC
  5
B4F
330
A02
100
AcDbEntity
  8
View010
100
AcDbCircle
 10
119.433
 20
155.488
 30
0
 40
1
100
AcDbArc
 50
90
 51
180
  0
LINE
  5
B50
330
A02
100
AcDbEntity
  8
View010
100
AcDbLine
 10
118.433
 20
143.688
 30
0
 11
118.433
 21
155.488
 31
0
  0
ARC
  5
B51
330
A02
100
AcDbEntity
  8
View010
100
AcDbCircle
 10
119.433
 20
143.688
 30
0
 40
1
100
AcDbArc
 50
180
 51
-90
  0
LINE
  5
B52
330
A02
100
AcDbEntity
  8
View010
100
AcDbLine
 10
131.633
 20
142.688
 30
0
 11
119.433
 21
142.688
 31
0
  0
ARC
  5
B53
330
A02
100
AcDbEntity
  8
View010
100
AcDbCircle
 10
131.633
 20
143.688
 30
0
 40
1
100
AcDbArc
 50
-90
 51
0
  0
LINE
  5
B54
330
A02
100
AcDbEntity
  8
View010
100
AcDbLine
 10
132.633
 20
155.488
 30
0
 11
132.633
 21
143.688
 31
0
  0
ARC
  5
B55
330
A02
100
AcDbEntity
  8
View010
100
AcDbCircle
 10
131.633
 20
155.488
 30
0
 40
1
100
AcDbArc
 50
0
 51
90
  0
LINE
  5
B56
330
A02
100
AcDbEntity
  8
View010
100
AcDbLine
 10
119.433
 20
156.488
 30
0
 11
131.633
 21
156.488
 31
0
  0
SPLINE
  5
B57
330
A02
100
AcDbEntity
  8
View010
100
AcDbSpline
210
0
220
0
230
1
 70
8
 71
1
 72
4
 73
2
 74
0
 40
0
 40
0
 40
1
 40
1
 10
151.309
 20
142.612
 30
0
 10
137.309
 20
142.612
 30
0
  0
SPLINE
  5
B58
330
A02
100
AcDbEntity
  8
View010
100
AcDbSpline
210
0
220
0
230
1
 70
8
 71
1
 72
4
 73
2
 74
0
 40
0
 40
0
 40
1
 40
1
 10
151.309
 20
156.612
 30
0
 10
151.309
 20
142.612
 30
0
  0
SPLINE
  5
B59
330
A02
100
AcDbEntity
  8
View010
100
AcDbSpline
210
0
220
0
230
1
 70
8
 71
1
 72
4
 73
2
 74
0
 40
0
 40
0
 40
1
 40
1
 10
137.309
 20
142.612
 30
0
 10
137.309
 20
156.612
 30
0
  0
SPLINE
  5
B5A
330
A02
100
AcDbEntity
  8
View010
100
AcDbSpline
210
0
220
0
230
1
 70
8
 71
1
 72
4
 73
2
 74
0
 40
0
 40
0
 40
1
 40
1
 10
137.309
 20
156.612
 30
0
 10
151.309
 20
156.612
 30
0
  0
SPLINE
  5
B5B
330
A02
100
AcDbEntity
  8
View010
100
AcDbSpline
210
0
220
0
230
1
 70
8
 71
1
 72
4
 73
2
 74
0
 40
0
 40
0
 40
1
 40
1
 10
179.884
 20
142.612
 30
0
 10
165.884
 20
142.612
 30
0
  0
SPLINE
  5
B5C
330
A02
100
AcDbEntity
  8
View010
100
AcDbSpline
210
0
220
0
230
1
 70
8
 71
1
 72
4
 73
2
 74
0
 40
0
 40
0
 40
1
 40
1
 10
179.884
 20
156.612
 30
0
 10
179.884
 20
142.612
 30
0
  0
SPLINE
  5
B5D
330
A02
100
AcDbEntity
  8
View010
100
AcDbSpline
210
0
220
0
230
1
 70
8
 71
1
 72
4
 73
2
 74
0
 40
0
 40
0
 40
1
 40
1
 10
165.884
 20
142.612
 30
0
 10
165.884
 20
156.612
 30
0
  0
SPLINE
  5
B5E
330
A02
100
AcDbEntity
  8
View010
100
AcDbSpline
210
0
220
0
230
1
 70
8
 71
1
 72
4
 73
2
 74
0
 40
0
 40
0
 40
1
 40
1
 10
165.884
 20
156.612
 30
0
 10
179.884
 20
156.612
 30
0
  0
SPLINE
  5
B5F
330
A02
100
AcDbEntity
  8
View010
100
AcDbSpline
210
0
220
0
230
1
 70
8
 71
1
 72
4
 73
2
 74
0
 40
0
 40
0
 40
1
 40
1
 10
198.934
 20
142.612
 30
0
 10
184.934
 20
142.612
 30
0
  0
SPLINE
  5
B60
330
A02
100
AcDbEntity
  8
View010
100
AcDbSpline
210
0
220
0
230
1
 70
8
 71
1
 72
4
 73
2
 74
0
 40
0
 40
0
 40
1
 40
1
 10
198.934
 20
156.612
 30
0
 10
198.934
 20
142.612
 30
0
  0
SPLINE
  5
B61
330
A02
100
AcDbEntity
  8
View010
100
AcDbSpline
210
0
220
0
230
1
 70
8
 71
1
 72
4
 73
2
 74
0
 40
0
 40
0
 40
1
 40
1
 10
184.934
 20
142.612
 30
0
 10
184.934
 20
156.612
 30
0
  0
SPLINE
  5
B62
330
A02
100
AcDbEntity
  8
View010
100
AcDbSpline
210
0
220
0
230
1
 70
8
 71
1
 72
4
 73
2
 74
0
 40
0
 40
0
 40
1
 40
1
 10
184.934
 20
156.612
 30
0
 10
198.934
 20
156.612
 30
0
  0
SPLINE
  5
B63
330
A02
100
AcDbEntity
  8
View010
100
AcDbSpline
210
0
220
0
230
1
 70
8
 71
1
 72
4
 73
2
 74
0
 40
0
 40
0
 40
1
 40
1
 10
208.459
 20
123.562
 30
0
 10
194.459
 20
123.562
 30
0
  0
SPLINE
  5
B64
330
A02
100
AcDbEntity
  8
View010
100
AcDbSpline
210
0
220
0
230
1
 70
8
 71
1
 72
4
 73
2
 74
0
 40
0
 40
0
 40
1
 40
1
 10
208.459
 20
137.562
 30
0
 10
208.459
 20
123.562
 30
0
  0
SPLINE
  5
B65
330
A02
100
AcDbEntity
  8
View010
100
AcDbSpline
210
0
220
0
230
1
 70
8
 71
1
 72
4
 73
2
 74
0
 40
0
 40
0
 40
1
 40
1
 10
194.459
 20
123.562
 30
0
 10
194.459
 20
137.562
 30
0
  0
SPLINE
  5
B66
330
A02
100
AcDbEntity
  8
View010
100
AcDbSpline
210
0
220
0
230
1
 70
8
 71
1
 72
4
 73
2
 74
0
 40
0
 40
0
 40
1
 40
1
 10
194.459
 20
137.562
 30
0
 10
208.459
 20
137.562
 30
0
  0
SPLINE
  5
B67
330
A02
100
AcDbEntity
  8
View010
100
AcDbSpline
210
0
220
0
230
1
 70
8
 71
1
 72
4
 73
2
 74
0
 40
0
 40
0
 40
1
 40
1
 10
227.509
 20
123.562
 30
0
 10
213.509
 20
123.562
 30
0
  0
SPLINE
  5
B68
330
A02
100
AcDbEntity
  8
View010
100
AcDbSpline
210
0
220
0
230
1
 70
8
 71
1
 72
4
 73
2
 74
0
 40
0
 40
0
 40
1
 40
1
 10
227.509
 20
137.562
 30
0
 10
227.509
 20
123.562
 30
0
  0
SPLINE
  5
B69
330
A02
100
AcDbEntity
  8
View010
100
AcDbSpline
210
0
220
0
230
1
 70
8
 71
1
 72
4
 73
2
 74
0
 40
0
 40
0
 40
1
 40
1
 10
213.509
 20
123.562
 30
0
 10
213.509
 20
137.562
 30
0
  0
SPLINE
  5
B6A
330
A02
100
AcDbEntity
  8
View010
100
AcDbSpline
210
0
220
0
230
1
 70
8
 71
1
 72
4
 73
2
 74
0
 40
0
 40
0
 40
1
 40
1
 10
213.509
 20
137.562
 30
0
 10
227.509
 20
137.562
 30
0
  0
SPLINE
  5
B6B
330
A02
100
AcDbEntity
  8
View010
100
AcDbSpline
210
0
220
0
230
1
 70
8
 71
1
 72
4
 73
2
 74
0
 40
0
 40
0
 40
1
 40
1
 10
246.559
 20
123.562
 30
0
 10
232.559
 20
123.562
 30
0
  0
SPLINE
  5
B6C
330
A02
100
AcDbEntity
  8
View010
100
AcDbSpline
210
0
220
0
230
1
 70
8
 71
1
 72
4
 73
2
 74
0
 40
0
 40
0
 40
1
 40
1
 10
246.559
 20
137.562
 30
0
 10
246.559
 20
123.562
 30
0
  0
SPLINE
  5
B6D
330
A02
100
AcDbEntity
  8
View010
100
AcDbSpline
210
0
220
0
230
1
 70
8
 71
1
 72
4
 73
2
 74
0
 40
0
 40
0
 40
1
 40
1
 10
232.559
 20
123.562
 30
0
 10
232.559
 20
137.562
 30
0
  0
SPLINE
  5
B6E
330
A02
100
AcDbEntity
  8
View010
100
AcDbSpline
210
0
220
0
230
1
 70
8
 71
1
 72
4
 73
2
 74
0
 40
0
 40
0
 40
1
 40
1
 10
232.559
 20
137.562
 30
0
 10
246.559
 20
137.562
 30
0
  0
SPLINE
  5
B6F
330
A02
100
AcDbEntity
  8
View010
100
AcDbSpline
210
0
220
0
230
1
 70
8
 71
1
 72
4
 73
2
 74
0
 40
0
 40
0
 40
1
 40
1
 10
265.609
 20
123.562
 30
0
 10
251.609
 20
123.562
 30
0
  0
SPLINE
  5
B70
330
A02
100
AcDbEntity
  8
View010
100
AcDbSpline
210
0
220
0
230
1
 70
8
 71
1
 72
4
 73
2
 74
0
 40
0
 40
0
 40
1
 40
1
 10
265.609
 20
137.562
 30
0
 10
265.609
 20
123.562
 30
0
  0
SPLINE
  5
B71
330
A02
100
AcDbEntity
  8
View010
100
AcDbSpline
210
0
220
0
230
1
 70
8
 71
1
 72
4
 73
2
 74
0
 40
0
 40
0
 40
1
 40
1
 10
251.609
 20
123.562
 30
0
 10
251.609
 20
137.562
 30
0
  0
SPLINE
  5
B72
330
A02
100
AcDbEntity
  8
View010
100
AcDbSpline
210
0
220
0
230
1
 70
8
 71
1
 72
4
 73
2
 74
0
 40
0
 40
0
 40
1
 40
1
 10
251.609
 20
137.562
 30
0
 10
265.609
 20
137.562
 30
0
  0
SPLINE
  5
B73
330
A02
100
AcDbEntity
  8
View010
100
AcDbSpline
210
0
220
0
230
1
 70
8
 71
1
 72
4
 73
2
 74
0
 40
0
 40
0
 40
1
 40
1
 10
284.659
 20
123.562
 30
0
 10
270.659
 20
123.562
 30
0
  0
SPLINE
  5
B74
330
A02
100
AcDbEntity
  8
View010
100
AcDbSpline
210
0
220
0
230
1
 70
8
 71
1
 72
4
 73
2
 74
0
 40
0
 40
0
 40
1
 40
1
 10
284.659
 20
137.562
 30
0
 10
284.659
 20
123.562
 30
0
  0
SPLINE
  5
B75
330
A02
100
AcDbEntity
  8
View010
100
AcDbSpline
210
0
220
0
230
1
 70
8
 71
1
 72
4
 73
2
 74
0
 40
0
 40
0
 40
1
 40
1
 10
270.659
 20
123.562
 30
0
 10
270.659
 20
137.562
 30
0
  0
SPLINE
  5
B76
330
A02
100
AcDbEntity
  8
View010
100
AcDbSpline
210
0
220
0
230
1
 70
8
 71
1
 72
4
 73
2
 74
0
 40
0
 40
0
 40
1
 40
1
 10
270.659
 20
137.562
 30
0
 10
284.659
 20
137.562
 30
0
  0
SPLINE
  5
B77
330
A02
100
AcDbEntity
  8
View010
100
AcDbSpline
210
0
220
0
230
1
 70
8
 71
1
 72
4
 73
2
 74
0
 40
0
 40
0
 40
1
 40
1
 10
217.984
 20
142.612
 30
0
 10
203.984
 20
142.612
 30
0
  0
SPLINE
  5
B78
330
A02
100
AcDbEntity
  8
View010
100
AcDbSpline
210
0
220
0
230
1
 70
8
 71
1
 72
4
 73
2
 74
0
 40
0
 40
0
 40
1
 40
1
 10
217.984
 20
156.612
 30
0
 10
217.984
 20
142.612
 30
0
  0
SPLINE
  5
B79
330
A02
100
AcDbEntity
  8
View010
100
AcDbSpline
210
0
220
0
230
1
 70
8
 71
1
 72
4
 73
2
 74
0
 40
0
 40
0
 40
1
 40
1
 10
203.984
 20
142.612
 30
0
 10
203.984
 20
156.612
 30
0
  0
SPLINE
  5
B7A
330
A02
100
AcDbEntity
  8
View010
100
AcDbSpline
210
0
220
0
230
1
 70
8
 71
1
 72
4
 73
2
 74
0
 40
0
 40
0
 40
1
 40
1
 10
203.984
 20
156.612
 30
0
 10
217.984
 20
156.612
 30
0
  0
SPLINE
  5
B7B
330
A02
100
AcDbEntity
  8
View010
100
AcDbSpline
210
0
220
0
230
1
 70
8
 71
1
 72
4
 73
2
 74
0
 40
0
 40
0
 40
1
 40
1
 10
237.034
 20
142.612
 30
0
 10
223.034
 20
142.612
 30
0
  0
SPLINE
  5
B7C
330
A02
100
AcDbEntity
  8
View010
100
AcDbSpline
210
0
220
0
230
1
 70
8
 71
1
 72
4
 73
2
 74
0
 40
0
 40
0
 40
1
 40
1
 10
237.034
 20
156.612
 30
0
 10
237.034
 20
142.612
 30
0
  0
SPLINE
  5
B7D
330
A02
100
AcDbEntity
  8
View010
100
AcDbSpline
210
0
220
0
230
1
 70
8
 71
1
 72
4
 73
2
 74
0
 40
0
 40
0
 40
1
 40
1
 10
223.034
 20
142.612
 30
0
 10
223.034
 20
156.612
 30
0
  0
SPLINE
  5
B7E
330
A02
100
AcDbEntity
  8
View010
100
AcDbSpline
210
0
220
0
230
1
 70
8
 71
1
 72
4
 73
2
 74
0
 40
0
 40
0
 40
1
 40
1
 10
223.034
 20
156.612
 30
0
 10
237.034
 20
156.612
 30
0
  0
SPLINE
  5
B7F
330
A02
100
AcDbEntity
  8
View010
100
AcDbSpline
210
0
220
0
230
1
 70
8
 71
1
 72
4
 73
2
 74
0
 40
0
 40
0
 40
1
 40
1
 10
256.084
 20
142.612
 30
0
 10
242.084
 20
142.612
 30
0
  0
SPLINE
  5
B80
330
A02
100
AcDbEntity
  8
View010
100
AcDbSpline
210
0
220
0
230
1
 70
8
 71
1
 72
4
 73
2
 74
0
 40
0
 40
0
 40
1
 40
1
 10
256.084
 20
156.612
 30
0
 10
256.084
 20
142.612
 30
0
  0
SPLINE
  5
B81
330
A02
100
AcDbEntity
  8
View010
100
AcDbSpline
210
0
220
0
230
1
 70
8
 71
1
 72
4
 73
2
 74
0
 40
0
 40
0
 40
1
 40
1
 10
242.084
 20
142.612
 30
0
 10
242.084
 20
156.612
 30
0
  0
SPLINE
  5
B82
330
A02
100
AcDbEntity
  8
View010
100
AcDbSpline
210
0
220
0
230
1
 70
8
 71
1
 72
4
 73
2
 74
0
 40
0
 40
0
 40
1
 40
1
 10
242.084
 20
156.612
 30
0
 10
256.084
 20
156.612
 30
0
  0
SPLINE
  5
B83
330
A02
100
AcDbEntity
  8
View010
100
AcDbSpline
210
0
220
0
230
1
 70
8
 71
1
 72
4
 73
2
 74
0
 40
0
 40
0
 40
1
 40
1
 10
275.134
 20
142.612
 30
0
 10
261.134
 20
142.612
 30
0
  0
SPLINE
  5
B84
330
A02
100
AcDbEntity
  8
View010
100
AcDbSpline
210
0
220
0
230
1
 70
8
 71
1
 72
4
 73
2
 74
0
 40
0
 40
0
 40
1
 40
1
 10
275.134
 20
156.612
 30
0
 10
275.134
 20
142.612
 30
0
  0
SPLINE
  5
B85
330
A02
100
AcDbEntity
  8
View010
100
AcDbSpline
210
0
220
0
230
1
 70
8
 71
1
 72
4
 73
2
 74
0
 40
0
 40
0
 40
1
 40
1
 10
261.134
 20
142.612
 30
0
 10
261.134
 20
156.612
 30
0
  0
SPLINE
  5
B86
330
A02
100
AcDbEntity
  8
View010
100
AcDbSpline
210
0
220
0
230
1
 70
8
 71
1
 72
4
 73
2
 74
0
 40
0
 40
0
 40
1
 40
1
 10
261.134
 20
156.612
 30
0
 10
275.134
 20
156.612
 30
0
  0
SPLINE
  5
B87
330
A02
100
AcDbEntity
  8
View010
100
AcDbSpline
210
0
220
0
230
1
 70
8
 71
1
 72
4
 73
2
 74
0
 40
0
 40
0
 40
1
 40
1
 10
294.184
 20
142.612
 30
0
 10
280.184
 20
142.612
 30
0
  0
SPLINE
  5
B88
330
A02
100
AcDbEntity
  8
View010
100
AcDbSpline
210
0
220
0
230
1
 70
8
 71
1
 72
4
 73
2
 74
0
 40
0
 40
0
 40
1
 40
1
 10
294.184
 20
156.612
 30
0
 10
294.184
 20
142.612
 30
0
  0
SPLINE
  5
B89
330
A02
100
AcDbEntity
  8
View010
100
AcDbSpline
210
0
220
0
230
1
 70
8
 71
1
 72
4
 73
2
 74
0
 40
0
 40
0
 40
1
 40
1
 10
280.184
 20
142.612
 30
0
 10
280.184
 20
156.612
 30
0
  0
SPLINE
  5
B8A
330
A02
100
AcDbEntity
  8
View010
100
AcDbSpline
210
0
220
0
230
1
 70
8
 71
1
 72
4
 73
2
 74
0
 40
0
 40
0
 40
1
 40
1
 10
280.184
 20
156.612
 30
0
 10
294.184
 20
156.612
 30
0
  0
ARC
  5
B8B
330
A02
100
AcDbEntity
  8
View010
100
AcDbCircle
 10
118.3
 20
193.803
 30
0
 40
1
100
AcDbArc
 50
90
 51
180
  0
LINE
  5
B8C
330
A02
100
AcDbEntity
  8
View010
100
AcDbLine
 10
117.3
 20
160.113
 30
0
 11
117.3
 21
193.803
 31
0
  0
ARC
  5
B8D
330
A02
100
AcDbEntity
  8
View010
100
AcDbCircle
 10
118.3
 20
160.113
 30
0
 40
1
100
AcDbArc
 50
180
 51
-90
  0
LINE
  5
B8E
330
A02
100
AcDbEntity
  8
View010
100
AcDbLine
 10
153.7
 20
159.113
 30
0
 11
118.3
 21
159.113
 31
0
  0
ARC
  5
B8F
330
A02
100
AcDbEntity
  8
View010
100
AcDbCircle
 10
153.7
 20
160.113
 30
0
 40
1
100
AcDbArc
 50
-90
 51
0
  0
LINE
  5
B90
330
A02
100
AcDbEntity
  8
View010
100
AcDbLine
 10
154.7
 20
193.803
 30
0
 11
154.7
 21
160.113
 31
0
  0
ARC
  5
B91
330
A02
100
AcDbEntity
  8
View010
100
AcDbCircle
 10
153.7
 20
193.803
 30
0
 40
1
100
AcDbArc
 50
0
 51
90
  0
LINE
  5
B92
330
A02
100
AcDbEntity
  8
View010
100
AcDbLine
 10
118.3
 20
194.803
 30
0
 11
153.7
 21
194.803
 31
0
  0
SPLINE
  5
B93
330
A02
100
AcDbEntity
  8
View010
100
AcDbSpline
210
0
220
0
230
1
 70
8
 71
1
 72
4
 73
2
 74
0
 40
0
 40
0
 40
1
 40
1
 10
179.884
 20
166.424
 30
0
 10
165.884
 20
166.424
 30
0
  0
SPLINE
  5
B94
330
A02
100
AcDbEntity
  8
View010
100
AcDbSpline
210
0
220
0
230
1
 70
8
 71
1
 72
4
 73
2
 74
0
 40
0
 40
0
 40
1
 40
1
 10
179.884
 20
180.424
 30
0
 10
179.884
 20
166.424
 30
0
  0
SPLINE
  5
B95
330
A02
100
AcDbEntity
  8
View010
100
AcDbSpline
210
0
220
0
230
1
 70
8
 71
1
 72
4
 73
2
 74
0
 40
0
 40
0
 40
1
 40
1
 10
165.884
 20
166.424
 30
0
 10
165.884
 20
180.424
 30
0
  0
SPLINE
  5
B96
330
A02
100
AcDbEntity
  8
View010
100
AcDbSpline
210
0
220
0
230
1
 70
8
 71
1
 72
4
 73
2
 74
0
 40
0
 40
0
 40
1
 40
1
 10
165.884
 20
180.424
 30
0
 10
179.884
 20
180.424
 30
0
  0
SPLINE
  5
B97
330
A02
100
AcDbEntity
  8
View010
100
AcDbSpline
210
0
220
0
230
1
 70
8
 71
1
 72
4
 73
2
 74
0
 40
0
 40
0
 40
1
 40
1
 10
203.696
 20
166.424
 30
0
 10
189.696
 20
166.424
 30
0
  0
SPLINE
  5
B98
330
A02
100
AcDbEntity
  8
View010
100
AcDbSpline
210
0
220
0
230
1
 70
8
 71
1
 72
4
 73
2
 74
0
 40
0
 40
0
 40
1
 40
1
 10
203.696
 20
180.424
 30
0
 10
203.696
 20
166.424
 30
0
  0
SPLINE
  5
B99
330
A02
100
AcDbEntity
  8
View010
100
AcDbSpline
210
0
220
0
230
1
 70
8
 71
1
 72
4
 73
2
 74
0
 40
0
 40
0
 40
1
 40
1
 10
189.696
 20
166.424
 30
0
 10
189.696
 20
180.424
 30
0
  0
SPLINE
  5
B9A
330
A02
100
AcDbEntity
  8
View010
100
AcDbSpline
210
0
220
0
230
1
 70
8
 71
1
 72
4
 73
2
 74
0
 40
0
 40
0
 40
1
 40
1
 10
189.696
 20
180.424
 30
0
 10
203.696
 20
180.424
 30
0
  0
CIRCLE
  5
B9B
330
A02
100
AcDbEntity
  8
View010
100
AcDbCircle
 10
102.91
 20
202.123
 40
1.6
  0
CIRCLE
  5
B9C
330
A02
100
AcDbEntity
  8
View010
100
AcDbCircle
 10
180.222
 20
202.123
 40
1.6
  0
SPLINE
  5
B9D
330
A02
100
AcDbEntity
  8
View010
100
AcDbSpline
210
0
220
0
230
1
 70
8
 71
1
 72
4
 73
2
 74
0
 40
0
 40
0
 40
1
 40
1
 10
222.746
 20
166.424
 30
0
 10
208.746
 20
166.424
 30
0
  0
SPLINE
  5
B9E
330
A02
100
AcDbEntity
  8
View010
100
AcDbSpline
210
0
220
0
230
1
 70
8
 71
1
 72
4
 73
2
 74
0
 40
0
 40
0
 40
1
 40
1
 10
222.746
 20
180.424
 30
0
 10
222.746
 20
166.424
 30
0
  0
SPLINE
  5
B9F
330
A02
100
AcDbEntity
  8
View010
100
AcDbSpline
210
0
220
0
230
1
 70
8
 71
1
 72
4
 73
2
 74
0
 40
0
 40
0
 40
1
 40
1
 10
208.746
 20
166.424
 30
0
 10
208.746
 20
180.424
 30
0
  0
SPLINE
  5
BA0
330
A02
100
AcDbEntity
  8
View010
100
AcDbSpline
210
0
220
0
230
1
 70
8
 71
1
 72
4
 73
2
 74
0
 40
0
 40
0
 40
1
 40
1
 10
208.746
 20
180.424
 30
0
 10
222.746
 20
180.424
 30
0
  0
SPLINE
  5
BA1
330
A02
100
AcDbEntity
  8
View010
100
AcDbSpline
210
0
220
0
230
1
 70
8
 71
1
 72
4
 73
2
 74
0
 40
0
 40
0
 40
1
 40
1
 10
241.796
 20
166.424
 30
0
 10
227.796
 20
166.424
 30
0
  0
SPLINE
  5
BA2
330
A02
100
AcDbEntity
  8
View010
100
AcDbSpline
210
0
220
0
230
1
 70
8
 71
1
 72
4
 73
2
 74
0
 40
0
 40
0
 40
1
 40
1
 10
241.796
 20
180.424
 30
0
 10
241.796
 20
166.424
 30
0
  0
SPLINE
  5
BA3
330
A02
100
AcDbEntity
  8
View010
100
AcDbSpline
210
0
220
0
230
1
 70
8
 71
1
 72
4
 73
2
 74
0
 40
0
 40
0
 40
1
 40
1
 10
227.796
 20
166.424
 30
0
 10
227.796
 20
180.424
 30
0
  0
SPLINE
  5
BA4
330
A02
100
AcDbEntity
  8
View010
100
AcDbSpline
210
0
220
0
230
1
 70
8
 71
1
 72
4
 73
2
 74
0
 40
0
 40
0
 40
1
 40
1
 10
227.796
 20
180.424
 30
0
 10
241.796
 20
180.424
 30
0
  0
SPLINE
  5
BA5
330
A02
100
AcDbEntity
  8
View010
100
AcDbSpline
210
0
220
0
230
1
 70
8
 71
1
 72
4
 73
2
 74
0
 40
0
 40
0
 40
1
 40
1
 10
260.846
 20
166.424
 30
0
 10
246.846
 20
166.424
 30
0
  0
SPLINE
  5
BA6
330
A02
100
AcDbEntity
  8
View010
100
AcDbSpline
210
0
220
0
230
1
 70
8
 71
1
 72
4
 73
2
 74
0
 40
0
 40
0
 40
1
 40
1
 10
260.846
 20
180.424
 30
0
 10
260.846
 20
166.424
 30
0
  0
SPLINE
  5
BA7
330
A02
100
AcDbEntity
  8
View010
100
AcDbSpline
210
0
220
0
230
1
 70
8
 71
1
 72
4
 73
2
 74
0
 40
0
 40
0
 40
1
 40
1
 10
246.846
 20
166.424
 30
0
 10
246.846
 20
180.424
 30
0
  0
SPLINE
  5
BA8
330
A02
100
AcDbEntity
  8
View010
100
AcDbSpline
210
0
220
0
230
1
 70
8
 71
1
 72
4
 73
2
 74
0
 40
0
 40
0
 40
1
 40
1
 10
246.846
 20
180.424
 30
0
 10
260.846
 20
180.424
 30
0
  0
SPLINE
  5
BA9
330
A02
100
AcDbEntity
  8
View010
100
AcDbSpline
210
0
220
0
230
1
 70
8
 71
1
 72
4
 73
2
 74
0
 40
0
 40
0
 40
1
 40
1
 10
284.659
 20
166.424
 30
0
 10
270.659
 20
166.424
 30
0
  0
SPLINE
  5
BAA
330
A02
100
AcDbEntity
  8
View010
100
AcDbSpline
210
0
220
0
230
1
 70
8
 71
1
 72
4
 73
2
 74
0
 40
0
 40
0
 40
1
 40
1
 10
284.659
 20
180.424
 30
0
 10
284.659
 20
166.424
 30
0
  0
SPLINE
  5
BAB
330
A02
100
AcDbEntity
  8
View010
100
AcDbSpline
210
0
220
0
230
1
 70
8
 71
1
 72
4
 73
2
 74
0
 40
0
 40
0
 40
1
 40
1
 10
270.659
 20
166.424
 30
0
 10
270.659
 20
180.424
 30
0
  0
SPLINE
  5
BAC
330
A02
100
AcDbEntity
  8
View010
100
AcDbSpline
210
0
220
0
230
1
 70
8
 71
1
 72
4
 73
2
 74
0
 40
0
 40
0
 40
1
 40
1
 10
270.659
 20
180.424
 30
0
 10
284.659
 20
180.424
 30
0
  0
CIRCLE
  5
BAD
330
A02
100
AcDbEntity
  8
View010
100
AcDbCircle
 10
257.534
 20
202.123
 40
1.6
  0
SPLINE
  5
BAE
330
A02
100
AcDbEntity
  8
View010
100
AcDbSpline
210
0
220
0
230
1
 70
8
 71
1
 72
4
 73
2
 74
0
 40
0
 40
0
 40
1
 40
1
 10
303.709
 20
123.562
 30
0
 10
289.709
 20
123.562
 30
0
  0
SPLINE
  5
BAF
330
A02
100
AcDbEntity
  8
View010
100
AcDbSpline
210
0
220
0
230
1
 70
8
 71
1
 72
4
 73
2
 74
0
 40
0
 40
0
 40
1
 40
1
 10
303.709
 20
137.562
 30
0
 10
303.709
 20
123.562
 30
0
  0
SPLINE
  5
BB0
330
A02
100
AcDbEntity
  8
View010
100
AcDbSpline
210
0
220
0
230
1
 70
8
 71
1
 72
4
 73
2
 74
0
 40
0
 40
0
 40
1
 40
1
 10
289.709
 20
123.562
 30
0
 10
289.709
 20
137.562
 30
0
  0
SPLINE
  5
BB1
330
A02
100
AcDbEntity
  8
View010
100
AcDbSpline
210
0
220
0
230
1
 70
8
 71
1
 72
4
 73
2
 74
0
 40
0
 40
0
 40
1
 40
1
 10
289.709
 20
137.562
 30
0
 10
303.709
 20
137.562
 30
0
  0
SPLINE
  5
BB2
330
A02
100
AcDbEntity
  8
View010
100
AcDbSpline
210
0
220
0
230
1
 70
8
 71
1
 72
4
 73
2
 74
0
 40
0
 40
0
 40
1
 40
1
 10
322.759
 20
123.562
 30
0
 10
308.759
 20
123.562
 30
0
  0
SPLINE
  5
BB3
330
A02
100
AcDbEntity
  8
View010
100
AcDbSpline
210
0
220
0
230
1
 70
8
 71
1
 72
4
 73
2
 74
0
 40
0
 40
0
 40
1
 40
1
 10
322.759
 20
137.562
 30
0
 10
322.759
 20
123.562
 30
0
  0
SPLINE
  5
BB4
330
A02
100
AcDbEntity
  8
View010
100
AcDbSpline
210
0
220
0
230
1
 70
8
 71
1
 72
4
 73
2
 74
0
 40
0
 40
0
 40
1
 40
1
 10
308.759
 20
123.562
 30
0
 10
308.759
 20
137.562
 30
0
  0
SPLINE
  5
BB5
330
A02
100
AcDbEntity
  8
View010
100
AcDbSpline
210
0
220
0
230
1
 70
8
 71
1
 72
4
 73
2
 74
0
 40
0
 40
0
 40
1
 40
1
 10
308.759
 20
137.562
 30
0
 10
322.759
 20
137.562
 30
0
  0
SPLINE
  5
BB6
330
A02
100
AcDbEntity
  8
View010
100
AcDbSpline
210
0
220
0
230
1
 70
8
 71
1
 72
4
 73
2
 74
0
 40
0
 40
0
 40
1
 40
1
 10
341.809
 20
123.562
 30
0
 10
327.809
 20
123.562
 30
0
  0
SPLINE
  5
BB7
330
A02
100
AcDbEntity
  8
View010
100
AcDbSpline
210
0
220
0
230
1
 70
8
 71
1
 72
4
 73
2
 74
0
 40
0
 40
0
 40
1
 40
1
 10
341.809
 20
137.562
 30
0
 10
341.809
 20
123.562
 30
0
  0
SPLINE
  5
BB8
330
A02
100
AcDbEntity
  8
View010
100
AcDbSpline
210
0
220
0
230
1
 70
8
 71
1
 72
4
 73
2
 74
0
 40
0
 40
0
 40
1
 40
1
 10
327.809
 20
123.562
 30
0
 10
327.809
 20
137.562
 30
0
  0
SPLINE
  5
BB9
330
A02
100
AcDbEntity
  8
View010
100
AcDbSpline
210
0
220
0
230
1
 70
8
 71
1
 72
4
 73
2
 74
0
 40
0
 40
0
 40
1
 40
1
 10
327.809
 20
137.562
 30
0
 10
341.809
 20
137.562
 30
0
  0
SPLINE
  5
BBA
330
A02
100
AcDbEntity
  8
View010
100
AcDbSpline
210
0
220
0
230
1
 70
8
 71
1
 72
4
 73
2
 74
0
 40
0
 40
0
 40
1
 40
1
 10
360.859
 20
123.562
 30
0
 10
346.859
 20
123.562
 30
0
  0
SPLINE
  5
BBB
330
A02
100
AcDbEntity
  8
View010
100
AcDbSpline
210
0
220
0
230
1
 70
8
 71
1
 72
4
 73
2
 74
0
 40
0
 40
0
 40
1
 40
1
 10
360.859
 20
137.562
 30
0
 10
360.859
 20
123.562
 30
0
  0
SPLINE
  5
BBC
330
A02
100
AcDbEntity
  8
View010
100
AcDbSpline
210
0
220
0
230
1
 70
8
 71
1
 72
4
 73
2
 74
0
 40
0
 40
0
 40
1
 40
1
 10
346.859
 20
123.562
 30
0
 10
346.859
 20
137.562
 30
0
  0
SPLINE
  5
BBD
330
A02
100
AcDbEntity
  8
View010
100
AcDbSpline
210
0
220
0
230
1
 70
8
 71
1
 72
4
 73
2
 74
0
 40
0
 40
0
 40
1
 40
1
 10
346.859
 20
137.562
 30
0
 10
360.859
 20
137.562
 30
0
  0
SPLINE
  5
BBE
330
A02
100
AcDbEntity
  8
View010
100
AcDbSpline
210
0
220
0
230
1
 70
8
 71
1
 72
4
 73
2
 74
0
 40
0
 40
0
 40
1
 40
1
 10
379.909
 20
123.562
 30
0
 10
365.909
 20
123.562
 30
0
  0
SPLINE
  5
BBF
330
A02
100
AcDbEntity
  8
View010
100
AcDbSpline
210
0
220
0
230
1
 70
8
 71
1
 72
4
 73
2
 74
0
 40
0
 40
0
 40
1
 40
1
 10
379.909
 20
137.562
 30
0
 10
379.909
 20
123.562
 30
0
  0
SPLINE
  5
BC0
330
A02
100
AcDbEntity
  8
View010
100
AcDbSpline
210
0
220
0
230
1
 70
8
 71
1
 72
4
 73
2
 74
0
 40
0
 40
0
 40
1
 40
1
 10
365.909
 20
123.562
 30
0
 10
365.909
 20
137.562
 30
0
  0
SPLINE
  5
BC1
330
A02
100
AcDbEntity
  8
View010
100
AcDbSpline
210
0
220
0
230
1
 70
8
 71
1
 72
4
 73
2
 74
0
 40
0
 40
0
 40
1
 40
1
 10
365.909
 20
137.562
 30
0
 10
379.909
 20
137.562
 30
0
  0
SPLINE
  5
BC2
330
A02
100
AcDbEntity
  8
View010
100
AcDbSpline
210
0
220
0
230
1
 70
8
 71
1
 72
4
 73
2
 74
0
 40
0
 40
0
 40
1
 40
1
 10
398.959
 20
123.562
 30
0
 10
384.958
 20
123.562
 30
0
  0
SPLINE
  5
BC3
330
A02
100
AcDbEntity
  8
View010
100
AcDbSpline
210
0
220
0
230
1
 70
8
 71
1
 72
4
 73
2
 74
0
 40
0
 40
0
 40
1
 40
1
 10
398.959
 20
137.562
 30
0
 10
398.959
 20
123.562
 30
0
  0
SPLINE
  5
BC4
330
A02
100
AcDbEntity
  8
View010
100
AcDbSpline
210
0
220
0
230
1
 70
8
 71
1
 72
4
 73
2
 74
0
 40
0
 40
0
 40
1
 40
1
 10
384.958
 20
123.562
 30
0
 10
384.958
 20
137.562
 30
0
  0
SPLINE
  5
BC5
330
A02
100
AcDbEntity
  8
View010
100
AcDbSpline
210
0
220
0
230
1
 70
8
 71
1
 72
4
 73
2
 74
0
 40
0
 40
0
 40
1
 40
1
 10
384.958
 20
137.562
 30
0
 10
398.959
 20
137.562
 30
0
  0
SPLINE
  5
BC6
330
A02
100
AcDbEntity
  8
View010
100
AcDbSpline
210
0
220
0
230
1
 70
8
 71
1
 72
4
 73
2
 74
0
 40
0
 40
0
 40
1
 40
1
 10
313.234
 20
142.612
 30
0
 10
299.234
 20
142.612
 30
0
  0
SPLINE
  5
BC7
330
A02
100
AcDbEntity
  8
View010
100
AcDbSpline
210
0
220
0
230
1
 70
8
 71
1
 72
4
 73
2
 74
0
 40
0
 40
0
 40
1
 40
1
 10
313.234
 20
156.612
 30
0
 10
313.234
 20
142.612
 30
0
  0
SPLINE
  5
BC8
330
A02
100
AcDbEntity
  8
View010
100
AcDbSpline
210
0
220
0
230
1
 70
8
 71
1
 72
4
 73
2
 74
0
 40
0
 40
0
 40
1
 40
1
 10
299.234
 20
142.612
 30
0
 10
299.234
 20
156.612
 30
0
  0
SPLINE
  5
BC9
330
A02
100
AcDbEntity
  8
View010
100
AcDbSpline
210
0
220
0
230
1
 70
8
 71
1
 72
4
 73
2
 74
0
 40
0
 40
0
 40
1
 40
1
 10
299.234
 20
156.612
 30
0
 10
313.234
 20
156.612
 30
0
  0
SPLINE
  5
BCA
330
A02
100
AcDbEntity
  8
View010
100
AcDbSpline
210
0
220
0
230
1
 70
8
 71
1
 72
4
 73
2
 74
0
 40
0
 40
0
 40
1
 40
1
 10
332.284
 20
142.612
 30
0
 10
318.284
 20
142.612
 30
0
  0
SPLINE
  5
BCB
330
A02
100
AcDbEntity
  8
View010
100
AcDbSpline
210
0
220
0
230
1
 70
8
 71
1
 72
4
 73
2
 74
0
 40
0
 40
0
 40
1
 40
1
 10
332.284
 20
156.612
 30
0
 10
332.284
 20
142.612
 30
0
  0
SPLINE
  5
BCC
330
A02
100
AcDbEntity
  8
View010
100
AcDbSpline
210
0
220
0
230
1
 70
8
 71
1
 72
4
 73
2
 74
0
 40
0
 40
0
 40
1
 40
1
 10
318.284
 20
142.612
 30
0
 10
318.284
 20
156.612
 30
0
  0
SPLINE
  5
BCD
330
A02
100
AcDbEntity
  8
View010
100
AcDbSpline
210
0
220
0
230
1
 70
8
 71
1
 72
4
 73
2
 74
0
 40
0
 40
0
 40
1
 40
1
 10
318.284
 20
156.612
 30
0
 10
332.284
 20
156.612
 30
0
  0
SPLINE
  5
BCE
330
A02
100
AcDbEntity
  8
View010
100
AcDbSpline
210
0
220
0
230
1
 70
8
 71
1
 72
4
 73
2
 74
0
 40
0
 40
0
 40
1
 40
1
 10
351.334
 20
142.612
 30
0
 10
337.334
 20
142.612
 30
0
  0
SPLINE
  5
BCF
330
A02
100
AcDbEntity
  8
View010
100
AcDbSpline
210
0
220
0
230
1
 70
8
 71
1
 72
4
 73
2
 74
0
 40
0
 40
0
 40
1
 40
1
 10
351.334
 20
156.612
 30
0
 10
351.334
 20
142.612
 30
0
  0
SPLINE
  5
BD0
330
A02
100
AcDbEntity
  8
View010
100
AcDbSpline
210
0
220
0
230
1
 70
8
 71
1
 72
4
 73
2
 74
0
 40
0
 40
0
 40
1
 40
1
 10
337.334
 20
142.612
 30
0
 10
337.334
 20
156.612
 30
0
  0
SPLINE
  5
BD1
330
A02
100
AcDbEntity
  8
View010
100
AcDbSpline
210
0
220
0
230
1
 70
8
 71
1
 72
4
 73
2
 74
0
 40
0
 40
0
 40
1
 40
1
 10
337.334
 20
156.612
 30
0
 10
351.334
 20
156.612
 30
0
  0
SPLINE
  5
BD2
330
A02
100
AcDbEntity
  8
View010
100
AcDbSpline
210
0
220
0
230
1
 70
8
 71
1
 72
4
 73
2
 74
0
 40
0
 40
0
 40
1
 40
1
 10
370.383
 20
142.612
 30
0
 10
356.384
 20
142.612
 30
0
  0
SPLINE
  5
BD3
330
A02
100
AcDbEntity
  8
View010
100
AcDbSpline
210
0
220
0
230
1
 70
8
 71
1
 72
4
 73
2
 74
0
 40
0
 40
0
 40
1
 40
1
 10
370.383
 20
156.612
 30
0
 10
370.383
 20
142.612
 30
0
  0
SPLINE
  5
BD4
330
A02
100
AcDbEntity
  8
View010
100
AcDbSpline
210
0
220
0
230
1
 70
8
 71
1
 72
4
 73
2
 74
0
 40
0
 40
0
 40
1
 40
1
 10
356.384
 20
142.612
 30
0
 10
356.384
 20
156.612
 30
0
  0
SPLINE
  5
BD5
330
A02
100
AcDbEntity
  8
View010
100
AcDbSpline
210
0
220
0
230
1
 70
8
 71
1
 72
4
 73
2
 74
0
 40
0
 40
0
 40
1
 40
1
 10
356.384
 20
156.612
 30
0
 10
370.383
 20
156.612
 30
0
  0
SPLINE
  5
BD6
330
A02
100
AcDbEntity
  8
View010
100
AcDbSpline
210
0
220
0
230
1
 70
8
 71
1
 72
4
 73
2
 74
0
 40
0
 40
0
 40
1
 40
1
 10
389.434
 20
142.612
 30
0
 10
375.433
 20
142.612
 30
0
  0
SPLINE
  5
BD7
330
A02
100
AcDbEntity
  8
View010
100
AcDbSpline
210
0
220
0
230
1
 70
8
 71
1
 72
4
 73
2
 74
0
 40
0
 40
0
 40
1
 40
1
 10
389.434
 20
156.612
 30
0
 10
389.434
 20
142.612
 30
0
  0
SPLINE
  5
BD8
330
A02
100
AcDbEntity
  8
View010
100
AcDbSpline
210
0
220
0
230
1
 70
8
 71
1
 72
4
 73
2
 74
0
 40
0
 40
0
 40
1
 40
1
 10
375.433
 20
142.612
 30
0
 10
375.433
 20
156.612
 30
0
  0
SPLINE
  5
BD9
330
A02
100
AcDbEntity
  8
View010
100
AcDbSpline
210
0
220
0
230
1
 70
8
 71
1
 72
4
 73
2
 74
0
 40
0
 40
0
 40
1
 40
1
 10
375.433
 20
156.612
 30
0
 10
389.434
 20
156.612
 30
0
  0
SPLINE
  5
BDA
330
A02
100
AcDbEntity
  8
View010
100
AcDbSpline
210
0
220
0
230
1
 70
8
 71
1
 72
4
 73
2
 74
0
 40
0
 40
0
 40
1
 40
1
 10
418.009
 20
123.562
 30
0
 10
404.008
 20
123.562
 30
0
  0
SPLINE
  5
BDB
330
A02
100
AcDbEntity
  8
View010
100
AcDbSpline
210
0
220
0
230
1
 70
8
 71
1
 72
4
 73
2
 74
0
 40
0
 40
0
 40
1
 40
1
 10
418.009
 20
137.562
 30
0
 10
418.009
 20
123.562
 30
0
  0
SPLINE
  5
BDC
330
A02
100
AcDbEntity
  8
View010
100
AcDbSpline
210
0
220
0
230
1
 70
8
 71
1
 72
4
 73
2
 74
0
 40
0
 40
0
 40
1
 40
1
 10
404.008
 20
123.562
 30
0
 10
404.008
 20
137.562
 30
0
  0
SPLINE
  5
BDD
330
A02
100
AcDbEntity
  8
View010
100
AcDbSpline
210
0
220
0
230
1
 70
8
 71
1
 72
4
 73
2
 74
0
 40
0
 40
0
 40
1
 40
1
 10
404.008
 20
137.562
 30
0
 10
418.009
 20
137.562
 30
0
  0
SPLINE
  5
BDE
330
A02
100
AcDbEntity
  8
View010
100
AcDbSpline
210
0
220
0
230
1
 70
8
 71
1
 72
4
 73
2
 74
0
 40
0
 40
0
 40
1
 40
1
 10
441.822
 20
123.562
 30
0
 10
427.82
 20
123.562
 30
0
  0
SPLINE
  5
BDF
330
A02
100
AcDbEntity
  8
View010
100
AcDbSpline
210
0
220
0
230
1
 70
8
 71
1
 72
4
 73
2
 74
0
 40
0
 40
0
 40
1
 40
1
 10
441.822
 20
137.562
 30
0
 10
441.822
 20
123.562
 30
0
  0
SPLINE
  5
BE0
330
A02
100
AcDbEntity
  8
View010
100
AcDbSpline
210
0
220
0
230
1
 70
8
 71
1
 72
4
 73
2
 74
0
 40
0
 40
0
 40
1
 40
1
 10
427.82
 20
123.562
 30
0
 10
427.82
 20
137.562
 30
0
  0
SPLINE
  5
BE1
330
A02
100
AcDbEntity
  8
View010
100
AcDbSpline
210
0
220
0
230
1
 70
8
 71
1
 72
4
 73
2
 74
0
 40
0
 40
0
 40
1
 40
1
 10
427.82
 20
137.562
 30
0
 10
441.822
 20
137.562
 30
0
  0
SPLINE
  5
BE2
330
A02
100
AcDbEntity
  8
View010
100
AcDbSpline
210
0
220
0
230
1
 70
8
 71
1
 72
4
 73
2
 74
0
 40
0
 40
0
 40
1
 40
1
 10
475.159
 20
123.562
 30
0
 10
461.158
 20
123.562
 30
0
  0
SPLINE
  5
BE3
330
A02
100
AcDbEntity
  8
View010
100
AcDbSpline
210
0
220
0
230
1
 70
8
 71
1
 72
4
 73
2
 74
0
 40
0
 40
0
 40
1
 40
1
 10
475.159
 20
137.562
 30
0
 10
475.159
 20
123.562
 30
0
  0
SPLINE
  5
BE4
330
A02
100
AcDbEntity
  8
View010
100
AcDbSpline
210
0
220
0
230
1
 70
8
 71
1
 72
4
 73
2
 74
0
 40
0
 40
0
 40
1
 40
1
 10
461.158
 20
123.562
 30
0
 10
461.158
 20
137.562
 30
0
  0
SPLINE
  5
BE5
330
A02
100
AcDbEntity
  8
View010
100
AcDbSpline
210
0
220
0
230
1
 70
8
 71
1
 72
4
 73
2
 74
0
 40
0
 40
0
 40
1
 40
1
 10
461.158
 20
137.562
 30
0
 10
475.159
 20
137.562
 30
0
  0
SPLINE
  5
BE6
330
A02
100
AcDbEntity
  8
View010
100
AcDbSpline
210
0
220
0
230
1
 70
8
 71
1
 72
4
 73
2
 74
0
 40
0
 40
0
 40
1
 40
1
 10
408.484
 20
142.612
 30
0
 10
394.483
 20
142.612
 30
0
  0
SPLINE
  5
BE7
330
A02
100
AcDbEntity
  8
View010
100
AcDbSpline
210
0
220
0
230
1
 70
8
 71
1
 72
4
 73
2
 74
0
 40
0
 40
0
 40
1
 40
1
 10
408.484
 20
156.612
 30
0
 10
408.484
 20
142.612
 30
0
  0
SPLINE
  5
BE8
330
A02
100
AcDbEntity
  8
View010
100
AcDbSpline
210
0
220
0
230
1
 70
8
 71
1
 72
4
 73
2
 74
0
 40
0
 40
0
 40
1
 40
1
 10
394.483
 20
142.612
 30
0
 10
394.483
 20
156.612
 30
0
  0
SPLINE
  5
BE9
330
A02
100
AcDbEntity
  8
View010
100
AcDbSpline
210
0
220
0
230
1
 70
8
 71
1
 72
4
 73
2
 74
0
 40
0
 40
0
 40
1
 40
1
 10
394.483
 20
156.612
 30
0
 10
408.484
 20
156.612
 30
0
  0
SPLINE
  5
BEA
330
A02
100
AcDbEntity
  8
View010
100
AcDbSpline
210
0
220
0
230
1
 70
8
 71
1
 72
4
 73
2
 74
0
 40
0
 40
0
 40
1
 40
1
 10
421.534
 20
151.912
 30
0
 10
423.058
 20
151.912
 30
0
  0
SPLINE
  5
BEB
330
A02
100
AcDbEntity
  8
View010
100
AcDbSpline
210
0
220
0
230
1
 70
8
 71
1
 72
4
 73
2
 74
0
 40
0
 40
0
 40
1
 40
1
 10
421.534
 20
156.062
 30
0
 10
421.534
 20
151.912
 30
0
  0
SPLINE
  5
BEC
330
A02
100
AcDbEntity
  8
View010
100
AcDbSpline
210
0
220
0
230
1
 70
8
 71
1
 72
4
 73
2
 74
0
 40
0
 40
0
 40
1
 40
1
 10
423.058
 20
151.912
 30
0
 10
423.058
 20
156.612
 30
0
  0
SPLINE
  5
BED
330
A02
100
AcDbEntity
  8
View010
100
AcDbSpline
210
0
220
0
230
1
 70
8
 71
1
 72
4
 73
2
 74
0
 40
0
 40
0
 40
1
 40
1
 10
419.809
 20
156.062
 30
0
 10
421.534
 20
156.062
 30
0
  0
SPLINE
  5
BEE
330
A02
100
AcDbEntity
  8
View010
100
AcDbSpline
210
0
220
0
230
1
 70
8
 71
1
 72
4
 73
2
 74
0
 40
0
 40
0
 40
1
 40
1
 10
423.058
 20
156.612
 30
0
 10
437.059
 20
156.612
 30
0
  0
SPLINE
  5
BEF
330
A02
100
AcDbEntity
  8
View010
100
AcDbSpline
210
0
220
0
230
1
 70
8
 71
1
 72
4
 73
2
 74
0
 40
0
 40
0
 40
1
 40
1
 10
416.509
 20
156.062
 30
0
 10
419.809
 20
156.062
 30
0
  0
SPLINE
  5
BF0
330
A02
100
AcDbEntity
  8
View010
100
AcDbSpline
210
0
220
0
230
1
 70
8
 71
1
 72
4
 73
2
 74
0
 40
0
 40
0
 40
1
 40
1
 10
437.059
 20
156.612
 30
0
 10
437.059
 20
151.912
 30
0
  0
SPLINE
  5
BF1
330
A02
100
AcDbEntity
  8
View010
100
AcDbSpline
210
0
220
0
230
1
 70
8
 71
1
 72
4
 73
2
 74
0
 40
0
 40
0
 40
1
 40
1
 10
414.784
 20
156.062
 30
0
 10
416.509
 20
156.062
 30
0
  0
SPLINE
  5
BF2
330
A02
100
AcDbEntity
  8
View010
100
AcDbSpline
210
0
220
0
230
1
 70
8
 71
1
 72
4
 73
2
 74
0
 40
0
 40
0
 40
1
 40
1
 10
437.059
 20
151.912
 30
0
 10
438.583
 20
151.912
 30
0
  0
SPLINE
  5
BF3
330
A02
100
AcDbEntity
  8
View010
100
AcDbSpline
210
0
220
0
230
1
 70
8
 71
1
 72
4
 73
2
 74
0
 40
0
 40
0
 40
1
 40
1
 10
414.784
 20
151.912
 30
0
 10
414.784
 20
156.062
 30
0
  0
SPLINE
  5
BF4
330
A02
100
AcDbEntity
  8
View010
100
AcDbSpline
210
0
220
0
230
1
 70
8
 71
1
 72
4
 73
2
 74
0
 40
0
 40
0
 40
1
 40
1
 10
438.583
 20
151.912
 30
0
 10
438.583
 20
156.062
 30
0
  0
SPLINE
  5
BF5
330
A02
100
AcDbEntity
  8
View010
100
AcDbSpline
210
0
220
0
230
1
 70
8
 71
1
 72
4
 73
2
 74
0
 40
0
 40
0
 40
1
 40
1
 10
414.784
 20
149.112
 30
0
 10
414.784
 20
151.912
 30
0
  0
SPLINE
  5
BF6
330
A02
100
AcDbEntity
  8
View010
100
AcDbSpline
210
0
220
0
230
1
 70
8
 71
1
 72
4
 73
2
 74
0
 40
0
 40
0
 40
1
 40
1
 10
438.583
 20
156.062
 30
0
 10
440.309
 20
156.062
 30
0
  0
SPLINE
  5
BF7
330
A02
100
AcDbEntity
  8
View010
100
AcDbSpline
210
0
220
0
230
1
 70
8
 71
1
 72
4
 73
2
 74
0
 40
0
 40
0
 40
1
 40
1
 10
414.784
 20
140.987
 30
0
 10
414.784
 20
149.112
 30
0
  0
SPLINE
  5
BF8
330
A02
100
AcDbEntity
  8
View010
100
AcDbSpline
210
0
220
0
230
1
 70
8
 71
1
 72
4
 73
2
 74
0
 40
0
 40
0
 40
1
 40
1
 10
440.309
 20
156.062
 30
0
 10
443.608
 20
156.062
 30
0
  0
SPLINE
  5
BF9
330
A02
100
AcDbEntity
  8
View010
100
AcDbSpline
210
0
220
0
230
1
 70
8
 71
1
 72
4
 73
2
 74
0
 40
0
 40
0
 40
1
 40
1
 10
416.509
 20
140.987
 30
0
 10
414.784
 20
140.987
 30
0
  0
SPLINE
  5
BFA
330
A02
100
AcDbEntity
  8
View010
100
AcDbSpline
210
0
220
0
230
1
 70
8
 71
1
 72
4
 73
2
 74
0
 40
0
 40
0
 40
1
 40
1
 10
443.608
 20
156.062
 30
0
 10
445.333
 20
156.062
 30
0
  0
SPLINE
  5
BFB
330
A02
100
AcDbEntity
  8
View010
100
AcDbSpline
210
0
220
0
230
1
 70
8
 71
1
 72
4
 73
2
 74
0
 40
0
 40
0
 40
1
 40
1
 10
419.809
 20
140.987
 30
0
 10
416.509
 20
140.987
 30
0
  0
SPLINE
  5
BFC
330
A02
100
AcDbEntity
  8
View010
100
AcDbSpline
210
0
220
0
230
1
 70
8
 71
1
 72
4
 73
2
 74
0
 40
0
 40
0
 40
1
 40
1
 10
445.333
 20
156.062
 30
0
 10
445.333
 20
151.912
 30
0
  0
SPLINE
  5
BFD
330
A02
100
AcDbEntity
  8
View010
100
AcDbSpline
210
0
220
0
230
1
 70
8
 71
1
 72
4
 73
2
 74
0
 40
0
 40
0
 40
1
 40
1
 10
421.534
 20
140.987
 30
0
 10
419.809
 20
140.987
 30
0
  0
SPLINE
  5
BFE
330
A02
100
AcDbEntity
  8
View010
100
AcDbSpline
210
0
220
0
230
1
 70
8
 71
1
 72
4
 73
2
 74
0
 40
0
 40
0
 40
1
 40
1
 10
445.333
 20
151.912
 30
0
 10
445.333
 20
149.112
 30
0
  0
SPLINE
  5
BFF
330
A02
100
AcDbEntity
  8
View010
100
AcDbSpline
210
0
220
0
230
1
 70
8
 71
1
 72
4
 73
2
 74
0
 40
0
 40
0
 40
1
 40
1
 10
421.534
 20
147.312
 30
0
 10
421.534
 20
140.987
 30
0
  0
SPLINE
  5
C00
330
A02
100
AcDbEntity
  8
View010
100
AcDbSpline
210
0
220
0
230
1
 70
8
 71
1
 72
4
 73
2
 74
0
 40
0
 40
0
 40
1
 40
1
 10
445.333
 20
149.112
 30
0
 10
445.304
 20
141.119
 30
0
  0
SPLINE
  5
C01
330
A02
100
AcDbEntity
  8
View010
100
AcDbSpline
210
0
220
0
230
1
 70
8
 71
1
 72
4
 73
2
 74
0
 40
0
 40
0
 40
1
 40
1
 10
423.058
 20
147.312
 30
0
 10
421.534
 20
147.312
 30
0
  0
SPLINE
  5
C02
330
A02
100
AcDbEntity
  8
View010
100
AcDbSpline
210
0
220
0
230
1
 70
8
 71
1
 72
4
 73
2
 74
0
 40
0
 40
0
 40
1
 40
1
 10
445.304
 20
141.119
 30
0
 10
443.579
 20
141.119
 30
0
  0
SPLINE
  5
C03
330
A02
100
AcDbEntity
  8
View010
100
AcDbSpline
210
0
220
0
230
1
 70
8
 71
1
 72
4
 73
2
 74
0
 40
0
 40
0
 40
1
 40
1
 10
423.058
 20
142.612
 30
0
 10
423.058
 20
147.312
 30
0
  0
SPLINE
  5
C04
330
A02
100
AcDbEntity
  8
View010
100
AcDbSpline
210
0
220
0
230
1
 70
8
 71
1
 72
4
 73
2
 74
0
 40
0
 40
0
 40
1
 40
1
 10
443.579
 20
141.119
 30
0
 10
440.279
 20
141.119
 30
0
  0
SPLINE
  5
C05
330
A02
100
AcDbEntity
  8
View010
100
AcDbSpline
210
0
220
0
230
1
 70
8
 71
1
 72
4
 73
2
 74
0
 40
0
 40
0
 40
1
 40
1
 10
437.059
 20
142.612
 30
0
 10
423.058
 20
142.612
 30
0
  0
SPLINE
  5
C06
330
A02
100
AcDbEntity
  8
View010
100
AcDbSpline
210
0
220
0
230
1
 70
8
 71
1
 72
4
 73
2
 74
0
 40
0
 40
0
 40
1
 40
1
 10
440.279
 20
141.119
 30
0
 10
438.554
 20
141.119
 30
0
  0
SPLINE
  5
C07
330
A02
100
AcDbEntity
  8
View010
100
AcDbSpline
210
0
220
0
230
1
 70
8
 71
1
 72
4
 73
2
 74
0
 40
0
 40
0
 40
1
 40
1
 10
437.059
 20
147.312
 30
0
 10
437.059
 20
142.612
 30
0
  0
SPLINE
  5
C08
330
A02
100
AcDbEntity
  8
View010
100
AcDbSpline
210
0
220
0
230
1
 70
8
 71
1
 72
4
 73
2
 74
0
 40
0
 40
0
 40
1
 40
1
 10
438.554
 20
141.119
 30
0
 10
438.583
 20
147.312
 30
0
  0
SPLINE
  5
C09
330
A02
100
AcDbEntity
  8
View010
100
AcDbSpline
210
0
220
0
230
1
 70
8
 71
1
 72
4
 73
2
 74
0
 40
0
 40
0
 40
1
 40
1
 10
438.583
 20
147.312
 30
0
 10
437.059
 20
147.312
 30
0
  0
SPLINE
  5
C0A
330
A02
100
AcDbEntity
  8
View010
100
AcDbSpline
210
0
220
0
230
1
 70
8
 71
1
 72
4
 73
2
 74
0
 40
0
 40
0
 40
1
 40
1
 10
475.159
 20
142.612
 30
0
 10
461.158
 20
142.612
 30
0
  0
SPLINE
  5
C0B
330
A02
100
AcDbEntity
  8
View010
100
AcDbSpline
210
0
220
0
230
1
 70
8
 71
1
 72
4
 73
2
 74
0
 40
0
 40
0
 40
1
 40
1
 10
475.159
 20
156.612
 30
0
 10
475.159
 20
142.612
 30
0
  0
SPLINE
  5
C0C
330
A02
100
AcDbEntity
  8
View010
100
AcDbSpline
210
0
220
0
230
1
 70
8
 71
1
 72
4
 73
2
 74
0
 40
0
 40
0
 40
1
 40
1
 10
461.158
 20
142.612
 30
0
 10
461.158
 20
156.612
 30
0
  0
SPLINE
  5
C0D
330
A02
100
AcDbEntity
  8
View010
100
AcDbSpline
210
0
220
0
230
1
 70
8
 71
1
 72
4
 73
2
 74
0
 40
0
 40
0
 40
1
 40
1
 10
461.158
 20
156.612
 30
0
 10
475.159
 20
156.612
 30
0
  0
SPLINE
  5
C0E
330
A02
100
AcDbEntity
  8
View010
100
AcDbSpline
210
0
220
0
230
1
 70
8
 71
1
 72
4
 73
2
 74
0
 40
0
 40
0
 40
1
 40
1
 10
303.709
 20
166.424
 30
0
 10
289.709
 20
166.424
 30
0
  0
SPLINE
  5
C0F
330
A02
100
AcDbEntity
  8
View010
100
AcDbSpline
210
0
220
0
230
1
 70
8
 71
1
 72
4
 73
2
 74
0
 40
0
 40
0
 40
1
 40
1
 10
303.709
 20
180.424
 30
0
 10
303.709
 20
166.424
 30
0
  0
SPLINE
  5
C10
330
A02
100
AcDbEntity
  8
View010
100
AcDbSpline
210
0
220
0
230
1
 70
8
 71
1
 72
4
 73
2
 74
0
 40
0
 40
0
 40
1
 40
1
 10
289.709
 20
166.424
 30
0
 10
289.709
 20
180.424
 30
0
  0
SPLINE
  5
C11
330
A02
100
AcDbEntity
  8
View010
100
AcDbSpline
210
0
220
0
230
1
 70
8
 71
1
 72
4
 73
2
 74
0
 40
0
 40
0
 40
1
 40
1
 10
289.709
 20
180.424
 30
0
 10
303.709
 20
180.424
 30
0
  0
SPLINE
  5
C12
330
A02
100
AcDbEntity
  8
View010
100
AcDbSpline
210
0
220
0
230
1
 70
8
 71
1
 72
4
 73
2
 74
0
 40
0
 40
0
 40
1
 40
1
 10
322.759
 20
166.424
 30
0
 10
308.759
 20
166.424
 30
0
  0
SPLINE
  5
C13
330
A02
100
AcDbEntity
  8
View010
100
AcDbSpline
210
0
220
0
230
1
 70
8
 71
1
 72
4
 73
2
 74
0
 40
0
 40
0
 40
1
 40
1
 10
322.759
 20
180.424
 30
0
 10
322.759
 20
166.424
 30
0
  0
SPLINE
  5
C14
330
A02
100
AcDbEntity
  8
View010
100
AcDbSpline
210
0
220
0
230
1
 70
8
 71
1
 72
4
 73
2
 74
0
 40
0
 40
0
 40
1
 40
1
 10
308.759
 20
166.424
 30
0
 10
308.759
 20
180.424
 30
0
  0
SPLINE
  5
C15
330
A02
100
AcDbEntity
  8
View010
100
AcDbSpline
210
0
220
0
230
1
 70
8
 71
1
 72
4
 73
2
 74
0
 40
0
 40
0
 40
1
 40
1
 10
308.759
 20
180.424
 30
0
 10
322.759
 20
180.424
 30
0
  0
SPLINE
  5
C16
330
A02
100
AcDbEntity
  8
View010
100
AcDbSpline
210
0
220
0
230
1
 70
8
 71
1
 72
4
 73
2
 74
0
 40
0
 40
0
 40
1
 40
1
 10
341.809
 20
166.424
 30
0
 10
327.809
 20
166.424
 30
0
  0
SPLINE
  5
C17
330
A02
100
AcDbEntity
  8
View010
100
AcDbSpline
210
0
220
0
230
1
 70
8
 71
1
 72
4
 73
2
 74
0
 40
0
 40
0
 40
1
 40
1
 10
341.809
 20
180.424
 30
0
 10
341.809
 20
166.424
 30
0
  0
SPLINE
  5
C18
330
A02
100
AcDbEntity
  8
View010
100
AcDbSpline
210
0
220
0
230
1
 70
8
 71
1
 72
4
 73
2
 74
0
 40
0
 40
0
 40
1
 40
1
 10
327.809
 20
166.424
 30
0
 10
327.809
 20
180.424
 30
0
  0
SPLINE
  5
C19
330
A02
100
AcDbEntity
  8
View010
100
AcDbSpline
210
0
220
0
230
1
 70
8
 71
1
 72
4
 73
2
 74
0
 40
0
 40
0
 40
1
 40
1
 10
327.809
 20
180.424
 30
0
 10
341.809
 20
180.424
 30
0
  0
SPLINE
  5
C1A
330
A02
100
AcDbEntity
  8
View010
100
AcDbSpline
210
0
220
0
230
1
 70
8
 71
1
 72
4
 73
2
 74
0
 40
0
 40
0
 40
1
 40
1
 10
365.621
 20
166.424
 30
0
 10
351.621
 20
166.424
 30
0
  0
SPLINE
  5
C1B
330
A02
100
AcDbEntity
  8
View010
100
AcDbSpline
210
0
220
0
230
1
 70
8
 71
1
 72
4
 73
2
 74
0
 40
0
 40
0
 40
1
 40
1
 10
365.621
 20
180.424
 30
0
 10
365.621
 20
166.424
 30
0
  0
SPLINE
  5
C1C
330
A02
100
AcDbEntity
  8
View010
100
AcDbSpline
210
0
220
0
230
1
 70
8
 71
1
 72
4
 73
2
 74
0
 40
0
 40
0
 40
1
 40
1
 10
351.621
 20
166.424
 30
0
 10
351.621
 20
180.424
 30
0
  0
SPLINE
  5
C1D
330
A02
100
AcDbEntity
  8
View010
100
AcDbSpline
210
0
220
0
230
1
 70
8
 71
1
 72
4
 73
2
 74
0
 40
0
 40
0
 40
1
 40
1
 10
351.621
 20
180.424
 30
0
 10
365.621
 20
180.424
 30
0
  0
SPLINE
  5
C1E
330
A02
100
AcDbEntity
  8
View010
100
AcDbSpline
210
0
220
0
230
1
 70
8
 71
1
 72
4
 73
2
 74
0
 40
0
 40
0
 40
1
 40
1
 10
384.672
 20
166.424
 30
0
 10
370.671
 20
166.424
 30
0
  0
SPLINE
  5
C1F
330
A02
100
AcDbEntity
  8
View010
100
AcDbSpline
210
0
220
0
230
1
 70
8
 71
1
 72
4
 73
2
 74
0
 40
0
 40
0
 40
1
 40
1
 10
384.672
 20
180.424
 30
0
 10
384.672
 20
166.424
 30
0
  0
SPLINE
  5
C20
330
A02
100
AcDbEntity
  8
View010
100
AcDbSpline
210
0
220
0
230
1
 70
8
 71
1
 72
4
 73
2
 74
0
 40
0
 40
0
 40
1
 40
1
 10
370.671
 20
166.424
 30
0
 10
370.671
 20
180.424
 30
0
  0
SPLINE
  5
C21
330
A02
100
AcDbEntity
  8
View010
100
AcDbSpline
210
0
220
0
230
1
 70
8
 71
1
 72
4
 73
2
 74
0
 40
0
 40
0
 40
1
 40
1
 10
370.671
 20
180.424
 30
0
 10
384.672
 20
180.424
 30
0
  0
CIRCLE
  5
C22
330
A02
100
AcDbEntity
  8
View010
100
AcDbCircle
 10
335.142
 20
202.123
 40
1.6
  0
SPLINE
  5
C23
330
A02
100
AcDbEntity
  8
View010
100
AcDbSpline
210
0
220
0
230
1
 70
8
 71
1
 72
4
 73
2
 74
0
 40
0
 40
0
 40
1
 40
1
 10
403.722
 20
166.424
 30
0
 10
389.72
 20
166.424
 30
0
  0
SPLINE
  5
C24
330
A02
100
AcDbEntity
  8
View010
100
AcDbSpline
210
0
220
0
230
1
 70
8
 71
1
 72
4
 73
2
 74
0
 40
0
 40
0
 40
1
 40
1
 10
403.722
 20
180.424
 30
0
 10
403.722
 20
166.424
 30
0
  0
SPLINE
  5
C25
330
A02
100
AcDbEntity
  8
View010
100
AcDbSpline
210
0
220
0
230
1
 70
8
 71
1
 72
4
 73
2
 74
0
 40
0
 40
0
 40
1
 40
1
 10
389.72
 20
166.424
 30
0
 10
389.72
 20
180.424
 30
0
  0
SPLINE
  5
C26
330
A02
100
AcDbEntity
  8
View010
100
AcDbSpline
210
0
220
0
230
1
 70
8
 71
1
 72
4
 73
2
 74
0
 40
0
 40
0
 40
1
 40
1
 10
389.72
 20
180.424
 30
0
 10
403.722
 20
180.424
 30
0
  0
SPLINE
  5
C27
330
A02
100
AcDbEntity
  8
View010
100
AcDbSpline
210
0
220
0
230
1
 70
8
 71
1
 72
4
 73
2
 74
0
 40
0
 40
0
 40
1
 40
1
 10
422.772
 20
166.424
 30
0
 10
408.77
 20
166.424
 30
0
  0
SPLINE
  5
C28
330
A02
100
AcDbEntity
  8
View010
100
AcDbSpline
210
0
220
0
230
1
 70
8
 71
1
 72
4
 73
2
 74
0
 40
0
 40
0
 40
1
 40
1
 10
422.772
 20
180.424
 30
0
 10
422.772
 20
166.424
 30
0
  0
SPLINE
  5
C29
330
A02
100
AcDbEntity
  8
View010
100
AcDbSpline
210
0
220
0
230
1
 70
8
 71
1
 72
4
 73
2
 74
0
 40
0
 40
0
 40
1
 40
1
 10
408.77
 20
166.424
 30
0
 10
408.77
 20
180.424
 30
0
  0
SPLINE
  5
C2A
330
A02
100
AcDbEntity
  8
View010
100
AcDbSpline
210
0
220
0
230
1
 70
8
 71
1
 72
4
 73
2
 74
0
 40
0
 40
0
 40
1
 40
1
 10
408.77
 20
180.424
 30
0
 10
422.772
 20
180.424
 30
0
  0
SPLINE
  5
C2B
330
A02
100
AcDbEntity
  8
View010
100
AcDbSpline
210
0
220
0
230
1
 70
8
 71
1
 72
4
 73
2
 74
0
 40
0
 40
0
 40
1
 40
1
 10
446.584
 20
166.424
 30
0
 10
432.583
 20
166.424
 30
0
  0
SPLINE
  5
C2C
330
A02
100
AcDbEntity
  8
View010
100
AcDbSpline
210
0
220
0
230
1
 70
8
 71
1
 72
4
 73
2
 74
0
 40
0
 40
0
 40
1
 40
1
 10
446.584
 20
180.424
 30
0
 10
446.584
 20
166.424
 30
0
  0
SPLINE
  5
C2D
330
A02
100
AcDbEntity
  8
View010
100
AcDbSpline
210
0
220
0
230
1
 70
8
 71
1
 72
4
 73
2
 74
0
 40
0
 40
0
 40
1
 40
1
 10
432.583
 20
166.424
 30
0
 10
432.583
 20
180.424
 30
0
  0
SPLINE
  5
C2E
330
A02
100
AcDbEntity
  8
View010
100
AcDbSpline
210
0
220
0
230
1
 70
8
 71
1
 72
4
 73
2
 74
0
 40
0
 40
0
 40
1
 40
1
 10
432.583
 20
180.424
 30
0
 10
446.584
 20
180.424
 30
0
  0
SPLINE
  5
C2F
330
A02
100
AcDbEntity
  8
View010
100
AcDbSpline
210
0
220
0
230
1
 70
8
 71
1
 72
4
 73
2
 74
0
 40
0
 40
0
 40
1
 40
1
 10
475.159
 20
166.424
 30
0
 10
461.158
 20
166.424
 30
0
  0
SPLINE
  5
C30
330
A02
100
AcDbEntity
  8
View010
100
AcDbSpline
210
0
220
0
230
1
 70
8
 71
1
 72
4
 73
2
 74
0
 40
0
 40
0
 40
1
 40
1
 10
475.159
 20
180.424
 30
0
 10
475.159
 20
166.424
 30
0
  0
SPLINE
  5
C31
330
A02
100
AcDbEntity
  8
View010
100
AcDbSpline
210
0
220
0
230
1
 70
8
 71
1
 72
4
 73
2
 74
0
 40
0
 40
0
 40
1
 40
1
 10
461.158
 20
166.424
 30
0
 10
461.158
 20
180.424
 30
0
  0
SPLINE
  5
C32
330
A02
100
AcDbEntity
  8
View010
100
AcDbSpline
210
0
220
0
230
1
 70
8
 71
1
 72
4
 73
2
 74
0
 40
0
 40
0
 40
1
 40
1
 10
461.158
 20
180.424
 30
0
 10
475.159
 20
180.424
 30
0
  0
CIRCLE
  5
C33
330
A02
100
AcDbEntity
  8
View010
100
AcDbCircle
 10
412.454
 20
202.123
 40
1.6
  0
CIRCLE
  5
C34
330
A02
100
AcDbEntity
  8
View010
100
AcDbCircle
 10
489.766
 20
202.123
 40
1.6
  0
ENDSEC
  0
SECTION
  2
OBJECTS
  0
DICTIONARY
  5
F000
330
0
100
AcDbDictionary
  3
ACAD_GROUP
350
F001
  0
DICTIONARY
  5
F001
330
F000
100
AcDbDictionary
  0
ENDSEC
  0
EOF