999
FreeCAD v0.20 29177 +426 (Git)
  0
SECTION
  2
HEADER
  9
$ACADVER
  1
AC1014
  9
$ACADMAINTVER
 70
     9
  9
$DWGCODEPAGE
  3
ANSI_1252
  9
$TEXTSTYLE
  7
STANDARD
  9
$DIMSTYLE
  2
STANDARD
  9
$DIMTXSTY
  7
STANDARD
  9
$CMLSTYLE
  2
STANDARD
  9
$LUNITS
 70
2
  9
$INSUNITS
 70
4
  9
$PEXTMAX
 10
50
 20
50
 30
50
  9
$PEXTMIN
 10
0
 20
0
 30
0
  9
$HANDSEED
  5
FFFF
  0
ENDSEC
  0
SECTION
  2
CLASSES
  0
CLASS
  1
ACDBDICTIONARYWDFLT
  2
AcDbDictionaryWithDefault
  3
ObjectDBX Classes
 90
        0
280
     0
281
     0
  0
CLASS
  1
XRECORD
  2
AcDbXrecord
  3
ObjectDBX Classes
 90
        0
280
     0
281
     0
  0
CLASS
  1
LWPOLYLINE
  2
AcDbPolyline
  3
ObjectDBX Classes
 90
        0
280
     0
281
     1
  0
ENDSEC
  0
SECTION
  2
TABLES
  0
TABLE
  2
VPORT
  5
20
330
0
100
AcDbSymbolTable
 70
     1
  0
VPORT
  5
21
330
20
100
AcDbSymbolTableRecord
100
AcDbViewportTableRecord
  2
*ACTIVE
 70
     0
  0
ENDTAB
  0
TABLE
  2
LTYPE
  5
22
330
0
100
AcDbSymbolTable
 70
     1
  0
LTYPE
  5
23
330
21
100
AcDbSymbolTableRecord
100
AcDbLinetypeTableRecord
  2
BYBLOCK
 70
     0
  3

 72
    65
 73
     0
 40
0.0
  0
LTYPE
  5
24
330
21
100
AcDbSymbolTableRecord
100
AcDbLinetypeTableRecord
  2
BYLAYER
 70
     0
  3

 72
    65
 73
     0
 40
0.0
  0
LTYPE
  5
25
330
21
100
AcDbSymbolTableRecord
100
AcDbLinetypeTableRecord
  2
CONTINUOUS
 70
     0
  3
Solid line
 72
    65
 73
     0
 40
0.0
  0
ENDTAB
  0
TABLE
  2
LAYER
  5
A57
330
0
100
AcDbSymbolTable
 70
2
  0
LAYER
  5
A58
330
A57
100
AcDbSymbolTableRecord
100
AcDbLayerTableRecord
  2
0
 70
   0
 62
   7
  6
CONTINUOUS
  0
LAYER
  5
A59
330
A57
100
AcDbSymbolTableRecord
100
AcDbLayerTableRecord
  2
View011
 70
    0
 62
    7
  6
CONTINUOUS
  0
ENDTAB
  0
TABLE
  2
STYLE
  5
70
330
0
100
AcDbSymbolTable
 70
     2
  0
STYLE
  5
71
330
70
100
AcDbSymbolTableRecord
100
AcDbTextStyleTableRecord
  2
STANDARD
 70
     0
 40
0.0
 41
1.0
 50
0.0
 71
     0
 42
2.5
  3
arial.ttf
  4

  0
STYLE
  5
72
330
70
100
AcDbSymbolTableRecord
100
AcDbTextStyleTableRecord
  2
ANNOTATIVE
 70
     0
 40
0.0
 41
1.0
 50
0.0
 71
     0
 42
2.5
  3
arial.ttf
  4

  0
ENDTAB
  0
TABLE
  2
VIEW
  5
73
330
0
100
AcDbSymbolTable
 70
     0
  0
ENDTAB
  0
TABLE
  2
UCS
  5
74
330
0
100
AcDbSymbolTable
 70
     0
  0
ENDTAB
  0
TABLE
  2
APPID
  5
75
330
0
100
AcDbSymbolTable
 70
     2
  0
APPID
  5
76
330
75
100
AcDbSymbolTableRecord
100
AcDbRegAppTableRecord
  2
ACAD
 70
     0
  0
APPID
  5
77
330
75
100
AcDbSymbolTableRecord
100
AcDbRegAppTableRecord
  2
ACADANNOTATIVE
 70
     0
  0
ENDTAB
  0
TABLE
  2
DIMSTYLE
  5
78
330
0
100
AcDbSymbolTable
 70
     2
  0
DIMSTYLE
105
79
330
78
100
AcDbSymbolTableRecord
100
AcDbDimStyleTableRecord
  2
STANDARD
 70
     0
  3

  4

  5

  6

  7

 40
0.0
 41
2.5
 42
0.625
 43
3.75
 44
1.25
 45
0.0
 46
0.0
 47
0.0
 48
0.0
140
2.5
141
2.5
142
0.0
143
0.03937007874016
144
1.0
145
0.0
146
1.0
147
0.625
 71
     0
 72
     0
 73
     0
 74
     0
 75
     0
 76
     0
 77
     1
 78
     8
170
     0
171
     3
172
     1
173
     0
174
     0
175
     0
176
     0
177
     0
178
     0
270
     2
271
     2
272
     2
273
     2
274
     3
340
71
275
     0
280
     0
281
     0
282
     0
283
     0
284
     8
285
     0
286
     0
287
     3
288
     0
  0
ENDTAB
  0
TABLE
  2
BLOCK_RECORD
  5
A01
330
0
100
AcDbSymbolTable
  70
5
  0
BLOCK_RECORD
  5
A02
330
A01
100
AcDbSymbolTableRecord
100
AcDbBlockTableRecord
  2
*MODEL_SPACE
  0
BLOCK_RECORD
  5
A03
330
A01
100
AcDbSymbolTableRecord
100
AcDbBlockTableRecord
  2
*PAPER_SPACE
  0
ENDTAB
  0
ENDSEC
  0
SECTION
  2
BLOCKS
  0
BLOCK
  5
A04
330
A02
100
AcDbEntity
  8
0
100
AcDbBlockBegin
  2
*MODEL_SPACE
 70
   0
 10
0
 20
0
 30
0
  3
*MODEL_SPACE
  1
 
  0
ENDBLK
  5
A05
330
A02
100
AcDbEntity
  8
0
100
AcDbBlockEnd
  0
BLOCK
  5
A06
330
A03
100
AcDbEntity
 67
1
  8
0
100
AcDbBlockBegin
  2
*PAPER_SPACE
 70
   0
 10
0
 20
0
 30
0
  3
*PAPER_SPACE
  1
 
  0
ENDBLK
  5
A07
330
A03
100
AcDbEntity
 67
    1
  8
0
100
AcDbBlockEnd
  0
ENDSEC
  0
SECTION
  2
ENTITIES
  0
LINE
  5
A08
330
A02
100
AcDbEntity
  8
View011
100
AcDbLine
 10
15.0719
 20
229.056
 30
0
 11
404.928
 21
229.056
 31
0
  0
ARC
  5
A09
330
A02
100
AcDbEntity
  8
View011
100
AcDbCircle
 10
15.0719
 20
225.556
 30
0
 40
3.5
100
AcDbArc
 50
90
 51
180
  0
ARC
  5
A0A
330
A02
100
AcDbEntity
  8
View011
100
AcDbCircle
 10
404.928
 20
225.556
 30
0
 40
3.5
100
AcDbArc
 50
1.23017e-09
 51
90
  0
LINE
  5
A0B
330
A02
100
AcDbEntity
  8
View011
100
AcDbLine
 10
11.5719
 20
71.4438
 30
0
 11
11.5719
 21
225.556
 31
0
  0
LINE
  5
A0C
330
A02
100
AcDbEntity
  8
View011
100
AcDbLine
 10
408.428
 20
225.556
 30
0
 11
408.428
 21
71.4438
 31
0
  0
ARC
  5
A0D
330
A02
100
AcDbEntity
  8
View011
100
AcDbCircle
 10
15.0719
 20
71.4438
 30
0
 40
3.5
100
AcDbArc
 50
180
 51
-90
  0
ARC
  5
A0E
330
A02
100
AcDbEntity
  8
View011
100
AcDbCircle
 10
404.928
 20
71.4438
 30
0
 40
3.5
100
AcDbArc
 50
-90
 51
0
  0
LINE
  5
A0F
330
A02
100
AcDbEntity
  8
View011
100
AcDbLine
 10
404.928
 20
67.9438
 30
0
 11
15.0719
 21
67.9438
 31
0
  0
CIRCLE
  5
A10
330
A02
100
AcDbEntity
  8
View011
100
AcDbCircle
 10
16.5719
 20
72.9437
 40
1.6
  0
CIRCLE
  5
A11
330
A02
100
AcDbEntity
  8
View011
100
AcDbCircle
 10
93.8839
 20
72.9437
 40
1.6
  0
CIRCLE
  5
A12
330
A02
100
AcDbEntity
  8
View011
100
AcDbCircle
 10
171.196
 20
72.9437
 40
1.6
  0
SPLINE
  5
A13
330
A02
100
AcDbEntity
  8
View011
100
AcDbSpline
210
0
220
0
230
1
 70
8
 71
1
 72
4
 73
2
 74
0
 40
0
 40
0
 40
1
 40
1
 10
29.4054
 20
162.01
 30
0
 10
48.4554
 20
162.01
 30
0
  0
SPLINE
  5
A14
330
A02
100
AcDbEntity
  8
View011
100
AcDbSpline
210
0
220
0
230
1
 70
8
 71
1
 72
4
 73
2
 74
0
 40
0
 40
0
 40
1
 40
1
 10
29.4054
 20
85.8077
 30
0
 10
29.4054
 20
162.01
 30
0
  0
SPLINE
  5
A15
330
A02
100
AcDbEntity
  8
View011
100
AcDbSpline
210
0
220
0
230
1
 70
8
 71
1
 72
4
 73
2
 74
0
 40
0
 40
0
 40
1
 40
1
 10
67.5074
 20
85.8077
 30
0
 10
29.4054
 20
85.8077
 30
0
  0
SPLINE
  5
A16
330
A02
100
AcDbEntity
  8
View011
100
AcDbSpline
210
0
220
0
230
1
 70
8
 71
1
 72
4
 73
2
 74
0
 40
0
 40
0
 40
1
 40
1
 10
67.5074
 20
181.06
 30
0
 10
67.5074
 20
85.8077
 30
0
  0
SPLINE
  5
A17
330
A02
100
AcDbEntity
  8
View011
100
AcDbSpline
210
0
220
0
230
1
 70
8
 71
1
 72
4
 73
2
 74
0
 40
0
 40
0
 40
1
 40
1
 10
48.4554
 20
181.06
 30
0
 10
67.5074
 20
181.06
 30
0
  0
SPLINE
  5
A18
330
A02
100
AcDbEntity
  8
View011
100
AcDbSpline
210
0
220
0
230
1
 70
8
 71
1
 72
4
 73
2
 74
0
 40
0
 40
0
 40
1
 40
1
 10
48.4554
 20
162.01
 30
0
 10
48.4554
 20
181.06
 30
0
  0
CIRCLE
  5
A19
330
A02
100
AcDbEntity
  8
View011
100
AcDbCircle
 10
248.804
 20
72.9437
 40
1.6
  0
CIRCLE
  5
A1A
330
A02
100
AcDbEntity
  8
View011
100
AcDbCircle
 10
326.116
 20
72.9437
 40
1.6
  0
CIRCLE
  5
A1B
330
A02
100
AcDbEntity
  8
View011
100
AcDbCircle
 10
403.428
 20
72.9437
 40
1.6
  0
SPLINE
  5
A1C
330
A02
100
AcDbEntity
  8
View011
100
AcDbSpline
210
0
220
0
230
1
 70
8
 71
1
 72
4
 73
2
 74
0
 40
0
 40
0
 40
1
 40
1
 10
329.442
 20
100.098
 30
0
 10
348.492
 20
100.098
 30
0
  0
SPLINE
  5
A1D
330
A02
100
AcDbEntity
  8
View011
100
AcDbSpline
210
0
220
0
230
1
 70
8
 71
1
 72
4
 73
2
 74
0
 40
0
 40
0
 40
1
 40
1
 10
329.442
 20
81.0458
 30
0
 10
329.442
 20
100.098
 30
0
  0
SPLINE
  5
A1E
330
A02
100
AcDbEntity
  8
View011
100
AcDbSpline
210
0
220
0
230
1
 70
8
 71
1
 72
4
 73
2
 74
0
 40
0
 40
0
 40
1
 40
1
 10
386.595
 20
81.0458
 30
0
 10
329.442
 20
81.0458
 30
0
  0
SPLINE
  5
A1F
330
A02
100
AcDbEntity
  8
View011
100
AcDbSpline
210
0
220
0
230
1
 70
8
 71
1
 72
4
 73
2
 74
0
 40
0
 40
0
 40
1
 40
1
 10
386.595
 20
100.098
 30
0
 10
386.595
 20
81.0458
 30
0
  0
SPLINE
  5
A20
330
A02
100
AcDbEntity
  8
View011
100
AcDbSpline
210
0
220
0
230
1
 70
8
 71
1
 72
4
 73
2
 74
0
 40
0
 40
0
 40
1
 40
1
 10
367.545
 20
100.098
 30
0
 10
386.595
 20
100.098
 30
0
  0
SPLINE
  5
A21
330
A02
100
AcDbEntity
  8
View011
100
AcDbSpline
210
0
220
0
230
1
 70
8
 71
1
 72
4
 73
2
 74
0
 40
0
 40
0
 40
1
 40
1
 10
367.545
 20
119.148
 30
0
 10
367.545
 20
100.098
 30
0
  0
SPLINE
  5
A22
330
A02
100
AcDbEntity
  8
View011
100
AcDbSpline
210
0
220
0
230
1
 70
8
 71
1
 72
4
 73
2
 74
0
 40
0
 40
0
 40
1
 40
1
 10
348.492
 20
119.148
 30
0
 10
367.545
 20
119.148
 30
0
  0
SPLINE
  5
A23
330
A02
100
AcDbEntity
  8
View011
100
AcDbSpline
210
0
220
0
230
1
 70
8
 71
1
 72
4
 73
2
 74
0
 40
0
 40
0
 40
1
 40
1
 10
348.492
 20
100.098
 30
0
 10
348.492
 20
119.148
 30
0
  0
SPLINE
  5
A24
330
A02
100
AcDbEntity
  8
View011
100
AcDbSpline
210
0
220
0
230
1
 70
8
 71
1
 72
4
 73
2
 74
0
 40
0
 40
0
 40
1
 40
1
 10
324.682
 20
85.8077
 30
0
 10
77.0305
 20
85.8077
 30
0
  0
SPLINE
  5
A25
330
A02
100
AcDbEntity
  8
View011
100
AcDbSpline
210
0
220
0
230
1
 70
8
 71
1
 72
4
 73
2
 74
0
 40
0
 40
0
 40
1
 40
1
 10
324.682
 20
104.859
 30
0
 10
324.682
 20
85.8077
 30
0
  0
SPLINE
  5
A26
330
A02
100
AcDbEntity
  8
View011
100
AcDbSpline
210
0
220
0
230
1
 70
8
 71
1
 72
4
 73
2
 74
0
 40
0
 40
0
 40
1
 40
1
 10
343.732
 20
104.859
 30
0
 10
324.682
 20
104.859
 30
0
  0
SPLINE
  5
A27
330
A02
100
AcDbEntity
  8
View011
100
AcDbSpline
210
0
220
0
230
1
 70
8
 71
1
 72
4
 73
2
 74
0
 40
0
 40
0
 40
1
 40
1
 10
343.732
 20
123.909
 30
0
 10
343.732
 20
104.859
 30
0
  0
SPLINE
  5
A28
330
A02
100
AcDbEntity
  8
View011
100
AcDbSpline
210
0
220
0
230
1
 70
8
 71
1
 72
4
 73
2
 74
0
 40
0
 40
0
 40
1
 40
1
 10
362.782
 20
123.909
 30
0
 10
343.732
 20
123.909
 30
0
  0
SPLINE
  5
A29
330
A02
100
AcDbEntity
  8
View011
100
AcDbSpline
210
0
220
0
230
1
 70
8
 71
1
 72
4
 73
2
 74
0
 40
0
 40
0
 40
1
 40
1
 10
362.782
 20
181.06
 30
0
 10
362.782
 20
123.909
 30
0
  0
SPLINE
  5
A2A
330
A02
100
AcDbEntity
  8
View011
100
AcDbSpline
210
0
220
0
230
1
 70
8
 71
1
 72
4
 73
2
 74
0
 40
0
 40
0
 40
1
 40
1
 10
77.0305
 20
181.06
 30
0
 10
362.782
 20
181.06
 30
0
  0
SPLINE
  5
A2B
330
A02
100
AcDbEntity
  8
View011
100
AcDbSpline
210
0
220
0
230
1
 70
8
 71
1
 72
4
 73
2
 74
0
 40
0
 40
0
 40
1
 40
1
 10
77.0305
 20
85.8077
 30
0
 10
77.0305
 20
181.06
 30
0
  0
SPLINE
  5
A2C
330
A02
100
AcDbEntity
  8
View011
100
AcDbSpline
210
0
220
0
230
1
 70
8
 71
1
 72
4
 73
2
 74
0
 40
0
 40
0
 40
1
 40
1
 10
391.357
 20
104.859
 30
0
 10
372.305
 20
104.859
 30
0
  0
SPLINE
  5
A2D
330
A02
100
AcDbEntity
  8
View011
100
AcDbSpline
210
0
220
0
230
1
 70
8
 71
1
 72
4
 73
2
 74
0
 40
0
 40
0
 40
1
 40
1
 10
391.357
 20
181.06
 30
0
 10
391.357
 20
104.859
 30
0
  0
SPLINE
  5
A2E
330
A02
100
AcDbEntity
  8
View011
100
AcDbSpline
210
0
220
0
230
1
 70
8
 71
1
 72
4
 73
2
 74
0
 40
0
 40
0
 40
1
 40
1
 10
372.305
 20
181.06
 30
0
 10
391.357
 20
181.06
 30
0
  0
SPLINE
  5
A2F
330
A02
100
AcDbEntity
  8
View011
100
AcDbSpline
210
0
220
0
230
1
 70
8
 71
1
 72
4
 73
2
 74
0
 40
0
 40
0
 40
1
 40
1
 10
372.305
 20
104.859
 30
0
 10
372.305
 20
181.06
 30
0
  0
CIRCLE
  5
A30
330
A02
100
AcDbEntity
  8
View011
100
AcDbCircle
 10
39.1589
 20
171.508
 40
4
  0
ARC
  5
A31
330
A02
100
AcDbEntity
  8
View011
100
AcDbCircle
 10
34.5928
 20
193.144
 30
0
 40
0.5
100
AcDbArc
 50
180
 51
-90
  0
LINE
  5
A32
330
A02
100
AcDbEntity
  8
View011
100
AcDbLine
 10
64.7428
 20
192.644
 30
0
 11
34.5928
 21
192.644
 31
0
  0
ARC
  5
A33
330
A02
100
AcDbEntity
  8
View011
100
AcDbCircle
 10
64.7428
 20
193.144
 30
0
 40
0.5
100
AcDbArc
 50
-90
 51
0
  0
LINE
  5
A34
330
A02
100
AcDbEntity
  8
View011
100
AcDbLine
 10
65.2428
 20
208.804
 30
0
 11
65.2428
 21
193.144
 31
0
  0
ARC
  5
A35
330
A02
100
AcDbEntity
  8
View011
100
AcDbCircle
 10
64.7428
 20
208.804
 30
0
 40
0.5
100
AcDbArc
 50
0
 51
90
  0
LINE
  5
A36
330
A02
100
AcDbEntity
  8
View011
100
AcDbLine
 10
34.5928
 20
209.304
 30
0
 11
64.7428
 21
209.304
 31
0
  0
ARC
  5
A37
330
A02
100
AcDbEntity
  8
View011
100
AcDbCircle
 10
34.5928
 20
208.804
 30
0
 40
0.5
100
AcDbArc
 50
90
 51
180
  0
LINE
  5
A38
330
A02
100
AcDbEntity
  8
View011
100
AcDbLine
 10
34.0928
 20
193.144
 30
0
 11
34.0928
 21
208.804
 31
0
  0
SPLINE
  5
A39
330
A02
100
AcDbEntity
  8
View011
100
AcDbSpline
210
0
220
0
230
1
 70
8
 71
1
 72
4
 73
2
 74
0
 40
0
 40
0
 40
1
 40
1
 10
96.0824
 20
185.821
 30
0
 10
77.0305
 20
185.821
 30
0
  0
SPLINE
  5
A3A
330
A02
100
AcDbEntity
  8
View011
100
AcDbSpline
210
0
220
0
230
1
 70
8
 71
1
 72
4
 73
2
 74
0
 40
0
 40
0
 40
1
 40
1
 10
96.0824
 20
204.873
 30
0
 10
96.0824
 20
185.821
 30
0
  0
SPLINE
  5
A3B
330
A02
100
AcDbEntity
  8
View011
100
AcDbSpline
210
0
220
0
230
1
 70
8
 71
1
 72
4
 73
2
 74
0
 40
0
 40
0
 40
1
 40
1
 10
77.0305
 20
204.873
 30
0
 10
96.0824
 20
204.873
 30
0
  0
SPLINE
  5
A3C
330
A02
100
AcDbEntity
  8
View011
100
AcDbSpline
210
0
220
0
230
1
 70
8
 71
1
 72
4
 73
2
 74
0
 40
0
 40
0
 40
1
 40
1
 10
77.0305
 20
185.821
 30
0
 10
77.0305
 20
204.873
 30
0
  0
CIRCLE
  5
A3D
330
A02
100
AcDbEntity
  8
View011
100
AcDbCircle
 10
16.5719
 20
224.056
 40
1.6
  0
CIRCLE
  5
A3E
330
A02
100
AcDbEntity
  8
View011
100
AcDbCircle
 10
93.8839
 20
224.056
 40
1.6
  0
SPLINE
  5
A3F
330
A02
100
AcDbEntity
  8
View011
100
AcDbSpline
210
0
220
0
230
1
 70
8
 71
1
 72
4
 73
2
 74
0
 40
0
 40
0
 40
1
 40
1
 10
177.045
 20
185.821
 30
0
 10
100.843
 20
185.821
 30
0
  0
SPLINE
  5
A40
330
A02
100
AcDbEntity
  8
View011
100
AcDbSpline
210
0
220
0
230
1
 70
8
 71
1
 72
4
 73
2
 74
0
 40
0
 40
0
 40
1
 40
1
 10
177.045
 20
204.873
 30
0
 10
177.045
 20
185.821
 30
0
  0
SPLINE
  5
A41
330
A02
100
AcDbEntity
  8
View011
100
AcDbSpline
210
0
220
0
230
1
 70
8
 71
1
 72
4
 73
2
 74
0
 40
0
 40
0
 40
1
 40
1
 10
100.845
 20
204.873
 30
0
 10
177.045
 20
204.873
 30
0
  0
SPLINE
  5
A42
330
A02
100
AcDbEntity
  8
View011
100
AcDbSpline
210
0
220
0
230
1
 70
8
 71
1
 72
4
 73
2
 74
0
 40
0
 40
0
 40
1
 40
1
 10
100.843
 20
185.821
 30
0
 10
100.845
 20
204.873
 30
0
  0
CIRCLE
  5
A43
330
A02
100
AcDbEntity
  8
View011
100
AcDbCircle
 10
171.196
 20
224.056
 40
1.6
  0
SPLINE
  5
A44
330
A02
100
AcDbEntity
  8
View011
100
AcDbSpline
210
0
220
0
230
1
 70
8
 71
1
 72
4
 73
2
 74
0
 40
0
 40
0
 40
1
 40
1
 10
258.007
 20
185.821
 30
0
 10
181.806
 20
185.821
 30
0
  0
SPLINE
  5
A45
330
A02
100
AcDbEntity
  8
View011
100
AcDbSpline
210
0
220
0
230
1
 70
8
 71
1
 72
4
 73
2
 74
0
 40
0
 40
0
 40
1
 40
1
 10
258.007
 20
204.873
 30
0
 10
258.007
 20
185.821
 30
0
  0
SPLINE
  5
A46
330
A02
100
AcDbEntity
  8
View011
100
AcDbSpline
210
0
220
0
230
1
 70
8
 71
1
 72
4
 73
2
 74
0
 40
0
 40
0
 40
1
 40
1
 10
181.806
 20
204.873
 30
0
 10
258.007
 20
204.873
 30
0
  0
SPLINE
  5
A47
330
A02
100
AcDbEntity
  8
View011
100
AcDbSpline
210
0
220
0
230
1
 70
8
 71
1
 72
4
 73
2
 74
0
 40
0
 40
0
 40
1
 40
1
 10
181.806
 20
185.821
 30
0
 10
181.806
 20
204.873
 30
0
  0
SPLINE
  5
A48
330
A02
100
AcDbEntity
  8
View011
100
AcDbSpline
210
0
220
0
230
1
 70
8
 71
1
 72
4
 73
2
 74
0
 40
0
 40
0
 40
1
 40
1
 10
338.97
 20
185.821
 30
0
 10
262.768
 20
185.821
 30
0
  0
SPLINE
  5
A49
330
A02
100
AcDbEntity
  8
View011
100
AcDbSpline
210
0
220
0
230
1
 70
8
 71
1
 72
4
 73
2
 74
0
 40
0
 40
0
 40
1
 40
1
 10
338.97
 20
204.873
 30
0
 10
338.97
 20
185.821
 30
0
  0
SPLINE
  5
A4A
330
A02
100
AcDbEntity
  8
View011
100
AcDbSpline
210
0
220
0
230
1
 70
8
 71
1
 72
4
 73
2
 74
0
 40
0
 40
0
 40
1
 40
1
 10
262.768
 20
204.873
 30
0
 10
338.97
 20
204.873
 30
0
  0
SPLINE
  5
A4B
330
A02
100
AcDbEntity
  8
View011
100
AcDbSpline
210
0
220
0
230
1
 70
8
 71
1
 72
4
 73
2
 74
0
 40
0
 40
0
 40
1
 40
1
 10
262.768
 20
185.821
 30
0
 10
262.768
 20
204.873
 30
0
  0
CIRCLE
  5
A4C
330
A02
100
AcDbEntity
  8
View011
100
AcDbCircle
 10
248.804
 20
224.056
 40
1.6
  0
SPLINE
  5
A4D
330
A02
100
AcDbEntity
  8
View011
100
AcDbSpline
210
0
220
0
230
1
 70
8
 71
1
 72
4
 73
2
 74
0
 40
0
 40
0
 40
1
 40
1
 10
362.782
 20
185.821
 30
0
 10
343.73
 20
185.821
 30
0
  0
SPLINE
  5
A4E
330
A02
100
AcDbEntity
  8
View011
100
AcDbSpline
210
0
220
0
230
1
 70
8
 71
1
 72
4
 73
2
 74
0
 40
0
 40
0
 40
1
 40
1
 10
362.782
 20
204.873
 30
0
 10
362.782
 20
185.821
 30
0
  0
SPLINE
  5
A4F
330
A02
100
AcDbEntity
  8
View011
100
AcDbSpline
210
0
220
0
230
1
 70
8
 71
1
 72
4
 73
2
 74
0
 40
0
 40
0
 40
1
 40
1
 10
343.73
 20
204.873
 30
0
 10
362.782
 20
204.873
 30
0
  0
SPLINE
  5
A50
330
A02
100
AcDbEntity
  8
View011
100
AcDbSpline
210
0
220
0
230
1
 70
8
 71
1
 72
4
 73
2
 74
0
 40
0
 40
0
 40
1
 40
1
 10
343.73
 20
185.821
 30
0
 10
343.73
 20
204.873
 30
0
  0
SPLINE
  5
A51
330
A02
100
AcDbEntity
  8
View011
100
AcDbSpline
210
0
220
0
230
1
 70
8
 71
1
 72
4
 73
2
 74
0
 40
0
 40
0
 40
1
 40
1
 10
391.357
 20
185.821
 30
0
 10
372.305
 20
185.821
 30
0
  0
SPLINE
  5
A52
330
A02
100
AcDbEntity
  8
View011
100
AcDbSpline
210
0
220
0
230
1
 70
8
 71
1
 72
4
 73
2
 74
0
 40
0
 40
0
 40
1
 40
1
 10
391.357
 20
204.873
 30
0
 10
391.357
 20
185.821
 30
0
  0
SPLINE
  5
A53
330
A02
100
AcDbEntity
  8
View011
100
AcDbSpline
210
0
220
0
230
1
 70
8
 71
1
 72
4
 73
2
 74
0
 40
0
 40
0
 40
1
 40
1
 10
372.305
 20
204.873
 30
0
 10
391.357
 20
204.873
 30
0
  0
SPLINE
  5
A54
330
A02
100
AcDbEntity
  8
View011
100
AcDbSpline
210
0
220
0
230
1
 70
8
 71
1
 72
4
 73
2
 74
0
 40
0
 40
0
 40
1
 40
1
 10
372.305
 20
185.821
 30
0
 10
372.305
 20
204.873
 30
0
  0
CIRCLE
  5
A55
330
A02
100
AcDbEntity
  8
View011
100
AcDbCircle
 10
326.116
 20
224.056
 40
1.6
  0
CIRCLE
  5
A56
330
A02
100
AcDbEntity
  8
View011
100
AcDbCircle
 10
403.428
 20
224.056
 40
1.6
  0
ENDSEC
  0
SECTION
  2
OBJECTS
  0
DICTIONARY
  5
F000
330
0
100
AcDbDictionary
  3
ACAD_GROUP
350
F001
  0
DICTIONARY
  5
F001
330
F000
100
AcDbDictionary
  0
ENDSEC
  0
EOF