<?xml version='1.0' encoding='UTF-8' standalone='no'?>
<svg version="1.2" xmlns:cc="http://creativecommons.org/ns#" xmlns="http://www.w3.org/2000/svg" xmlns:xlink="http://www.w3.org/1999/xlink" viewBox="0 0 4200 2970" baseProfile="tiny" height="297mm" xmlns:inkscape="http://www.inkscape.org/namespaces/inkscape" width="420mm" xmlns:freecad="http://www.freecadweb.org/wiki/index.php?title=Svg_Namespace" xmlns:sodipodi="http://sodipodi.sourceforge.net/DTD/sodipodi-0.dtd" xmlns:dc="http://purl.org/dc/elements/1.1/" xmlns:svg="http://www.w3.org/2000/svg" xmlns:rdf="http://www.w3.org/1999/02/22-rdf-syntax-ns#">
 <title>FreeCAD SVG Export</title>
 <desc>Drawing page: Page005 exported from FreeCAD document: QCK</desc>
 <defs/>
 <g inkscape:groupmode="layer" inkscape:label="TechDraw" id="Page005">
  <g stroke-linejoin="bevel" stroke-width="1" id="DrawingContent" fill-rule="evenodd" fill="none" stroke-linecap="square" stroke="black">
   <g transform="matrix(1,0,0,1,2021.61,838.469)" font-family="MS Shell Dlg 2" fill="#ffffff" font-size="29.1042" fill-opacity="1" font-weight="400" font-style="normal" stroke="none">
    <path fill-rule="evenodd" vector-effect="non-scaling-stroke" d="M1984.28,-770.562 L1984.28,770.562 C1984.28,789.892 1968.61,805.562 1949.28,805.562 L-1949.28,805.562 C-1968.61,805.563 -1984.28,789.892 -1984.28,770.562 L-1984.28,-770.562 C-1984.28,-789.892 -1968.61,-805.563 -1949.28,-805.562 L804.861,-805.562 L913.531,-805.562 C921.815,-805.562 928.531,-798.847 928.531,-790.562 L928.531,-720.562 C928.531,-712.278 921.815,-705.562 913.531,-705.562 L804.861,-705.562 L-1874.28,-705.562 C-1879.8,-705.562 -1884.28,-701.085 -1884.28,-695.562 L-1884.28,695.563 C-1884.28,701.085 -1879.8,705.563 -1874.28,705.563 L1874.28,705.563 C1879.8,705.563 1884.28,701.085 1884.28,695.563 L1884.28,-695.562 C1884.28,-701.085 1879.8,-705.562 1874.28,-705.562 L1229.33,-705.563 L1094.66,-705.563 C1086.37,-705.563 1079.66,-712.278 1079.66,-720.562 L1079.66,-790.563 C1079.66,-798.847 1086.37,-805.563 1094.66,-805.563 L1229.33,-805.563 L1949.28,-805.562 C1968.61,-805.562 1984.28,-789.892 1984.28,-770.562 "/>
   </g>
   <g transform="matrix(1,0,0,1,2021.61,838.469)" font-family="MS Shell Dlg 2" fill="#ffffff" font-size="29.1042" fill-opacity="1" font-weight="400" font-style="normal" stroke="none">
    <path fill-rule="evenodd" vector-effect="non-scaling-stroke" d="M1950.28,755.562 C1950.28,764.399 1943.12,771.562 1934.28,771.562 C1925.44,771.562 1918.28,764.399 1918.28,755.562 C1918.28,746.726 1925.44,739.562 1934.28,739.562 C1943.12,739.562 1950.28,746.726 1950.28,755.562 "/>
   </g>
   <g transform="matrix(1,0,0,1,2021.61,838.469)" font-family="MS Shell Dlg 2" fill="#ffffff" font-size="29.1042" fill-opacity="1" font-weight="400" font-style="normal" stroke="none">
    <path fill-rule="evenodd" vector-effect="non-scaling-stroke" d="M-1918.28,755.562 C-1918.28,764.399 -1925.44,771.562 -1934.28,771.562 C-1943.12,771.562 -1950.28,764.399 -1950.28,755.562 C-1950.28,746.726 -1943.12,739.562 -1934.28,739.562 C-1925.44,739.562 -1918.28,746.726 -1918.28,755.562 "/>
   </g>
   <g transform="matrix(1,0,0,1,2021.61,838.469)" font-family="MS Shell Dlg 2" fill="#ffffff" font-size="29.1042" fill-opacity="1" font-weight="400" font-style="normal" stroke="none">
    <path fill-rule="evenodd" vector-effect="non-scaling-stroke" d="M-1918.28,-755.563 C-1918.28,-746.726 -1925.44,-739.563 -1934.28,-739.563 C-1943.12,-739.563 -1950.28,-746.726 -1950.28,-755.563 C-1950.28,-764.399 -1943.12,-771.563 -1934.28,-771.563 C-1925.44,-771.563 -1918.28,-764.399 -1918.28,-755.563 "/>
   </g>
   <g transform="matrix(1,0,0,1,2021.61,838.469)" font-family="MS Shell Dlg 2" fill="#ffffff" font-size="29.1042" fill-opacity="1" font-weight="400" font-style="normal" stroke="none">
    <path fill-rule="evenodd" vector-effect="non-scaling-stroke" d="M1950.28,-755.563 C1950.28,-746.726 1943.12,-739.563 1934.28,-739.563 C1925.44,-739.563 1918.28,-746.726 1918.28,-755.563 C1918.28,-764.399 1925.44,-771.563 1934.28,-771.563 C1943.12,-771.563 1950.28,-764.399 1950.28,-755.563 "/>
   </g>
   <g transform="matrix(1,0,0,1,2021.61,838.469)" font-family="MS Shell Dlg 2" fill="#ffffff" font-size="29.1042" fill-opacity="1" font-weight="400" font-style="normal" stroke="none">
    <path fill-rule="evenodd" vector-effect="non-scaling-stroke" d="M404.041,755.562 C404.041,764.399 396.878,771.562 388.041,771.562 C379.204,771.562 372.041,764.399 372.041,755.562 C372.041,746.726 379.204,739.562 388.041,739.562 C396.878,739.562 404.041,746.726 404.041,755.562 "/>
   </g>
   <g transform="matrix(1,0,0,1,2021.61,838.469)" font-family="MS Shell Dlg 2" fill="#ffffff" font-size="29.1042" fill-opacity="1" font-weight="400" font-style="normal" stroke="none">
    <path fill-rule="evenodd" vector-effect="non-scaling-stroke" d="M-372.041,-755.563 C-372.041,-746.726 -379.204,-739.563 -388.041,-739.563 C-396.878,-739.563 -404.041,-746.726 -404.041,-755.563 C-404.041,-764.399 -396.878,-771.563 -388.041,-771.563 C-379.204,-771.563 -372.041,-764.399 -372.041,-755.563 "/>
   </g>
   <g transform="matrix(1,0,0,1,2021.61,838.469)" font-family="MS Shell Dlg 2" fill="#ffffff" font-size="29.1042" fill-opacity="1" font-weight="400" font-style="normal" stroke="none">
    <path fill-rule="evenodd" vector-effect="non-scaling-stroke" d="M-372.041,755.562 C-372.041,764.399 -379.204,771.562 -388.041,771.562 C-396.878,771.562 -404.041,764.399 -404.041,755.562 C-404.041,746.726 -396.878,739.562 -388.041,739.562 C-379.204,739.562 -372.041,746.726 -372.041,755.562 "/>
   </g>
   <g transform="matrix(1,0,0,1,2021.61,838.469)" font-family="MS Shell Dlg 2" fill="#ffffff" font-size="29.1042" fill-opacity="1" font-weight="400" font-style="normal" stroke="none">
    <path fill-rule="evenodd" vector-effect="non-scaling-stroke" d="M404.041,-755.563 C404.041,-746.726 396.878,-739.563 388.041,-739.563 C379.204,-739.563 372.041,-746.726 372.041,-755.563 C372.041,-764.399 379.204,-771.563 388.041,-771.563 C396.878,-771.563 404.041,-764.399 404.041,-755.563 "/>
   </g>
   <g transform="matrix(1,0,0,1,2021.61,838.469)" font-family="MS Shell Dlg 2" fill="#ffffff" font-size="29.1042" fill-opacity="1" font-weight="400" font-style="normal" stroke="none">
    <path fill-rule="evenodd" vector-effect="non-scaling-stroke" d="M-1145.16,755.562 C-1145.16,764.399 -1152.32,771.562 -1161.16,771.562 C-1170,771.562 -1177.16,764.399 -1177.16,755.562 C-1177.16,746.726 -1170,739.562 -1161.16,739.562 C-1152.32,739.562 -1145.16,746.726 -1145.16,755.562 "/>
   </g>
   <g transform="matrix(1,0,0,1,2021.61,838.469)" font-family="MS Shell Dlg 2" fill="#ffffff" font-size="29.1042" fill-opacity="1" font-weight="400" font-style="normal" stroke="none">
    <path fill-rule="evenodd" vector-effect="non-scaling-stroke" d="M-1145.16,-755.563 C-1145.16,-746.726 -1152.32,-739.563 -1161.16,-739.563 C-1170,-739.563 -1177.16,-746.726 -1177.16,-755.563 C-1177.16,-764.399 -1170,-771.563 -1161.16,-771.563 C-1152.32,-771.563 -1145.16,-764.399 -1145.16,-755.563 "/>
   </g>
   <g transform="matrix(1,0,0,1,2021.61,838.469)" font-family="MS Shell Dlg 2" fill="#ffffff" font-size="29.1042" fill-opacity="1" font-weight="400" font-style="normal" stroke="none">
    <path fill-rule="evenodd" vector-effect="non-scaling-stroke" d="M1177.16,755.562 C1177.16,764.399 1170,771.562 1161.16,771.562 C1152.32,771.562 1145.16,764.399 1145.16,755.562 C1145.16,746.726 1152.32,739.562 1161.16,739.562 C1170,739.562 1177.16,746.726 1177.16,755.562 "/>
   </g>
   <g transform="matrix(1,0,0,1,2021.61,838.469)" font-family="MS Shell Dlg 2" fill="#ffffff" font-size="29.1042" fill-opacity="1" font-weight="400" font-style="normal" stroke="none">
    <path fill-rule="evenodd" vector-effect="non-scaling-stroke" d="M1177.16,-755.563 C1177.16,-746.726 1170,-739.563 1161.16,-739.563 C1152.32,-739.563 1145.16,-746.726 1145.16,-755.563 C1145.16,-764.399 1152.32,-771.563 1161.16,-771.563 C1170,-771.563 1177.16,-764.399 1177.16,-755.563 "/>
   </g>
   <g stroke-linejoin="bevel" transform="matrix(1,0,0,1,2021.61,838.469)" font-family="MS Shell Dlg 2" stroke-width="7" fill="none" font-size="29.1042" stroke-linecap="round" font-weight="400" font-style="normal" stroke-opacity="1" stroke="#000000">
    <path fill-rule="evenodd" vector-effect="none" d="M-1984.28,770.562 L-1984.28,-770.562"/>
   </g>
   <g stroke-linejoin="bevel" transform="matrix(1,0,0,1,2021.61,838.469)" font-family="MS Shell Dlg 2" stroke-width="7" fill="none" font-size="29.1042" stroke-linecap="round" font-weight="400" font-style="normal" stroke-opacity="1" stroke="#000000">
    <path fill-rule="evenodd" vector-effect="none" d="M-1984.28,770.562 C-1984.28,789.892 -1968.61,805.563 -1949.28,805.562 "/>
   </g>
   <g stroke-linejoin="bevel" transform="matrix(1,0,0,1,2021.61,838.469)" font-family="MS Shell Dlg 2" stroke-width="7" fill="none" font-size="29.1042" stroke-linecap="round" font-weight="400" font-style="normal" stroke-opacity="1" stroke="#000000">
    <path fill-rule="evenodd" vector-effect="none" d="M-1949.28,-805.562 C-1968.61,-805.563 -1984.28,-789.892 -1984.28,-770.562 "/>
   </g>
   <g stroke-linejoin="bevel" transform="matrix(1,0,0,1,2021.61,838.469)" font-family="MS Shell Dlg 2" stroke-width="7" fill="none" font-size="29.1042" stroke-linecap="round" font-weight="400" font-style="normal" stroke-opacity="1" stroke="#000000">
    <path fill-rule="evenodd" vector-effect="none" d="M-1949.28,-805.562 L804.861,-805.562"/>
   </g>
   <g stroke-linejoin="bevel" transform="matrix(1,0,0,1,2021.61,838.469)" font-family="MS Shell Dlg 2" stroke-width="7" fill="none" font-size="29.1042" stroke-linecap="round" font-weight="400" font-style="normal" stroke-opacity="1" stroke="#000000">
    <path fill-rule="evenodd" vector-effect="none" d="M913.531,-805.562 L804.861,-805.562"/>
   </g>
   <g stroke-linejoin="bevel" transform="matrix(1,0,0,1,2021.61,838.469)" font-family="MS Shell Dlg 2" stroke-width="7" fill="none" font-size="29.1042" stroke-linecap="round" font-weight="400" font-style="normal" stroke-opacity="1" stroke="#000000">
    <path fill-rule="evenodd" vector-effect="none" d="M928.531,-790.562 C928.531,-798.847 921.815,-805.562 913.531,-805.562 "/>
   </g>
   <g stroke-linejoin="bevel" transform="matrix(1,0,0,1,2021.61,838.469)" font-family="MS Shell Dlg 2" stroke-width="7" fill="none" font-size="29.1042" stroke-linecap="round" font-weight="400" font-style="normal" stroke-opacity="1" stroke="#000000">
    <path fill-rule="evenodd" vector-effect="none" d="M928.531,-720.562 L928.531,-790.562"/>
   </g>
   <g stroke-linejoin="bevel" transform="matrix(1,0,0,1,2021.61,838.469)" font-family="MS Shell Dlg 2" stroke-width="7" fill="none" font-size="29.1042" stroke-linecap="round" font-weight="400" font-style="normal" stroke-opacity="1" stroke="#000000">
    <path fill-rule="evenodd" vector-effect="none" d="M913.531,-705.562 C921.815,-705.562 928.531,-712.278 928.531,-720.562 "/>
   </g>
   <g stroke-linejoin="bevel" transform="matrix(1,0,0,1,2021.61,838.469)" font-family="MS Shell Dlg 2" stroke-width="7" fill="none" font-size="29.1042" stroke-linecap="round" font-weight="400" font-style="normal" stroke-opacity="1" stroke="#000000">
    <path fill-rule="evenodd" vector-effect="none" d="M804.861,-705.562 L913.531,-705.562"/>
   </g>
   <g stroke-linejoin="bevel" transform="matrix(1,0,0,1,2021.61,838.469)" font-family="MS Shell Dlg 2" stroke-width="7" fill="none" font-size="29.1042" stroke-linecap="round" font-weight="400" font-style="normal" stroke-opacity="1" stroke="#000000">
    <path fill-rule="evenodd" vector-effect="none" d="M-1874.28,-705.562 L804.861,-705.562"/>
   </g>
   <g stroke-linejoin="bevel" transform="matrix(1,0,0,1,2021.61,838.469)" font-family="MS Shell Dlg 2" stroke-width="7" fill="none" font-size="29.1042" stroke-linecap="round" font-weight="400" font-style="normal" stroke-opacity="1" stroke="#000000">
    <path fill-rule="evenodd" vector-effect="none" d="M-1874.28,-705.562 C-1879.8,-705.562 -1884.28,-701.085 -1884.28,-695.562 "/>
   </g>
   <g stroke-linejoin="bevel" transform="matrix(1,0,0,1,2021.61,838.469)" font-family="MS Shell Dlg 2" stroke-width="7" fill="none" font-size="29.1042" stroke-linecap="round" font-weight="400" font-style="normal" stroke-opacity="1" stroke="#000000">
    <path fill-rule="evenodd" vector-effect="none" d="M-1884.28,695.563 L-1884.28,-695.562"/>
   </g>
   <g stroke-linejoin="bevel" transform="matrix(1,0,0,1,2021.61,838.469)" font-family="MS Shell Dlg 2" stroke-width="7" fill="none" font-size="29.1042" stroke-linecap="round" font-weight="400" font-style="normal" stroke-opacity="1" stroke="#000000">
    <path fill-rule="evenodd" vector-effect="none" d="M-1884.28,695.563 C-1884.28,701.085 -1879.8,705.563 -1874.28,705.563 "/>
   </g>
   <g stroke-linejoin="bevel" transform="matrix(1,0,0,1,2021.61,838.469)" font-family="MS Shell Dlg 2" stroke-width="7" fill="none" font-size="29.1042" stroke-linecap="round" font-weight="400" font-style="normal" stroke-opacity="1" stroke="#000000">
    <path fill-rule="evenodd" vector-effect="none" d="M1874.28,705.563 L-1874.28,705.563"/>
   </g>
   <g stroke-linejoin="bevel" transform="matrix(1,0,0,1,2021.61,838.469)" font-family="MS Shell Dlg 2" stroke-width="7" fill="none" font-size="29.1042" stroke-linecap="round" font-weight="400" font-style="normal" stroke-opacity="1" stroke="#000000">
    <path fill-rule="evenodd" vector-effect="none" d="M1874.28,705.563 C1879.8,705.563 1884.28,701.085 1884.28,695.563 "/>
   </g>
   <g stroke-linejoin="bevel" transform="matrix(1,0,0,1,2021.61,838.469)" font-family="MS Shell Dlg 2" stroke-width="7" fill="none" font-size="29.1042" stroke-linecap="round" font-weight="400" font-style="normal" stroke-opacity="1" stroke="#000000">
    <path fill-rule="evenodd" vector-effect="none" d="M1884.28,-695.562 L1884.28,695.563"/>
   </g>
   <g stroke-linejoin="bevel" transform="matrix(1,0,0,1,2021.61,838.469)" font-family="MS Shell Dlg 2" stroke-width="7" fill="none" font-size="29.1042" stroke-linecap="round" font-weight="400" font-style="normal" stroke-opacity="1" stroke="#000000">
    <path fill-rule="evenodd" vector-effect="none" d="M1884.28,-695.562 C1884.28,-701.085 1879.8,-705.562 1874.28,-705.562 "/>
   </g>
   <g stroke-linejoin="bevel" transform="matrix(1,0,0,1,2021.61,838.469)" font-family="MS Shell Dlg 2" stroke-width="7" fill="none" font-size="29.1042" stroke-linecap="round" font-weight="400" font-style="normal" stroke-opacity="1" stroke="#000000">
    <path fill-rule="evenodd" vector-effect="none" d="M1229.33,-705.562 L1874.28,-705.562"/>
   </g>
   <g stroke-linejoin="bevel" transform="matrix(1,0,0,1,2021.61,838.469)" font-family="MS Shell Dlg 2" stroke-width="7" fill="none" font-size="29.1042" stroke-linecap="round" font-weight="400" font-style="normal" stroke-opacity="1" stroke="#000000">
    <path fill-rule="evenodd" vector-effect="none" d="M1094.66,-705.563 L1229.33,-705.563"/>
   </g>
   <g stroke-linejoin="bevel" transform="matrix(1,0,0,1,2021.61,838.469)" font-family="MS Shell Dlg 2" stroke-width="7" fill="none" font-size="29.1042" stroke-linecap="round" font-weight="400" font-style="normal" stroke-opacity="1" stroke="#000000">
    <path fill-rule="evenodd" vector-effect="none" d="M1079.66,-720.562 C1079.66,-712.278 1086.37,-705.563 1094.66,-705.563 "/>
   </g>
   <g stroke-linejoin="bevel" transform="matrix(1,0,0,1,2021.61,838.469)" font-family="MS Shell Dlg 2" stroke-width="7" fill="none" font-size="29.1042" stroke-linecap="round" font-weight="400" font-style="normal" stroke-opacity="1" stroke="#000000">
    <path fill-rule="evenodd" vector-effect="none" d="M1079.66,-790.563 L1079.66,-720.562"/>
   </g>
   <g stroke-linejoin="bevel" transform="matrix(1,0,0,1,2021.61,838.469)" font-family="MS Shell Dlg 2" stroke-width="7" fill="none" font-size="29.1042" stroke-linecap="round" font-weight="400" font-style="normal" stroke-opacity="1" stroke="#000000">
    <path fill-rule="evenodd" vector-effect="none" d="M1094.66,-805.563 C1086.37,-805.563 1079.66,-798.847 1079.66,-790.563 "/>
   </g>
   <g stroke-linejoin="bevel" transform="matrix(1,0,0,1,2021.61,838.469)" font-family="MS Shell Dlg 2" stroke-width="7" fill="none" font-size="29.1042" stroke-linecap="round" font-weight="400" font-style="normal" stroke-opacity="1" stroke="#000000">
    <path fill-rule="evenodd" vector-effect="none" d="M1229.33,-805.563 L1094.66,-805.563"/>
   </g>
   <g stroke-linejoin="bevel" transform="matrix(1,0,0,1,2021.61,838.469)" font-family="MS Shell Dlg 2" stroke-width="7" fill="none" font-size="29.1042" stroke-linecap="round" font-weight="400" font-style="normal" stroke-opacity="1" stroke="#000000">
    <path fill-rule="evenodd" vector-effect="none" d="M1229.33,-805.562 L1949.28,-805.562"/>
   </g>
   <g stroke-linejoin="bevel" transform="matrix(1,0,0,1,2021.61,838.469)" font-family="MS Shell Dlg 2" stroke-width="7" fill="none" font-size="29.1042" stroke-linecap="round" font-weight="400" font-style="normal" stroke-opacity="1" stroke="#000000">
    <path fill-rule="evenodd" vector-effect="none" d="M1984.28,-770.562 C1984.28,-789.892 1968.61,-805.562 1949.28,-805.562 "/>
   </g>
   <g stroke-linejoin="bevel" transform="matrix(1,0,0,1,2021.61,838.469)" font-family="MS Shell Dlg 2" stroke-width="7" fill="none" font-size="29.1042" stroke-linecap="round" font-weight="400" font-style="normal" stroke-opacity="1" stroke="#000000">
    <path fill-rule="evenodd" vector-effect="none" d="M1984.28,-770.562 L1984.28,770.562"/>
   </g>
   <g stroke-linejoin="bevel" transform="matrix(1,0,0,1,2021.61,838.469)" font-family="MS Shell Dlg 2" stroke-width="7" fill="none" font-size="29.1042" stroke-linecap="round" font-weight="400" font-style="normal" stroke-opacity="1" stroke="#000000">
    <path fill-rule="evenodd" vector-effect="none" d="M1949.28,805.562 C1968.61,805.562 1984.28,789.892 1984.28,770.562 "/>
   </g>
   <g stroke-linejoin="bevel" transform="matrix(1,0,0,1,2021.61,838.469)" font-family="MS Shell Dlg 2" stroke-width="7" fill="none" font-size="29.1042" stroke-linecap="round" font-weight="400" font-style="normal" stroke-opacity="1" stroke="#000000">
    <path fill-rule="evenodd" vector-effect="none" d="M1949.28,805.562 L-1949.28,805.562"/>
   </g>
   <g stroke-linejoin="bevel" transform="matrix(1,0,0,1,2021.61,838.469)" font-family="MS Shell Dlg 2" stroke-width="7" fill="none" font-size="29.1042" stroke-linecap="round" font-weight="400" font-style="normal" stroke-opacity="1" stroke="#000000">
    <path fill-rule="evenodd" vector-effect="none" d="M-1918.28,755.562 C-1918.28,764.399 -1925.44,771.562 -1934.28,771.562 C-1943.12,771.562 -1950.28,764.399 -1950.28,755.562 C-1950.28,746.726 -1943.12,739.562 -1934.28,739.562 C-1925.44,739.562 -1918.28,746.726 -1918.28,755.562 "/>
   </g>
   <g stroke-linejoin="bevel" transform="matrix(1,0,0,1,2021.61,838.469)" font-family="MS Shell Dlg 2" stroke-width="7" fill="none" font-size="29.1042" stroke-linecap="round" font-weight="400" font-style="normal" stroke-opacity="1" stroke="#000000">
    <path fill-rule="evenodd" vector-effect="none" d="M-1145.16,755.562 C-1145.16,764.399 -1152.32,771.562 -1161.16,771.562 C-1170,771.562 -1177.16,764.399 -1177.16,755.562 C-1177.16,746.726 -1170,739.562 -1161.16,739.562 C-1152.32,739.562 -1145.16,746.726 -1145.16,755.562 "/>
   </g>
   <g stroke-linejoin="bevel" transform="matrix(1,0,0,1,2021.61,838.469)" font-family="MS Shell Dlg 2" stroke-width="7" fill="none" font-size="29.1042" stroke-linecap="round" font-weight="400" font-style="normal" stroke-opacity="1" stroke="#000000">
    <path fill-rule="evenodd" vector-effect="none" d="M-372.041,755.562 C-372.041,764.399 -379.204,771.562 -388.041,771.562 C-396.878,771.562 -404.041,764.399 -404.041,755.562 C-404.041,746.726 -396.878,739.562 -388.041,739.562 C-379.204,739.562 -372.041,746.726 -372.041,755.562 "/>
   </g>
   <g stroke-linejoin="bevel" transform="matrix(1,0,0,1,2021.61,838.469)" font-family="MS Shell Dlg 2" stroke-width="7" fill="none" font-size="29.1042" stroke-linecap="round" font-weight="400" font-style="normal" stroke-opacity="1" stroke="#000000">
    <path fill-rule="evenodd" vector-effect="none" d="M404.041,755.562 C404.041,764.399 396.878,771.562 388.041,771.562 C379.204,771.562 372.041,764.399 372.041,755.562 C372.041,746.726 379.204,739.562 388.041,739.562 C396.878,739.562 404.041,746.726 404.041,755.562 "/>
   </g>
   <g stroke-linejoin="bevel" transform="matrix(1,0,0,1,2021.61,838.469)" font-family="MS Shell Dlg 2" stroke-width="7" fill="none" font-size="29.1042" stroke-linecap="round" font-weight="400" font-style="normal" stroke-opacity="1" stroke="#000000">
    <path fill-rule="evenodd" vector-effect="none" d="M1177.16,755.562 C1177.16,764.399 1170,771.562 1161.16,771.562 C1152.32,771.562 1145.16,764.399 1145.16,755.562 C1145.16,746.726 1152.32,739.562 1161.16,739.562 C1170,739.562 1177.16,746.726 1177.16,755.562 "/>
   </g>
   <g stroke-linejoin="bevel" transform="matrix(1,0,0,1,2021.61,838.469)" font-family="MS Shell Dlg 2" stroke-width="7" fill="none" font-size="29.1042" stroke-linecap="round" font-weight="400" font-style="normal" stroke-opacity="1" stroke="#000000">
    <path fill-rule="evenodd" vector-effect="none" d="M1950.28,755.562 C1950.28,764.399 1943.12,771.562 1934.28,771.562 C1925.44,771.562 1918.28,764.399 1918.28,755.562 C1918.28,746.726 1925.44,739.562 1934.28,739.562 C1943.12,739.562 1950.28,746.726 1950.28,755.562 "/>
   </g>
   <g stroke-linejoin="bevel" transform="matrix(1,0,0,1,2021.61,838.469)" font-family="MS Shell Dlg 2" stroke-width="7" fill="none" font-size="29.1042" stroke-linecap="round" font-weight="400" font-style="normal" stroke-opacity="1" stroke="#000000">
    <path fill-rule="evenodd" vector-effect="none" d="M-1918.28,-755.563 C-1918.28,-746.726 -1925.44,-739.563 -1934.28,-739.563 C-1943.12,-739.563 -1950.28,-746.726 -1950.28,-755.563 C-1950.28,-764.399 -1943.12,-771.563 -1934.28,-771.563 C-1925.44,-771.563 -1918.28,-764.399 -1918.28,-755.563 "/>
   </g>
   <g stroke-linejoin="bevel" transform="matrix(1,0,0,1,2021.61,838.469)" font-family="MS Shell Dlg 2" stroke-width="7" fill="none" font-size="29.1042" stroke-linecap="round" font-weight="400" font-style="normal" stroke-opacity="1" stroke="#000000">
    <path fill-rule="evenodd" vector-effect="none" d="M-1145.16,-755.563 C-1145.16,-746.726 -1152.32,-739.563 -1161.16,-739.563 C-1170,-739.563 -1177.16,-746.726 -1177.16,-755.563 C-1177.16,-764.399 -1170,-771.563 -1161.16,-771.563 C-1152.32,-771.563 -1145.16,-764.399 -1145.16,-755.563 "/>
   </g>
   <g stroke-linejoin="bevel" transform="matrix(1,0,0,1,2021.61,838.469)" font-family="MS Shell Dlg 2" stroke-width="7" fill="none" font-size="29.1042" stroke-linecap="round" font-weight="400" font-style="normal" stroke-opacity="1" stroke="#000000">
    <path fill-rule="evenodd" vector-effect="none" d="M-372.041,-755.563 C-372.041,-746.726 -379.204,-739.563 -388.041,-739.563 C-396.878,-739.563 -404.041,-746.726 -404.041,-755.563 C-404.041,-764.399 -396.878,-771.563 -388.041,-771.563 C-379.204,-771.563 -372.041,-764.399 -372.041,-755.563 "/>
   </g>
   <g stroke-linejoin="bevel" transform="matrix(1,0,0,1,2021.61,838.469)" font-family="MS Shell Dlg 2" stroke-width="7" fill="none" font-size="29.1042" stroke-linecap="round" font-weight="400" font-style="normal" stroke-opacity="1" stroke="#000000">
    <path fill-rule="evenodd" vector-effect="none" d="M404.041,-755.563 C404.041,-746.726 396.878,-739.563 388.041,-739.563 C379.204,-739.563 372.041,-746.726 372.041,-755.563 C372.041,-764.399 379.204,-771.563 388.041,-771.563 C396.878,-771.563 404.041,-764.399 404.041,-755.563 "/>
   </g>
   <g stroke-linejoin="bevel" transform="matrix(1,0,0,1,2021.61,838.469)" font-family="MS Shell Dlg 2" stroke-width="7" fill="none" font-size="29.1042" stroke-linecap="round" font-weight="400" font-style="normal" stroke-opacity="1" stroke="#000000">
    <path fill-rule="evenodd" vector-effect="none" d="M1177.16,-755.563 C1177.16,-746.726 1170,-739.563 1161.16,-739.563 C1152.32,-739.563 1145.16,-746.726 1145.16,-755.563 C1145.16,-764.399 1152.32,-771.563 1161.16,-771.563 C1170,-771.563 1177.16,-764.399 1177.16,-755.563 "/>
   </g>
   <g stroke-linejoin="bevel" transform="matrix(1,0,0,1,2021.61,838.469)" font-family="MS Shell Dlg 2" stroke-width="7" fill="none" font-size="29.1042" stroke-linecap="round" font-weight="400" font-style="normal" stroke-opacity="1" stroke="#000000">
    <path fill-rule="evenodd" vector-effect="none" d="M1950.28,-755.563 C1950.28,-746.726 1943.12,-739.563 1934.28,-739.563 C1925.44,-739.563 1918.28,-746.726 1918.28,-755.563 C1918.28,-764.399 1925.44,-771.563 1934.28,-771.563 C1943.12,-771.563 1950.28,-764.399 1950.28,-755.563 "/>
   </g>
  </g>
 </g>
</svg>
