<?xml version='1.0' encoding='UTF-8' standalone='no'?>
<svg version="1.2" xmlns:cc="http://creativecommons.org/ns#" xmlns="http://www.w3.org/2000/svg" xmlns:xlink="http://www.w3.org/1999/xlink" viewBox="0 0 4200 2970" baseProfile="tiny" height="297mm" xmlns:inkscape="http://www.inkscape.org/namespaces/inkscape" width="420mm" xmlns:freecad="http://www.freecadweb.org/wiki/index.php?title=Svg_Namespace" xmlns:sodipodi="http://sodipodi.sourceforge.net/DTD/sodipodi-0.dtd" xmlns:dc="http://purl.org/dc/elements/1.1/" xmlns:svg="http://www.w3.org/2000/svg" xmlns:rdf="http://www.w3.org/1999/02/22-rdf-syntax-ns#">
 <title>FreeCAD SVG Export</title>
 <desc>Drawing page: Page002 exported from FreeCAD document: QCK</desc>
 <defs/>
 <g inkscape:groupmode="layer" inkscape:label="TechDraw" id="Page002">
  <g stroke-linejoin="bevel" stroke-width="1" id="DrawingContent" fill-rule="evenodd" fill="none" stroke-linecap="square" stroke="black">
   <g transform="matrix(1,0,0,1,2030.17,842.607)" font-family="MS Shell Dlg 2" fill="#ffffff" font-size="29.1042" fill-opacity="1" font-weight="400" font-style="normal" stroke="none">
    <path fill-rule="evenodd" vector-effect="non-scaling-stroke" d="M1984.28,-770.563 L1984.28,770.562 C1984.28,789.892 1968.61,805.562 1949.28,805.562 L-1949.28,805.562 C-1968.61,805.562 -1984.28,789.892 -1984.28,770.562 L-1984.28,-770.563 C-1984.28,-789.892 -1968.61,-805.563 -1949.28,-805.563 L1949.28,-805.562 C1968.61,-805.562 1984.28,-789.892 1984.28,-770.563 "/>
   </g>
   <g transform="matrix(1,0,0,1,2030.17,842.607)" font-family="MS Shell Dlg 2" fill="#ffffff" font-size="29.1042" fill-opacity="1" font-weight="400" font-style="normal" stroke="none">
    <path fill-rule="evenodd" vector-effect="non-scaling-stroke" d="M1527.82,-325.599 L1527.82,245.912 L1337.32,245.912 L1337.32,436.412 L1146.82,436.412 L1146.82,626.923 L-1329.69,626.923 L-1329.69,-325.599 L1527.82,-325.599"/>
   </g>
   <g transform="matrix(1,0,0,1,2030.17,842.607)" font-family="MS Shell Dlg 2" fill="#ffffff" font-size="29.1042" fill-opacity="1" font-weight="400" font-style="normal" stroke="none">
    <path fill-rule="evenodd" vector-effect="non-scaling-stroke" d="M-1727.61,-325.486 L-1615.45,-325.486 L-1424.93,-325.599 L-1424.93,626.923 L-1805.95,626.923 L-1806.01,-135.099 L-1806.01,-247.091 C-1806.01,-290.387 -1770.91,-325.486 -1727.61,-325.486 "/>
   </g>
   <g transform="matrix(1,0,0,1,2030.17,842.607)" font-family="MS Shell Dlg 2" fill="#ffffff" font-size="29.1042" fill-opacity="1" font-weight="400" font-style="normal" stroke="none">
    <path fill-rule="evenodd" vector-effect="non-scaling-stroke" d="M1813.57,-325.599 L1813.57,436.412 L1623.05,436.412 L1623.05,-325.599 L1813.57,-325.599"/>
   </g>
   <g transform="matrix(1,0,0,1,2030.17,842.607)" font-family="MS Shell Dlg 2" fill="#ffffff" font-size="29.1042" fill-opacity="1" font-weight="400" font-style="normal" stroke="none">
    <path fill-rule="evenodd" vector-effect="non-scaling-stroke" d="M1765.95,484.024 L1765.95,674.542 L1194.42,674.542 L1194.42,484.024 L1384.92,484.024 L1384.92,293.524 L1575.45,293.524 L1575.45,484.024 L1765.95,484.024"/>
   </g>
   <g transform="matrix(1,0,0,1,2030.17,842.607)" font-family="MS Shell Dlg 2" fill="#ffffff" font-size="29.1042" fill-opacity="1" font-weight="400" font-style="normal" stroke="none">
    <path fill-rule="evenodd" vector-effect="non-scaling-stroke" d="M-329.546,-563.728 L-329.546,-373.208 L-1091.57,-373.208 L-1091.57,-563.728 L-329.546,-563.728"/>
   </g>
   <g transform="matrix(1,0,0,1,2030.17,842.607)" font-family="MS Shell Dlg 2" fill="#ffffff" font-size="29.1042" fill-opacity="1" font-weight="400" font-style="normal" stroke="none">
    <path fill-rule="evenodd" vector-effect="non-scaling-stroke" d="M480.074,-563.728 L480.074,-373.208 L-281.945,-373.208 L-281.945,-563.728 L480.074,-563.728"/>
   </g>
   <g transform="matrix(1,0,0,1,2030.17,842.607)" font-family="MS Shell Dlg 2" fill="#ffffff" font-size="29.1042" fill-opacity="1" font-weight="400" font-style="normal" stroke="none">
    <path fill-rule="evenodd" vector-effect="non-scaling-stroke" d="M1289.7,-563.728 L1289.7,-373.208 L527.683,-373.208 L527.683,-563.728 L1289.7,-563.728"/>
   </g>
   <g transform="matrix(1,0,0,1,2030.17,842.607)" font-family="MS Shell Dlg 2" fill="#ffffff" font-size="29.1042" fill-opacity="1" font-weight="400" font-style="normal" stroke="none">
    <path fill-rule="evenodd" vector-effect="non-scaling-stroke" d="M1813.57,-563.728 L1813.57,-373.208 L1623.05,-373.208 L1623.05,-563.728 L1813.57,-563.728"/>
   </g>
   <g transform="matrix(1,0,0,1,2030.17,842.607)" font-family="MS Shell Dlg 2" fill="#ffffff" font-size="29.1042" fill-opacity="1" font-weight="400" font-style="normal" stroke="none">
    <path fill-rule="evenodd" vector-effect="non-scaling-stroke" d="M1527.82,-563.728 L1527.82,-373.208 L1337.3,-373.208 L1337.3,-563.728 L1527.82,-563.728"/>
   </g>
   <g transform="matrix(1,0,0,1,2030.17,842.607)" font-family="MS Shell Dlg 2" fill="#ffffff" font-size="29.1042" fill-opacity="1" font-weight="400" font-style="normal" stroke="none">
    <path fill-rule="evenodd" vector-effect="non-scaling-stroke" d="M-1139.18,-563.728 L-1139.18,-373.208 L-1329.69,-373.208 L-1329.69,-563.728 L-1139.18,-563.728"/>
   </g>
   <g transform="matrix(1,0,0,1,2030.17,842.607)" font-family="MS Shell Dlg 2" fill="#ffffff" font-size="29.1042" fill-opacity="1" font-weight="400" font-style="normal" stroke="none">
    <path fill-rule="evenodd" vector-effect="non-scaling-stroke" d="M-1150.66,-755.563 C-1150.66,-749.764 -1155.36,-745.063 -1161.16,-745.063 C-1166.96,-745.063 -1171.66,-749.764 -1171.66,-755.563 C-1171.66,-761.361 -1166.96,-766.063 -1161.16,-766.063 C-1155.36,-766.063 -1150.66,-761.361 -1150.66,-755.563 "/>
   </g>
   <g transform="matrix(1,0,0,1,2030.17,842.607)" font-family="MS Shell Dlg 2" fill="#ffffff" font-size="29.1042" fill-opacity="1" font-weight="400" font-style="normal" stroke="none">
    <path fill-rule="evenodd" vector-effect="non-scaling-stroke" d="M-1923.78,755.563 C-1923.78,761.361 -1928.48,766.063 -1934.28,766.063 C-1940.08,766.063 -1944.78,761.361 -1944.78,755.563 C-1944.78,749.764 -1940.08,745.063 -1934.28,745.063 C-1928.48,745.063 -1923.78,749.764 -1923.78,755.563 "/>
   </g>
   <g transform="matrix(1,0,0,1,2030.17,842.607)" font-family="MS Shell Dlg 2" fill="#ffffff" font-size="29.1042" fill-opacity="1" font-weight="400" font-style="normal" stroke="none">
    <path fill-rule="evenodd" vector-effect="non-scaling-stroke" d="M1171.66,-755.563 C1171.66,-749.764 1166.96,-745.063 1161.16,-745.063 C1155.36,-745.063 1150.66,-749.764 1150.66,-755.563 C1150.66,-761.361 1155.36,-766.063 1161.16,-766.063 C1166.96,-766.063 1171.66,-761.361 1171.66,-755.563 "/>
   </g>
   <g transform="matrix(1,0,0,1,2030.17,842.607)" font-family="MS Shell Dlg 2" fill="#ffffff" font-size="29.1042" fill-opacity="1" font-weight="400" font-style="normal" stroke="none">
    <path fill-rule="evenodd" vector-effect="non-scaling-stroke" d="M1944.78,755.563 C1944.78,761.361 1940.08,766.063 1934.28,766.063 C1928.48,766.063 1923.78,761.361 1923.78,755.563 C1923.78,749.764 1928.48,745.063 1934.28,745.063 C1940.08,745.063 1944.78,749.764 1944.78,755.563 "/>
   </g>
   <g transform="matrix(1,0,0,1,2030.17,842.607)" font-family="MS Shell Dlg 2" fill="#ffffff" font-size="29.1042" fill-opacity="1" font-weight="400" font-style="normal" stroke="none">
    <path fill-rule="evenodd" vector-effect="non-scaling-stroke" d="M1944.78,-755.563 C1944.78,-749.764 1940.08,-745.063 1934.28,-745.063 C1928.48,-745.063 1923.78,-749.764 1923.78,-755.563 C1923.78,-761.361 1928.48,-766.063 1934.28,-766.063 C1940.08,-766.063 1944.78,-761.361 1944.78,-755.563 "/>
   </g>
   <g transform="matrix(1,0,0,1,2030.17,842.607)" font-family="MS Shell Dlg 2" fill="#ffffff" font-size="29.1042" fill-opacity="1" font-weight="400" font-style="normal" stroke="none">
    <path fill-rule="evenodd" vector-effect="non-scaling-stroke" d="M-377.541,755.563 C-377.541,761.361 -382.242,766.063 -388.041,766.063 C-393.84,766.063 -398.541,761.361 -398.541,755.563 C-398.541,749.764 -393.84,745.063 -388.041,745.063 C-382.242,745.063 -377.541,749.764 -377.541,755.563 "/>
   </g>
   <g transform="matrix(1,0,0,1,2030.17,842.607)" font-family="MS Shell Dlg 2" fill="#ffffff" font-size="29.1042" fill-opacity="1" font-weight="400" font-style="normal" stroke="none">
    <path fill-rule="evenodd" vector-effect="non-scaling-stroke" d="M-377.541,-755.563 C-377.541,-749.764 -382.242,-745.063 -388.041,-745.063 C-393.84,-745.063 -398.541,-749.764 -398.541,-755.563 C-398.541,-761.361 -393.84,-766.063 -388.041,-766.063 C-382.242,-766.063 -377.541,-761.361 -377.541,-755.563 "/>
   </g>
   <g transform="matrix(1,0,0,1,2030.17,842.607)" font-family="MS Shell Dlg 2" fill="#ffffff" font-size="29.1042" fill-opacity="1" font-weight="400" font-style="normal" stroke="none">
    <path fill-rule="evenodd" vector-effect="non-scaling-stroke" d="M398.541,-755.563 C398.541,-749.764 393.84,-745.063 388.041,-745.063 C382.242,-745.063 377.541,-749.764 377.541,-755.563 C377.541,-761.361 382.242,-766.063 388.041,-766.063 C393.84,-766.063 398.541,-761.361 398.541,-755.563 "/>
   </g>
   <g transform="matrix(1,0,0,1,2030.17,842.607)" font-family="MS Shell Dlg 2" fill="#ffffff" font-size="29.1042" fill-opacity="1" font-weight="400" font-style="normal" stroke="none">
    <path fill-rule="evenodd" vector-effect="non-scaling-stroke" d="M-1150.66,755.563 C-1150.66,761.361 -1155.36,766.063 -1161.16,766.063 C-1166.96,766.063 -1171.66,761.361 -1171.66,755.563 C-1171.66,749.764 -1166.96,745.063 -1161.16,745.063 C-1155.36,745.063 -1150.66,749.764 -1150.66,755.563 "/>
   </g>
   <g transform="matrix(1,0,0,1,2030.17,842.607)" font-family="MS Shell Dlg 2" fill="#ffffff" font-size="29.1042" fill-opacity="1" font-weight="400" font-style="normal" stroke="none">
    <path fill-rule="evenodd" vector-effect="non-scaling-stroke" d="M398.541,755.563 C398.541,761.361 393.84,766.063 388.041,766.063 C382.242,766.063 377.541,761.361 377.541,755.563 C377.541,749.764 382.242,745.063 388.041,745.063 C393.84,745.063 398.541,749.764 398.541,755.563 "/>
   </g>
   <g transform="matrix(1,0,0,1,2030.17,842.607)" font-family="MS Shell Dlg 2" fill="#ffffff" font-size="29.1042" fill-opacity="1" font-weight="400" font-style="normal" stroke="none">
    <path fill-rule="evenodd" vector-effect="non-scaling-stroke" d="M1171.66,755.563 C1171.66,761.361 1166.96,766.063 1161.16,766.063 C1155.36,766.063 1150.66,761.361 1150.66,755.563 C1150.66,749.764 1155.36,745.063 1161.16,745.063 C1166.96,745.063 1171.66,749.764 1171.66,755.563 "/>
   </g>
   <g transform="matrix(1,0,0,1,2030.17,842.607)" font-family="MS Shell Dlg 2" fill="#ffffff" font-size="29.1042" fill-opacity="1" font-weight="400" font-style="normal" stroke="none">
    <path fill-rule="evenodd" vector-effect="non-scaling-stroke" d="M-1923.78,-755.563 C-1923.78,-749.764 -1928.48,-745.063 -1934.28,-745.063 C-1940.08,-745.063 -1944.78,-749.764 -1944.78,-755.563 C-1944.78,-761.361 -1940.08,-766.063 -1934.28,-766.063 C-1928.48,-766.063 -1923.78,-761.361 -1923.78,-755.563 "/>
   </g>
   <g stroke-linejoin="bevel" transform="matrix(1,0,0,1,2030.17,842.607)" font-family="MS Shell Dlg 2" stroke-width="7" fill="none" font-size="29.1042" stroke-linecap="round" font-weight="400" font-style="normal" stroke-opacity="1" stroke="#000000">
    <path fill-rule="evenodd" vector-effect="none" d="M-1949.28,-805.563 L1949.28,-805.563"/>
   </g>
   <g stroke-linejoin="bevel" transform="matrix(1,0,0,1,2030.17,842.607)" font-family="MS Shell Dlg 2" stroke-width="7" fill="none" font-size="29.1042" stroke-linecap="round" font-weight="400" font-style="normal" stroke-opacity="1" stroke="#000000">
    <path fill-rule="evenodd" vector-effect="none" d="M-1949.28,-805.563 C-1968.61,-805.563 -1984.28,-789.892 -1984.28,-770.563 "/>
   </g>
   <g stroke-linejoin="bevel" transform="matrix(1,0,0,1,2030.17,842.607)" font-family="MS Shell Dlg 2" stroke-width="7" fill="none" font-size="29.1042" stroke-linecap="round" font-weight="400" font-style="normal" stroke-opacity="1" stroke="#000000">
    <path fill-rule="evenodd" vector-effect="none" d="M1984.28,-770.563 C1984.28,-789.892 1968.61,-805.562 1949.28,-805.562 "/>
   </g>
   <g stroke-linejoin="bevel" transform="matrix(1,0,0,1,2030.17,842.607)" font-family="MS Shell Dlg 2" stroke-width="7" fill="none" font-size="29.1042" stroke-linecap="round" font-weight="400" font-style="normal" stroke-opacity="1" stroke="#000000">
    <path fill-rule="evenodd" vector-effect="none" d="M-1984.28,770.562 L-1984.28,-770.563"/>
   </g>
   <g stroke-linejoin="bevel" transform="matrix(1,0,0,1,2030.17,842.607)" font-family="MS Shell Dlg 2" stroke-width="7" fill="none" font-size="29.1042" stroke-linecap="round" font-weight="400" font-style="normal" stroke-opacity="1" stroke="#000000">
    <path fill-rule="evenodd" vector-effect="none" d="M1984.28,-770.563 L1984.28,770.562"/>
   </g>
   <g stroke-linejoin="bevel" transform="matrix(1,0,0,1,2030.17,842.607)" font-family="MS Shell Dlg 2" stroke-width="7" fill="none" font-size="29.1042" stroke-linecap="round" font-weight="400" font-style="normal" stroke-opacity="1" stroke="#000000">
    <path fill-rule="evenodd" vector-effect="none" d="M-1984.28,770.562 C-1984.28,789.892 -1968.61,805.562 -1949.28,805.562 "/>
   </g>
   <g stroke-linejoin="bevel" transform="matrix(1,0,0,1,2030.17,842.607)" font-family="MS Shell Dlg 2" stroke-width="7" fill="none" font-size="29.1042" stroke-linecap="round" font-weight="400" font-style="normal" stroke-opacity="1" stroke="#000000">
    <path fill-rule="evenodd" vector-effect="none" d="M1949.28,805.562 C1968.61,805.562 1984.28,789.892 1984.28,770.562 "/>
   </g>
   <g stroke-linejoin="bevel" transform="matrix(1,0,0,1,2030.17,842.607)" font-family="MS Shell Dlg 2" stroke-width="7" fill="none" font-size="29.1042" stroke-linecap="round" font-weight="400" font-style="normal" stroke-opacity="1" stroke="#000000">
    <path fill-rule="evenodd" vector-effect="none" d="M1949.28,805.562 L-1949.28,805.562"/>
   </g>
   <g stroke-linejoin="bevel" transform="matrix(1,0,0,1,2030.17,842.607)" font-family="MS Shell Dlg 2" stroke-width="7" fill="none" font-size="29.1042" stroke-linecap="round" font-weight="400" font-style="normal" stroke-opacity="1" stroke="#000000">
    <path fill-rule="evenodd" vector-effect="none" d="M-1923.78,755.563 C-1923.78,761.361 -1928.48,766.063 -1934.28,766.063 C-1940.08,766.063 -1944.78,761.361 -1944.78,755.563 C-1944.78,749.764 -1940.08,745.063 -1934.28,745.063 C-1928.48,745.063 -1923.78,749.764 -1923.78,755.563 "/>
   </g>
   <g stroke-linejoin="bevel" transform="matrix(1,0,0,1,2030.17,842.607)" font-family="MS Shell Dlg 2" stroke-width="7" fill="none" font-size="29.1042" stroke-linecap="round" font-weight="400" font-style="normal" stroke-opacity="1" stroke="#000000">
    <path fill-rule="evenodd" vector-effect="none" d="M-1150.66,755.563 C-1150.66,761.361 -1155.36,766.063 -1161.16,766.063 C-1166.96,766.063 -1171.66,761.361 -1171.66,755.563 C-1171.66,749.764 -1166.96,745.063 -1161.16,745.063 C-1155.36,745.063 -1150.66,749.764 -1150.66,755.563 "/>
   </g>
   <g stroke-linejoin="bevel" transform="matrix(1,0,0,1,2030.17,842.607)" font-family="MS Shell Dlg 2" stroke-width="7" fill="none" font-size="29.1042" stroke-linecap="round" font-weight="400" font-style="normal" stroke-opacity="1" stroke="#000000">
    <path fill-rule="evenodd" vector-effect="none" d="M-377.541,755.563 C-377.541,761.361 -382.242,766.063 -388.041,766.063 C-393.84,766.063 -398.541,761.361 -398.541,755.563 C-398.541,749.764 -393.84,745.063 -388.041,745.063 C-382.242,745.063 -377.541,749.764 -377.541,755.563 "/>
   </g>
   <g stroke-linejoin="bevel" transform="matrix(1,0,0,1,2030.17,842.607)" font-family="MS Shell Dlg 2" stroke-width="7" fill="none" font-size="29.1042" stroke-linecap="round" font-weight="400" font-style="normal" stroke-opacity="1" stroke="#000000">
    <path fill-rule="evenodd" vector-effect="none" d="M-1727.61,-325.486 L-1615.45,-325.486"/>
   </g>
   <g stroke-linejoin="bevel" transform="matrix(1,0,0,1,2030.17,842.607)" font-family="MS Shell Dlg 2" stroke-width="7" fill="none" font-size="29.1042" stroke-linecap="round" font-weight="400" font-style="normal" stroke-opacity="1" stroke="#000000">
    <path fill-rule="evenodd" vector-effect="none" d="M-1727.61,-325.486 C-1770.91,-325.486 -1806.01,-290.387 -1806.01,-247.091 "/>
   </g>
   <g stroke-linejoin="bevel" transform="matrix(1,0,0,1,2030.17,842.607)" font-family="MS Shell Dlg 2" stroke-width="7" fill="none" font-size="29.1042" stroke-linecap="round" font-weight="400" font-style="normal" stroke-opacity="1" stroke="#000000">
    <path fill-rule="evenodd" vector-effect="none" d="M-1806.01,-135.099 L-1806.01,-247.091"/>
   </g>
   <g stroke-linejoin="bevel" transform="matrix(1,0,0,1,2030.17,842.607)" font-family="MS Shell Dlg 2" stroke-width="7" fill="none" font-size="29.1042" stroke-linecap="round" font-weight="400" font-style="normal" stroke-opacity="1" stroke="#000000">
    <path fill-rule="evenodd" vector-effect="none" d="M-1805.95,626.923 L-1806.01,-135.099"/>
   </g>
   <g stroke-linejoin="bevel" transform="matrix(1,0,0,1,2030.17,842.607)" font-family="MS Shell Dlg 2" stroke-width="7" fill="none" font-size="29.1042" stroke-linecap="round" font-weight="400" font-style="normal" stroke-opacity="1" stroke="#000000">
    <path fill-rule="evenodd" vector-effect="none" d="M-1424.93,626.923 L-1805.95,626.923"/>
   </g>
   <g stroke-linejoin="bevel" transform="matrix(1,0,0,1,2030.17,842.607)" font-family="MS Shell Dlg 2" stroke-width="7" fill="none" font-size="29.1042" stroke-linecap="round" font-weight="400" font-style="normal" stroke-opacity="1" stroke="#000000">
    <path fill-rule="evenodd" vector-effect="none" d="M-1424.93,-325.599 L-1424.93,626.923"/>
   </g>
   <g stroke-linejoin="bevel" transform="matrix(1,0,0,1,2030.17,842.607)" font-family="MS Shell Dlg 2" stroke-width="7" fill="none" font-size="29.1042" stroke-linecap="round" font-weight="400" font-style="normal" stroke-opacity="1" stroke="#000000">
    <path fill-rule="evenodd" vector-effect="none" d="M-1615.45,-325.486 L-1424.93,-325.599"/>
   </g>
   <g stroke-linejoin="bevel" transform="matrix(1,0,0,1,2030.17,842.607)" font-family="MS Shell Dlg 2" stroke-width="7" fill="none" font-size="29.1042" stroke-linecap="round" font-weight="400" font-style="normal" stroke-opacity="1" stroke="#000000">
    <path fill-rule="evenodd" vector-effect="none" d="M398.541,755.563 C398.541,761.361 393.84,766.063 388.041,766.063 C382.242,766.063 377.541,761.361 377.541,755.563 C377.541,749.764 382.242,745.063 388.041,745.063 C393.84,745.063 398.541,749.764 398.541,755.563 "/>
   </g>
   <g stroke-linejoin="bevel" transform="matrix(1,0,0,1,2030.17,842.607)" font-family="MS Shell Dlg 2" stroke-width="7" fill="none" font-size="29.1042" stroke-linecap="round" font-weight="400" font-style="normal" stroke-opacity="1" stroke="#000000">
    <path fill-rule="evenodd" vector-effect="none" d="M1171.66,755.563 C1171.66,761.361 1166.96,766.063 1161.16,766.063 C1155.36,766.063 1150.66,761.361 1150.66,755.563 C1150.66,749.764 1155.36,745.063 1161.16,745.063 C1166.96,745.063 1171.66,749.764 1171.66,755.563 "/>
   </g>
   <g stroke-linejoin="bevel" transform="matrix(1,0,0,1,2030.17,842.607)" font-family="MS Shell Dlg 2" stroke-width="7" fill="none" font-size="29.1042" stroke-linecap="round" font-weight="400" font-style="normal" stroke-opacity="1" stroke="#000000">
    <path fill-rule="evenodd" vector-effect="none" d="M1944.78,755.563 C1944.78,761.361 1940.08,766.063 1934.28,766.063 C1928.48,766.063 1923.78,761.361 1923.78,755.563 C1923.78,749.764 1928.48,745.063 1934.28,745.063 C1940.08,745.063 1944.78,749.764 1944.78,755.563 "/>
   </g>
   <g stroke-linejoin="bevel" transform="matrix(1,0,0,1,2030.17,842.607)" font-family="MS Shell Dlg 2" stroke-width="7" fill="none" font-size="29.1042" stroke-linecap="round" font-weight="400" font-style="normal" stroke-opacity="1" stroke="#000000">
    <path fill-rule="evenodd" vector-effect="none" d="M1194.42,484.024 L1384.92,484.024"/>
   </g>
   <g stroke-linejoin="bevel" transform="matrix(1,0,0,1,2030.17,842.607)" font-family="MS Shell Dlg 2" stroke-width="7" fill="none" font-size="29.1042" stroke-linecap="round" font-weight="400" font-style="normal" stroke-opacity="1" stroke="#000000">
    <path fill-rule="evenodd" vector-effect="none" d="M1194.42,674.542 L1194.42,484.024"/>
   </g>
   <g stroke-linejoin="bevel" transform="matrix(1,0,0,1,2030.17,842.607)" font-family="MS Shell Dlg 2" stroke-width="7" fill="none" font-size="29.1042" stroke-linecap="round" font-weight="400" font-style="normal" stroke-opacity="1" stroke="#000000">
    <path fill-rule="evenodd" vector-effect="none" d="M1765.95,674.542 L1194.42,674.542"/>
   </g>
   <g stroke-linejoin="bevel" transform="matrix(1,0,0,1,2030.17,842.607)" font-family="MS Shell Dlg 2" stroke-width="7" fill="none" font-size="29.1042" stroke-linecap="round" font-weight="400" font-style="normal" stroke-opacity="1" stroke="#000000">
    <path fill-rule="evenodd" vector-effect="none" d="M1765.95,484.024 L1765.95,674.542"/>
   </g>
   <g stroke-linejoin="bevel" transform="matrix(1,0,0,1,2030.17,842.607)" font-family="MS Shell Dlg 2" stroke-width="7" fill="none" font-size="29.1042" stroke-linecap="round" font-weight="400" font-style="normal" stroke-opacity="1" stroke="#000000">
    <path fill-rule="evenodd" vector-effect="none" d="M1575.45,484.024 L1765.95,484.024"/>
   </g>
   <g stroke-linejoin="bevel" transform="matrix(1,0,0,1,2030.17,842.607)" font-family="MS Shell Dlg 2" stroke-width="7" fill="none" font-size="29.1042" stroke-linecap="round" font-weight="400" font-style="normal" stroke-opacity="1" stroke="#000000">
    <path fill-rule="evenodd" vector-effect="none" d="M1575.45,293.524 L1575.45,484.024"/>
   </g>
   <g stroke-linejoin="bevel" transform="matrix(1,0,0,1,2030.17,842.607)" font-family="MS Shell Dlg 2" stroke-width="7" fill="none" font-size="29.1042" stroke-linecap="round" font-weight="400" font-style="normal" stroke-opacity="1" stroke="#000000">
    <path fill-rule="evenodd" vector-effect="none" d="M1384.92,293.524 L1575.45,293.524"/>
   </g>
   <g stroke-linejoin="bevel" transform="matrix(1,0,0,1,2030.17,842.607)" font-family="MS Shell Dlg 2" stroke-width="7" fill="none" font-size="29.1042" stroke-linecap="round" font-weight="400" font-style="normal" stroke-opacity="1" stroke="#000000">
    <path fill-rule="evenodd" vector-effect="none" d="M1384.92,484.024 L1384.92,293.524"/>
   </g>
   <g stroke-linejoin="bevel" transform="matrix(1,0,0,1,2030.17,842.607)" font-family="MS Shell Dlg 2" stroke-width="7" fill="none" font-size="29.1042" stroke-linecap="round" font-weight="400" font-style="normal" stroke-opacity="1" stroke="#000000">
    <path fill-rule="evenodd" vector-effect="none" d="M1146.82,626.923 L-1329.69,626.923"/>
   </g>
   <g stroke-linejoin="bevel" transform="matrix(1,0,0,1,2030.17,842.607)" font-family="MS Shell Dlg 2" stroke-width="7" fill="none" font-size="29.1042" stroke-linecap="round" font-weight="400" font-style="normal" stroke-opacity="1" stroke="#000000">
    <path fill-rule="evenodd" vector-effect="none" d="M1146.82,436.412 L1146.82,626.923"/>
   </g>
   <g stroke-linejoin="bevel" transform="matrix(1,0,0,1,2030.17,842.607)" font-family="MS Shell Dlg 2" stroke-width="7" fill="none" font-size="29.1042" stroke-linecap="round" font-weight="400" font-style="normal" stroke-opacity="1" stroke="#000000">
    <path fill-rule="evenodd" vector-effect="none" d="M1337.32,436.412 L1146.82,436.412"/>
   </g>
   <g stroke-linejoin="bevel" transform="matrix(1,0,0,1,2030.17,842.607)" font-family="MS Shell Dlg 2" stroke-width="7" fill="none" font-size="29.1042" stroke-linecap="round" font-weight="400" font-style="normal" stroke-opacity="1" stroke="#000000">
    <path fill-rule="evenodd" vector-effect="none" d="M1337.32,245.912 L1337.32,436.412"/>
   </g>
   <g stroke-linejoin="bevel" transform="matrix(1,0,0,1,2030.17,842.607)" font-family="MS Shell Dlg 2" stroke-width="7" fill="none" font-size="29.1042" stroke-linecap="round" font-weight="400" font-style="normal" stroke-opacity="1" stroke="#000000">
    <path fill-rule="evenodd" vector-effect="none" d="M1527.82,245.912 L1337.32,245.912"/>
   </g>
   <g stroke-linejoin="bevel" transform="matrix(1,0,0,1,2030.17,842.607)" font-family="MS Shell Dlg 2" stroke-width="7" fill="none" font-size="29.1042" stroke-linecap="round" font-weight="400" font-style="normal" stroke-opacity="1" stroke="#000000">
    <path fill-rule="evenodd" vector-effect="none" d="M1527.82,-325.599 L1527.82,245.912"/>
   </g>
   <g stroke-linejoin="bevel" transform="matrix(1,0,0,1,2030.17,842.607)" font-family="MS Shell Dlg 2" stroke-width="7" fill="none" font-size="29.1042" stroke-linecap="round" font-weight="400" font-style="normal" stroke-opacity="1" stroke="#000000">
    <path fill-rule="evenodd" vector-effect="none" d="M-1329.69,-325.599 L1527.82,-325.599"/>
   </g>
   <g stroke-linejoin="bevel" transform="matrix(1,0,0,1,2030.17,842.607)" font-family="MS Shell Dlg 2" stroke-width="7" fill="none" font-size="29.1042" stroke-linecap="round" font-weight="400" font-style="normal" stroke-opacity="1" stroke="#000000">
    <path fill-rule="evenodd" vector-effect="none" d="M-1329.69,626.923 L-1329.69,-325.599"/>
   </g>
   <g stroke-linejoin="bevel" transform="matrix(1,0,0,1,2030.17,842.607)" font-family="MS Shell Dlg 2" stroke-width="7" fill="none" font-size="29.1042" stroke-linecap="round" font-weight="400" font-style="normal" stroke-opacity="1" stroke="#000000">
    <path fill-rule="evenodd" vector-effect="none" d="M1813.57,436.412 L1623.05,436.412"/>
   </g>
   <g stroke-linejoin="bevel" transform="matrix(1,0,0,1,2030.17,842.607)" font-family="MS Shell Dlg 2" stroke-width="7" fill="none" font-size="29.1042" stroke-linecap="round" font-weight="400" font-style="normal" stroke-opacity="1" stroke="#000000">
    <path fill-rule="evenodd" vector-effect="none" d="M1813.57,-325.599 L1813.57,436.412"/>
   </g>
   <g stroke-linejoin="bevel" transform="matrix(1,0,0,1,2030.17,842.607)" font-family="MS Shell Dlg 2" stroke-width="7" fill="none" font-size="29.1042" stroke-linecap="round" font-weight="400" font-style="normal" stroke-opacity="1" stroke="#000000">
    <path fill-rule="evenodd" vector-effect="none" d="M1623.05,-325.599 L1813.57,-325.599"/>
   </g>
   <g stroke-linejoin="bevel" transform="matrix(1,0,0,1,2030.17,842.607)" font-family="MS Shell Dlg 2" stroke-width="7" fill="none" font-size="29.1042" stroke-linecap="round" font-weight="400" font-style="normal" stroke-opacity="1" stroke="#000000">
    <path fill-rule="evenodd" vector-effect="none" d="M1623.05,436.412 L1623.05,-325.599"/>
   </g>
   <g stroke-linejoin="bevel" transform="matrix(1,0,0,1,2030.17,842.607)" font-family="MS Shell Dlg 2" stroke-width="7" fill="none" font-size="29.1042" stroke-linecap="round" font-weight="400" font-style="normal" stroke-opacity="1" stroke="#000000">
    <path fill-rule="evenodd" vector-effect="none" d="M-1139.18,-373.208 L-1329.69,-373.208"/>
   </g>
   <g stroke-linejoin="bevel" transform="matrix(1,0,0,1,2030.17,842.607)" font-family="MS Shell Dlg 2" stroke-width="7" fill="none" font-size="29.1042" stroke-linecap="round" font-weight="400" font-style="normal" stroke-opacity="1" stroke="#000000">
    <path fill-rule="evenodd" vector-effect="none" d="M-1139.18,-563.728 L-1139.18,-373.208"/>
   </g>
   <g stroke-linejoin="bevel" transform="matrix(1,0,0,1,2030.17,842.607)" font-family="MS Shell Dlg 2" stroke-width="7" fill="none" font-size="29.1042" stroke-linecap="round" font-weight="400" font-style="normal" stroke-opacity="1" stroke="#000000">
    <path fill-rule="evenodd" vector-effect="none" d="M-1329.69,-563.728 L-1139.18,-563.728"/>
   </g>
   <g stroke-linejoin="bevel" transform="matrix(1,0,0,1,2030.17,842.607)" font-family="MS Shell Dlg 2" stroke-width="7" fill="none" font-size="29.1042" stroke-linecap="round" font-weight="400" font-style="normal" stroke-opacity="1" stroke="#000000">
    <path fill-rule="evenodd" vector-effect="none" d="M-1329.69,-373.208 L-1329.69,-563.728"/>
   </g>
   <g stroke-linejoin="bevel" transform="matrix(1,0,0,1,2030.17,842.607)" font-family="MS Shell Dlg 2" stroke-width="7" fill="none" font-size="29.1042" stroke-linecap="round" font-weight="400" font-style="normal" stroke-opacity="1" stroke="#000000">
    <path fill-rule="evenodd" vector-effect="none" d="M-1923.78,-755.563 C-1923.78,-749.764 -1928.48,-745.063 -1934.28,-745.063 C-1940.08,-745.063 -1944.78,-749.764 -1944.78,-755.563 C-1944.78,-761.361 -1940.08,-766.063 -1934.28,-766.063 C-1928.48,-766.063 -1923.78,-761.361 -1923.78,-755.563 "/>
   </g>
   <g stroke-linejoin="bevel" transform="matrix(1,0,0,1,2030.17,842.607)" font-family="MS Shell Dlg 2" stroke-width="7" fill="none" font-size="29.1042" stroke-linecap="round" font-weight="400" font-style="normal" stroke-opacity="1" stroke="#000000">
    <path fill-rule="evenodd" vector-effect="none" d="M-1150.66,-755.563 C-1150.66,-749.764 -1155.36,-745.063 -1161.16,-745.063 C-1166.96,-745.063 -1171.66,-749.764 -1171.66,-755.563 C-1171.66,-761.361 -1166.96,-766.063 -1161.16,-766.063 C-1155.36,-766.063 -1150.66,-761.361 -1150.66,-755.563 "/>
   </g>
   <g stroke-linejoin="bevel" transform="matrix(1,0,0,1,2030.17,842.607)" font-family="MS Shell Dlg 2" stroke-width="7" fill="none" font-size="29.1042" stroke-linecap="round" font-weight="400" font-style="normal" stroke-opacity="1" stroke="#000000">
    <path fill-rule="evenodd" vector-effect="none" d="M-329.546,-373.208 L-1091.57,-373.208"/>
   </g>
   <g stroke-linejoin="bevel" transform="matrix(1,0,0,1,2030.17,842.607)" font-family="MS Shell Dlg 2" stroke-width="7" fill="none" font-size="29.1042" stroke-linecap="round" font-weight="400" font-style="normal" stroke-opacity="1" stroke="#000000">
    <path fill-rule="evenodd" vector-effect="none" d="M-329.546,-563.728 L-329.546,-373.208"/>
   </g>
   <g stroke-linejoin="bevel" transform="matrix(1,0,0,1,2030.17,842.607)" font-family="MS Shell Dlg 2" stroke-width="7" fill="none" font-size="29.1042" stroke-linecap="round" font-weight="400" font-style="normal" stroke-opacity="1" stroke="#000000">
    <path fill-rule="evenodd" vector-effect="none" d="M-1091.57,-563.728 L-329.546,-563.728"/>
   </g>
   <g stroke-linejoin="bevel" transform="matrix(1,0,0,1,2030.17,842.607)" font-family="MS Shell Dlg 2" stroke-width="7" fill="none" font-size="29.1042" stroke-linecap="round" font-weight="400" font-style="normal" stroke-opacity="1" stroke="#000000">
    <path fill-rule="evenodd" vector-effect="none" d="M-1091.57,-373.208 L-1091.57,-563.728"/>
   </g>
   <g stroke-linejoin="bevel" transform="matrix(1,0,0,1,2030.17,842.607)" font-family="MS Shell Dlg 2" stroke-width="7" fill="none" font-size="29.1042" stroke-linecap="round" font-weight="400" font-style="normal" stroke-opacity="1" stroke="#000000">
    <path fill-rule="evenodd" vector-effect="none" d="M-377.541,-755.563 C-377.541,-749.764 -382.242,-745.063 -388.041,-745.063 C-393.84,-745.063 -398.541,-749.764 -398.541,-755.563 C-398.541,-761.361 -393.84,-766.063 -388.041,-766.063 C-382.242,-766.063 -377.541,-761.361 -377.541,-755.563 "/>
   </g>
   <g stroke-linejoin="bevel" transform="matrix(1,0,0,1,2030.17,842.607)" font-family="MS Shell Dlg 2" stroke-width="7" fill="none" font-size="29.1042" stroke-linecap="round" font-weight="400" font-style="normal" stroke-opacity="1" stroke="#000000">
    <path fill-rule="evenodd" vector-effect="none" d="M480.074,-373.208 L-281.945,-373.208"/>
   </g>
   <g stroke-linejoin="bevel" transform="matrix(1,0,0,1,2030.17,842.607)" font-family="MS Shell Dlg 2" stroke-width="7" fill="none" font-size="29.1042" stroke-linecap="round" font-weight="400" font-style="normal" stroke-opacity="1" stroke="#000000">
    <path fill-rule="evenodd" vector-effect="none" d="M480.074,-563.728 L480.074,-373.208"/>
   </g>
   <g stroke-linejoin="bevel" transform="matrix(1,0,0,1,2030.17,842.607)" font-family="MS Shell Dlg 2" stroke-width="7" fill="none" font-size="29.1042" stroke-linecap="round" font-weight="400" font-style="normal" stroke-opacity="1" stroke="#000000">
    <path fill-rule="evenodd" vector-effect="none" d="M-281.945,-563.728 L480.074,-563.728"/>
   </g>
   <g stroke-linejoin="bevel" transform="matrix(1,0,0,1,2030.17,842.607)" font-family="MS Shell Dlg 2" stroke-width="7" fill="none" font-size="29.1042" stroke-linecap="round" font-weight="400" font-style="normal" stroke-opacity="1" stroke="#000000">
    <path fill-rule="evenodd" vector-effect="none" d="M-281.945,-373.208 L-281.945,-563.728"/>
   </g>
   <g stroke-linejoin="bevel" transform="matrix(1,0,0,1,2030.17,842.607)" font-family="MS Shell Dlg 2" stroke-width="7" fill="none" font-size="29.1042" stroke-linecap="round" font-weight="400" font-style="normal" stroke-opacity="1" stroke="#000000">
    <path fill-rule="evenodd" vector-effect="none" d="M1289.7,-373.208 L527.683,-373.208"/>
   </g>
   <g stroke-linejoin="bevel" transform="matrix(1,0,0,1,2030.17,842.607)" font-family="MS Shell Dlg 2" stroke-width="7" fill="none" font-size="29.1042" stroke-linecap="round" font-weight="400" font-style="normal" stroke-opacity="1" stroke="#000000">
    <path fill-rule="evenodd" vector-effect="none" d="M1289.7,-563.728 L1289.7,-373.208"/>
   </g>
   <g stroke-linejoin="bevel" transform="matrix(1,0,0,1,2030.17,842.607)" font-family="MS Shell Dlg 2" stroke-width="7" fill="none" font-size="29.1042" stroke-linecap="round" font-weight="400" font-style="normal" stroke-opacity="1" stroke="#000000">
    <path fill-rule="evenodd" vector-effect="none" d="M527.683,-563.728 L1289.7,-563.728"/>
   </g>
   <g stroke-linejoin="bevel" transform="matrix(1,0,0,1,2030.17,842.607)" font-family="MS Shell Dlg 2" stroke-width="7" fill="none" font-size="29.1042" stroke-linecap="round" font-weight="400" font-style="normal" stroke-opacity="1" stroke="#000000">
    <path fill-rule="evenodd" vector-effect="none" d="M527.683,-373.208 L527.683,-563.728"/>
   </g>
   <g stroke-linejoin="bevel" transform="matrix(1,0,0,1,2030.17,842.607)" font-family="MS Shell Dlg 2" stroke-width="7" fill="none" font-size="29.1042" stroke-linecap="round" font-weight="400" font-style="normal" stroke-opacity="1" stroke="#000000">
    <path fill-rule="evenodd" vector-effect="none" d="M398.541,-755.563 C398.541,-749.764 393.84,-745.063 388.041,-745.063 C382.242,-745.063 377.541,-749.764 377.541,-755.563 C377.541,-761.361 382.242,-766.063 388.041,-766.063 C393.84,-766.063 398.541,-761.361 398.541,-755.563 "/>
   </g>
   <g stroke-linejoin="bevel" transform="matrix(1,0,0,1,2030.17,842.607)" font-family="MS Shell Dlg 2" stroke-width="7" fill="none" font-size="29.1042" stroke-linecap="round" font-weight="400" font-style="normal" stroke-opacity="1" stroke="#000000">
    <path fill-rule="evenodd" vector-effect="none" d="M1527.82,-373.208 L1337.3,-373.208"/>
   </g>
   <g stroke-linejoin="bevel" transform="matrix(1,0,0,1,2030.17,842.607)" font-family="MS Shell Dlg 2" stroke-width="7" fill="none" font-size="29.1042" stroke-linecap="round" font-weight="400" font-style="normal" stroke-opacity="1" stroke="#000000">
    <path fill-rule="evenodd" vector-effect="none" d="M1527.82,-563.728 L1527.82,-373.208"/>
   </g>
   <g stroke-linejoin="bevel" transform="matrix(1,0,0,1,2030.17,842.607)" font-family="MS Shell Dlg 2" stroke-width="7" fill="none" font-size="29.1042" stroke-linecap="round" font-weight="400" font-style="normal" stroke-opacity="1" stroke="#000000">
    <path fill-rule="evenodd" vector-effect="none" d="M1337.3,-563.728 L1527.82,-563.728"/>
   </g>
   <g stroke-linejoin="bevel" transform="matrix(1,0,0,1,2030.17,842.607)" font-family="MS Shell Dlg 2" stroke-width="7" fill="none" font-size="29.1042" stroke-linecap="round" font-weight="400" font-style="normal" stroke-opacity="1" stroke="#000000">
    <path fill-rule="evenodd" vector-effect="none" d="M1337.3,-373.208 L1337.3,-563.728"/>
   </g>
   <g stroke-linejoin="bevel" transform="matrix(1,0,0,1,2030.17,842.607)" font-family="MS Shell Dlg 2" stroke-width="7" fill="none" font-size="29.1042" stroke-linecap="round" font-weight="400" font-style="normal" stroke-opacity="1" stroke="#000000">
    <path fill-rule="evenodd" vector-effect="none" d="M1813.57,-373.208 L1623.05,-373.208"/>
   </g>
   <g stroke-linejoin="bevel" transform="matrix(1,0,0,1,2030.17,842.607)" font-family="MS Shell Dlg 2" stroke-width="7" fill="none" font-size="29.1042" stroke-linecap="round" font-weight="400" font-style="normal" stroke-opacity="1" stroke="#000000">
    <path fill-rule="evenodd" vector-effect="none" d="M1813.57,-563.728 L1813.57,-373.208"/>
   </g>
   <g stroke-linejoin="bevel" transform="matrix(1,0,0,1,2030.17,842.607)" font-family="MS Shell Dlg 2" stroke-width="7" fill="none" font-size="29.1042" stroke-linecap="round" font-weight="400" font-style="normal" stroke-opacity="1" stroke="#000000">
    <path fill-rule="evenodd" vector-effect="none" d="M1623.05,-563.728 L1813.57,-563.728"/>
   </g>
   <g stroke-linejoin="bevel" transform="matrix(1,0,0,1,2030.17,842.607)" font-family="MS Shell Dlg 2" stroke-width="7" fill="none" font-size="29.1042" stroke-linecap="round" font-weight="400" font-style="normal" stroke-opacity="1" stroke="#000000">
    <path fill-rule="evenodd" vector-effect="none" d="M1623.05,-373.208 L1623.05,-563.728"/>
   </g>
   <g stroke-linejoin="bevel" transform="matrix(1,0,0,1,2030.17,842.607)" font-family="MS Shell Dlg 2" stroke-width="7" fill="none" font-size="29.1042" stroke-linecap="round" font-weight="400" font-style="normal" stroke-opacity="1" stroke="#000000">
    <path fill-rule="evenodd" vector-effect="none" d="M1171.66,-755.563 C1171.66,-749.764 1166.96,-745.063 1161.16,-745.063 C1155.36,-745.063 1150.66,-749.764 1150.66,-755.563 C1150.66,-761.361 1155.36,-766.063 1161.16,-766.063 C1166.96,-766.063 1171.66,-761.361 1171.66,-755.563 "/>
   </g>
   <g stroke-linejoin="bevel" transform="matrix(1,0,0,1,2030.17,842.607)" font-family="MS Shell Dlg 2" stroke-width="7" fill="none" font-size="29.1042" stroke-linecap="round" font-weight="400" font-style="normal" stroke-opacity="1" stroke="#000000">
    <path fill-rule="evenodd" vector-effect="none" d="M1944.78,-755.563 C1944.78,-749.764 1940.08,-745.063 1934.28,-745.063 C1928.48,-745.063 1923.78,-749.764 1923.78,-755.563 C1923.78,-761.361 1928.48,-766.063 1934.28,-766.063 C1940.08,-766.063 1944.78,-761.361 1944.78,-755.563 "/>
   </g>
  </g>
 </g>
</svg>
