999
FreeCAD v0.20 29177 +426 (Git)
  0
SECTION
  2
HEADER
  9
$ACADVER
  1
AC1014
  9
$ACADMAINTVER
 70
     9
  9
$DWGCODEPAGE
  3
ANSI_1252
  9
$TEXTSTYLE
  7
STANDARD
  9
$DIMSTYLE
  2
STANDARD
  9
$DIMTXSTY
  7
STANDARD
  9
$CMLSTYLE
  2
STANDARD
  9
$LUNITS
 70
2
  9
$INSUNITS
 70
4
  9
$PEXTMAX
 10
50
 20
50
 30
50
  9
$PEXTMIN
 10
0
 20
0
 30
0
  9
$HANDSEED
  5
FFFF
  0
ENDSEC
  0
SECTION
  2
CLASSES
  0
CLASS
  1
ACDBDICTIONARYWDFLT
  2
AcDbDictionaryWithDefault
  3
ObjectDBX Classes
 90
        0
280
     0
281
     0
  0
CLASS
  1
XRECORD
  2
AcDbXrecord
  3
ObjectDBX Classes
 90
        0
280
     0
281
     0
  0
CLASS
  1
LWPOLYLINE
  2
AcDbPolyline
  3
ObjectDBX Classes
 90
        0
280
     0
281
     1
  0
ENDSEC
  0
SECTION
  2
TABLES
  0
TABLE
  2
VPORT
  5
20
330
0
100
AcDbSymbolTable
 70
     1
  0
VPORT
  5
21
330
20
100
AcDbSymbolTableRecord
100
AcDbViewportTableRecord
  2
*ACTIVE
 70
     0
  0
ENDTAB
  0
TABLE
  2
LTYPE
  5
22
330
0
100
AcDbSymbolTable
 70
     1
  0
LTYPE
  5
23
330
21
100
AcDbSymbolTableRecord
100
AcDbLinetypeTableRecord
  2
BYBLOCK
 70
     0
  3

 72
    65
 73
     0
 40
0.0
  0
LTYPE
  5
24
330
21
100
AcDbSymbolTableRecord
100
AcDbLinetypeTableRecord
  2
BYLAYER
 70
     0
  3

 72
    65
 73
     0
 40
0.0
  0
LTYPE
  5
25
330
21
100
AcDbSymbolTableRecord
100
AcDbLinetypeTableRecord
  2
CONTINUOUS
 70
     0
  3
Solid line
 72
    65
 73
     0
 40
0.0
  0
ENDTAB
  0
TABLE
  2
LAYER
  5
B25
330
0
100
AcDbSymbolTable
 70
10
  0
LAYER
  5
B26
330
B25
100
AcDbSymbolTableRecord
100
AcDbLayerTableRecord
  2
0
 70
   0
 62
   7
  6
CONTINUOUS
  0
LAYER
  5
B27
330
B25
100
AcDbSymbolTableRecord
100
AcDbLayerTableRecord
  2
View
 70
    0
 62
    7
  6
CONTINUOUS
  0
LAYER
  5
B28
330
B25
100
AcDbSymbolTableRecord
100
AcDbLayerTableRecord
  2
View001
 70
    0
 62
    7
  6
CONTINUOUS
  0
LAYER
  5
B29
330
B25
100
AcDbSymbolTableRecord
100
AcDbLayerTableRecord
  2
View002
 70
    0
 62
    7
  6
CONTINUOUS
  0
LAYER
  5
B2A
330
B25
100
AcDbSymbolTableRecord
100
AcDbLayerTableRecord
  2
View003
 70
    0
 62
    7
  6
CONTINUOUS
  0
LAYER
  5
B2B
330
B25
100
AcDbSymbolTableRecord
100
AcDbLayerTableRecord
  2
View004
 70
    0
 62
    7
  6
CONTINUOUS
  0
LAYER
  5
B2C
330
B25
100
AcDbSymbolTableRecord
100
AcDbLayerTableRecord
  2
View005
 70
    0
 62
    7
  6
CONTINUOUS
  0
LAYER
  5
B2D
330
B25
100
AcDbSymbolTableRecord
100
AcDbLayerTableRecord
  2
View006
 70
    0
 62
    7
  6
CONTINUOUS
  0
LAYER
  5
B2E
330
B25
100
AcDbSymbolTableRecord
100
AcDbLayerTableRecord
  2
View007
 70
    0
 62
    7
  6
CONTINUOUS
  0
LAYER
  5
B2F
330
B25
100
AcDbSymbolTableRecord
100
AcDbLayerTableRecord
  2
View008
 70
    0
 62
    7
  6
CONTINUOUS
  0
ENDTAB
  0
TABLE
  2
STYLE
  5
70
330
0
100
AcDbSymbolTable
 70
     2
  0
STYLE
  5
71
330
70
100
AcDbSymbolTableRecord
100
AcDbTextStyleTableRecord
  2
STANDARD
 70
     0
 40
0.0
 41
1.0
 50
0.0
 71
     0
 42
2.5
  3
arial.ttf
  4

  0
STYLE
  5
72
330
70
100
AcDbSymbolTableRecord
100
AcDbTextStyleTableRecord
  2
ANNOTATIVE
 70
     0
 40
0.0
 41
1.0
 50
0.0
 71
     0
 42
2.5
  3
arial.ttf
  4

  0
ENDTAB
  0
TABLE
  2
VIEW
  5
73
330
0
100
AcDbSymbolTable
 70
     0
  0
ENDTAB
  0
TABLE
  2
UCS
  5
74
330
0
100
AcDbSymbolTable
 70
     0
  0
ENDTAB
  0
TABLE
  2
APPID
  5
75
330
0
100
AcDbSymbolTable
 70
     2
  0
APPID
  5
76
330
75
100
AcDbSymbolTableRecord
100
AcDbRegAppTableRecord
  2
ACAD
 70
     0
  0
APPID
  5
77
330
75
100
AcDbSymbolTableRecord
100
AcDbRegAppTableRecord
  2
ACADANNOTATIVE
 70
     0
  0
ENDTAB
  0
TABLE
  2
DIMSTYLE
  5
78
330
0
100
AcDbSymbolTable
 70
     2
  0
DIMSTYLE
105
79
330
78
100
AcDbSymbolTableRecord
100
AcDbDimStyleTableRecord
  2
STANDARD
 70
     0
  3

  4

  5

  6

  7

 40
0.0
 41
2.5
 42
0.625
 43
3.75
 44
1.25
 45
0.0
 46
0.0
 47
0.0
 48
0.0
140
2.5
141
2.5
142
0.0
143
0.03937007874016
144
1.0
145
0.0
146
1.0
147
0.625
 71
     0
 72
     0
 73
     0
 74
     0
 75
     0
 76
     0
 77
     1
 78
     8
170
     0
171
     3
172
     1
173
     0
174
     0
175
     0
176
     0
177
     0
178
     0
270
     2
271
     2
272
     2
273
     2
274
     3
340
71
275
     0
280
     0
281
     0
282
     0
283
     0
284
     8
285
     0
286
     0
287
     3
288
     0
  0
ENDTAB
  0
TABLE
  2
BLOCK_RECORD
  5
A01
330
0
100
AcDbSymbolTable
  70
5
  0
BLOCK_RECORD
  5
A02
330
A01
100
AcDbSymbolTableRecord
100
AcDbBlockTableRecord
  2
*MODEL_SPACE
  0
BLOCK_RECORD
  5
A03
330
A01
100
AcDbSymbolTableRecord
100
AcDbBlockTableRecord
  2
*PAPER_SPACE
  0
ENDTAB
  0
ENDSEC
  0
SECTION
  2
BLOCKS
  0
BLOCK
  5
A04
330
A02
100
AcDbEntity
  8
0
100
AcDbBlockBegin
  2
*MODEL_SPACE
 70
   0
 10
0
 20
0
 30
0
  3
*MODEL_SPACE
  1
 
  0
ENDBLK
  5
A05
330
A02
100
AcDbEntity
  8
0
100
AcDbBlockEnd
  0
BLOCK
  5
A06
330
A03
100
AcDbEntity
 67
1
  8
0
100
AcDbBlockBegin
  2
*PAPER_SPACE
 70
   0
 10
0
 20
0
 30
0
  3
*PAPER_SPACE
  1
 
  0
ENDBLK
  5
A07
330
A03
100
AcDbEntity
 67
    1
  8
0
100
AcDbBlockEnd
  0
ENDSEC
  0
SECTION
  2
ENTITIES
  0
LINE
  5
A08
330
A02
100
AcDbEntity
  8
View
100
AcDbLine
 10
19.1822
 20
578.712
 30
0
 11
409.028
 21
577.913
 31
0
  0
LINE
  5
A09
330
A02
100
AcDbEntity
  8
View
100
AcDbLine
 10
19.1611
 20
578.691
 30
0
 11
409.007
 21
577.892
 31
0
  0
ELLIPSE
  5
A0A
330
A02
100
AcDbEntity
  8
View
100
AcDbEllipse
 10
19.1752
 20
575.212
 30
0
 11
-2.46986
 21
2.47988
 31
0
 40
0.999951
 41
5.49779
 42
0
  0
ELLIPSE
  5
A0B
330
A02
100
AcDbEntity
  8
View
100
AcDbEllipse
 10
19.1541
 20
575.191
 30
0
 11
-2.46986
 21
2.47988
 31
0
 40
0.999951
 41
5.49779
 42
0
  0
ELLIPSE
  5
A0C
330
A02
100
AcDbEntity
  8
View
100
AcDbEllipse
 10
19.1541
 20
575.191
 30
0
 11
-2.46986
 21
2.47988
 31
0
 40
0.999951
 41
0
 42
0.785398
  0
ELLIPSE
  5
A0D
330
A02
100
AcDbEntity
  8
View
100
AcDbEllipse
 10
409.021
 20
574.413
 30
0
 11
-2.46986
 21
2.47988
 31
0
 40
0.999951
 41
3.92699
 42
5.49779
  0
ELLIPSE
  5
A0E
330
A02
100
AcDbEntity
  8
View
100
AcDbEllipse
 10
409
 20
574.392
 30
0
 11
-2.46986
 21
2.47988
 31
0
 40
0.999951
 41
3.92699
 42
5.49779
  0
LINE
  5
A0F
330
A02
100
AcDbEntity
  8
View
100
AcDbLine
 10
412.521
 20
574.406
 30
0
 11
412.213
 21
420.297
 31
0
  0
ELLIPSE
  5
A10
330
A02
100
AcDbEntity
  8
View
100
AcDbEllipse
 10
408.713
 20
420.305
 30
0
 11
-2.46986
 21
2.47988
 31
0
 40
0.999951
 41
3.14159
 42
3.92699
  0
ELLIPSE
  5
A11
330
A02
100
AcDbEntity
  8
View
100
AcDbEllipse
 10
20.3699
 20
422.6
 30
0
 11
0.740958
 21
-0.743964
 31
0
 40
0.999951
 41
-3.12745
 42
-0.0141426
  0
ELLIPSE
  5
A12
330
A02
100
AcDbEntity
  8
View
100
AcDbEllipse
 10
97.6799
 20
422.442
 30
0
 11
0.740958
 21
-0.743964
 31
0
 40
0.999951
 41
-3.12745
 42
-0.0141426
  0
ELLIPSE
  5
A13
330
A02
100
AcDbEntity
  8
View
100
AcDbEllipse
 10
174.99
 20
422.283
 30
0
 11
0.740958
 21
-0.743964
 31
0
 40
0.999951
 41
-3.12745
 42
-0.0141426
  0
ELLIPSE
  5
A14
330
A02
100
AcDbEntity
  8
View
100
AcDbEllipse
 10
252.596
 20
422.124
 30
0
 11
0.740958
 21
-0.743964
 31
0
 40
0.999951
 41
-3.12745
 42
-0.0141426
  0
ELLIPSE
  5
A15
330
A02
100
AcDbEntity
  8
View
100
AcDbEllipse
 10
329.906
 20
421.966
 30
0
 11
0.740958
 21
-0.743964
 31
0
 40
0.999951
 41
-3.12745
 42
-0.0141426
  0
ELLIPSE
  5
A16
330
A02
100
AcDbEntity
  8
View
100
AcDbEllipse
 10
407.216
 20
421.808
 30
0
 11
0.740958
 21
-0.743964
 31
0
 40
0.999951
 41
-3.12745
 42
-0.0141426
  0
ELLIPSE
  5
A17
330
A02
100
AcDbEntity
  8
View
100
AcDbEllipse
 10
49.0334
 20
540.595
 30
0
 11
-0.740958
 21
0.743964
 31
0
 40
0.999951
 41
0.0141426
 42
3.12745
  0
ELLIPSE
  5
A18
330
A02
100
AcDbEntity
  8
View
100
AcDbEllipse
 10
20.6721
 20
573.709
 30
0
 11
0.740958
 21
-0.743964
 31
0
 40
0.999951
 41
-3.12745
 42
-0.0141426
  0
ELLIPSE
  5
A19
330
A02
100
AcDbEntity
  8
View
100
AcDbEllipse
 10
97.9821
 20
573.55
 30
0
 11
0.740958
 21
-0.743964
 31
0
 40
0.999951
 41
-3.12745
 42
-0.0141426
  0
ELLIPSE
  5
A1A
330
A02
100
AcDbEntity
  8
View
100
AcDbEllipse
 10
159.03
 20
540.37
 30
0
 11
-0.740958
 21
0.743964
 31
0
 40
0.999951
 41
0.0141426
 42
3.12745
  0
ELLIPSE
  5
A1B
330
A02
100
AcDbEntity
  8
View
100
AcDbEllipse
 10
175.292
 20
573.392
 30
0
 11
0.740958
 21
-0.743964
 31
0
 40
0.999951
 41
-3.12745
 42
-0.0141426
  0
ELLIPSE
  5
A1C
330
A02
100
AcDbEntity
  8
View
100
AcDbEllipse
 10
269.028
 20
540.144
 30
0
 11
-0.740958
 21
0.743964
 31
0
 40
0.999951
 41
0.0141426
 42
3.12745
  0
ELLIPSE
  5
A1D
330
A02
100
AcDbEntity
  8
View
100
AcDbEllipse
 10
252.898
 20
573.233
 30
0
 11
0.740958
 21
-0.743964
 31
0
 40
0.999951
 41
-3.12745
 42
-0.0141426
  0
ELLIPSE
  5
A1E
330
A02
100
AcDbEntity
  8
View
100
AcDbEllipse
 10
379.025
 20
539.919
 30
0
 11
-0.740958
 21
0.743964
 31
0
 40
0.999951
 41
0.0141426
 42
3.12745
  0
ELLIPSE
  5
A1F
330
A02
100
AcDbEntity
  8
View
100
AcDbEllipse
 10
330.208
 20
573.075
 30
0
 11
0.740958
 21
-0.743964
 31
0
 40
0.999951
 41
-3.12745
 42
-0.0141426
  0
ELLIPSE
  5
A20
330
A02
100
AcDbEntity
  8
View
100
AcDbEllipse
 10
407.518
 20
572.916
 30
0
 11
0.740958
 21
-0.743964
 31
0
 40
0.999951
 41
-3.12745
 42
-0.0141426
  0
LINE
  5
A21
330
A02
100
AcDbEntity
  8
View
100
AcDbLine
 10
15.346
 20
421.09
 30
0
 11
15.6542
 21
575.198
 31
0
  0
LINE
  5
A22
330
A02
100
AcDbEntity
  8
View
100
AcDbLine
 10
412.5
 20
574.385
 30
0
 11
412.192
 21
420.277
 31
0
  0
ELLIPSE
  5
A23
330
A02
100
AcDbEntity
  8
View
100
AcDbEllipse
 10
18.8459
 20
421.082
 30
0
 11
-2.46986
 21
2.47988
 31
0
 40
0.999951
 41
0.785398
 42
2.35619
  0
ELLIPSE
  5
A24
330
A02
100
AcDbEntity
  8
View
100
AcDbEllipse
 10
408.692
 20
420.284
 30
0
 11
-2.46986
 21
2.47988
 31
0
 40
0.999951
 41
2.35619
 42
3.14159
  0
ELLIPSE
  5
A25
330
A02
100
AcDbEntity
  8
View
100
AcDbEllipse
 10
408.692
 20
420.284
 30
0
 11
-2.46986
 21
2.47988
 31
0
 40
0.999951
 41
3.14159
 42
3.92699
  0
LINE
  5
A26
330
A02
100
AcDbEntity
  8
View
100
AcDbLine
 10
408.685
 20
416.784
 30
0
 11
18.8389
 21
417.583
 31
0
  0
ELLIPSE
  5
A27
330
A02
100
AcDbEntity
  8
View
100
AcDbEllipse
 10
20.3489
 20
422.579
 30
0
 11
0.740958
 21
-0.743964
 31
0
 40
0.999951
 41
-0
 42
-5.49779
  0
ELLIPSE
  5
A28
330
A02
100
AcDbEntity
  8
View
100
AcDbEllipse
 10
20.3489
 20
422.579
 30
0
 11
0.740958
 21
-0.743964
 31
0
 40
0.999951
 41
-3.14159
 42
-3.33067e-16
  0
ELLIPSE
  5
A29
330
A02
100
AcDbEntity
  8
View
100
AcDbEllipse
 10
20.3489
 20
422.579
 30
0
 11
0.740958
 21
-0.743964
 31
0
 40
0.999951
 41
-5.49779
 42
-3.14159
  0
ELLIPSE
  5
A2A
330
A02
100
AcDbEntity
  8
View
100
AcDbEllipse
 10
97.6588
 20
422.421
 30
0
 11
0.740958
 21
-0.743964
 31
0
 40
0.999951
 41
-0
 42
-5.49779
  0
ELLIPSE
  5
A2B
330
A02
100
AcDbEntity
  8
View
100
AcDbEllipse
 10
97.6588
 20
422.421
 30
0
 11
0.740958
 21
-0.743964
 31
0
 40
0.999951
 41
-3.14159
 42
-3.33067e-16
  0
ELLIPSE
  5
A2C
330
A02
100
AcDbEntity
  8
View
100
AcDbEllipse
 10
97.6588
 20
422.421
 30
0
 11
0.740958
 21
-0.743964
 31
0
 40
0.999951
 41
-5.49779
 42
-3.14159
  0
ELLIPSE
  5
A2D
330
A02
100
AcDbEntity
  8
View
100
AcDbEllipse
 10
174.969
 20
422.263
 30
0
 11
0.740958
 21
-0.743964
 31
0
 40
0.999951
 41
-0
 42
-5.49779
  0
ELLIPSE
  5
A2E
330
A02
100
AcDbEntity
  8
View
100
AcDbEllipse
 10
174.969
 20
422.263
 30
0
 11
0.740958
 21
-0.743964
 31
0
 40
0.999951
 41
-3.14159
 42
-3.33067e-16
  0
ELLIPSE
  5
A2F
330
A02
100
AcDbEntity
  8
View
100
AcDbEllipse
 10
174.969
 20
422.263
 30
0
 11
0.740958
 21
-0.743964
 31
0
 40
0.999951
 41
-5.49779
 42
-3.14159
  0
ELLIPSE
  5
A30
330
A02
100
AcDbEntity
  8
View
100
AcDbEllipse
 10
252.575
 20
422.104
 30
0
 11
0.740958
 21
-0.743964
 31
0
 40
0.999951
 41
-0
 42
-5.49779
  0
ELLIPSE
  5
A31
330
A02
100
AcDbEntity
  8
View
100
AcDbEllipse
 10
252.575
 20
422.104
 30
0
 11
0.740958
 21
-0.743964
 31
0
 40
0.999951
 41
-3.14159
 42
-3.33067e-16
  0
ELLIPSE
  5
A32
330
A02
100
AcDbEntity
  8
View
100
AcDbEllipse
 10
252.575
 20
422.104
 30
0
 11
0.740958
 21
-0.743964
 31
0
 40
0.999951
 41
-5.49779
 42
-3.14159
  0
ELLIPSE
  5
A33
330
A02
100
AcDbEntity
  8
View
100
AcDbEllipse
 10
329.885
 20
421.945
 30
0
 11
0.740958
 21
-0.743964
 31
0
 40
0.999951
 41
-0
 42
-5.49779
  0
ELLIPSE
  5
A34
330
A02
100
AcDbEntity
  8
View
100
AcDbEllipse
 10
329.885
 20
421.945
 30
0
 11
0.740958
 21
-0.743964
 31
0
 40
0.999951
 41
-3.14159
 42
-3.33067e-16
  0
ELLIPSE
  5
A35
330
A02
100
AcDbEntity
  8
View
100
AcDbEllipse
 10
329.885
 20
421.945
 30
0
 11
0.740958
 21
-0.743964
 31
0
 40
0.999951
 41
-5.49779
 42
-3.14159
  0
ELLIPSE
  5
A36
330
A02
100
AcDbEntity
  8
View
100
AcDbEllipse
 10
407.195
 20
421.787
 30
0
 11
0.740958
 21
-0.743964
 31
0
 40
0.999951
 41
-0
 42
-5.49779
  0
ELLIPSE
  5
A37
330
A02
100
AcDbEntity
  8
View
100
AcDbEllipse
 10
407.195
 20
421.787
 30
0
 11
0.740958
 21
-0.743964
 31
0
 40
0.999951
 41
-3.14159
 42
-3.33067e-16
  0
ELLIPSE
  5
A38
330
A02
100
AcDbEntity
  8
View
100
AcDbEllipse
 10
407.195
 20
421.787
 30
0
 11
0.740958
 21
-0.743964
 31
0
 40
0.999951
 41
-5.49779
 42
-3.14159
  0
ELLIPSE
  5
A39
330
A02
100
AcDbEntity
  8
View
100
AcDbEllipse
 10
49.0123
 20
540.574
 30
0
 11
-0.740958
 21
0.743964
 31
0
 40
0.999951
 41
3.92699
 42
0
  0
ELLIPSE
  5
A3A
330
A02
100
AcDbEntity
  8
View
100
AcDbEllipse
 10
49.0123
 20
540.574
 30
0
 11
-0.740958
 21
0.743964
 31
0
 40
0.999951
 41
0
 42
3.14159
  0
ELLIPSE
  5
A3B
330
A02
100
AcDbEntity
  8
View
100
AcDbEllipse
 10
49.0123
 20
540.574
 30
0
 11
-0.740958
 21
0.743964
 31
0
 40
0.999951
 41
3.14159
 42
3.92699
  0
ELLIPSE
  5
A3C
330
A02
100
AcDbEntity
  8
View
100
AcDbEllipse
 10
20.6511
 20
573.688
 30
0
 11
0.740958
 21
-0.743964
 31
0
 40
0.999951
 41
-0
 42
-5.49779
  0
ELLIPSE
  5
A3D
330
A02
100
AcDbEntity
  8
View
100
AcDbEllipse
 10
20.6511
 20
573.688
 30
0
 11
0.740958
 21
-0.743964
 31
0
 40
0.999951
 41
-3.14159
 42
-3.33067e-16
  0
ELLIPSE
  5
A3E
330
A02
100
AcDbEntity
  8
View
100
AcDbEllipse
 10
20.6511
 20
573.688
 30
0
 11
0.740958
 21
-0.743964
 31
0
 40
0.999951
 41
-5.49779
 42
-3.14159
  0
ELLIPSE
  5
A3F
330
A02
100
AcDbEntity
  8
View
100
AcDbEllipse
 10
97.961
 20
573.529
 30
0
 11
0.740958
 21
-0.743964
 31
0
 40
0.999951
 41
-0
 42
-5.49779
  0
ELLIPSE
  5
A40
330
A02
100
AcDbEntity
  8
View
100
AcDbEllipse
 10
97.961
 20
573.529
 30
0
 11
0.740958
 21
-0.743964
 31
0
 40
0.999951
 41
-3.14159
 42
-3.33067e-16
  0
ELLIPSE
  5
A41
330
A02
100
AcDbEntity
  8
View
100
AcDbEllipse
 10
97.961
 20
573.529
 30
0
 11
0.740958
 21
-0.743964
 31
0
 40
0.999951
 41
-5.49779
 42
-3.14159
  0
ELLIPSE
  5
A42
330
A02
100
AcDbEntity
  8
View
100
AcDbEllipse
 10
159.009
 20
540.349
 30
0
 11
-0.740958
 21
0.743964
 31
0
 40
0.999951
 41
3.92699
 42
0
  0
ELLIPSE
  5
A43
330
A02
100
AcDbEntity
  8
View
100
AcDbEllipse
 10
159.009
 20
540.349
 30
0
 11
-0.740958
 21
0.743964
 31
0
 40
0.999951
 41
0
 42
3.14159
  0
ELLIPSE
  5
A44
330
A02
100
AcDbEntity
  8
View
100
AcDbEllipse
 10
159.009
 20
540.349
 30
0
 11
-0.740958
 21
0.743964
 31
0
 40
0.999951
 41
3.14159
 42
3.92699
  0
ELLIPSE
  5
A45
330
A02
100
AcDbEntity
  8
View
100
AcDbEllipse
 10
175.271
 20
573.371
 30
0
 11
0.740958
 21
-0.743964
 31
0
 40
0.999951
 41
-0
 42
-5.49779
  0
ELLIPSE
  5
A46
330
A02
100
AcDbEntity
  8
View
100
AcDbEllipse
 10
175.271
 20
573.371
 30
0
 11
0.740958
 21
-0.743964
 31
0
 40
0.999951
 41
-3.14159
 42
-3.33067e-16
  0
ELLIPSE
  5
A47
330
A02
100
AcDbEntity
  8
View
100
AcDbEllipse
 10
175.271
 20
573.371
 30
0
 11
0.740958
 21
-0.743964
 31
0
 40
0.999951
 41
-5.49779
 42
-3.14159
  0
ELLIPSE
  5
A48
330
A02
100
AcDbEntity
  8
View
100
AcDbEllipse
 10
269.006
 20
540.123
 30
0
 11
-0.740958
 21
0.743964
 31
0
 40
0.999951
 41
3.92699
 42
0
  0
ELLIPSE
  5
A49
330
A02
100
AcDbEntity
  8
View
100
AcDbEllipse
 10
269.006
 20
540.123
 30
0
 11
-0.740958
 21
0.743964
 31
0
 40
0.999951
 41
0
 42
3.14159
  0
ELLIPSE
  5
A4A
330
A02
100
AcDbEntity
  8
View
100
AcDbEllipse
 10
269.006
 20
540.123
 30
0
 11
-0.740958
 21
0.743964
 31
0
 40
0.999951
 41
3.14159
 42
3.92699
  0
ELLIPSE
  5
A4B
330
A02
100
AcDbEntity
  8
View
100
AcDbEllipse
 10
252.877
 20
573.212
 30
0
 11
0.740958
 21
-0.743964
 31
0
 40
0.999951
 41
-0
 42
-5.49779
  0
ELLIPSE
  5
A4C
330
A02
100
AcDbEntity
  8
View
100
AcDbEllipse
 10
252.877
 20
573.212
 30
0
 11
0.740958
 21
-0.743964
 31
0
 40
0.999951
 41
-3.14159
 42
-3.33067e-16
  0
ELLIPSE
  5
A4D
330
A02
100
AcDbEntity
  8
View
100
AcDbEllipse
 10
252.877
 20
573.212
 30
0
 11
0.740958
 21
-0.743964
 31
0
 40
0.999951
 41
-5.49779
 42
-3.14159
  0
ELLIPSE
  5
A4E
330
A02
100
AcDbEntity
  8
View
100
AcDbEllipse
 10
379.004
 20
539.898
 30
0
 11
-0.740958
 21
0.743964
 31
0
 40
0.999951
 41
3.92699
 42
0
  0
ELLIPSE
  5
A4F
330
A02
100
AcDbEntity
  8
View
100
AcDbEllipse
 10
379.004
 20
539.898
 30
0
 11
-0.740958
 21
0.743964
 31
0
 40
0.999951
 41
0
 42
3.14159
  0
ELLIPSE
  5
A50
330
A02
100
AcDbEntity
  8
View
100
AcDbEllipse
 10
379.004
 20
539.898
 30
0
 11
-0.740958
 21
0.743964
 31
0
 40
0.999951
 41
3.14159
 42
3.92699
  0
ELLIPSE
  5
A51
330
A02
100
AcDbEntity
  8
View
100
AcDbEllipse
 10
330.187
 20
573.054
 30
0
 11
0.740958
 21
-0.743964
 31
0
 40
0.999951
 41
-0
 42
-5.49779
  0
ELLIPSE
  5
A52
330
A02
100
AcDbEntity
  8
View
100
AcDbEllipse
 10
330.187
 20
573.054
 30
0
 11
0.740958
 21
-0.743964
 31
0
 40
0.999951
 41
-3.14159
 42
-3.33067e-16
  0
ELLIPSE
  5
A53
330
A02
100
AcDbEntity
  8
View
100
AcDbEllipse
 10
330.187
 20
573.054
 30
0
 11
0.740958
 21
-0.743964
 31
0
 40
0.999951
 41
-5.49779
 42
-3.14159
  0
ELLIPSE
  5
A54
330
A02
100
AcDbEntity
  8
View
100
AcDbEllipse
 10
407.497
 20
572.895
 30
0
 11
0.740958
 21
-0.743964
 31
0
 40
0.999951
 41
-0
 42
-5.49779
  0
ELLIPSE
  5
A55
330
A02
100
AcDbEntity
  8
View
100
AcDbEllipse
 10
407.497
 20
572.895
 30
0
 11
0.740958
 21
-0.743964
 31
0
 40
0.999951
 41
-3.14159
 42
-3.33067e-16
  0
ELLIPSE
  5
A56
330
A02
100
AcDbEntity
  8
View
100
AcDbEllipse
 10
407.497
 20
572.895
 30
0
 11
0.740958
 21
-0.743964
 31
0
 40
0.999951
 41
-5.49779
 42
-3.14159
  0
LINE
  5
A57
330
A02
100
AcDbEntity
  8
View
100
AcDbLine
 10
16.6843
 20
577.671
 30
0
 11
16.7053
 21
577.692
 31
0
  0
LINE
  5
A58
330
A02
100
AcDbEntity
  8
View
100
AcDbLine
 10
411.162
 20
417.804
 30
0
 11
411.183
 21
417.825
 31
0
  0
LINE
  5
A59
330
A02
100
AcDbEntity
  8
View
100
AcDbLine
 10
19.1822
 20
578.712
 30
0
 11
19.1611
 21
578.691
 31
0
  0
LINE
  5
A5A
330
A02
100
AcDbEntity
  8
View
100
AcDbLine
 10
409.028
 20
577.913
 30
0
 11
409.007
 21
577.892
 31
0
  0
LINE
  5
A5B
330
A02
100
AcDbEntity
  8
View
100
AcDbLine
 10
412.521
 20
574.406
 30
0
 11
412.5
 21
574.385
 31
0
  0
LINE
  5
A5C
330
A02
100
AcDbEntity
  8
View
100
AcDbLine
 10
412.213
 20
420.297
 30
0
 11
412.192
 21
420.277
 31
0
  0
LINE
  5
A5D
330
A02
100
AcDbEntity
  8
View001
100
AcDbLine
 10
15.5555
 20
247.495
 30
0
 11
15.5555
 21
401.608
 31
0
  0
ARC
  5
A5E
330
A02
100
AcDbEntity
  8
View001
100
AcDbCircle
 10
19.0555
 20
247.495
 30
0
 40
3.5
100
AcDbArc
 50
-180
 51
-90
  0
ARC
  5
A5F
330
A02
100
AcDbEntity
  8
View001
100
AcDbCircle
 10
19.0555
 20
401.608
 30
0
 40
3.5
100
AcDbArc
 50
90
 51
-180
  0
LINE
  5
A60
330
A02
100
AcDbEntity
  8
View001
100
AcDbLine
 10
408.912
 20
243.995
 30
0
 11
19.0555
 21
243.995
 31
0
  0
LINE
  5
A61
330
A02
100
AcDbEntity
  8
View001
100
AcDbLine
 10
19.0555
 20
405.108
 30
0
 11
408.912
 21
405.108
 31
0
  0
ARC
  5
A62
330
A02
100
AcDbEntity
  8
View001
100
AcDbCircle
 10
408.912
 20
247.495
 30
0
 40
3.5
100
AcDbArc
 50
-90
 51
-1.39581e-12
  0
ARC
  5
A63
330
A02
100
AcDbEntity
  8
View001
100
AcDbCircle
 10
408.912
 20
401.608
 30
0
 40
3.5
100
AcDbArc
 50
-1.86108e-12
 51
90
  0
LINE
  5
A64
330
A02
100
AcDbEntity
  8
View001
100
AcDbLine
 10
412.412
 20
401.608
 30
0
 11
412.412
 21
247.495
 31
0
  0
CIRCLE
  5
A65
330
A02
100
AcDbEntity
  8
View001
100
AcDbCircle
 10
20.5555
 20
248.995
 40
1.6
  0
CIRCLE
  5
A66
330
A02
100
AcDbEntity
  8
View001
100
AcDbCircle
 10
97.8675
 20
248.995
 40
1.6
  0
CIRCLE
  5
A67
330
A02
100
AcDbEntity
  8
View001
100
AcDbCircle
 10
175.179
 20
248.995
 40
1.6
  0
CIRCLE
  5
A68
330
A02
100
AcDbEntity
  8
View001
100
AcDbCircle
 10
252.788
 20
248.995
 40
1.6
  0
CIRCLE
  5
A69
330
A02
100
AcDbEntity
  8
View001
100
AcDbCircle
 10
330.1
 20
248.995
 40
1.6
  0
CIRCLE
  5
A6A
330
A02
100
AcDbEntity
  8
View001
100
AcDbCircle
 10
407.412
 20
248.995
 40
1.6
  0
LINE
  5
A6B
330
A02
100
AcDbEntity
  8
View001
100
AcDbLine
 10
25.5555
 20
254.995
 30
0
 11
25.5555
 21
394.108
 31
0
  0
ARC
  5
A6C
330
A02
100
AcDbEntity
  8
View001
100
AcDbCircle
 10
26.5555
 20
254.995
 30
0
 40
1
100
AcDbArc
 50
180
 51
-90
  0
ARC
  5
A6D
330
A02
100
AcDbEntity
  8
View001
100
AcDbCircle
 10
26.5555
 20
394.108
 30
0
 40
1
100
AcDbArc
 50
90
 51
-180
  0
LINE
  5
A6E
330
A02
100
AcDbEntity
  8
View001
100
AcDbLine
 10
401.412
 20
253.995
 30
0
 11
26.5555
 21
253.995
 31
0
  0
LINE
  5
A6F
330
A02
100
AcDbEntity
  8
View001
100
AcDbLine
 10
26.5555
 20
395.108
 30
0
 11
401.412
 21
395.108
 31
0
  0
ARC
  5
A70
330
A02
100
AcDbEntity
  8
View001
100
AcDbCircle
 10
401.412
 20
254.995
 30
0
 40
1
100
AcDbArc
 50
-90
 51
0
  0
ARC
  5
A71
330
A02
100
AcDbEntity
  8
View001
100
AcDbCircle
 10
401.412
 20
394.108
 30
0
 40
1
100
AcDbArc
 50
-3.25689e-12
 51
90
  0
LINE
  5
A72
330
A02
100
AcDbEntity
  8
View001
100
AcDbLine
 10
402.412
 20
394.108
 30
0
 11
402.412
 21
254.995
 31
0
  0
CIRCLE
  5
A73
330
A02
100
AcDbEntity
  8
View001
100
AcDbCircle
 10
20.5555
 20
400.108
 40
1.6
  0
CIRCLE
  5
A74
330
A02
100
AcDbEntity
  8
View001
100
AcDbCircle
 10
97.8675
 20
400.108
 40
1.6
  0
CIRCLE
  5
A75
330
A02
100
AcDbEntity
  8
View001
100
AcDbCircle
 10
175.179
 20
400.108
 40
1.6
  0
CIRCLE
  5
A76
330
A02
100
AcDbEntity
  8
View001
100
AcDbCircle
 10
252.788
 20
400.108
 40
1.6
  0
CIRCLE
  5
A77
330
A02
100
AcDbEntity
  8
View001
100
AcDbCircle
 10
330.1
 20
400.108
 40
1.6
  0
CIRCLE
  5
A78
330
A02
100
AcDbEntity
  8
View001
100
AcDbCircle
 10
407.412
 20
400.108
 40
1.6
  0
LINE
  5
A79
330
A02
100
AcDbEntity
  8
View002
100
AcDbLine
 10
15.7005
 20
74.5592
 30
0
 11
15.7005
 21
228.672
 31
0
  0
ARC
  5
A7A
330
A02
100
AcDbEntity
  8
View002
100
AcDbCircle
 10
19.2005
 20
74.5592
 30
0
 40
3.5
100
AcDbArc
 50
-180
 51
-90
  0
ARC
  5
A7B
330
A02
100
AcDbEntity
  8
View002
100
AcDbCircle
 10
19.2005
 20
228.672
 30
0
 40
3.5
100
AcDbArc
 50
90
 51
-180
  0
LINE
  5
A7C
330
A02
100
AcDbEntity
  8
View002
100
AcDbLine
 10
409.057
 20
71.0592
 30
0
 11
19.2005
 21
71.0592
 31
0
  0
LINE
  5
A7D
330
A02
100
AcDbEntity
  8
View002
100
AcDbLine
 10
19.2005
 20
232.172
 30
0
 11
409.057
 21
232.172
 31
0
  0
ARC
  5
A7E
330
A02
100
AcDbEntity
  8
View002
100
AcDbCircle
 10
409.057
 20
74.5592
 30
0
 40
3.5
100
AcDbArc
 50
-90
 51
-1.39581e-12
  0
ARC
  5
A7F
330
A02
100
AcDbEntity
  8
View002
100
AcDbCircle
 10
409.057
 20
228.672
 30
0
 40
3.5
100
AcDbArc
 50
-2.32635e-12
 51
90
  0
LINE
  5
A80
330
A02
100
AcDbEntity
  8
View002
100
AcDbLine
 10
412.557
 20
228.672
 30
0
 11
412.557
 21
74.5592
 31
0
  0
CIRCLE
  5
A81
330
A02
100
AcDbEntity
  8
View002
100
AcDbCircle
 10
20.7005
 20
76.0592
 40
1.6
  0
CIRCLE
  5
A82
330
A02
100
AcDbEntity
  8
View002
100
AcDbCircle
 10
98.0125
 20
76.0592
 40
1.6
  0
CIRCLE
  5
A83
330
A02
100
AcDbEntity
  8
View002
100
AcDbCircle
 10
175.324
 20
76.0592
 40
1.6
  0
CIRCLE
  5
A84
330
A02
100
AcDbEntity
  8
View002
100
AcDbCircle
 10
252.933
 20
76.0592
 40
1.6
  0
CIRCLE
  5
A85
330
A02
100
AcDbEntity
  8
View002
100
AcDbCircle
 10
330.245
 20
76.0592
 40
1.6
  0
CIRCLE
  5
A86
330
A02
100
AcDbEntity
  8
View002
100
AcDbCircle
 10
407.557
 20
76.0592
 40
1.6
  0
LINE
  5
A87
330
A02
100
AcDbEntity
  8
View002
100
AcDbLine
 10
25.7005
 20
82.0592
 30
0
 11
25.7005
 21
221.172
 31
0
  0
ARC
  5
A88
330
A02
100
AcDbEntity
  8
View002
100
AcDbCircle
 10
26.7005
 20
82.0592
 30
0
 40
1
100
AcDbArc
 50
-180
 51
-90
  0
ARC
  5
A89
330
A02
100
AcDbEntity
  8
View002
100
AcDbCircle
 10
26.7005
 20
221.172
 30
0
 40
1
100
AcDbArc
 50
90
 51
180
  0
LINE
  5
A8A
330
A02
100
AcDbEntity
  8
View002
100
AcDbLine
 10
401.557
 20
81.0592
 30
0
 11
26.7005
 21
81.0592
 31
0
  0
LINE
  5
A8B
330
A02
100
AcDbEntity
  8
View002
100
AcDbLine
 10
26.7005
 20
222.172
 30
0
 11
401.557
 21
222.172
 31
0
  0
ARC
  5
A8C
330
A02
100
AcDbEntity
  8
View002
100
AcDbCircle
 10
401.557
 20
82.0592
 30
0
 40
1
100
AcDbArc
 50
-90
 51
-8.14222e-13
  0
ARC
  5
A8D
330
A02
100
AcDbEntity
  8
View002
100
AcDbCircle
 10
401.557
 20
221.172
 30
0
 40
1
100
AcDbArc
 50
0
 51
90
  0
LINE
  5
A8E
330
A02
100
AcDbEntity
  8
View002
100
AcDbLine
 10
402.557
 20
221.172
 30
0
 11
402.557
 21
82.0592
 31
0
  0
CIRCLE
  5
A8F
330
A02
100
AcDbEntity
  8
View002
100
AcDbCircle
 10
20.7005
 20
227.172
 40
1.6
  0
CIRCLE
  5
A90
330
A02
100
AcDbEntity
  8
View002
100
AcDbCircle
 10
98.0125
 20
227.172
 40
1.6
  0
CIRCLE
  5
A91
330
A02
100
AcDbEntity
  8
View002
100
AcDbCircle
 10
175.324
 20
227.172
 40
1.6
  0
CIRCLE
  5
A92
330
A02
100
AcDbEntity
  8
View002
100
AcDbCircle
 10
252.933
 20
227.172
 40
1.6
  0
CIRCLE
  5
A93
330
A02
100
AcDbEntity
  8
View002
100
AcDbCircle
 10
330.245
 20
227.172
 40
1.6
  0
CIRCLE
  5
A94
330
A02
100
AcDbEntity
  8
View002
100
AcDbCircle
 10
407.557
 20
227.172
 40
1.6
  0
LINE
  5
A95
330
A02
100
AcDbEntity
  8
View003
100
AcDbLine
 10
420.072
 20
420.368
 30
0
 11
420.072
 21
574.481
 31
0
  0
ARC
  5
A96
330
A02
100
AcDbEntity
  8
View003
100
AcDbCircle
 10
423.572
 20
420.368
 30
0
 40
3.5
100
AcDbArc
 50
-180
 51
-90
  0
ARC
  5
A97
330
A02
100
AcDbEntity
  8
View003
100
AcDbCircle
 10
423.572
 20
574.481
 30
0
 40
3.5
100
AcDbArc
 50
90
 51
-180
  0
LINE
  5
A98
330
A02
100
AcDbEntity
  8
View003
100
AcDbLine
 10
423.572
 20
577.981
 30
0
 11
698.986
 21
577.981
 31
0
  0
LINE
  5
A99
330
A02
100
AcDbEntity
  8
View003
100
AcDbLine
 10
709.853
 20
577.981
 30
0
 11
698.986
 21
577.981
 31
0
  0
ARC
  5
A9A
330
A02
100
AcDbEntity
  8
View003
100
AcDbCircle
 10
709.853
 20
576.481
 30
0
 40
1.5
100
AcDbArc
 50
0
 51
90
  0
LINE
  5
A9B
330
A02
100
AcDbEntity
  8
View003
100
AcDbLine
 10
711.353
 20
569.481
 30
0
 11
711.353
 21
576.481
 31
0
  0
ARC
  5
A9C
330
A02
100
AcDbEntity
  8
View003
100
AcDbCircle
 10
709.853
 20
569.481
 30
0
 40
1.5
100
AcDbArc
 50
-90
 51
0
  0
LINE
  5
A9D
330
A02
100
AcDbEntity
  8
View003
100
AcDbLine
 10
698.986
 20
567.981
 30
0
 11
709.853
 21
567.981
 31
0
  0
LINE
  5
A9E
330
A02
100
AcDbEntity
  8
View003
100
AcDbLine
 10
431.072
 20
567.981
 30
0
 11
698.986
 21
567.981
 31
0
  0
ARC
  5
A9F
330
A02
100
AcDbEntity
  8
View003
100
AcDbCircle
 10
431.072
 20
566.981
 30
0
 40
1
100
AcDbArc
 50
90
 51
180
  0
LINE
  5
AA0
330
A02
100
AcDbEntity
  8
View003
100
AcDbLine
 10
430.072
 20
427.868
 30
0
 11
430.072
 21
566.981
 31
0
  0
ARC
  5
AA1
330
A02
100
AcDbEntity
  8
View003
100
AcDbCircle
 10
431.072
 20
427.868
 30
0
 40
1
100
AcDbArc
 50
180
 51
-90
  0
LINE
  5
AA2
330
A02
100
AcDbEntity
  8
View003
100
AcDbLine
 10
805.928
 20
426.868
 30
0
 11
431.072
 21
426.868
 31
0
  0
ARC
  5
AA3
330
A02
100
AcDbEntity
  8
View003
100
AcDbCircle
 10
805.928
 20
427.868
 30
0
 40
1
100
AcDbArc
 50
-90
 51
0
  0
LINE
  5
AA4
330
A02
100
AcDbEntity
  8
View003
100
AcDbLine
 10
806.928
 20
566.981
 30
0
 11
806.928
 21
427.868
 31
0
  0
ARC
  5
AA5
330
A02
100
AcDbEntity
  8
View003
100
AcDbCircle
 10
805.928
 20
566.981
 30
0
 40
1
100
AcDbArc
 50
0
 51
90
  0
LINE
  5
AA6
330
A02
100
AcDbEntity
  8
View003
100
AcDbLine
 10
741.433
 20
567.981
 30
0
 11
805.928
 21
567.981
 31
0
  0
LINE
  5
AA7
330
A02
100
AcDbEntity
  8
View003
100
AcDbLine
 10
727.966
 20
567.981
 30
0
 11
741.433
 21
567.981
 31
0
  0
ARC
  5
AA8
330
A02
100
AcDbEntity
  8
View003
100
AcDbCircle
 10
727.966
 20
569.481
 30
0
 40
1.5
100
AcDbArc
 50
-180
 51
-90
  0
LINE
  5
AA9
330
A02
100
AcDbEntity
  8
View003
100
AcDbLine
 10
726.466
 20
576.481
 30
0
 11
726.466
 21
569.481
 31
0
  0
ARC
  5
AAA
330
A02
100
AcDbEntity
  8
View003
100
AcDbCircle
 10
727.966
 20
576.481
 30
0
 40
1.5
100
AcDbArc
 50
90
 51
180
  0
LINE
  5
AAB
330
A02
100
AcDbEntity
  8
View003
100
AcDbLine
 10
741.433
 20
577.981
 30
0
 11
727.966
 21
577.981
 31
0
  0
LINE
  5
AAC
330
A02
100
AcDbEntity
  8
View003
100
AcDbLine
 10
741.433
 20
577.981
 30
0
 11
813.428
 21
577.981
 31
0
  0
ARC
  5
AAD
330
A02
100
AcDbEntity
  8
View003
100
AcDbCircle
 10
813.428
 20
574.481
 30
0
 40
3.5
100
AcDbArc
 50
-1.86108e-12
 51
90
  0
LINE
  5
AAE
330
A02
100
AcDbEntity
  8
View003
100
AcDbLine
 10
816.928
 20
574.481
 30
0
 11
816.928
 21
420.368
 31
0
  0
ARC
  5
AAF
330
A02
100
AcDbEntity
  8
View003
100
AcDbCircle
 10
813.428
 20
420.368
 30
0
 40
3.5
100
AcDbArc
 50
-90
 51
-1.86108e-12
  0
LINE
  5
AB0
330
A02
100
AcDbEntity
  8
View003
100
AcDbLine
 10
813.428
 20
416.868
 30
0
 11
423.572
 21
416.868
 31
0
  0
CIRCLE
  5
AB1
330
A02
100
AcDbEntity
  8
View003
100
AcDbCircle
 10
425.072
 20
421.868
 40
1.6
  0
CIRCLE
  5
AB2
330
A02
100
AcDbEntity
  8
View003
100
AcDbCircle
 10
502.384
 20
421.868
 40
1.6
  0
CIRCLE
  5
AB3
330
A02
100
AcDbEntity
  8
View003
100
AcDbCircle
 10
579.696
 20
421.868
 40
1.6
  0
CIRCLE
  5
AB4
330
A02
100
AcDbEntity
  8
View003
100
AcDbCircle
 10
657.304
 20
421.868
 40
1.6
  0
CIRCLE
  5
AB5
330
A02
100
AcDbEntity
  8
View003
100
AcDbCircle
 10
734.616
 20
421.868
 40
1.6
  0
CIRCLE
  5
AB6
330
A02
100
AcDbEntity
  8
View003
100
AcDbCircle
 10
811.928
 20
421.868
 40
1.6
  0
CIRCLE
  5
AB7
330
A02
100
AcDbEntity
  8
View003
100
AcDbCircle
 10
425.072
 20
572.981
 40
1.6
  0
CIRCLE
  5
AB8
330
A02
100
AcDbEntity
  8
View003
100
AcDbCircle
 10
502.384
 20
572.981
 40
1.6
  0
CIRCLE
  5
AB9
330
A02
100
AcDbEntity
  8
View003
100
AcDbCircle
 10
579.696
 20
572.981
 40
1.6
  0
CIRCLE
  5
ABA
330
A02
100
AcDbEntity
  8
View003
100
AcDbCircle
 10
657.304
 20
572.981
 40
1.6
  0
CIRCLE
  5
ABB
330
A02
100
AcDbEntity
  8
View003
100
AcDbCircle
 10
734.616
 20
572.981
 40
1.6
  0
CIRCLE
  5
ABC
330
A02
100
AcDbEntity
  8
View003
100
AcDbCircle
 10
811.928
 20
572.981
 40
1.6
  0
LINE
  5
ABD
330
A02
100
AcDbEntity
  8
View004
100
AcDbLine
 10
420.88
 20
247.421
 30
0
 11
420.88
 21
401.534
 31
0
  0
ARC
  5
ABE
330
A02
100
AcDbEntity
  8
View004
100
AcDbCircle
 10
424.38
 20
247.421
 30
0
 40
3.5
100
AcDbArc
 50
-180
 51
-90
  0
ARC
  5
ABF
330
A02
100
AcDbEntity
  8
View004
100
AcDbCircle
 10
424.38
 20
401.534
 30
0
 40
3.5
100
AcDbArc
 50
90
 51
-180
  0
LINE
  5
AC0
330
A02
100
AcDbEntity
  8
View004
100
AcDbLine
 10
424.38
 20
405.034
 30
0
 11
699.794
 21
405.034
 31
0
  0
LINE
  5
AC1
330
A02
100
AcDbEntity
  8
View004
100
AcDbLine
 10
710.661
 20
405.034
 30
0
 11
699.794
 21
405.034
 31
0
  0
ARC
  5
AC2
330
A02
100
AcDbEntity
  8
View004
100
AcDbCircle
 10
710.661
 20
403.534
 30
0
 40
1.5
100
AcDbArc
 50
0
 51
90
  0
LINE
  5
AC3
330
A02
100
AcDbEntity
  8
View004
100
AcDbLine
 10
712.161
 20
396.534
 30
0
 11
712.161
 21
403.534
 31
0
  0
ARC
  5
AC4
330
A02
100
AcDbEntity
  8
View004
100
AcDbCircle
 10
710.661
 20
396.534
 30
0
 40
1.5
100
AcDbArc
 50
-90
 51
0
  0
LINE
  5
AC5
330
A02
100
AcDbEntity
  8
View004
100
AcDbLine
 10
699.794
 20
395.034
 30
0
 11
710.661
 21
395.034
 31
0
  0
LINE
  5
AC6
330
A02
100
AcDbEntity
  8
View004
100
AcDbLine
 10
431.88
 20
395.034
 30
0
 11
699.794
 21
395.034
 31
0
  0
ARC
  5
AC7
330
A02
100
AcDbEntity
  8
View004
100
AcDbCircle
 10
431.88
 20
394.034
 30
0
 40
1
100
AcDbArc
 50
90
 51
180
  0
LINE
  5
AC8
330
A02
100
AcDbEntity
  8
View004
100
AcDbLine
 10
430.88
 20
254.921
 30
0
 11
430.88
 21
394.034
 31
0
  0
ARC
  5
AC9
330
A02
100
AcDbEntity
  8
View004
100
AcDbCircle
 10
431.88
 20
254.921
 30
0
 40
1
100
AcDbArc
 50
180
 51
-90
  0
LINE
  5
ACA
330
A02
100
AcDbEntity
  8
View004
100
AcDbLine
 10
806.736
 20
253.921
 30
0
 11
431.88
 21
253.921
 31
0
  0
ARC
  5
ACB
330
A02
100
AcDbEntity
  8
View004
100
AcDbCircle
 10
806.736
 20
254.921
 30
0
 40
1
100
AcDbArc
 50
-90
 51
0
  0
LINE
  5
ACC
330
A02
100
AcDbEntity
  8
View004
100
AcDbLine
 10
807.736
 20
394.034
 30
0
 11
807.736
 21
254.921
 31
0
  0
ARC
  5
ACD
330
A02
100
AcDbEntity
  8
View004
100
AcDbCircle
 10
806.736
 20
394.034
 30
0
 40
1
100
AcDbArc
 50
0
 51
90
  0
LINE
  5
ACE
330
A02
100
AcDbEntity
  8
View004
100
AcDbLine
 10
742.241
 20
395.034
 30
0
 11
806.736
 21
395.034
 31
0
  0
LINE
  5
ACF
330
A02
100
AcDbEntity
  8
View004
100
AcDbLine
 10
728.774
 20
395.034
 30
0
 11
742.241
 21
395.034
 31
0
  0
ARC
  5
AD0
330
A02
100
AcDbEntity
  8
View004
100
AcDbCircle
 10
728.774
 20
396.534
 30
0
 40
1.5
100
AcDbArc
 50
-180
 51
-90
  0
LINE
  5
AD1
330
A02
100
AcDbEntity
  8
View004
100
AcDbLine
 10
727.274
 20
403.534
 30
0
 11
727.274
 21
396.534
 31
0
  0
ARC
  5
AD2
330
A02
100
AcDbEntity
  8
View004
100
AcDbCircle
 10
728.774
 20
403.534
 30
0
 40
1.5
100
AcDbArc
 50
90
 51
180
  0
LINE
  5
AD3
330
A02
100
AcDbEntity
  8
View004
100
AcDbLine
 10
742.241
 20
405.034
 30
0
 11
728.774
 21
405.034
 31
0
  0
LINE
  5
AD4
330
A02
100
AcDbEntity
  8
View004
100
AcDbLine
 10
742.241
 20
405.034
 30
0
 11
814.236
 21
405.034
 31
0
  0
ARC
  5
AD5
330
A02
100
AcDbEntity
  8
View004
100
AcDbCircle
 10
814.236
 20
401.534
 30
0
 40
3.5
100
AcDbArc
 50
-2.79162e-12
 51
90
  0
LINE
  5
AD6
330
A02
100
AcDbEntity
  8
View004
100
AcDbLine
 10
817.736
 20
401.534
 30
0
 11
817.736
 21
247.421
 31
0
  0
ARC
  5
AD7
330
A02
100
AcDbEntity
  8
View004
100
AcDbCircle
 10
814.236
 20
247.421
 30
0
 40
3.5
100
AcDbArc
 50
-90
 51
-1.39581e-12
  0
LINE
  5
AD8
330
A02
100
AcDbEntity
  8
View004
100
AcDbLine
 10
814.236
 20
243.921
 30
0
 11
424.38
 21
243.921
 31
0
  0
CIRCLE
  5
AD9
330
A02
100
AcDbEntity
  8
View004
100
AcDbCircle
 10
425.88
 20
248.921
 40
1.6
  0
CIRCLE
  5
ADA
330
A02
100
AcDbEntity
  8
View004
100
AcDbCircle
 10
503.192
 20
248.921
 40
1.6
  0
CIRCLE
  5
ADB
330
A02
100
AcDbEntity
  8
View004
100
AcDbCircle
 10
580.504
 20
248.921
 40
1.6
  0
CIRCLE
  5
ADC
330
A02
100
AcDbEntity
  8
View004
100
AcDbCircle
 10
658.112
 20
248.921
 40
1.6
  0
CIRCLE
  5
ADD
330
A02
100
AcDbEntity
  8
View004
100
AcDbCircle
 10
735.424
 20
248.921
 40
1.6
  0
CIRCLE
  5
ADE
330
A02
100
AcDbEntity
  8
View004
100
AcDbCircle
 10
812.736
 20
248.921
 40
1.6
  0
CIRCLE
  5
ADF
330
A02
100
AcDbEntity
  8
View004
100
AcDbCircle
 10
425.88
 20
400.034
 40
1.6
  0
CIRCLE
  5
AE0
330
A02
100
AcDbEntity
  8
View004
100
AcDbCircle
 10
503.192
 20
400.034
 40
1.6
  0
CIRCLE
  5
AE1
330
A02
100
AcDbEntity
  8
View004
100
AcDbCircle
 10
580.504
 20
400.034
 40
1.6
  0
CIRCLE
  5
AE2
330
A02
100
AcDbEntity
  8
View004
100
AcDbCircle
 10
658.112
 20
400.034
 40
1.6
  0
CIRCLE
  5
AE3
330
A02
100
AcDbEntity
  8
View004
100
AcDbCircle
 10
735.424
 20
400.034
 40
1.6
  0
CIRCLE
  5
AE4
330
A02
100
AcDbEntity
  8
View004
100
AcDbCircle
 10
812.736
 20
400.034
 40
1.6
  0
LINE
  5
AE5
330
A02
100
AcDbEntity
  8
View005
100
AcDbLine
 10
420.88
 20
74.4744
 30
0
 11
420.88
 21
228.587
 31
0
  0
ARC
  5
AE6
330
A02
100
AcDbEntity
  8
View005
100
AcDbCircle
 10
424.38
 20
74.4744
 30
0
 40
3.5
100
AcDbArc
 50
-180
 51
-90
  0
ARC
  5
AE7
330
A02
100
AcDbEntity
  8
View005
100
AcDbCircle
 10
424.38
 20
228.587
 30
0
 40
3.5
100
AcDbArc
 50
90
 51
-180
  0
LINE
  5
AE8
330
A02
100
AcDbEntity
  8
View005
100
AcDbLine
 10
814.236
 20
70.9744
 30
0
 11
424.38
 21
70.9744
 31
0
  0
LINE
  5
AE9
330
A02
100
AcDbEntity
  8
View005
100
AcDbLine
 10
424.38
 20
232.087
 30
0
 11
814.236
 21
232.087
 31
0
  0
ARC
  5
AEA
330
A02
100
AcDbEntity
  8
View005
100
AcDbCircle
 10
814.236
 20
74.4744
 30
0
 40
3.5
100
AcDbArc
 50
-90
 51
-1.39581e-12
  0
ARC
  5
AEB
330
A02
100
AcDbEntity
  8
View005
100
AcDbCircle
 10
814.236
 20
228.587
 30
0
 40
3.5
100
AcDbArc
 50
-2.32635e-12
 51
90
  0
LINE
  5
AEC
330
A02
100
AcDbEntity
  8
View005
100
AcDbLine
 10
817.736
 20
228.587
 30
0
 11
817.736
 21
74.4744
 31
0
  0
CIRCLE
  5
AED
330
A02
100
AcDbEntity
  8
View005
100
AcDbCircle
 10
425.88
 20
75.9744
 40
1.6
  0
CIRCLE
  5
AEE
330
A02
100
AcDbEntity
  8
View005
100
AcDbCircle
 10
503.192
 20
75.9744
 40
1.6
  0
CIRCLE
  5
AEF
330
A02
100
AcDbEntity
  8
View005
100
AcDbCircle
 10
580.504
 20
75.9744
 40
1.6
  0
CIRCLE
  5
AF0
330
A02
100
AcDbEntity
  8
View005
100
AcDbCircle
 10
658.112
 20
75.9744
 40
1.6
  0
CIRCLE
  5
AF1
330
A02
100
AcDbEntity
  8
View005
100
AcDbCircle
 10
735.424
 20
75.9744
 40
1.6
  0
CIRCLE
  5
AF2
330
A02
100
AcDbEntity
  8
View005
100
AcDbCircle
 10
812.736
 20
75.9744
 40
1.6
  0
LINE
  5
AF3
330
A02
100
AcDbEntity
  8
View005
100
AcDbLine
 10
430.88
 20
81.9744
 30
0
 11
430.88
 21
221.087
 31
0
  0
ARC
  5
AF4
330
A02
100
AcDbEntity
  8
View005
100
AcDbCircle
 10
431.88
 20
81.9744
 30
0
 40
1
100
AcDbArc
 50
-180
 51
-90
  0
ARC
  5
AF5
330
A02
100
AcDbEntity
  8
View005
100
AcDbCircle
 10
431.88
 20
221.087
 30
0
 40
1
100
AcDbArc
 50
90
 51
-180
  0
LINE
  5
AF6
330
A02
100
AcDbEntity
  8
View005
100
AcDbLine
 10
806.736
 20
80.9744
 30
0
 11
431.88
 21
80.9744
 31
0
  0
LINE
  5
AF7
330
A02
100
AcDbEntity
  8
View005
100
AcDbLine
 10
431.88
 20
222.087
 30
0
 11
806.736
 21
222.087
 31
0
  0
ARC
  5
AF8
330
A02
100
AcDbEntity
  8
View005
100
AcDbCircle
 10
806.736
 20
81.9744
 30
0
 40
1
100
AcDbArc
 50
-90
 51
-8.14222e-13
  0
ARC
  5
AF9
330
A02
100
AcDbEntity
  8
View005
100
AcDbCircle
 10
806.736
 20
221.087
 30
0
 40
1
100
AcDbArc
 50
-1.62844e-12
 51
90
  0
LINE
  5
AFA
330
A02
100
AcDbEntity
  8
View005
100
AcDbLine
 10
807.736
 20
221.087
 30
0
 11
807.736
 21
81.9744
 31
0
  0
CIRCLE
  5
AFB
330
A02
100
AcDbEntity
  8
View005
100
AcDbCircle
 10
425.88
 20
227.087
 40
1.6
  0
CIRCLE
  5
AFC
330
A02
100
AcDbEntity
  8
View005
100
AcDbCircle
 10
503.192
 20
227.087
 40
1.6
  0
CIRCLE
  5
AFD
330
A02
100
AcDbEntity
  8
View005
100
AcDbCircle
 10
580.504
 20
227.087
 40
1.6
  0
CIRCLE
  5
AFE
330
A02
100
AcDbEntity
  8
View005
100
AcDbCircle
 10
658.112
 20
227.087
 40
1.6
  0
CIRCLE
  5
AFF
330
A02
100
AcDbEntity
  8
View005
100
AcDbCircle
 10
735.424
 20
227.087
 40
1.6
  0
CIRCLE
  5
B00
330
A02
100
AcDbEntity
  8
View005
100
AcDbCircle
 10
812.736
 20
227.087
 40
1.6
  0
LINE
  5
B01
330
A02
100
AcDbEntity
  8
View006
100
AcDbLine
 10
438.425
 20
391.214
 30
0
 11
798.425
 21
391.214
 31
0
  0
ARC
  5
B02
330
A02
100
AcDbEntity
  8
View006
100
AcDbCircle
 10
438.425
 20
386.214
 30
0
 40
5
100
AcDbArc
 50
90
 51
180
  0
ARC
  5
B03
330
A02
100
AcDbEntity
  8
View006
100
AcDbCircle
 10
798.425
 20
386.214
 30
0
 40
5
100
AcDbArc
 50
0
 51
90
  0
LINE
  5
B04
330
A02
100
AcDbEntity
  8
View006
100
AcDbLine
 10
433.425
 20
346.214
 30
0
 11
433.425
 21
386.214
 31
0
  0
LINE
  5
B05
330
A02
100
AcDbEntity
  8
View006
100
AcDbLine
 10
803.425
 20
386.214
 30
0
 11
803.425
 21
346.214
 31
0
  0
ARC
  5
B06
330
A02
100
AcDbEntity
  8
View006
100
AcDbCircle
 10
438.425
 20
346.214
 30
0
 40
5
100
AcDbArc
 50
180
 51
-90
  0
ARC
  5
B07
330
A02
100
AcDbEntity
  8
View006
100
AcDbCircle
 10
798.425
 20
346.214
 30
0
 40
5
100
AcDbArc
 50
-90
 51
0
  0
LINE
  5
B08
330
A02
100
AcDbEntity
  8
View006
100
AcDbLine
 10
798.425
 20
341.214
 30
0
 11
438.425
 21
341.214
 31
0
  0
CIRCLE
  5
B09
330
A02
100
AcDbEntity
  8
View006
100
AcDbCircle
 10
453.425
 20
366.214
 40
1.6
  0
CIRCLE
  5
B0A
330
A02
100
AcDbEntity
  8
View006
100
AcDbCircle
 10
563.425
 20
366.214
 40
1.6
  0
CIRCLE
  5
B0B
330
A02
100
AcDbEntity
  8
View006
100
AcDbCircle
 10
673.425
 20
366.214
 40
1.6
  0
CIRCLE
  5
B0C
330
A02
100
AcDbEntity
  8
View006
100
AcDbCircle
 10
783.425
 20
366.214
 40
1.6
  0
LINE
  5
B0D
330
A02
100
AcDbEntity
  8
View007
100
AcDbLine
 10
442.268
 20
333.12
 30
0
 11
796.268
 21
333.12
 31
0
  0
ARC
  5
B0E
330
A02
100
AcDbEntity
  8
View007
100
AcDbCircle
 10
442.268
 20
330.12
 30
0
 40
3
100
AcDbArc
 50
90
 51
180
  0
ARC
  5
B0F
330
A02
100
AcDbEntity
  8
View007
100
AcDbCircle
 10
796.268
 20
330.12
 30
0
 40
3
100
AcDbArc
 50
0
 51
90
  0
LINE
  5
B10
330
A02
100
AcDbEntity
  8
View007
100
AcDbLine
 10
439.268
 20
296.12
 30
0
 11
439.268
 21
330.12
 31
0
  0
LINE
  5
B11
330
A02
100
AcDbEntity
  8
View007
100
AcDbLine
 10
799.268
 20
330.12
 30
0
 11
799.268
 21
296.12
 31
0
  0
ARC
  5
B12
330
A02
100
AcDbEntity
  8
View007
100
AcDbCircle
 10
442.268
 20
296.12
 30
0
 40
3
100
AcDbArc
 50
180
 51
-90
  0
ARC
  5
B13
330
A02
100
AcDbEntity
  8
View007
100
AcDbCircle
 10
796.268
 20
296.12
 30
0
 40
3
100
AcDbArc
 50
-90
 51
0
  0
LINE
  5
B14
330
A02
100
AcDbEntity
  8
View007
100
AcDbLine
 10
796.268
 20
293.12
 30
0
 11
442.268
 21
293.12
 31
0
  0
CIRCLE
  5
B15
330
A02
100
AcDbEntity
  8
View007
100
AcDbCircle
 10
454.268
 20
313.12
 40
1.6
  0
CIRCLE
  5
B16
330
A02
100
AcDbEntity
  8
View007
100
AcDbCircle
 10
564.268
 20
313.12
 40
1.6
  0
CIRCLE
  5
B17
330
A02
100
AcDbEntity
  8
View007
100
AcDbCircle
 10
674.268
 20
313.12
 40
1.6
  0
CIRCLE
  5
B18
330
A02
100
AcDbEntity
  8
View007
100
AcDbCircle
 10
784.268
 20
313.12
 40
1.6
  0
LINE
  5
B19
330
A02
100
AcDbEntity
  8
View008
100
AcDbLine
 10
447.241
 20
289.59
 30
0
 11
793.241
 21
289.59
 31
0
  0
ARC
  5
B1A
330
A02
100
AcDbEntity
  8
View008
100
AcDbCircle
 10
447.241
 20
287.59
 30
0
 40
2
100
AcDbArc
 50
90
 51
180
  0
ARC
  5
B1B
330
A02
100
AcDbEntity
  8
View008
100
AcDbCircle
 10
793.241
 20
287.59
 30
0
 40
2
100
AcDbArc
 50
0
 51
90
  0
LINE
  5
B1C
330
A02
100
AcDbEntity
  8
View008
100
AcDbLine
 10
445.241
 20
261.59
 30
0
 11
445.241
 21
287.59
 31
0
  0
LINE
  5
B1D
330
A02
100
AcDbEntity
  8
View008
100
AcDbLine
 10
795.241
 20
287.59
 30
0
 11
795.241
 21
261.59
 31
0
  0
ARC
  5
B1E
330
A02
100
AcDbEntity
  8
View008
100
AcDbCircle
 10
447.241
 20
261.59
 30
0
 40
2
100
AcDbArc
 50
180
 51
-90
  0
ARC
  5
B1F
330
A02
100
AcDbEntity
  8
View008
100
AcDbCircle
 10
793.241
 20
261.59
 30
0
 40
2
100
AcDbArc
 50
-90
 51
0
  0
LINE
  5
B20
330
A02
100
AcDbEntity
  8
View008
100
AcDbLine
 10
793.241
 20
259.59
 30
0
 11
447.241
 21
259.59
 31
0
  0
CIRCLE
  5
B21
330
A02
100
AcDbEntity
  8
View008
100
AcDbCircle
 10
455.241
 20
274.59
 40
1.05
  0
CIRCLE
  5
B22
330
A02
100
AcDbEntity
  8
View008
100
AcDbCircle
 10
565.241
 20
274.59
 40
1.05
  0
CIRCLE
  5
B23
330
A02
100
AcDbEntity
  8
View008
100
AcDbCircle
 10
675.241
 20
274.59
 40
1.05
  0
CIRCLE
  5
B24
330
A02
100
AcDbEntity
  8
View008
100
AcDbCircle
 10
785.241
 20
274.59
 40
1.05
  0
ENDSEC
  0
SECTION
  2
OBJECTS
  0
DICTIONARY
  5
F000
330
0
100
AcDbDictionary
  3
ACAD_GROUP
350
F001
  0
DICTIONARY
  5
F001
330
F000
100
AcDbDictionary
  0
ENDSEC
  0
EOF