<svg width="1633" height="1057" viewBox="0 0 1633 1057" fill="none" xmlns="http://www.w3.org/2000/svg">
<path d="M1230.88 372.883V444.883H1158.88V516.89H1374.89V444.883H1302.89V372.883H1230.88Z" stroke="#FF0000" stroke-width="0.714241"/>
<path d="M96.8824 138.884V210.884H24.8824V498.892H168.89V138.884H96.8824Z" stroke="#FF0000" stroke-width="0.714241"/>
<path d="M204.883 138.884V498.892H1140.89V426.888H1212.89V354.888H1284.89V138.884H204.883Z" stroke="#FF0000" stroke-width="0.714241"/>
<path d="M1320.88 138.884V426.888H1392.89V138.884H1320.88Z" stroke="#FF0000" stroke-width="0.714241"/>
<path d="M204.883 48.8825V120.89H276.89V48.8825H204.883Z" stroke="#FF0000" stroke-width="0.714241"/>
<path d="M294.884 48.8825V120.89H582.892V48.8825H294.884Z" stroke="#FF0000" stroke-width="0.714241"/>
<path d="M600.883 48.8825V120.89H888.89V48.8825H600.883Z" stroke="#FF0000" stroke-width="0.714241"/>
<path d="M906.884 48.8825V120.89H1194.89V48.8825H906.884Z" stroke="#FF0000" stroke-width="0.714241"/>
<path d="M1212.88 48.8825V120.89H1284.89V48.8825H1212.88Z" stroke="#FF0000" stroke-width="0.714241"/>
<path d="M1320.88 48.8825V120.89H1392.89V48.8825H1320.88Z" stroke="#FF0000" stroke-width="0.714241"/>
<path d="M1414 523H1L1 1.0986L1414 1.09863V523Z" stroke="white" stroke-width="0.714241"/>
</svg>
