<?xml version="1.0"?>
<!-- Generated by SVGo -->
<svg width="383.857mm" height="152.875mm"
     viewBox="0.000 0.000 383.857 152.875"
     xmlns="http://www.w3.org/2000/svg" 
     xmlns:xlink="http://www.w3.org/1999/xlink">
<polygon points="378.857,147.875 5.000,147.875 5.000,5.000 378.857,5.000" style="fill:none;stroke-width:0.050000mm;stroke:black"/>
<polygon points="330.434,103.421 330.434,122.471 311.384,122.471 311.384,141.523 368.536,141.523 368.536,122.471 349.486,122.471 349.486,103.421" style="fill:none;stroke-width:0.050000mm;stroke:black"/>
<polygon points="30.396,41.509 30.396,60.559 11.346,60.559 11.346,136.761 49.448,136.761 49.448,41.509" style="fill:none;stroke-width:0.050000mm;stroke:black"/>
<polygon points="58.971,41.509 58.971,136.761 306.623,136.761 306.623,117.710 325.673,117.710 325.673,98.660 344.723,98.660 344.723,41.509" style="fill:none;stroke-width:0.050000mm;stroke:black"/>
<polygon points="354.246,41.509 354.246,117.710 373.298,117.710 373.298,41.509" style="fill:none;stroke-width:0.050000mm;stroke:black"/>
<polygon points="58.971,17.696 58.971,36.748 78.023,36.748 78.023,17.696" style="fill:none;stroke-width:0.050000mm;stroke:black"/>
<polygon points="82.784,17.696 82.784,36.748 158.986,36.748 158.986,17.696" style="fill:none;stroke-width:0.050000mm;stroke:black"/>
<polygon points="163.746,17.696 163.746,36.748 239.948,36.748 239.948,17.696" style="fill:none;stroke-width:0.050000mm;stroke:black"/>
<polygon points="244.709,17.696 244.709,36.748 320.911,36.748 320.911,17.696" style="fill:none;stroke-width:0.050000mm;stroke:black"/>
<polygon points="325.671,17.696 325.671,36.748 344.723,36.748 344.723,17.696" style="fill:none;stroke-width:0.050000mm;stroke:black"/>
<polygon points="354.246,17.696 354.246,36.748 373.298,36.748 373.298,17.696" style="fill:none;stroke-width:0.050000mm;stroke:black"/>
</svg>
