<svg width="1651" height="1075" viewBox="0 0 1651 1075" fill="none" xmlns="http://www.w3.org/2000/svg">
<path d="M1248.88 390.883V462.883H1176.88V534.89H1392.89V462.883H1320.89V390.883H1248.88Z" stroke="#FF0000" stroke-width="0.714241"/>
<path d="M114.882 156.884V228.884H42.8824V516.892H186.89V156.884H114.882Z" stroke="#FF0000" stroke-width="0.714241"/>
<path d="M222.883 156.884V516.892H1158.89V444.888H1230.89V372.888H1302.89V156.884H222.883Z" stroke="#FF0000" stroke-width="0.714241"/>
<path d="M1338.88 156.884V444.888H1410.89V156.884H1338.88Z" stroke="#FF0000" stroke-width="0.714241"/>
<path d="M222.883 66.8825V138.89H294.89V66.8825H222.883Z" stroke="#FF0000" stroke-width="0.714241"/>
<path d="M312.884 66.8825V138.89H600.892V66.8825H312.884Z" stroke="#FF0000" stroke-width="0.714241"/>
<path d="M618.883 66.8825V138.89H906.89V66.8825H618.883Z" stroke="#FF0000" stroke-width="0.714241"/>
<path d="M924.884 66.8825V138.89H1212.89V66.8825H924.884Z" stroke="#FF0000" stroke-width="0.714241"/>
<path d="M1230.88 66.8825V138.89H1302.89V66.8825H1230.88Z" stroke="#FF0000" stroke-width="0.714241"/>
<path d="M1338.88 66.8825V138.89H1410.89V66.8825H1338.88Z" stroke="#FF0000" stroke-width="0.714241"/>
<path d="M1432 541H19L19 19.0986L1432 19.0986V541Z" stroke="white" stroke-width="0.714241"/>
</svg>
