<svg width="1632" height="1056" viewBox="0 0 1632 1056" fill="none" xmlns="http://www.w3.org/2000/svg">
<g clip-path="url(#clip0_7_6)">
<path d="M1413 522H0L0 0.0986023L1413 0.0986328V522Z" stroke="white" stroke-width="0.714241"/>
<path d="M1167.44 453.445V506.358H1220.36V453.445H1167.44Z" stroke="white" stroke-width="0.714241"/>
<path d="M1239.44 453.445V506.358H1292.36V453.445H1239.44Z" stroke="white" stroke-width="0.714241"/>
<path d="M1311.44 453.445V506.358H1364.36V453.445H1311.44Z" stroke="white" stroke-width="0.714241"/>
<path d="M672.442 435.443V453.207H522.678V428.5H516.158H503.686H497.162V453.207L497.162 463.789L497.162 487.487H503.686H516.158H522.678V470.592H672.442V488.356H725.355V470.592H875.119V487.487H881.639H894.111H900.631V463.789V453.207V428.5H894.111H881.639H875.119V453.207H725.355V435.443H672.442Z" stroke="white" stroke-width="0.714241"/>
<path d="M33.4447 435.443V488.356H86.3581V435.443H33.4447Z" stroke="white" stroke-width="0.714241"/>
<path d="M105.445 435.443V488.356H158.358V435.443H105.445Z" stroke="white" stroke-width="0.714241"/>
<path d="M222.444 435.443V488.356H275.357V435.443H222.444Z" stroke="white" stroke-width="0.714241"/>
<path d="M312.442 435.443V488.356H365.355V435.443H312.442Z" stroke="white" stroke-width="0.714241"/>
<path d="M402.444 435.443V488.356H455.357V435.443H402.444Z" stroke="white" stroke-width="0.714241"/>
<path d="M933.445 435.443V488.356H986.354V435.443H933.445Z" stroke="white" stroke-width="0.714241"/>
<path d="M1005.44 435.443V488.356H1058.36V435.443H1005.44Z" stroke="white" stroke-width="0.714241"/>
<path d="M1077.44 435.443V488.356H1130.36V435.443H1077.44Z" stroke="white" stroke-width="0.714241"/>
<path d="M1239.44 381.445V434.358H1292.36V381.445H1239.44Z" stroke="white" stroke-width="0.714241"/>
<path d="M258.444 363.443V381.207H252.68V365.522H246.16H233.688H227.168V381.207L227.168 391.789L227.168 422.5H233.688H246.16H252.68V398.592H258.444V416.356H311.357V398.592H317.121V422.5H323.641H336.113H342.633V391.789L342.633 381.207L342.633 365.522H336.113H323.641H317.121V381.207H311.357V363.443H258.444Z" stroke="white" stroke-width="0.714241"/>
<path d="M33.4447 363.443V416.356H86.3581V363.443H33.4447Z" stroke="white" stroke-width="0.714241"/>
<path d="M105.445 363.443V416.356H158.358V363.443H105.445Z" stroke="white" stroke-width="0.714241"/>
<path d="M375.443 363.443V416.356H428.356V363.443H375.443Z" stroke="white" stroke-width="0.714241"/>
<path d="M447.443 363.443V416.356H500.356V363.443H447.443Z" stroke="white" stroke-width="0.714241"/>
<path d="M519.443 363.443V416.356H572.356V363.443H519.443Z" stroke="white" stroke-width="0.714241"/>
<path d="M591.443 363.443V416.356H644.356V363.443H591.443Z" stroke="white" stroke-width="0.714241"/>
<path d="M663.443 363.443V416.356H716.356V363.443H663.443Z" stroke="white" stroke-width="0.714241"/>
<path d="M735.443 363.443V416.356H788.356V363.443H735.443Z" stroke="white" stroke-width="0.714241"/>
<path d="M807.443 363.443V416.356H860.356V363.443H807.443Z" stroke="white" stroke-width="0.714241"/>
<path d="M879.443 363.443V416.356H932.356V363.443H879.443Z" stroke="white" stroke-width="0.714241"/>
<path d="M951.443 363.443V416.356H1004.36V363.443H951.443Z" stroke="white" stroke-width="0.714241"/>
<path d="M1023.44 363.443V416.356H1076.36V363.443H1023.44Z" stroke="white" stroke-width="0.714241"/>
<path d="M1122.44 363.443V416.356H1175.36V363.443H1122.44Z" stroke="white" stroke-width="0.714241"/>
<path d="M1329.44 363.443V416.356H1382.36V363.443H1329.44Z" stroke="white" stroke-width="0.714241"/>
<path d="M1176.44 291.443V309.207H1170.68V293.522H1164.16H1151.69H1145.17L1145.17 309.207L1145.17 319.789L1145.17 350.5H1151.69H1164.16H1170.68V326.592H1176.44V344.356H1229.36V326.592H1235.12V350.5H1241.64H1254.11H1260.63V319.789V309.207V293.522H1254.11H1241.64H1235.12V309.207H1229.36V291.443H1176.44Z" stroke="white" stroke-width="0.714241"/>
<path d="M33.4447 291.443V344.356H86.3581V291.443H33.4447Z" stroke="white" stroke-width="0.714241"/>
<path d="M105.445 291.443V344.356H158.358V291.443H105.445Z" stroke="white" stroke-width="0.714241"/>
<path d="M240.442 291.443V344.356H293.355V291.443H240.442Z" stroke="white" stroke-width="0.714241"/>
<path d="M339.443 291.443V344.356H392.356V291.443H339.443Z" stroke="white" stroke-width="0.714241"/>
<path d="M411.443 291.443V344.356H464.356V291.443H411.443Z" stroke="white" stroke-width="0.714241"/>
<path d="M483.443 291.443V344.356H536.356V291.443H483.443Z" stroke="white" stroke-width="0.714241"/>
<path d="M555.443 291.443V344.356H608.356V291.443H555.443Z" stroke="white" stroke-width="0.714241"/>
<path d="M627.443 291.443V344.356H680.356V291.443H627.443Z" stroke="white" stroke-width="0.714241"/>
<path d="M699.443 291.443V344.356H752.356V291.443H699.443Z" stroke="white" stroke-width="0.714241"/>
<path d="M771.443 291.443V344.356H824.356V291.443H771.443Z" stroke="white" stroke-width="0.714241"/>
<path d="M843.443 291.443V344.356H896.356V291.443H843.443Z" stroke="white" stroke-width="0.714241"/>
<path d="M915.443 291.443V344.356H968.356V291.443H915.443Z" stroke="white" stroke-width="0.714241"/>
<path d="M987.443 291.443V344.356H1040.36V291.443H987.443Z" stroke="white" stroke-width="0.714241"/>
<path d="M1059.44 291.443V344.356H1112.36V291.443H1059.44Z" stroke="white" stroke-width="0.714241"/>
<path d="M1329.44 291.443V344.356H1382.36V291.443H1329.44Z" stroke="white" stroke-width="0.714241"/>
<path d="M33.4447 219.443V272.356H86.3581V219.443H33.4447Z" stroke="white" stroke-width="0.714241"/>
<path d="M105.445 219.443V272.356H158.358V219.443H105.445Z" stroke="white" stroke-width="0.714241"/>
<path d="M231.443 219.443V272.356H284.356V219.443H231.443Z" stroke="white" stroke-width="0.714241"/>
<path d="M321.445 219.443V272.356H374.358V219.443H321.445Z" stroke="white" stroke-width="0.714241"/>
<path d="M393.445 219.443V272.356H446.358V219.443H393.445Z" stroke="white" stroke-width="0.714241"/>
<path d="M465.445 219.443V272.356H518.358V219.443H465.445Z" stroke="white" stroke-width="0.714241"/>
<path d="M537.445 219.443V272.356H590.358V219.443H537.445Z" stroke="white" stroke-width="0.714241"/>
<path d="M609.445 219.443V272.356H662.358V219.443H609.445Z" stroke="white" stroke-width="0.714241"/>
<path d="M681.445 219.443V272.356H734.358V219.443H681.445Z" stroke="white" stroke-width="0.714241"/>
<path d="M753.445 219.443V272.356H806.358V219.443H753.445Z" stroke="white" stroke-width="0.714241"/>
<path d="M825.445 219.443V272.356H878.358V219.443H825.445Z" stroke="white" stroke-width="0.714241"/>
<path d="M897.445 219.443V272.356H950.358V219.443H897.445Z" stroke="white" stroke-width="0.714241"/>
<path d="M969.445 219.443V272.356H1022.36V219.443H969.445Z" stroke="white" stroke-width="0.714241"/>
<path d="M1041.44 219.443V272.356H1094.36V219.443H1041.44Z" stroke="white" stroke-width="0.714241"/>
<path d="M1113.44 219.443V272.356H1166.36V219.443H1113.44Z" stroke="white" stroke-width="0.714241"/>
<path d="M1203.44 219.443V272.356H1256.36V219.443H1203.44Z" stroke="white" stroke-width="0.714241"/>
<path d="M1329.44 219.443V272.356H1382.36V219.443H1329.44Z" stroke="white" stroke-width="0.714241"/>
<path d="M1185.44 147.443V165.207H1179.68V149.522H1173.16H1160.69H1154.17V165.207L1154.17 175.789L1154.17 206.5H1160.69H1173.16H1179.68V182.592H1185.44V200.356H1238.36V182.592H1244.12L1244.01 206H1250.53H1263H1269.52L1269.63 175.789V165.207V149.522H1263.11H1250.64H1244.12V165.207H1238.36V147.443H1185.44Z" stroke="white" stroke-width="0.714241"/>
<path d="M105.445 147.443V200.356H158.358V147.443H105.445Z" stroke="white" stroke-width="0.714241"/>
<path d="M213.445 147.443V200.356H266.358V147.443H213.445Z" stroke="white" stroke-width="0.714241"/>
<path d="M285.445 147.443V200.356H338.358V147.443H285.445Z" stroke="white" stroke-width="0.714241"/>
<path d="M357.445 147.443V200.356H410.358V147.443H357.445Z" stroke="white" stroke-width="0.714241"/>
<path d="M429.445 147.443V200.356H482.358V147.443H429.445Z" stroke="white" stroke-width="0.714241"/>
<path d="M501.445 147.443V200.356H554.358V147.443H501.445Z" stroke="white" stroke-width="0.714241"/>
<path d="M573.445 147.443V200.356H626.358V147.443H573.445Z" stroke="white" stroke-width="0.714241"/>
<path d="M645.445 147.443V200.356H698.358V147.443H645.445Z" stroke="white" stroke-width="0.714241"/>
<path d="M717.445 147.443V200.356H770.358V147.443H717.445Z" stroke="white" stroke-width="0.714241"/>
<path d="M789.445 147.443V200.356H842.358V147.443H789.445Z" stroke="white" stroke-width="0.714241"/>
<path d="M861.445 147.443V200.356H914.358V147.443H861.445Z" stroke="white" stroke-width="0.714241"/>
<path d="M933.445 147.443V200.356H986.354V147.443H933.445Z" stroke="white" stroke-width="0.714241"/>
<path d="M1005.44 147.443V200.356H1058.36V147.443H1005.44Z" stroke="white" stroke-width="0.714241"/>
<path d="M1077.44 147.443V200.356H1130.36V147.443H1077.44Z" stroke="white" stroke-width="0.714241"/>
<path d="M1329.44 147.443V200.356H1382.36V147.443H1329.44Z" stroke="white" stroke-width="0.714241"/>
<path d="M213.445 57.4447V110.358H266.358V57.4447H213.445Z" stroke="white" stroke-width="0.714241"/>
<path d="M303.443 57.4447V110.358H356.356V57.4447H303.443Z" stroke="white" stroke-width="0.714241"/>
<path d="M375.443 57.4447V110.358H428.356V57.4447H375.443Z" stroke="white" stroke-width="0.714241"/>
<path d="M447.443 57.4447V110.358H500.356V57.4447H447.443Z" stroke="white" stroke-width="0.714241"/>
<path d="M519.443 57.4447V110.358H572.356V57.4447H519.443Z" stroke="white" stroke-width="0.714241"/>
<path d="M609.445 57.4447V110.358H662.358V57.4447H609.445Z" stroke="white" stroke-width="0.714241"/>
<path d="M681.445 57.4447V110.358H734.358V57.4447H681.445Z" stroke="white" stroke-width="0.714241"/>
<path d="M753.445 57.4447V110.358H806.358V57.4447H753.445Z" stroke="white" stroke-width="0.714241"/>
<path d="M825.445 57.4447V110.358H878.358V57.4447H825.445Z" stroke="white" stroke-width="0.714241"/>
<path d="M915.443 57.4447V110.358H968.356V57.4447H915.443Z" stroke="white" stroke-width="0.714241"/>
<path d="M987.443 57.4447V110.358H1040.36V57.4447H987.443Z" stroke="white" stroke-width="0.714241"/>
<path d="M1059.44 57.4447V110.358H1112.36V57.4447H1059.44Z" stroke="white" stroke-width="0.714241"/>
<path d="M1131.44 57.4447V110.358H1184.36V57.4447H1131.44Z" stroke="white" stroke-width="0.714241"/>
<path d="M1221.44 57.4447V110.358H1274.36V57.4447H1221.44Z" stroke="white" stroke-width="0.714241"/>
<path d="M1329.44 57.4447V110.358H1382.36V57.4447H1329.44Z" stroke="white" stroke-width="0.714241"/>
</g>
<defs>
<clipPath id="clip0_7_6">
<rect width="1632" height="1056" fill="white"/>
</clipPath>
</defs>
</svg>
