<?xml version="1.0"?>
<!-- Generated by SVGo -->
<svg width="371.952mm" height="133.827mm"
     viewBox="0.000 0.000 371.952 133.827"
     xmlns="http://www.w3.org/2000/svg" 
     xmlns:xlink="http://www.w3.org/1999/xlink">
<polygon points="366.952,128.827 5.001,128.827 5.001,5.001 366.952,5.001" style="fill:none;stroke-width:0.050000mm;stroke:black"/>
<polygon points="307.563,112.301 307.563,113.301 306.763,113.301 306.763,116.400 307.563,116.400 307.563,122.201 306.763,122.201 306.763,125.301 307.563,125.301 307.563,126.301 321.563,126.301 321.563,125.301 322.363,125.301 322.363,122.201 321.563,122.201 321.563,116.400 322.363,116.400 322.363,113.301 321.563,113.301 321.563,112.301" style="fill:none;stroke-width:0.050000mm;stroke:black"/>
<polygon points="326.613,112.301 326.613,113.301 325.813,113.301 325.813,116.400 326.613,116.400 326.613,122.201 325.813,122.201 325.813,125.301 326.613,125.301 326.613,126.301 340.613,126.301 340.613,125.301 341.413,125.301 341.413,122.201 340.613,122.201 340.613,116.400 341.413,116.400 341.413,113.301 340.613,113.301 340.613,112.301" style="fill:none;stroke-width:0.050000mm;stroke:black"/>
<polygon points="345.663,112.301 345.663,113.301 344.863,113.301 344.863,116.400 345.663,116.400 345.663,122.201 344.863,122.201 344.863,125.301 345.663,125.301 345.663,126.301 359.663,126.301 359.663,125.301 360.463,125.301 360.463,122.201 359.663,122.201 359.663,116.400 360.463,116.400 360.463,113.301 359.663,113.301 359.663,112.301" style="fill:none;stroke-width:0.050000mm;stroke:black"/>
<polygon points="176.594,107.538 176.594,108.538 175.794,108.538 175.794,111.638 176.594,111.638 176.594,112.238 136.969,112.238 136.969,109.008 135.244,109.008 135.244,108.088 131.944,108.088 131.944,109.008 130.218,109.008 130.218,112.238 129.394,112.238 129.394,115.038 130.218,115.038 130.218,121.308 131.944,121.308 131.944,122.288 135.244,122.288 135.244,121.308 136.969,121.308 136.969,116.838 176.594,116.838 176.594,117.438 175.794,117.438 175.794,120.538 176.594,120.538 176.594,121.538 190.594,121.538 190.594,120.538 191.394,120.538 191.394,117.438 190.594,117.438 190.594,116.838 230.219,116.838 230.219,121.308 231.944,121.308 231.944,122.288 235.244,122.288 235.244,121.308 236.969,121.308 236.969,115.038 237.794,115.038 237.794,112.238 236.969,112.238 236.969,109.008 235.244,109.008 235.244,108.088 231.944,108.088 231.944,109.008 230.219,109.008 230.219,112.238 190.594,112.238 190.594,111.638 191.394,111.638 191.394,108.538 190.594,108.538 190.594,107.538" style="fill:none;stroke-width:0.050000mm;stroke:black"/>
<polygon points="7.526,107.538 7.526,108.538 6.726,108.538 6.726,111.638 7.526,111.638 7.526,117.438 6.726,117.438 6.726,120.538 7.526,120.538 7.526,121.538 21.526,121.538 21.526,120.538 22.326,120.538 22.326,117.438 21.526,117.438 21.526,111.638 22.326,111.638 22.326,108.538 21.526,108.538 21.526,107.538" style="fill:none;stroke-width:0.050000mm;stroke:black"/>
<polygon points="26.576,107.538 26.576,108.538 25.776,108.538 25.776,111.638 26.576,111.638 26.576,117.438 25.776,117.438 25.776,120.538 26.576,120.538 26.576,121.538 40.576,121.538 40.576,120.538 41.376,120.538 41.376,117.438 40.576,117.438 40.576,111.638 41.376,111.638 41.376,108.538 40.576,108.538 40.576,107.538" style="fill:none;stroke-width:0.050000mm;stroke:black"/>
<polygon points="57.532,107.538 57.532,108.538 56.732,108.538 56.732,111.638 57.532,111.638 57.532,117.438 56.732,117.438 56.732,120.538 57.532,120.538 57.532,121.538 71.532,121.538 71.532,120.538 72.332,120.538 72.332,117.438 71.532,117.438 71.532,111.638 72.332,111.638 72.332,108.538 71.532,108.538 71.532,107.538" style="fill:none;stroke-width:0.050000mm;stroke:black"/>
<polygon points="81.344,107.538 81.344,108.538 80.544,108.538 80.544,111.638 81.344,111.638 81.344,117.438 80.544,117.438 80.544,120.538 81.344,120.538 81.344,121.538 95.344,121.538 95.344,120.538 96.144,120.538 96.144,117.438 95.344,117.438 95.344,111.638 96.144,111.638 96.144,108.538 95.344,108.538 95.344,107.538" style="fill:none;stroke-width:0.050000mm;stroke:black"/>
<polygon points="105.157,107.538 105.157,108.538 104.357,108.538 104.357,111.638 105.157,111.638 105.157,117.438 104.357,117.438 104.357,120.538 105.157,120.538 105.157,121.538 119.157,121.538 119.157,120.538 119.957,120.538 119.957,117.438 119.157,117.438 119.157,111.638 119.957,111.638 119.957,108.538 119.157,108.538 119.157,107.538" style="fill:none;stroke-width:0.050000mm;stroke:black"/>
<polygon points="245.651,107.538 245.651,108.538 244.851,108.538 244.851,111.638 245.651,111.638 245.651,117.438 244.851,117.438 244.851,120.538 245.651,120.538 245.651,121.538 259.650,121.538 259.650,120.538 260.451,120.538 260.451,117.438 259.650,117.438 259.650,111.638 260.451,111.638 260.451,108.538 259.650,108.538 259.650,107.538" style="fill:none;stroke-width:0.050000mm;stroke:black"/>
<polygon points="264.701,107.538 264.701,108.538 263.901,108.538 263.901,111.638 264.701,111.638 264.701,117.438 263.901,117.438 263.901,120.538 264.701,120.538 264.701,121.538 278.701,121.538 278.701,120.538 279.501,120.538 279.501,117.438 278.701,117.438 278.701,111.638 279.501,111.638 279.501,108.538 278.701,108.538 278.701,107.538" style="fill:none;stroke-width:0.050000mm;stroke:black"/>
<polygon points="283.751,107.538 283.751,108.538 282.951,108.538 282.951,111.638 283.751,111.638 283.751,117.438 282.951,117.438 282.951,120.538 283.751,120.538 283.751,121.538 297.751,121.538 297.751,120.538 298.551,120.538 298.551,117.438 297.751,117.438 297.751,111.638 298.551,111.638 298.551,108.538 297.751,108.538 297.751,107.538" style="fill:none;stroke-width:0.050000mm;stroke:black"/>
<polygon points="326.613,93.251 326.613,94.251 325.813,94.251 325.813,97.351 326.613,97.351 326.613,103.151 325.813,103.151 325.813,106.251 326.613,106.251 326.613,107.251 340.613,107.251 340.613,106.251 341.413,106.251 341.413,103.151 340.613,103.151 340.613,97.351 341.413,97.351 341.413,94.251 340.613,94.251 340.613,93.251" style="fill:none;stroke-width:0.050000mm;stroke:black"/>
<polygon points="67.057,88.488 67.057,89.488 66.257,89.488 66.257,92.588 67.057,92.588 67.057,93.188 65.532,93.188 65.532,89.958 63.807,89.958 63.807,89.038 60.507,89.038 60.507,89.958 58.782,89.958 58.782,93.188 57.957,93.188 57.957,95.988 58.782,95.988 58.782,102.258 60.507,102.258 60.507,103.238 63.807,103.238 63.807,102.258 65.532,102.258 65.532,97.788 67.057,97.788 67.057,98.388 66.257,98.388 66.257,101.488 67.057,101.488 67.057,102.488 81.057,102.488 81.057,101.488 81.857,101.488 81.857,98.388 81.057,98.388 81.057,97.788 82.582,97.788 82.582,102.258 84.307,102.258 84.307,103.238 87.607,103.238 87.607,102.258 89.332,102.258 89.332,95.988 90.157,95.988 90.157,93.188 89.332,93.188 89.332,89.958 87.607,89.958 87.607,89.038 84.307,89.038 84.307,89.958 82.582,89.958 82.582,93.188 81.057,93.188 81.057,92.588 81.857,92.588 81.857,89.488 81.057,89.488 81.057,88.488" style="fill:none;stroke-width:0.050000mm;stroke:black"/>
<polygon points="7.526,88.488 7.526,89.488 6.726,89.488 6.726,92.588 7.526,92.588 7.526,98.388 6.726,98.388 6.726,101.488 7.526,101.488 7.526,102.488 21.526,102.488 21.526,101.488 22.326,101.488 22.326,98.388 21.526,98.388 21.526,92.588 22.326,92.588 22.326,89.488 21.526,89.488 21.526,88.488" style="fill:none;stroke-width:0.050000mm;stroke:black"/>
<polygon points="26.576,88.488 26.576,89.488 25.776,89.488 25.776,92.588 26.576,92.588 26.576,98.388 25.776,98.388 25.776,101.488 26.576,101.488 26.576,102.488 40.576,102.488 40.576,101.488 41.376,101.488 41.376,98.388 40.576,98.388 40.576,92.588 41.376,92.588 41.376,89.488 40.576,89.488 40.576,88.488" style="fill:none;stroke-width:0.050000mm;stroke:black"/>
<polygon points="98.013,88.488 98.013,89.488 97.213,89.488 97.213,92.588 98.013,92.588 98.013,98.388 97.213,98.388 97.213,101.488 98.013,101.488 98.013,102.488 112.013,102.488 112.013,101.488 112.813,101.488 112.813,98.388 112.013,98.388 112.013,92.588 112.813,92.588 112.813,89.488 112.013,89.488 112.013,88.488" style="fill:none;stroke-width:0.050000mm;stroke:black"/>
<polygon points="117.063,88.488 117.063,89.488 116.263,89.488 116.263,92.588 117.063,92.588 117.063,98.388 116.263,98.388 116.263,101.488 117.063,101.488 117.063,102.488 131.063,102.488 131.063,101.488 131.863,101.488 131.863,98.388 131.063,98.388 131.063,92.588 131.863,92.588 131.863,89.488 131.063,89.488 131.063,88.488" style="fill:none;stroke-width:0.050000mm;stroke:black"/>
<polygon points="136.113,88.488 136.113,89.488 135.313,89.488 135.313,92.588 136.113,92.588 136.113,98.388 135.313,98.388 135.313,101.488 136.113,101.488 136.113,102.488 150.113,102.488 150.113,101.488 150.913,101.488 150.913,98.388 150.113,98.388 150.113,92.588 150.913,92.588 150.913,89.488 150.113,89.488 150.113,88.488" style="fill:none;stroke-width:0.050000mm;stroke:black"/>
<polygon points="155.163,88.488 155.163,89.488 154.363,89.488 154.363,92.588 155.163,92.588 155.163,98.388 154.363,98.388 154.363,101.488 155.163,101.488 155.163,102.488 169.163,102.488 169.163,101.488 169.963,101.488 169.963,98.388 169.163,98.388 169.163,92.588 169.963,92.588 169.963,89.488 169.163,89.488 169.163,88.488" style="fill:none;stroke-width:0.050000mm;stroke:black"/>
<polygon points="174.213,88.488 174.213,89.488 173.413,89.488 173.413,92.588 174.213,92.588 174.213,98.388 173.413,98.388 173.413,101.488 174.213,101.488 174.213,102.488 188.213,102.488 188.213,101.488 189.013,101.488 189.013,98.388 188.213,98.388 188.213,92.588 189.013,92.588 189.013,89.488 188.213,89.488 188.213,88.488" style="fill:none;stroke-width:0.050000mm;stroke:black"/>
<polygon points="193.263,88.488 193.263,89.488 192.463,89.488 192.463,92.588 193.263,92.588 193.263,98.388 192.463,98.388 192.463,101.488 193.263,101.488 193.263,102.488 207.263,102.488 207.263,101.488 208.063,101.488 208.063,98.388 207.263,98.388 207.263,92.588 208.063,92.588 208.063,89.488 207.263,89.488 207.263,88.488" style="fill:none;stroke-width:0.050000mm;stroke:black"/>
<polygon points="212.313,88.488 212.313,89.488 211.513,89.488 211.513,92.588 212.313,92.588 212.313,98.388 211.513,98.388 211.513,101.488 212.313,101.488 212.313,102.488 226.313,102.488 226.313,101.488 227.113,101.488 227.113,98.388 226.313,98.388 226.313,92.588 227.113,92.588 227.113,89.488 226.313,89.488 226.313,88.488" style="fill:none;stroke-width:0.050000mm;stroke:black"/>
<polygon points="231.363,88.488 231.363,89.488 230.563,89.488 230.563,92.588 231.363,92.588 231.363,98.388 230.563,98.388 230.563,101.488 231.363,101.488 231.363,102.488 245.363,102.488 245.363,101.488 246.163,101.488 246.163,98.388 245.363,98.388 245.363,92.588 246.163,92.588 246.163,89.488 245.363,89.488 245.363,88.488" style="fill:none;stroke-width:0.050000mm;stroke:black"/>
<polygon points="250.413,88.488 250.413,89.488 249.613,89.488 249.613,92.588 250.413,92.588 250.413,98.388 249.613,98.388 249.613,101.488 250.413,101.488 250.413,102.488 264.413,102.488 264.413,101.488 265.213,101.488 265.213,98.388 264.413,98.388 264.413,92.588 265.213,92.588 265.213,89.488 264.413,89.488 264.413,88.488" style="fill:none;stroke-width:0.050000mm;stroke:black"/>
<polygon points="269.463,88.488 269.463,89.488 268.663,89.488 268.663,92.588 269.463,92.588 269.463,98.388 268.663,98.388 268.663,101.488 269.463,101.488 269.463,102.488 283.463,102.488 283.463,101.488 284.263,101.488 284.263,98.388 283.463,98.388 283.463,92.588 284.263,92.588 284.263,89.488 283.463,89.488 283.463,88.488" style="fill:none;stroke-width:0.050000mm;stroke:black"/>
<polygon points="295.657,88.488 295.657,89.488 294.857,89.488 294.857,92.588 295.657,92.588 295.657,98.388 294.857,98.388 294.857,101.488 295.657,101.488 295.657,102.488 309.657,102.488 309.657,101.488 310.457,101.488 310.457,98.388 309.657,98.388 309.657,92.588 310.457,92.588 310.457,89.488 309.657,89.488 309.657,88.488" style="fill:none;stroke-width:0.050000mm;stroke:black"/>
<polygon points="350.426,88.488 350.426,89.488 349.626,89.488 349.626,92.588 350.426,92.588 350.426,98.388 349.626,98.388 349.626,101.488 350.426,101.488 350.426,102.488 364.426,102.488 364.426,101.488 365.226,101.488 365.226,98.388 364.426,98.388 364.426,92.588 365.226,92.588 365.226,89.488 364.426,89.488 364.426,88.488" style="fill:none;stroke-width:0.050000mm;stroke:black"/>
<polygon points="309.944,69.438 309.944,70.438 309.144,70.438 309.144,73.538 309.944,73.538 309.944,74.138 308.419,74.138 308.419,70.908 306.694,70.908 306.694,69.988 303.394,69.988 303.394,70.908 301.669,70.908 301.669,74.138 300.844,74.138 300.844,76.938 301.669,76.938 301.669,83.208 303.394,83.208 303.394,84.188 306.694,84.188 306.694,83.208 308.419,83.208 308.419,78.738 309.944,78.738 309.944,79.338 309.144,79.338 309.144,82.438 309.944,82.438 309.944,83.438 323.944,83.438 323.944,82.438 324.744,82.438 324.744,79.338 323.944,79.338 323.944,78.738 325.469,78.738 325.469,83.208 327.194,83.208 327.194,84.188 330.494,84.188 330.494,83.208 332.219,83.208 332.219,76.938 333.044,76.938 333.044,74.138 332.219,74.138 332.219,70.908 330.494,70.908 330.494,69.988 327.194,69.988 327.194,70.908 325.469,70.908 325.469,74.138 323.944,74.138 323.944,73.538 324.744,73.538 324.744,70.438 323.944,70.438 323.944,69.438" style="fill:none;stroke-width:0.050000mm;stroke:black"/>
<polygon points="7.526,69.438 7.526,70.438 6.726,70.438 6.726,73.538 7.526,73.538 7.526,79.338 6.726,79.338 6.726,82.438 7.526,82.438 7.526,83.438 21.526,83.438 21.526,82.438 22.326,82.438 22.326,79.338 21.526,79.338 21.526,73.538 22.326,73.538 22.326,70.438 21.526,70.438 21.526,69.438" style="fill:none;stroke-width:0.050000mm;stroke:black"/>
<polygon points="26.576,69.438 26.576,70.438 25.776,70.438 25.776,73.538 26.576,73.538 26.576,79.338 25.776,79.338 25.776,82.438 26.576,82.438 26.576,83.438 40.576,83.438 40.576,82.438 41.376,82.438 41.376,79.338 40.576,79.338 40.576,73.538 41.376,73.538 41.376,70.438 40.576,70.438 40.576,69.438" style="fill:none;stroke-width:0.050000mm;stroke:black"/>
<polygon points="62.294,69.438 62.294,70.438 61.494,70.438 61.494,73.538 62.294,73.538 62.294,79.338 61.494,79.338 61.494,82.438 62.294,82.438 62.294,83.438 76.294,83.438 76.294,82.438 77.094,82.438 77.094,79.338 76.294,79.338 76.294,73.538 77.094,73.538 77.094,70.438 76.294,70.438 76.294,69.438" style="fill:none;stroke-width:0.050000mm;stroke:black"/>
<polygon points="88.488,69.438 88.488,70.438 87.688,70.438 87.688,73.538 88.488,73.538 88.488,79.338 87.688,79.338 87.688,82.438 88.488,82.438 88.488,83.438 102.488,83.438 102.488,82.438 103.288,82.438 103.288,79.338 102.488,79.338 102.488,73.538 103.288,73.538 103.288,70.438 102.488,70.438 102.488,69.438" style="fill:none;stroke-width:0.050000mm;stroke:black"/>
<polygon points="107.538,69.438 107.538,70.438 106.738,70.438 106.738,73.538 107.538,73.538 107.538,79.338 106.738,79.338 106.738,82.438 107.538,82.438 107.538,83.438 121.538,83.438 121.538,82.438 122.338,82.438 122.338,79.338 121.538,79.338 121.538,73.538 122.338,73.538 122.338,70.438 121.538,70.438 121.538,69.438" style="fill:none;stroke-width:0.050000mm;stroke:black"/>
<polygon points="126.588,69.438 126.588,70.438 125.788,70.438 125.788,73.538 126.588,73.538 126.588,79.338 125.788,79.338 125.788,82.438 126.588,82.438 126.588,83.438 140.588,83.438 140.588,82.438 141.388,82.438 141.388,79.338 140.588,79.338 140.588,73.538 141.388,73.538 141.388,70.438 140.588,70.438 140.588,69.438" style="fill:none;stroke-width:0.050000mm;stroke:black"/>
<polygon points="145.638,69.438 145.638,70.438 144.838,70.438 144.838,73.538 145.638,73.538 145.638,79.338 144.838,79.338 144.838,82.438 145.638,82.438 145.638,83.438 159.638,83.438 159.638,82.438 160.438,82.438 160.438,79.338 159.638,79.338 159.638,73.538 160.438,73.538 160.438,70.438 159.638,70.438 159.638,69.438" style="fill:none;stroke-width:0.050000mm;stroke:black"/>
<polygon points="164.688,69.438 164.688,70.438 163.888,70.438 163.888,73.538 164.688,73.538 164.688,79.338 163.888,79.338 163.888,82.438 164.688,82.438 164.688,83.438 178.688,83.438 178.688,82.438 179.488,82.438 179.488,79.338 178.688,79.338 178.688,73.538 179.488,73.538 179.488,70.438 178.688,70.438 178.688,69.438" style="fill:none;stroke-width:0.050000mm;stroke:black"/>
<polygon points="183.738,69.438 183.738,70.438 182.938,70.438 182.938,73.538 183.738,73.538 183.738,79.338 182.938,79.338 182.938,82.438 183.738,82.438 183.738,83.438 197.738,83.438 197.738,82.438 198.538,82.438 198.538,79.338 197.738,79.338 197.738,73.538 198.538,73.538 198.538,70.438 197.738,70.438 197.738,69.438" style="fill:none;stroke-width:0.050000mm;stroke:black"/>
<polygon points="202.788,69.438 202.788,70.438 201.988,70.438 201.988,73.538 202.788,73.538 202.788,79.338 201.988,79.338 201.988,82.438 202.788,82.438 202.788,83.438 216.788,83.438 216.788,82.438 217.588,82.438 217.588,79.338 216.788,79.338 216.788,73.538 217.588,73.538 217.588,70.438 216.788,70.438 216.788,69.438" style="fill:none;stroke-width:0.050000mm;stroke:black"/>
<polygon points="221.838,69.438 221.838,70.438 221.038,70.438 221.038,73.538 221.838,73.538 221.838,79.338 221.038,79.338 221.038,82.438 221.838,82.438 221.838,83.438 235.838,83.438 235.838,82.438 236.638,82.438 236.638,79.338 235.838,79.338 235.838,73.538 236.638,73.538 236.638,70.438 235.838,70.438 235.838,69.438" style="fill:none;stroke-width:0.050000mm;stroke:black"/>
<polygon points="240.888,69.438 240.888,70.438 240.088,70.438 240.088,73.538 240.888,73.538 240.888,79.338 240.088,79.338 240.088,82.438 240.888,82.438 240.888,83.438 254.888,83.438 254.888,82.438 255.688,82.438 255.688,79.338 254.888,79.338 254.888,73.538 255.688,73.538 255.688,70.438 254.888,70.438 254.888,69.438" style="fill:none;stroke-width:0.050000mm;stroke:black"/>
<polygon points="259.938,69.438 259.938,70.438 259.138,70.438 259.138,73.538 259.938,73.538 259.938,79.338 259.138,79.338 259.138,82.438 259.938,82.438 259.938,83.438 273.938,83.438 273.938,82.438 274.738,82.438 274.738,79.338 273.938,79.338 273.938,73.538 274.738,73.538 274.738,70.438 273.938,70.438 273.938,69.438" style="fill:none;stroke-width:0.050000mm;stroke:black"/>
<polygon points="278.988,69.438 278.988,70.438 278.188,70.438 278.188,73.538 278.988,73.538 278.988,79.338 278.188,79.338 278.188,82.438 278.988,82.438 278.988,83.438 292.988,83.438 292.988,82.438 293.788,82.438 293.788,79.338 292.988,79.338 292.988,73.538 293.788,73.538 293.788,70.438 292.988,70.438 292.988,69.438" style="fill:none;stroke-width:0.050000mm;stroke:black"/>
<polygon points="350.426,69.438 350.426,70.438 349.626,70.438 349.626,73.538 350.426,73.538 350.426,79.338 349.626,79.338 349.626,82.438 350.426,82.438 350.426,83.438 364.426,83.438 364.426,82.438 365.226,82.438 365.226,79.338 364.426,79.338 364.426,73.538 365.226,73.538 365.226,70.438 364.426,70.438 364.426,69.438" style="fill:none;stroke-width:0.050000mm;stroke:black"/>
<polygon points="7.526,50.388 7.526,51.388 6.726,51.388 6.726,54.488 7.526,54.488 7.526,60.288 6.726,60.288 6.726,63.388 7.526,63.388 7.526,64.388 21.526,64.388 21.526,63.388 22.326,63.388 22.326,60.288 21.526,60.288 21.526,54.488 22.326,54.488 22.326,51.388 21.526,51.388 21.526,50.388" style="fill:none;stroke-width:0.050000mm;stroke:black"/>
<polygon points="26.576,50.388 26.576,51.388 25.776,51.388 25.776,54.488 26.576,54.488 26.576,60.288 25.776,60.288 25.776,63.388 26.576,63.388 26.576,64.388 40.576,64.388 40.576,63.388 41.376,63.388 41.376,60.288 40.576,60.288 40.576,54.488 41.376,54.488 41.376,51.388 40.576,51.388 40.576,50.388" style="fill:none;stroke-width:0.050000mm;stroke:black"/>
<polygon points="59.913,50.388 59.913,51.388 59.113,51.388 59.113,54.488 59.913,54.488 59.913,60.288 59.113,60.288 59.113,63.388 59.913,63.388 59.913,64.388 73.913,64.388 73.913,63.388 74.713,63.388 74.713,60.288 73.913,60.288 73.913,54.488 74.713,54.488 74.713,51.388 73.913,51.388 73.913,50.388" style="fill:none;stroke-width:0.050000mm;stroke:black"/>
<polygon points="83.726,50.388 83.726,51.388 82.926,51.388 82.926,54.488 83.726,54.488 83.726,60.288 82.926,60.288 82.926,63.388 83.726,63.388 83.726,64.388 97.726,64.388 97.726,63.388 98.526,63.388 98.526,60.288 97.726,60.288 97.726,54.488 98.526,54.488 98.526,51.388 97.726,51.388 97.726,50.388" style="fill:none;stroke-width:0.050000mm;stroke:black"/>
<polygon points="102.776,50.388 102.776,51.388 101.976,51.388 101.976,54.488 102.776,54.488 102.776,60.288 101.976,60.288 101.976,63.388 102.776,63.388 102.776,64.388 116.776,64.388 116.776,63.388 117.576,63.388 117.576,60.288 116.776,60.288 116.776,54.488 117.576,54.488 117.576,51.388 116.776,51.388 116.776,50.388" style="fill:none;stroke-width:0.050000mm;stroke:black"/>
<polygon points="121.826,50.388 121.826,51.388 121.026,51.388 121.026,54.488 121.826,54.488 121.826,60.288 121.026,60.288 121.026,63.388 121.826,63.388 121.826,64.388 135.826,64.388 135.826,63.388 136.626,63.388 136.626,60.288 135.826,60.288 135.826,54.488 136.626,54.488 136.626,51.388 135.826,51.388 135.826,50.388" style="fill:none;stroke-width:0.050000mm;stroke:black"/>
<polygon points="140.876,50.388 140.876,51.388 140.076,51.388 140.076,54.488 140.876,54.488 140.876,60.288 140.076,60.288 140.076,63.388 140.876,63.388 140.876,64.388 154.876,64.388 154.876,63.388 155.676,63.388 155.676,60.288 154.876,60.288 154.876,54.488 155.676,54.488 155.676,51.388 154.876,51.388 154.876,50.388" style="fill:none;stroke-width:0.050000mm;stroke:black"/>
<polygon points="159.926,50.388 159.926,51.388 159.126,51.388 159.126,54.488 159.926,54.488 159.926,60.288 159.126,60.288 159.126,63.388 159.926,63.388 159.926,64.388 173.926,64.388 173.926,63.388 174.726,63.388 174.726,60.288 173.926,60.288 173.926,54.488 174.726,54.488 174.726,51.388 173.926,51.388 173.926,50.388" style="fill:none;stroke-width:0.050000mm;stroke:black"/>
<polygon points="178.976,50.388 178.976,51.388 178.176,51.388 178.176,54.488 178.976,54.488 178.976,60.288 178.176,60.288 178.176,63.388 178.976,63.388 178.976,64.388 192.976,64.388 192.976,63.388 193.776,63.388 193.776,60.288 192.976,60.288 192.976,54.488 193.776,54.488 193.776,51.388 192.976,51.388 192.976,50.388" style="fill:none;stroke-width:0.050000mm;stroke:black"/>
<polygon points="198.026,50.388 198.026,51.388 197.226,51.388 197.226,54.488 198.026,54.488 198.026,60.288 197.226,60.288 197.226,63.388 198.026,63.388 198.026,64.388 212.026,64.388 212.026,63.388 212.826,63.388 212.826,60.288 212.026,60.288 212.026,54.488 212.826,54.488 212.826,51.388 212.026,51.388 212.026,50.388" style="fill:none;stroke-width:0.050000mm;stroke:black"/>
<polygon points="217.076,50.388 217.076,51.388 216.276,51.388 216.276,54.488 217.076,54.488 217.076,60.288 216.276,60.288 216.276,63.388 217.076,63.388 217.076,64.388 231.076,64.388 231.076,63.388 231.876,63.388 231.876,60.288 231.076,60.288 231.076,54.488 231.876,54.488 231.876,51.388 231.076,51.388 231.076,50.388" style="fill:none;stroke-width:0.050000mm;stroke:black"/>
<polygon points="236.126,50.388 236.126,51.388 235.326,51.388 235.326,54.488 236.126,54.488 236.126,60.288 235.326,60.288 235.326,63.388 236.126,63.388 236.126,64.388 250.126,64.388 250.126,63.388 250.926,63.388 250.926,60.288 250.126,60.288 250.126,54.488 250.926,54.488 250.926,51.388 250.126,51.388 250.126,50.388" style="fill:none;stroke-width:0.050000mm;stroke:black"/>
<polygon points="255.176,50.388 255.176,51.388 254.376,51.388 254.376,54.488 255.176,54.488 255.176,60.288 254.376,60.288 254.376,63.388 255.176,63.388 255.176,64.388 269.176,64.388 269.176,63.388 269.976,63.388 269.976,60.288 269.176,60.288 269.176,54.488 269.976,54.488 269.976,51.388 269.176,51.388 269.176,50.388" style="fill:none;stroke-width:0.050000mm;stroke:black"/>
<polygon points="274.226,50.388 274.226,51.388 273.426,51.388 273.426,54.488 274.226,54.488 274.226,60.288 273.426,60.288 273.426,63.388 274.226,63.388 274.226,64.388 288.226,64.388 288.226,63.388 289.026,63.388 289.026,60.288 288.226,60.288 288.226,54.488 289.026,54.488 289.026,51.388 288.226,51.388 288.226,50.388" style="fill:none;stroke-width:0.050000mm;stroke:black"/>
<polygon points="293.276,50.388 293.276,51.388 292.476,51.388 292.476,54.488 293.276,54.488 293.276,60.288 292.476,60.288 292.476,63.388 293.276,63.388 293.276,64.388 307.276,64.388 307.276,63.388 308.076,63.388 308.076,60.288 307.276,60.288 307.276,54.488 308.076,54.488 308.076,51.388 307.276,51.388 307.276,50.388" style="fill:none;stroke-width:0.050000mm;stroke:black"/>
<polygon points="317.088,50.388 317.088,51.388 316.288,51.388 316.288,54.488 317.088,54.488 317.088,60.288 316.288,60.288 316.288,63.388 317.088,63.388 317.088,64.388 331.088,64.388 331.088,63.388 331.888,63.388 331.888,60.288 331.088,60.288 331.088,54.488 331.888,54.488 331.888,51.388 331.088,51.388 331.088,50.388" style="fill:none;stroke-width:0.050000mm;stroke:black"/>
<polygon points="350.426,50.388 350.426,51.388 349.626,51.388 349.626,54.488 350.426,54.488 350.426,60.288 349.626,60.288 349.626,63.388 350.426,63.388 350.426,64.388 364.426,64.388 364.426,63.388 365.226,63.388 365.226,60.288 364.426,60.288 364.426,54.488 365.226,54.488 365.226,51.388 364.426,51.388 364.426,50.388" style="fill:none;stroke-width:0.050000mm;stroke:black"/>
<polygon points="312.326,31.338 312.326,32.338 311.526,32.338 311.526,35.438 312.326,35.438 312.326,36.038 310.801,36.038 310.801,32.808 309.076,32.808 309.076,31.888 305.776,31.888 305.776,32.808 304.051,32.808 304.051,36.038 303.226,36.038 303.226,38.838 304.051,38.838 304.051,45.108 305.776,45.108 305.776,46.088 309.076,46.088 309.076,45.108 310.801,45.108 310.801,40.638 312.326,40.638 312.326,41.238 311.526,41.238 311.526,44.338 312.326,44.338 312.326,45.338 326.326,45.338 326.326,44.338 327.126,44.338 327.126,41.238 326.326,41.238 326.326,40.638 327.851,40.638 327.851,45.108 329.576,45.108 329.576,46.088 332.876,46.088 332.876,45.108 334.601,45.108 334.601,38.838 335.426,38.838 335.426,36.038 334.601,36.038 334.601,32.808 332.876,32.808 332.876,31.888 329.576,31.888 329.576,32.808 327.851,32.808 327.851,36.038 326.326,36.038 326.326,35.438 327.126,35.438 327.126,32.338 326.326,32.338 326.326,31.338" style="fill:none;stroke-width:0.050000mm;stroke:black"/>
<polygon points="26.576,31.338 26.576,32.338 25.776,32.338 25.776,35.438 26.576,35.438 26.576,41.238 25.776,41.238 25.776,44.338 26.576,44.338 26.576,45.338 40.576,45.338 40.576,44.338 41.376,44.338 41.376,41.238 40.576,41.238 40.576,35.438 41.376,35.438 41.376,32.338 40.576,32.338 40.576,31.338" style="fill:none;stroke-width:0.050000mm;stroke:black"/>
<polygon points="55.151,31.338 55.151,32.338 54.351,32.338 54.351,35.438 55.151,35.438 55.151,41.238 54.351,41.238 54.351,44.338 55.151,44.338 55.151,45.338 69.151,45.338 69.151,44.338 69.951,44.338 69.951,41.238 69.151,41.238 69.151,35.438 69.951,35.438 69.951,32.338 69.151,32.338 69.151,31.338" style="fill:none;stroke-width:0.050000mm;stroke:black"/>
<polygon points="74.201,31.338 74.201,32.338 73.401,32.338 73.401,35.438 74.201,35.438 74.201,41.238 73.401,41.238 73.401,44.338 74.201,44.338 74.201,45.338 88.201,45.338 88.201,44.338 89.001,44.338 89.001,41.238 88.201,41.238 88.201,35.438 89.001,35.438 89.001,32.338 88.201,32.338 88.201,31.338" style="fill:none;stroke-width:0.050000mm;stroke:black"/>
<polygon points="93.251,31.338 93.251,32.338 92.451,32.338 92.451,35.438 93.251,35.438 93.251,41.238 92.451,41.238 92.451,44.338 93.251,44.338 93.251,45.338 107.251,45.338 107.251,44.338 108.051,44.338 108.051,41.238 107.251,41.238 107.251,35.438 108.051,35.438 108.051,32.338 107.251,32.338 107.251,31.338" style="fill:none;stroke-width:0.050000mm;stroke:black"/>
<polygon points="112.301,31.338 112.301,32.338 111.501,32.338 111.501,35.438 112.301,35.438 112.301,41.238 111.501,41.238 111.501,44.338 112.301,44.338 112.301,45.338 126.301,45.338 126.301,44.338 127.101,44.338 127.101,41.238 126.301,41.238 126.301,35.438 127.101,35.438 127.101,32.338 126.301,32.338 126.301,31.338" style="fill:none;stroke-width:0.050000mm;stroke:black"/>
<polygon points="131.351,31.338 131.351,32.338 130.550,32.338 130.550,35.438 131.351,35.438 131.351,41.238 130.550,41.238 130.550,44.338 131.351,44.338 131.351,45.338 145.351,45.338 145.351,44.338 146.151,44.338 146.151,41.238 145.351,41.238 145.351,35.438 146.151,35.438 146.151,32.338 145.351,32.338 145.351,31.338" style="fill:none;stroke-width:0.050000mm;stroke:black"/>
<polygon points="150.401,31.338 150.401,32.338 149.601,32.338 149.601,35.438 150.401,35.438 150.401,41.238 149.601,41.238 149.601,44.338 150.401,44.338 150.401,45.338 164.401,45.338 164.401,44.338 165.201,44.338 165.201,41.238 164.401,41.238 164.401,35.438 165.201,35.438 165.201,32.338 164.401,32.338 164.401,31.338" style="fill:none;stroke-width:0.050000mm;stroke:black"/>
<polygon points="169.451,31.338 169.451,32.338 168.651,32.338 168.651,35.438 169.451,35.438 169.451,41.238 168.651,41.238 168.651,44.338 169.451,44.338 169.451,45.338 183.451,45.338 183.451,44.338 184.251,44.338 184.251,41.238 183.451,41.238 183.451,35.438 184.251,35.438 184.251,32.338 183.451,32.338 183.451,31.338" style="fill:none;stroke-width:0.050000mm;stroke:black"/>
<polygon points="188.501,31.338 188.501,32.338 187.701,32.338 187.701,35.438 188.501,35.438 188.501,41.238 187.701,41.238 187.701,44.338 188.501,44.338 188.501,45.338 202.501,45.338 202.501,44.338 203.301,44.338 203.301,41.238 202.501,41.238 202.501,35.438 203.301,35.438 203.301,32.338 202.501,32.338 202.501,31.338" style="fill:none;stroke-width:0.050000mm;stroke:black"/>
<polygon points="207.551,31.338 207.551,32.338 206.751,32.338 206.751,35.438 207.551,35.438 207.551,41.238 206.751,41.238 206.751,44.338 207.551,44.338 207.551,45.338 221.551,45.338 221.551,44.338 222.351,44.338 222.351,41.238 221.551,41.238 221.551,35.438 222.351,35.438 222.351,32.338 221.551,32.338 221.551,31.338" style="fill:none;stroke-width:0.050000mm;stroke:black"/>
<polygon points="226.601,31.338 226.601,32.338 225.801,32.338 225.801,35.438 226.601,35.438 226.601,41.238 225.801,41.238 225.801,44.338 226.601,44.338 226.601,45.338 240.601,45.338 240.601,44.338 241.401,44.338 241.401,41.238 240.601,41.238 240.601,35.438 241.401,35.438 241.401,32.338 240.601,32.338 240.601,31.338" style="fill:none;stroke-width:0.050000mm;stroke:black"/>
<polygon points="245.651,31.338 245.651,32.338 244.851,32.338 244.851,35.438 245.651,35.438 245.651,41.238 244.851,41.238 244.851,44.338 245.651,44.338 245.651,45.338 259.650,45.338 259.650,44.338 260.451,44.338 260.451,41.238 259.650,41.238 259.650,35.438 260.451,35.438 260.451,32.338 259.650,32.338 259.650,31.338" style="fill:none;stroke-width:0.050000mm;stroke:black"/>
<polygon points="264.701,31.338 264.701,32.338 263.901,32.338 263.901,35.438 264.701,35.438 264.701,41.238 263.901,41.238 263.901,44.338 264.701,44.338 264.701,45.338 278.701,45.338 278.701,44.338 279.501,44.338 279.501,41.238 278.701,41.238 278.701,35.438 279.501,35.438 279.501,32.338 278.701,32.338 278.701,31.338" style="fill:none;stroke-width:0.050000mm;stroke:black"/>
<polygon points="283.751,31.338 283.751,32.338 282.951,32.338 282.951,35.438 283.751,35.438 283.751,41.238 282.951,41.238 282.951,44.338 283.751,44.338 283.751,45.338 297.751,45.338 297.751,44.338 298.551,44.338 298.551,41.238 297.751,41.238 297.751,35.438 298.551,35.438 298.551,32.338 297.751,32.338 297.751,31.338" style="fill:none;stroke-width:0.050000mm;stroke:black"/>
<polygon points="350.426,31.338 350.426,32.338 349.626,32.338 349.626,35.438 350.426,35.438 350.426,41.238 349.626,41.238 349.626,44.338 350.426,44.338 350.426,45.338 364.426,45.338 364.426,44.338 365.226,44.338 365.226,41.238 364.426,41.238 364.426,35.438 365.226,35.438 365.226,32.338 364.426,32.338 364.426,31.338" style="fill:none;stroke-width:0.050000mm;stroke:black"/>
<polygon points="55.151,7.526 55.151,8.526 54.351,8.526 54.351,11.626 55.151,11.626 55.151,17.426 54.351,17.426 54.351,20.526 55.151,20.526 55.151,21.526 69.151,21.526 69.151,20.526 69.951,20.526 69.951,17.426 69.151,17.426 69.151,11.626 69.951,11.626 69.951,8.526 69.151,8.526 69.151,7.526" style="fill:none;stroke-width:0.050000mm;stroke:black"/>
<polygon points="78.963,7.526 78.963,8.526 78.163,8.526 78.163,11.626 78.963,11.626 78.963,17.426 78.163,17.426 78.163,20.526 78.963,20.526 78.963,21.526 92.963,21.526 92.963,20.526 93.763,20.526 93.763,17.426 92.963,17.426 92.963,11.626 93.763,11.626 93.763,8.526 92.963,8.526 92.963,7.526" style="fill:none;stroke-width:0.050000mm;stroke:black"/>
<polygon points="98.013,7.526 98.013,8.526 97.213,8.526 97.213,11.626 98.013,11.626 98.013,17.426 97.213,17.426 97.213,20.526 98.013,20.526 98.013,21.526 112.013,21.526 112.013,20.526 112.813,20.526 112.813,17.426 112.013,17.426 112.013,11.626 112.813,11.626 112.813,8.526 112.013,8.526 112.013,7.526" style="fill:none;stroke-width:0.050000mm;stroke:black"/>
<polygon points="117.063,7.526 117.063,8.526 116.263,8.526 116.263,11.626 117.063,11.626 117.063,17.426 116.263,17.426 116.263,20.526 117.063,20.526 117.063,21.526 131.063,21.526 131.063,20.526 131.863,20.526 131.863,17.426 131.063,17.426 131.063,11.626 131.863,11.626 131.863,8.526 131.063,8.526 131.063,7.526" style="fill:none;stroke-width:0.050000mm;stroke:black"/>
<polygon points="136.113,7.526 136.113,8.526 135.313,8.526 135.313,11.626 136.113,11.626 136.113,17.426 135.313,17.426 135.313,20.526 136.113,20.526 136.113,21.526 150.113,21.526 150.113,20.526 150.913,20.526 150.913,17.426 150.113,17.426 150.113,11.626 150.913,11.626 150.913,8.526 150.113,8.526 150.113,7.526" style="fill:none;stroke-width:0.050000mm;stroke:black"/>
<polygon points="159.926,7.526 159.926,8.526 159.126,8.526 159.126,11.626 159.926,11.626 159.926,17.426 159.126,17.426 159.126,20.526 159.926,20.526 159.926,21.526 173.926,21.526 173.926,20.526 174.726,20.526 174.726,17.426 173.926,17.426 173.926,11.626 174.726,11.626 174.726,8.526 173.926,8.526 173.926,7.526" style="fill:none;stroke-width:0.050000mm;stroke:black"/>
<polygon points="178.976,7.526 178.976,8.526 178.176,8.526 178.176,11.626 178.976,11.626 178.976,17.426 178.176,17.426 178.176,20.526 178.976,20.526 178.976,21.526 192.976,21.526 192.976,20.526 193.776,20.526 193.776,17.426 192.976,17.426 192.976,11.626 193.776,11.626 193.776,8.526 192.976,8.526 192.976,7.526" style="fill:none;stroke-width:0.050000mm;stroke:black"/>
<polygon points="198.026,7.526 198.026,8.526 197.226,8.526 197.226,11.626 198.026,11.626 198.026,17.426 197.226,17.426 197.226,20.526 198.026,20.526 198.026,21.526 212.026,21.526 212.026,20.526 212.826,20.526 212.826,17.426 212.026,17.426 212.026,11.626 212.826,11.626 212.826,8.526 212.026,8.526 212.026,7.526" style="fill:none;stroke-width:0.050000mm;stroke:black"/>
<polygon points="217.076,7.526 217.076,8.526 216.276,8.526 216.276,11.626 217.076,11.626 217.076,17.426 216.276,17.426 216.276,20.526 217.076,20.526 217.076,21.526 231.076,21.526 231.076,20.526 231.876,20.526 231.876,17.426 231.076,17.426 231.076,11.626 231.876,11.626 231.876,8.526 231.076,8.526 231.076,7.526" style="fill:none;stroke-width:0.050000mm;stroke:black"/>
<polygon points="240.888,7.526 240.888,8.526 240.088,8.526 240.088,11.626 240.888,11.626 240.888,17.426 240.088,17.426 240.088,20.526 240.888,20.526 240.888,21.526 254.888,21.526 254.888,20.526 255.688,20.526 255.688,17.426 254.888,17.426 254.888,11.626 255.688,11.626 255.688,8.526 254.888,8.526 254.888,7.526" style="fill:none;stroke-width:0.050000mm;stroke:black"/>
<polygon points="259.938,7.526 259.938,8.526 259.138,8.526 259.138,11.626 259.938,11.626 259.938,17.426 259.138,17.426 259.138,20.526 259.938,20.526 259.938,21.526 273.938,21.526 273.938,20.526 274.738,20.526 274.738,17.426 273.938,17.426 273.938,11.626 274.738,11.626 274.738,8.526 273.938,8.526 273.938,7.526" style="fill:none;stroke-width:0.050000mm;stroke:black"/>
<polygon points="278.988,7.526 278.988,8.526 278.188,8.526 278.188,11.626 278.988,11.626 278.988,17.426 278.188,17.426 278.188,20.526 278.988,20.526 278.988,21.526 292.988,21.526 292.988,20.526 293.788,20.526 293.788,17.426 292.988,17.426 292.988,11.626 293.788,11.626 293.788,8.526 292.988,8.526 292.988,7.526" style="fill:none;stroke-width:0.050000mm;stroke:black"/>
<polygon points="298.038,7.526 298.038,8.526 297.238,8.526 297.238,11.626 298.038,11.626 298.038,17.426 297.238,17.426 297.238,20.526 298.038,20.526 298.038,21.526 312.038,21.526 312.038,20.526 312.838,20.526 312.838,17.426 312.038,17.426 312.038,11.626 312.838,11.626 312.838,8.526 312.038,8.526 312.038,7.526" style="fill:none;stroke-width:0.050000mm;stroke:black"/>
<polygon points="321.851,7.526 321.851,8.526 321.051,8.526 321.051,11.626 321.851,11.626 321.851,17.426 321.051,17.426 321.051,20.526 321.851,20.526 321.851,21.526 335.851,21.526 335.851,20.526 336.651,20.526 336.651,17.426 335.851,17.426 335.851,11.626 336.651,11.626 336.651,8.526 335.851,8.526 335.851,7.526" style="fill:none;stroke-width:0.050000mm;stroke:black"/>
<polygon points="350.426,7.526 350.426,8.526 349.626,8.526 349.626,11.626 350.426,11.626 350.426,17.426 349.626,17.426 349.626,20.526 350.426,20.526 350.426,21.526 364.426,21.526 364.426,20.526 365.226,20.526 365.226,17.426 364.426,17.426 364.426,11.626 365.226,11.626 365.226,8.526 364.426,8.526 364.426,7.526" style="fill:none;stroke-width:0.050000mm;stroke:black"/>
</svg>
