<?xml version="1.0"?>
<!-- Generated by SVGo -->
<svg width="371.952mm" height="133.827mm"
     viewBox="0.000 0.000 371.952 133.827"
     xmlns="http://www.w3.org/2000/svg" 
     xmlns:xlink="http://www.w3.org/1999/xlink">
<polygon points="366.952,128.827 5.001,128.827 5.001,5.001 366.952,5.001" style="fill:none;stroke-width:0.050000mm;stroke:black"/>
<polygon points="307.563,112.301 307.563,126.301 321.563,126.301 321.563,112.301" style="fill:none;stroke-width:0.050000mm;stroke:black"/>
<polygon points="326.613,112.301 326.613,126.301 340.613,126.301 340.613,112.301" style="fill:none;stroke-width:0.050000mm;stroke:black"/>
<polygon points="345.663,112.301 345.663,126.301 359.663,126.301 359.663,112.301" style="fill:none;stroke-width:0.050000mm;stroke:black"/>
<polygon points="176.594,107.538 176.594,112.238 136.969,112.238 136.969,109.008 135.244,109.008 135.244,108.088 131.944,108.088 131.944,109.008 130.218,109.008 130.218,112.238 129.394,112.238 129.394,115.038 130.218,115.038 130.218,121.308 131.944,121.308 131.944,122.288 135.244,122.288 135.244,121.308 136.969,121.308 136.969,116.838 176.594,116.838 176.594,121.538 190.594,121.538 190.594,116.838 230.219,116.838 230.219,121.308 231.944,121.308 231.944,122.288 235.244,122.288 235.244,121.308 236.969,121.308 236.969,115.038 237.794,115.038 237.794,112.238 236.969,112.238 236.969,109.008 235.244,109.008 235.244,108.088 231.944,108.088 231.944,109.008 230.219,109.008 230.219,112.238 190.594,112.238 190.594,107.538" style="fill:none;stroke-width:0.050000mm;stroke:black"/>
<polygon points="7.526,107.538 7.526,121.538 21.526,121.538 21.526,107.538" style="fill:none;stroke-width:0.050000mm;stroke:black"/>
<polygon points="26.576,107.538 26.576,121.538 40.576,121.538 40.576,107.538" style="fill:none;stroke-width:0.050000mm;stroke:black"/>
<polygon points="57.532,107.538 57.532,121.538 71.532,121.538 71.532,107.538" style="fill:none;stroke-width:0.050000mm;stroke:black"/>
<polygon points="81.344,107.538 81.344,121.538 95.344,121.538 95.344,107.538" style="fill:none;stroke-width:0.050000mm;stroke:black"/>
<polygon points="105.157,107.538 105.157,121.538 119.157,121.538 119.157,107.538" style="fill:none;stroke-width:0.050000mm;stroke:black"/>
<polygon points="245.651,107.538 245.651,121.538 259.650,121.538 259.650,107.538" style="fill:none;stroke-width:0.050000mm;stroke:black"/>
<polygon points="264.701,107.538 264.701,121.538 278.701,121.538 278.701,107.538" style="fill:none;stroke-width:0.050000mm;stroke:black"/>
<polygon points="283.751,107.538 283.751,121.538 297.751,121.538 297.751,107.538" style="fill:none;stroke-width:0.050000mm;stroke:black"/>
<polygon points="326.613,93.251 326.613,107.251 340.613,107.251 340.613,93.251" style="fill:none;stroke-width:0.050000mm;stroke:black"/>
<polygon points="67.057,88.488 67.057,93.188 65.532,93.188 65.532,89.958 63.807,89.958 63.807,89.038 60.507,89.038 60.507,89.958 58.782,89.958 58.782,93.188 57.957,93.188 57.957,95.988 58.782,95.988 58.782,102.258 60.507,102.258 60.507,103.238 63.807,103.238 63.807,102.258 65.532,102.258 65.532,97.788 67.057,97.788 67.057,102.488 81.057,102.488 81.057,97.788 82.582,97.788 82.582,102.258 84.307,102.258 84.307,103.238 87.607,103.238 87.607,102.258 89.332,102.258 89.332,95.988 90.157,95.988 90.157,93.188 89.332,93.188 89.332,89.958 87.607,89.958 87.607,89.038 84.307,89.038 84.307,89.958 82.582,89.958 82.582,93.188 81.057,93.188 81.057,88.488" style="fill:none;stroke-width:0.050000mm;stroke:black"/>
<polygon points="7.526,88.488 7.526,102.488 21.526,102.488 21.526,88.488" style="fill:none;stroke-width:0.050000mm;stroke:black"/>
<polygon points="26.576,88.488 26.576,102.488 40.576,102.488 40.576,88.488" style="fill:none;stroke-width:0.050000mm;stroke:black"/>
<polygon points="98.013,88.488 98.013,102.488 112.013,102.488 112.013,88.488" style="fill:none;stroke-width:0.050000mm;stroke:black"/>
<polygon points="117.063,88.488 117.063,102.488 131.063,102.488 131.063,88.488" style="fill:none;stroke-width:0.050000mm;stroke:black"/>
<polygon points="136.113,88.488 136.113,102.488 150.113,102.488 150.113,88.488" style="fill:none;stroke-width:0.050000mm;stroke:black"/>
<polygon points="155.163,88.488 155.163,102.488 169.163,102.488 169.163,88.488" style="fill:none;stroke-width:0.050000mm;stroke:black"/>
<polygon points="174.213,88.488 174.213,102.488 188.213,102.488 188.213,88.488" style="fill:none;stroke-width:0.050000mm;stroke:black"/>
<polygon points="193.263,88.488 193.263,102.488 207.263,102.488 207.263,88.488" style="fill:none;stroke-width:0.050000mm;stroke:black"/>
<polygon points="212.313,88.488 212.313,102.488 226.313,102.488 226.313,88.488" style="fill:none;stroke-width:0.050000mm;stroke:black"/>
<polygon points="231.363,88.488 231.363,102.488 245.363,102.488 245.363,88.488" style="fill:none;stroke-width:0.050000mm;stroke:black"/>
<polygon points="250.413,88.488 250.413,102.488 264.413,102.488 264.413,88.488" style="fill:none;stroke-width:0.050000mm;stroke:black"/>
<polygon points="269.463,88.488 269.463,102.488 283.463,102.488 283.463,88.488" style="fill:none;stroke-width:0.050000mm;stroke:black"/>
<polygon points="295.657,88.488 295.657,102.488 309.657,102.488 309.657,88.488" style="fill:none;stroke-width:0.050000mm;stroke:black"/>
<polygon points="350.426,88.488 350.426,102.488 364.426,102.488 364.426,88.488" style="fill:none;stroke-width:0.050000mm;stroke:black"/>
<polygon points="309.944,69.438 309.944,74.138 308.419,74.138 308.419,70.908 306.694,70.908 306.694,69.988 303.394,69.988 303.394,70.908 301.669,70.908 301.669,74.138 300.844,74.138 300.844,76.938 301.669,76.938 301.669,83.208 303.394,83.208 303.394,84.188 306.694,84.188 306.694,83.208 308.419,83.208 308.419,78.738 309.944,78.738 309.944,83.438 323.944,83.438 323.944,78.738 325.469,78.738 325.469,83.208 327.194,83.208 327.194,84.188 330.494,84.188 330.494,83.208 332.219,83.208 332.219,76.938 333.044,76.938 333.044,74.138 332.219,74.138 332.219,70.908 330.494,70.908 330.494,69.988 327.194,69.988 327.194,70.908 325.469,70.908 325.469,74.138 323.944,74.138 323.944,69.438" style="fill:none;stroke-width:0.050000mm;stroke:black"/>
<polygon points="7.526,69.438 7.526,83.438 21.526,83.438 21.526,69.438" style="fill:none;stroke-width:0.050000mm;stroke:black"/>
<polygon points="26.576,69.438 26.576,83.438 40.576,83.438 40.576,69.438" style="fill:none;stroke-width:0.050000mm;stroke:black"/>
<polygon points="62.294,69.438 62.294,83.438 76.294,83.438 76.294,69.438" style="fill:none;stroke-width:0.050000mm;stroke:black"/>
<polygon points="88.488,69.438 88.488,83.438 102.488,83.438 102.488,69.438" style="fill:none;stroke-width:0.050000mm;stroke:black"/>
<polygon points="107.538,69.438 107.538,83.438 121.538,83.438 121.538,69.438" style="fill:none;stroke-width:0.050000mm;stroke:black"/>
<polygon points="126.588,69.438 126.588,83.438 140.588,83.438 140.588,69.438" style="fill:none;stroke-width:0.050000mm;stroke:black"/>
<polygon points="145.638,69.438 145.638,83.438 159.638,83.438 159.638,69.438" style="fill:none;stroke-width:0.050000mm;stroke:black"/>
<polygon points="164.688,69.438 164.688,83.438 178.688,83.438 178.688,69.438" style="fill:none;stroke-width:0.050000mm;stroke:black"/>
<polygon points="183.738,69.438 183.738,83.438 197.738,83.438 197.738,69.438" style="fill:none;stroke-width:0.050000mm;stroke:black"/>
<polygon points="202.788,69.438 202.788,83.438 216.788,83.438 216.788,69.438" style="fill:none;stroke-width:0.050000mm;stroke:black"/>
<polygon points="221.838,69.438 221.838,83.438 235.838,83.438 235.838,69.438" style="fill:none;stroke-width:0.050000mm;stroke:black"/>
<polygon points="240.888,69.438 240.888,83.438 254.888,83.438 254.888,69.438" style="fill:none;stroke-width:0.050000mm;stroke:black"/>
<polygon points="259.938,69.438 259.938,83.438 273.938,83.438 273.938,69.438" style="fill:none;stroke-width:0.050000mm;stroke:black"/>
<polygon points="278.988,69.438 278.988,83.438 292.988,83.438 292.988,69.438" style="fill:none;stroke-width:0.050000mm;stroke:black"/>
<polygon points="350.426,69.438 350.426,83.438 364.426,83.438 364.426,69.438" style="fill:none;stroke-width:0.050000mm;stroke:black"/>
<polygon points="7.526,50.388 7.526,64.388 21.526,64.388 21.526,50.388" style="fill:none;stroke-width:0.050000mm;stroke:black"/>
<polygon points="26.576,50.388 26.576,64.388 40.576,64.388 40.576,50.388" style="fill:none;stroke-width:0.050000mm;stroke:black"/>
<polygon points="59.913,50.388 59.913,64.388 73.913,64.388 73.913,50.388" style="fill:none;stroke-width:0.050000mm;stroke:black"/>
<polygon points="83.726,50.388 83.726,64.388 97.726,64.388 97.726,50.388" style="fill:none;stroke-width:0.050000mm;stroke:black"/>
<polygon points="102.776,50.388 102.776,64.388 116.776,64.388 116.776,50.388" style="fill:none;stroke-width:0.050000mm;stroke:black"/>
<polygon points="121.826,50.388 121.826,64.388 135.826,64.388 135.826,50.388" style="fill:none;stroke-width:0.050000mm;stroke:black"/>
<polygon points="140.876,50.388 140.876,64.388 154.876,64.388 154.876,50.388" style="fill:none;stroke-width:0.050000mm;stroke:black"/>
<polygon points="159.926,50.388 159.926,64.388 173.926,64.388 173.926,50.388" style="fill:none;stroke-width:0.050000mm;stroke:black"/>
<polygon points="178.976,50.388 178.976,64.388 192.976,64.388 192.976,50.388" style="fill:none;stroke-width:0.050000mm;stroke:black"/>
<polygon points="198.026,50.388 198.026,64.388 212.026,64.388 212.026,50.388" style="fill:none;stroke-width:0.050000mm;stroke:black"/>
<polygon points="217.076,50.388 217.076,64.388 231.076,64.388 231.076,50.388" style="fill:none;stroke-width:0.050000mm;stroke:black"/>
<polygon points="236.126,50.388 236.126,64.388 250.126,64.388 250.126,50.388" style="fill:none;stroke-width:0.050000mm;stroke:black"/>
<polygon points="255.176,50.388 255.176,64.388 269.176,64.388 269.176,50.388" style="fill:none;stroke-width:0.050000mm;stroke:black"/>
<polygon points="274.226,50.388 274.226,64.388 288.226,64.388 288.226,50.388" style="fill:none;stroke-width:0.050000mm;stroke:black"/>
<polygon points="293.276,50.388 293.276,64.388 307.276,64.388 307.276,50.388" style="fill:none;stroke-width:0.050000mm;stroke:black"/>
<polygon points="317.088,50.388 317.088,64.388 331.088,64.388 331.088,50.388" style="fill:none;stroke-width:0.050000mm;stroke:black"/>
<polygon points="350.426,50.388 350.426,64.388 364.426,64.388 364.426,50.388" style="fill:none;stroke-width:0.050000mm;stroke:black"/>
<polygon points="312.326,31.338 312.326,36.038 310.801,36.038 310.801,32.808 309.076,32.808 309.076,31.888 305.776,31.888 305.776,32.808 304.051,32.808 304.051,36.038 303.226,36.038 303.226,38.838 304.051,38.838 304.051,45.108 305.776,45.108 305.776,46.088 309.076,46.088 309.076,45.108 310.801,45.108 310.801,40.638 312.326,40.638 312.326,45.338 326.326,45.338 326.326,40.638 327.851,40.638 327.851,45.108 329.576,45.108 329.576,46.088 332.876,46.088 332.876,45.108 334.601,45.108 334.601,38.838 335.426,38.838 335.426,36.038 334.601,36.038 334.601,32.808 332.876,32.808 332.876,31.888 329.576,31.888 329.576,32.808 327.851,32.808 327.851,36.038 326.326,36.038 326.326,31.338" style="fill:none;stroke-width:0.050000mm;stroke:black"/>
<polygon points="26.576,31.338 26.576,45.338 40.576,45.338 40.576,31.338" style="fill:none;stroke-width:0.050000mm;stroke:black"/>
<polygon points="55.151,31.338 55.151,45.338 69.151,45.338 69.151,31.338" style="fill:none;stroke-width:0.050000mm;stroke:black"/>
<polygon points="74.201,31.338 74.201,45.338 88.201,45.338 88.201,31.338" style="fill:none;stroke-width:0.050000mm;stroke:black"/>
<polygon points="93.251,31.338 93.251,45.338 107.251,45.338 107.251,31.338" style="fill:none;stroke-width:0.050000mm;stroke:black"/>
<polygon points="112.301,31.338 112.301,45.338 126.301,45.338 126.301,31.338" style="fill:none;stroke-width:0.050000mm;stroke:black"/>
<polygon points="131.351,31.338 131.351,45.338 145.351,45.338 145.351,31.338" style="fill:none;stroke-width:0.050000mm;stroke:black"/>
<polygon points="150.401,31.338 150.401,45.338 164.401,45.338 164.401,31.338" style="fill:none;stroke-width:0.050000mm;stroke:black"/>
<polygon points="169.451,31.338 169.451,45.338 183.451,45.338 183.451,31.338" style="fill:none;stroke-width:0.050000mm;stroke:black"/>
<polygon points="188.501,31.338 188.501,45.338 202.501,45.338 202.501,31.338" style="fill:none;stroke-width:0.050000mm;stroke:black"/>
<polygon points="207.551,31.338 207.551,45.338 221.551,45.338 221.551,31.338" style="fill:none;stroke-width:0.050000mm;stroke:black"/>
<polygon points="226.601,31.338 226.601,45.338 240.601,45.338 240.601,31.338" style="fill:none;stroke-width:0.050000mm;stroke:black"/>
<polygon points="245.651,31.338 245.651,45.338 259.650,45.338 259.650,31.338" style="fill:none;stroke-width:0.050000mm;stroke:black"/>
<polygon points="264.701,31.338 264.701,45.338 278.701,45.338 278.701,31.338" style="fill:none;stroke-width:0.050000mm;stroke:black"/>
<polygon points="283.751,31.338 283.751,45.338 297.751,45.338 297.751,31.338" style="fill:none;stroke-width:0.050000mm;stroke:black"/>
<polygon points="350.426,31.338 350.426,45.338 364.426,45.338 364.426,31.338" style="fill:none;stroke-width:0.050000mm;stroke:black"/>
<polygon points="55.151,7.526 55.151,21.526 69.151,21.526 69.151,7.526" style="fill:none;stroke-width:0.050000mm;stroke:black"/>
<polygon points="78.963,7.526 78.963,21.526 92.963,21.526 92.963,7.526" style="fill:none;stroke-width:0.050000mm;stroke:black"/>
<polygon points="98.013,7.526 98.013,21.526 112.013,21.526 112.013,7.526" style="fill:none;stroke-width:0.050000mm;stroke:black"/>
<polygon points="117.063,7.526 117.063,21.526 131.063,21.526 131.063,7.526" style="fill:none;stroke-width:0.050000mm;stroke:black"/>
<polygon points="136.113,7.526 136.113,21.526 150.113,21.526 150.113,7.526" style="fill:none;stroke-width:0.050000mm;stroke:black"/>
<polygon points="159.926,7.526 159.926,21.526 173.926,21.526 173.926,7.526" style="fill:none;stroke-width:0.050000mm;stroke:black"/>
<polygon points="178.976,7.526 178.976,21.526 192.976,21.526 192.976,7.526" style="fill:none;stroke-width:0.050000mm;stroke:black"/>
<polygon points="198.026,7.526 198.026,21.526 212.026,21.526 212.026,7.526" style="fill:none;stroke-width:0.050000mm;stroke:black"/>
<polygon points="217.076,7.526 217.076,21.526 231.076,21.526 231.076,7.526" style="fill:none;stroke-width:0.050000mm;stroke:black"/>
<polygon points="240.888,7.526 240.888,21.526 254.888,21.526 254.888,7.526" style="fill:none;stroke-width:0.050000mm;stroke:black"/>
<polygon points="259.938,7.526 259.938,21.526 273.938,21.526 273.938,7.526" style="fill:none;stroke-width:0.050000mm;stroke:black"/>
<polygon points="278.988,7.526 278.988,21.526 292.988,21.526 292.988,7.526" style="fill:none;stroke-width:0.050000mm;stroke:black"/>
<polygon points="298.038,7.526 298.038,21.526 312.038,21.526 312.038,7.526" style="fill:none;stroke-width:0.050000mm;stroke:black"/>
<polygon points="321.851,7.526 321.851,21.526 335.851,21.526 335.851,7.526" style="fill:none;stroke-width:0.050000mm;stroke:black"/>
<polygon points="350.426,7.526 350.426,21.526 364.426,21.526 364.426,7.526" style="fill:none;stroke-width:0.050000mm;stroke:black"/>
</svg>
