<?xml version="1.0" standalone="no"?>
 <!DOCTYPE svg PUBLIC "-//W3C//DTD SVG 1.1//EN" 
 "http://www.w3.org/Graphics/SVG/1.1/DTD/svg11.dtd"> 
<svg
  xmlns:svg="http://www.w3.org/2000/svg"
  xmlns="http://www.w3.org/2000/svg"
  xmlns:xlink="http://www.w3.org/1999/xlink"
  version="1.1"
  width="43.180000cm" height="27.940000cm" viewBox="0 0 431800000 279400000">
<title>SVG Picture created as QCK-F_Courtyard.svg date 2023/02/25 03:16:40 </title>
  <desc>Picture generated by PCBNEW </desc>
<g style="fill:#000000; fill-opacity:1.000000;stroke:#000000; stroke-opacity:1.000000;
stroke-linecap:round; stroke-linejoin:round;"
 transform="translate(0 0) scale(1 1)">
</g>
<g style="fill:#000000; fill-opacity:0.0; 
stroke:#000000; stroke-width:0.000000; stroke-opacity:1; 
stroke-linecap:round; stroke-linejoin:round;">
</g>
<g style="fill:#000000; fill-opacity:0.0; 
stroke:#000000; stroke-width:50000.000000; stroke-opacity:1; 
stroke-linecap:round; stroke-linejoin:round;">
<path d="M51860000 5766243
L65610000 5766243
" />
<path d="M65610000 2166243
L51860000 2166243
" />
<path d="M65610000 5766243
L65610000 2166243
" />
<path d="M51860000 2166243
L51860000 5766243
" />
<path d="M78078750 2166243
L78078750 5766243
" />
<path d="M86728750 5766243
L86728750 2166243
" />
<path d="M78078750 5766243
L86728750 5766243
" />
<path d="M86728750 2166243
L78078750 2166243
" />
<path d="M7122500 38934993
L7122500 53134993
" />
<path d="M24622500 53134993
L7122500 53134993
" />
<path d="M7122500 38934993
L24622500 38934993
" />
<path d="M24622500 53134993
L24622500 38934993
" />
<path d="M266047500 39034993
L266047500 53034993
" />
<path d="M280047500 53034993
L280047500 39034993
" />
<path d="M280047500 39034993
L266047500 39034993
" />
<path d="M266047500 53034993
L280047500 53034993
" />
<path d="M299385000 29222493
L313385000 29222493
" />
<path d="M313385000 29222493
L313385000 15222493
" />
<path d="M313385000 15222493
L299385000 15222493
" />
<path d="M299385000 15222493
L299385000 29222493
" />
<path d="M260997500 39034993
L246997500 39034993
" />
<path d="M246997500 39034993
L246997500 53034993
" />
<path d="M260997500 53034993
L260997500 39034993
" />
<path d="M246997500 53034993
L260997500 53034993
" />
<path d="M108597500 53034993
L108597500 39034993
" />
<path d="M94597500 39034993
L94597500 53034993
" />
<path d="M108597500 39034993
L94597500 39034993
" />
<path d="M94597500 53034993
L108597500 53034993
" />
<path d="M113360000 96184993
L99360000 96184993
" />
<path d="M99360000 96184993
L99360000 110184993
" />
<path d="M113360000 110184993
L113360000 96184993
" />
<path d="M99360000 110184993
L113360000 110184993
" />
<path d="M260997500 115234993
L246997500 115234993
" />
<path d="M246997500 115234993
L246997500 129234993
" />
<path d="M246997500 129234993
L260997500 129234993
" />
<path d="M260997500 129234993
L260997500 115234993
" />
<path d="M58878750 115234993
L58878750 129234993
" />
<path d="M72878750 129234993
L72878750 115234993
" />
<path d="M72878750 115234993
L58878750 115234993
" />
<path d="M58878750 129234993
L72878750 129234993
" />
<path d="M146697500 39034993
L132697500 39034993
" />
<path d="M132697500 53034993
L146697500 53034993
" />
<path d="M146697500 53034993
L146697500 39034993
" />
<path d="M132697500 39034993
L132697500 53034993
" />
<path d="M175272500 58084993
L161272500 58084993
" />
<path d="M161272500 58084993
L161272500 72084993
" />
<path d="M161272500 72084993
L175272500 72084993
" />
<path d="M175272500 72084993
L175272500 58084993
" />
<path d="M313672500 53034993
L327672500 53034993
" />
<path d="M327672500 39034993
L313672500 39034993
" />
<path d="M327672500 53034993
L327672500 39034993
" />
<path d="M313672500 39034993
L313672500 53034993
" />
<path d="M22872500 91134993
L22872500 77134993
" />
<path d="M8872500 77134993
L8872500 91134993
" />
<path d="M8872500 91134993
L22872500 91134993
" />
<path d="M22872500 77134993
L8872500 77134993
" />
<path d="M41922500 39034993
L27922500 39034993
" />
<path d="M27922500 39034993
L27922500 53034993
" />
<path d="M27922500 53034993
L41922500 53034993
" />
<path d="M41922500 53034993
L41922500 39034993
" />
<path d="M77641250 91134993
L77641250 77134993
" />
<path d="M63641250 77134993
L63641250 91134993
" />
<path d="M63641250 91134993
L77641250 91134993
" />
<path d="M77641250 77134993
L63641250 77134993
" />
<path d="M351772500 77134993
L351772500 91134993
" />
<path d="M365772500 77134993
L351772500 77134993
" />
<path d="M351772500 91134993
L365772500 91134993
" />
<path d="M365772500 91134993
L365772500 77134993
" />
<path d="M280047500 115234993
L266047500 115234993
" />
<path d="M266047500 115234993
L266047500 129234993
" />
<path d="M280047500 129234993
L280047500 115234993
" />
<path d="M266047500 129234993
L280047500 129234993
" />
<path d="M94310000 15222493
L80310000 15222493
" />
<path d="M94310000 29222493
L94310000 15222493
" />
<path d="M80310000 29222493
L94310000 29222493
" />
<path d="M80310000 15222493
L80310000 29222493
" />
<path d="M280335000 15222493
L280335000 29222493
" />
<path d="M280335000 29222493
L294335000 29222493
" />
<path d="M294335000 15222493
L280335000 15222493
" />
<path d="M294335000 29222493
L294335000 15222493
" />
<path d="M82691250 129234993
L96691250 129234993
" />
<path d="M96691250 115234993
L82691250 115234993
" />
<path d="M96691250 129234993
L96691250 115234993
" />
<path d="M82691250 115234993
L82691250 129234993
" />
<path d="M327960000 100947493
L327960000 114947493
" />
<path d="M341960000 114947493
L341960000 100947493
" />
<path d="M327960000 114947493
L341960000 114947493
" />
<path d="M341960000 100947493
L327960000 100947493
" />
<path d="M156510000 96184993
L156510000 110184993
" />
<path d="M170510000 96184993
L156510000 96184993
" />
<path d="M170510000 110184993
L170510000 96184993
" />
<path d="M156510000 110184993
L170510000 110184993
" />
<path d="M27922500 129234993
L41922500 129234993
" />
<path d="M41922500 115234993
L27922500 115234993
" />
<path d="M41922500 129234993
L41922500 115234993
" />
<path d="M27922500 115234993
L27922500 129234993
" />
<path d="M180322500 58084993
L180322500 72084993
" />
<path d="M194322500 58084993
L180322500 58084993
" />
<path d="M180322500 72084993
L194322500 72084993
" />
<path d="M194322500 72084993
L194322500 58084993
" />
<path d="M275285000 77134993
L261285000 77134993
" />
<path d="M261285000 91134993
L275285000 91134993
" />
<path d="M275285000 91134993
L275285000 77134993
" />
<path d="M261285000 77134993
L261285000 91134993
" />
<path d="M146985000 77134993
L146985000 91134993
" />
<path d="M160985000 91134993
L160985000 77134993
" />
<path d="M146985000 91134993
L160985000 91134993
" />
<path d="M160985000 77134993
L146985000 77134993
" />
<path d="M218135000 91134993
L218135000 77134993
" />
<path d="M204135000 77134993
L204135000 91134993
" />
<path d="M218135000 77134993
L204135000 77134993
" />
<path d="M204135000 91134993
L218135000 91134993
" />
<path d="M223185000 77134993
L223185000 91134993
" />
<path d="M237185000 77134993
L223185000 77134993
" />
<path d="M223185000 91134993
L237185000 91134993
" />
<path d="M237185000 91134993
L237185000 77134993
" />
<path d="M22872500 115234993
L8872500 115234993
" />
<path d="M8872500 115234993
L8872500 129234993
" />
<path d="M8872500 129234993
L22872500 129234993
" />
<path d="M22872500 129234993
L22872500 115234993
" />
<path d="M41922500 58084993
L27922500 58084993
" />
<path d="M41922500 72084993
L41922500 58084993
" />
<path d="M27922500 58084993
L27922500 72084993
" />
<path d="M27922500 72084993
L41922500 72084993
" />
<path d="M194322500 29222493
L194322500 15222493
" />
<path d="M194322500 15222493
L180322500 15222493
" />
<path d="M180322500 29222493
L194322500 29222493
" />
<path d="M180322500 15222493
L180322500 29222493
" />
<path d="M242235000 77134993
L242235000 91134993
" />
<path d="M256235000 91134993
L256235000 77134993
" />
<path d="M242235000 91134993
L256235000 91134993
" />
<path d="M256235000 77134993
L242235000 77134993
" />
<path d="M297003750 96184993
L297003750 110184993
" />
<path d="M297003750 110184993
L311003750 110184993
" />
<path d="M311003750 110184993
L311003750 96184993
" />
<path d="M311003750 96184993
L297003750 96184993
" />
<path d="M56497500 53034993
L70497500 53034993
" />
<path d="M56497500 39034993
L56497500 53034993
" />
<path d="M70497500 39034993
L56497500 39034993
" />
<path d="M70497500 53034993
L70497500 39034993
" />
<path d="M351772500 15222493
L351772500 29222493
" />
<path d="M351772500 29222493
L365772500 29222493
" />
<path d="M365772500 29222493
L365772500 15222493
" />
<path d="M365772500 15222493
L351772500 15222493
" />
<path d="M161272500 29222493
L175272500 29222493
" />
<path d="M161272500 15222493
L161272500 29222493
" />
<path d="M175272500 15222493
L161272500 15222493
" />
<path d="M175272500 29222493
L175272500 15222493
" />
<path d="M323197500 29222493
L337197500 29222493
" />
<path d="M337197500 15222493
L323197500 15222493
" />
<path d="M337197500 29222493
L337197500 15222493
" />
<path d="M323197500 15222493
L323197500 29222493
" />
<path d="M103835000 91134993
L103835000 77134993
" />
<path d="M103835000 77134993
L89835000 77134993
" />
<path d="M89835000 91134993
L103835000 91134993
" />
<path d="M89835000 77134993
L89835000 91134993
" />
<path d="M256522500 72084993
L270522500 72084993
" />
<path d="M256522500 58084993
L256522500 72084993
" />
<path d="M270522500 72084993
L270522500 58084993
" />
<path d="M270522500 58084993
L256522500 58084993
" />
<path d="M213372500 15222493
L199372500 15222493
" />
<path d="M213372500 29222493
L213372500 15222493
" />
<path d="M199372500 29222493
L213372500 29222493
" />
<path d="M199372500 15222493
L199372500 29222493
" />
<path d="M232422500 72084993
L232422500 58084993
" />
<path d="M218422500 72084993
L232422500 72084993
" />
<path d="M232422500 58084993
L218422500 58084993
" />
<path d="M218422500 58084993
L218422500 72084993
" />
<path d="M325291250 91134993
L325291250 77134993
" />
<path d="M311291250 91134993
L325291250 91134993
" />
<path d="M311291250 77134993
L311291250 91134993
" />
<path d="M325291250 77134993
L311291250 77134993
" />
<path d="M351772500 39034993
L351772500 53034993
" />
<path d="M365772500 53034993
L365772500 39034993
" />
<path d="M351772500 53034993
L365772500 53034993
" />
<path d="M365772500 39034993
L351772500 39034993
" />
<path d="M322910000 133997493
L322910000 119997493
" />
<path d="M308910000 133997493
L322910000 133997493
" />
<path d="M322910000 119997493
L308910000 119997493
" />
<path d="M308910000 119997493
L308910000 133997493
" />
<path d="M299097500 129234993
L299097500 115234993
" />
<path d="M285097500 115234993
L285097500 129234993
" />
<path d="M299097500 115234993
L285097500 115234993
" />
<path d="M285097500 129234993
L299097500 129234993
" />
<path d="M118122500 58084993
L104122500 58084993
" />
<path d="M118122500 72084993
L118122500 58084993
" />
<path d="M104122500 58084993
L104122500 72084993
" />
<path d="M104122500 72084993
L118122500 72084993
" />
<path d="M232422500 29222493
L232422500 15222493
" />
<path d="M232422500 15222493
L218422500 15222493
" />
<path d="M218422500 15222493
L218422500 29222493
" />
<path d="M218422500 29222493
L232422500 29222493
" />
<path d="M99072500 72084993
L99072500 58084993
" />
<path d="M99072500 58084993
L85072500 58084993
" />
<path d="M85072500 72084993
L99072500 72084993
" />
<path d="M85072500 58084993
L85072500 72084993
" />
<path d="M61260000 58084993
L61260000 72084993
" />
<path d="M75260000 58084993
L61260000 58084993
" />
<path d="M61260000 72084993
L75260000 72084993
" />
<path d="M75260000 72084993
L75260000 58084993
" />
<path d="M177941250 129234993
L191941250 129234993
" />
<path d="M191941250 129234993
L191941250 115234993
" />
<path d="M177941250 115234993
L177941250 129234993
" />
<path d="M191941250 115234993
L177941250 115234993
" />
<path d="M185085000 91134993
L199085000 91134993
" />
<path d="M199085000 77134993
L185085000 77134993
" />
<path d="M185085000 77134993
L185085000 91134993
" />
<path d="M199085000 91134993
L199085000 77134993
" />
<path d="M189560000 110184993
L189560000 96184993
" />
<path d="M189560000 96184993
L175560000 96184993
" />
<path d="M175560000 110184993
L189560000 110184993
" />
<path d="M175560000 96184993
L175560000 110184993
" />
<path d="M232710000 96184993
L232710000 110184993
" />
<path d="M246710000 110184993
L246710000 96184993
" />
<path d="M232710000 110184993
L246710000 110184993
" />
<path d="M246710000 96184993
L232710000 96184993
" />
<path d="M127647500 53034993
L127647500 39034993
" />
<path d="M113647500 39034993
L113647500 53034993
" />
<path d="M113647500 53034993
L127647500 53034993
" />
<path d="M127647500 39034993
L113647500 39034993
" />
<path d="M137460000 110184993
L151460000 110184993
" />
<path d="M151460000 110184993
L151460000 96184993
" />
<path d="M137460000 96184993
L137460000 110184993
" />
<path d="M151460000 96184993
L137460000 96184993
" />
<path d="M294622500 72084993
L308622500 72084993
" />
<path d="M308622500 58084993
L294622500 58084993
" />
<path d="M294622500 58084993
L294622500 72084993
" />
<path d="M308622500 72084993
L308622500 58084993
" />
<path d="M265760000 110184993
L265760000 96184993
" />
<path d="M251760000 110184993
L265760000 110184993
" />
<path d="M265760000 96184993
L251760000 96184993
" />
<path d="M251760000 96184993
L251760000 110184993
" />
<path d="M332435000 72084993
L332435000 58084993
" />
<path d="M318435000 58084993
L318435000 72084993
" />
<path d="M332435000 58084993
L318435000 58084993
" />
<path d="M318435000 72084993
L332435000 72084993
" />
<path d="M289572500 58084993
L275572500 58084993
" />
<path d="M289572500 72084993
L289572500 58084993
" />
<path d="M275572500 72084993
L289572500 72084993
" />
<path d="M275572500 58084993
L275572500 72084993
" />
<path d="M123172500 58084993
L123172500 72084993
" />
<path d="M137172500 58084993
L123172500 58084993
" />
<path d="M137172500 72084993
L137172500 58084993
" />
<path d="M123172500 72084993
L137172500 72084993
" />
<path d="M208897500 53034993
L222897500 53034993
" />
<path d="M222897500 53034993
L222897500 39034993
" />
<path d="M222897500 39034993
L208897500 39034993
" />
<path d="M208897500 39034993
L208897500 53034993
" />
<path d="M22872500 110184993
L22872500 96184993
" />
<path d="M22872500 96184993
L8872500 96184993
" />
<path d="M8872500 110184993
L22872500 110184993
" />
<path d="M8872500 96184993
L8872500 110184993
" />
<path d="M141935000 91134993
L141935000 77134993
" />
<path d="M127935000 91134993
L141935000 91134993
" />
<path d="M127935000 77134993
L127935000 91134993
" />
<path d="M141935000 77134993
L127935000 77134993
" />
<path d="M351772500 110184993
L365772500 110184993
" />
<path d="M365772500 96184993
L351772500 96184993
" />
<path d="M365772500 110184993
L365772500 96184993
" />
<path d="M351772500 96184993
L351772500 110184993
" />
<path d="M227947500 53034993
L241947500 53034993
" />
<path d="M227947500 39034993
L227947500 53034993
" />
<path d="M241947500 39034993
L227947500 39034993
" />
<path d="M241947500 53034993
L241947500 39034993
" />
<path d="M299097500 53034993
L299097500 39034993
" />
<path d="M299097500 39034993
L285097500 39034993
" />
<path d="M285097500 53034993
L299097500 53034993
" />
<path d="M285097500 39034993
L285097500 53034993
" />
<path d="M284810000 110184993
L284810000 96184993
" />
<path d="M270810000 110184993
L284810000 110184993
" />
<path d="M270810000 96184993
L270810000 110184993
" />
<path d="M284810000 96184993
L270810000 96184993
" />
<path d="M56497500 29222493
L70497500 29222493
" />
<path d="M70497500 29222493
L70497500 15222493
" />
<path d="M70497500 15222493
L56497500 15222493
" />
<path d="M56497500 15222493
L56497500 29222493
" />
<path d="M242235000 15222493
L242235000 29222493
" />
<path d="M256235000 15222493
L242235000 15222493
" />
<path d="M242235000 29222493
L256235000 29222493
" />
<path d="M256235000 29222493
L256235000 15222493
" />
<path d="M199372500 72084993
L213372500 72084993
" />
<path d="M199372500 58084993
L199372500 72084993
" />
<path d="M213372500 72084993
L213372500 58084993
" />
<path d="M213372500 58084993
L199372500 58084993
" />
<path d="M118410000 96184993
L118410000 110184993
" />
<path d="M132410000 110184993
L132410000 96184993
" />
<path d="M118410000 110184993
L132410000 110184993
" />
<path d="M132410000 96184993
L118410000 96184993
" />
<path d="M151460000 29222493
L151460000 15222493
" />
<path d="M151460000 15222493
L137460000 15222493
" />
<path d="M137460000 29222493
L151460000 29222493
" />
<path d="M137460000 15222493
L137460000 29222493
" />
<path d="M166035000 77134993
L166035000 91134993
" />
<path d="M180035000 77134993
L166035000 77134993
" />
<path d="M180035000 91134993
L180035000 77134993
" />
<path d="M166035000 91134993
L180035000 91134993
" />
<path d="M341960000 133997493
L341960000 119997493
" />
<path d="M327960000 119997493
L327960000 133997493
" />
<path d="M327960000 133997493
L341960000 133997493
" />
<path d="M341960000 119997493
L327960000 119997493
" />
<path d="M120503750 115234993
L106503750 115234993
" />
<path d="M106503750 129234993
L120503750 129234993
" />
<path d="M106503750 115234993
L106503750 129234993
" />
<path d="M120503750 129234993
L120503750 115234993
" />
<path d="M347010000 133997493
L361010000 133997493
" />
<path d="M361010000 133997493
L361010000 119997493
" />
<path d="M347010000 119997493
L347010000 133997493
" />
<path d="M361010000 119997493
L347010000 119997493
" />
<path d="M82403750 110184993
L82403750 96184993
" />
<path d="M68403750 96184993
L68403750 110184993
" />
<path d="M68403750 110184993
L82403750 110184993
" />
<path d="M82403750 96184993
L68403750 96184993
" />
<path d="M118410000 15222493
L118410000 29222493
" />
<path d="M132410000 15222493
L118410000 15222493
" />
<path d="M132410000 29222493
L132410000 15222493
" />
<path d="M118410000 29222493
L132410000 29222493
" />
<path d="M27922500 91134993
L41922500 91134993
" />
<path d="M41922500 77134993
L27922500 77134993
" />
<path d="M27922500 77134993
L27922500 91134993
" />
<path d="M41922500 91134993
L41922500 77134993
" />
<path d="M184797500 53034993
L184797500 39034993
" />
<path d="M170797500 39034993
L170797500 53034993
" />
<path d="M170797500 53034993
L184797500 53034993
" />
<path d="M184797500 39034993
L170797500 39034993
" />
<path d="M275285000 15222493
L261285000 15222493
" />
<path d="M261285000 15222493
L261285000 29222493
" />
<path d="M261285000 29222493
L275285000 29222493
" />
<path d="M275285000 29222493
L275285000 15222493
" />
<path d="M108885000 91134993
L122885000 91134993
" />
<path d="M108885000 77134993
L108885000 91134993
" />
<path d="M122885000 91134993
L122885000 77134993
" />
<path d="M122885000 77134993
L108885000 77134993
" />
<path d="M75547500 39034993
L75547500 53034993
" />
<path d="M89547500 39034993
L75547500 39034993
" />
<path d="M89547500 53034993
L89547500 39034993
" />
<path d="M75547500 53034993
L89547500 53034993
" />
<path d="M208610000 110184993
L208610000 96184993
" />
<path d="M194610000 110184993
L208610000 110184993
" />
<path d="M208610000 96184993
L194610000 96184993
" />
<path d="M194610000 96184993
L194610000 110184993
" />
<path d="M99360000 29222493
L113360000 29222493
" />
<path d="M113360000 15222493
L99360000 15222493
" />
<path d="M113360000 29222493
L113360000 15222493
" />
<path d="M99360000 15222493
L99360000 29222493
" />
<path d="M227660000 96184993
L213660000 96184993
" />
<path d="M213660000 96184993
L213660000 110184993
" />
<path d="M213660000 110184993
L227660000 110184993
" />
<path d="M227660000 110184993
L227660000 96184993
" />
<path d="M151747500 39034993
L151747500 53034993
" />
<path d="M165747500 53034993
L165747500 39034993
" />
<path d="M165747500 39034993
L151747500 39034993
" />
<path d="M151747500 53034993
L165747500 53034993
" />
<path d="M156222500 72084993
L156222500 58084993
" />
<path d="M142222500 58084993
L142222500 72084993
" />
<path d="M156222500 58084993
L142222500 58084993
" />
<path d="M142222500 72084993
L156222500 72084993
" />
<path d="M22872500 72084993
L22872500 58084993
" />
<path d="M8872500 58084993
L8872500 72084993
" />
<path d="M22872500 58084993
L8872500 58084993
" />
<path d="M8872500 72084993
L22872500 72084993
" />
<path d="M280335000 91134993
L294335000 91134993
" />
<path d="M294335000 91134993
L294335000 77134993
" />
<path d="M294335000 77134993
L280335000 77134993
" />
<path d="M280335000 77134993
L280335000 91134993
" />
<path d="M41922500 110184993
L41922500 96184993
" />
<path d="M41922500 96184993
L27922500 96184993
" />
<path d="M27922500 96184993
L27922500 110184993
" />
<path d="M27922500 110184993
L41922500 110184993
" />
<path d="M365772500 72084993
L365772500 58084993
" />
<path d="M365772500 58084993
L351772500 58084993
" />
<path d="M351772500 58084993
L351772500 72084993
" />
<path d="M351772500 72084993
L365772500 72084993
" />
<path d="M237472500 72084993
L251472500 72084993
" />
<path d="M237472500 58084993
L237472500 72084993
" />
<path d="M251472500 72084993
L251472500 58084993
" />
<path d="M251472500 58084993
L237472500 58084993
" />
<path d="M189847500 53034993
L203847500 53034993
" />
<path d="M203847500 39034993
L189847500 39034993
" />
<path d="M203847500 53034993
L203847500 39034993
" />
<path d="M189847500 39034993
L189847500 53034993
" />
<g >
</g>
<g >
</g>
<g >
</g>
<g >
</g>
<g >
</g>
<g >
</g>
<g >
</g>
<g >
</g>
<g >
</g>
<g >
</g>
<g >
</g>
<g >
</g>
<g >
</g>
<g >
</g>
<g >
</g>
<g >
</g>
<g >
</g>
<g >
</g>
<g >
</g>
<g >
</g>
<g >
</g>
<g >
</g>
<g >
</g>
<g >
</g>
<g >
</g>
<g >
</g>
<g >
</g>
<g >
</g>
<g >
</g>
<g >
</g>
<g >
</g>
<g >
</g>
<g >
</g>
<g >
</g>
<g >
</g>
<g >
</g>
<g >
</g>
<g >
</g>
<g >
</g>
<g >
</g>
<g >
</g>
<g >
</g>
<g >
</g>
<g >
</g>
<g >
</g>
<g >
</g>
<g >
</g>
<g >
</g>
<g >
</g>
<g >
</g>
<g >
</g>
<g >
</g>
<g >
</g>
<g >
</g>
<g >
</g>
<g >
</g>
<g >
</g>
<g >
</g>
<g >
</g>
<g >
</g>
<g >
</g>
<g >
</g>
<g >
</g>
<g >
</g>
<g >
</g>
<g >
</g>
<g >
</g>
<g >
</g>
<g >
</g>
<g >
</g>
<g >
</g>
<g >
</g>
<g >
</g>
<g >
</g>
<g >
</g>
<g >
</g>
<g >
</g>
<g >
</g>
<g >
</g>
<g >
</g>
<g >
</g>
<g >
</g>
<g >
</g>
<g >
</g>
<g >
</g>
<g >
</g>
<g >
</g>
<g >
</g>
<g >
</g>
<g >
</g>
<g >
</g>
<g >
</g>
<g >
</g>
<g >
</g>
<g >
</g>
<g >
</g>
<g >
</g>
<g >
</g>
<g >
</g>
<g >
</g>
<g >
</g>
<g >
</g>
<g >
</g>
<g >
</g>
<g >
</g>
<g >
</g>
<g >
</g>
<g >
</g>
<g >
</g>
<g >
</g>
<g >
</g>
<g >
</g>
<g >
</g>
<g >
</g>
<g >
</g>
<g >
</g>
<g >
</g>
<g >
</g>
<g >
</g>
<g >
</g>
<g >
</g>
<g >
</g>
<g >
</g>
<g >
</g>
<g >
</g>
<g >
</g>
<g >
</g>
<g >
</g>
<g >
</g>
<g >
</g>
<g >
</g>
<g >
</g>
<g >
</g>
<g >
</g>
<g >
</g>
<g >
</g>
<g >
</g>
<g >
</g>
<g >
</g>
<g >
</g>
<g >
</g>
<g >
</g>
<g >
</g>
<g >
</g>
<g >
</g>
<g >
</g>
<g >
</g>
<g >
</g>
<g >
</g>
<g >
</g>
<g >
</g>
<g >
</g>
<g >
</g>
<g >
</g>
<g >
</g>
<g >
</g>
<g >
</g>
<g >
</g>
<g >
</g>
<g >
</g>
<g >
</g>
<g >
</g>
<g >
</g>
<g >
</g>
<g >
</g>
<g >
</g>
<g >
</g>
<g >
</g>
<g >
</g>
<g >
</g>
<g >
</g>
<g >
</g>
<g >
</g>
<g >
</g>
<g >
</g>
<g >
</g>
<g >
</g>
<g >
</g>
<g >
</g>
<g >
</g>
<g >
</g>
<g >
</g>
<g >
</g>
<g >
</g>
<g >
</g>
<g >
</g>
<g >
</g>
<g >
</g>
<g >
</g>
<g >
</g>
<g >
</g>
<g >
</g>
<g >
</g>
<g >
</g>
<g >
</g>
<g >
</g>
<g >
</g>
<g >
</g>
<g >
</g>
<g >
</g>
<g >
</g>
<g >
</g>
<g >
</g>
<g >
</g>
<g >
</g>
<g >
</g>
<g >
</g>
<g >
</g>
<g >
</g>
<g >
</g>
<g >
</g>
</g>
<g style="fill:#000000; fill-opacity:0.0; 
stroke:#000000; stroke-width:50000.000000; stroke-opacity:1; 
stroke-linecap:round; stroke-linejoin:round;">
</g>
<g style="fill:#000000; fill-opacity:0.0; 
stroke:#000000; stroke-width:100000.000000; stroke-opacity:1; 
stroke-linecap:round; stroke-linejoin:round;">
<path d="M282572499.994584 -6352549.993701 A793850.000000 793850.000000 0.0 0 0 281778750.002046 -5558757.000000" />
<path d="M-2500 137316243
L-2500 791243
" />
<path d="M-2499.999969 137316243.000000 A793757.000000 793757.000000 0.0 0 0 791250.000000 138109992.999969" />
<path d="M280985000.007180 -2450.006299 A793850.000000 793850.000000 0.0 0 0 281778749.998835 -796257.000000" />
<path d="M373060000.005418 138109949.993701 A793650.000000 793650.000000 0.0 0 0 373853749.997953 137316243.000000" />
<path d="M791250.000000 -2506.997173 A793817.000000 793817.000000 0.0 0 0 -2499.997173 791243.000000" />
<path d="M791250 -2507
L280985000 -2507
" />
<path d="M293685000 -2507
L373060000 -2507
" />
<path d="M281778750 -796257
L281778750 -5558757
" />
<path d="M373853706.998835 791242.997670 A793707.000000 793707.000000 0.0 0 0 373060000.000000 -2507.000000" />
<path d="M292891250 -5558757
L292891250 -796257
" />
<path d="M292891207.002047 -796257.003088 A793693.000000 793693.000000 0.0 0 0 293684999.999999 -2507.006300" />
<path d="M373059975 138109993
L791225 138109993
" />
<path d="M373853750 791243
L373853750 137316243
" />
<path d="M282572500 -6352507
L292097500 -6352507
" />
<path d="M292891206.998835 -5558757.002330 A793707.000000 793707.000000 0.0 0 0 292097500.000000 -6352507.000000" />
<g >
</g>
<g >
</g>
<g >
</g>
<g >
</g>
<g >
</g>
<g >
</g>
<g >
</g>
<g >
</g>
<g >
</g>
<g >
</g>
<g >
</g>
<g >
</g>
<g >
</g>
<g >
</g>
<g >
</g>
<g >
</g>
<g >
</g>
<g >
</g>
<g >
</g>
<g >
</g>
<g >
</g>
<g >
</g>
<g >
</g>
<g >
</g>
<g >
</g>
<g >
</g>
<g >
</g>
<g >
</g>
<g >
</g>
<g >
</g>
<g >
</g>
<g >
</g>
<g >
</g>
<g >
</g>
<g >
</g>
<g >
</g>
<g >
</g>
<g >
</g>
<g >
</g>
<g >
</g>
<g >
</g>
<g >
</g>
<g >
</g>
<g >
</g>
<g >
</g>
<g >
</g>
<g >
</g>
<g >
</g>
<g >
</g>
<g >
</g>
<g >
</g>
<g >
</g>
<g >
</g>
<g >
</g>
<g >
</g>
<g >
</g>
<g >
</g>
<g >
</g>
<g >
</g>
<g >
</g>
<g >
</g>
<g >
</g>
<g >
</g>
<g >
</g>
<g >
</g>
<g >
</g>
<g >
</g>
<g >
</g>
<g >
</g>
<g >
</g>
<g >
</g>
<g >
</g>
<g >
</g>
<g >
</g>
<g >
</g>
<g >
</g>
<g >
</g>
<g >
</g>
<g >
</g>
<g >
</g>
<g >
</g>
<g >
</g>
<g >
</g>
<g >
</g>
<g >
</g>
<g >
</g>
<g >
</g>
<g >
</g>
<g >
</g>
<g >
</g>
<g >
</g>
<g >
</g>
<g >
</g>
<g >
</g>
<g >
</g>
<g >
</g>
<g >
</g>
<g >
</g>
<g >
</g>
<g >
</g>
<g >
</g>
<g >
</g>
<g >
</g>
<g >
</g>
<g >
</g>
<g >
</g>
<g >
</g>
<g >
</g>
<g >
</g>
<g >
</g>
<g >
</g>
<g >
</g>
<g >
</g>
<g >
</g>
<g >
</g>
<g >
</g>
<g >
</g>
<g >
</g>
<g >
</g>
<g >
</g>
<g >
</g>
<g >
</g>
<g >
</g>
<g >
</g>
<g >
</g>
<g >
</g>
<g >
</g>
<g >
</g>
<g >
</g>
<g >
</g>
<g >
</g>
<g >
</g>
<g >
</g>
<g >
</g>
<g >
</g>
<g >
</g>
<g >
</g>
<g >
</g>
<g >
</g>
<g >
</g>
<g >
</g>
<g >
</g>
<g >
</g>
<g >
</g>
<g >
</g>
<g >
</g>
<g >
</g>
<g >
</g>
<g >
</g>
<g >
</g>
<g >
</g>
<g >
</g>
<g >
</g>
<g >
</g>
<g >
</g>
<g >
</g>
<g >
</g>
<g >
</g>
<g >
</g>
<g >
</g>
<g >
</g>
<g >
</g>
<g >
</g>
<g >
</g>
<g >
</g>
<g >
</g>
<g >
</g>
<g >
</g>
<g >
</g>
<g >
</g>
<g >
</g>
<g >
</g>
<g >
</g>
<g >
</g>
<g >
</g>
<g >
</g>
<g >
</g>
<g >
</g>
<g >
</g>
<g >
</g>
<g >
</g>
<g >
</g>
<g >
</g>
<g >
</g>
<g >
</g>
<g >
</g>
<g >
</g>
<g >
</g>
<g >
</g>
<g >
</g>
<g >
</g>
<g >
</g>
<g >
</g>
<g >
</g>
<g >
</g>
<g >
</g>
<g >
</g>
<g >
</g>
<g >
</g>
<g >
</g>
<g >
</g>
<g >
</g>
<g >
</g>
<g >
</g>
<g >
</g>
<g >
</g>
<g >
</g>
<g >
</g>
<g >
</g>
<g >
</g>
<g >
</g>
</g> 
</svg>
